<svg width="648" height="640" viewBox="0 0 648 640" fill="none" xmlns="http://www.w3.org/2000/svg">
<g clip-path="url(#clip0_117_8217)">
<path fill-rule="evenodd" clip-rule="evenodd" d="M445.34 439.77L446.916 528.741H521.356V477.694H524.288L535.759 528.741H607.96L591.507 420.793L445.34 439.77Z" fill="#FFFFF6"/>
<path d="M607.96 529.762H535.758C535.284 529.762 534.871 529.433 534.766 528.965L523.475 478.712H522.372V528.741C522.372 529.306 521.917 529.762 521.355 529.762H446.916C446.362 529.762 445.91 529.317 445.899 528.761L444.322 439.79C444.314 439.27 444.695 438.827 445.207 438.761L591.374 419.784C591.925 419.715 592.427 420.094 592.51 420.642L608.963 528.589C609.007 528.882 608.922 529.181 608.729 529.408C608.536 529.632 608.255 529.762 607.96 529.762ZM536.568 527.724H606.775L590.652 421.933L446.373 440.667L447.914 527.724H520.338V477.694C520.338 477.13 520.793 476.673 521.355 476.673H524.285C524.759 476.673 525.172 477.002 525.277 477.47L536.568 527.724Z" fill="#020D3A"/>
<path fill-rule="evenodd" clip-rule="evenodd" d="M502.06 441.29C513.53 441.798 524.747 441.257 535.59 438.982L523.496 252.56L484.919 261.89L502.06 441.29Z" fill="#20E086"/>
<path fill-rule="evenodd" clip-rule="evenodd" d="M422.371 264.806C422.371 264.806 427.498 261.895 430.879 260.345L466.62 264.806L492.964 267.621C499.804 320.377 503.933 388.123 505.378 453.944C485.359 457.866 459.307 458.88 439.164 455.144C435.912 454.512 433.52 451.637 433.52 448.283C433.396 430.636 433.02 377.556 433.02 377.556L422.371 264.806Z" fill="#FFFFF6"/>
<path d="M467.508 458.479C457.248 458.479 447.394 457.707 438.981 456.15C435.227 455.417 432.503 452.113 432.503 448.288L432.003 377.616L421.354 264.901C421.311 264.501 421.52 264.117 421.869 263.921C422.078 263.803 427.083 260.968 430.446 259.418C430.627 259.343 430.81 259.313 431.002 259.338L466.743 263.795L493.073 266.61C493.532 266.66 493.905 267.025 493.962 267.492C500.425 317.349 504.849 383.556 506.39 453.921C506.405 454.421 506.054 454.853 505.57 454.946C493.616 457.289 480.255 458.479 467.508 458.479ZM423.439 265.372L434.032 377.469C434.032 377.498 434.032 377.528 434.032 377.553L434.533 448.277C434.533 451.138 436.563 453.601 439.357 454.147C457.749 457.558 483.161 457.144 504.347 453.108C502.788 383.508 498.425 318.045 492.058 268.553L466.507 265.818L431.03 261.396C428.418 262.621 424.817 264.6 423.439 265.372Z" fill="#020D3A"/>
<path fill-rule="evenodd" clip-rule="evenodd" d="M514.826 262.364L534.4 449.354C534.4 449.354 577.23 454.921 601.28 442.11C604.021 440.624 605.562 437.59 605.117 434.457C601.754 410.07 586.531 301.111 586.531 301.111L585.836 247.436L567.18 237.283L514.826 262.364Z" fill="#FFFFF6"/>
<path d="M556.024 451.576C543.749 451.576 534.378 450.38 534.282 450.366C533.808 450.305 533.449 449.927 533.392 449.459L513.818 262.472C513.776 262.044 514.014 261.633 514.402 261.443L566.742 236.365C567.034 236.226 567.382 236.236 567.659 236.39L586.329 246.543C586.65 246.722 586.847 247.061 586.858 247.425L587.553 301.034C587.983 304.206 602.829 410.456 606.139 434.321C606.627 437.832 604.874 441.327 601.76 443.013C589.151 449.728 571.469 451.369 558.846 451.562C557.888 451.573 556.956 451.576 556.024 451.576ZM535.324 448.437C541.289 449.105 579.117 452.768 600.801 441.21C603.164 439.935 604.497 437.275 604.123 434.6C600.785 410.492 585.676 302.344 585.523 301.251C585.523 301.208 585.523 301.168 585.509 301.125L584.828 248.046L567.159 238.427L515.918 262.975L535.324 448.437Z" fill="#020D3A"/>
<path fill-rule="evenodd" clip-rule="evenodd" d="M474.896 272.566C474.896 272.566 478.061 302.852 479.171 313.709C479.26 314.696 478.959 315.65 478.307 316.396C477.655 317.114 476.731 317.522 475.73 317.522C474.046 317.522 472.604 316.259 472.395 314.557C471.153 304.177 467.135 270.382 467.135 270.382L474.896 272.566Z" fill="#020D3A"/>
<path fill-rule="evenodd" clip-rule="evenodd" d="M531.871 260.609C531.871 260.609 535.417 294.949 536.616 306.586C536.721 307.573 536.404 308.527 535.752 309.273C535.1 309.991 534.176 310.399 533.175 310.399C531.491 310.399 530.05 309.14 529.84 307.438C528.614 297.058 524.58 263.263 524.58 263.263L531.871 260.609Z" fill="#020D3A"/>
<path fill-rule="evenodd" clip-rule="evenodd" d="M461.199 211.162C461.199 211.162 440.08 213.217 441.375 239.215C441.375 239.215 430.03 241.395 430.56 260.153C466.871 284.886 525.648 278.149 563.877 241.622C563.877 241.622 567.618 240.229 576.569 242.065C576.569 242.065 575.694 217.427 560.971 217.266C560.971 217.266 554.008 189.813 518.933 200.063L461.199 211.162Z" fill="#20E086"/>
<path d="M496.993 274.844C496.482 274.844 496.048 274.466 495.982 273.954C495.917 273.394 496.307 272.884 496.863 272.815C501.95 272.164 507.009 271.016 511.89 269.398C512.419 269.224 512.995 269.515 513.17 270.047C513.346 270.582 513.058 271.158 512.521 271.338C507.519 272.994 502.338 274.168 497.123 274.838C497.076 274.841 497.029 274.844 496.993 274.844Z" fill="#020D3A"/>
<path fill-rule="evenodd" clip-rule="evenodd" d="M585.917 247.472C585.917 247.472 559.823 253.609 561.659 306.047C562.104 318.416 563.299 333.089 563.299 333.089L543.225 331H506.984L488.105 373.322C488.105 373.322 560.814 397.455 601.779 385.09C615.459 380.979 619.491 364.629 616.334 338.185C613.185 311.776 604.018 264.994 585.917 247.472Z" fill="#FFFFF6"/>
<path d="M573.672 389.603C558.298 389.603 542.283 387.324 529.382 384.842C506.292 380.392 487.97 374.348 487.788 374.288C487.511 374.198 487.287 373.997 487.176 373.733C487.052 373.472 487.052 373.167 487.176 372.906L506.055 330.588C506.222 330.216 506.581 329.984 506.986 329.984H543.228C543.256 329.984 543.3 329.984 543.325 329.988L562.19 331.951C561.898 328.158 561.01 316.275 560.647 306.085C560.12 290.963 561.719 270.081 572.31 256.466C578.748 248.191 585.42 246.541 585.697 246.477C586.032 246.398 586.376 246.496 586.629 246.735C594.775 254.621 601.863 268.913 607.717 289.211C613.376 308.865 616.184 328.255 617.351 338.062C620.714 366.264 615.711 381.963 602.073 386.063C593.607 388.616 583.779 389.603 573.672 389.603ZM489.498 372.694C498.658 375.597 563.983 395.424 601.49 384.106C614.027 380.334 618.56 365.351 615.336 338.296C611.389 305.284 601.532 264.555 585.642 248.619C584.015 249.176 578.801 251.365 573.798 257.865C563.676 271.005 562.16 291.297 562.676 306.005C563.107 318.206 564.302 332.858 564.317 333.005C564.331 333.305 564.221 333.603 564.011 333.817C563.787 334.028 563.493 334.132 563.191 334.104L543.172 332.021H507.64L489.498 372.694Z" fill="#020D3A"/>
<path d="M602.824 356.375C602.336 356.375 601.919 356.034 601.823 355.552C601.182 352.263 596.58 342.137 587.448 338.594C578.288 335.026 563.329 334.151 563.176 334.144C562.621 334.111 562.192 333.627 562.217 333.062C562.245 332.502 562.732 332.071 563.287 332.103C563.914 332.139 578.719 333.007 588.185 336.693C598.111 340.543 603.113 351.576 603.811 355.158C603.921 355.712 603.563 356.247 603.018 356.355C602.951 356.369 602.88 356.375 602.824 356.375Z" fill="#020D3A"/>
<path fill-rule="evenodd" clip-rule="evenodd" d="M147.636 222.308L107.941 262.154C104.732 265.366 99.5849 265.366 96.4191 262.154L67.5693 233.215C64.4035 230.034 64.4035 224.865 67.5693 221.68C70.7508 218.498 75.8932 218.498 79.1062 221.68L102.164 244.852L147.16 199.695C145.516 193.439 139.848 188.826 133.088 188.826C114.318 188.826 81.7774 188.826 63.0068 188.826C54.9723 188.826 48.459 195.362 48.459 203.437C48.459 222.271 48.459 254.921 48.459 273.759C48.459 281.834 54.9723 288.367 63.0068 288.367C81.7774 288.367 114.318 288.367 133.088 288.367C141.123 288.367 147.636 281.834 147.636 273.759V222.308Z" fill="#020D3A"/>
<path fill-rule="evenodd" clip-rule="evenodd" d="M168.883 322.826C168.883 320.144 167.825 317.588 165.948 315.702C164.061 313.815 161.519 312.746 158.869 312.746C145.461 312.746 121.877 312.746 108.491 312.746C105.819 312.746 103.277 313.815 101.4 315.702C99.5126 317.588 98.4551 320.144 98.4551 322.826C98.4551 336.254 98.4551 359.931 98.4551 373.384C98.4551 376.039 99.5126 378.593 101.4 380.479C103.277 382.365 105.819 383.435 108.491 383.435C121.877 383.435 145.461 383.435 158.869 383.435C161.519 383.435 164.061 382.365 165.948 380.479C167.825 378.593 168.883 376.039 168.883 373.384C168.883 359.934 168.883 336.254 168.883 322.826Z" fill="#FFFFF6"/>
<path d="M158.871 384.456H108.494C105.548 384.456 102.767 383.303 100.683 381.207C98.6223 379.138 97.4434 376.288 97.4434 373.387V322.829C97.4434 319.866 98.5888 317.078 100.683 314.982C102.767 312.882 105.548 311.73 108.494 311.73H158.871C161.762 311.73 164.611 312.916 166.66 314.982C168.755 317.078 169.9 319.866 169.9 322.829V373.387C169.9 376.288 168.721 379.138 166.66 381.207C164.611 383.272 161.765 384.456 158.871 384.456ZM108.494 313.769C106.084 313.769 103.824 314.711 102.112 316.424C100.412 318.134 99.4724 320.41 99.4724 322.826V373.384C99.4724 375.75 100.434 378.072 102.112 379.759C103.824 381.468 106.084 382.411 108.494 382.411H158.871C161.228 382.411 163.542 381.443 165.231 379.759C166.912 378.069 167.871 375.747 167.871 373.384V322.826C167.871 320.41 166.932 318.134 165.231 316.424C163.542 314.734 161.226 313.769 158.871 313.769H108.494Z" fill="#020D3A"/>
<path fill-rule="evenodd" clip-rule="evenodd" d="M375.987 332.941C375.987 330.546 375.115 328.245 373.544 326.627C372.033 324.994 369.971 324.179 367.931 324.383C336.67 327.336 224.068 337.987 195.07 340.737C191.177 341.104 188.207 344.818 188.207 349.295V371.526C188.207 373.812 188.989 375.988 190.388 377.608C191.84 379.214 193.672 380.126 195.652 380.126C225.781 380.126 338.383 380.126 368.513 380.126C372.615 380.126 375.987 376.275 375.987 371.526V332.941Z" fill="#FFFFF6"/>
<path d="M368.519 381.146H195.658C193.447 381.146 191.298 380.133 189.638 378.294C188.067 376.446 187.195 374.049 187.195 371.527V349.296C187.195 344.257 190.537 340.142 194.989 339.724C223.987 336.976 336.589 326.322 367.85 323.369C370.203 323.132 372.565 324.068 374.277 325.934C375.989 327.692 376.982 330.254 376.982 332.944V371.527C376.989 376.831 373.202 381.146 368.519 381.146ZM368.548 325.375C368.377 325.375 368.196 325.383 368.025 325.402C336.793 328.355 224.191 339.005 195.164 341.756C191.791 342.075 189.231 345.317 189.231 349.298V371.529C189.231 373.565 189.929 375.489 191.15 376.947C192.431 378.353 194.005 379.107 195.658 379.107H368.519C372.07 379.107 374.975 375.706 374.975 371.527V332.944C374.975 330.784 374.193 328.743 372.823 327.343C371.632 326.069 370.119 325.375 368.548 325.375Z" fill="#020D3A"/>
<path d="M346.945 241.536H176.893C176.332 241.536 175.881 241.078 175.881 240.514C175.881 239.953 176.332 239.495 176.893 239.495H346.945C347.505 239.495 347.957 239.953 347.957 240.514C347.957 241.081 347.505 241.536 346.945 241.536Z" fill="#20E086"/>
<path d="M245.949 218.854H176.885C176.327 218.854 175.871 218.396 175.871 217.832C175.871 217.271 176.326 216.817 176.885 216.817H245.949C246.511 216.817 246.967 217.271 246.967 217.832C246.966 218.396 246.511 218.854 245.949 218.854Z" fill="#20E086"/>
<path d="M346.945 264.216H176.893C176.332 264.216 175.881 263.759 175.881 263.198C175.881 262.634 176.332 262.176 176.893 262.176H346.945C347.505 262.176 347.957 262.634 347.957 263.198C347.957 263.759 347.505 264.216 346.945 264.216Z" fill="#20E086"/>
<path d="M255.177 368.34H211.579C211.018 368.34 210.563 367.883 210.563 367.318C210.563 366.758 211.018 366.3 211.579 366.3H255.177C255.738 366.3 256.192 366.758 256.192 367.318C256.192 367.883 255.738 368.34 255.177 368.34Z" fill="#020D3A"/>
<path d="M353.683 351.194H272.791C272.231 351.194 271.775 350.736 271.775 350.175C271.775 349.611 272.231 349.153 272.791 349.153H353.683C354.243 349.153 354.698 349.611 354.698 350.175C354.698 350.74 354.243 351.194 353.683 351.194Z" fill="#020D3A"/>
<path fill-rule="evenodd" clip-rule="evenodd" d="M147.164 199.716L102.17 244.829L79.1089 221.685C75.8976 218.511 70.77 218.511 67.5783 221.685C64.4062 224.859 64.4062 230.035 67.5783 233.214L96.3951 262.149C99.6064 265.366 104.773 265.366 107.926 262.149L147.642 222.299V203.415C147.642 202.148 147.472 200.89 147.164 199.716Z" fill="#FFFFF6"/>
<path d="M129.617 363.982C128.801 363.982 128.026 363.659 127.457 363.085L112.984 348.547C111.797 347.349 111.797 345.411 112.991 344.217C114.184 343.021 116.11 343.023 117.303 344.219L129.617 356.589L152.826 333.297C154.019 332.101 155.945 332.101 157.138 333.297C158.332 334.493 158.332 336.429 157.138 337.625L131.77 363.085C131.198 363.659 130.425 363.982 129.617 363.982Z" fill="#020D3A"/>
<path d="M32.4524 425.387C32.1473 425.389 31.8442 425.249 31.6432 424.987C31.2992 424.541 31.3894 423.898 31.8382 423.555L71.0274 393.469C71.4717 393.124 72.1134 393.206 72.455 393.657C72.7966 394.107 72.7099 394.749 72.26 395.088L33.0718 425.178C32.8846 425.319 32.6719 425.385 32.4524 425.387Z" fill="#20E086"/>
<path d="M25.3642 351.259C24.8072 351.265 24.361 350.825 24.3493 350.269C24.3232 349.708 24.7713 349.24 25.3365 349.219L66.8797 348.057C67.4384 348.055 67.8969 348.489 67.9133 349.054C67.9298 349.62 67.4913 350.083 66.9246 350.101L25.3828 351.266L25.3642 351.259Z" fill="#20E086"/>
<path d="M209.889 150.614C206.234 150.614 203.258 147.631 203.258 143.963C203.258 140.295 206.234 137.308 209.889 137.308C213.544 137.308 216.52 140.295 216.52 143.963C216.52 147.631 213.544 150.614 209.889 150.614ZM209.889 139.345C207.359 139.345 205.287 141.416 205.287 143.959C205.287 146.506 207.359 148.574 209.889 148.574C212.419 148.574 214.49 146.506 214.49 143.959C214.49 141.416 212.419 139.345 209.889 139.345Z" fill="#20E086"/>
<path d="M106.86 454.944C103.742 454.944 101.201 452.398 101.201 449.262C101.201 446.127 103.742 443.581 106.86 443.581C109.989 443.581 112.53 446.127 112.53 449.262C112.53 452.398 109.987 454.944 106.86 454.944ZM106.86 445.621C104.858 445.621 103.237 447.256 103.237 449.262C103.237 451.269 104.861 452.904 106.86 452.904C108.859 452.904 110.494 451.269 110.494 449.262C110.494 447.256 108.862 445.621 106.86 445.621Z" fill="#020D3A"/>
<path d="M348.248 415.932C348.299 412.228 345.352 409.178 341.661 409.127C337.971 409.075 334.937 412.042 334.886 415.746C334.834 419.449 337.785 422.488 341.475 422.54C345.166 422.591 348.197 419.636 348.248 415.932Z" fill="#020D3A"/>
<path d="M301.317 466.474C301.029 466.477 300.752 466.357 300.549 466.129L277.276 439.49C276.91 439.065 276.947 438.423 277.374 438.048C277.8 437.676 278.433 437.723 278.811 438.143L302.084 464.781C302.45 465.207 302.413 465.848 301.987 466.221C301.796 466.391 301.56 466.473 301.317 466.474Z" fill="#20E086"/>
<path fill-rule="evenodd" clip-rule="evenodd" d="M153.47 481.891C152.777 480.146 153.413 478.153 154.986 477.143C161.363 473.022 176.353 459.532 173.878 424.675C173.82 423.689 174.183 422.756 174.876 422.092C175.598 421.429 176.541 421.092 177.501 421.235C180.269 421.579 183.702 423.324 185.164 429.624C187.488 439.786 187.829 447.561 187.829 447.561C187.829 447.561 193.601 446.164 197.64 445.186C199.854 444.665 202.142 445.812 203.033 447.904C203.628 449.318 204.303 450.906 204.83 452.133C205.389 453.432 205.313 454.945 204.638 456.205C204.349 456.757 204.084 457.205 204.084 457.205C204.084 457.205 204.418 457.246 204.872 457.303C206.183 457.465 207.302 458.355 207.781 459.575C208.463 461.412 209.477 464.061 210.11 465.732C210.475 466.733 210.389 467.836 209.887 468.752C209.545 469.346 209.255 469.905 209.255 469.905C209.255 469.905 209.867 470.046 210.506 470.218C211.292 470.408 211.947 471.035 212.188 471.817C212.749 473.682 213.756 477.085 214.257 478.714C214.434 479.306 214.381 479.96 214.087 480.491C213.783 481.09 213.432 481.749 213.432 481.749C213.432 481.749 213.691 481.828 214.041 481.915C214.769 482.095 215.34 482.667 215.518 483.396C215.976 485.204 216.781 488.556 217.215 490.226C217.364 490.881 217.21 491.567 216.779 492.058C214.746 494.263 208.088 500.258 194.059 501.745C181.932 503.035 171.784 505.16 166.819 506.341C164.921 506.809 162.987 505.8 162.249 504C160.094 498.523 155.643 487.368 153.47 481.891Z" fill="#FFFFF6"/>
<path d="M165.902 507.474C163.942 507.477 162.079 506.278 161.315 504.385C159.64 500.142 156.611 492.521 154.314 486.749L152.527 482.271C151.659 480.072 152.459 477.555 154.435 476.285C160.789 472.187 175.29 458.95 172.862 424.749C172.791 423.461 173.261 422.228 174.18 421.356C175.152 420.452 176.422 420.046 177.649 420.227C180.633 420.598 184.547 422.493 186.155 429.396C187.941 437.198 188.572 443.678 188.769 446.289C190.666 445.828 194.48 444.901 197.405 444.196C200.112 443.559 202.88 444.951 203.975 447.504L204.067 447.731C204.639 449.086 205.266 450.571 205.763 451.729C206.409 453.215 206.367 454.951 205.673 456.429C207.045 456.815 208.19 457.832 208.73 459.199C209.254 460.615 209.966 462.484 210.553 464.031L211.057 465.373C211.53 466.642 211.436 468.049 210.79 469.24C211.885 469.512 212.809 470.384 213.159 471.514C213.379 472.235 213.652 473.169 213.944 474.14C214.42 475.722 214.92 477.409 215.236 478.419C215.5 479.287 215.404 480.219 214.979 480.986C214.952 481.039 214.923 481.095 214.899 481.151C215.69 481.54 216.28 482.266 216.511 483.153C216.711 483.958 216.984 485.072 217.264 486.206C217.61 487.61 217.962 489.051 218.199 489.974C218.425 490.984 218.179 492 217.559 492.729C215.205 495.27 208.276 501.267 194.166 502.762C181.36 504.124 170.943 506.417 167.049 507.338C166.664 507.426 166.281 507.475 165.902 507.474ZM154.41 481.511L156.197 485.988C158.494 491.762 161.53 499.389 163.199 503.621C163.734 504.944 165.194 505.69 166.575 505.348C170.508 504.414 181.04 502.101 193.958 500.727C207.381 499.303 213.868 493.704 216.038 491.359C216.226 491.146 216.298 490.792 216.221 490.443C215.992 489.547 215.641 488.098 215.286 486.683C215.015 485.555 214.742 484.446 214.531 483.644C214.446 483.276 214.16 482.994 213.803 482.904C213.426 482.806 213.145 482.724 213.145 482.724C212.856 482.637 212.611 482.421 212.497 482.14C212.384 481.858 212.392 481.534 212.536 481.261C212.546 481.26 212.886 480.612 213.178 480.027C213.358 479.708 213.394 479.339 213.294 479.005C212.978 477.998 212.478 476.303 212.003 474.719C211.714 473.748 211.43 472.817 211.216 472.108C211.081 471.667 210.705 471.313 210.267 471.207C209.628 471.035 209.027 470.89 209.027 470.89C208.716 470.818 208.463 470.608 208.327 470.321C208.194 470.032 208.204 469.698 208.359 469.417C208.359 469.417 208.66 468.845 209.015 468.234C209.363 467.587 209.422 466.799 209.16 466.085L208.655 464.751C208.056 463.197 207.347 461.324 206.831 459.926C206.488 459.054 205.686 458.427 204.751 458.311L203.963 458.213C203.628 458.171 203.334 457.961 203.182 457.654C203.031 457.348 203.034 456.981 203.212 456.687C203.212 456.68 203.465 456.25 203.751 455.718C204.282 454.731 204.34 453.541 203.894 452.536C203.398 451.369 202.771 449.883 202.199 448.525L202.107 448.303C201.401 446.663 199.619 445.774 197.87 446.181C193.842 447.154 188.069 448.554 188.069 448.554C187.771 448.625 187.461 448.558 187.212 448.375C186.973 448.191 186.828 447.911 186.817 447.606C186.806 447.528 186.451 439.795 184.179 429.853C183.098 425.234 180.815 422.675 177.379 422.248C176.731 422.152 176.075 422.369 175.567 422.843C175.102 423.286 174.851 423.935 174.898 424.613C177.403 459.893 162.19 473.705 155.533 478.004C154.374 478.746 153.909 480.224 154.41 481.511Z" fill="#020D3A"/>
<path fill-rule="evenodd" clip-rule="evenodd" d="M340.068 193.581C341.206 195.436 343.467 196.276 345.533 195.642C351.624 193.836 363.749 190.224 369.248 188.573C371.048 188.039 372.366 186.516 372.646 184.661C373.507 178.378 374.089 163.477 363.649 148.856C363.649 148.856 355.624 130.65 351.847 122.108C350.786 119.719 347.991 118.623 345.611 119.663C343.565 120.579 342.569 122.919 343.387 125.03C345.69 131.005 349.947 141.989 349.947 141.989C349.947 141.989 342.907 140.539 341.208 146.514C341.208 146.514 334.056 144.252 331.373 150.583C331.373 150.583 325.952 137.767 322.611 129.811C321.93 128.205 320.623 126.963 318.978 126.325C317.359 125.716 315.559 125.816 313.983 126.58C311.479 127.801 310.36 130.776 311.479 133.369C315.324 142.293 323.471 161.138 323.471 161.138C323.471 161.138 307.812 155.646 300.113 166.12C298.717 167.975 298.314 170.875 307.355 171.053C323.958 171.36 335.687 186.793 340.068 193.581Z" fill="#FFFFF6"/>
<path d="M344.14 196.876C342.172 196.876 340.284 195.868 339.211 194.128C334.986 187.59 323.442 172.37 307.337 172.071C302.353 171.973 299.492 171.045 298.62 169.225C298.082 168.125 298.329 166.805 299.301 165.507C302.643 160.956 307.985 158.581 314.691 158.676C317.529 158.713 320.034 159.174 321.687 159.573L310.545 133.776C309.214 130.689 310.544 127.128 313.551 125.664C315.374 124.779 317.475 124.671 319.34 125.369C321.251 126.11 322.739 127.544 323.531 129.407C326.101 135.5 329.869 144.43 331.5 148.292C333.958 144.999 337.972 144.778 340.541 145.298C342.072 141.637 345.683 140.725 348.387 140.797C347.125 137.55 344.207 129.991 342.43 125.397C341.423 122.796 342.641 119.869 345.191 118.735C348.086 117.468 351.483 118.793 352.768 121.687C356.39 129.874 363.901 146.919 364.536 148.346C375.208 163.363 374.472 178.835 373.645 184.796C373.31 187.047 371.701 188.911 369.532 189.552C364.056 191.197 352.085 194.76 345.816 196.621C345.267 196.793 344.701 196.876 344.14 196.876ZM314.367 160.74C309.783 160.74 304.429 161.963 300.933 166.726C300.641 167.114 300.195 167.825 300.441 168.333C300.622 168.704 301.66 169.92 307.382 170.032C324.46 170.345 336.53 186.221 340.921 193.031C340.933 193.037 340.932 193.042 340.932 193.048C341.828 194.507 343.604 195.169 345.246 194.666C351.515 192.806 363.486 189.24 368.962 187.594C370.381 187.175 371.43 185.963 371.644 184.504C372.425 178.787 373.141 163.896 362.826 149.451C362.792 149.393 362.76 149.334 362.726 149.271C362.726 149.271 354.701 131.063 350.924 122.523C350.086 120.651 347.883 119.787 346.029 120.602C344.475 121.294 343.726 123.08 344.341 124.665C346.644 130.638 350.902 141.622 350.902 141.622C351.036 141.969 350.969 142.366 350.734 142.651C350.488 142.938 350.108 143.065 349.75 142.99C349.504 142.938 343.606 141.816 342.184 146.795C342.118 147.062 341.939 147.283 341.692 147.415C341.446 147.547 341.165 147.574 340.899 147.491C340.653 147.413 334.596 145.598 332.316 150.984C332.158 151.361 331.789 151.604 331.377 151.604C330.973 151.604 330.604 151.361 330.438 150.984C330.438 150.984 325.018 138.168 321.676 130.209C321.095 128.859 320.01 127.819 318.625 127.279C317.295 126.776 315.764 126.857 314.445 127.5C312.411 128.485 311.527 130.887 312.422 132.965L324.403 160.731C324.572 161.102 324.493 161.532 324.224 161.831C323.944 162.129 323.521 162.235 323.14 162.1C323.06 162.074 319.139 160.74 314.367 160.74Z" fill="#020D3A"/>
<path d="M339.886 165.705C339.482 165.705 339.082 165.646 338.69 165.517C337.694 165.15 336.914 164.436 336.5 163.546C334.454 159.265 330.476 150.95 330.476 150.95L332.308 150.067C332.308 150.067 336.289 158.381 338.344 162.679C338.532 163.093 338.9 163.419 339.349 163.585C339.773 163.72 340.253 163.685 340.668 163.476L340.858 163.386C341.977 162.823 343.261 162.176 344.334 161.625C345.138 161.223 345.495 160.288 345.172 159.444C343.53 155.335 340.288 147.201 340.288 147.201C340.076 146.678 340.323 146.081 340.847 145.872C341.362 145.662 341.954 145.91 342.166 146.427C342.166 146.427 345.407 154.308 347.061 158.302C347.207 158.635 347.463 158.902 347.821 159.057C348.133 159.177 348.526 159.172 348.849 159.029C349.622 158.718 350.459 158.364 351.274 158.013C351.912 157.744 352.535 157.472 353.107 157.24C353.757 156.952 354.102 156.19 353.856 155.507C352.337 151.286 349.061 142.26 349.061 142.26L350.973 141.565C350.973 141.565 354.248 150.593 355.767 154.814C356.371 156.505 355.554 158.397 353.901 159.121C353.32 159.362 352.694 159.628 352.068 159.898C351.241 160.251 350.392 160.611 349.643 160.913C348.893 161.237 348.033 161.273 347.206 161.003C346.949 162.033 346.269 162.94 345.25 163.448C344.177 163.999 342.894 164.649 341.763 165.212L341.585 165.304C341.05 165.571 340.467 165.705 339.886 165.705Z" fill="#020D3A"/>
<path fill-rule="evenodd" clip-rule="evenodd" d="M557.625 303.612C557.625 303.612 552.577 289.068 550.563 283.247C550.118 281.918 550.81 280.491 552.106 280.048C553.205 279.673 554.4 280.242 554.816 281.346C556.984 287.26 563.227 304.495 563.227 304.495L559.515 306.235L557.625 303.612Z" fill="#020D3A"/>
<path fill-rule="evenodd" clip-rule="evenodd" d="M526.389 310.76C526.389 310.76 545.516 299.789 549.716 299.282C553.901 298.807 562.922 303.171 564.549 304.056C566.232 304.974 567.58 308.611 571.68 313.261C572.876 314.622 571.206 318.892 566.509 316.902C566.509 316.902 567.829 320.757 566.064 322.971C566.064 322.971 567.329 325.596 565.119 327.75H556.041C556.041 327.75 549.77 334.327 538.108 334.387L531.018 322.971L526.389 310.76Z" fill="#FFFFF6"/>
<path d="M538.109 335.407C537.76 335.407 537.439 335.225 537.247 334.925L530.157 323.509C530.129 323.452 530.099 323.396 530.074 323.331L525.445 311.124C525.263 310.652 525.459 310.122 525.889 309.872C527.865 308.736 545.325 298.778 549.592 298.26C554.567 297.696 564.94 303.097 565.036 303.154C566.108 303.74 566.942 304.997 568.081 306.733C569.138 308.333 570.457 310.332 572.446 312.582C573.321 313.589 573.264 315.358 572.307 316.704C571.905 317.265 570.541 318.797 567.886 318.365C568.082 319.722 568.109 321.598 567.205 323.105C567.607 324.426 567.679 326.669 565.829 328.473C565.647 328.658 565.383 328.762 565.12 328.762H556.459C555 330.127 548.728 335.346 538.123 335.403C538.123 335.403 538.123 335.407 538.109 335.407ZM531.937 322.512L538.679 333.359C549.37 333.095 555.248 327.1 555.319 327.036C555.501 326.836 555.764 326.725 556.042 326.725H564.675C565.953 325.193 565.19 323.48 565.148 323.401C564.995 323.048 565.038 322.631 565.273 322.327C566.426 320.88 565.871 318.153 565.551 317.221C565.426 316.842 565.523 316.418 565.815 316.146C566.107 315.871 566.536 315.794 566.913 315.948C568.582 316.658 569.944 316.497 570.653 315.508C571.098 314.887 571.113 314.146 570.917 313.932C568.846 311.574 567.481 309.516 566.385 307.859C565.438 306.423 564.686 305.286 564.063 304.947C561.505 303.561 553.373 299.894 549.828 300.287C546.714 300.662 533.424 307.925 527.655 311.211L531.937 322.512Z" fill="#020D3A"/>
<path d="M564.967 312.823C564.828 312.823 564.689 312.796 564.55 312.739L556.292 309.039C555.776 308.81 555.557 308.206 555.778 307.692C556.013 307.174 556.61 306.944 557.126 307.172L565.384 310.873C565.9 311.102 566.119 311.705 565.898 312.219C565.731 312.598 565.355 312.823 564.967 312.823Z" fill="#020D3A"/>
<path d="M566.306 317.895C566.244 317.897 566.201 317.893 566.138 317.882L556.075 316.244C555.507 316.156 555.133 315.628 555.228 315.075C555.323 314.521 555.835 314.138 556.388 314.231L566.466 315.868C567.019 315.956 567.392 316.484 567.313 317.038C567.229 317.542 566.795 317.896 566.306 317.895Z" fill="#020D3A"/>
<path d="M565.905 324.024C565.848 324.024 565.794 324.021 565.736 324.01L556.746 322.534C556.197 322.447 555.826 321.923 555.911 321.366C556.007 320.813 556.531 320.434 557.08 320.525L566.07 322.001C566.619 322.092 567.005 322.618 566.905 323.172C566.823 323.672 566.4 324.026 565.905 324.024Z" fill="#020D3A"/>
<path fill-rule="evenodd" clip-rule="evenodd" d="M422.403 264.931C422.403 264.931 433.302 274.959 436.999 287.452C440.683 299.914 441.879 334.326 441.879 334.326C441.879 334.326 481.429 318.387 495.233 314.498C509.066 310.572 514.779 313.577 514.779 313.577C514.779 313.577 522.968 307.755 527.096 309.716C530.779 311.487 536.674 322.436 538.315 333.44C538.635 335.848 537.775 338.281 536.021 339.956C533.782 342.109 530.559 345.081 527.972 346.789C527.972 346.789 526.747 352.828 518.644 357.828C510.555 362.857 449.094 402.011 409.043 392.114C394.349 388.474 388.968 361.559 398.075 319.049C407.185 276.569 415.94 267.681 422.403 264.931Z" fill="#FFFFF6"/>
<path d="M423.176 394.736C417.991 394.736 413.194 394.193 408.774 393.1C403.34 391.75 396.291 386.707 393.607 370.32C391.465 357.188 392.66 339.387 397.055 318.832C406.315 275.694 415.237 266.863 421.981 263.992C422.354 263.835 422.773 263.909 423.065 264.177C423.524 264.595 434.228 274.54 437.954 287.162C441.249 298.291 442.542 326.093 442.819 332.843C449.866 330.025 482.673 316.97 494.936 313.513C506.698 310.177 512.813 311.746 514.635 312.421C516.61 311.096 523.437 306.854 527.508 308.794C531.569 310.744 537.599 321.867 539.296 333.286C539.659 336.04 538.683 338.801 536.697 340.694C533.43 343.837 530.843 346.04 528.842 347.415C528.398 348.948 526.395 354.227 519.167 358.688L518.5 359.096C503.446 368.486 488.711 376.241 474.682 382.148C454.802 390.527 437.55 394.736 423.176 394.736ZM422.175 266.144C416.378 268.94 407.883 278.02 399.043 319.261C394.69 339.569 393.509 357.106 395.623 369.986C397.598 382.09 402.31 389.394 409.261 391.115C425.524 395.133 447.269 391.49 473.889 380.271C487.819 374.403 502.472 366.699 517.429 357.37L518.096 356.955C525.673 352.28 526.952 346.628 526.966 346.575C527.023 346.314 527.176 346.079 527.397 345.933C529.343 344.647 531.926 342.448 535.293 339.215C536.823 337.769 537.558 335.658 537.295 333.572C535.626 322.446 529.775 312.143 526.632 310.635C523.7 309.243 517.486 312.884 515.344 314.406C515.024 314.631 514.622 314.654 514.287 314.479C514.231 314.454 508.642 311.741 495.492 315.473C481.898 319.306 442.637 335.11 442.235 335.271C441.929 335.392 441.581 335.358 441.304 335.18C441.026 335.001 440.859 334.692 440.845 334.36C440.831 334.017 439.606 299.938 435.993 287.744C432.876 277.147 424.3 268.23 422.175 266.144Z" fill="#020D3A"/>
<path d="M526.751 342.512C526.278 342.512 525.861 342.185 525.75 341.707C523.316 330.249 521.317 325.106 516.811 318.774C516.491 318.317 516.589 317.676 517.048 317.351C517.507 317.026 518.149 317.131 518.466 317.588C523.11 324.106 525.279 329.641 527.738 341.281C527.863 341.831 527.515 342.374 526.96 342.491C526.896 342.506 526.819 342.512 526.751 342.512Z" fill="#020D3A"/>
<path d="M415.584 364.185C415.555 364.185 415.525 364.181 415.5 364.181C414.945 364.128 414.53 363.64 414.569 363.076C414.612 362.679 415.501 353.291 422.145 345.908C428.722 338.565 441.414 333.632 441.955 333.428C442.471 333.225 443.056 333.493 443.262 334.018C443.458 334.543 443.205 335.136 442.678 335.336C442.554 335.383 429.903 340.3 423.647 347.272C417.476 354.133 416.609 363.161 416.599 363.253C416.559 363.782 416.114 364.185 415.584 364.185Z" fill="#020D3A"/>
<path fill-rule="evenodd" clip-rule="evenodd" d="M474.745 227.058L478.659 239.938C497.989 243.884 515.593 240.49 527.564 231.431L519.653 206.46L490.918 220.275L474.745 227.058Z" fill="#FFFFF6"/>
<path d="M494.221 242.571C489.117 242.571 483.828 242.03 478.455 240.936C478.086 240.863 477.79 240.59 477.679 240.232L473.765 227.355C473.617 226.853 473.867 226.315 474.347 226.116L490.529 219.335L519.209 205.541C519.476 205.413 519.782 205.406 520.049 205.525C520.325 205.641 520.529 205.87 520.621 206.152L528.532 231.123C528.662 231.536 528.512 231.983 528.172 232.247C519.206 239.027 507.32 242.571 494.221 242.571ZM479.452 239.053C497.508 242.604 514.531 239.694 526.372 231.045L519.034 207.885L491.359 221.192L475.981 227.642L479.452 239.053Z" fill="#020D3A"/>
<path d="M493.601 242.285C484.155 242.285 473.994 240.563 463.568 236.979C463.034 236.796 462.758 236.215 462.935 235.684C463.113 235.15 463.697 234.865 464.231 235.048C499.596 247.199 531.697 237.495 542.27 211.445C542.488 210.924 543.081 210.673 543.595 210.884C544.12 211.098 544.367 211.691 544.159 212.212C536.304 231.56 517.162 242.285 493.601 242.285Z" fill="#020D3A"/>
<path fill-rule="evenodd" clip-rule="evenodd" d="M448.082 186.677C448.082 186.677 453.021 204.924 455.134 210.659C457.23 216.393 467.855 230.598 489.501 231.058C511.137 231.514 524.192 209.915 524.901 199.834C524.901 199.834 539.994 202.556 543.695 188.386C546.122 179.172 534.345 167.45 522.501 176.095L503.559 150.498L465.371 141.185L441.62 163.415L448.082 186.677Z" fill="#FFFFF6"/>
<path d="M490.185 232.085C489.953 232.085 489.715 232.082 489.474 232.078C466.767 231.596 456.125 216.321 454.185 211.011C452.079 205.312 447.317 187.747 447.105 186.948L440.634 163.691C440.532 163.323 440.643 162.93 440.92 162.669L464.68 140.438C464.928 140.203 465.279 140.109 465.612 140.19L503.8 149.505C504.032 149.562 504.236 149.697 504.373 149.89L522.733 174.694C527.986 171.269 533.893 171.17 538.721 174.483C543.549 177.801 546.005 183.623 544.684 188.643C541.38 201.267 529.47 201.271 525.807 200.96C525.105 205.95 521.855 213.478 515.801 220.085C510.741 225.595 502.232 232.082 490.185 232.085ZM442.766 163.739L449.061 186.406V186.413C449.116 186.593 454.018 204.682 456.086 210.307C457.906 215.285 467.941 229.58 489.52 230.035C489.733 230.04 489.956 230.042 490.176 230.042C511.009 230.044 523.239 208.924 523.887 199.758C523.915 199.471 524.052 199.204 524.284 199.024C524.506 198.846 524.801 198.775 525.087 198.824C525.659 198.929 539.294 201.197 542.718 188.124C543.807 183.991 541.639 178.963 537.567 176.167C533.164 173.143 527.892 173.419 523.093 176.917C522.649 177.247 522.014 177.15 521.681 176.702L502.96 151.4L465.659 142.302L442.766 163.739Z" fill="#020D3A"/>
<path fill-rule="evenodd" clip-rule="evenodd" d="M446.52 180.807L448.366 187.734C448.366 187.734 431.787 179.461 435.175 152.091C438.574 124.718 477.721 97.634 510.868 116.021C510.868 116.021 549.417 118.356 536.383 174.264C536.383 174.264 530.355 170.157 522.361 176.114C522.361 176.114 522.213 182.381 521.438 186.474C521.336 186.861 521.041 187.166 520.662 187.28C520.284 187.391 519.869 187.298 519.573 187.028C518.198 185.429 515.935 182.297 513.61 176.8C513.61 176.8 497.788 179.376 484.108 161.371C470.419 143.368 462.869 151.143 460.459 158.768C460.459 158.768 447.312 154.442 447.296 167.08C447.296 172.288 449.224 173.652 446.52 180.807Z" fill="#020D3A"/>
<path d="M525.642 190.253C525.366 190.253 525.089 190.138 524.885 189.915C524.507 189.498 524.543 188.856 524.959 188.477C525.143 188.301 529.75 184.125 536.839 180.155C537.328 179.883 537.957 180.058 538.224 180.549C538.5 181.042 538.325 181.666 537.836 181.941C530.96 185.788 526.37 189.944 526.325 189.987C526.132 190.165 525.883 190.253 525.642 190.253Z" fill="#020D3A"/>
<path d="M534.778 190.298C534.556 190.298 534.335 190.225 534.141 190.073L529.664 186.451C529.229 186.098 529.155 185.454 529.507 185.018C529.866 184.576 530.505 184.509 530.938 184.862L535.424 188.485C535.859 188.838 535.922 189.482 535.572 189.918C535.371 190.167 535.073 190.298 534.778 190.298Z" fill="#020D3A"/>
<path d="M451.111 183.921C450.931 183.922 450.741 183.873 450.586 183.763C450.111 183.466 449.951 182.842 450.252 182.364C450.379 182.159 453.411 177.329 458.514 176.294C461.413 175.707 464.367 176.46 467.278 178.539C467.742 178.861 467.849 179.502 467.526 179.962C467.192 180.423 466.565 180.529 466.111 180.2C463.668 178.465 461.249 177.823 458.929 178.292C454.694 179.147 452.008 183.397 451.985 183.439C451.788 183.749 451.458 183.921 451.111 183.921Z" fill="#020D3A"/>
<path d="M484.521 173.604C484.223 173.603 483.929 173.476 483.739 173.228C483.384 172.794 483.447 172.153 483.87 171.795C484.021 171.674 487.607 168.767 492.062 168.637C492.629 168.631 493.089 169.067 493.101 169.626C493.123 170.192 492.686 170.658 492.114 170.672C488.376 170.787 485.201 173.353 485.167 173.376C484.984 173.534 484.747 173.605 484.521 173.604Z" fill="#020D3A"/>
<path fill-rule="evenodd" clip-rule="evenodd" d="M489.965 182.142C491.67 182.142 493.037 183.519 493.037 185.216C493.037 186.913 491.67 188.291 489.965 188.291C488.278 188.291 486.91 186.913 486.91 185.216C486.91 183.514 488.278 182.142 489.965 182.142Z" fill="#020D3A"/>
<path fill-rule="evenodd" clip-rule="evenodd" d="M463.965 191.142C465.67 191.142 467.037 192.519 467.037 194.216C467.037 195.913 465.67 197.291 463.965 197.291C462.278 197.291 460.91 195.913 460.91 194.216C460.91 192.514 462.278 191.142 463.965 191.142Z" fill="#020D3A"/>
<path d="M474.464 203.499C474.408 203.498 474.356 203.496 474.302 203.486C473.738 203.395 473.361 202.875 473.449 202.319L474.974 192.656C475.062 192.099 475.585 191.721 476.132 191.803C476.678 191.89 477.054 192.414 476.983 192.975L475.459 202.638C475.384 203.142 474.939 203.496 474.464 203.499Z" fill="#020D3A"/>
<path d="M480.686 216.1C479.867 216.101 479.044 215.99 478.227 215.771C477.683 215.624 477.358 215.076 477.505 214.525C477.648 213.992 478.207 213.662 478.751 213.808C480.662 214.322 482.659 214.067 484.375 213.069C486.091 212.071 487.32 210.463 487.83 208.555C487.972 208.022 488.531 207.692 489.076 207.839C489.621 207.985 489.941 208.551 489.798 209.084C489.145 211.53 487.587 213.562 485.396 214.839C483.936 215.688 482.319 216.118 480.686 216.1Z" fill="#020D3A"/>
<path d="M622.983 530H64.8499C64.2876 530 63.833 529.544 63.833 528.979C63.833 528.415 64.2876 527.959 64.8499 527.959H622.983C623.545 527.959 624 528.415 624 528.979C624 529.544 623.545 530 622.983 530Z" fill="#020D3A"/>
</g>
<defs>
<clipPath id="clip0_117_8217">
<rect width="648" height="640" fill="white"/>
</clipPath>
</defs>
</svg>
