<svg width="24" height="25" viewBox="0 0 24 25" fill="none" xmlns="http://www.w3.org/2000/svg">
<path d="M10.5 16C10.2349 15.9997 9.98066 15.8943 9.79319 15.7068C9.60571 15.5193 9.50026 15.2651 9.5 15V7C9.5 6.73478 9.60536 6.48043 9.79289 6.29289C9.98043 6.10536 10.2348 6 10.5 6C10.7652 6 11.0196 6.10536 11.2071 6.29289C11.3946 6.48043 11.5 6.73478 11.5 7V15C11.4997 15.2651 11.3943 15.5193 11.2068 15.7068C11.0193 15.8943 10.7651 15.9997 10.5 16Z" fill="white"/>
<path d="M6.5 12C6.23478 12 5.98043 11.8946 5.79289 11.7071C5.60536 11.5196 5.5 11.2652 5.5 11C5.5 10.7348 5.60536 10.4804 5.79289 10.2929C5.98043 10.1054 6.23478 10 6.5 10H14.5C14.7652 10 15.0196 10.1054 15.2071 10.2929C15.3946 10.4804 15.5 10.7348 15.5 11C15.5 11.2652 15.3946 11.5196 15.2071 11.7071C15.0196 11.8946 14.7652 12 14.5 12H6.5Z" fill="white"/>
<path d="M18 20.25H3C2.53604 20.2494 2.09125 20.0649 1.76319 19.7368C1.43512 19.4087 1.25056 18.964 1.25 18.5V3.5C1.25056 3.03604 1.43512 2.59125 1.76319 2.26319C2.09125 1.93512 2.53604 1.75056 3 1.75H18C18.464 1.75056 18.9087 1.93512 19.2368 2.26319C19.5649 2.59125 19.7494 3.03604 19.75 3.5V18.5C19.7494 18.964 19.5649 19.4087 19.2368 19.7368C18.9087 20.0649 18.464 20.2494 18 20.25ZM3 3.25C2.93373 3.25013 2.87022 3.27651 2.82336 3.32336C2.77651 3.37022 2.75013 3.43373 2.75 3.5V18.5C2.75013 18.5663 2.77651 18.6298 2.82336 18.6766C2.87022 18.7235 2.93373 18.7499 3 18.75H18C18.0663 18.7499 18.1298 18.7235 18.1766 18.6766C18.2235 18.6298 18.2499 18.5663 18.25 18.5V3.5C18.2499 3.43373 18.2235 3.37022 18.1766 3.32336C18.1298 3.27651 18.0663 3.25013 18 3.25H3Z" fill="white"/>
<path d="M21 23.25H4C3.80109 23.25 3.61032 23.171 3.46967 23.0303C3.32902 22.8897 3.25 22.6989 3.25 22.5C3.25 22.3011 3.32902 22.1103 3.46967 21.9697C3.61032 21.829 3.80109 21.75 4 21.75H21C21.0663 21.7499 21.1298 21.7235 21.1766 21.6766C21.2235 21.6298 21.2499 21.5663 21.25 21.5V4.5C21.25 4.30109 21.329 4.11032 21.4697 3.96967C21.6103 3.82902 21.8011 3.75 22 3.75C22.1989 3.75 22.3897 3.82902 22.5303 3.96967C22.671 4.11032 22.75 4.30109 22.75 4.5V21.5C22.7494 21.964 22.5649 22.4087 22.2368 22.7368C21.9087 23.0649 21.464 23.2494 21 23.25Z" fill="white"/>
</svg>
