<svg width="25" height="25" viewBox="0 0 25 25" fill="none" xmlns="http://www.w3.org/2000/svg">
<path d="M19.7943 3.64648C20.6589 3.64648 21.3568 4.3444 21.3568 5.20898V19.7923C21.3568 20.6569 20.6589 21.3548 19.7943 21.3548H5.21094C4.34635 21.3548 3.64844 20.6569 3.64844 19.7923V5.20898C3.64844 4.3444 4.34635 3.64648 5.21094 3.64648H19.7943ZM19.7943 2.08398H5.21094C3.48177 2.08398 2.08594 3.47982 2.08594 5.20898V19.7923C2.08594 21.5215 3.48177 22.9173 5.21094 22.9173H19.7943C21.5234 22.9173 22.9193 21.5215 22.9193 19.7923V5.20898C22.9193 3.47982 21.5234 2.08398 19.7943 2.08398Z" fill="black"/>
<path d="M12.5 18.4893C12.0729 18.4893 11.7188 18.1351 11.7188 17.708V8.33301C11.7188 7.90592 12.0729 7.55176 12.5 7.55176C12.9271 7.55176 13.2812 7.90592 13.2812 8.33301V17.708C13.2812 18.1351 12.9271 18.4893 12.5 18.4893Z" fill="black"/>
<path d="M8.33594 18.4889C7.90885 18.4889 7.55469 18.1348 7.55469 17.7077V13.541C7.55469 13.1139 7.90885 12.7598 8.33594 12.7598C8.76302 12.7598 9.11719 13.1139 9.11719 13.541V17.7077C9.11719 18.1348 8.76302 18.4889 8.33594 18.4889Z" fill="black"/>
<path d="M16.6641 18.4902C16.237 18.4902 15.8828 18.1361 15.8828 17.709V11.459C15.8828 11.0319 16.237 10.6777 16.6641 10.6777C17.0911 10.6777 17.4453 11.0319 17.4453 11.459V17.709C17.4453 18.1361 17.0911 18.4902 16.6641 18.4902Z" fill="black"/>
</svg>
