<svg width="30" height="30" viewBox="0 0 30 30" fill="none" xmlns="http://www.w3.org/2000/svg">
<path d="M29.5174 16.0924C29.5638 17.2 29.1689 18.2808 28.4194 19.0976C27.67 19.9144 26.6271 20.4006 25.5196 20.4494C25.4548 20.4524 25.3902 20.4539 25.3256 20.4539C25.0314 20.4537 24.738 20.4219 24.4505 20.359C23.5976 21.6758 22.4793 22.8002 21.167 23.6601C19.8546 24.5201 18.3773 25.0966 16.8294 25.3529C16.6463 25.8908 16.2811 26.3477 15.7968 26.6449C15.3125 26.942 14.7397 27.0606 14.1772 26.9801C13.6148 26.8997 13.0982 26.6252 12.7166 26.2043C12.335 25.7833 12.1125 25.2422 12.0876 24.6746C12.0626 24.107 12.2368 23.5485 12.5799 23.0957C12.9231 22.6429 13.4137 22.3241 13.9669 22.1946C14.5201 22.0652 15.1011 22.133 15.6096 22.3865C16.1181 22.64 16.522 23.0631 16.7516 23.5829C18.9308 23.1798 20.8995 22.0249 22.3145 20.3193C23.7296 18.6137 24.5013 16.4657 24.4951 14.2495C24.4951 9.01387 20.2356 4.75439 15 4.75439C9.76431 4.75439 5.50484 9.01387 5.50484 14.2495C5.50455 15.8685 5.91831 17.4606 6.70677 18.8746C6.73349 18.9212 6.75355 18.9714 6.76636 19.0236C6.84252 19.2353 6.83438 19.4681 6.74362 19.674C6.65287 19.8798 6.48645 20.0429 6.2788 20.1295C5.77036 20.3434 5.22427 20.4536 4.67263 20.4535C4.60771 20.4535 4.54265 20.452 4.47745 20.449C3.37043 20.3995 2.32821 19.9131 1.57932 19.0963C0.830423 18.2796 0.435979 17.1991 0.482475 16.092C0.501166 15.6505 0.490736 15.2566 0.480541 14.8756C0.471049 14.517 0.461146 14.1461 0.477435 13.7591C0.526049 12.6781 0.991064 11.6578 1.77508 10.9119C2.5591 10.1661 3.60131 9.75253 4.68341 9.75789C6.42107 5.78219 10.391 2.99658 15 2.99658C19.6089 2.99658 23.5789 5.78219 25.3166 9.75795C26.3988 9.75178 27.4413 10.165 28.2255 10.9108C29.0096 11.6567 29.4744 12.6773 29.5224 13.7584C29.5388 14.146 29.5289 14.5169 29.5193 14.8755C29.5092 15.2565 29.4987 15.6506 29.5174 16.0924ZM22.3713 14.2495C22.3709 15.3788 22.1111 16.4929 21.612 17.506C21.1129 18.519 20.3877 19.4038 19.4926 20.0923C18.5974 20.7807 17.556 21.2543 16.4488 21.4767C15.3416 21.699 14.1981 21.664 13.1066 21.3745L10.1229 23.0976C9.97236 23.1845 9.79941 23.2249 9.62594 23.2135C9.45247 23.2021 9.28626 23.1396 9.14833 23.0338C9.01041 22.9279 8.90697 22.7836 8.8511 22.619C8.79522 22.4543 8.78942 22.2768 8.83443 22.1089L9.59697 19.2643C8.33416 17.8994 7.63152 16.109 7.62886 14.2495C7.62886 10.1838 10.9354 6.87643 15 6.87643C19.0645 6.87643 22.3713 10.1838 22.3713 14.2495ZM12.9506 14.2495C12.9506 14.0164 12.858 13.7929 12.6932 13.628C12.5284 13.4632 12.3048 13.3706 12.0717 13.3706H12.0703C11.8965 13.3709 11.7267 13.4228 11.5824 13.5195C11.4381 13.6163 11.3257 13.7537 11.2594 13.9143C11.1932 14.0749 11.176 14.2516 11.2101 14.422C11.2442 14.5924 11.328 14.7488 11.451 14.8716C11.574 14.9943 11.7306 15.0779 11.901 15.1116C12.0715 15.1454 12.2481 15.1279 12.4086 15.0614C12.5691 14.9948 12.7063 14.8821 12.8028 14.7376C12.8993 14.5931 12.9508 14.4233 12.9508 14.2495H12.9506ZM15.879 14.2495C15.879 14.2207 15.8774 14.192 15.8743 14.1634C15.8716 14.1347 15.8673 14.1061 15.8615 14.0778C15.8563 14.0497 15.8492 14.0219 15.8404 13.9946C15.8322 13.9671 15.8223 13.9401 15.8117 13.9132C15.8012 13.8862 15.7883 13.861 15.7748 13.8358C15.7614 13.8105 15.7467 13.7859 15.7309 13.762C15.7148 13.7379 15.6976 13.7146 15.6792 13.6923C15.6612 13.6699 15.6418 13.6486 15.6213 13.6284C15.6014 13.6079 15.5797 13.5886 15.5574 13.5698C15.5351 13.5522 15.5117 13.5347 15.4876 13.5188C15.4638 13.503 15.4392 13.4883 15.4139 13.4749C15.3886 13.4614 15.3623 13.4491 15.3359 13.438C15.3095 13.4269 15.2825 13.4174 15.2551 13.4093C15.2003 13.3917 15.1437 13.3803 15.0863 13.3753C15.0002 13.367 14.9134 13.3711 14.8285 13.3876C14.8002 13.3934 14.7723 13.4006 14.7448 13.4093C14.7173 13.4173 14.6903 13.4269 14.6639 13.438C14.6376 13.4491 14.6112 13.4614 14.586 13.4749C14.5608 13.4884 14.5362 13.503 14.5121 13.5188C14.488 13.5347 14.4646 13.5522 14.443 13.5698C14.4202 13.5886 14.3991 13.6079 14.3786 13.6284C14.358 13.6486 14.3386 13.6699 14.3205 13.6923C14.3024 13.7146 14.2854 13.7379 14.2696 13.762C14.2535 13.7858 14.2386 13.8105 14.2251 13.8358C14.2115 13.8609 14.1994 13.8868 14.1887 13.9132C14.1775 13.9398 14.1678 13.967 14.1594 13.9946C14.1512 14.0216 14.1442 14.0497 14.1383 14.0778C14.1325 14.1061 14.1282 14.1347 14.1254 14.1634C14.1225 14.1921 14.1213 14.2208 14.1213 14.2495C14.1213 14.2782 14.1225 14.3075 14.1254 14.3362C14.1283 14.3648 14.1326 14.3931 14.1383 14.4212C14.1442 14.4493 14.1512 14.4774 14.1594 14.505C14.1678 14.5324 14.1775 14.5594 14.1887 14.5858C14.1994 14.6125 14.2115 14.6385 14.2251 14.6638C14.2385 14.689 14.2538 14.7136 14.2696 14.7376C14.2854 14.7615 14.3024 14.7846 14.3205 14.8067C14.3388 14.8292 14.3581 14.8507 14.3786 14.8712C14.3991 14.8911 14.4202 14.911 14.443 14.9292C14.4651 14.9475 14.4881 14.9645 14.5121 14.9802C14.5362 14.996 14.5607 15.0112 14.586 15.0247C14.6369 15.0512 14.69 15.0732 14.7448 15.0903C14.7723 15.0985 14.8004 15.1056 14.8285 15.1114C14.885 15.123 14.9425 15.1287 15.0002 15.1284C15.233 15.1278 15.4562 15.0354 15.6213 14.8712C15.6618 14.8301 15.6985 14.7854 15.7309 14.7376C15.7467 14.7136 15.7613 14.689 15.7748 14.6638C15.7883 14.6386 15.8006 14.6122 15.8117 14.5858C15.8228 14.5595 15.8322 14.5319 15.8404 14.505C15.8491 14.4775 15.8562 14.4495 15.8615 14.4212C15.8673 14.3931 15.8715 14.3648 15.8743 14.3362C15.8773 14.3074 15.8789 14.2784 15.8789 14.2494L15.879 14.2495ZM18.8087 14.2495C18.8087 14.0164 18.7161 13.7929 18.5513 13.628C18.3865 13.4632 18.1629 13.3706 17.9298 13.3706H17.9281C17.7544 13.3709 17.5846 13.4228 17.4403 13.5196C17.296 13.6163 17.1836 13.7537 17.1173 13.9143C17.0511 14.075 17.0339 14.2516 17.068 14.422C17.1021 14.5924 17.186 14.7488 17.3089 14.8716C17.4319 14.9943 17.5885 15.0779 17.759 15.1117C17.9294 15.1454 18.1061 15.1279 18.2666 15.0614C18.4271 14.9948 18.5642 14.8821 18.6607 14.7376C18.7572 14.5931 18.8087 14.4233 18.8087 14.2495Z" fill="#20E086"/>
</svg>
