<svg width="25" height="24" viewBox="0 0 25 24" fill="none" xmlns="http://www.w3.org/2000/svg">
<rect x="0.5" width="24" height="24" rx="12" fill="#20E086"/>
<path d="M19.2161 6.67754L19.2145 6.67911L9.93516 15.6613L5.78594 11.6449C5.78586 11.6449 5.78578 11.6448 5.78568 11.6447C5.66545 11.5275 5.50186 11.4616 5.33121 11.4616C5.16052 11.4616 4.9969 11.5275 4.87666 11.6447C4.8766 11.6448 4.87654 11.6449 4.87647 11.6449L4.18945 12.31C4.18936 12.3101 4.18927 12.3101 4.18918 12.3102C4.0681 12.4266 4 12.585 4 12.7501C4 12.9154 4.06813 13.0737 4.18927 13.1901C4.18933 13.1902 4.18939 13.1902 4.18945 13.1903L9.48533 18.3166C9.48543 18.3167 9.48554 18.3167 9.48563 18.3169C9.60586 18.4341 9.76944 18.5 9.94007 18.5C10.1107 18.5 10.2743 18.4341 10.3945 18.3169C10.3946 18.3167 10.3947 18.3167 10.3948 18.3166L20.8106 8.2344C20.8106 8.23437 20.8107 8.23433 20.8107 8.23431C20.9319 8.11791 21 7.95949 21 7.79423C21 7.62919 20.932 7.47098 20.8111 7.35462C20.8109 7.35444 20.8108 7.35425 20.8106 7.35405L20.1239 6.67983V6.6798L20.1215 6.67754C19.8692 6.44082 19.4683 6.44082 19.2161 6.67754Z" fill="white"/>
</svg>
