<svg width="25" height="25" viewBox="0 0 25 25" fill="none" xmlns="http://www.w3.org/2000/svg">
<g clip-path="url(#clip0_1293_14068)">
<path d="M21.3416 21.3389C21.1127 21.5678 20.8022 21.6965 20.4784 21.6965C20.1547 21.6965 19.8442 21.5678 19.6153 21.3389L3.66395 5.38758C3.43502 5.15866 3.30641 4.84816 3.30641 4.52441C3.30641 4.20066 3.43502 3.89017 3.66395 3.66125C3.89287 3.43232 4.20337 3.30371 4.52712 3.30371C4.85087 3.30371 5.16136 3.43232 5.39028 3.66125L21.3416 19.6126C21.5705 19.8415 21.6992 20.152 21.6992 20.4757C21.6992 20.7995 21.5705 21.11 21.3416 21.3389Z" fill="#020D3A"/>
<path d="M21.3416 5.38742L5.39028 21.3388C5.16136 21.5677 4.85087 21.6963 4.52712 21.6963C4.20337 21.6963 3.89287 21.5677 3.66395 21.3388C3.43502 21.1098 3.30641 20.7993 3.30641 20.4756C3.30641 20.1518 3.43502 19.8413 3.66395 19.6124L19.6153 3.66108C19.8442 3.43216 20.1547 3.30355 20.4784 3.30355C20.8022 3.30355 21.1127 3.43216 21.3416 3.66108C21.5705 3.89001 21.6992 4.2005 21.6992 4.52425C21.6992 4.848 21.5705 5.15849 21.3416 5.38742Z" fill="#020D3A"/>
</g>
<defs>
<clipPath id="clip0_1293_14068">
<rect width="25" height="25" fill="white"/>
</clipPath>
</defs>
</svg>
