<svg width="536" height="862" viewBox="0 0 536 862" fill="none" xmlns="http://www.w3.org/2000/svg">
<g clip-path="url(#clip0_115_5836)">
<path opacity="0.3" d="M269.911 687.241C400.756 687.241 506.827 676.468 506.827 663.178C506.827 649.889 400.756 639.116 269.911 639.116C139.065 639.116 32.9941 649.889 32.9941 663.178C32.9941 676.468 139.065 687.241 269.911 687.241Z" fill="#B3B3B2"/>
<path d="M260.65 399.983C260.121 399.835 259.12 399.42 258.662 398.333C258.61 398.205 258.571 398.066 258.533 397.933C257.566 398.634 256.708 399.02 255.969 399.086L257.046 401.851H261.369L260.659 400.025C260.659 400.025 260.659 399.997 260.65 399.983Z" fill="#FFFFF6"/>
<path d="M255.754 480.817L252.06 484.025L270.321 612.794C278.791 609.919 286.59 606.316 292.072 601.83C292.51 601.473 292.753 600.901 292.715 600.314L286.628 504.937C282.943 502.124 256.764 482.142 255.749 480.817H255.754Z" fill="#FFFFF6"/>
<path d="M313.985 403.972C313.699 403.539 313.418 403.11 313.141 402.69H262.404V409.888H313.985V403.968V403.972Z" fill="#FFFFF6"/>
<path d="M430.446 321.717C434.741 337.004 421.151 400.478 407.68 439.141C409.573 441.768 430.894 472.327 421.156 499.407C417.338 510.028 403.776 519.204 385.763 523.346C372.988 526.287 352.238 528.122 325.95 520.19C312.641 516.177 299.733 510.171 287.306 502.282L289.255 532.817C292.282 533.68 320.811 541.617 352.286 544.248C382.769 546.793 422.319 544.734 437.558 520.457C463.523 479.106 460.534 350.142 447.173 312.418C445.099 306.559 442.792 303.051 440.504 302.269C429.617 298.551 422.371 306.917 420.932 308.766C425.694 312.241 428.968 316.441 430.446 321.708V321.717Z" fill="#020D3A"/>
<path d="M276.671 388.6C276.742 388.209 276.714 387.765 276.523 387.498C273.544 389.462 271.003 391.46 270.484 392.732C270.331 393.099 270.422 393.242 270.45 393.29C270.45 393.29 270.46 393.295 270.46 393.3C272.104 392.995 273.348 392.532 274.364 391.855C275.603 391.026 276.442 389.839 276.676 388.6H276.671Z" fill="#FFFFF6"/>
<path d="M297.916 348.855C299.756 345.146 302.835 338.005 304.575 333.916C305.762 329.778 306.658 326.265 306.677 326.189C306.734 325.965 306.958 325.826 307.187 325.884C307.411 325.941 307.549 326.17 307.492 326.394C307.325 327.056 303.326 342.696 300.971 346.824C298.926 350.404 298.431 363.183 298.349 365.843C304.413 365.109 310.128 364.856 313.732 365.719C314.819 365.981 315.863 366.22 316.868 366.449C325.639 368.446 331.979 369.89 340.44 381.511C344.963 387.727 355.86 401.15 365.966 413.568L379.069 334.688C379.108 334.459 379.322 334.302 379.551 334.34C379.78 334.378 379.932 334.592 379.899 334.821L370.18 393.343C372.043 395.044 391.005 411.785 414.849 412.986C424.926 376.726 432.953 333.749 429.635 321.937C428.191 316.798 424.959 312.699 420.235 309.3C420.183 309.291 420.125 309.267 420.078 309.233C420.021 309.195 419.982 309.143 419.954 309.09C411.807 303.351 399.338 299.652 383.979 296.387C380.519 295.648 377.044 297.221 375.313 300.286C369.793 310.091 359.831 326.003 353.353 326.003C353.038 326.003 352.733 325.965 352.433 325.888C345.626 324.115 346.865 308.132 347.819 300.72L348.143 297.593C345.202 298.003 333.294 299.81 320.605 303.895C309.833 307.36 302.754 311.826 300.132 316.803C296.81 323.114 276.055 363.684 272.438 370.758C274.74 370.181 283.83 367.998 293.273 366.534C293.659 364.256 295.537 353.631 297.916 348.84V348.855Z" fill="#20E086"/>
<path d="M258.09 392.766C258.347 392.003 258.438 391.426 258.386 390.902L258.376 390.792C258.314 390.206 258.271 389.996 257.976 389.791C255.669 392.408 254.443 394.034 254.315 394.649C254.096 395.697 254.196 396.961 254.672 397.676C256.236 396.403 257.447 394.677 258.09 392.771V392.766Z" fill="#FFFFF6"/>
<path d="M263.496 393.238C263.601 392.875 263.691 392.489 263.663 392.117C263.634 391.769 263.491 391.464 263.276 391.307C263.129 391.197 262.967 391.155 262.609 391.278C262.609 391.278 262.6 391.278 262.595 391.278C261.742 392.194 261.05 393.033 260.598 393.733C259.425 395.55 259.025 397.027 259.434 398.004C259.587 398.362 259.83 398.615 260.088 398.796C261.684 397.299 262.895 395.34 263.5 393.238H263.496Z" fill="#FFFFF6"/>
<path d="M256.756 402.695H150.658V409.893H261.561V402.695H256.756Z" fill="#FFFFF6"/>
<path d="M254.639 398.81C253.481 398.109 253.214 396.331 253.433 394.839C253.423 394.82 253.409 394.806 253.4 394.787C253.4 394.782 253.39 394.777 253.39 394.773V394.763C253.39 394.763 253.39 394.763 253.385 394.763L234.871 347.167L231.129 337.548H125.513L150.529 401.856H256.145L255.025 398.977C254.892 398.929 254.763 398.886 254.644 398.81H254.639Z" fill="#FFFFF6"/>
<path d="M304.956 391.865C301.791 392.937 288.358 390.525 286.814 390.244C283.997 391.441 271.46 396.56 269.735 393.729C269.601 393.505 269.553 393.257 269.572 392.985C268.796 393.624 267.923 394.348 267.275 394.887C266.841 395.244 266.183 395.888 265.483 396.57C263.528 398.476 262.322 399.582 261.521 399.93L262.27 401.856H312.578C308.66 395.979 305.776 392.041 304.956 391.865Z" fill="#20E086"/>
<path d="M239.709 457.865C244.729 459.81 246.173 462.212 247.126 463.805C248.075 465.382 248.466 466.04 251.521 465.168C254.148 464.419 255.192 462.641 256.036 461.216C256.631 460.201 257.146 459.329 258.085 459.219C259.091 459.095 260.359 459.934 262.428 462.098C263.791 463.528 264.892 464.748 265.86 465.826C269.549 469.925 270.541 471.031 273.63 469.634C274.974 469.029 276.328 467.537 277.758 465.959C280.599 462.823 283.821 459.271 287.639 462.713C291.481 466.174 348.472 503.469 379.351 492.829C393.175 488.067 401.903 481.403 405.287 473.014C407.918 466.493 407.232 458.804 403.323 450.734C397.441 464.968 389.747 473.91 380.447 477.29C377.483 478.367 374.665 478.758 372.139 478.758C366.319 478.758 362.029 476.679 360.956 476.103C358.392 474.73 346.289 455.32 333.481 434.77C329.982 429.16 326.231 423.139 322.632 417.438C318.709 415.017 314.08 412.581 309.9 410.732H236.163C205.894 426.786 97.1076 497.277 90.377 501.638C99.1144 518.76 114.03 533.58 127.338 543.857C134.312 537.737 225.705 457.736 238.937 457.736C239.238 457.736 239.5 457.779 239.714 457.86L239.709 457.865Z" fill="#FFFFF6"/>
<path d="M255.077 391.936C254.663 391.255 253.752 389.396 254.801 387.413C254.906 387.212 255.12 386.922 255.416 386.559L236.349 337.543H232.025L253.857 393.662C254.134 393.195 254.543 392.613 255.077 391.932V391.936Z" fill="#FFFFF6"/>
<path d="M258.395 386.321C258.434 386.941 258.238 387.522 258.052 388.018C258.052 388.028 257.919 388.356 257.719 388.809C260.417 385.763 264.006 382.017 267.328 378.594C268.029 377.874 268.577 377.307 268.649 377.221C268.777 377.031 269.03 376.988 269.225 377.116C269.416 377.245 269.464 377.517 269.335 377.712C269.283 377.789 269.14 377.941 267.934 379.18C263.915 383.318 260.784 386.64 258.538 389.157C259.091 389.586 259.149 390.106 259.211 390.706L259.22 390.816C259.311 391.665 259.072 392.489 258.886 393.037C258.21 395.035 256.961 396.846 255.345 398.205C256.065 398.41 257.147 397.966 258.448 396.937C258.51 395.902 258.982 394.682 259.887 393.28C262.986 388.48 276.337 378.089 276.905 377.646C276.962 377.603 277.029 377.574 277.095 377.56L287.287 375.925C287.515 375.891 287.73 376.044 287.768 376.273C287.806 376.502 287.649 376.716 287.42 376.754L277.338 378.375C276.414 379.099 268.182 385.563 263.405 390.435C263.529 390.478 263.653 390.54 263.777 390.63C264.192 390.94 264.459 391.455 264.502 392.055C264.54 392.556 264.425 393.033 264.301 393.471C263.687 395.611 262.485 397.613 260.898 399.182C260.965 399.201 261.022 399.215 261.051 399.22C261.57 399.201 263.729 397.094 264.892 395.964C265.631 395.244 266.275 394.62 266.732 394.239C268.186 393.028 270.822 390.859 270.822 390.859C274.583 386.95 285.647 381.039 287.387 380.606C289.584 380.058 299.122 378.818 299.528 378.766C299.761 378.732 299.971 378.899 300 379.128C300.028 379.357 299.866 379.571 299.637 379.6C299.537 379.614 289.742 380.887 287.592 381.426C286.429 381.716 281.514 384.286 277.234 387.041C277.562 387.527 277.601 388.199 277.491 388.762C277.219 390.22 276.247 391.607 274.822 392.561C274.059 393.075 273.168 393.462 272.124 393.767C275.232 393.695 281.81 391.469 286.595 389.429C286.672 389.396 286.753 389.386 286.839 389.4C286.986 389.429 301.611 392.117 304.766 391.064C305.71 390.768 308.227 393.81 313.58 401.861H314.4C314.633 401.861 314.819 402.047 314.819 402.28V403.734C317.131 407.252 319.91 411.599 323.242 416.871C323.271 416.904 323.29 416.938 323.309 416.976C326.431 421.924 330.03 427.668 334.187 434.336C346.375 453.89 358.978 474.105 361.348 475.373C362.825 476.165 370.69 479.945 380.152 476.508C389.409 473.147 397.065 464.081 402.899 449.566C406.508 440.59 410.307 428.993 413.887 416.418C386.244 413.968 371.887 399.94 369.508 397.404L366.677 414.445C367.091 414.95 367.501 415.455 367.911 415.961C378.06 428.43 386.826 439.198 387.827 441.005C389.857 444.675 391.521 449.566 391.535 449.614C391.612 449.833 391.492 450.071 391.273 450.148C391.23 450.162 391.183 450.172 391.14 450.172C390.963 450.172 390.801 450.062 390.739 449.886C390.725 449.838 389.085 445.019 387.093 441.415C386.13 439.67 376.963 428.411 367.258 416.495C356.633 403.443 344.592 388.652 339.764 382.017C331.484 370.648 325.597 369.309 316.683 367.278C315.673 367.049 314.624 366.811 313.532 366.549C302.95 363.998 272.391 371.644 272.114 371.73C272.066 371.754 271.957 371.83 271.804 371.954C271.8 371.959 271.79 371.964 271.785 371.968C270.002 373.403 262.009 380.758 257.909 385.039C258.333 385.434 258.376 386.016 258.395 386.326V386.321Z" fill="#FFFFF6"/>
<path d="M255.568 391.074C255.692 390.883 256.927 388.633 257.265 387.727C257.422 387.313 257.585 386.826 257.556 386.374C257.532 385.945 257.456 385.749 257.337 385.64C256.417 386.626 255.764 387.398 255.549 387.808C254.81 389.205 255.287 390.549 255.645 391.231C255.664 391.212 255.683 391.188 255.702 391.164L255.568 391.074Z" fill="#FFFFF6"/>
<path d="M390.267 296.94C388.284 296.478 386.249 296.025 384.151 295.577C381.425 294.995 378.674 295.72 376.634 297.426C375.829 298.098 375.128 298.932 374.58 299.891C374.06 300.815 373.545 301.707 373.031 302.589L372.745 298.837L370.256 266.404L370.213 265.866C370.447 265.875 370.695 265.866 370.929 265.847C372.983 265.713 374.975 264.755 376.262 263.153C376.987 262.271 377.53 261.161 377.893 259.864C378.574 257.452 378.355 255.055 377.306 253.272C376.053 251.146 373.498 250.007 371.362 250.622C370.471 250.874 369.599 251.427 368.755 252.261C368.679 252.338 368.602 252.414 368.526 252.49C367.725 253.348 367.063 254.359 366.6 255.436C365.833 254.988 365.094 254.492 364.398 253.953C359.908 250.54 356.671 245.407 354.035 240.673C352.548 237.99 351.266 235.559 350.67 232.918C350.636 232.765 350.508 232.641 350.36 232.608C350.208 232.565 350.041 232.618 349.941 232.741C348.739 234.152 347.638 235.582 346.637 237.046C344.073 240.778 342.161 244.682 340.908 248.739C340.898 248.739 340.898 248.748 340.898 248.758C340.04 251.522 339.492 254.349 339.258 257.243C338.872 262.062 339.382 266.075 340.812 269.479C342.562 273.64 345.851 276.82 349.602 277.983C349.778 278.04 349.974 278.083 350.155 278.126L348.229 296.74C347.471 296.849 345.884 297.069 343.696 297.445C340.684 297.965 336.522 298.766 331.794 299.91C331.598 283.965 332.594 268.211 334.773 253.062C335.464 248.219 336.37 242.618 338.324 237.351C340.412 231.75 343.396 227.341 347.195 224.257C347.757 223.804 348.32 223.389 348.887 223.022H348.897C351.394 222.526 353.849 222.979 355.642 224.285C358.182 226.125 361.176 225.196 364.069 224.295C366.047 223.68 368.097 223.041 370.032 223.237C373.927 223.623 377.821 226.23 380.452 230.201C382.731 233.623 383.97 237.57 385.138 242.437C388.351 255.913 390.043 270.661 390.296 287.549C390.339 290.486 390.329 293.67 390.272 296.935L390.267 296.94Z" fill="#020D3A"/>
<path d="M314.824 410.312C314.824 410.546 314.638 410.732 314.404 410.732H311.926C315.153 412.238 318.552 414.025 321.621 415.851C319.228 412.076 316.926 408.472 314.824 405.259V410.317V410.312Z" fill="#FFFFF6"/>
<path d="M464.362 656.2L416.318 538.523C413.081 539.891 409.664 541.03 406.117 541.974L452.755 656.2H464.367H464.362Z" fill="#FFFFF6"/>
<path d="M256.206 476.398C266.579 486.527 276.856 494.617 286.838 501.066C287.028 501.057 287.166 501.161 287.224 501.314C333.237 530.882 372.796 525.472 385.581 522.531C403.318 518.45 416.645 509.484 420.368 499.126C429.554 473.586 410.601 444.79 407.341 440.118C406.14 443.531 404.938 446.749 403.751 449.704C408.061 458.237 408.861 466.402 406.063 473.333C402.584 481.956 393.684 488.782 379.622 493.625C375.794 494.941 371.533 495.527 367.009 495.527C336.264 495.527 293.034 468.709 287.071 463.342C283.873 460.463 281.203 463.409 278.377 466.526C276.885 468.171 275.474 469.725 273.972 470.406C270.326 472.051 268.938 470.511 265.235 466.393C264.267 465.32 263.175 464.105 261.817 462.684C260.053 460.835 258.852 459.982 258.18 460.058C257.656 460.12 257.26 460.792 256.759 461.645C255.892 463.118 254.705 465.134 251.754 465.978C248.246 466.984 247.507 466.073 246.406 464.243C245.458 462.66 244.161 460.496 239.404 458.656C231.806 455.711 163.47 513.245 128.01 544.391C139.974 553.534 150.514 558.939 153.903 558.939C153.946 558.939 153.984 558.939 154.027 558.939C157.831 558.782 185.282 536.469 213.053 512.992C213.096 512.935 213.149 512.883 213.215 512.854C228.593 499.855 244.051 486.513 255.639 476.389C255.806 476.246 256.049 476.25 256.211 476.403L256.206 476.398Z" fill="#FFFFF6"/>
<path d="M291.553 568.768L304.332 537.47C299.999 536.488 296.41 535.596 293.764 534.91L289.984 544.172L291.553 568.768Z" fill="#FFFFF6"/>
<path d="M360.141 656.2V545.616C357.448 545.478 354.788 545.306 352.205 545.087C350.951 544.982 349.707 544.868 348.463 544.744V656.195H360.141V656.2Z" fill="#FFFFF6"/>
<path d="M214.045 517.073L220.509 620.973C220.542 621.479 220.771 621.936 221.157 622.265C221.548 622.594 222.044 622.737 222.544 622.685C230.581 621.798 251.45 619.067 269.515 613.065L251.307 484.688L214.045 517.078V517.073Z" fill="#FFFFF6"/>
<path d="M271.89 640.984L275.393 651.371L288.96 647.157L283.688 610.506C279.731 612.918 273.801 615.139 267.204 617.103L271.895 640.98L271.89 640.984Z" fill="#FFFFF6"/>
<path d="M225.71 626.012C226.239 630.702 226.93 639.907 225.166 646.118C223.669 651.385 218.879 653.649 213.335 656.266C209.822 657.925 205.837 659.808 202.372 662.716C198.058 666.334 197.09 670.123 197.195 673.007C203.301 671.41 264.911 655.265 271.365 652.548L271.065 641.137L266.394 617.346C249.572 622.265 228.875 625.526 225.71 626.007V626.012Z" fill="#FFFFF6"/>
<path d="M229.027 332.338H128.459C127.319 332.338 126.294 332.876 125.651 333.82C125.06 334.683 124.903 335.722 125.198 336.704H236.001C234.714 334.03 232.04 332.338 229.027 332.338Z" fill="#FFFFF6"/>
<path d="M369.369 265.794C369.136 265.761 368.898 265.727 368.669 265.67C368.445 265.613 368.311 265.384 368.368 265.155C368.426 264.931 368.654 264.793 368.883 264.855C371.281 265.479 374.05 264.569 375.614 262.638C376.262 261.838 376.758 260.827 377.087 259.645C377.702 257.452 377.521 255.293 376.586 253.71C375.519 251.904 373.378 250.927 371.591 251.437C370.842 251.651 370.084 252.133 369.346 252.871C368.407 253.806 367.668 254.95 367.201 256.189C367.158 256.303 367.067 256.394 366.953 256.437C366.838 256.48 366.71 256.47 366.605 256.413C360.537 253.091 356.471 246.803 353.301 241.098C351.928 238.628 350.727 236.359 350.05 233.924C346.484 238.233 343.858 242.795 342.18 247.561C342.518 247.313 342.881 247.089 343.281 246.932C344.335 246.517 345.474 246.617 346.251 247.194C346.661 247.499 346.99 247.938 347.233 248.5C347.819 249.864 347.7 251.317 347.5 252.938C347.357 254.116 347.176 255.579 346.594 256.875C346.522 257.038 346.441 257.2 346.36 257.366C346.051 258 345.76 258.601 345.865 259.187C345.96 259.707 346.427 260.169 346.975 260.293C347.514 260.412 348.148 260.226 348.586 259.817C348.758 259.659 349.02 259.664 349.182 259.836C349.34 260.002 349.33 260.269 349.163 260.431C348.653 260.908 347.981 261.175 347.314 261.175C347.137 261.175 346.966 261.156 346.794 261.118C345.912 260.922 345.188 260.193 345.035 259.34C344.878 258.487 345.264 257.695 345.602 256.999C345.679 256.842 345.755 256.69 345.822 256.537C346.313 255.441 346.484 254.268 346.661 252.843C346.847 251.341 346.956 250.007 346.456 248.839C346.27 248.415 346.032 248.086 345.746 247.871C345.092 247.385 344.201 247.471 343.586 247.714C342.833 248.009 342.194 248.586 341.66 249.125C340.845 251.799 340.316 254.53 340.092 257.319C339.716 262.009 340.207 265.88 341.584 269.164C343.238 273.097 346.327 276.1 349.845 277.187C353.244 278.24 357.281 277.635 360.918 275.523C361.447 275.218 361.986 274.889 362.529 274.536C362.725 274.412 362.982 274.465 363.111 274.66C363.239 274.856 363.182 275.113 362.987 275.242C362.763 275.39 362.543 275.509 362.324 275.647C358.11 283.045 351.88 285.228 350.212 285.69L349.068 296.792C349.068 296.792 349.082 296.802 349.092 296.806C349.182 296.902 349.225 297.04 349.201 297.169C349.192 297.235 348.901 298.899 348.596 301.387L348.21 305.129C347.547 312.909 347.576 323.767 352.643 325.088C356.599 326.112 363.678 318.419 372.301 303.833C372.296 303.809 372.282 303.785 372.282 303.761L369.369 265.794ZM343.129 258.744C342.113 258.744 341.289 257.586 341.289 256.16C341.289 254.735 342.113 253.577 343.129 253.577C344.144 253.577 344.969 254.735 344.969 256.16C344.969 257.586 344.144 258.744 343.129 258.744ZM354.092 266.075C353.601 266.404 353.077 266.671 352.529 266.881C352.481 266.9 352.428 266.909 352.381 266.909C352.214 266.909 352.052 266.805 351.99 266.638C351.909 266.423 352.014 266.18 352.233 266.094C352.719 265.908 353.191 265.665 353.63 265.375C353.82 265.246 354.083 265.298 354.211 265.494C354.34 265.684 354.287 265.947 354.092 266.075ZM356.699 260.165C356.27 262.066 355.007 263.792 353.325 264.779C352.228 265.422 350.941 265.756 349.659 265.756C348.977 265.756 348.296 265.661 347.647 265.47C347.423 265.403 347.299 265.17 347.366 264.946C347.433 264.722 347.662 264.598 347.891 264.664C349.545 265.155 351.413 264.927 352.9 264.054C354.388 263.182 355.503 261.661 355.88 259.979C355.932 259.755 356.156 259.607 356.38 259.659C356.609 259.712 356.747 259.936 356.699 260.16V260.165ZM350.86 256.16C350.86 254.735 351.685 253.577 352.7 253.577C353.715 253.577 354.54 254.735 354.54 256.16C354.54 257.586 353.715 258.744 352.7 258.744C351.685 258.744 350.86 257.586 350.86 256.16ZM356.547 249.945C356.471 250.007 356.375 250.035 356.285 250.035C356.161 250.035 356.037 249.978 355.956 249.873C354.721 248.305 352.638 247.471 350.67 247.747C350.441 247.776 350.226 247.618 350.198 247.39C350.164 247.161 350.326 246.946 350.555 246.918C352.819 246.603 355.198 247.561 356.614 249.358C356.757 249.539 356.728 249.806 356.542 249.949L356.547 249.945ZM368.826 254.935C369.274 253.877 370.065 253.053 371 252.671C372.091 252.223 373.359 252.423 374.155 253.167C374.484 253.472 374.751 253.877 374.989 254.435C375.838 256.38 375.676 258.649 374.58 260.207C374.498 260.322 374.37 260.389 374.236 260.389C374.15 260.389 374.069 260.365 373.993 260.312C373.803 260.179 373.755 259.917 373.888 259.726C374.818 258.401 374.947 256.456 374.212 254.773C374.017 254.325 373.812 254.011 373.574 253.787C373.026 253.272 372.096 253.138 371.314 253.453C370.909 253.62 370.542 253.906 370.227 254.263C370.48 254.273 370.738 254.316 371 254.416C372.401 254.95 373.297 256.537 373.083 258.105C372.892 259.521 371.843 260.818 370.413 261.413C370.361 261.437 370.309 261.447 370.251 261.447C370.084 261.447 369.932 261.347 369.865 261.189C369.775 260.975 369.879 260.732 370.094 260.641C371.252 260.16 372.101 259.125 372.253 258C372.411 256.828 371.734 255.598 370.704 255.212C370.318 255.064 369.961 255.064 369.713 255.212C369.684 255.231 369.646 255.236 369.617 255.245C369.613 255.26 369.603 255.269 369.598 255.279C369.288 256.008 369.15 256.876 369.179 257.938C369.184 258.172 369.002 258.363 368.769 258.367C368.569 258.382 368.345 258.191 368.34 257.958C368.311 256.775 368.469 255.789 368.826 254.945V254.935Z" fill="#FFFFF6"/>
<path d="M97.8655 553.796L90.415 561.828L100.592 571.733L129.402 550.254C128.091 549.11 122.919 544.558 116.556 538.313L97.8702 553.796H97.8655Z" fill="#FFFFF6"/>
<path d="M89.4806 505.709C85.8245 508.302 77.6353 513.712 71.0429 515.19C65.7041 516.386 61.4236 513.264 56.4757 509.641C53.3392 507.344 49.788 504.746 45.5742 503.087C40.3308 501.028 36.546 501.986 34.0625 503.454C38.3955 508.068 81.9873 554.482 87.45 558.849L97.3267 553.143L115.941 537.722C106.803 528.708 95.439 516.401 89.4711 505.709H89.4806Z" fill="#FFFFF6"/>
<path d="M88.2511 564.163C87.9079 564.531 87.7363 565.012 87.7553 565.512C87.7792 566.013 87.9937 566.475 88.3703 566.809L95.7682 573.468C96.4261 574.059 97.4128 574.107 98.123 573.578L99.9058 572.248L89.8384 562.447L88.2511 564.163Z" fill="#FFFFF6"/>
<path d="M33.3481 503.921C32.3137 504.646 31.551 505.428 31.0696 506.009C30.7979 506.338 30.7645 506.801 30.9838 507.158C38.458 519.451 73.8511 554.244 80.8725 561.094C81.4636 561.675 82.3835 561.79 83.0985 561.37L86.6831 559.301C80.0431 553.667 37.3521 508.188 33.3481 503.921Z" fill="#FFFFF6"/>
<path d="M276.409 654.388C276.571 654.865 276.909 655.246 277.357 655.466C277.81 655.685 278.315 655.714 278.792 655.547L288.173 652.229C289.007 651.933 289.522 651.085 289.393 650.208L289.079 648.006L275.66 652.172L276.409 654.388Z" fill="#FFFFF6"/>
<path d="M198.005 676.859C198.163 677.254 198.544 677.517 198.973 677.483C213.335 676.787 260.812 662.301 270.183 659.408C270.974 659.165 271.513 658.411 271.494 657.582L271.384 653.444C263.257 656.591 202.896 672.387 197.257 673.86C197.4 675.119 197.724 676.153 198.005 676.859Z" fill="#FFFFF6"/>
<path d="M369.146 397.008C369.146 397.008 383.618 413.901 414.354 416.461L415.208 413.439C415.208 413.439 389.763 412.252 369.728 393.505L369.146 397.008Z" fill="#020D3A"/>
<path d="M213.384 513.226L255.913 476.698C255.913 476.698 274.355 494.202 286.835 501.481L287.078 505.275C287.078 505.275 256.847 482.242 255.755 480.817L213.646 517.421L213.384 513.231V513.226Z" fill="#020D3A"/>
<path d="M224.91 623.114L225.291 626.074C225.291 626.074 269.465 619.534 284.075 610.272L283.727 607.846C283.727 607.846 265.046 618.342 224.91 623.114Z" fill="#020D3A"/>
<path d="M91.1353 503.978C91.1353 503.978 104.001 528.708 132.639 548.366L129.727 550.54C129.727 550.54 100.087 525.062 89.2715 505.342L91.1353 503.983V503.978Z" fill="#020D3A"/>
<path d="M297.917 366.329L293.198 366.992C293.198 366.992 295.243 354.236 297.917 348.854C300.587 343.473 305.878 330.846 305.878 330.846C305.878 330.846 302.97 343.153 300.949 345.966C298.923 348.778 297.922 366.329 297.922 366.329H297.917Z" fill="#020D3A"/>
<path d="M353.298 278.531C352.021 278.531 350.781 278.35 349.604 277.987C345.853 276.824 342.568 273.645 340.819 269.483C339.384 266.075 338.874 262.071 339.26 257.242C339.961 248.467 343.555 240.22 349.943 232.741C350.047 232.622 350.209 232.57 350.362 232.608C350.515 232.646 350.638 232.77 350.672 232.923C351.268 235.563 352.55 237.994 354.042 240.678C357.083 246.15 360.949 252.156 366.602 255.431C367.112 254.254 367.851 253.172 368.757 252.266C369.596 251.432 370.473 250.874 371.364 250.621C373.5 250.007 376.064 251.146 377.318 253.277C378.367 255.055 378.581 257.457 377.904 259.869C377.542 261.161 376.994 262.271 376.274 263.163C374.515 265.346 371.388 266.376 368.676 265.665C368.452 265.608 368.318 265.375 368.375 265.151C368.433 264.926 368.666 264.793 368.89 264.85C371.298 265.479 374.062 264.564 375.621 262.634C376.269 261.833 376.765 260.822 377.094 259.64C377.709 257.452 377.528 255.288 376.593 253.706C375.526 251.899 373.385 250.922 371.598 251.432C370.849 251.646 370.092 252.128 369.353 252.867C368.414 253.801 367.675 254.945 367.208 256.184C367.165 256.299 367.074 256.389 366.96 256.432C366.845 256.475 366.717 256.466 366.612 256.408C360.544 253.086 356.478 246.799 353.308 241.093C351.935 238.624 350.739 236.355 350.057 233.919C344.118 241.093 340.771 248.963 340.099 257.314C339.723 262.004 340.214 265.875 341.591 269.159C343.245 273.097 346.334 276.095 349.852 277.182C353.251 278.235 357.288 277.63 360.925 275.518C361.454 275.213 361.993 274.884 362.536 274.531C362.727 274.408 362.989 274.46 363.118 274.655C363.246 274.851 363.189 275.113 362.994 275.237C362.436 275.599 361.883 275.933 361.345 276.243C358.747 277.749 355.953 278.526 353.294 278.526L353.298 278.531Z" fill="#020D3A"/>
<path d="M331.376 300.868C331.147 300.868 330.956 300.682 330.956 300.453C330.732 284.284 331.738 268.306 333.94 252.952C334.641 248.067 335.556 242.404 337.539 237.07C339.675 231.326 342.745 226.797 346.663 223.613C348.884 221.807 351.148 220.663 353.393 220.214C356.115 219.666 358.818 220.181 360.801 221.621C362.998 223.213 365.663 222.383 368.485 221.506C370.544 220.867 372.67 220.205 374.787 220.415C378.929 220.829 383.052 223.565 385.826 227.746C388.167 231.278 389.435 235.301 390.622 240.259C393.854 253.787 395.551 268.602 395.803 285.552C395.865 289.59 395.827 294.108 395.698 298.618C395.694 298.851 395.503 299.028 395.265 299.028C395.031 299.023 394.85 298.828 394.855 298.594C394.983 294.094 395.021 289.59 394.959 285.562C394.707 268.673 393.019 253.92 389.802 240.454C388.639 235.582 387.395 231.636 385.126 228.208C382.494 224.238 378.6 221.635 374.706 221.249C372.761 221.053 370.716 221.692 368.738 222.307C365.844 223.208 362.851 224.137 360.315 222.298C358.518 220.996 356.058 220.539 353.56 221.034C351.453 221.459 349.308 222.541 347.192 224.261C343.393 227.35 340.409 231.759 338.326 237.36C336.371 242.618 335.466 248.229 334.77 253.072C332.572 268.382 331.571 284.318 331.791 300.439C331.791 300.672 331.609 300.863 331.376 300.863H331.371L331.376 300.868Z" fill="#020D3A"/>
<path d="M372.704 304.152C372.484 304.152 372.303 303.985 372.284 303.766L369.343 265.475C369.324 265.241 369.501 265.041 369.729 265.022C369.934 265.003 370.163 265.174 370.182 265.408L373.123 303.699C373.142 303.933 372.966 304.133 372.737 304.152C372.728 304.152 372.718 304.152 372.704 304.152Z" fill="#020D3A"/>
<path d="M347.769 305.763C347.769 305.763 347.741 305.763 347.726 305.763C347.498 305.739 347.326 305.534 347.35 305.301L350.162 278.068C350.186 277.835 350.396 277.673 350.625 277.692C350.853 277.716 351.025 277.921 351.001 278.154L348.189 305.387C348.165 305.601 347.984 305.763 347.769 305.763Z" fill="#020D3A"/>
<path d="M372.137 478.763C366.317 478.763 362.027 476.679 360.954 476.107C358.39 474.735 346.287 455.324 333.479 434.775C321.681 415.846 306.995 392.294 304.959 391.865C301.794 392.933 288.362 390.525 286.817 390.244C284 391.441 271.464 396.56 269.738 393.729C269.514 393.362 269.504 392.918 269.709 392.413C271.206 388.771 285.406 381.106 287.399 380.606C289.596 380.058 299.134 378.818 299.54 378.766C299.773 378.732 299.983 378.899 300.012 379.128C300.04 379.357 299.878 379.571 299.649 379.6C299.549 379.614 289.754 380.887 287.604 381.421C285.544 381.936 271.788 389.562 270.486 392.732C270.334 393.095 270.424 393.242 270.453 393.29C271.459 394.944 280.501 392.022 286.603 389.419C286.679 389.386 286.76 389.377 286.846 389.391C286.994 389.419 301.618 392.103 304.774 391.054C306.552 390.468 313.649 401.365 334.194 434.327C346.382 453.88 358.986 474.096 361.355 475.364C362.832 476.155 370.698 479.935 380.16 476.503C389.417 473.143 397.072 464.076 402.906 449.561C417.121 414.207 434.229 338.277 429.643 321.941C425.715 307.956 408.55 301.611 383.987 296.397C380.527 295.662 377.052 297.231 375.321 300.296C369.534 310.578 358.862 327.581 352.441 325.898C344.342 323.786 347.631 301.545 348.284 297.583C345.577 297.955 333.493 299.757 320.609 303.904C309.836 307.37 302.757 311.836 300.136 316.812C296.513 323.691 272.15 371.339 271.902 371.821C271.797 372.026 271.545 372.107 271.335 372.002C271.13 371.897 271.044 371.644 271.154 371.435C271.402 370.953 295.769 323.305 299.392 316.417C302.157 311.169 309.207 306.683 320.351 303.099C334.99 298.389 348.608 296.687 348.742 296.668C348.875 296.654 349.009 296.702 349.099 296.797C349.19 296.892 349.233 297.03 349.209 297.159C349.161 297.417 344.695 323 352.651 325.078C356.955 326.198 364.939 317.013 374.587 299.876C376.494 296.487 380.345 294.752 384.159 295.562C409.022 300.844 426.406 307.308 430.453 321.703C435.173 338.511 418.279 413.573 403.688 449.862C397.758 464.605 389.941 473.834 380.45 477.28C377.485 478.357 374.668 478.748 372.142 478.748L372.137 478.763Z" fill="#020D3A"/>
<path d="M261.028 400.059C260.981 400.059 260.933 400.059 260.89 400.045C260.504 399.968 259.203 399.615 258.659 398.338C258.125 397.075 258.54 395.373 259.889 393.285C262.987 388.485 276.339 378.094 276.906 377.65C276.964 377.607 277.03 377.579 277.097 377.569L287.288 375.93C287.512 375.891 287.732 376.049 287.77 376.278C287.808 376.506 287.651 376.721 287.422 376.759L277.34 378.38C276.177 379.29 263.493 389.253 260.599 393.738C259.427 395.554 259.026 397.032 259.436 398.009C259.827 398.934 260.852 399.182 261.057 399.22C261.577 399.201 263.741 397.094 264.899 395.964C265.638 395.244 266.281 394.62 266.739 394.239C268.193 393.028 270.829 390.859 270.829 390.859L271.363 391.507C271.363 391.507 268.731 393.671 267.278 394.882C266.844 395.244 266.186 395.883 265.485 396.565C263.088 398.9 261.81 400.054 261.033 400.054L261.028 400.059Z" fill="#020D3A"/>
<path d="M255.723 399.106C255.323 399.106 254.961 399.005 254.637 398.81C253.388 398.047 253.164 396.031 253.488 394.477C253.869 392.632 261.081 385.025 267.321 378.604C268.022 377.879 268.579 377.307 268.651 377.221C268.78 377.026 269.032 376.988 269.228 377.117C269.418 377.245 269.466 377.517 269.337 377.712C269.285 377.789 269.142 377.941 267.926 379.19C259.146 388.228 254.565 393.428 254.312 394.649C254.041 395.95 254.251 397.594 255.075 398.095C255.804 398.534 257.049 398.095 258.588 396.837C258.769 396.689 259.032 396.717 259.179 396.899C259.327 397.08 259.298 397.342 259.117 397.49C257.792 398.567 256.658 399.11 255.719 399.11L255.723 399.106Z" fill="#020D3A"/>
<path d="M391.142 450.167C390.966 450.167 390.803 450.057 390.741 449.881C390.727 449.833 389.087 445.014 387.095 441.41C386.132 439.666 376.966 428.407 367.261 416.49C356.635 403.438 344.595 388.647 339.766 382.012C331.486 370.643 325.599 369.299 316.685 367.273C315.675 367.044 314.626 366.806 313.535 366.544C302.952 363.998 272.388 371.64 272.116 371.725C271.344 372.102 256.758 385.53 255.547 387.808C254.508 389.767 255.871 391.622 255.929 391.698C256.067 391.884 256.029 392.146 255.847 392.284C255.662 392.427 255.399 392.389 255.261 392.203C255.19 392.108 253.512 389.853 254.804 387.408C256.01 385.134 270.791 371.244 271.868 370.915C272.145 370.829 302.757 363.074 313.735 365.719C314.822 365.981 315.866 366.22 316.876 366.449C325.647 368.446 331.982 369.89 340.448 381.511C345.267 388.128 357.298 402.909 367.918 415.956C378.067 428.426 386.833 439.194 387.834 441C389.864 444.671 391.528 449.561 391.542 449.609C391.619 449.828 391.499 450.067 391.28 450.143C391.237 450.157 391.19 450.167 391.147 450.167H391.142Z" fill="#020D3A"/>
<path d="M366.236 414.983C366.236 414.983 366.188 414.983 366.164 414.979C365.935 414.941 365.783 414.726 365.816 414.497L379.072 334.697C379.111 334.468 379.32 334.311 379.554 334.349C379.783 334.387 379.935 334.602 379.902 334.831L366.646 414.631C366.612 414.836 366.431 414.983 366.231 414.983H366.236Z" fill="#020D3A"/>
<path d="M415.209 413.858C415.209 413.858 415.195 413.858 415.19 413.858C389.698 412.753 369.639 394 369.439 393.81C369.272 393.647 369.263 393.385 369.425 393.214C369.587 393.047 369.849 393.037 370.021 393.199C370.221 393.385 390.055 411.923 415.229 413.015C415.462 413.024 415.643 413.22 415.629 413.453C415.619 413.677 415.434 413.854 415.209 413.854V413.858Z" fill="#020D3A"/>
<path d="M297.919 366.749H297.909C297.675 366.744 297.494 366.553 297.499 366.32C297.513 365.681 297.861 350.58 300.245 346.409C302.547 342.381 306.642 326.351 306.685 326.189C306.742 325.965 306.966 325.826 307.195 325.884C307.419 325.941 307.557 326.17 307.5 326.394C307.333 327.056 303.334 342.696 300.979 346.824C298.7 350.809 298.348 366.177 298.343 366.334C298.338 366.563 298.152 366.744 297.923 366.744L297.919 366.749Z" fill="#020D3A"/>
<path d="M270.467 394.148C270.267 394.148 270.09 394.005 270.052 393.805C270.009 393.576 270.162 393.357 270.391 393.314C272.073 393.004 273.336 392.542 274.361 391.855C275.601 391.026 276.44 389.839 276.673 388.6C276.759 388.142 276.726 387.537 276.359 387.327C276.158 387.212 276.087 386.955 276.201 386.755C276.316 386.555 276.573 386.483 276.773 386.597C277.522 387.027 277.641 387.994 277.498 388.757C277.226 390.215 276.254 391.603 274.828 392.556C273.703 393.309 272.34 393.814 270.543 394.143C270.519 394.148 270.491 394.148 270.467 394.148Z" fill="#020D3A"/>
<path d="M260.156 399.735C260.042 399.735 259.928 399.687 259.842 399.592C259.689 399.42 259.704 399.153 259.875 398.996C261.582 397.475 262.869 395.43 263.498 393.233C263.603 392.871 263.693 392.484 263.665 392.113C263.636 391.765 263.493 391.46 263.279 391.302C263.131 391.193 262.969 391.15 262.611 391.274C262.387 391.35 262.154 391.231 262.077 391.012C262.001 390.792 262.12 390.554 262.34 390.478C262.707 390.349 263.25 390.23 263.784 390.625C264.199 390.931 264.461 391.45 264.508 392.051C264.547 392.551 264.432 393.028 264.308 393.466C263.636 395.816 262.263 398 260.438 399.625C260.357 399.697 260.257 399.73 260.156 399.73V399.735Z" fill="#020D3A"/>
<path d="M254.708 398.61C254.584 398.61 254.455 398.553 254.374 398.448C254.231 398.262 254.269 398 254.451 397.857C256.119 396.574 257.415 394.768 258.092 392.77C258.254 392.299 258.455 391.588 258.388 390.907L258.378 390.792C258.312 390.154 258.278 389.963 257.911 389.739C257.711 389.62 257.649 389.357 257.768 389.162C257.892 388.962 258.15 388.9 258.345 389.019C259.084 389.467 259.141 390.044 259.213 390.706L259.222 390.816C259.313 391.665 259.074 392.489 258.888 393.037C258.159 395.192 256.767 397.137 254.965 398.524C254.889 398.581 254.799 398.61 254.708 398.61Z" fill="#020D3A"/>
<path d="M255.847 391.722C255.847 391.722 255.804 391.722 255.785 391.712L255.913 391.312L255.565 391.073C255.689 390.883 256.929 388.628 257.262 387.727C257.42 387.313 257.582 386.826 257.553 386.373C257.52 385.806 257.401 385.649 257.196 385.554C256.986 385.458 256.886 385.21 256.981 385.001C257.076 384.786 257.324 384.691 257.534 384.786C258.321 385.134 258.368 385.935 258.392 386.321C258.43 386.941 258.235 387.522 258.049 388.018C258.035 388.056 256.571 391.717 255.842 391.717L255.847 391.722Z" fill="#020D3A"/>
<path d="M322.939 417.558C322.863 417.558 322.786 417.538 322.72 417.496C318.754 415.041 314.049 412.562 309.816 410.698C309.606 410.603 309.506 410.355 309.602 410.145C309.692 409.931 309.94 409.835 310.155 409.931C314.421 411.814 319.164 414.311 323.158 416.785C323.358 416.909 323.416 417.167 323.297 417.362C323.215 417.491 323.082 417.562 322.939 417.562V417.558Z" fill="#020D3A"/>
<path d="M153.896 559.778C145.33 559.778 105.537 533.551 89.4497 501.686C89.3544 501.495 89.4164 501.262 89.5975 501.142C90.7463 500.394 204.872 426.352 235.855 409.94C236.06 409.831 236.313 409.912 236.423 410.117C236.532 410.322 236.451 410.574 236.246 410.684C206.101 426.648 97.1051 497.272 90.3697 501.643C107.244 534.705 147.204 559.211 154.02 558.934C159.94 558.686 223.076 504.827 255.633 476.384C255.799 476.241 256.043 476.246 256.205 476.398C314.578 533.389 369.982 526.115 385.574 522.531C403.311 518.45 416.639 509.484 420.362 499.126C430.338 471.374 407.105 439.775 406.867 439.461C406.729 439.275 406.767 439.013 406.953 438.874C407.139 438.736 407.401 438.774 407.539 438.96C407.777 439.28 431.282 471.231 421.148 499.412C417.33 510.032 403.769 519.208 385.755 523.351C372.976 526.292 352.226 528.127 325.942 520.195C300.993 512.668 277.426 498.225 255.89 477.271C249.083 483.21 161.599 559.459 154.049 559.773C153.996 559.773 153.944 559.773 153.887 559.773L153.896 559.778Z" fill="#020D3A"/>
<path d="M127.321 544.853C127.207 544.853 127.087 544.806 127.006 544.71C126.854 544.534 126.868 544.272 127.045 544.119C131.235 540.439 229.696 454.018 239.711 457.87C244.731 459.815 246.175 462.217 247.128 463.809C248.077 465.387 248.468 466.045 251.523 465.173C254.15 464.424 255.194 462.646 256.037 461.221C256.633 460.206 257.148 459.333 258.087 459.224C259.088 459.104 260.361 459.939 262.43 462.108C263.793 463.533 264.894 464.758 265.862 465.835C269.556 469.935 270.547 471.04 273.631 469.649C274.976 469.038 276.329 467.551 277.759 465.969C280.6 462.832 283.823 459.286 287.641 462.722C291.488 466.188 348.469 503.473 379.353 492.839C393.176 488.077 401.904 481.413 405.289 473.023C408.011 466.278 407.191 458.289 402.92 449.914C402.815 449.709 402.896 449.457 403.101 449.347C403.311 449.242 403.563 449.323 403.668 449.533C408.053 458.127 408.883 466.359 406.066 473.338C402.586 481.961 393.686 488.787 379.625 493.63C375.797 494.946 371.54 495.527 367.012 495.532C336.271 495.532 293.032 468.714 287.074 463.347C283.875 460.468 281.206 463.414 278.379 466.531C276.887 468.176 275.476 469.73 273.975 470.411C270.328 472.056 268.941 470.516 265.232 466.398C264.269 465.325 263.173 464.11 261.819 462.689C260.056 460.844 258.864 459.986 258.182 460.063C257.658 460.125 257.262 460.797 256.762 461.65C255.894 463.123 254.707 465.139 251.757 465.983C248.239 466.989 247.51 466.078 246.409 464.243C245.46 462.66 244.159 460.496 239.406 458.656C231.784 455.711 162.943 513.688 127.602 544.753C127.521 544.825 127.421 544.858 127.326 544.858L127.321 544.853Z" fill="#020D3A"/>
<path d="M97.0146 574.784C96.3663 574.784 95.7133 574.55 95.2033 574.093L87.8053 567.433C87.2619 566.947 86.9473 566.275 86.9139 565.546C86.8805 564.816 87.1379 564.121 87.6337 563.587L95.3701 555.245L83.52 562.095C82.4761 562.695 81.1461 562.533 80.2834 561.689C73.2524 554.825 37.7879 519.961 30.2659 507.587C29.8608 506.92 29.9227 506.066 30.4233 505.466C32.1631 503.368 37.1539 498.864 45.8866 502.301C50.2005 503.998 53.7993 506.634 56.9788 508.96C61.7598 512.459 65.8926 515.481 70.8643 514.365C79.2585 512.482 90.7654 503.731 90.8798 503.64C91.0657 503.497 91.3279 503.535 91.4709 503.716C91.6139 503.902 91.5758 504.164 91.3946 504.307C90.918 504.675 79.6255 513.259 71.0502 515.185C65.7067 516.386 61.4309 513.259 56.483 509.637C53.3465 507.339 49.7905 504.741 45.5815 503.082C37.3589 499.846 32.697 504.045 31.0715 506C30.7998 506.329 30.7665 506.791 30.9857 507.148C38.4552 519.437 73.853 554.234 80.8744 561.084C81.4703 561.661 82.3855 561.78 83.1053 561.361L97.3721 553.119C97.5533 553.014 97.7821 553.057 97.9108 553.219C98.0395 553.381 98.0299 553.615 97.8917 553.767L88.2581 564.154C87.9149 564.521 87.7385 565.002 87.7624 565.503C87.7862 566.003 88.0055 566.466 88.3773 566.804L95.7753 573.463C96.4331 574.054 97.4246 574.102 98.1348 573.573L132.398 548.023C132.584 547.885 132.846 547.923 132.984 548.109C133.123 548.295 133.085 548.557 132.899 548.695L98.6353 574.245C98.1586 574.603 97.5866 574.779 97.0194 574.779L97.0146 574.784Z" fill="#020D3A"/>
<path d="M87.4241 559.778C87.3383 559.778 87.2525 559.754 87.1763 559.697C82.4715 556.298 35.1187 505.809 33.1071 503.659C32.9498 503.488 32.9546 503.225 33.1262 503.063C33.293 502.906 33.56 502.916 33.722 503.082C34.213 503.607 83.034 555.66 87.672 559.011C87.8579 559.149 87.9008 559.411 87.7674 559.597C87.6863 559.711 87.5576 559.773 87.4241 559.773V559.778Z" fill="#020D3A"/>
<path d="M100.556 572.71C100.451 572.71 100.346 572.672 100.26 572.591L89.5305 562.147C89.3637 561.985 89.3589 561.718 89.521 561.551C89.683 561.384 89.95 561.38 90.1168 561.542L100.847 571.986C101.014 572.148 101.018 572.415 100.856 572.581C100.775 572.667 100.666 572.71 100.556 572.71Z" fill="#020D3A"/>
<path d="M97.577 553.91C97.4578 553.91 97.3339 553.858 97.2529 553.758C97.1051 553.581 97.1289 553.314 97.3101 553.167L117.678 536.292C117.855 536.144 118.122 536.168 118.269 536.349C118.417 536.526 118.393 536.793 118.212 536.94L97.8439 553.815C97.7677 553.882 97.6723 553.91 97.577 553.91Z" fill="#020D3A"/>
<path d="M198.928 678.327C198.185 678.327 197.508 677.869 197.226 677.173C196.216 674.642 194.638 668.107 201.831 662.072C205.382 659.093 209.415 657.186 212.976 655.508C218.333 652.977 222.962 650.794 224.359 645.889C226.713 637.614 224.516 623.323 224.497 623.18C224.464 622.952 224.616 622.737 224.85 622.699C225.078 622.666 225.293 622.823 225.331 623.052C225.422 623.643 227.576 637.667 225.174 646.123C223.677 651.39 218.886 653.654 213.343 656.271C209.83 657.93 205.845 659.808 202.379 662.721C195.61 668.402 197.074 674.504 198.018 676.863C198.175 677.259 198.561 677.507 198.985 677.488C213.348 676.792 260.824 662.306 270.196 659.412C270.987 659.169 271.526 658.416 271.507 657.587L271.077 641.113C271.073 640.903 271.22 640.722 271.425 640.689C271.635 640.651 271.831 640.77 271.897 640.97L276.421 654.393C276.583 654.87 276.922 655.251 277.37 655.47C277.822 655.69 278.328 655.718 278.804 655.551L288.185 652.229C289.02 651.933 289.534 651.085 289.406 650.213L283.318 607.908C283.285 607.679 283.447 607.464 283.676 607.431C283.9 607.398 284.119 607.555 284.153 607.789L290.24 650.089C290.421 651.361 289.677 652.591 288.467 653.02L279.086 656.343C278.399 656.586 277.656 656.543 277.003 656.223C276.345 655.904 275.859 655.346 275.625 654.655L271.993 643.873L272.35 657.553C272.384 658.759 271.597 659.851 270.448 660.204C261.063 663.107 213.495 677.617 199.028 678.317C199 678.317 198.966 678.317 198.938 678.317L198.928 678.327Z" fill="#020D3A"/>
<path d="M196.816 673.961C196.63 673.961 196.458 673.837 196.411 673.646C196.353 673.422 196.487 673.193 196.711 673.131C197.407 672.95 266.453 654.908 271.616 652.434C271.821 652.334 272.078 652.42 272.178 652.634C272.278 652.844 272.188 653.092 271.978 653.197C266.744 655.704 199.771 673.203 196.926 673.946C196.892 673.956 196.854 673.961 196.821 673.961H196.816Z" fill="#020D3A"/>
<path d="M275.128 652.319C274.947 652.319 274.78 652.205 274.728 652.024C274.661 651.8 274.785 651.566 275.005 651.5L289.305 647.062C289.529 646.995 289.762 647.119 289.829 647.338C289.896 647.562 289.772 647.796 289.553 647.863L275.252 652.3C275.209 652.315 275.167 652.319 275.128 652.319Z" fill="#020D3A"/>
<path d="M271.487 641.518C271.292 641.518 271.116 641.38 271.078 641.18L265.977 615.225C265.934 614.996 266.082 614.777 266.306 614.729C266.535 614.686 266.754 614.834 266.802 615.063L271.902 641.018C271.945 641.246 271.797 641.466 271.573 641.513C271.545 641.518 271.516 641.523 271.492 641.523L271.487 641.518Z" fill="#020D3A"/>
<path d="M222.337 623.533C221.708 623.533 221.107 623.314 220.621 622.904C220.054 622.427 219.72 621.76 219.673 621.021L212.971 513.255C212.956 513.021 213.133 512.821 213.366 512.807C213.614 512.797 213.8 512.969 213.814 513.202L220.516 620.969C220.55 621.474 220.778 621.932 221.165 622.26C221.551 622.585 222.042 622.737 222.552 622.68C234.492 621.364 274.795 615.978 292.089 601.83C292.527 601.473 292.771 600.905 292.732 600.314L286.431 501.509C286.417 501.276 286.593 501.076 286.822 501.061C287.079 501.047 287.255 501.223 287.27 501.452L293.571 600.257C293.624 601.115 293.271 601.949 292.623 602.478C275.153 616.774 234.645 622.194 222.647 623.514C222.547 623.524 222.447 623.528 222.347 623.528L222.337 623.533Z" fill="#020D3A"/>
<path d="M269.981 613.747C269.776 613.747 269.595 613.594 269.566 613.385L250.771 480.874C250.738 480.645 250.9 480.431 251.128 480.397C251.353 480.364 251.572 480.526 251.605 480.755L270.4 613.266C270.434 613.494 270.272 613.709 270.043 613.742C270.024 613.742 270.005 613.742 269.981 613.742V613.747Z" fill="#020D3A"/>
<path d="M371.364 545.926C364.791 545.926 358.317 545.602 352.206 545.092C319.001 542.317 289.042 533.637 288.742 533.551C288.518 533.485 288.389 533.251 288.456 533.032C288.518 532.808 288.752 532.679 288.976 532.746C289.276 532.832 319.163 541.488 352.288 544.257C382.776 546.803 422.32 544.744 437.56 520.467C463.524 479.115 460.535 350.151 447.174 312.432C445.101 306.573 442.794 303.065 440.506 302.283C428.374 298.136 420.738 309.028 420.666 309.138C420.533 309.329 420.271 309.376 420.08 309.248C419.889 309.119 419.842 308.857 419.97 308.661C420.051 308.547 428.031 297.131 440.777 301.483C443.351 302.364 445.773 305.949 447.966 312.146C461.37 349.984 464.339 479.392 438.27 520.91C425.881 540.644 397.824 545.926 371.359 545.926H371.364Z" fill="#020D3A"/>
<path d="M256.759 402.695H150.241C150.069 402.695 149.912 402.59 149.85 402.428L124.51 337.281C124.458 337.152 124.477 337.004 124.553 336.89C124.629 336.776 124.763 336.709 124.901 336.709H231.419C231.59 336.709 231.747 336.814 231.809 336.976L254.17 394.458C254.256 394.672 254.146 394.916 253.932 395.001C253.717 395.087 253.474 394.977 253.388 394.763L231.133 337.548H125.516L150.532 401.856H256.148L254.971 398.834C254.885 398.619 254.995 398.371 255.209 398.29C255.424 398.205 255.667 398.314 255.753 398.529L257.149 402.123C257.202 402.252 257.183 402.399 257.107 402.514C257.025 402.628 256.897 402.695 256.759 402.695Z" fill="#020D3A"/>
<path d="M261.983 402.695H256.758C256.587 402.695 256.429 402.59 256.367 402.428L254.971 398.834C254.885 398.619 254.995 398.371 255.209 398.29C255.424 398.205 255.667 398.314 255.752 398.529L257.049 401.856H261.372L260.662 400.03C260.576 399.816 260.686 399.573 260.901 399.487C261.115 399.401 261.358 399.511 261.444 399.725L262.378 402.123C262.431 402.252 262.412 402.399 262.335 402.514C262.254 402.628 262.126 402.695 261.987 402.695H261.983Z" fill="#020D3A"/>
<path d="M253.779 395.039C253.612 395.039 253.45 394.939 253.388 394.773L231.023 337.281C230.97 337.152 230.989 337.004 231.066 336.89C231.142 336.776 231.275 336.709 231.414 336.709H236.638C236.81 336.709 236.967 336.814 237.029 336.976L256.282 386.474C256.368 386.688 256.258 386.931 256.043 387.017C255.829 387.103 255.581 386.993 255.5 386.779L236.352 337.553H232.029L254.17 394.472C254.256 394.687 254.146 394.93 253.932 395.016C253.879 395.035 253.832 395.044 253.779 395.044V395.039Z" fill="#020D3A"/>
<path d="M236.643 337.548H124.896C124.725 337.548 124.567 337.443 124.505 337.281C123.995 335.975 124.167 334.507 124.958 333.348C125.749 332.19 127.06 331.499 128.462 331.499H229.03C232.601 331.499 235.742 333.649 237.034 336.976C237.086 337.105 237.067 337.252 236.991 337.367C236.915 337.481 236.781 337.548 236.643 337.548ZM125.197 336.709H235.999C234.708 334.035 232.038 332.343 229.026 332.343H128.457C127.318 332.343 126.293 332.881 125.649 333.825C125.058 334.688 124.901 335.727 125.197 336.709Z" fill="#020D3A"/>
<path d="M314.406 410.732H150.24C150.006 410.732 149.82 410.546 149.82 410.312V402.271C149.82 402.037 150.006 401.851 150.24 401.851H314.406C314.64 401.851 314.826 402.037 314.826 402.271V410.312C314.826 410.546 314.64 410.732 314.406 410.732ZM150.659 409.893H313.982V402.695H150.659V409.893Z" fill="#020D3A"/>
<path d="M314.407 410.732H261.987C261.753 410.732 261.567 410.546 261.567 410.312V402.271C261.567 402.037 261.753 401.851 261.987 401.851H314.407C314.64 401.851 314.826 402.037 314.826 402.271V410.312C314.826 410.546 314.64 410.732 314.407 410.732ZM262.406 409.893H313.987V402.695H262.406V409.893Z" fill="#020D3A"/>
<path d="M360.563 657.043H348.041C347.807 657.043 347.621 656.857 347.621 656.624V544.434C347.621 544.2 347.807 544.014 348.041 544.014C348.274 544.014 348.46 544.2 348.46 544.434V656.204H360.139V545.235C360.139 545.001 360.324 544.815 360.558 544.815C360.792 544.815 360.977 545.001 360.977 545.235V656.624C360.977 656.857 360.792 657.043 360.558 657.043H360.563Z" fill="#020D3A"/>
<path d="M464.987 657.043H452.465C452.294 657.043 452.141 656.938 452.074 656.781L405.184 541.927C405.098 541.712 405.198 541.464 405.413 541.378C405.627 541.293 405.875 541.393 405.961 541.607L452.747 656.2H464.358L416.286 538.456C416.2 538.242 416.3 537.994 416.514 537.908C416.729 537.818 416.977 537.922 417.063 538.137L465.374 656.457C465.426 656.586 465.412 656.733 465.335 656.853C465.259 656.967 465.126 657.039 464.987 657.039V657.043Z" fill="#020D3A"/>
<path d="M291.249 571.042C291.196 571.042 291.144 571.032 291.092 571.008C290.877 570.923 290.772 570.675 290.863 570.46L304.519 537.017C304.605 536.802 304.853 536.697 305.068 536.788C305.282 536.874 305.387 537.122 305.296 537.336L291.64 570.78C291.573 570.942 291.416 571.042 291.249 571.042Z" fill="#020D3A"/>
<path d="M289.557 544.52C289.505 544.52 289.453 544.51 289.4 544.486C289.186 544.4 289.081 544.153 289.171 543.938L293.128 534.252C293.214 534.038 293.461 533.933 293.676 534.023C293.89 534.109 293.995 534.357 293.905 534.571L289.948 544.257C289.882 544.42 289.724 544.52 289.557 544.52Z" fill="#020D3A"/>
<path d="M360.563 637.9C360.472 637.9 360.382 637.871 360.306 637.814C360.12 637.671 360.086 637.409 360.229 637.223L415.285 566.108C415.428 565.922 415.69 565.894 415.876 566.032C416.062 566.175 416.095 566.437 415.952 566.623L360.897 637.738C360.816 637.843 360.692 637.9 360.563 637.9Z" fill="#020D3A"/>
<path d="M444.653 637.9C444.563 637.9 444.467 637.871 444.391 637.809L360.301 570.951C360.12 570.808 360.091 570.541 360.234 570.36C360.382 570.179 360.644 570.15 360.825 570.293L444.916 637.152C445.097 637.295 445.125 637.562 444.982 637.743C444.901 637.848 444.777 637.9 444.653 637.9Z" fill="#020D3A"/>
<path d="M348.041 637.9C347.917 637.9 347.793 637.843 347.707 637.738L292.651 566.623C292.508 566.437 292.541 566.175 292.727 566.032C292.909 565.889 293.175 565.922 293.318 566.108L348.374 637.223C348.517 637.409 348.484 637.671 348.298 637.814C348.222 637.871 348.131 637.9 348.041 637.9Z" fill="#020D3A"/>
<path d="M285.525 620.749C285.401 620.749 285.277 620.697 285.196 620.592C285.053 620.411 285.082 620.144 285.263 620.001L347.779 570.293C347.96 570.15 348.227 570.179 348.37 570.36C348.513 570.541 348.484 570.808 348.303 570.951L285.787 620.659C285.711 620.721 285.616 620.749 285.525 620.749Z" fill="#020D3A"/>
<path d="M356.291 250.04C356.167 250.04 356.043 249.983 355.962 249.878C354.727 248.31 352.649 247.475 350.675 247.752C350.447 247.781 350.232 247.623 350.204 247.394C350.17 247.166 350.332 246.951 350.561 246.923C352.821 246.608 355.204 247.566 356.62 249.363C356.763 249.544 356.734 249.811 356.548 249.954C356.472 250.016 356.377 250.045 356.286 250.045L356.291 250.04Z" fill="#020D3A"/>
<path d="M349.659 265.756C348.978 265.756 348.296 265.661 347.648 265.47C347.424 265.403 347.3 265.17 347.367 264.946C347.433 264.722 347.662 264.598 347.891 264.66C349.54 265.151 351.418 264.922 352.901 264.049C354.388 263.177 355.503 261.657 355.88 259.974C355.932 259.75 356.157 259.602 356.381 259.654C356.609 259.707 356.748 259.931 356.7 260.16C356.271 262.062 355.008 263.787 353.325 264.774C352.224 265.417 350.942 265.751 349.659 265.751V265.756Z" fill="#020D3A"/>
<path d="M352.706 258.749C353.722 258.749 354.546 257.592 354.546 256.165C354.546 254.738 353.722 253.582 352.706 253.582C351.69 253.582 350.866 254.738 350.866 256.165C350.866 257.592 351.69 258.749 352.706 258.749Z" fill="#020D3A"/>
<path d="M343.13 258.749C344.146 258.749 344.97 257.592 344.97 256.165C344.97 254.738 344.146 253.582 343.13 253.582C342.114 253.582 341.29 254.738 341.29 256.165C341.29 257.592 342.114 258.749 343.13 258.749Z" fill="#020D3A"/>
<path d="M347.314 261.166C347.138 261.166 346.967 261.146 346.795 261.108C345.913 260.913 345.189 260.184 345.036 259.33C344.879 258.477 345.265 257.686 345.603 256.99C345.679 256.833 345.756 256.68 345.822 256.528C346.313 255.431 346.485 254.259 346.661 252.833C346.847 251.332 346.957 249.997 346.456 248.829C346.271 248.4 346.032 248.076 345.746 247.862C345.093 247.375 344.202 247.461 343.587 247.704C342.8 248.014 342.138 248.629 341.585 249.191C341.423 249.358 341.156 249.363 340.989 249.201C340.822 249.039 340.822 248.772 340.984 248.605C341.594 247.981 342.343 247.29 343.277 246.923C344.335 246.508 345.47 246.608 346.247 247.189C346.652 247.495 346.986 247.933 347.229 248.496C347.815 249.854 347.696 251.313 347.496 252.933C347.353 254.111 347.171 255.574 346.59 256.871C346.518 257.033 346.437 257.195 346.356 257.357C346.047 257.991 345.756 258.592 345.861 259.178C345.956 259.697 346.423 260.16 346.971 260.284C347.51 260.403 348.144 260.217 348.582 259.807C348.754 259.65 349.021 259.659 349.178 259.826C349.336 259.998 349.326 260.26 349.159 260.422C348.649 260.899 347.977 261.166 347.31 261.166H347.314Z" fill="#020D3A"/>
<path d="M374.247 260.389C374.161 260.389 374.08 260.365 374.004 260.312C373.813 260.179 373.766 259.917 373.899 259.726C374.829 258.401 374.957 256.456 374.223 254.773C374.028 254.325 373.828 254.011 373.585 253.787C373.036 253.272 372.102 253.138 371.32 253.453C370.591 253.753 369.967 254.411 369.6 255.269C369.29 255.998 369.152 256.866 369.18 257.929C369.185 258.162 369.004 258.353 368.77 258.358C368.527 258.377 368.346 258.182 368.341 257.948C368.313 256.766 368.47 255.779 368.827 254.94C369.275 253.882 370.067 253.057 371.001 252.676C372.093 252.228 373.361 252.428 374.157 253.172C374.486 253.477 374.752 253.882 374.991 254.44C375.839 256.384 375.677 258.653 374.581 260.212C374.5 260.327 374.371 260.393 374.238 260.393L374.247 260.389Z" fill="#020D3A"/>
<path d="M370.267 261.447C370.1 261.447 369.948 261.351 369.876 261.189C369.786 260.975 369.89 260.727 370.105 260.641C371.263 260.16 372.112 259.125 372.264 258C372.422 256.828 371.745 255.598 370.715 255.207C370.334 255.064 369.971 255.059 369.724 255.207C369.523 255.322 369.266 255.255 369.147 255.055C369.028 254.854 369.099 254.597 369.299 254.478C369.766 254.206 370.391 254.187 371.011 254.421C372.412 254.955 373.308 256.542 373.094 258.11C372.903 259.526 371.854 260.822 370.424 261.418C370.372 261.442 370.319 261.452 370.262 261.452L370.267 261.447Z" fill="#020D3A"/>
<path d="M352.382 266.909C352.215 266.909 352.053 266.805 351.991 266.638C351.91 266.418 352.015 266.175 352.234 266.094C352.725 265.908 353.197 265.665 353.631 265.375C353.822 265.246 354.084 265.298 354.212 265.494C354.341 265.689 354.289 265.947 354.093 266.075C353.607 266.399 353.078 266.671 352.53 266.881C352.482 266.9 352.43 266.909 352.377 266.909H352.382Z" fill="#020D3A"/>
<path d="M398 115H30V150H398V115Z" fill="#20E086"/>
<path d="M33.073 73.7562V51.1002H35.377V60.9242H47.729V51.1002H50.033V73.7562H47.729V63.0362H35.377V73.7562H33.073ZM58.4707 63.0362V71.6442H70.5987V73.7562H56.1667V51.1002H70.2147V53.2122H58.4707V60.9242H69.4467V63.0362H58.4707ZM82.3995 63.9962V73.7562H80.0955V63.9962L71.6155 51.1002H74.4955L81.2475 61.7882L87.9995 51.1002H90.8795L82.3995 63.9962ZM96.0385 51.1002V67.6122H93.7345V51.1002H96.0385ZM96.6145 72.2202C96.6145 73.1162 95.9105 73.9482 94.8865 73.9482C93.8625 73.9482 93.1585 73.1162 93.1585 72.2202C93.1585 71.3242 93.8625 70.4922 94.8865 70.4922C95.9105 70.4922 96.6145 71.3242 96.6145 72.2202Z" fill="#020D3A"/>
<path d="M34.535 132.756V93.1082H43.271V124.692H59.455V132.756H34.535ZM64.6131 132.756V93.1082H91.5491V101.172H73.3491V108.564H90.5411V116.628H73.3491V124.692H92.5571V132.756H64.6131ZM107.223 132.756V100.836H95.9106V93.1082H127.271V100.836H115.959V132.756H107.223ZM142.067 93.1082L137.027 108.9H129.859L134.003 93.1082H142.067ZM173.869 96.2442L167.877 102.796C166.477 101.004 163.677 100.164 161.549 100.164C159.085 100.164 155.669 101.284 155.669 104.252C155.669 111.476 173.925 106.828 173.925 120.716C173.925 129.564 166.813 133.764 158.637 133.764C153.541 133.764 149.061 132.252 145.309 128.78L151.525 121.948C153.317 124.3 156.229 125.7 159.141 125.7C161.997 125.7 165.189 124.356 165.189 121.556C165.189 114.276 146.597 118.196 146.597 104.98C146.597 96.5242 153.933 92.1002 161.717 92.1002C166.197 92.1002 170.509 93.2762 173.869 96.2442ZM204.62 132.756L192.86 93.1082H202.38L208.708 118.532H208.82L217.108 93.1082H225.228L233.46 119.204H233.572L240.236 93.1082H249.084L237.492 132.756H229.708L220.972 105.316H220.86L212.124 132.756H204.62ZM250.876 112.932C250.876 100.22 259.892 92.1002 272.268 92.1002C284.644 92.1002 293.66 100.22 293.66 112.932C293.66 125.644 284.644 133.764 272.268 133.764C259.892 133.764 250.876 125.644 250.876 112.932ZM259.948 112.932C259.948 120.324 264.82 125.7 272.268 125.7C279.716 125.7 284.588 120.324 284.588 112.932C284.588 105.54 279.716 100.164 272.268 100.164C264.82 100.164 259.948 105.54 259.948 112.932ZM299.597 132.756V93.1082H314.941C323.061 93.1082 329.893 95.9082 329.893 105.148C329.893 110.692 326.925 115.004 321.325 116.012L331.405 132.756H320.933L312.645 116.908H308.333V132.756H299.597ZM308.333 100.5V109.516H313.485C316.677 109.516 320.821 109.404 320.821 105.092C320.821 101.116 317.237 100.5 314.045 100.5H308.333ZM336.246 132.756V93.1082H344.982V109.572L360.382 93.1082H371.806L354.166 111.532L373.318 132.756H361.11L344.982 113.94V132.756H336.246ZM388.924 93.1082V119.652H380.524V93.1082H388.924ZM379.572 127.94C379.572 125.084 381.868 122.788 384.724 122.788C387.58 122.788 389.876 125.084 389.876 127.94C389.876 130.796 387.58 133.092 384.724 133.092C381.868 133.092 379.572 130.796 379.572 127.94Z" fill="#020D3A"/>
<path opacity="0.7" d="M385 852.505V720.495C385 715.251 389.251 711 394.494 711H526.506C531.749 711 536 715.251 536 720.495V852.505C536 857.749 531.749 862 526.506 862H394.494C389.251 862 385 857.749 385 852.505ZM517.007 729.989H403.993V843.006H517.007V729.989Z" fill="#20E086"/>
<path opacity="0.7" d="M-104 405.52V251.106C-104 244.972 -99.028 240 -92.8941 240H61.5252C67.659 240 72.631 244.972 72.631 251.106V405.52C72.631 411.654 67.659 416.626 61.5252 416.626H-92.8941C-99.028 416.626 -104 411.654 -104 405.52ZM50.4138 262.212H-81.7828V394.408H50.4138V262.212Z" fill="#20E086"/>
</g>
<defs>
<clipPath id="clip0_115_5836">
<rect width="536" height="862" fill="white"/>
</clipPath>
</defs>
</svg>
