<svg width="24" height="24" viewBox="0 0 24 24" fill="none" xmlns="http://www.w3.org/2000/svg">
<path d="M18 21.75H9C8.40326 21.75 7.83097 21.5129 7.40901 21.091C6.98705 20.669 6.75 20.0967 6.75 19.5V7.5C6.75 6.90326 6.98705 6.33097 7.40901 5.90901C7.83097 5.48705 8.40326 5.25 9 5.25H18C18.5967 5.25 19.169 5.48705 19.591 5.90901C20.0129 6.33097 20.25 6.90326 20.25 7.5V19.5C20.25 20.0967 20.0129 20.669 19.591 21.091C19.169 21.5129 18.5967 21.75 18 21.75ZM9 6.75C8.80109 6.75 8.61032 6.82902 8.46967 6.96967C8.32902 7.11032 8.25 7.30109 8.25 7.5V19.5C8.25 19.6989 8.32902 19.8897 8.46967 20.0303C8.61032 20.171 8.80109 20.25 9 20.25H18C18.1989 20.25 18.3897 20.171 18.5303 20.0303C18.671 19.8897 18.75 19.6989 18.75 19.5V7.5C18.75 7.30109 18.671 7.11032 18.5303 6.96967C18.3897 6.82902 18.1989 6.75 18 6.75H9Z" fill="white"/>
<path d="M4.5 14.25C4.30109 14.25 4.11032 14.171 3.96967 14.0303C3.82902 13.8897 3.75 13.6989 3.75 13.5V4.5C3.75 3.90326 3.98705 3.33097 4.40901 2.90901C4.83097 2.48705 5.40326 2.25 6 2.25H13.5C13.6989 2.25 13.8897 2.32902 14.0303 2.46967C14.171 2.61032 14.25 2.80109 14.25 3C14.25 3.19891 14.171 3.38968 14.0303 3.53033C13.8897 3.67098 13.6989 3.75 13.5 3.75H6C5.80109 3.75 5.61032 3.82902 5.46967 3.96967C5.32902 4.11032 5.25 4.30109 5.25 4.5V13.5C5.25 13.6989 5.17098 13.8897 5.03033 14.0303C4.88968 14.171 4.69891 14.25 4.5 14.25Z" fill="white"/>
</svg>
