<svg width="119" height="119" viewBox="0 0 119 119" fill="none" xmlns="http://www.w3.org/2000/svg">
<g opacity="0.2" clip-path="url(#clip0_1293_12030)">
<path fill-rule="evenodd" clip-rule="evenodd" d="M102.338 87.5483L108.747 81.1367C118.18 71.7037 118.18 56.3878 108.747 46.9547C99.3139 37.5216 83.995 37.5216 74.5619 46.9547L68.1533 53.3633C66.9749 54.5416 66.9749 56.4573 68.1533 57.6356C69.3317 58.817 71.2473 58.817 72.4257 57.6356L78.8343 51.2271C85.9106 44.1508 97.3983 44.1508 104.475 51.2271C111.548 58.3034 111.548 69.7911 104.475 76.8644L98.063 83.276C96.8846 84.4543 96.8846 86.37 98.063 87.5483C99.2444 88.7267 101.157 88.7267 102.338 87.5483Z" fill="#020D3A"/>
<path fill-rule="evenodd" clip-rule="evenodd" d="M51.0615 70.4556L44.6529 76.8641C35.2199 86.2972 35.2199 101.616 44.6529 111.049C54.086 120.482 69.4019 120.482 78.835 111.049L85.2466 104.641C86.425 103.459 86.425 101.547 85.2466 100.365C84.0682 99.1869 82.1526 99.1869 80.9742 100.365L74.5626 106.777C67.4893 113.85 56.0016 113.85 48.9253 106.777C41.849 99.7005 41.849 88.2128 48.9253 81.1365L55.3339 74.7279C56.5153 73.5496 56.5153 71.6339 55.3339 70.4556C54.1555 69.2772 52.2399 69.2772 51.0615 70.4556Z" fill="#020D3A"/>
<path fill-rule="evenodd" clip-rule="evenodd" d="M61.7451 98.2289L95.9272 64.0469C97.1086 62.8655 97.1086 60.9529 95.9272 59.7715C94.7488 58.5931 92.8332 58.5931 91.6548 59.7715L57.4697 93.9566C56.2913 95.1349 56.2913 97.0506 57.4697 98.2289C58.6511 99.4103 60.5637 99.4103 61.7451 98.2289Z" fill="#20E086"/>
<path fill-rule="evenodd" clip-rule="evenodd" d="M29.6271 23.7636L39.1214 8.16409C41.2188 4.71078 44.6411 2.26624 48.588 1.39637C52.5348 0.526498 56.6683 1.30805 60.0285 3.55729L86.9594 21.6014C87.971 22.279 88.5851 23.4129 88.6009 24.6316C88.6168 25.8502 88.0334 26.996 87.0409 27.7026C65.0383 43.3154 44.7899 61.2645 26.6504 81.2353C25.8326 82.1334 24.6223 82.5776 23.4144 82.4156C22.2092 82.2512 21.1571 81.5056 20.6058 80.42C20.6058 80.42 11.8305 63.1487 5.92259 51.519C4.08991 47.9157 3.80985 43.7183 5.1469 39.9043C6.48395 36.0903 9.32138 32.986 13.0041 31.3156L29.6271 23.7636ZM55.8999 9.71209C54.2251 8.58778 52.157 8.19823 50.1837 8.63055C48.2101 9.06811 46.4991 10.2878 45.4477 12.0169C40.8721 19.5383 35.3619 28.5911 35.3619 28.5911C34.9774 29.224 34.4063 29.7303 33.7319 30.0361C33.7319 30.0361 24.0834 34.4205 16.0674 38.0607C14.2274 38.8947 12.8086 40.4495 12.1402 42.3539C11.4715 44.2635 11.6129 46.361 12.5254 48.1611L24.7967 72.3139C41.1361 54.8249 59.0863 38.9131 78.4063 24.7921L55.8999 9.71209Z" fill="#20E086"/>
<path fill-rule="evenodd" clip-rule="evenodd" d="M91.7949 15.4069C91.7949 15.4069 89.7852 16.7923 86.6396 18.9569C61.3722 36.3598 38.3216 56.7829 17.9983 79.7688C15.3736 82.739 13.6869 84.6451 13.6869 84.6451C12.3324 86.1775 12.4747 88.5217 14.0071 89.8762C15.5395 91.2308 17.8813 91.0857 19.2358 89.5533C19.2358 89.5533 20.9225 87.6472 23.5499 84.6746C43.4733 62.1422 66.0693 42.1222 90.8436 25.0622C93.9896 22.8924 95.9964 21.5094 95.9964 21.5094C97.6827 20.3513 98.1077 18.0438 96.9468 16.36C95.7886 14.6737 93.4812 14.2488 91.7949 15.4069Z" fill="#20E086"/>
</g>
<defs>
<clipPath id="clip0_1293_12030">
<rect width="119" height="119" fill="white"/>
</clipPath>
</defs>
</svg>
