<svg width="40" height="40" viewBox="0 0 40 40" fill="none" xmlns="http://www.w3.org/2000/svg">
<g clip-path="url(#clip0_1293_13064)">
<path d="M20 0C8.95469 0 0 8.95469 0 20C0 31.0453 8.95469 40 20 40C31.0453 40 40 31.0453 40 20C40 8.95469 31.0453 0 20 0Z" fill="black"/>
<path d="M22.1912 18.1906L30.753 8.23828H28.7241L21.2899 16.8798L15.3523 8.23828H8.50391L17.4828 21.3057L8.50391 31.7423H10.5329L18.3836 22.6166L24.6542 31.7423H31.5025L22.1907 18.1906H22.1912ZM11.2639 9.76568H14.3803L28.725 30.2844H25.6086L11.2639 9.76568Z" fill="white"/>
</g>
<defs>
<clipPath id="clip0_1293_13064">
<rect width="40" height="40" fill="white"/>
</clipPath>
</defs>
</svg>
