<svg width="40" height="40" viewBox="0 0 40 40" fill="none" xmlns="http://www.w3.org/2000/svg">
<g clip-path="url(#clip0_1293_13059)">
<path d="M32.8409 39.3182C24.2955 40.2273 15.7045 40.2273 7.15909 39.3182C3.75 38.9545 1.04545 36.25 0.681818 32.8409C-0.227273 24.2955 -0.227273 15.7045 0.681818 7.15909C1.04545 3.75 3.75 1.04545 7.15909 0.681818C15.7045 -0.227273 24.2955 -0.227273 32.8409 0.681818C36.25 1.04545 38.9545 3.75 39.3182 7.15909C40.2273 15.7045 40.2273 24.2955 39.3182 32.8409C38.9545 36.25 36.25 38.9545 32.8409 39.3182Z" fill="#FFFC00"/>
<path d="M20.1607 31.7498H19.9788H19.8425C18.297 31.7498 17.2743 31.0225 16.3879 30.4089C15.797 29.9998 15.2516 29.6134 14.6379 29.4998C14.3197 29.4543 14.0243 29.4316 13.7061 29.4316C13.2743 29.4316 12.8197 29.4771 12.3879 29.568C12.2061 29.6134 12.0016 29.6361 11.8197 29.6589C11.5016 29.6816 11.2061 29.4771 11.1379 29.1589C11.0697 28.9543 11.0243 28.7498 11.0016 28.568C10.9561 28.3861 10.9107 28.2043 10.8652 28.0452C8.91066 27.7498 7.84248 27.2952 7.56975 26.6816C7.52429 26.5907 7.52429 26.4998 7.50157 26.4089C7.47884 26.1134 7.70611 25.8407 8.00157 25.7725C11.3197 25.227 12.8425 21.818 12.8879 21.6589L12.9107 21.6361C13.0697 21.3861 13.1152 21.0907 13.0243 20.7952C12.8425 20.3634 12.1379 20.1589 11.6834 19.9998C11.547 19.9543 11.4107 19.9089 11.3197 19.8634C10.1152 19.3861 9.95611 18.818 10.0243 18.4316C10.1379 17.8861 10.7743 17.5225 11.3197 17.5225C11.4561 17.5225 11.6152 17.5452 11.7516 17.6134C12.0925 17.7952 12.4788 17.8861 12.8652 17.9089C13.0016 17.9089 13.1379 17.8861 13.2743 17.8407C13.2743 17.7043 13.2288 17.2952 13.2288 17.2952C13.1152 15.5907 13.0016 13.477 13.547 12.2271C15.2061 8.52251 18.7288 8.22705 19.7516 8.22705H20.2516C21.297 8.22705 24.8197 8.52251 26.4788 12.2271C27.047 13.477 26.9107 15.5907 26.797 17.2952C26.797 17.2952 26.7743 17.6816 26.7516 17.8407C26.8652 17.8861 26.9788 17.9089 27.0697 17.9089C27.4334 17.8861 27.7743 17.7725 28.1152 17.6134C28.2743 17.5452 28.4561 17.4998 28.6379 17.4998C28.8197 17.4998 29.0243 17.5452 29.1834 17.6134C29.6607 17.7952 29.9788 18.1589 29.9788 18.5452C30.0016 19.068 29.547 19.4998 28.6607 19.8407C28.5697 19.8861 28.4561 19.9089 28.3197 19.9543H28.297C27.8425 20.1134 27.1379 20.318 26.9561 20.7498C26.8652 21.0225 26.9107 21.3407 27.0697 21.5907L27.0925 21.6361C27.1607 21.7725 28.6607 25.2043 31.9788 25.7498C32.2743 25.7952 32.5016 26.068 32.4788 26.3634C32.4788 26.4543 32.4561 26.5452 32.4107 26.6361C32.1607 27.2498 31.0697 27.7043 29.1152 27.9998C29.047 28.1816 29.0016 28.3407 28.9788 28.5225C28.9334 28.727 28.8879 28.9089 28.8425 29.1134C28.7743 29.4089 28.5016 29.6134 28.1834 29.5907C27.9788 29.5907 27.797 29.568 27.6152 29.5225C27.1834 29.4316 26.7516 29.3861 26.297 29.3861C25.9788 29.3861 25.6607 29.4089 25.3652 29.4543C24.7516 29.5452 24.2061 29.9543 23.6152 30.3634C22.7288 31.0452 21.7061 31.7498 20.1607 31.7498Z" fill="white"/>
</g>
<defs>
<clipPath id="clip0_1293_13059">
<rect width="40" height="40" fill="white"/>
</clipPath>
</defs>
</svg>
