<svg width="40" height="40" viewBox="0 0 40 40" fill="none" xmlns="http://www.w3.org/2000/svg">
<g clip-path="url(#clip0_1293_13072)">
<path d="M20 40C31.0457 40 40 31.0457 40 20C40 8.95431 31.0457 0 20 0C8.95431 0 0 8.95431 0 20C0 31.0457 8.95431 40 20 40Z" fill="#F20000"/>
<path d="M29.5336 15.1901C29.1336 13.948 27.8099 13.2138 26.581 13.0427C22.2004 12.5769 17.7827 12.5769 13.402 13.0427C12.1836 13.2138 10.8599 13.9585 10.4599 15.1901C9.83627 18.3677 9.83627 21.6362 10.4599 24.8138C10.8705 26.0532 12.1941 26.7901 13.4231 26.9611C17.8039 27.4243 22.2213 27.4243 26.602 26.9611C27.8205 26.7901 29.1441 26.0427 29.5441 24.8138C30.1643 21.6355 30.1608 18.367 29.5336 15.1901ZM17.6099 23.8322V16.169L23.8494 20.0006C21.7468 21.2927 19.7047 22.5506 17.6099 23.8322Z" fill="white"/>
</g>
<defs>
<clipPath id="clip0_1293_13072">
<rect width="40" height="40" fill="white"/>
</clipPath>
</defs>
</svg>
