<svg width="150" height="150" viewBox="0 0 150 150" fill="none" xmlns="http://www.w3.org/2000/svg">
<path d="M128.062 98.5815C127.406 100.544 125.581 101.788 123.612 101.788C123.124 101.788 122.624 101.713 122.131 101.544L108.874 97.1252C106.418 96.3065 105.093 93.6502 105.906 91.194C106.731 88.744 109.356 87.4065 111.837 88.2315L125.093 92.6502C127.549 93.469 128.874 96.1252 128.062 98.5815ZM95.9494 108.638C94.7869 106.325 91.9744 105.388 89.6619 106.544C87.3431 107.706 86.4056 110.519 87.5619 112.831L93.8119 125.331C94.6369 126.975 96.2869 127.925 98.0119 127.925C98.7119 127.925 99.4306 127.769 100.099 127.431C102.418 126.269 103.356 123.456 102.199 121.144L95.9494 108.638ZM57.3556 24.9002C56.5306 22.4502 53.8994 21.1065 51.4244 21.9377C48.9681 22.7565 47.6431 25.4127 48.4556 27.869L52.8744 41.1315C53.5306 43.094 55.3556 44.3377 57.3244 44.3377C57.8119 44.3377 58.3119 44.2627 58.8056 44.094C61.2619 43.2752 62.5869 40.619 61.7744 38.1627L57.3556 24.9002ZM41.3556 54.044L28.8556 47.794C26.5431 46.6377 23.7369 47.5815 22.5681 49.8877C21.4056 52.2065 22.3494 55.019 24.6681 56.1752L37.1681 62.4252C37.8369 62.7627 38.5556 62.919 39.2556 62.919C40.9744 62.919 42.6306 61.969 43.4556 60.3252C44.6181 58.0065 43.6744 55.194 41.3556 54.0377V54.044Z" fill="#20E086"/>
<path d="M87.1492 62.8496C91.5742 67.2746 94.018 73.1621 94.018 79.4184C94.018 85.6746 91.5742 91.5621 87.1492 95.9934L60.6367 122.512C56.068 127.081 50.068 129.362 44.0617 129.362C38.0555 129.362 32.0617 127.081 27.493 122.512C18.3617 113.375 18.3617 98.5059 27.493 89.3684L40.7492 76.1059C42.5805 74.2746 45.5492 74.2746 47.3805 76.1059C49.2117 77.9371 49.2117 80.9059 47.3805 82.7371L34.1242 95.9996C28.643 101.481 28.643 110.406 34.1242 115.887C39.6055 121.375 48.5367 121.362 54.018 115.887L80.5305 89.3684C83.1867 86.7121 84.6492 83.1809 84.6492 79.4246C84.6492 75.6684 83.1867 72.1371 80.5305 69.4809C78.6992 67.6559 78.6992 64.6809 80.5305 62.8496C82.3617 61.0184 85.3305 61.0184 87.1617 62.8496H87.1492ZM122.505 27.4934C113.355 18.3559 98.493 18.3621 89.3555 27.4934L62.843 54.0121C58.418 58.4371 55.9742 64.3246 55.9742 70.5871C55.9742 76.8496 58.418 82.7309 62.843 87.1559C63.7555 88.0684 64.9555 88.5309 66.1555 88.5309C67.3555 88.5309 68.5555 88.0746 69.468 87.1559C71.2992 85.3246 71.2992 82.3559 69.468 80.5246C66.8117 77.8684 65.3492 74.3371 65.3492 70.5809C65.3492 66.8246 66.8117 63.2934 69.468 60.6371L95.9805 34.1184C101.455 28.6434 110.387 28.6309 115.874 34.1184C121.355 39.5996 121.355 48.5246 115.874 54.0059L102.618 67.2684C100.787 69.0996 100.787 72.0684 102.618 73.8996C104.449 75.7309 107.418 75.7309 109.249 73.8996L122.505 60.6371C131.637 51.4996 131.637 36.6309 122.505 27.4934Z" fill="#020D3A"/>
</svg>
