<svg width="40" height="40" viewBox="0 0 40 40" fill="none" xmlns="http://www.w3.org/2000/svg">
<g clip-path="url(#clip0_1293_13050)">
<path d="M2.49952 2.72117C-0.643815 5.98617 -0.00048171 9.45451 -0.00048171 19.9912C-0.00048171 28.7412 -1.52715 37.5128 6.46285 39.5778C8.95785 40.2195 31.0645 40.2195 33.5562 39.5745C36.8829 38.7162 39.5895 36.0178 39.9595 31.3128C40.0112 30.6562 40.0112 9.33784 39.9579 8.66784C39.5645 3.65617 36.4795 0.767841 32.4145 0.182841C31.4828 0.047841 31.2962 0.00784099 26.5162 -0.000492342C9.56118 0.00784099 5.84452 -0.747159 2.49952 2.72117Z" fill="url(#paint0_linear_1293_13050)"/>
<path d="M19.9977 5.23105C13.946 5.23105 8.19933 4.69272 6.00433 10.3261C5.09766 12.6527 5.22933 15.6744 5.22933 20.0011C5.22933 23.7977 5.10766 27.3661 6.00433 29.6744C8.19433 35.3111 13.9877 34.7711 19.9943 34.7711C25.7893 34.7711 31.7643 35.3744 33.986 29.6744C34.8943 27.3244 34.761 24.3477 34.761 20.0011C34.761 14.2311 35.0793 10.5061 32.281 7.70938C29.4477 4.87605 25.616 5.23105 19.991 5.23105H19.9977ZM18.6743 7.89272C31.2977 7.87272 32.9043 6.46939 32.0177 25.9644C31.7027 32.8594 26.4527 32.1027 19.9993 32.1027C8.23266 32.1027 7.89433 31.7661 7.89433 19.9944C7.89433 8.08605 8.82766 7.89938 18.6743 7.88938V7.89272ZM27.881 10.3444C26.9027 10.3444 26.1093 11.1377 26.1093 12.1161C26.1093 13.0944 26.9027 13.8877 27.881 13.8877C28.8593 13.8877 29.6527 13.0944 29.6527 12.1161C29.6527 11.1377 28.8593 10.3444 27.881 10.3444ZM19.9977 12.4161C15.8093 12.4161 12.4143 15.8127 12.4143 20.0011C12.4143 24.1894 15.8093 27.5844 19.9977 27.5844C24.186 27.5844 27.5793 24.1894 27.5793 20.0011C27.5793 15.8127 24.186 12.4161 19.9977 12.4161ZM19.9977 15.0777C26.506 15.0777 26.5143 24.9244 19.9977 24.9244C13.491 24.9244 13.481 15.0777 19.9977 15.0777Z" fill="white"/>
</g>
<defs>
<linearGradient id="paint0_linear_1293_13050" x1="2.57622" y1="37.4447" x2="39.752" y2="5.26947" gradientUnits="userSpaceOnUse">
<stop stop-color="#FFDD55"/>
<stop offset="0.5" stop-color="#FF543E"/>
<stop offset="1" stop-color="#C837AB"/>
</linearGradient>
<clipPath id="clip0_1293_13050">
<rect width="40" height="40" fill="white"/>
</clipPath>
</defs>
</svg>
