<svg width="24" height="24" viewBox="0 0 24 24" fill="none" xmlns="http://www.w3.org/2000/svg">
<path d="M18.2114 10.672C17.8878 10.672 17.6255 10.9344 17.6255 11.258V19.852C17.6255 20.3905 17.1874 20.8286 16.6489 20.8286H4.1485C3.61001 20.8286 3.17191 20.3905 3.17191 19.852V7.35163C3.17191 6.81314 3.61001 6.37504 4.1485 6.37504H12.7425C13.0661 6.37504 13.3285 6.11268 13.3285 5.78908C13.3285 5.46548 13.0661 5.20312 12.7425 5.20312H4.1485C2.96382 5.20312 2 6.16694 2 7.35163V19.852C2 21.0367 2.96382 22.0005 4.1485 22.0005H16.6489C17.8336 22.0005 18.7974 21.0367 18.7974 19.852V11.258C18.7974 10.9344 18.535 10.672 18.2114 10.672Z" fill="white"/>
<path d="M21.6017 3.50471L20.4967 2.3998C19.9637 1.86673 19.0963 1.86673 18.5632 2.3998L9.72414 11.2389C9.64234 11.3207 9.58659 11.4249 9.56386 11.5383L9.01138 14.3006C8.97298 14.4927 9.0331 14.6913 9.17166 14.8298C9.28264 14.9408 9.43213 15.0014 9.58597 15.0014C9.62421 15.0014 9.66265 14.9977 9.70085 14.9901L12.4631 14.4376C12.5765 14.4149 12.6807 14.3591 12.7625 14.2773L21.6017 5.43825C21.6017 5.43825 21.6017 5.43825 21.6017 5.43821C22.1347 4.90519 22.1347 4.03782 21.6017 3.50471ZM12.0593 13.3232L10.3329 13.6685L10.6783 11.9422L17.8726 4.74768L19.2538 6.12882L12.0593 13.3232ZM20.773 4.60959L20.0824 5.30016L18.7013 3.91902L19.3918 3.2285C19.468 3.15232 19.5919 3.15228 19.6681 3.22846L20.773 4.33337C20.8492 4.40951 20.8492 4.53346 20.773 4.60959Z" fill="white"/>
</svg>
