<svg width="30" height="30" viewBox="0 0 30 30" fill="none" xmlns="http://www.w3.org/2000/svg">
<path d="M26 15C26 20.4905 21.9773 25.0414 16.7188 25.8664V18.1797H19.2818L19.7695 15H16.7188V12.9366C16.7188 12.0665 17.145 11.2188 18.5114 11.2188H19.8984V8.51172C19.8984 8.51172 18.6395 8.29688 17.4359 8.29688C14.9235 8.29688 13.2812 9.81969 13.2812 12.5766V15H10.4883V18.1797H13.2812V25.8664C8.02273 25.0414 4 20.4905 4 15C4 8.92508 8.92508 4 15 4C21.0749 4 26 8.92508 26 15Z" fill="#1877F2"/>
<path d="M19.2818 18.1797L19.7695 15H16.7188V12.9366C16.7188 12.0667 17.1449 11.2188 18.5114 11.2188H19.8984V8.51172C19.8984 8.51172 18.6396 8.29688 17.4361 8.29688C14.9235 8.29688 13.2812 9.81969 13.2812 12.5766V15H10.4883V18.1797H13.2812V25.8663C13.8413 25.9542 14.4153 26 15 26C15.5847 26 16.1587 25.9542 16.7188 25.8663V18.1797H19.2818Z" fill="white"/>
</svg>
