<svg width="200" height="200" viewBox="0 0 200 200" fill="none" xmlns="http://www.w3.org/2000/svg">
<rect x="2.5" y="2.5" width="195" height="195" rx="97.5" fill="#020D3A"/>
<rect x="2.5" y="2.5" width="195" height="195" rx="97.5" stroke="black" stroke-width="5"/>
<path d="M160.571 100C160.571 130.234 138.419 155.293 109.463 159.836V117.509H123.577L126.263 100H109.463V88.6381C109.463 83.8468 111.811 79.1786 119.335 79.1786H126.972V64.2723C126.972 64.2723 120.04 63.0893 113.412 63.0893C99.578 63.0893 90.5349 71.4746 90.5349 86.6554V100H75.1554V117.509H90.5349V159.836C61.5789 155.293 39.4277 130.234 39.4277 100C39.4277 66.5485 66.5476 39.4286 99.9992 39.4286C133.451 39.4286 160.571 66.5485 160.571 100Z" fill="#1877F2"/>
<path d="M123.578 117.509L126.263 100H109.464V88.6379C109.464 83.8478 111.811 79.1786 119.335 79.1786H126.973V64.2723C126.973 64.2723 120.042 63.0893 113.414 63.0893C99.5786 63.0893 90.5357 71.4746 90.5357 86.6554V100H75.1562V117.509H90.5357V159.835C93.6197 160.319 96.7802 160.571 100 160.571C103.22 160.571 106.38 160.319 109.464 159.835V117.509H123.578Z" fill="white"/>
</svg>
