<svg width="26" height="25" viewBox="0 0 26 25" fill="none" xmlns="http://www.w3.org/2000/svg">
<path d="M23.418 13.5415C23.1417 13.5415 22.8768 13.6513 22.6814 13.8466C22.486 14.042 22.3763 14.3069 22.3763 14.5832V18.9717C22.3755 19.7414 22.0693 20.4794 21.5251 21.0236C20.9808 21.5679 20.2429 21.874 19.4732 21.8748H6.52943C5.75973 21.874 5.02178 21.5679 4.47752 21.0236C3.93326 20.4794 3.62713 19.7414 3.6263 18.9717V14.5832C3.6263 14.3069 3.51656 14.042 3.32121 13.8466C3.12585 13.6513 2.8609 13.5415 2.58464 13.5415C2.30837 13.5415 2.04342 13.6513 1.84807 13.8466C1.65272 14.042 1.54297 14.3069 1.54297 14.5832V18.9717C1.54435 20.2938 2.07015 21.5613 3.00499 22.4961C3.93984 23.431 5.20736 23.9568 6.52943 23.9582H19.4732C20.7952 23.9568 22.0628 23.431 22.9976 22.4961C23.9325 21.5613 24.4583 20.2938 24.4596 18.9717V14.5832C24.4596 14.3069 24.3499 14.042 24.1545 13.8466C23.9592 13.6513 23.6942 13.5415 23.418 13.5415Z" fill="white"/>
<path d="M7.48798 9.06989L11.9599 4.59802V17.7084C11.9599 17.9847 12.0696 18.2497 12.265 18.445C12.4603 18.6404 12.7253 18.7501 13.0015 18.7501C13.2778 18.7501 13.5427 18.6404 13.7381 18.445C13.9334 18.2497 14.0432 17.9847 14.0432 17.7084V4.59802L18.5151 9.06989C18.7115 9.25964 18.9747 9.36464 19.2478 9.36226C19.5209 9.35989 19.7822 9.25034 19.9753 9.05721C20.1684 8.86407 20.278 8.60281 20.2804 8.32969C20.2827 8.05657 20.1777 7.79344 19.988 7.59698L13.738 1.34698C13.5426 1.1517 13.2777 1.04199 13.0015 1.04199C12.7253 1.04199 12.4604 1.1517 12.2651 1.34698L6.01506 7.59698C5.82532 7.79344 5.72032 8.05657 5.7227 8.32969C5.72507 8.60281 5.83462 8.86407 6.02775 9.05721C6.22089 9.25034 6.48215 9.35989 6.75527 9.36226C7.02839 9.36464 7.29152 9.25964 7.48798 9.06989Z" fill="white"/>
</svg>
