<svg width="24" height="24" viewBox="0 0 40 41" fill="none" xmlns="http://www.w3.org/2000/svg">
<path fill-rule="evenodd" clip-rule="evenodd" d="M34.1667 12.1668H5.83333C5.3731 12.1668 5 11.7937 5 11.3335V9.66683C5 9.2066 5.3731 8.8335 5.83333 8.8335H34.1667C34.6268 8.8335 35 9.2066 35 9.66683V11.3335C35 11.7937 34.6268 12.1668 34.1667 12.1668ZM30 21.3335V19.6668C30 19.2067 29.6268 18.8335 29.1667 18.8335H10.8333C10.3731 18.8335 10 19.2067 10 19.6668V21.3335C10 21.7937 10.3731 22.1668 10.8333 22.1668H29.1667C29.6268 22.1668 30 21.7937 30 21.3335ZM25 29.6668V31.3335C25 31.7937 24.6268 32.1668 24.1667 32.1668H15.8333C15.3731 32.1668 15 31.7937 15 31.3335V29.6668C15 29.2067 15.3731 28.8335 15.8333 28.8335H24.1667C24.6268 28.8335 25 29.2067 25 29.6668Z" fill="#020D3A"/>
</svg>
