<svg width="530" height="138" viewBox="0 0 530 138" fill="none" xmlns="http://www.w3.org/2000/svg">
<g clip-path="url(#clip0_115_4368)">
<path d="M70.1507 138C108.894 138 140.301 107.108 140.301 69C140.301 30.8923 108.894 0 70.1507 0C31.4075 0 0 30.8923 0 69C0 107.108 31.4075 138 70.1507 138Z" fill="#20E086"/>
<path d="M62.3313 110.651C57.1631 110.651 52.9321 109.439 49.7008 107.025C46.9783 104.988 45.4162 102.424 44.5236 100.168C43.7738 98.7194 43.2739 97.0601 43.0686 95.2251C42.9526 94.1803 42.9705 93.1267 43.0508 92.0819L46.6123 45.0313H36.865L33.839 91.7132C32.866 103.496 40.1409 113.259 51.1379 114.944C52.209 115.102 53.2891 115.181 54.3513 115.181C57.0292 115.181 59.6356 114.681 62.1171 113.68L62.4027 113.575C64.3754 112.741 66.2142 111.617 67.8477 110.238C65.9018 110.519 64.0719 110.651 62.3402 110.651H62.3313ZM109.453 63.4512C109.149 60.3783 108.105 57.3493 106.427 54.6978C105.855 53.7847 105.213 52.9243 104.525 52.1429C103.99 51.5283 103.383 50.9225 102.651 50.2728L101.874 49.588L102.615 48.8505C105.73 45.7161 107.551 41.6511 107.748 37.3929C107.953 32.924 106.373 28.7361 103.311 25.5754C100.241 22.4235 96.0633 20.6938 91.5377 20.6938C82.1295 20.6938 74.1317 28.2269 73.7122 37.4895C73.5426 41.2297 74.6137 44.7767 76.8185 47.7355L77.4076 48.5169L76.631 49.1139C71.7038 52.854 68.5886 58.7979 68.0976 65.3915L67.6424 70.2906H57.4933L56.8239 78.2275H66.9015L65.3126 95.3392C65.2502 96.0416 65.1341 96.7352 64.9824 97.4112L64.7682 98.1136C63.3132 102.89 59.109 106.094 54.3245 106.094C53.9496 106.094 53.5658 106.077 53.182 106.033C57.4487 108.263 63.4024 108.588 70.954 106.981C74.5869 102.126 74.9708 96.1645 75.3724 89.8431C75.4439 88.7632 75.5063 87.6745 75.5956 86.6034L76.2829 78.2275H87.3246L87.994 70.2906H76.9345L77.363 65.1369C78.443 58.5521 82.8615 54.2412 88.726 54.1447C89.1277 54.171 89.5293 54.1973 89.931 54.1973H90.0292C95.0457 54.7241 98.8929 58.5345 99.6248 63.6795L99.7319 64.4345H109.551L109.461 63.46L109.453 63.4512ZM90.4309 45.0225C88.3689 45.0225 86.4498 44.2236 85.0573 42.7837C83.647 41.335 82.924 39.421 83.0132 37.3929C83.2007 33.2313 86.7979 29.8423 91.0379 29.8423C93.0998 29.8423 95.0189 30.6413 96.4114 32.0724C97.8217 33.5211 98.5448 35.4438 98.4555 37.4719C98.2681 41.6335 94.6619 45.0225 90.4309 45.0225Z" fill="#020D3A"/>
<path d="M192.52 94.7684L195.34 61.5195H203.758L200.946 94.7684" fill="white"/>
<path d="M200.857 45.2417C203.945 45.2417 206.15 47.3927 205.909 50.2286C205.668 53.0645 203.097 55.2155 200.018 55.2155C196.938 55.2155 194.885 52.8625 195.108 50.2286C195.332 47.5947 197.777 45.2417 200.866 45.2417H200.857Z" fill="#20E086"/>
<path d="M209.577 61.5196H217.575L217.12 66.8577H217.263C219.084 63.5302 222.484 60.6943 228.099 60.6943C237.15 60.6943 239.846 66.9982 239.275 73.7849L237.498 94.7773H229.081L230.509 77.9465C230.821 74.2766 231.054 68.1747 225.162 68.1747C219.619 68.1747 217.102 72.1958 216.727 76.6296L215.192 94.7773H206.774L209.586 61.5284L209.577 61.5196Z" fill="white"/>
<path d="M270.686 68.9998L278.05 61.9321H267.249L253.53 75.3036L256.181 43.96H247.754L243.461 94.7683H251.878L253.315 77.7883H253.449L265.428 94.7683H276.577L262.75 76.6206L270.686 68.991V68.9998Z" fill="white"/>
<path d="M355.672 94.7684H347.674L348.13 89.4303H347.987C346.166 92.7578 342.765 95.5937 337.15 95.5937C328.099 95.5937 325.404 89.2899 325.975 82.5031L327.751 61.5107H336.168L334.74 78.3415C334.428 82.0114 334.196 88.1134 340.087 88.1134C345.63 88.1134 348.147 84.0922 348.522 79.6585L350.058 61.5107H358.475L355.663 94.7596L355.672 94.7684Z" fill="white"/>
<path d="M369.981 81.0546C370.123 85.9712 373.667 88.9475 378.362 88.9475C382.575 88.9475 385.476 87.0072 387.797 84.4435L393.448 88.9475C389.109 93.7237 383.977 95.5938 378.639 95.5938C368.463 95.5938 360.921 88.5963 361.804 78.1397C362.688 67.683 371.418 60.6855 381.594 60.6855C390.993 60.6855 396.831 67.2001 395.849 78.763L395.652 81.0458H369.972L369.981 81.0546ZM387.77 74.8209C388.11 69.9745 385.137 66.9279 379.88 66.9279C374.899 66.9279 371.543 70.0448 370.507 74.8209H387.77Z" fill="white"/>
<path d="M402.463 61.5196H410.461L410.006 66.8577H410.148C411.969 63.5302 415.37 60.6943 420.985 60.6943C430.036 60.6943 432.732 66.9982 432.16 73.7849L430.384 94.7773H421.967L423.395 77.9465C423.707 74.2766 423.939 68.1747 418.048 68.1747C412.505 68.1747 409.988 72.1958 409.613 76.6296L408.078 94.7773H399.66L402.472 61.5284L402.463 61.5196Z" fill="white"/>
<path d="M461.867 71.4934C460.072 69.4829 458.01 68.1659 455.761 68.1659C449.584 68.1659 445.46 72.9421 445.023 78.1397C444.586 83.3373 447.897 88.1135 454.074 88.1135C456.672 88.1135 459.153 87.0072 460.867 84.9967L465.973 90.9581C462.25 94.3559 456.386 95.6026 453.44 95.6026C443.264 95.6026 435.722 88.6051 436.606 78.1485C437.489 67.6918 446.219 60.6943 456.395 60.6943C460.679 60.6943 465.25 62.222 468.177 65.7515L461.867 71.5022V71.4934Z" fill="white"/>
<path d="M476.425 81.0546C476.568 85.9712 480.111 88.9475 484.807 88.9475C489.02 88.9475 491.921 87.0072 494.242 84.4435L499.892 88.9475C495.554 93.7237 490.421 95.5938 485.083 95.5938C474.907 95.5938 467.365 88.5963 468.249 78.1397C469.132 67.683 477.862 60.6855 488.038 60.6855C497.437 60.6855 503.275 67.2001 502.293 78.763L502.097 81.0458H476.416L476.425 81.0546ZM494.215 74.8209C494.554 69.9745 491.582 66.9279 486.324 66.9279C481.343 66.9279 477.987 70.0448 476.952 74.8209H494.215Z" fill="white"/>
<path d="M508.434 61.5196H516.852L516.406 66.7875H516.548C518.7 62.9771 522.609 60.6943 527.028 60.6943C528.081 60.6943 529.045 60.9051 530 61.1772L529.322 69.2107C527.947 68.8683 526.635 68.5873 525.305 68.5873C517.378 68.5873 515.7 75.1721 515.54 76.972L514.031 94.7773H505.614L508.426 61.5284L508.434 61.5196Z" fill="white"/>
<path d="M278.05 61.9321L270.686 68.9998H268.222L268.82 61.9321H278.05Z" fill="white"/>
<path d="M300.874 61.9321L300.285 68.9998H279.353L280.603 61.9321H300.874Z" fill="white"/>
<path d="M325.359 94.7947C323.243 95.2249 321.056 95.2073 318.959 94.7683C317.272 94.4172 315.638 93.8026 314.148 92.9246H314.139C311.871 91.5989 309.908 89.6937 308.542 87.2529C307.31 85.0228 306.819 82.4943 306.819 79.9657L308.578 59.1928V59.1665C308.56 55.1278 305.614 51.853 301.526 51.853C297.438 51.853 294.367 54.8644 294.091 58.6485L291.145 94.7683H282.728L286.057 58.6485C286.352 50.5009 293.171 43.9688 301.517 43.9688C304.498 43.9688 307.292 44.8116 309.667 46.2515C311.015 47.0768 312.22 48.104 313.246 49.2717C313.773 49.8775 314.246 50.5097 314.665 51.1857C315.96 53.2402 316.79 55.6195 316.959 58.1656C316.977 58.508 316.995 58.8416 316.995 59.1928L315.237 79.9745C315.237 84.1097 318.423 86.9983 321.913 87.2441C322.369 90.2468 323.52 92.7929 325.341 94.7771L325.368 94.8035L325.359 94.7947Z" fill="white"/>
<path d="M166.366 86.8666L170.043 43.96H161.206L156.859 94.7596H186.825L187.485 86.8666H166.366Z" fill="white"/>
</g>
<defs>
<clipPath id="clip0_115_4368">
<rect width="530" height="138" fill="white"/>
</clipPath>
</defs>
</svg>
