<svg width="200" height="200" viewBox="0 0 200 200" fill="none" xmlns="http://www.w3.org/2000/svg">
<rect width="200" height="200" rx="100" fill="#FFFFF6"/>
<g clip-path="url(#clip0_186_5387)">
<path d="M66.5043 113.001L62.2994 128.698L46.9306 129.023C42.3376 120.504 39.7324 110.758 39.7324 100.4C39.7324 90.3842 42.1682 80.9392 46.4859 72.6226H46.4892L60.1717 75.1311L66.1654 88.7315C64.911 92.3887 64.2272 96.3147 64.2272 100.4C64.2277 104.834 65.0308 109.082 66.5043 113.001Z" fill="#FBBB00"/>
<path d="M159.478 89.1165C160.171 92.7703 160.533 96.5436 160.533 100.4C160.533 104.724 160.078 108.942 159.212 113.011C156.272 126.857 148.589 138.947 137.946 147.502L137.943 147.499L120.709 146.619L118.27 131.393C125.332 127.252 130.851 120.77 133.758 113.011H101.461V89.1165H134.23H159.478Z" fill="#518EF8"/>
<path d="M137.941 147.499L137.944 147.502C127.594 155.822 114.445 160.8 100.131 160.8C77.1297 160.8 57.1314 147.944 46.9297 129.024L66.5033 113.001C71.604 126.614 84.7361 136.305 100.131 136.305C106.749 136.305 112.948 134.516 118.268 131.393L137.941 147.499Z" fill="#28B446"/>
<path d="M138.686 53.9052L119.119 69.9244C113.613 66.483 107.105 64.495 100.133 64.495C84.389 64.495 71.0113 74.6302 66.1661 88.7315L46.4896 72.6226H46.4863C56.5387 53.2415 76.7892 40 100.133 40C114.788 40 128.225 45.2204 138.686 53.9052Z" fill="#F14336"/>
</g>
<defs>
<clipPath id="clip0_186_5387">
<rect width="120.8" height="120.8" fill="white" transform="translate(39.7324 40)"/>
</clipPath>
</defs>
</svg>
