<svg width="31" height="31" viewBox="0 0 31 31" fill="none" xmlns="http://www.w3.org/2000/svg">
<path d="M26.75 15.2375C26.75 20.425 23.9875 26.75 15.6625 26.75C9.40576 26.7915 4.29815 21.7566 4.25 15.5C4.29815 9.24326 9.40576 4.20838 15.6625 4.24995C18.2509 4.25955 20.7606 5.14016 22.7875 6.74995C22.9275 6.86436 23.0136 7.03196 23.025 7.21245C23.0258 7.39506 22.9538 7.57046 22.825 7.69995C22.0113 8.44395 21.2353 9.22826 20.5 10.0499C20.2861 10.2853 19.9278 10.3179 19.675 10.125C18.5201 9.2703 17.111 8.82993 15.675 8.87495C11.9816 8.87495 8.9875 11.869 8.9875 15.5625C8.9875 19.2559 11.9816 22.25 15.675 22.25C19.425 22.25 21.0125 20.65 21.8375 17.8125H16.125C15.7799 17.8125 15.5 17.5326 15.5 17.1875V13.875C15.5 13.5297 15.7799 13.25 16.125 13.25H26.125C26.4128 13.2481 26.6555 13.4639 26.6875 13.75C26.7339 14.2444 26.7547 14.7409 26.75 15.2375Z" fill="white"/>
</svg>
