<svg width="32" height="32" viewBox="0 0 32 32" fill="none" xmlns="http://www.w3.org/2000/svg">
<path opacity="0.2" d="M25 19.1076L20.4004 23.7072C20.2783 23.8294 20.1266 23.9178 19.9602 23.9639C19.7938 24.0099 19.6182 24.0122 19.4507 23.9703L12.2061 22.1591C12.0702 22.1252 11.943 22.063 11.8326 21.9767L5 16.6339L9.0718 8.97363L15.4868 7.10344C15.716 7.03664 15.9614 7.054 16.1789 7.1524L20.5 9.1076H17.9142C17.7829 9.1076 17.6529 9.13347 17.5315 9.18372C17.4102 9.23398 17.3 9.30764 17.2071 9.4005L12.3153 14.2923C12.214 14.3936 12.1356 14.5155 12.0855 14.6497C12.0354 14.784 12.0148 14.9274 12.0249 15.0703C12.0351 15.2132 12.0758 15.3523 12.1444 15.4781C12.213 15.6039 12.3078 15.7134 12.4224 15.7994L13.1 16.3076C13.7924 16.8269 14.6345 17.1076 15.5 17.1076C16.3655 17.1076 17.2076 16.8269 17.9 16.3076L19.5 15.1076L25 19.1076Z" fill="#20E086"/>
<path d="M30.0897 15.223L27 16.7678L23 9.10756L26.1212 7.54698C26.3557 7.42973 26.6268 7.40926 26.8763 7.48998C27.1257 7.5707 27.3335 7.74614 27.4548 7.97854L30.5289 13.8657C30.5904 13.9834 30.6278 14.1122 30.639 14.2445C30.6501 14.3768 30.6348 14.5101 30.5939 14.6364C30.553 14.7628 30.4874 14.8797 30.4008 14.9804C30.3143 15.0811 30.2085 15.1636 30.0897 15.223V15.223Z" stroke="#20E086" stroke-width="1.5" stroke-linecap="round" stroke-linejoin="round"/>
<path d="M5.00187 16.634L1.91216 15.0892C1.79338 15.0298 1.68762 14.9473 1.60105 14.8466C1.51448 14.7459 1.44883 14.629 1.40795 14.5026C1.36706 14.3763 1.35175 14.243 1.36291 14.1107C1.37407 13.9784 1.41148 13.8496 1.47295 13.7319L4.54707 7.84475C4.66842 7.61236 4.87618 7.43691 5.12562 7.35619C5.37505 7.27548 5.64621 7.29594 5.88071 7.41319L9.00187 8.97377L5.00187 16.634Z" stroke="#20E086" stroke-width="1.5" stroke-linecap="round" stroke-linejoin="round"/>
<path d="M27 16.7678L25 19.1075L20.4004 23.7072C20.2783 23.8293 20.1266 23.9177 19.9602 23.9638C19.7938 24.0099 19.6182 24.0121 19.4507 23.9702L12.2061 22.159C12.0702 22.1251 11.943 22.0629 11.8326 21.9766L5 16.6338" stroke="#20E086" stroke-width="1.5" stroke-linecap="round" stroke-linejoin="round"/>
<path d="M25.001 19.1074L19.501 15.1074L17.901 16.3074C17.2086 16.8267 16.3665 17.1074 15.501 17.1074C14.6355 17.1074 13.7934 16.8267 13.101 16.3074L12.4234 15.7992C12.3088 15.7133 12.214 15.6037 12.1454 15.4779C12.0769 15.3521 12.0361 15.213 12.026 15.0701C12.0158 14.9272 12.0365 14.7838 12.0866 14.6496C12.1367 14.5153 12.215 14.3934 12.3163 14.2921L17.2081 9.40032C17.301 9.30746 17.4112 9.2338 17.5326 9.18354C17.6539 9.13329 17.7839 9.10742 17.9152 9.10742H23.001" stroke="#20E086" stroke-width="1.5" stroke-linecap="round" stroke-linejoin="round"/>
<path d="M9.07031 8.97363L15.4853 7.10344C15.7145 7.03664 15.96 7.054 16.1774 7.1524L20.4985 9.10761" stroke="#20E086" stroke-width="1.5" stroke-linecap="round" stroke-linejoin="round"/>
<path d="M14 26.6077L10.2326 25.6658C10.0797 25.6276 9.938 25.5538 9.81907 25.4504L7 23" stroke="#20E086" stroke-width="1.5" stroke-linecap="round" stroke-linejoin="round"/>
</svg>
