<svg width="25" height="25" viewBox="0 0 25 25" fill="none" xmlns="http://www.w3.org/2000/svg">
<path d="M21.0938 21.0934V11.2827C21.0938 11.1739 21.071 11.0662 21.027 10.9667C20.9829 10.8671 20.9186 10.7779 20.838 10.7047L13.025 3.60162C12.8812 3.47087 12.6938 3.39843 12.4994 3.39844C12.3051 3.39844 12.1177 3.4709 11.9739 3.60165L4.16192 10.7047C4.08139 10.7779 4.01705 10.8671 3.97302 10.9667C3.92899 11.0662 3.90625 11.1739 3.90625 11.2827V21.0934" stroke="#020D3A" stroke-width="1.25" stroke-linecap="round" stroke-linejoin="round"/>
<path d="M1.5625 21.0938H23.4375" stroke="#020D3A" stroke-width="1.25" stroke-linecap="round" stroke-linejoin="round"/>
<path d="M14.8398 21.0928V15.624C14.8398 15.4168 14.7575 15.2181 14.611 15.0716C14.4645 14.9251 14.2658 14.8428 14.0586 14.8428H10.9336C10.7264 14.8428 10.5277 14.9251 10.3812 15.0716C10.2347 15.2181 10.1523 15.4168 10.1523 15.624V21.0928" stroke="#020D3A" stroke-width="1.25" stroke-linecap="round" stroke-linejoin="round"/>
</svg>
