<svg width="544" height="400" viewBox="0 0 544 400" fill="none" xmlns="http://www.w3.org/2000/svg">
<path d="M378.623 165.748L372.653 145.626L318.389 140.757L314.828 167.92C314.828 167.92 370.439 179.671 378.621 165.748H378.623Z" fill="white"/>
<path d="M354.987 173.024C337.166 173.024 316.147 168.651 314.737 168.354C314.511 168.307 314.36 168.093 314.389 167.862L317.95 140.7C317.982 140.464 318.198 140.297 318.428 140.316L372.692 145.185C372.873 145.201 373.026 145.327 373.077 145.5L379.047 165.622C379.083 165.74 379.067 165.866 379.004 165.972C375.848 171.342 366.032 173.022 354.987 173.022V173.024ZM315.321 167.569C320.33 168.584 370.248 178.322 378.143 165.687L372.314 146.041L318.774 141.237L315.321 167.569Z" fill="#020D3A"/>
<path d="M274.34 91.3028L282.074 97.1217C281.138 100.851 280.519 104.609 280.228 108.36L271.07 111.421C266.54 112.936 263.663 117.389 264.143 122.144C264.623 126.899 268.331 130.687 273.074 131.264L282.686 132.434C283.734 136.085 285.081 139.642 286.717 143.071L280.298 150.322C277.131 153.9 276.865 159.195 279.657 163.073C282.45 166.95 287.554 168.376 291.951 166.503L300.835 162.721C303.541 165.337 306.494 167.737 309.666 169.909L307.733 179.394C306.779 184.076 309.196 188.797 313.552 190.758C317.907 192.72 323.041 191.4 325.912 187.582L331.729 179.845C335.457 180.781 339.212 181.401 342.962 181.692L346.022 190.853C347.536 195.385 351.988 198.263 356.741 197.783C361.493 197.303 365.28 193.593 365.857 188.848L367.027 179.235C370.676 178.186 374.233 176.837 377.659 175.2L384.907 181.621C388.483 184.788 393.777 185.056 397.653 182.262C401.528 179.469 402.954 174.362 401.082 169.964L397.301 161.076C399.916 158.371 402.315 155.415 404.486 152.241L413.967 154.175C418.649 155.129 423.367 152.712 425.327 148.354C427.288 143.997 425.968 138.861 422.151 135.989L414.418 130.17C415.354 126.44 415.973 122.683 416.264 118.932L425.421 115.871C429.952 114.356 432.829 109.902 432.349 105.148C431.869 100.393 428.161 96.6043 423.418 96.0279L413.808 94.8575C412.76 91.2064 411.411 87.6498 409.775 84.221L416.193 76.9701C419.359 73.3918 419.627 68.0962 416.834 64.2189C414.042 60.3417 408.938 58.9155 404.541 60.7882L395.657 64.5711C392.951 61.9567 389.998 59.5548 386.826 57.3831L388.759 47.8974C389.712 43.2156 387.296 38.4964 382.94 36.5331C378.585 34.5719 373.451 35.8918 370.58 39.7101L364.763 47.4469C361.035 46.5106 357.279 45.8909 353.53 45.5998L350.47 36.4387C348.956 31.9064 344.504 29.0284 339.751 29.5084C334.999 29.9884 331.211 33.6984 330.635 38.4432L329.465 48.0587C325.816 49.1072 322.261 50.4547 318.833 52.0914L311.585 45.6706C308.008 42.5035 302.715 42.2359 298.839 45.0293C294.964 47.8227 293.538 52.9294 295.41 57.328L299.191 66.2156C296.576 68.9224 294.177 71.8771 292.006 75.0501L282.524 73.1164C277.844 72.1623 273.125 74.58 271.165 78.9372C269.204 83.2945 270.524 88.4308 274.34 91.3028ZM298.79 91.3776C311.084 64.0517 343.194 51.8691 370.509 64.1698C397.824 76.4684 410.001 108.592 397.706 135.918C385.412 163.244 353.301 175.424 325.987 163.126C298.672 150.827 286.496 118.703 298.79 91.3776Z" fill="white"/>
<path d="M355.688 198.283C351.13 198.283 347.077 195.407 345.605 190.997L342.637 182.113C339.08 181.82 335.474 181.228 331.909 180.348L326.267 187.851C323.251 191.864 317.948 193.227 313.37 191.166C308.792 189.104 306.297 184.229 307.3 179.31L309.174 170.111C306.153 168.024 303.318 165.717 300.74 163.246L292.126 166.915C287.509 168.882 282.235 167.408 279.301 163.334C276.367 159.26 276.642 153.79 279.97 150.03L286.193 142.998C284.649 139.728 283.356 136.313 282.343 132.839L273.022 131.704C268.04 131.096 264.209 127.184 263.704 122.189C263.2 117.193 266.172 112.591 270.932 111.002L279.812 108.033C280.103 104.475 280.697 100.865 281.576 97.2987L274.076 91.6569C270.065 88.6392 268.702 83.3338 270.761 78.7543C272.822 74.1747 277.692 71.6784 282.612 72.6816L291.807 74.5563C293.891 71.5348 296.198 68.6981 298.67 66.1192L295.002 57.5011C293.036 52.8822 294.509 47.6043 298.581 44.6693C302.651 41.7343 308.122 42.0097 311.88 45.3381L318.909 51.5642C322.179 50.02 325.591 48.7256 329.062 47.7125L330.196 38.3881C330.804 33.4034 334.715 29.5713 339.707 29.0658C344.7 28.5602 349.299 31.5345 350.89 36.297L353.857 45.1807C357.418 45.4738 361.027 46.0679 364.588 46.9453L370.227 39.4425C373.244 35.4295 378.549 34.0663 383.123 36.1279C387.7 38.1895 390.196 43.0641 389.193 47.9839L387.319 57.1824C390.337 59.2676 393.171 61.5751 395.753 64.0478L404.367 60.379C408.984 58.4138 414.26 59.8853 417.194 63.9593C420.127 68.0332 419.852 73.5039 416.525 77.2632L410.302 84.2958C411.845 87.5671 413.139 90.9821 414.152 94.4522L423.47 95.5872C428.451 96.1951 432.283 100.108 432.789 105.102C433.292 110.099 430.321 114.698 425.561 116.29L416.68 119.258C416.387 122.819 415.796 126.426 414.917 129.993L422.416 135.635C426.428 138.652 427.79 143.958 425.732 148.537C423.671 153.115 418.798 155.613 413.88 154.61L404.686 152.735C402.599 155.759 400.291 158.595 397.823 161.172L401.49 169.791C403.457 174.409 401.984 179.687 397.912 182.62C393.839 185.555 388.369 185.28 384.613 181.952L377.583 175.725C374.315 177.27 370.902 178.564 367.431 179.577L366.296 188.901C365.689 193.886 361.778 197.718 356.785 198.224C356.416 198.261 356.05 198.279 355.686 198.279L355.688 198.283ZM331.73 179.406C331.765 179.406 331.801 179.41 331.838 179.42C335.545 180.35 339.3 180.968 342.999 181.253C343.176 181.267 343.329 181.385 343.384 181.554L346.444 190.715C347.903 195.082 352.115 197.809 356.699 197.347C361.278 196.884 364.865 193.369 365.421 188.799L366.591 179.186C366.613 179.009 366.737 178.863 366.908 178.814C370.524 177.775 374.079 176.428 377.471 174.807C377.631 174.73 377.823 174.758 377.955 174.876L385.203 181.296C388.648 184.349 393.664 184.599 397.396 181.91C401.13 179.219 402.479 174.382 400.678 170.145L396.897 161.257C396.828 161.094 396.862 160.903 396.985 160.775C399.563 158.108 401.964 155.155 404.123 151.998C404.224 151.85 404.403 151.777 404.578 151.815L414.061 153.748C418.57 154.669 423.038 152.377 424.927 148.179C426.817 143.981 425.566 139.117 421.889 136.349L414.156 130.53C414.012 130.424 413.949 130.241 413.992 130.068C414.923 126.362 415.538 122.604 415.825 118.902C415.839 118.725 415.957 118.574 416.126 118.516L425.283 115.456C429.649 113.996 432.374 109.778 431.912 105.197C431.45 100.615 427.936 97.0272 423.368 96.4705L413.758 95.3C413.581 95.2784 413.436 95.1545 413.387 94.9833C412.349 91.3677 411.002 87.813 409.381 84.4158C409.305 84.2544 409.332 84.0636 409.45 83.9318L415.868 76.6789C418.918 73.2324 419.17 68.2162 416.482 64.4806C413.792 60.7449 408.955 59.3954 404.721 61.1974L395.837 64.9802C395.674 65.0491 395.483 65.0156 395.355 64.8917C392.685 62.3108 389.733 59.9069 386.583 57.7509C386.436 57.6506 386.363 57.4716 386.401 57.2965L388.333 47.8108C389.252 43.3001 386.963 38.8288 382.767 36.9403C378.569 35.0499 373.708 36.301 370.941 39.9796L365.125 47.7164C365.018 47.858 364.837 47.923 364.662 47.8797C360.96 46.9492 357.204 46.3335 353.501 46.0443C353.324 46.0306 353.171 45.9125 353.116 45.7433L350.056 36.5823C348.597 32.2152 344.379 29.4907 339.802 29.951C335.224 30.4133 331.637 33.9286 331.081 38.4983L329.911 48.1138C329.889 48.2908 329.766 48.4364 329.594 48.4856C325.98 49.5242 322.425 50.8717 319.031 52.4927C318.872 52.5694 318.679 52.5419 318.547 52.4238L311.299 46.003C307.854 42.9519 302.838 42.6982 299.106 45.3893C295.372 48.0803 294.021 52.9176 295.824 57.1548L299.606 66.0425C299.674 66.2057 299.641 66.3966 299.517 66.5244C296.937 69.1939 294.536 72.1466 292.379 75.3019C292.279 75.4494 292.102 75.5222 291.925 75.4848L282.443 73.5511C277.934 72.6305 273.467 74.9222 271.577 79.1202C269.687 83.3181 270.938 88.1829 274.615 90.9507L282.349 96.7695C282.492 96.8757 282.555 97.0587 282.512 97.2318C281.582 100.94 280.964 104.697 280.679 108.397C280.666 108.574 280.548 108.728 280.378 108.783L271.221 111.844C266.856 113.304 264.13 117.521 264.593 122.103C265.055 126.684 268.569 130.272 273.136 130.829L282.748 131.999C282.925 132.021 283.07 132.145 283.12 132.316C284.158 135.934 285.505 139.49 287.125 142.884C287.202 143.045 287.174 143.236 287.056 143.368L280.638 150.619C277.588 154.065 277.335 159.081 280.025 162.817C282.715 166.553 287.55 167.902 291.785 166.1L300.669 162.317C300.833 162.248 301.023 162.282 301.151 162.406C303.819 164.985 306.771 167.389 309.925 169.547C310.072 169.647 310.145 169.826 310.108 170.001L308.175 179.487C307.257 183.997 309.545 188.469 313.742 190.357C317.938 192.248 322.801 190.997 325.567 187.318L331.384 179.581C331.468 179.469 331.6 179.404 331.738 179.404L331.73 179.406ZM348.167 168.349C340.673 168.349 333.069 166.802 325.805 163.531C298.312 151.152 286.012 118.701 298.386 91.1966C304.382 77.873 315.203 67.6811 328.861 62.4996C342.517 57.3181 357.373 57.7686 370.691 63.7645C398.185 76.1438 410.484 108.594 398.11 136.099C389.004 156.337 369.034 168.345 348.169 168.347L348.167 168.349ZM348.269 59.8026C341.829 59.8026 335.376 60.9751 329.172 63.3278C315.736 68.4247 305.09 78.4513 299.193 91.5585C287.019 118.619 299.118 150.542 326.167 162.721C353.218 174.899 385.126 162.795 397.3 135.735C409.474 108.675 397.375 76.7517 370.326 64.573C363.272 61.396 355.778 59.8026 348.269 59.8026Z" fill="#020D3A"/>
<path d="M278.068 127.985C278.068 127.985 271.998 128.209 264.494 128.18C262.915 128.174 258.682 123.104 255.962 123.964C254.009 124.582 257.702 127.906 257.195 127.904C252.385 127.885 248.234 127.867 246.73 127.859C245.552 127.853 245.157 129.059 245.645 130.133C246.343 131.668 247.865 133.993 250.382 134.803C254.881 136.253 263.564 135.6 266.25 135.079C272.12 133.938 276.776 133.851 276.776 133.851L278.07 127.985H278.068Z" fill="white"/>
<path d="M258.147 136.133C255.299 136.133 252.35 135.903 250.244 135.224C247.31 134.278 245.766 131.477 245.239 130.316C244.897 129.563 244.917 128.733 245.292 128.152C245.603 127.674 246.128 127.411 246.73 127.415C248.155 127.422 251.956 127.44 256.444 127.458C256.424 127.432 256.404 127.409 256.387 127.383C255.679 126.472 254.709 125.223 254.996 124.303C255.075 124.049 255.284 123.71 255.828 123.539C257.704 122.947 260.06 124.729 261.951 126.162C262.925 126.897 264.026 127.733 264.494 127.735C271.903 127.763 277.989 127.542 278.05 127.54C278.188 127.535 278.317 127.594 278.406 127.7C278.494 127.804 278.528 127.946 278.498 128.079L277.204 133.946C277.161 134.146 276.984 134.29 276.78 134.294C276.733 134.294 272.09 134.394 266.331 135.511C264.856 135.799 261.576 136.131 258.145 136.131L258.147 136.133ZM246.718 128.302C246.409 128.302 246.179 128.414 246.036 128.634C245.825 128.959 245.829 129.474 246.046 129.948C246.525 131.003 247.92 133.542 250.515 134.38C254.941 135.807 263.613 135.138 266.163 134.642C271.091 133.684 275.218 133.464 276.414 133.418L277.509 128.447C275.824 128.5 270.607 128.648 264.488 128.622C263.725 128.619 262.705 127.847 261.415 126.87C259.684 125.56 257.531 123.931 256.092 124.385C255.873 124.454 255.848 124.539 255.838 124.568C255.689 125.046 256.666 126.303 257.083 126.84C257.598 127.505 257.793 127.753 257.631 128.079C257.551 128.245 257.382 128.347 257.191 128.347H257.189C252.379 128.327 248.226 128.31 246.724 128.302H246.716H246.718Z" fill="#020D3A"/>
<path d="M319.179 75.8894C326.984 74.4907 343.739 73.4186 355.461 74.3983C359.051 74.6973 362.455 76.1078 365.21 78.4329C373.284 85.255 391.626 101.472 392.922 121.482C392.996 122.623 392.487 123.727 391.59 124.439L391.435 123.569C387.021 127.085 381.389 127.752 377.13 124.051L373.333 121.258C373.333 121.258 379.855 144.64 379.411 148.397C378.966 152.154 367.532 158.548 353.231 153.303C341.775 149.101 326.288 148.676 317.154 151.041C317.005 151.08 316.611 155.205 316.466 155.247C315.811 155.428 315.091 155.298 314.413 155.038C312.763 154.405 311.676 152.815 311.636 151.047L311.043 124.455L291.66 120.713C291.66 120.713 301.018 79.1411 319.181 75.8874L319.179 75.8894Z" fill="#020D3A"/>
<path d="M403.095 83.1129C402.877 84.2067 397.784 111.873 395.472 117.444C393.108 123.141 390.935 130.234 380.639 126.312C365.262 120.454 392.467 83.6972 394.068 81.2323C394.123 81.1497 403.101 83.0873 403.095 83.1149V83.1129Z" fill="#020D3A"/>
<path d="M265.564 135.422L265.509 128.895C265.497 127.567 266.586 126.493 267.914 126.527C273.203 126.663 285.684 126.23 290.503 119.571C294.554 113.974 295.781 107.255 295.781 107.255C295.781 107.255 316.209 104.18 319.731 120.751C324.728 144.251 277.968 139.142 267.593 137.73C266.437 137.572 265.574 136.589 265.564 135.422Z" fill="#020D3A"/>
<path d="M395.864 82.0537L395.244 73.6756C395.244 73.6756 394.853 67.2646 396.109 66.0686C397.034 65.1873 398.343 67.2626 398.862 70.1799C398.949 70.6638 399.633 70.6658 399.716 70.1839C400.038 68.2816 400.103 66.9007 399.997 64.9492C399.885 62.8463 399.486 59.1422 401.46 59.0615C403.434 58.9789 408.004 64.1191 406.918 70.3373C405.833 76.5555 401.306 83.2379 401.306 83.2379L395.866 82.0557L395.864 82.0537Z" fill="white"/>
<path d="M401.303 83.6802C401.272 83.6802 401.24 83.6762 401.209 83.6703L395.768 82.4881C395.575 82.4468 395.434 82.2835 395.42 82.0887L394.801 73.7106C394.732 72.5992 394.464 67.0242 395.802 65.7495C396.12 65.4446 396.515 65.3482 396.913 65.48C398.057 65.8557 398.934 68.0727 399.296 70.1048C399.585 68.2832 399.658 66.9396 399.553 64.9745L399.522 64.4414C399.408 62.5745 399.266 60.2513 400.234 59.1792C400.55 58.829 400.955 58.6402 401.441 58.6205C402.3 58.5831 403.484 59.3051 404.573 60.5483C406.388 62.6198 408.072 66.3003 407.354 70.4156C406.265 76.6554 401.858 83.214 401.671 83.4894C401.589 83.6133 401.449 83.6841 401.305 83.6841L401.303 83.6802ZM396.279 81.6914L401.101 82.7399C401.917 81.4789 405.541 75.6463 406.481 70.2602C407.145 66.4518 405.586 63.0466 403.907 61.1287C402.898 59.9779 401.944 59.4821 401.476 59.5038C401.233 59.5136 401.046 59.5982 400.89 59.7713C400.173 60.566 400.312 62.8637 400.405 64.3863L400.436 64.9253C400.544 66.9632 400.47 68.358 400.149 70.2582C400.076 70.6851 399.724 70.9861 399.294 70.9881H399.29C398.855 70.9881 398.501 70.6891 398.425 70.2582C397.992 67.8308 397.103 66.4734 396.637 66.32C396.578 66.3003 396.517 66.2905 396.413 66.3888C395.607 67.156 395.54 71.2497 395.686 73.6477L396.281 81.6894L396.279 81.6914Z" fill="#020D3A"/>
<path d="M325.915 58.5738C324.646 57.9974 323.99 58.9574 322.098 58.6977C320.09 58.4223 317.88 56.9332 317.05 54.7575C316.05 52.1293 317.493 49.6232 318.401 48.0436C319.306 46.4718 320.458 44.723 322.456 43.9676C325.061 42.9821 326.151 44.4948 329.134 43.5663C331.558 42.8109 331.381 41.6424 333.54 41.0287C335.339 40.5172 340.525 40.8083 341.687 43.5663C342.422 45.3171 340.835 46.3813 341.626 48.974C342.102 50.53 342.849 50.7209 343.394 51.9228C344.747 54.905 343.052 60.1436 339.825 61.8983C335.446 64.2805 328.103 59.5672 325.915 58.5738Z" fill="#020D3A"/>
<path d="M329.942 63.5763L328.923 71.9426C328.729 73.536 327.582 74.8481 326.029 75.2533L321.729 76.3746L322.334 76.8369C329.812 82.5338 340.167 82.5417 347.655 76.8605L349.883 75.1707L344.54 73.9767C343.004 73.6344 341.825 72.4029 341.545 70.8548L339.325 58.5305L329.942 63.5802V63.5763Z" fill="white"/>
<path d="M335.009 81.5412C330.441 81.5412 325.874 80.0895 322.065 77.1879L321.459 76.7256C321.323 76.6233 321.261 76.4522 321.294 76.287C321.327 76.1198 321.453 75.988 321.616 75.9447L325.917 74.8234C327.303 74.4614 328.31 73.3106 328.483 71.8884L329.502 63.5221C329.519 63.3785 329.604 63.2545 329.732 63.1857L339.115 58.136C339.239 58.0691 339.388 58.0652 339.518 58.1281C339.646 58.1891 339.736 58.3091 339.762 58.4488L341.982 70.773C342.23 72.15 343.272 73.2359 344.637 73.5408L349.979 74.7349C350.148 74.7722 350.278 74.904 350.315 75.0732C350.351 75.2424 350.288 75.4155 350.15 75.5198L347.922 77.2096C344.119 80.0954 339.563 81.5393 335.009 81.5393V81.5412ZM322.72 76.5742C330.003 82.0389 340.124 82.0173 347.386 76.5073L348.852 75.3939L344.442 74.4083C342.729 74.0247 341.42 72.6615 341.109 70.9324L338.997 59.2081L330.353 63.8584L329.362 71.9966C329.144 73.7828 327.879 75.2286 326.141 75.683L322.722 76.5742H322.72Z" fill="#020D3A"/>
<path d="M338.258 60.227C338.258 60.227 341.558 58.9818 340.319 56.2533C339.078 53.5249 337.061 55.5392 337.061 55.5392C337.061 55.5392 335.185 48.8175 331.244 51.4692C327.303 54.1209 323.569 55.0848 323.569 55.0848C323.569 55.0848 324.958 61.8499 327.449 66.3527C328.951 69.0674 330.857 70.9598 333.102 70.047C339.247 67.5488 338.256 60.2289 338.256 60.2289L338.258 60.227Z" fill="white"/>
<path d="M331.947 70.7257C330.235 70.7257 328.597 69.333 327.065 66.5632C324.568 62.0545 323.195 55.4488 323.138 55.1694C323.091 54.9393 323.232 54.7111 323.46 54.6521C323.498 54.6422 327.173 53.6724 330.997 51.0994C332.034 50.401 333.046 50.2279 334.004 50.582C335.815 51.2489 336.875 53.6586 337.288 54.8075C337.697 54.5498 338.301 54.2901 338.953 54.4101C339.687 54.5439 340.281 55.1025 340.721 56.0704C341.105 56.9163 341.144 57.7248 340.833 58.4743C340.375 59.5837 339.272 60.2368 338.727 60.5044C338.831 62.0112 338.89 68.1723 333.273 70.4562C332.826 70.6372 332.386 70.7277 331.949 70.7277L331.947 70.7257ZM324.092 55.3937C324.432 56.9064 325.751 62.3673 327.838 66.1344C329.509 69.152 331.222 70.3284 332.936 69.632C338.684 67.297 337.854 60.5693 337.817 60.284C337.789 60.0795 337.907 59.8847 338.098 59.81C338.112 59.8041 339.557 59.2434 340.013 58.13C340.228 57.6107 340.194 57.0559 339.913 56.4343C339.6 55.7458 339.223 55.3583 338.792 55.2796C338.088 55.1537 337.378 55.8442 337.37 55.8501C337.258 55.9622 337.097 56.0055 336.946 55.9642C336.794 55.9248 336.674 55.8068 336.631 55.6553C336.621 55.6199 335.62 52.1203 333.693 51.4102C333.007 51.1584 332.287 51.2961 331.489 51.8331C328.245 54.0167 325.177 55.0632 324.09 55.3917L324.092 55.3937Z" fill="#020D3A"/>
<path d="M311.041 124.899C311.025 124.899 311.009 124.899 310.993 124.897C310.75 124.872 310.575 124.653 310.6 124.409C312.163 109.624 314.372 97.1289 314.395 97.0049C314.438 96.7649 314.669 96.6036 314.908 96.6469C315.15 96.6902 315.31 96.9203 315.266 97.1603C315.245 97.2843 313.04 109.752 311.481 124.504C311.457 124.732 311.265 124.901 311.041 124.901V124.899Z" fill="white"/>
<path d="M151.761 308.261L155.671 310.342C155.511 312.095 155.5 313.836 155.633 315.553L151.71 317.587C149.77 318.594 148.784 320.811 149.339 322.926C149.893 325.041 151.838 326.491 154.023 326.416L158.451 326.262C159.183 327.838 160.046 329.351 161.027 330.785L158.64 334.519C157.462 336.36 157.718 338.773 159.255 340.328C160.793 341.882 163.202 342.165 165.056 341.006L168.804 338.665C170.212 339.655 171.718 340.532 173.305 341.288L173.104 345.712C173.006 347.895 174.432 349.858 176.54 350.435C178.647 351.013 180.875 350.051 181.902 348.121L183.982 344.211C185.734 344.368 187.474 344.382 189.191 344.248L191.224 348.173C192.231 350.114 194.447 351.1 196.561 350.545C198.675 349.99 200.124 348.045 200.049 345.859L199.896 341.431C201.471 340.699 202.983 339.836 204.417 338.854L208.149 341.242C209.989 342.421 212.402 342.165 213.955 340.627C215.509 339.088 215.792 336.678 214.634 334.823L212.294 331.074C213.283 329.666 214.16 328.159 214.915 326.571L219.337 326.772C221.52 326.87 223.482 325.444 224.059 323.335C224.637 321.226 223.675 318.998 221.746 317.971L217.837 315.89C217.996 314.137 218.008 312.396 217.874 310.679L221.797 308.644C223.738 307.637 224.723 305.42 224.169 303.306C223.614 301.191 221.669 299.741 219.485 299.816L215.059 299.969C214.327 298.394 213.464 296.881 212.483 295.447L214.87 291.713C216.048 289.872 215.792 287.458 214.254 285.904C212.717 284.35 210.308 284.067 208.454 285.225L204.706 287.566C203.298 286.577 201.791 285.699 200.205 284.944L200.405 280.518C200.504 278.334 199.078 276.371 196.97 275.795C194.862 275.217 192.634 276.178 191.608 278.108L189.527 282.019C187.775 281.86 186.033 281.848 184.318 281.982L182.285 278.057C181.278 276.116 179.062 275.13 176.949 275.685C174.835 276.239 173.386 278.185 173.46 280.37L173.614 284.801C172.039 285.532 170.526 286.396 169.093 287.377L165.361 284.989C163.52 283.811 161.108 284.067 159.554 285.605C158.001 287.143 157.718 289.553 158.876 291.408L161.216 295.158C160.227 296.566 159.35 298.073 158.595 299.66L154.172 299.46C151.99 299.361 150.027 300.788 149.451 302.896C148.873 305.005 149.834 307.234 151.763 308.261H151.761ZM162.818 306.559C166.438 293.334 180.089 285.55 193.307 289.17C206.526 292.791 214.307 306.447 210.687 319.67C207.067 332.896 193.417 340.68 180.199 337.058C166.979 333.437 159.198 319.781 162.818 306.557V306.559Z" fill="#20E086"/>
<path d="M195.357 351.145C193.484 351.145 191.731 350.115 190.831 348.378L188.931 344.713C187.392 344.819 185.815 344.807 184.234 344.679L182.291 348.332C181.158 350.461 178.746 351.501 176.421 350.864C174.097 350.227 172.55 348.1 172.66 345.692L172.849 341.559C171.425 340.865 170.062 340.072 168.79 339.195L165.29 341.38C163.245 342.657 160.636 342.352 158.941 340.637C157.246 338.923 156.97 336.307 158.268 334.277L160.498 330.789C159.627 329.493 158.848 328.124 158.176 326.713L154.04 326.857C151.628 326.939 149.524 325.37 148.912 323.038C148.301 320.707 149.368 318.304 151.508 317.194L155.171 315.294C155.065 313.754 155.077 312.176 155.204 310.594L151.555 308.651C149.427 307.518 148.387 305.104 149.022 302.779C149.659 300.454 151.779 298.905 154.192 299.016L158.323 299.202C159.017 297.778 159.812 296.415 160.687 295.142L158.502 291.641C157.226 289.597 157.531 286.984 159.245 285.289C160.958 283.593 163.573 283.318 165.603 284.616L169.089 286.847C170.385 285.975 171.753 285.194 173.163 284.523L173.02 280.387C172.937 277.977 174.506 275.868 176.838 275.256C179.168 274.646 181.571 275.713 182.68 277.853L184.58 281.518C186.121 281.411 187.698 281.423 189.277 281.551L191.22 277.898C192.353 275.77 194.766 274.729 197.09 275.364C199.414 276.002 200.96 278.128 200.851 280.536L200.665 284.669C202.088 285.363 203.451 286.156 204.723 287.034L208.223 284.848C210.268 283.571 212.878 283.876 214.573 285.592C216.268 287.305 216.545 289.921 215.245 291.951L213.015 295.439C213.886 296.738 214.667 298.105 215.338 299.515L219.473 299.372C221.882 299.289 223.99 300.859 224.601 303.192C225.213 305.523 224.145 307.927 222.006 309.036L218.342 310.937C218.448 312.479 218.437 314.056 218.309 315.636L221.96 317.58C224.088 318.713 225.128 321.126 224.491 323.452C223.854 325.777 221.734 327.321 219.321 327.215L215.19 327.028C214.496 328.452 213.702 329.817 212.827 331.088L215.011 334.59C216.287 336.634 215.983 339.246 214.268 340.942C212.555 342.637 209.942 342.915 207.911 341.614L204.424 339.384C203.128 340.255 201.76 341.036 200.35 341.707L200.494 345.844C200.576 348.254 199.007 350.362 196.677 350.974C196.238 351.088 195.796 351.145 195.361 351.145H195.357ZM189.191 343.808C189.356 343.808 189.508 343.9 189.584 344.048L191.617 347.972C192.536 349.743 194.52 350.624 196.449 350.12C198.376 349.615 199.674 347.87 199.605 345.879L199.451 341.451C199.446 341.274 199.546 341.109 199.707 341.034C201.257 340.314 202.755 339.458 204.163 338.493C204.308 338.392 204.501 338.388 204.652 338.485L208.385 340.873C210.064 341.947 212.225 341.719 213.643 340.316C215.058 338.913 215.312 336.754 214.256 335.064L211.916 331.314C211.822 331.163 211.828 330.97 211.93 330.825C212.899 329.446 213.768 327.952 214.514 326.385C214.59 326.223 214.754 326.125 214.934 326.133L219.359 326.333C221.341 326.424 223.107 325.145 223.634 323.221C224.161 321.3 223.299 319.301 221.539 318.365L217.63 316.283C217.473 316.199 217.381 316.029 217.396 315.852C217.552 314.123 217.565 312.396 217.434 310.716C217.42 310.539 217.514 310.37 217.672 310.287L221.595 308.253C223.364 307.337 224.245 305.348 223.742 303.42C223.236 301.492 221.481 300.188 219.502 300.261L215.076 300.414C214.895 300.418 214.734 300.32 214.659 300.158C213.94 298.61 213.084 297.111 212.119 295.701C212.018 295.553 212.014 295.363 212.111 295.211L214.498 291.477C215.572 289.797 215.343 287.636 213.941 286.219C212.539 284.803 210.38 284.549 208.691 285.605L204.943 287.946C204.792 288.041 204.599 288.035 204.454 287.933C203.075 286.963 201.583 286.093 200.018 285.348C199.856 285.271 199.758 285.106 199.766 284.927L199.967 280.501C200.057 278.51 198.777 276.751 196.856 276.224C194.935 275.697 192.937 276.558 192.001 278.319L189.92 282.23C189.836 282.387 189.667 282.48 189.49 282.462C187.763 282.306 186.037 282.293 184.356 282.425C184.179 282.438 184.01 282.344 183.929 282.186L181.896 278.262C180.979 276.492 178.993 275.61 177.064 276.114C175.137 276.619 173.84 278.364 173.908 280.355L174.062 284.785C174.068 284.962 173.967 285.127 173.806 285.202C172.259 285.922 170.758 286.778 169.35 287.744C169.203 287.844 169.01 287.848 168.861 287.752L165.129 285.363C163.449 284.289 161.288 284.518 159.871 285.92C158.455 287.323 158.201 289.483 159.257 291.172L161.597 294.922C161.691 295.073 161.686 295.266 161.583 295.412C160.614 296.791 159.745 298.284 159 299.852C158.923 300.013 158.756 300.111 158.579 300.103L154.156 299.903C152.161 299.812 150.408 301.091 149.882 303.015C149.355 304.937 150.216 306.935 151.976 307.872L155.885 309.953C156.042 310.038 156.135 310.207 156.119 310.384C155.963 312.113 155.95 313.84 156.081 315.52C156.095 315.697 156.001 315.866 155.844 315.949L151.921 317.983C150.151 318.9 149.27 320.888 149.773 322.816C150.279 324.744 152.021 326.046 154.013 325.975L158.439 325.822C158.622 325.816 158.781 325.916 158.856 326.078C159.576 327.628 160.431 329.129 161.396 330.535C161.497 330.683 161.501 330.876 161.404 331.025L159.017 334.759C157.944 336.439 158.172 338.601 159.574 340.019C160.976 341.435 163.135 341.689 164.824 340.633L168.572 338.292C168.723 338.197 168.916 338.203 169.061 338.306C170.44 339.275 171.932 340.145 173.499 340.89C173.661 340.967 173.759 341.132 173.751 341.311L173.551 345.738C173.46 347.728 174.738 349.487 176.661 350.014C178.582 350.541 180.578 349.68 181.516 347.919L183.597 344.008C183.681 343.851 183.85 343.759 184.027 343.776C185.756 343.932 187.482 343.945 189.161 343.814C189.173 343.814 189.185 343.814 189.197 343.814L189.191 343.808ZM186.747 338.39C184.544 338.39 182.307 338.099 180.083 337.491C173.576 335.709 168.151 331.497 164.81 325.633C161.469 319.769 160.61 312.955 162.391 306.446C164.173 299.936 168.383 294.509 174.245 291.167C180.106 287.824 186.918 286.965 193.425 288.747C206.859 292.428 214.795 306.355 211.116 319.793C208.046 331.005 197.845 338.392 186.747 338.392V338.39ZM186.715 288.723C182.537 288.723 178.411 289.809 174.683 291.934C169.028 295.16 164.965 300.396 163.247 306.678C161.528 312.959 162.356 319.535 165.581 325.193C168.806 330.85 174.04 334.914 180.319 336.634C182.464 337.222 184.625 337.501 186.749 337.501C197.459 337.501 207.303 330.376 210.264 319.555C213.814 306.587 206.155 293.147 193.192 289.597C191.053 289.011 188.878 288.719 186.717 288.719L186.715 288.723Z" fill="#020D3A"/>
<path d="M208.101 313.205C208.101 301.282 198.448 291.615 186.538 291.615C174.627 291.615 164.975 301.282 164.975 313.205C164.975 325.128 174.627 334.794 186.538 334.794C198.448 334.794 208.101 325.128 208.101 313.205Z" fill="white"/>
<path d="M201.718 328.903C197.834 332.57 192.602 334.822 186.838 334.822C181.075 334.822 175.845 332.57 171.959 328.903C176.452 327.51 181.5 326.728 186.838 326.728C192.177 326.728 197.225 327.51 201.718 328.903Z" fill="#020D3A"/>
<path d="M179.89 300.593C180.867 299.963 182.005 299.629 183.168 299.629H190.01C191.538 299.629 193.009 300.207 194.13 301.248L194.506 301.596C196.283 303.248 196.904 305.802 196.081 308.087L193.831 314.335L179.404 314.245L177.367 307.419C176.596 304.836 177.624 302.054 179.89 300.595V300.593Z" fill="#020D3A"/>
<path d="M183.456 303.316C183.487 303.303 183.55 303.275 183.55 303.275L193.905 310.003V314.061C193.905 316.382 192.82 318.448 191.132 319.787V325.97C191.132 328.415 189.152 330.396 186.708 330.396C184.264 330.396 182.284 328.415 182.284 325.97V319.947C180.475 318.617 179.297 316.481 179.297 314.061V309.757C179.297 306.891 181.004 304.422 183.456 303.316Z" fill="white"/>
<path d="M186.603 321.813C182.332 321.813 178.855 318.337 178.855 314.063V309.758C178.855 305.619 182.222 302.252 186.357 302.252H193.906C194.15 302.252 194.348 302.45 194.348 302.694V314.061C194.348 317.092 192.567 319.862 189.808 321.119C189.584 321.219 189.322 321.123 189.222 320.898C189.12 320.676 189.218 320.413 189.442 320.312C191.887 319.199 193.464 316.746 193.464 314.061V303.137H186.357C182.708 303.137 179.74 306.107 179.74 309.756V314.061C179.74 317.845 182.818 320.924 186.601 320.924C186.845 320.924 187.043 321.123 187.043 321.367C187.043 321.611 186.845 321.809 186.601 321.809L186.603 321.813Z" fill="#020D3A"/>
<path d="M186.84 335.248C180.987 335.248 175.473 332.986 171.302 328.869C166.748 324.374 164.361 318.13 164.756 311.737C164.772 311.493 164.976 311.304 165.226 311.322C165.47 311.337 165.657 311.546 165.641 311.792C165.264 317.929 167.554 323.925 171.926 328.239C175.931 332.191 181.222 334.363 186.842 334.363C186.891 334.363 186.941 334.363 186.992 334.363C192.667 334.324 197.988 332.077 201.971 328.035C205.957 323.992 208.13 318.639 208.093 312.962C208.053 307.285 205.808 301.962 201.767 297.974C193.823 290.133 181.073 289.797 172.742 297.209C172.559 297.372 172.279 297.355 172.116 297.172C171.953 296.989 171.971 296.709 172.154 296.546C180.831 288.825 194.112 289.175 202.388 297.343C206.596 301.496 208.936 307.041 208.978 312.954C209.017 318.868 206.754 324.444 202.601 328.654C198.45 332.864 192.907 335.205 186.996 335.246C186.945 335.246 186.891 335.246 186.84 335.246V335.248Z" fill="#020D3A"/>
<path d="M186.709 330.839C184.024 330.839 181.842 328.655 181.842 325.97V320.1C181.842 319.856 182.04 319.658 182.284 319.658C182.528 319.658 182.727 319.856 182.727 320.1V325.97C182.727 328.165 184.512 329.954 186.709 329.954C188.905 329.954 190.69 328.167 190.69 325.97V319.787C190.69 319.543 190.889 319.345 191.133 319.345C191.377 319.345 191.575 319.543 191.575 319.787V325.97C191.575 328.655 189.393 330.839 186.709 330.839Z" fill="#020D3A"/>
<path d="M317.8 379.992C313.102 379.992 308.987 376.937 307.652 372.369L305.035 363.417C301.47 362.984 297.916 362.268 294.463 361.282L288.58 368.519C285.434 372.391 280.115 373.544 275.649 371.325C271.182 369.106 268.887 364.17 270.069 359.323L272.271 350.286C269.436 348.157 266.718 345.752 264.185 343.127L255.478 346.45C250.818 348.228 245.639 346.568 242.878 342.411C240.119 338.255 240.597 332.833 244.042 329.227L250.48 322.486C249.044 319.134 247.88 315.695 247.019 312.253L237.838 310.777C232.914 309.987 229.257 305.956 228.944 300.977C228.632 295.998 231.756 291.542 236.542 290.142L245.491 287.524C245.922 283.959 246.64 280.404 247.625 276.95L240.391 271.064C236.521 267.917 235.368 262.598 237.586 258.128C239.805 253.659 244.738 251.363 249.583 252.545L258.617 254.749C260.746 251.91 263.151 249.19 265.772 246.66L262.451 237.949C260.673 233.287 262.333 228.105 266.488 225.344C270.641 222.584 276.062 223.062 279.668 226.51L286.407 232.951C289.754 231.515 293.193 230.352 296.636 229.488L298.109 220.304C298.899 215.378 302.929 211.719 307.905 211.406C312.874 211.093 317.336 214.219 318.736 219.007L321.353 227.962C324.916 228.393 328.47 229.111 331.924 230.096L337.808 222.859C340.954 218.988 346.271 217.835 350.737 220.054C355.204 222.273 357.499 227.208 356.317 232.056L354.115 241.093C356.952 243.221 359.67 245.629 362.2 248.251L370.907 244.929C375.568 243.15 380.749 244.811 383.508 248.967L383.138 249.213L383.508 248.969C386.267 253.126 385.787 258.547 382.342 262.153L375.904 268.895C377.339 272.245 378.503 275.685 379.365 279.128L388.546 280.603C393.469 281.394 397.127 285.425 397.439 290.403C397.752 295.382 394.628 299.838 389.841 301.239L380.891 303.857C380.46 307.423 379.742 310.978 378.757 314.432L385.991 320.318C389.861 323.466 391.013 328.785 388.795 333.254C386.577 337.724 381.644 340.019 376.799 338.837L367.765 336.634C365.638 339.47 363.233 342.189 360.61 344.723L363.931 353.433C365.708 358.095 364.049 363.279 359.894 366.039C355.739 368.799 350.32 368.321 346.715 364.874L339.977 358.434C336.626 359.87 333.189 361.034 329.75 361.896L328.277 371.081C327.486 376.006 323.457 379.665 318.48 379.978C318.252 379.992 318.024 380 317.798 380L317.8 379.992ZM294.306 360.332C294.347 360.332 294.389 360.338 294.43 360.35C298.017 361.39 301.717 362.138 305.43 362.571C305.607 362.59 305.754 362.716 305.803 362.885L308.503 372.119C309.785 376.508 313.861 379.372 318.429 379.085C322.989 378.798 326.682 375.446 327.406 370.931L328.926 361.457C328.953 361.282 329.085 361.141 329.258 361.097C332.837 360.218 336.418 359.006 339.9 357.495C340.063 357.425 340.254 357.458 340.382 357.582L347.333 364.225C350.636 367.384 355.603 367.823 359.41 365.293C363.217 362.764 364.739 358.013 363.109 353.742L359.683 344.756C359.621 344.589 359.662 344.402 359.792 344.278C362.535 341.652 365.04 338.819 367.236 335.861C367.342 335.717 367.525 335.652 367.696 335.695L377.015 337.967C381.455 339.049 385.976 336.947 388.009 332.851C390.042 328.755 388.984 323.881 385.439 320.997L377.978 314.926C377.841 314.814 377.784 314.629 377.833 314.46C378.873 310.87 379.62 307.168 380.053 303.456C380.075 303.279 380.198 303.131 380.37 303.082L389.6 300.381C393.985 299.096 396.85 295.015 396.563 290.451C396.275 285.887 392.925 282.195 388.412 281.471L378.942 279.95C378.765 279.922 378.625 279.791 378.582 279.618C377.703 276.035 376.492 272.453 374.982 268.971C374.911 268.808 374.944 268.617 375.068 268.489L381.709 261.535C384.865 258.231 385.305 253.262 382.776 249.453C380.248 245.645 375.499 244.122 371.23 245.753L362.25 249.18C362.084 249.243 361.896 249.201 361.772 249.071C359.149 246.329 356.317 243.823 353.358 241.624C353.214 241.518 353.149 241.337 353.193 241.164L355.464 231.841C356.545 227.399 354.443 222.877 350.349 220.843C346.255 218.809 341.385 219.865 338.5 223.414L332.432 230.877C332.32 231.015 332.135 231.072 331.966 231.023C328.377 229.982 324.676 229.235 320.966 228.802C320.789 228.782 320.643 228.656 320.592 228.487L317.892 219.253C316.61 214.865 312.534 212 307.966 212.288C303.406 212.575 299.714 215.927 298.99 220.441L297.47 229.915C297.442 230.09 297.311 230.232 297.138 230.275C293.555 231.157 289.974 232.368 286.496 233.877C286.332 233.948 286.144 233.915 286.014 233.791L279.065 227.147C275.761 223.988 270.794 223.55 266.987 226.079C263.181 228.609 261.659 233.358 263.289 237.63L266.714 246.616C266.777 246.784 266.736 246.971 266.606 247.095C263.865 249.719 261.362 252.549 259.161 255.512C259.055 255.656 258.874 255.721 258.701 255.679L249.383 253.407C244.941 252.325 240.422 254.428 238.389 258.524C236.356 262.619 237.413 267.494 240.959 270.378L248.421 276.448C248.559 276.561 248.616 276.746 248.567 276.915C247.526 280.507 246.779 284.209 246.347 287.919C246.327 288.096 246.201 288.244 246.032 288.293L236.802 290.994C232.415 292.276 229.552 296.36 229.839 300.924C230.126 305.488 233.477 309.18 237.99 309.904L247.46 311.425C247.635 311.452 247.776 311.584 247.819 311.757C248.698 315.337 249.91 318.919 251.42 322.403C251.491 322.567 251.457 322.757 251.333 322.885L244.693 329.837C241.535 333.142 241.096 338.111 243.625 341.919C246.154 345.728 250.903 347.251 255.172 345.62L264.154 342.193C264.321 342.13 264.508 342.171 264.632 342.301C267.257 345.045 270.088 347.551 273.046 349.749C273.189 349.855 273.254 350.036 273.211 350.209L270.94 359.531C269.858 363.973 271.96 368.496 276.054 370.53C280.148 372.564 285.021 371.508 287.904 367.959L293.972 360.495C294.056 360.391 294.184 360.332 294.316 360.332H294.306ZM313.279 350.012C295.677 350.012 278.396 341.489 267.949 325.753C261.963 316.738 258.862 306.387 258.861 295.805C258.861 292.196 259.22 288.558 259.952 284.939C262.821 270.71 271.058 258.451 283.145 250.421C295.232 242.391 309.72 239.548 323.943 242.421C338.166 245.293 350.418 253.531 358.447 265.623C364.572 274.849 367.502 285.283 367.502 295.607C367.502 313.215 358.98 330.506 343.253 340.956C334.032 347.083 323.601 350.014 313.281 350.014L313.279 350.012ZM259.745 295.803C259.745 306.212 262.797 316.394 268.686 325.264C284.987 349.818 318.219 356.524 342.759 340.216C358.23 329.936 366.613 312.926 366.613 295.607C366.613 285.45 363.73 275.188 357.705 266.113C349.808 254.22 337.755 246.113 323.764 243.288C309.775 240.465 295.521 243.259 283.633 251.159C271.744 259.059 263.641 271.117 260.817 285.114C260.099 288.674 259.743 292.253 259.745 295.803Z" fill="#020D3A"/>
<mask id="mask0_212_14065" style="mask-type:luminance" maskUnits="userSpaceOnUse" x="227" y="135" width="222" height="215">
<path d="M399.206 140.27L266.123 176.942L227.012 242.405L261.584 280.228C257.16 295.036 259.101 311.63 268.317 325.51C284.779 350.306 318.219 357.057 343.005 340.586C357.961 330.648 366.346 314.529 367.03 297.857L418.393 288.309L448.001 225.613L440.422 135.903L399.208 140.268L399.206 140.27Z" fill="white"/>
</mask>
<g mask="url(#mask0_212_14065)">
<path d="M312.963 230.879C312.963 230.879 298.503 224.293 293.652 223.252C288.801 222.212 280.509 214.105 292.191 203.602C295.976 200.199 295.071 194.532 303.295 190.796C311.518 187.061 320.028 189.049 322.722 194.125C325.416 199.2 321.857 205.544 318.251 207.425C314.645 209.305 312.965 230.879 312.965 230.879H312.963Z" fill="#020D3A"/>
<path d="M306.503 241.782L302.575 253.827C302.575 253.827 329.547 252.2 328.515 248.201C328.222 247.068 327.534 246.244 326.694 245.648C322.549 242.697 324.236 230.457 324.236 230.457L331.411 224.377C332.727 223.262 332.984 221.332 332.009 219.911L328.511 214.817C327.921 213.957 327.748 212.877 328.043 211.876L328.662 209.767L321.983 205.307L316.156 198.477C306.857 200.865 304.032 204.558 306.216 211.577C307.616 216.077 305.298 216.961 305.298 216.961C305.298 216.961 300.61 214.38 300.28 219.388C299.95 224.397 308.401 225.008 308.401 225.008C310.041 226.73 310.603 229.212 309.866 231.472L306.503 241.782Z" fill="white"/>
<path d="M302.576 254.27C302.44 254.27 302.311 254.207 302.226 254.097C302.136 253.981 302.11 253.828 302.155 253.688L306.084 241.643L309.447 231.333C310.117 229.277 309.637 227.033 308.194 225.434C306.91 225.312 299.509 224.385 299.841 219.357C299.945 217.773 300.478 216.709 301.424 216.19C302.83 215.421 304.664 216.16 305.294 216.459C305.722 216.17 306.841 215.061 305.797 211.705C304.786 208.457 304.845 205.892 305.98 203.86C307.413 201.289 310.613 199.441 316.05 198.045C316.215 198.003 316.388 198.057 316.496 198.186L322.281 204.971L328.91 209.397C329.071 209.505 329.144 209.704 329.089 209.891L328.469 212C328.212 212.877 328.361 213.812 328.878 214.563L332.376 219.658C333.485 221.273 333.194 223.447 331.7 224.714L324.656 230.684C324.477 232.142 323.325 242.703 326.953 245.286C327.985 246.02 328.654 246.964 328.945 248.089C329.049 248.495 328.961 248.904 328.689 249.277C326.161 252.753 305.007 254.125 302.602 254.27C302.592 254.27 302.584 254.27 302.574 254.27H302.576ZM302.863 216.737C302.507 216.737 302.155 216.802 301.847 216.971C301.184 217.335 300.806 218.157 300.724 219.418C300.425 223.929 308.353 224.562 308.434 224.568C308.544 224.576 308.646 224.625 308.723 224.704C310.477 226.545 311.077 229.193 310.288 231.61L303.201 253.344C310.048 252.895 326.106 251.325 327.976 248.756C328.125 248.552 328.115 248.41 328.09 248.312C327.854 247.393 327.299 246.618 326.442 246.008C322.128 242.937 323.732 230.906 323.803 230.397C323.817 230.288 323.872 230.19 323.954 230.119L331.13 224.039C332.276 223.067 332.498 221.401 331.649 220.162L328.151 215.067C327.482 214.093 327.289 212.885 327.622 211.752L328.151 209.956L321.742 205.677C321.709 205.656 321.677 205.628 321.652 205.597L316.006 198.977C310.982 200.299 308.041 201.993 306.757 204.296C305.734 206.13 305.699 208.402 306.646 211.447C308.155 216.288 305.573 217.335 305.463 217.378C305.341 217.423 305.205 217.415 305.091 217.352C305.077 217.345 303.957 216.741 302.867 216.741L302.863 216.737Z" fill="#020D3A"/>
<path d="M304.021 210.851L313.125 217.286C316.985 220.014 322.253 219.552 325.578 216.192L328.419 213.32L338.57 222.863C339.793 224.293 339.537 226.462 338.015 227.57L330.097 234.41C327.753 236.115 324.648 236.357 322.066 235.037L308.899 228.294C308.899 228.294 311.493 223.586 305.299 216.959C299.105 210.332 304.019 210.851 304.019 210.851H304.021Z" fill="#020D3A"/>
<path d="M418.459 201.569L401.358 210.14C401.358 210.14 403.316 240.558 385.332 247.52C376.68 250.87 369.119 250.329 363.6 248.866C355.245 246.65 346.484 246.468 338.082 248.498L304.326 256.65C285.671 261.154 271.482 276.337 268.263 295.263C264.822 315.501 261.091 342.211 260.62 365.036C260.533 369.244 264.613 372.281 268.609 370.961L355.817 342.144L359.134 287.737C370.037 288.649 385.957 287.375 406.02 278.631C448.438 260.141 418.457 201.569 418.457 201.569H418.459Z" fill="white"/>
<path d="M266.679 371.718C265.314 371.718 263.977 371.282 262.833 370.436C261.1 369.155 260.133 367.184 260.178 365.026C260.662 341.638 264.607 314.139 267.827 295.188C271.08 276.069 285.365 260.772 304.225 256.218L337.981 248.066C346.313 246.054 355.212 246.182 363.715 248.436C370.813 250.319 378.032 249.87 385.174 247.106C402.645 240.343 400.936 210.468 400.916 210.167C400.905 209.99 401.001 209.823 401.16 209.742L418.262 201.171C418.48 201.063 418.743 201.15 418.853 201.366C419.019 201.689 435.251 233.871 426.648 257.942C423.227 267.514 416.346 274.611 406.198 279.034C385.691 287.97 369.58 288.983 359.548 288.212L356.258 342.17C356.247 342.35 356.127 342.506 355.956 342.563L268.748 371.38C268.065 371.606 267.367 371.716 266.679 371.716V371.718ZM350.025 247.531C346.022 247.531 342.044 247.996 338.188 248.928L304.431 257.08C285.918 261.551 271.892 276.569 268.7 295.337C265.484 314.259 261.547 341.711 261.063 365.046C261.024 366.912 261.861 368.618 263.358 369.724C264.846 370.823 266.711 371.122 268.47 370.54L355.393 341.817L358.693 287.709C358.701 287.589 358.756 287.479 358.844 287.4C358.935 287.321 359.053 287.284 359.171 287.294C369.067 288.122 385.197 287.221 405.844 278.223C415.76 273.901 422.479 266.977 425.814 257.645C433.776 235.363 420.076 205.904 418.26 202.163L401.815 210.403C401.882 211.892 402.078 218.803 400.523 226.306C398.191 237.548 392.992 245.027 385.492 247.929C378.173 250.761 370.768 251.22 363.487 249.288C359.06 248.114 354.526 247.527 350.025 247.527V247.531Z" fill="#020D3A"/>
<path d="M399.685 174.965C399.856 173.804 401.372 170.006 402.227 168.776L410.549 153.637C410.549 153.637 413.888 158.504 413.042 162.304C416.768 161.209 419.893 160.872 419.893 160.872C419.893 160.872 423.782 154.223 424.874 152.937C425.965 151.652 427.312 149.74 429.158 149.158C431.009 148.574 433.299 149.378 433.299 149.378L427.166 166.241L409.727 177.863L420.408 206.609L401.356 210.14L399.683 174.967L399.685 174.965Z" fill="white"/>
<path d="M401.357 210.583C401.259 210.583 401.16 210.549 401.082 210.486C400.981 210.408 400.92 210.288 400.915 210.16L399.241 174.987C399.241 174.957 399.241 174.93 399.245 174.902C399.422 173.704 400.95 169.853 401.849 168.544L410.158 153.425C410.233 153.289 410.371 153.203 410.524 153.197C410.672 153.191 410.825 153.262 410.912 153.389C411.043 153.582 413.967 157.898 413.586 161.691C416.455 160.9 418.889 160.556 419.621 160.461C420.277 159.344 423.524 153.846 424.534 152.654C424.686 152.477 424.839 152.288 425 152.091C426.029 150.838 427.309 149.28 429.022 148.739C430.99 148.117 433.344 148.93 433.442 148.965C433.554 149.005 433.645 149.087 433.696 149.194C433.747 149.3 433.753 149.424 433.711 149.534L427.578 166.396C427.547 166.485 427.486 166.562 427.407 166.613L410.259 178.04L420.82 206.458C420.865 206.58 420.855 206.717 420.791 206.831C420.726 206.945 420.615 207.024 420.486 207.048L401.434 210.579C401.408 210.585 401.381 210.587 401.353 210.587L401.357 210.583ZM400.128 174.991L401.774 209.613L419.809 206.271L409.311 178.018C409.24 177.826 409.311 177.609 409.48 177.495L426.8 165.954L432.722 149.672C432.005 149.485 430.522 149.193 429.291 149.581C427.828 150.043 426.64 151.489 425.687 152.652C425.522 152.852 425.364 153.045 425.211 153.224C424.157 154.467 420.313 161.03 420.273 161.097C420.203 161.219 420.079 161.297 419.939 161.313C419.908 161.317 416.807 161.657 413.165 162.73C413.014 162.773 412.852 162.735 412.738 162.627C412.624 162.521 412.575 162.36 412.608 162.208C413.232 159.409 411.405 155.913 410.573 154.511L402.615 168.991C402.608 169.005 402.6 169.019 402.59 169.03C401.772 170.203 400.319 173.84 400.128 174.989V174.991Z" fill="#020D3A"/>
<path d="M236.425 350.429C236.425 350.429 239.964 280.703 285.352 266.641L297.521 303.504C297.521 303.504 254.222 354.983 250.069 371.027C245.914 387.073 236.425 350.429 236.425 350.429Z" fill="white"/>
<path d="M236.427 350.872C236.427 350.872 236.411 350.872 236.403 350.872C236.159 350.86 235.97 350.652 235.984 350.408C235.994 350.232 236.948 332.693 243.45 313.667C247.275 302.478 252.242 292.965 258.214 285.393C265.696 275.905 274.782 269.455 285.224 266.219C285.46 266.146 285.705 266.278 285.778 266.51C285.851 266.744 285.719 266.992 285.487 267.065C262.225 274.273 250.248 296.529 244.298 313.932C237.831 332.845 236.881 350.278 236.871 350.451C236.859 350.687 236.662 350.872 236.428 350.872H236.427Z" fill="#020D3A"/>
<path d="M250.072 371.469C250.024 371.469 249.975 371.461 249.928 371.445C249.696 371.367 249.574 371.113 249.653 370.883C255.676 353.353 290.227 311.661 290.575 311.242C290.73 311.055 291.009 311.028 291.198 311.185C291.387 311.343 291.412 311.622 291.255 311.809C290.907 312.226 256.46 353.794 250.49 371.17C250.428 371.353 250.254 371.469 250.072 371.469Z" fill="#020D3A"/>
<path d="M336.621 250.657L335.801 245.434C335.527 243.689 333.693 241.758 332.179 242.666C319.541 250.256 298.989 243.573 295.514 245.116C285.71 249.465 269.328 274.298 273.033 272.359C288.64 264.183 314.949 269.951 326.862 265.633C336.007 262.318 336.619 250.659 336.619 250.659L336.621 250.657Z" fill="#020D3A"/>
<path d="M321.594 305.774C321.38 305.774 321.193 305.619 321.158 305.402L313.937 260.828C313.898 260.586 314.063 260.36 314.303 260.321C314.547 260.281 314.771 260.447 314.811 260.687L322.031 305.261C322.07 305.502 321.905 305.729 321.665 305.768C321.642 305.772 321.618 305.774 321.594 305.774Z" fill="#020D3A"/>
<path d="M332.384 296.013C332.19 296.013 332.011 295.883 331.958 295.687L322.317 260.071C322.252 259.835 322.391 259.591 322.627 259.528C322.863 259.465 323.107 259.603 323.17 259.839L332.811 295.455C332.876 295.691 332.736 295.935 332.5 295.998C332.461 296.007 332.422 296.013 332.384 296.013Z" fill="#020D3A"/>
<path d="M321.368 304.485C320.609 304.642 320.08 305.179 320.184 305.685L321.116 310.183C321.22 310.688 321.92 310.969 322.677 310.812C323.436 310.655 323.965 310.118 323.861 309.612L322.929 305.114C322.825 304.609 322.125 304.327 321.368 304.485Z" fill="#020D3A"/>
<path d="M332.181 294.491C331.436 294.699 330.945 295.272 331.084 295.77L332.325 300.193C332.465 300.688 333.18 300.922 333.928 300.712C334.673 300.503 335.164 299.931 335.025 299.433L333.784 295.01C333.644 294.515 332.927 294.28 332.181 294.491Z" fill="#020D3A"/>
</g>
<path d="M313.277 350.013C306.763 350.013 300.292 348.845 294.194 346.576C284.203 342.858 275.219 336.186 268.69 326.848C268.439 326.488 268.189 326.122 267.945 325.754C267.941 325.748 267.937 325.742 267.933 325.736C261.955 316.725 258.858 306.381 258.856 295.808C258.856 292.198 259.216 288.561 259.948 284.941C262.817 270.713 271.054 258.454 283.141 250.424C283.149 250.42 283.155 250.414 283.163 250.41C283.168 250.406 283.174 250.402 283.18 250.398C283.18 250.398 283.18 250.398 283.182 250.398C283.188 250.394 283.196 250.39 283.202 250.386C290.245 245.72 298.034 242.822 306.358 241.772C306.602 241.741 306.822 241.914 306.853 242.156C306.885 242.398 306.712 242.62 306.47 242.651C306.405 242.659 306.34 242.667 306.275 242.677C306.275 242.677 306.273 242.677 306.271 242.677C298.134 243.733 290.517 246.59 283.633 251.165C272.464 258.587 264.636 269.678 261.389 282.6C261.389 282.61 261.385 282.622 261.381 282.632C257.714 297.212 260.374 312.753 268.684 325.27C284.985 349.824 318.217 356.53 342.757 340.222C342.763 340.219 342.769 340.215 342.773 340.213C342.773 340.213 342.775 340.213 342.777 340.211C342.781 340.209 342.784 340.205 342.788 340.203C342.788 340.203 342.79 340.203 342.792 340.201C342.794 340.201 342.8 340.197 342.802 340.195C359.009 329.403 368.09 310.349 366.436 291.047C366.436 291.047 366.436 291.043 366.436 291.041C366.357 290.135 366.257 289.228 366.131 288.319L366.094 288.049C366.094 288.049 366.094 288.049 366.094 288.046C366.084 287.973 366.074 287.904 366.062 287.833C366.058 287.811 366.058 287.79 366.058 287.768C366.058 287.552 366.216 287.363 366.436 287.329C366.678 287.294 366.904 287.461 366.939 287.703C366.965 287.872 366.988 288.042 367.012 288.211V288.225H367.014C367.038 288.396 367.061 288.567 367.083 288.738C367.378 291.043 367.525 293.359 367.525 295.668C367.525 301.857 366.467 308.014 364.389 313.878C363.941 315.141 363.445 316.39 362.904 317.624C362.696 318.096 362.481 318.564 362.261 319.03C362.259 319.036 362.255 319.042 362.253 319.048C362.253 319.052 362.249 319.056 362.247 319.06C362.247 319.06 362.247 319.062 362.247 319.064C361.046 321.592 359.658 324.011 358.095 326.305C358.091 326.313 358.085 326.321 358.079 326.33C354.178 332.055 349.26 336.929 343.459 340.821C343.455 340.822 343.451 340.824 343.449 340.828C343.445 340.828 343.445 340.832 343.441 340.834C343.378 340.876 343.315 340.919 343.254 340.96C334.034 347.088 323.603 350.019 313.283 350.019L313.277 350.013Z" fill="#020D3A"/>
<path d="M168.681 223.662L164.381 245.874C164.381 245.874 204.16 257.342 221.975 238.125L216.757 223.664H168.679L168.681 223.662Z" fill="#020D3A"/>
<path d="M102.649 169.229L112.058 174.24C111.677 178.457 111.645 182.651 111.968 186.782L102.527 191.679C97.8551 194.1 95.4856 199.437 96.8188 204.528C98.152 209.619 102.836 213.107 108.094 212.926L118.75 212.558C120.513 216.351 122.586 219.992 124.952 223.442L119.206 232.428C116.37 236.862 116.986 242.669 120.685 246.413C124.385 250.154 130.182 250.833 134.646 248.046L143.665 242.412C147.055 244.796 150.679 246.903 154.5 248.724L154.016 259.375C153.778 264.633 157.212 269.354 162.287 270.745C167.362 272.136 172.722 269.822 175.194 265.176L180.202 255.763C184.418 256.144 188.61 256.176 192.74 255.853L197.634 265.298C200.055 269.97 205.389 272.342 210.478 271.008C215.567 269.675 219.053 264.991 218.873 259.729L218.505 249.069C222.296 247.304 225.936 245.229 229.385 242.864L238.367 248.612C242.799 251.449 248.604 250.833 252.344 247.131C256.084 243.429 256.762 237.63 253.976 233.164L248.344 224.141C250.728 220.749 252.834 217.124 254.654 213.302L265.3 213.786C270.556 214.024 275.276 210.589 276.666 205.512C278.056 200.434 275.744 195.072 271.099 192.599L261.69 187.589C262.071 183.371 262.103 179.177 261.78 175.044L271.221 170.148C275.893 167.727 278.262 162.39 276.929 157.299C275.596 152.208 270.914 148.72 265.654 148.901L254.998 149.269C253.235 145.476 251.16 141.835 248.797 138.384L254.542 129.398C257.378 124.964 256.762 119.157 253.062 115.416C249.361 111.674 243.564 110.996 239.1 113.783L230.081 119.417C226.691 117.033 223.067 114.926 219.246 113.104L219.73 102.452C219.968 97.194 216.535 92.4728 211.459 91.082C206.384 89.6912 201.024 92.0046 198.552 96.651L193.544 106.064C189.328 105.682 185.136 105.651 181.004 105.973L176.11 96.5291C173.69 91.8551 168.355 89.4847 163.266 90.8204C158.177 92.1541 154.691 96.8399 154.872 102.1L155.239 112.76C151.446 114.523 147.808 116.598 144.359 118.965L135.377 113.217C130.945 110.38 125.14 110.996 121.4 114.698C117.66 118.4 116.982 124.199 119.768 128.665L125.4 137.688C123.017 141.079 120.911 144.705 119.09 148.527L108.444 148.043C103.188 147.803 98.4686 151.24 97.0784 156.317C95.6882 161.394 98.0006 166.757 102.645 169.229H102.649ZM129.264 165.134C137.977 133.301 170.832 114.562 202.652 123.279C234.472 131.995 253.203 164.864 244.49 196.697C235.777 228.529 202.921 247.267 171.102 238.552C139.282 229.836 120.553 196.966 129.264 165.134Z" fill="white"/>
<path d="M207.587 271.829C203.305 271.829 199.301 269.474 197.244 265.504L192.486 256.319C188.547 256.613 184.504 256.583 180.46 256.233L175.589 265.386C173.001 270.249 167.484 272.629 162.174 271.173C156.863 269.718 153.328 264.859 153.578 259.357L154.048 248.998C150.388 247.237 146.894 245.203 143.653 242.943L134.881 248.421C130.211 251.339 124.243 250.64 120.372 246.724C116.5 242.807 115.867 236.831 118.834 232.19L124.42 223.45C122.171 220.141 120.173 216.634 118.472 213.01L108.108 213.368C102.602 213.559 97.7861 209.969 96.39 204.64C94.9939 199.311 97.4322 193.819 102.323 191.283L111.503 186.523C111.21 182.58 111.24 178.536 111.59 174.491L102.441 169.621C97.5797 167.032 95.2004 161.514 96.6555 156.201C98.1106 150.888 102.966 147.351 108.467 147.6L118.82 148.071C120.578 144.412 122.613 140.916 124.873 137.672L119.396 128.897C116.48 124.223 117.178 118.254 121.093 114.381C125.008 110.508 130.982 109.874 135.621 112.843L144.357 118.431C147.665 116.181 151.173 114.18 154.793 112.481L154.435 102.112C154.244 96.6057 157.833 91.7861 163.16 90.3895C168.485 88.9928 173.977 91.432 176.509 96.3244L181.268 105.509C185.21 105.216 189.253 105.245 193.294 105.596L198.163 96.4424C200.75 91.5796 206.266 89.1993 211.577 90.655C216.888 92.1107 220.424 96.9696 220.174 102.472L219.704 112.831C223.36 114.589 226.854 116.624 230.096 118.886L238.868 113.407C243.54 110.49 249.506 111.188 253.378 115.105C257.25 119.021 257.883 124.998 254.916 129.638L249.329 138.378C251.579 141.687 253.579 145.197 255.278 148.816L265.64 148.458C271.15 148.271 275.962 151.857 277.358 157.186C278.754 162.515 276.314 168.008 271.425 170.543L262.244 175.304C262.537 179.244 262.508 183.289 262.158 187.335L271.307 192.206C276.168 194.795 278.547 200.312 277.094 205.626C275.639 210.939 270.778 214.476 265.28 214.226L254.928 213.756C253.168 217.417 251.132 220.913 248.875 224.154L254.351 232.93C257.267 237.602 256.569 243.572 252.654 247.446C248.739 251.319 242.766 251.952 238.127 248.984L229.39 243.395C226.085 245.644 222.577 247.644 218.957 249.346L219.315 259.713C219.504 265.219 215.917 270.038 210.59 271.435C209.587 271.699 208.577 271.825 207.584 271.825L207.587 271.829ZM192.743 255.413C192.909 255.413 193.06 255.503 193.137 255.653L198.031 265.097C200.373 269.617 205.448 271.874 210.37 270.581C215.294 269.291 218.609 264.835 218.434 259.746L218.066 249.086C218.06 248.909 218.161 248.744 218.322 248.669C222.082 246.92 225.719 244.845 229.137 242.5C229.282 242.4 229.477 242.396 229.626 242.492L238.609 248.24C242.897 250.983 248.419 250.398 252.037 246.818C255.655 243.238 256.3 237.72 253.606 233.4L247.974 224.377C247.88 224.225 247.886 224.032 247.988 223.887C250.34 220.541 252.45 216.915 254.261 213.111C254.338 212.949 254.501 212.849 254.682 212.859L265.328 213.343C270.405 213.573 274.902 210.306 276.247 205.396C277.59 200.484 275.391 195.383 270.898 192.991L261.491 187.98C261.334 187.896 261.242 187.727 261.257 187.549C261.637 183.354 261.666 179.158 261.348 175.08C261.334 174.903 261.428 174.733 261.586 174.651L271.026 169.755C275.545 167.412 277.8 162.334 276.508 157.411C275.218 152.485 270.753 149.17 265.678 149.343L255.022 149.711C254.837 149.715 254.68 149.617 254.605 149.455C252.859 145.696 250.784 142.057 248.439 138.636C248.338 138.488 248.334 138.296 248.431 138.146L254.176 129.16C256.917 124.872 256.333 119.346 252.755 115.726C249.174 112.107 243.66 111.462 239.342 114.157L230.321 119.791C230.169 119.885 229.976 119.879 229.831 119.777C226.482 117.422 222.858 115.311 219.061 113.502C218.9 113.425 218.802 113.26 218.809 113.081L219.293 102.428C219.523 97.3414 216.257 92.8504 211.349 91.5068C206.439 90.1613 201.34 92.3625 198.949 96.8575L193.943 106.27C193.858 106.428 193.689 106.52 193.512 106.502C189.322 106.123 185.128 106.093 181.048 106.412C180.871 106.426 180.701 106.333 180.621 106.174L175.727 96.7296C173.385 92.2091 168.31 89.9527 163.388 91.2452C158.464 92.5356 155.149 96.9912 155.324 102.08L155.691 112.74C155.697 112.917 155.597 113.083 155.436 113.157C151.678 114.904 148.038 116.98 144.621 119.324C144.473 119.425 144.281 119.429 144.131 119.332L135.149 113.584C130.86 110.842 125.339 111.426 121.721 115.006C118.103 118.587 117.458 124.105 120.151 128.424L125.783 137.448C125.878 137.599 125.872 137.792 125.769 137.938C123.418 141.286 121.306 144.911 119.497 148.714C119.42 148.875 119.253 148.973 119.076 148.966L108.43 148.482C103.345 148.253 98.8558 151.519 97.5108 156.429C96.1659 161.339 98.3662 166.44 102.859 168.834L112.268 173.844C112.426 173.929 112.518 174.098 112.502 174.275C112.123 178.469 112.093 182.665 112.412 186.745C112.426 186.922 112.331 187.091 112.174 187.174L102.733 192.07C98.2148 194.413 95.9594 199.49 97.2513 204.414C98.5412 209.34 103.009 212.658 108.082 212.481L118.738 212.113C118.923 212.107 119.08 212.208 119.155 212.369C120.903 216.13 122.977 219.77 125.321 223.189C125.421 223.336 125.425 223.529 125.329 223.678L119.583 232.664C116.84 236.953 117.426 242.479 121.005 246.098C124.584 249.718 130.099 250.363 134.417 247.666L143.437 242.032C143.588 241.938 143.781 241.943 143.927 242.046C147.271 244.398 150.895 246.509 154.698 248.321C154.86 248.398 154.958 248.563 154.95 248.742L154.466 259.394C154.236 264.481 157.502 268.972 162.41 270.316C167.32 271.661 172.417 269.46 174.81 264.967L179.819 255.554C179.903 255.397 180.07 255.304 180.249 255.322C184.443 255.702 188.638 255.731 192.712 255.411C192.724 255.411 192.736 255.411 192.747 255.411L192.743 255.413ZM186.972 241.143C181.637 241.143 176.269 240.427 170.986 238.979C155.483 234.732 142.56 224.699 134.6 210.73C126.64 196.762 124.593 180.527 128.839 165.018C133.084 149.509 143.113 136.58 157.076 128.617C171.039 120.652 187.267 118.606 202.77 122.853C218.273 127.101 231.196 137.133 239.155 151.102C247.117 165.071 249.162 181.306 244.917 196.817C240.671 212.326 230.643 225.254 216.68 233.217C207.475 238.465 197.288 241.145 186.972 241.145V241.143ZM186.783 121.575C176.619 121.575 166.581 124.215 157.512 129.386C143.754 137.233 133.873 149.971 129.69 165.252C125.508 180.533 127.523 196.53 135.367 210.292C143.211 224.056 155.943 233.941 171.218 238.125C186.492 242.309 202.483 240.293 216.239 232.446C229.998 224.599 239.879 211.862 244.061 196.581C248.244 181.3 246.228 165.303 238.385 151.541C230.541 137.776 217.809 127.891 202.534 123.707C197.327 122.281 192.038 121.575 186.783 121.575Z" fill="#020D3A"/>
<path d="M110.531 125.438C110.531 125.438 109.609 113.755 109.184 110.604C108.702 107.02 113.897 110.771 114.837 121.793L110.533 125.438H110.531Z" fill="white"/>
<path d="M110.531 125.88C110.474 125.88 110.415 125.868 110.36 125.847C110.207 125.784 110.102 125.638 110.089 125.473C110.079 125.357 109.161 113.766 108.744 110.662C108.636 109.86 108.773 109.307 109.155 109.024C109.324 108.898 109.688 108.725 110.246 108.974C111.949 109.74 114.635 114.211 115.276 121.755C115.288 121.899 115.231 122.038 115.121 122.131L110.816 125.776C110.736 125.845 110.633 125.88 110.531 125.88ZM109.703 109.732C109.703 109.732 109.688 109.732 109.684 109.734C109.652 109.757 109.544 109.966 109.623 110.544C109.977 113.17 110.681 121.779 110.903 124.542L114.373 121.604C113.74 114.679 111.394 110.739 110.049 109.875C109.863 109.755 109.747 109.732 109.701 109.732H109.703Z" fill="#020D3A"/>
<path d="M104.227 179.584C104.227 179.584 111.199 141.316 111.288 140.044C111.353 139.123 111.225 138.202 110.918 137.331C110.021 134.784 108.165 129.336 108.148 127.816C108.13 126.254 109.473 125.062 110.069 124.609C110.423 124.342 110.761 124.055 111.097 123.763L114.228 121.057C115.006 120.417 115.386 119.361 116.457 119.52C118.502 119.823 119.102 123.331 119.102 123.331C119.102 123.331 121.082 121.767 122.162 122.512C123.241 123.26 125.058 128.711 122.494 134.309C119.93 139.908 119.179 137.339 118.978 143.148C118.9 145.469 119.283 167.476 119.283 167.476C119.283 169.299 121.224 170.47 122.836 169.616L136.701 162.275L141.32 185.762L116.585 191.408C109.418 193.045 102.911 186.821 104.225 179.584H104.227Z" fill="white"/>
<path d="M114.298 192.11C111.578 192.11 108.935 191.071 106.922 189.144C104.318 186.653 103.148 183.049 103.791 179.504C106.202 166.277 110.778 140.999 110.847 140.014C110.908 139.154 110.792 138.302 110.501 137.48C109.464 134.537 107.722 129.369 107.704 127.823C107.685 126.057 109.163 124.741 109.803 124.259C110.156 123.991 110.495 123.702 110.809 123.431L113.94 120.724C114.156 120.547 114.343 120.328 114.524 120.118C115 119.565 115.54 118.938 116.526 119.083C118.281 119.343 119.088 121.483 119.39 122.596C120.144 122.126 121.473 121.497 122.419 122.15C123.803 123.106 125.459 128.913 122.902 134.496C121.882 136.725 121.143 137.685 120.604 138.385C119.833 139.388 119.544 139.762 119.428 143.165C119.349 145.449 119.729 167.249 119.733 167.469C119.733 168.178 120.091 168.811 120.69 169.171C121.29 169.531 122.018 169.553 122.635 169.224L136.5 161.883C136.624 161.818 136.771 161.814 136.897 161.875C137.023 161.936 137.113 162.052 137.141 162.189L141.76 185.677C141.807 185.911 141.658 186.142 141.424 186.195L116.689 191.84C115.894 192.021 115.094 192.11 114.3 192.11H114.298ZM104.662 179.664C104.073 182.915 105.146 186.22 107.533 188.504C109.921 190.788 113.269 191.713 116.49 190.977L140.806 185.426L136.386 162.945L123.048 170.007C122.153 170.481 121.099 170.452 120.232 169.93C119.365 169.407 118.846 168.49 118.846 167.477C118.83 166.586 118.462 145.441 118.541 143.136C118.661 139.616 118.964 139.064 119.9 137.846C120.413 137.179 121.117 136.264 122.094 134.128C124.674 128.496 122.686 123.415 121.913 122.88C121.3 122.455 119.941 123.236 119.379 123.68C119.257 123.777 119.092 123.802 118.946 123.747C118.801 123.692 118.694 123.562 118.669 123.409C118.515 122.522 117.808 120.169 116.396 119.96C115.914 119.89 115.652 120.163 115.194 120.696C114.988 120.936 114.775 121.182 114.51 121.402L111.389 124.103C111.065 124.385 110.713 124.684 110.339 124.967C109.808 125.368 108.577 126.452 108.593 127.815C108.605 128.836 109.631 132.342 111.338 137.189C111.669 138.125 111.8 139.097 111.732 140.079C111.641 141.359 104.95 178.098 104.664 179.666L104.662 179.664Z" fill="#020D3A"/>
<path d="M114.537 133.734C114.124 133.734 113.763 133.643 113.47 133.492C112.669 133.083 112.276 132.205 112.443 131.202C112.809 128.999 114.272 127.807 114.335 127.757C114.526 127.604 114.805 127.636 114.958 127.826C115.112 128.017 115.08 128.296 114.889 128.45C114.878 128.46 113.627 129.493 113.318 131.35C113.214 131.977 113.417 132.471 113.877 132.705C114.512 133.031 115.774 132.888 117.239 131.412C119.642 128.995 118.641 123.245 118.631 123.186C118.588 122.946 118.747 122.716 118.989 122.672C119.231 122.629 119.459 122.788 119.504 123.03C119.55 123.284 120.594 129.296 117.87 132.038C116.63 133.287 115.46 133.736 114.543 133.736L114.537 133.734Z" fill="#020D3A"/>
<path d="M264.004 245.852C260.719 243.983 259.409 242.482 258.192 239.39C258.192 239.39 251.414 217.893 246.115 204.404C243.995 199.006 239.246 188.895 234.419 178.919L217.274 188.493C217.091 188.596 216.92 188.71 216.757 188.832C225.169 202.907 240.619 228.706 242.264 231.088C242.264 231.088 250.676 243.531 250.267 249.987C250.008 254.067 251.597 261.597 257.62 265.817C258.878 266.698 260.522 265.344 259.893 263.942C259.883 263.92 259.873 263.897 259.861 263.875C258.923 261.89 257.254 259.386 257.254 259.386C257.254 259.386 260.546 259.417 263.987 262.132C267.428 264.847 274.737 269.712 276.251 268.077C278.847 265.274 277.301 253.414 264.002 245.854L264.004 245.852Z" fill="white"/>
<path d="M275.319 268.835C271.819 268.835 264.091 262.776 263.715 262.479C261.485 260.72 259.307 260.128 258.135 259.929C258.707 260.834 259.637 262.363 260.264 263.687L260.298 263.761C260.667 264.588 260.453 265.497 259.749 266.077C259.043 266.659 258.109 266.7 257.368 266.179C250.877 261.631 249.597 253.581 249.827 249.958C250.222 243.726 241.983 231.459 241.898 231.335C240.264 228.968 225.206 203.83 216.377 189.057C216.261 188.862 216.31 188.612 216.491 188.476C216.682 188.333 216.867 188.211 217.059 188.104L234.204 178.53C234.31 178.471 234.436 178.458 234.552 178.495C234.668 178.532 234.765 178.615 234.818 178.725C240.768 191.02 244.708 199.605 246.527 204.241C251.77 217.59 258.546 239.04 258.614 239.255C259.8 242.268 261.061 243.669 264.224 245.465C275.15 251.675 277.216 260.03 277.59 262.441C277.991 265.038 277.613 267.255 276.579 268.372C276.284 268.691 275.85 268.831 275.321 268.831L275.319 268.835ZM257.256 258.942H257.26C257.399 258.942 260.742 259.007 264.262 261.783C268.967 265.493 274.914 268.868 275.928 267.773C276.768 266.866 277.069 264.875 276.715 262.579C276.357 260.266 274.367 252.252 263.786 246.238C260.453 244.344 259.051 242.782 257.781 239.552C257.702 239.308 250.936 217.885 245.703 204.566C243.912 200.004 240.05 191.582 234.224 179.534L217.49 188.88C217.443 188.905 217.398 188.933 217.35 188.962C226.201 203.771 241.019 228.508 242.63 230.837C242.98 231.354 251.125 243.482 250.71 250.017C250.491 253.467 251.707 261.133 257.875 265.455C258.369 265.801 258.876 265.652 259.185 265.394C259.493 265.138 259.735 264.672 259.489 264.123L259.464 264.07C258.548 262.135 256.902 259.656 256.886 259.632C256.796 259.497 256.788 259.32 256.864 259.176C256.941 259.032 257.091 258.944 257.254 258.944L257.256 258.942Z" fill="#020D3A"/>
<path d="M129.856 161.02L133.509 156.916C139.699 150.039 147.492 144.804 156.195 141.679L162.143 139.542C162.605 139.375 196.438 135.899 207.932 139.702C215.109 142.076 224.489 147.629 237.254 173.494C238.196 175.404 237.437 177.819 235.581 178.856L216.865 189.308C215.237 190.216 215.278 192.264 215.522 194.115L221.083 224.233C221.401 225.958 220.664 227.718 219.189 228.668C214.547 231.661 201 236.311 171.344 231.541C164.399 230.423 158.824 225.192 157.243 218.329L151.808 194.749C151.47 192.754 148.741 191.776 146.627 191.316C145.439 191.058 144.222 191.035 143.011 191.117C140.458 191.292 138.038 189.717 137.222 187.191L128.943 166.054C128.271 164.338 128.625 162.389 129.858 161.02H129.856Z" fill="white"/>
<path d="M194.372 234.024C188.113 234.024 180.493 233.461 171.271 231.978C164.117 230.827 158.44 225.508 156.808 218.428L151.373 194.848C151.059 192.998 148.204 192.113 146.528 191.749C145.508 191.527 144.399 191.468 143.036 191.56C140.232 191.751 137.662 190.012 136.795 187.329L128.526 166.216C127.789 164.331 128.17 162.226 129.523 160.723L133.175 156.622C139.392 149.713 147.299 144.402 156.041 141.262L161.988 139.126C162.206 139.047 196.352 135.406 208.065 139.281C215.626 141.781 225.051 147.779 237.645 173.297C238.693 175.42 237.862 178.087 235.789 179.242L217.073 189.694C215.683 190.471 215.726 192.336 215.952 194.057L221.511 224.15C221.865 226.072 221.047 227.992 219.423 229.039C217.197 230.473 210.081 234.022 194.368 234.022L194.372 234.024ZM144.204 190.632C145.124 190.632 145.942 190.715 146.719 190.884C149.031 191.387 151.867 192.454 152.242 194.674L157.673 218.229C159.225 224.955 164.617 230.009 171.414 231.102C203.478 236.26 215.903 230.258 218.949 228.295C220.27 227.443 220.935 225.882 220.646 224.314L215.085 194.196C214.818 192.157 214.796 189.955 216.648 188.921L235.364 178.469C237.03 177.539 237.698 175.394 236.857 173.689C224.408 148.464 215.178 142.564 207.792 140.121C196.719 136.458 163.512 139.698 162.255 139.97L156.344 142.094C147.739 145.185 139.959 150.411 133.839 157.21L130.188 161.311C129.061 162.565 128.742 164.317 129.356 165.887L137.634 187.024C138.385 189.345 140.58 190.835 142.981 190.669C143.412 190.64 143.819 190.626 144.206 190.626L144.204 190.632Z" fill="#020D3A"/>
<path d="M192.291 188.179C192.197 188.179 192.102 188.15 192.022 188.089C184.176 182.081 181.834 175.477 181.739 175.198C181.659 174.968 181.783 174.714 182.013 174.636C182.243 174.555 182.497 174.679 182.575 174.909C182.599 174.974 184.939 181.55 192.558 187.385C192.753 187.534 192.79 187.812 192.641 188.006C192.554 188.12 192.423 188.179 192.289 188.179H192.291Z" fill="#020D3A"/>
<path d="M164.38 187.233C164.247 187.233 164.113 187.172 164.027 187.056C158.078 179.16 157.595 172.17 157.577 171.875C157.563 171.631 157.748 171.421 157.992 171.407C158.24 171.393 158.446 171.578 158.462 171.822C158.466 171.891 158.959 178.855 164.736 186.523C164.884 186.718 164.845 186.995 164.65 187.143C164.569 187.204 164.477 187.231 164.384 187.231L164.38 187.233Z" fill="#020D3A"/>
<path d="M192.438 155.388C173.573 163.896 162.203 147.112 162.203 147.112C161.889 146.764 161.541 146.461 161.167 146.201L161.328 146.144C161.545 146.068 161.759 145.989 161.971 145.906C170.395 142.649 175.751 134.302 175.545 125.261L175.427 120.068L189.532 119.92C189.532 119.92 189.903 138.921 196.414 139.063L200.012 139.484C202.704 145.641 198.768 152.532 192.44 155.386L192.438 155.388Z" fill="white"/>
<path d="M182.014 158.22C169.683 158.22 162.296 148.01 161.857 147.389C161.576 147.082 161.259 146.807 160.915 146.567C160.779 146.472 160.707 146.309 160.728 146.144C160.75 145.978 160.864 145.841 161.019 145.786L161.181 145.729C161.393 145.654 161.603 145.575 161.812 145.494C169.966 142.341 175.307 134.215 175.102 125.274L174.984 120.081C174.982 119.963 175.026 119.849 175.108 119.762C175.191 119.677 175.303 119.628 175.423 119.626L189.528 119.479C189.768 119.479 189.97 119.67 189.974 119.914C190.076 125.079 191.433 138.513 196.422 138.621L200.061 139.046C200.219 139.064 200.352 139.164 200.415 139.308C203.381 146.089 198.779 153.013 192.619 155.793C188.773 157.528 185.223 158.22 182.012 158.22H182.014ZM162.064 146.348C162.229 146.496 162.384 146.653 162.533 146.816C162.547 146.832 162.561 146.848 162.571 146.866C162.598 146.907 165.438 151.038 170.503 154.081C177.265 158.143 184.584 158.448 192.255 154.988C197.951 152.419 202.242 146.102 199.704 139.9L196.361 139.508C190.041 139.373 189.201 123.328 189.101 120.374L175.879 120.512L175.987 125.256C176.2 134.571 170.631 143.037 162.13 146.325C162.107 146.334 162.085 146.342 162.062 146.352L162.064 146.348Z" fill="#020D3A"/>
<path d="M175.489 120.806L174.771 111.272C174.421 106.619 178.042 102.626 182.7 102.526L194.946 102.262C194.946 102.262 195.896 108.24 199.093 111.059L197.664 113.746L196.252 118.688C195.943 119.764 195.06 120.584 193.961 120.791L186.577 120.797L175.491 120.806H175.489Z" fill="white"/>
<path d="M175.489 121.249C175.259 121.249 175.066 121.071 175.048 120.839L174.331 111.305C174.152 108.93 174.934 106.654 176.531 104.892C178.128 103.131 180.314 102.134 182.69 102.082L194.936 101.819C195.153 101.811 195.347 101.974 195.383 102.193C195.392 102.252 196.346 108.049 199.386 110.728C199.539 110.864 199.581 111.088 199.484 111.269L198.076 113.915L196.676 118.811C196.319 120.064 195.31 120.989 194.042 121.229C194.014 121.235 193.986 121.237 193.961 121.237L186.577 121.243C186.333 121.243 186.135 121.044 186.135 120.8C186.135 120.556 186.333 120.357 186.577 120.357L193.918 120.352C194.836 120.165 195.563 119.484 195.825 118.569L197.237 113.628C197.245 113.598 197.257 113.569 197.272 113.541L198.541 111.157C195.888 108.598 194.838 104.067 194.576 102.718L182.707 102.974C180.578 103.019 178.617 103.914 177.186 105.492C175.752 107.071 175.052 109.113 175.212 111.242L175.929 120.776C175.947 121.02 175.764 121.233 175.52 121.25C175.509 121.25 175.497 121.25 175.487 121.25L175.489 121.249Z" fill="#020D3A"/>
<path d="M184.335 143.801C183.935 143.801 183.497 143.752 183.023 143.632C182.785 143.571 182.642 143.331 182.702 143.093C182.763 142.855 183.003 142.711 183.241 142.772C185.284 143.29 186.442 142.223 186.454 142.212C186.633 142.044 186.912 142.052 187.08 142.229C187.247 142.406 187.239 142.688 187.062 142.855C187.013 142.902 186.037 143.799 184.335 143.799V143.801Z" fill="#020D3A"/>
<path d="M197.382 101.536L191.225 104.804C187.611 106.722 185.129 110.255 184.563 114.311C183.771 119.982 183.092 129.806 177.693 138.096C173.512 144.513 166.455 148.479 158.818 148.961C153.784 149.279 147.83 151.185 144.648 154.404C144.648 154.404 134.521 141.147 144.695 129.509C154.869 117.874 168.248 118.631 170.885 106.279C173.408 94.4584 187.815 85.6986 197.979 98.6268C198.727 99.577 198.451 100.968 197.386 101.532L197.382 101.536Z" fill="#020D3A"/>
<path d="M278.068 127.987C278.068 127.987 271.998 128.211 264.494 128.182C262.915 128.176 258.682 123.107 255.962 123.966C254.009 124.584 257.702 127.909 257.195 127.907C252.385 127.887 248.234 127.869 246.73 127.861C245.552 127.855 245.157 129.061 245.645 130.135C246.343 131.67 247.865 133.995 250.382 134.805C254.881 136.255 263.564 135.602 266.25 135.081C272.12 133.94 276.776 133.853 276.776 133.853L278.07 127.987H278.068Z" fill="white"/>
<path d="M258.147 136.135C255.299 136.135 252.35 135.905 250.244 135.226C247.31 134.28 245.766 131.479 245.239 130.318C244.897 129.565 244.917 128.735 245.292 128.154C245.603 127.676 246.128 127.413 246.73 127.417C248.155 127.425 251.956 127.442 256.444 127.46C256.424 127.435 256.404 127.411 256.387 127.385C255.679 126.475 254.709 125.225 254.996 124.305C255.075 124.051 255.284 123.713 255.828 123.541C257.704 122.949 260.06 124.732 261.951 126.164C262.925 126.899 264.026 127.735 264.494 127.737C271.903 127.765 277.989 127.545 278.05 127.543C278.188 127.537 278.317 127.596 278.406 127.702C278.494 127.806 278.528 127.948 278.498 128.082L277.204 133.948C277.161 134.148 276.984 134.292 276.78 134.296C276.733 134.296 272.09 134.396 266.331 135.514C264.856 135.801 261.576 136.133 258.145 136.133L258.147 136.135ZM246.718 128.304C246.409 128.304 246.179 128.416 246.036 128.636C245.825 128.961 245.829 129.476 246.046 129.95C246.525 131.005 247.92 133.545 250.515 134.383C254.941 135.809 263.613 135.14 266.163 134.644C271.091 133.686 275.218 133.466 276.414 133.421L277.509 128.45C275.824 128.503 270.607 128.65 264.488 128.625C263.725 128.621 262.705 127.85 261.415 126.872C259.684 125.562 257.531 123.933 256.092 124.387C255.873 124.456 255.848 124.541 255.838 124.57C255.689 125.048 256.666 126.305 257.083 126.842C257.598 127.507 257.793 127.755 257.631 128.082C257.551 128.247 257.382 128.349 257.191 128.349H257.189C252.379 128.33 248.226 128.312 246.724 128.304H246.716H246.718Z" fill="#020D3A"/>
<path d="M267.914 126.528C273.17 126.662 285.526 126.233 290.409 119.692C293.01 122.954 295.421 126.379 298.07 129.599C298.827 130.52 299.773 130.665 300.595 130.354C301.737 132.817 302.673 135.367 303.489 137.961C290.375 140.442 273.363 138.518 267.595 137.733C266.439 137.576 265.576 136.592 265.564 135.426L265.509 128.899C265.497 127.571 266.586 126.497 267.914 126.53V126.528Z" fill="#020D3A"/>
<path d="M198.261 53.1759L202.17 55.2572C202.01 57.0099 201.999 58.7508 202.132 60.4682L198.209 62.5022C196.269 63.5094 195.283 65.7264 195.838 67.8411C196.392 69.9558 198.337 71.4056 200.522 71.3308L204.95 71.1774C205.682 72.7531 206.545 74.2658 207.526 75.6999L205.139 79.4336C203.961 81.2748 204.217 83.6885 205.754 85.2426C207.292 86.7966 209.701 87.0799 211.555 85.9213L215.303 83.5803C216.711 84.5698 218.217 85.4472 219.804 86.2026L219.603 90.6267C219.505 92.8122 220.931 94.7735 223.039 95.3499C225.146 95.9282 227.374 94.9663 228.401 93.0365L230.481 89.1258C232.233 89.2831 233.973 89.2969 235.69 89.1631L237.723 93.0876C238.73 95.0292 240.946 96.0148 243.06 95.46C245.174 94.9053 246.623 92.9598 246.548 90.7742L246.395 86.3462C247.97 85.6144 249.482 84.7508 250.916 83.7692L254.648 86.1573C256.488 87.3356 258.901 87.0799 260.454 85.5416C262.008 84.0033 262.291 81.5935 261.133 79.7385L258.793 75.9891C259.782 74.5806 260.659 73.0737 261.414 71.4862L265.836 71.6869C268.019 71.7852 269.981 70.3591 270.558 68.2503C271.136 66.1415 270.174 63.9127 268.245 62.8858L264.336 60.8046C264.495 59.0518 264.507 57.3109 264.373 55.5935L268.296 53.5595C270.237 52.5523 271.222 50.3353 270.668 48.2206C270.113 46.1059 268.168 44.6561 265.984 44.7309L261.558 44.8843C260.826 43.3086 259.963 41.7959 258.982 40.3618L261.369 36.6282C262.547 34.7869 262.291 32.3732 260.753 30.8191C259.216 29.2651 256.807 28.9818 254.953 30.1405L251.205 32.4814C249.797 31.4919 248.291 30.6145 246.704 29.8592L246.904 25.433C247.003 23.2495 245.577 21.2863 243.469 20.7099C241.361 20.1315 239.133 21.0935 238.107 23.0233L236.026 26.934C234.274 26.7746 232.532 26.7628 230.817 26.8966L228.784 22.9721C227.777 21.0305 225.561 20.045 223.448 20.5997C221.334 21.1545 219.885 23.1 219.961 25.2855L220.115 29.7156C218.54 30.4473 217.027 31.3109 215.594 32.2925L211.862 29.9044C210.021 28.7261 207.609 28.9818 206.055 30.5201C204.502 32.0584 204.219 34.4682 205.377 36.3232L207.717 40.0727C206.728 41.4811 205.851 42.988 205.096 44.5755L200.673 44.3748C198.491 44.2765 196.528 45.7027 195.952 47.8115C195.374 49.9203 196.335 52.149 198.264 53.1759H198.261ZM209.317 51.4743C212.937 38.2491 226.588 30.465 239.806 34.0846C253.026 37.7062 260.806 51.3622 257.186 64.5854C253.566 77.8107 239.916 85.5947 226.698 81.9732C213.478 78.3516 205.697 64.6956 209.317 51.4723V51.4743Z" fill="#20E086"/>
<path d="M241.856 96.0601C239.983 96.0601 238.231 95.0293 237.33 93.2923L235.43 89.6275C233.891 89.7337 232.314 89.7219 230.735 89.594L228.792 93.247C227.659 95.3755 225.245 96.4161 222.922 95.7788C220.598 95.1414 219.051 93.0149 219.161 90.6071L219.348 86.4741C217.924 85.7797 216.559 84.985 215.289 84.1096L211.789 86.2951C209.746 87.5718 207.135 87.2669 205.44 85.5515C203.745 83.8381 203.469 81.2218 204.767 79.1917L206.997 75.7039C206.126 74.4075 205.345 73.0384 204.675 71.6279L200.539 71.7715C198.127 71.8561 196.023 70.2844 195.411 67.9533C194.8 65.6222 195.867 63.2183 198.007 62.1089L201.67 60.2086C201.564 58.6663 201.576 57.0887 201.703 55.509L198.052 53.5655C195.924 52.4324 194.884 50.0187 195.521 47.6935C196.158 45.3683 198.28 43.8221 200.691 43.9303L204.822 44.1172C205.516 42.693 206.309 41.3297 207.186 40.057L205.001 36.5554C203.725 34.5096 204.03 31.8992 205.744 30.2035C207.457 28.5078 210.072 28.2324 212.102 29.5307L215.588 31.7615C216.884 30.89 218.252 30.1091 219.662 29.4383L219.519 25.3013C219.436 22.8915 221.005 20.7827 223.335 20.171C225.665 19.5592 228.068 20.6273 229.177 22.7676L231.077 26.4324C232.619 26.3262 234.196 26.338 235.775 26.4659L237.717 22.8148C238.85 20.6864 241.263 19.6457 243.587 20.2811C245.911 20.9185 247.459 23.045 247.348 25.4528L247.162 29.5858C248.585 30.2802 249.948 31.073 251.22 31.9503L254.72 29.7648C256.765 28.4881 259.375 28.793 261.07 30.5084C262.765 32.2218 263.042 34.8381 261.742 36.8682L259.512 40.356C260.383 41.6524 261.164 43.0215 261.835 44.4319L265.97 44.2883C268.387 44.2057 270.487 45.7755 271.098 48.1066C271.71 50.4377 270.642 52.8416 268.503 53.951L264.839 55.8513C264.945 57.3936 264.934 58.9712 264.806 60.5509L268.455 62.4944C270.583 63.6275 271.623 66.0412 270.988 68.3664C270.351 70.6916 268.221 72.2397 265.818 72.1296L261.687 71.9427C260.993 73.3669 260.199 74.7321 259.324 76.0029L261.508 79.5045C262.784 81.5483 262.48 84.1607 260.767 85.8564C259.054 87.5521 256.439 87.8295 254.41 86.5292L250.923 84.2984C249.628 85.1699 248.259 85.9508 246.849 86.6216L246.993 90.7586C247.075 93.1684 245.506 95.2771 243.174 95.8889C242.735 96.003 242.293 96.0601 241.858 96.0601H241.856ZM235.69 88.7226C235.855 88.7226 236.007 88.8131 236.083 88.9626L238.116 92.887C239.033 94.6575 241.021 95.5407 242.948 95.0352C244.875 94.5296 246.173 92.7848 246.106 90.794L245.952 86.3659C245.946 86.1889 246.047 86.0236 246.208 85.9489C247.758 85.2289 249.256 84.3732 250.664 83.4073C250.809 83.307 251.004 83.303 251.153 83.3994L254.886 85.7876C256.565 86.8616 258.726 86.6334 260.144 85.2309C261.559 83.8283 261.813 81.6683 260.757 79.9785L258.417 76.2291C258.323 76.0777 258.329 75.8849 258.431 75.7393C259.4 74.3603 260.269 72.8672 261.015 71.2994C261.091 71.1381 261.259 71.0398 261.435 71.0476L265.858 71.2483C267.844 71.3388 269.606 70.0601 270.133 68.1362C270.66 66.2143 269.798 64.2157 268.038 63.2793L264.129 61.1981C263.972 61.1135 263.88 60.9443 263.895 60.7672C264.051 59.0381 264.064 57.3109 263.933 55.631C263.919 55.4539 264.013 55.2848 264.171 55.2022L268.094 53.1681C269.863 52.2514 270.746 50.2626 270.239 48.3348C269.733 46.407 267.997 45.1087 265.999 45.1755L261.573 45.329C261.392 45.3349 261.231 45.2345 261.156 45.0732C260.437 43.5231 259.581 42.0241 258.616 40.6157C258.515 40.4681 258.512 40.2773 258.608 40.1258L260.995 36.3922C262.069 34.7122 261.839 32.5503 260.439 31.1339C259.037 29.7176 256.877 29.4638 255.188 30.5202L251.44 32.8611C251.289 32.9555 251.096 32.9496 250.951 32.8473C249.572 31.8775 248.08 31.008 246.515 30.2625C246.354 30.1858 246.255 30.0205 246.263 29.8415L246.464 25.4154C246.554 23.4246 245.276 21.666 243.353 21.1388C241.432 20.6116 239.434 21.4732 238.498 23.2338L236.418 27.1445C236.333 27.3019 236.162 27.3924 235.987 27.3767C234.26 27.2213 232.534 27.2075 230.853 27.3393C230.676 27.3531 230.507 27.2606 230.424 27.1013L228.391 23.1768C227.475 21.4063 225.487 20.5231 223.56 21.0286C221.632 21.5342 220.335 23.2791 220.404 25.2698L220.557 29.6999C220.563 29.8769 220.463 30.0422 220.301 30.1169C218.754 30.8369 217.253 31.6926 215.845 32.6585C215.698 32.7588 215.505 32.7628 215.356 32.6664L211.624 30.2782C209.944 29.2042 207.783 29.4324 206.366 30.8349C204.95 32.2375 204.696 34.3975 205.752 36.0873L208.092 39.8367C208.187 39.9881 208.181 40.1809 208.078 40.3265C207.109 41.7055 206.24 43.1985 205.495 44.7664C205.418 44.9277 205.251 45.026 205.074 45.0182L200.65 44.8175C198.654 44.727 196.902 46.0057 196.375 47.9296C195.848 49.8515 196.709 51.8501 198.469 52.7865L202.378 54.8677C202.535 54.9523 202.628 55.1215 202.612 55.2985C202.457 57.0277 202.443 58.7548 202.575 60.4348C202.588 60.6118 202.494 60.781 202.337 60.8636L198.414 62.8977C196.644 63.8144 195.761 65.8032 196.266 67.731C196.772 69.6588 198.514 70.9571 200.506 70.8903L204.932 70.7368C205.115 70.7309 205.274 70.8312 205.349 70.9925C206.069 72.5427 206.924 74.0416 207.89 75.4501C207.99 75.5977 207.994 75.7905 207.897 75.94L205.51 79.6736C204.437 81.3536 204.665 83.5155 206.067 84.9338C207.469 86.3521 209.628 86.6039 211.317 85.5476L215.065 83.2066C215.216 83.1122 215.409 83.1181 215.554 83.2204C216.933 84.1902 218.425 85.0597 219.993 85.8053C220.154 85.882 220.252 86.0472 220.244 86.2262L220.044 90.6504C219.953 92.6412 221.231 94.3998 223.154 94.927C225.076 95.4542 227.073 94.5926 228.009 92.832L230.09 88.9212C230.174 88.7639 230.345 88.6714 230.52 88.6891C232.249 88.8445 233.977 88.8583 235.655 88.7265C235.666 88.7265 235.678 88.7265 235.69 88.7265V88.7226ZM233.293 83.3129C231.053 83.3129 228.8 83.0119 226.582 82.404C213.148 78.7235 205.211 64.798 208.89 51.3583C212.568 37.9187 226.489 29.9792 239.924 33.6598C246.43 35.442 251.855 39.6537 255.196 45.5178C258.537 51.3819 259.396 58.1962 257.615 64.7055C255.833 71.2148 251.623 76.6422 245.762 79.9844C241.898 82.1877 237.621 83.3129 233.291 83.3129H233.293ZM209.744 51.5924C206.195 64.5599 213.854 77.9996 226.816 81.5503C233.094 83.2696 239.668 82.4414 245.323 79.2153C250.978 75.9891 255.041 70.7545 256.759 64.4714C258.478 58.1903 257.65 51.6141 254.425 45.9565C251.201 40.2989 245.966 36.2348 239.688 34.5155C226.725 30.9648 213.291 38.6269 209.742 51.5944L209.744 51.5924Z" fill="#020D3A"/>
<mask id="mask1_212_14065" style="mask-type:luminance" maskUnits="userSpaceOnUse" x="211" y="35" width="45" height="46">
<path d="M211.035 57.9775C211.035 45.7162 220.971 35.7761 233.227 35.7761C245.484 35.7761 255.42 45.7162 255.42 57.9775C255.42 70.2388 245.484 80.1789 233.227 80.1789C220.971 80.1789 211.035 70.2388 211.035 57.9775Z" fill="white"/>
</mask>
<g mask="url(#mask1_212_14065)">
<path d="M250.892 73.7065C246.403 77.9871 240.34 80.6349 233.649 80.6703C226.957 80.7057 220.865 78.1208 216.333 73.8875C221.544 72.243 227.4 71.3027 233.6 71.2712C239.798 71.2377 245.665 72.1171 250.892 73.7065Z" fill="#020D3A"/>
<path d="M218.905 56.6399C221.095 48.7457 225.612 38.3945 234.083 39.6673C242.21 40.8889 246.033 49.808 247.791 56.7186C248.858 60.9244 245.653 65.0062 241.315 65.0299L225.409 65.1125C220.973 65.1361 217.719 60.9165 218.907 56.638L218.905 56.6399Z" fill="#020D3A"/>
<path d="M225.917 47.4717C225.921 47.452 225.929 47.4146 225.929 47.4146L240.37 47.3044C240.37 47.3044 240.376 47.3281 240.38 47.3379C240.571 48.0579 240.673 48.8172 240.677 49.6021L240.698 53.8315C240.714 56.6622 239.387 59.1586 237.369 60.6182L237.426 71.6579C237.438 73.8552 235.666 75.6453 233.472 75.6571C231.276 75.6689 229.488 73.8965 229.476 71.7012L229.419 60.8228C227.256 59.4143 225.801 56.8491 225.786 53.9102L225.76 49.1398C225.756 48.5674 225.811 48.0087 225.915 47.4717H225.917Z" fill="white"/>
<path d="M233.45 76.1013C232.278 76.1013 231.177 75.6468 230.343 74.8226C229.504 73.9925 229.039 72.885 229.034 71.7047L228.977 60.9502C228.977 60.7063 229.173 60.5056 229.417 60.5056H229.419C229.663 60.5056 229.861 60.7023 229.861 60.9463L229.918 71.7007C229.924 72.645 230.296 73.5302 230.967 74.1951C231.633 74.8541 232.514 75.218 233.45 75.218C233.456 75.218 233.462 75.218 233.47 75.218C234.414 75.2121 235.298 74.8403 235.963 74.1695C236.628 73.4987 236.989 72.6096 236.986 71.6653L236.93 60.9522C236.93 60.7082 237.127 60.5076 237.371 60.5076H237.373C237.617 60.5076 237.815 60.7043 237.815 60.9482L237.87 71.6614C237.876 72.8417 237.422 73.9551 236.592 74.7931C235.762 75.6331 234.655 76.0973 233.476 76.1052C233.468 76.1052 233.46 76.1052 233.452 76.1052L233.45 76.1013Z" fill="#020D3A"/>
<path d="M233.223 57.2202C232.299 57.2202 231.44 56.8503 230.803 56.1775C230.634 56.0004 230.641 55.7191 230.818 55.5518C230.995 55.3846 231.277 55.3905 231.444 55.5676C231.912 56.0614 232.543 56.3329 233.221 56.3329C233.225 56.3329 233.229 56.3329 233.233 56.3329C233.915 56.329 234.547 56.0535 235.009 55.5558C235.176 55.3767 235.455 55.3669 235.634 55.5322C235.813 55.6994 235.823 55.9788 235.658 56.1578C235.034 56.8267 234.153 57.2143 233.237 57.2183C233.231 57.2183 233.225 57.2183 233.221 57.2183L233.223 57.2202Z" fill="#020D3A"/>
<path d="M233.247 62.4144C228.909 62.4144 225.368 58.6099 225.342 53.9123L225.317 49.1419C225.305 46.9387 226.085 44.8634 227.513 43.2936C228.95 41.7159 230.871 40.8405 232.922 40.8287C235.107 40.8169 237.162 41.7277 238.709 43.3939C240.249 45.0483 241.104 47.2535 241.116 49.6003L241.138 53.8297C241.156 57.164 239.36 60.2249 236.562 61.6275C236.344 61.7377 236.076 61.6492 235.968 61.4308C235.858 61.2124 235.947 60.9449 236.167 60.8367C238.664 59.5856 240.269 56.8375 240.253 53.8356L240.231 49.6062C240.22 47.4817 239.449 45.4909 238.062 43.9978C236.684 42.5166 234.853 41.712 232.928 41.7159C231.129 41.7258 229.438 42.4969 228.17 43.8916C226.892 45.2942 226.194 47.159 226.203 49.138L226.229 53.9084C226.251 58.1181 229.397 61.5292 233.249 61.5292C233.261 61.5292 233.276 61.5292 233.286 61.5292C233.53 61.5292 233.729 61.7259 233.729 61.9698C233.729 62.2137 233.532 62.4144 233.288 62.4144C233.276 62.4144 233.263 62.4144 233.249 62.4144H233.247Z" fill="#020D3A"/>
</g>
<path d="M233.305 80.7246C230.942 80.7246 228.541 80.3509 226.177 79.562C221.071 77.8585 216.735 74.3805 213.966 69.7715C213.84 69.561 213.909 69.2895 214.118 69.1636C214.326 69.0377 214.599 69.1046 214.725 69.3151C217.384 73.7452 221.55 77.0854 226.458 78.7221C237.81 82.5089 250.124 76.3516 253.907 64.9972C257.692 53.6427 251.537 41.3244 240.186 37.5376C234.688 35.7042 228.804 36.1212 223.619 38.714C218.434 41.3067 214.57 45.7643 212.737 51.2644C211.477 55.0453 211.278 59.0859 212.161 62.9494C212.216 63.1874 212.067 63.4254 211.829 63.4805C211.593 63.5356 211.353 63.3861 211.298 63.1481C210.378 59.1252 210.586 54.9194 211.898 50.9851C213.805 45.2607 217.828 40.6221 223.224 37.9232C228.62 35.2242 234.743 34.7895 240.467 36.6996C252.281 40.6398 258.687 53.4618 254.746 65.2805C251.594 74.7366 242.76 80.7286 233.303 80.7286L233.305 80.7246Z" fill="#020D3A"/>
<path d="M148.79 37.225C148.68 37.225 148.57 37.1837 148.483 37.101C148.306 36.9318 148.301 36.6505 148.47 36.4754L150.1 34.7736C150.269 34.5965 150.55 34.5906 150.725 34.7598C150.902 34.929 150.908 35.2103 150.739 35.3854L149.109 37.0873C149.022 37.1778 148.906 37.223 148.788 37.223L148.79 37.225Z" fill="#020D3A"/>
<path d="M143.087 43.182C142.977 43.182 142.867 43.1407 142.78 43.0581C142.603 42.8889 142.597 42.6075 142.767 42.4324L144.397 40.7306C144.566 40.5535 144.847 40.5476 145.022 40.7168C145.199 40.886 145.205 41.1674 145.036 41.3425L143.406 43.0443C143.319 43.1348 143.203 43.18 143.085 43.18L143.087 43.182Z" fill="#020D3A"/>
<path d="M144.686 37.3171C144.574 37.3171 144.462 37.2738 144.375 37.1893L142.722 35.5602C142.547 35.3891 142.545 35.1077 142.716 34.9346C142.887 34.7595 143.168 34.7575 143.343 34.9287L144.997 36.5577C145.172 36.7289 145.174 37.0102 145.003 37.1833C144.916 37.2719 144.802 37.3152 144.686 37.3152V37.3171Z" fill="#020D3A"/>
<path d="M150.475 43.0176C150.363 43.0176 150.251 42.9743 150.164 42.8897L148.511 41.2607C148.336 41.0895 148.334 40.8081 148.505 40.635C148.676 40.4599 148.957 40.4579 149.132 40.6291L150.786 42.2581C150.961 42.4293 150.963 42.7107 150.792 42.8838C150.705 42.9723 150.591 43.0156 150.475 43.0156V43.0176Z" fill="#020D3A"/>
<path d="M405.134 40.2015C405.024 40.2015 404.914 40.1602 404.827 40.0776C404.65 39.9084 404.644 39.627 404.813 39.4519L406.444 37.7501C406.613 37.5731 406.894 37.5672 407.069 37.7364C407.246 37.9055 407.252 38.1869 407.083 38.362L405.452 40.0638C405.366 40.1543 405.25 40.1996 405.132 40.1996L405.134 40.2015Z" fill="#020D3A"/>
<path d="M399.431 46.1588C399.321 46.1588 399.211 46.1175 399.124 46.0349C398.947 45.8657 398.941 45.5843 399.11 45.4092L400.74 43.7074C400.91 43.5303 401.191 43.5244 401.366 43.6936C401.543 43.8628 401.549 44.1442 401.379 44.3193L399.749 46.0211C399.663 46.1116 399.547 46.1568 399.429 46.1568L399.431 46.1588Z" fill="#020D3A"/>
<path d="M401.03 40.2917C400.918 40.2917 400.806 40.2485 400.719 40.1639L399.065 38.5348C398.89 38.3637 398.888 38.0823 399.059 37.9092C399.231 37.7341 399.512 37.7321 399.685 37.9033L401.338 39.5323C401.513 39.7035 401.515 39.9848 401.344 40.158C401.258 40.2465 401.144 40.2898 401.028 40.2898L401.03 40.2917Z" fill="#020D3A"/>
<path d="M406.818 45.9932C406.706 45.9932 406.594 45.9499 406.507 45.8653L404.853 44.2362C404.678 44.0651 404.676 43.7837 404.848 43.6106C405.019 43.4355 405.3 43.4335 405.473 43.6047L407.127 45.2337C407.302 45.4049 407.304 45.6862 407.132 45.8594C407.046 45.9479 406.932 45.9912 406.816 45.9912L406.818 45.9932Z" fill="#020D3A"/>
<path d="M412.24 300.773C412 300.773 411.801 300.58 411.797 300.34L411.746 297.983C411.74 297.739 411.935 297.537 412.179 297.531C412.427 297.521 412.626 297.72 412.632 297.964L412.683 300.321C412.689 300.565 412.494 300.767 412.25 300.773C412.246 300.773 412.244 300.773 412.24 300.773Z" fill="#020D3A"/>
<path d="M412.418 309.018C412.178 309.018 411.979 308.825 411.975 308.585L411.924 306.228C411.918 305.984 412.113 305.782 412.357 305.776C412.601 305.768 412.803 305.965 412.809 306.209L412.86 308.566C412.866 308.81 412.672 309.012 412.428 309.018C412.424 309.018 412.422 309.018 412.418 309.018Z" fill="#020D3A"/>
<path d="M407.082 303.759C406.838 303.759 406.642 303.562 406.64 303.32C406.64 303.076 406.834 302.875 407.078 302.873L409.398 302.856H409.402C409.646 302.856 409.843 303.052 409.845 303.294C409.845 303.538 409.65 303.739 409.406 303.741L407.086 303.759H407.082Z" fill="#020D3A"/>
<path d="M415.205 303.693C414.961 303.693 414.765 303.497 414.763 303.255C414.763 303.011 414.957 302.81 415.201 302.808L417.521 302.79C417.748 302.786 417.966 302.985 417.968 303.229C417.968 303.473 417.773 303.674 417.529 303.676L415.209 303.693H415.205Z" fill="#020D3A"/>
<path d="M114.83 81.0859C114.21 81.0859 113.591 80.9698 112.997 80.7397C111.703 80.2361 110.683 79.2466 110.124 77.9542C108.986 75.3142 110.166 72.2199 112.755 71.0573C114.002 70.4967 115.388 70.4613 116.66 70.957C117.954 71.4606 118.975 72.4501 119.533 73.7425C120.672 76.3824 119.492 79.4768 116.902 80.6393C116.24 80.9364 115.536 81.0859 114.832 81.0859H114.83ZM114.828 71.496C114.246 71.496 113.666 71.6199 113.119 71.8658C110.968 72.8317 109.991 75.4047 110.938 77.604C111.4 78.6761 112.246 79.4984 113.318 79.9135C114.366 80.3207 115.51 80.2912 116.539 79.8308C118.688 78.865 119.667 76.2919 118.719 74.0926C118.257 73.0205 117.412 72.1983 116.34 71.7832C115.85 71.5924 115.339 71.498 114.828 71.498V71.496Z" fill="#020D3A"/>
<path d="M432.408 285.371C431.8 285.371 431.191 285.257 430.607 285.031C429.334 284.537 428.333 283.566 427.787 282.297C426.67 279.706 427.828 276.669 430.369 275.526C431.592 274.977 432.952 274.941 434.203 275.427C435.473 275.921 436.476 276.893 437.023 278.162C438.14 280.752 436.982 283.79 434.439 284.933C433.788 285.226 433.096 285.371 432.406 285.371H432.408ZM430.732 276.334C428.63 277.278 427.673 279.796 428.601 281.947C429.053 282.997 429.881 283.798 430.929 284.207C431.956 284.606 433.074 284.577 434.079 284.126C436.183 283.182 437.139 280.664 436.213 278.514C435.76 277.463 434.933 276.661 433.884 276.254C432.858 275.854 431.739 275.884 430.734 276.336L430.732 276.334Z" fill="#020D3A"/>
<path d="M133.091 359.245C132.412 359.245 131.732 359.119 131.079 358.865C129.659 358.312 128.54 357.229 127.929 355.81C126.68 352.915 127.974 349.519 130.816 348.243C132.182 347.629 133.702 347.59 135.098 348.132C136.518 348.685 137.637 349.769 138.248 351.187C139.497 354.083 138.203 357.478 135.362 358.755C134.634 359.082 133.863 359.247 133.091 359.247V359.245ZM133.087 348.638C132.438 348.638 131.789 348.776 131.177 349.051C128.776 350.129 127.683 353.005 128.741 355.458C129.258 356.656 130.202 357.573 131.4 358.039C132.572 358.495 133.85 358.462 134.998 357.947C137.399 356.869 138.492 353.993 137.434 351.54C136.917 350.342 135.973 349.425 134.776 348.959C134.227 348.746 133.657 348.64 133.087 348.64V348.638Z" fill="#020D3A"/>
<path d="M126.126 51.7923C125.707 51.7923 125.288 51.7136 124.887 51.5582C124.012 51.2179 123.324 50.5489 122.946 49.6774C122.177 47.8949 122.976 45.8074 124.724 45.0205C125.565 44.6427 126.503 44.6171 127.364 44.9516C128.239 45.292 128.93 45.9609 129.305 46.8325C130.074 48.6149 129.276 50.7024 127.528 51.4894C127.079 51.69 126.603 51.7923 126.128 51.7923H126.126ZM126.126 45.6048C125.772 45.6048 125.42 45.6795 125.087 45.8291C123.778 46.4173 123.182 47.9854 123.76 49.3252C124.041 49.9784 124.557 50.4781 125.207 50.7319C125.844 50.9798 126.541 50.9621 127.164 50.6807C128.473 50.0925 129.069 48.5244 128.491 47.1846C128.21 46.5314 127.695 46.0317 127.042 45.7779C126.743 45.6618 126.434 45.6048 126.124 45.6048H126.126Z" fill="#020D3A"/>
<path d="M345.343 69.017C345.233 69.017 345.123 68.9757 345.036 68.893C344.859 68.7238 344.853 68.4425 345.022 68.2674L346.653 66.5656C346.822 66.3885 347.103 66.3826 347.278 66.5518C347.455 66.721 347.461 67.0023 347.292 67.1774L345.661 68.8792C345.575 68.9698 345.459 69.015 345.341 69.015L345.343 69.017Z" fill="#020D3A"/>
<path d="M339.64 74.9703C339.53 74.9703 339.42 74.929 339.333 74.8464C339.156 74.6772 339.15 74.3958 339.319 74.2207L340.949 72.5189C341.118 72.3419 341.4 72.3359 341.575 72.5051C341.752 72.6743 341.758 72.9557 341.588 73.1308L339.958 74.8326C339.872 74.9231 339.756 74.9684 339.638 74.9684L339.64 74.9703Z" fill="#020D3A"/>
<path d="M341.239 69.1072C341.127 69.1072 341.015 69.0639 340.928 68.9793L339.274 67.3503C339.099 67.1791 339.097 66.8977 339.268 66.7246C339.44 66.5495 339.721 66.5475 339.894 66.7187L341.547 68.3477C341.722 68.5189 341.724 68.8003 341.553 68.9734C341.467 69.0619 341.353 69.1052 341.237 69.1052L341.239 69.1072Z" fill="#020D3A"/>
<path d="M347.028 74.8086C346.916 74.8086 346.804 74.7653 346.717 74.6807L345.063 73.0517C344.888 72.8805 344.886 72.5992 345.058 72.426C345.229 72.2509 345.51 72.249 345.683 72.4201L347.337 74.0492C347.512 74.2203 347.513 74.5017 347.342 74.6748C347.256 74.7633 347.142 74.8066 347.026 74.8066L347.028 74.8086Z" fill="#020D3A"/>
<path d="M118.157 338.608C115.994 338.608 114.232 336.847 114.232 334.681C114.232 332.516 115.992 330.755 118.157 330.755C120.322 330.755 122.082 332.516 122.082 334.681C122.082 336.847 120.322 338.608 118.157 338.608ZM118.157 331.642C116.482 331.642 115.119 333.005 115.119 334.683C115.119 336.361 116.482 337.723 118.157 337.723C119.833 337.723 121.197 336.359 121.197 334.683C121.197 333.007 119.835 331.642 118.157 331.642Z" fill="#020D3A"/>
</svg>
