<svg width="544" height="400" viewBox="0 0 544 400" fill="none" xmlns="http://www.w3.org/2000/svg">
<path d="M435.013 292.931L427.108 298.25C425.77 299.066 137.142 274.736 137.142 271.618L132.835 50.4162L140.682 46.1021C140.682 46.1021 143.981 44.1583 145.918 44.2831L433.218 65.5042C436.385 65.7097 438.684 68.1472 438.684 71.3012V286.662C438.684 289.132 437.265 291.556 435.013 292.931Z" fill="#20E086"/>
<path d="M422.568 298.855L135.268 277.634C132.1 277.429 129.802 274.991 129.802 271.837V56.7069C129.802 52.6156 133.593 49.0851 137.699 49.3521L424.999 70.5732C428.166 70.7787 430.465 73.2162 430.465 76.3702V291.498C430.465 295.59 426.674 299.12 422.568 298.853V298.855Z" fill="white"/>
<path d="M129.8 171.317C129.447 171.317 129.162 171.033 129.162 170.679V56.7062C129.162 54.5856 130.11 52.4824 131.764 50.938C133.424 49.3879 135.603 48.5812 137.739 48.7157L185.469 52.2403C185.822 52.2672 186.086 52.5726 186.059 52.9222C186.032 53.2737 185.722 53.533 185.374 53.51L137.653 49.9853C135.875 49.8681 134.043 50.5558 132.64 51.8658C131.242 53.17 130.44 54.9352 130.44 56.7062V170.679C130.44 171.031 130.155 171.317 129.8 171.317Z" fill="#020D3A"/>
<path d="M430.464 280.824C430.112 280.824 429.824 280.539 429.824 280.186V76.3691C429.824 73.5609 427.777 71.3904 424.956 71.2079L341.314 65.0306C340.961 65.0037 340.697 64.6983 340.724 64.3487C340.749 63.9972 341.055 63.7398 341.408 63.761L425.045 69.9383C428.552 70.1649 431.103 72.8694 431.103 76.3711V280.186C431.103 280.537 430.817 280.824 430.464 280.824Z" fill="#020D3A"/>
<path d="M414.393 285.59L394.276 284.339C392.233 284.213 390.748 282.641 390.748 280.609V88.7687C390.748 86.141 393.179 83.8706 395.821 84.0358L415.937 85.2863C417.981 85.413 419.466 86.9843 419.466 89.0165V280.859C419.466 283.487 417.034 285.757 414.393 285.592V285.59Z" fill="#020D3A"/>
<path d="M375.342 282.574L355.225 281.308C353.181 281.18 351.697 279.589 351.697 277.53V114.826C351.697 112.164 354.128 109.867 356.769 110.034L376.886 111.3C378.93 111.428 380.414 113.019 380.414 115.078V277.782C380.414 280.444 377.983 282.741 375.342 282.574Z" fill="#20E086"/>
<path d="M336.287 279.557L316.17 278.151C314.127 278.008 312.642 276.241 312.642 273.954V142.755C312.642 139.799 315.073 137.244 317.715 137.43L337.831 138.837C339.875 138.979 341.36 140.746 341.36 143.033V274.232C341.36 277.188 338.928 279.743 336.287 279.557Z" fill="#20E086"/>
<path d="M297.236 277.007L277.119 275.562C275.075 275.416 273.591 273.601 273.591 271.25V167.396C273.591 164.357 276.022 161.735 278.663 161.924L298.78 163.368C300.824 163.514 302.308 165.329 302.308 167.68V271.534C302.308 274.573 299.877 277.195 297.236 277.007Z" fill="#20E086"/>
<path d="M258.186 273.988L238.069 272.082C236.025 271.888 234.541 269.495 234.541 266.393V191.268C234.541 187.261 236.972 183.8 239.613 184.05L259.73 185.955C261.774 186.149 263.258 188.543 263.258 191.645V266.769C263.258 270.776 260.827 274.237 258.186 273.988Z" fill="#20E086"/>
<path d="M219.132 270.976L199.016 269.726C196.972 269.599 195.487 268.028 195.487 265.995V235.881C195.487 233.253 197.919 230.983 200.56 231.148L220.677 232.399C222.72 232.525 224.205 234.097 224.205 236.129V266.243C224.205 268.871 221.774 271.141 219.132 270.976Z" fill="#20E086"/>
<path d="M180.079 268.426L159.962 267.176C157.919 267.049 156.434 265.478 156.434 263.445V246.206C156.434 243.579 158.865 241.308 161.507 241.473L181.623 242.724C183.667 242.851 185.152 244.422 185.152 246.454V263.693C185.152 266.321 182.72 268.591 180.079 268.426Z" fill="white"/>
<path d="M227.378 167.91C227.301 167.91 227.222 167.896 227.145 167.865C226.817 167.737 226.655 167.368 226.782 167.039C235.316 145.373 249.359 126.092 267.392 111.28C267.664 111.056 268.067 111.096 268.292 111.367C268.518 111.638 268.477 112.039 268.205 112.264C250.34 126.937 236.428 146.039 227.974 167.506C227.875 167.758 227.634 167.912 227.378 167.912V167.91Z" fill="#020D3A"/>
<path d="M213.88 177.591C213.811 177.591 213.741 177.579 213.672 177.556C213.338 177.441 213.161 177.08 213.277 176.747C218.918 160.409 227.228 145.198 237.976 131.535C249.099 117.398 262.556 105.288 277.978 95.5414C278.275 95.3531 278.671 95.4415 278.861 95.7373C279.05 96.035 278.962 96.4269 278.665 96.617C248.667 115.577 225.876 144.182 214.487 177.162C214.397 177.425 214.148 177.592 213.884 177.592L213.88 177.591Z" fill="#020D3A"/>
<path d="M209.879 188.518C209.818 188.518 209.756 188.508 209.694 188.491C209.457 188.42 209.284 188.218 209.247 187.976L208.026 179.795C207.996 179.588 208.069 179.38 208.221 179.236C208.374 179.094 208.586 179.035 208.794 179.079L216.03 180.633C216.253 180.681 216.433 180.844 216.504 181.059C216.573 181.276 216.523 181.512 216.369 181.681L210.354 188.306C210.23 188.443 210.057 188.516 209.879 188.516V188.518ZM209.426 180.517L210.311 186.455L214.678 181.645L209.426 180.517Z" fill="#020D3A"/>
<path d="M146.563 114.128C146.465 114.128 146.364 114.105 146.272 114.059C145.958 113.897 145.834 113.515 145.994 113.202C154.923 95.8265 165.209 83.616 178.364 74.7745C178.655 74.5786 179.054 74.6554 179.25 74.9455C179.449 75.2374 179.37 75.6331 179.079 75.829C166.111 84.5456 155.958 96.6045 147.134 113.782C147.02 114.003 146.796 114.13 146.565 114.13L146.563 114.128Z" fill="white"/>
<path d="M151.09 92.4013C150.952 92.4013 150.811 92.3552 150.693 92.263C150.418 92.0441 150.371 91.6426 150.591 91.3679C161.095 78.2181 174.506 67.1869 189.373 59.4672C189.687 59.3039 190.073 59.425 190.235 59.738C190.398 60.0492 190.277 60.4353 189.963 60.5966C175.252 68.2338 161.984 79.1478 151.59 92.1612C151.464 92.3187 151.277 92.4013 151.088 92.4013H151.09Z" fill="white"/>
<path d="M406.664 47.9134C406.312 47.9134 406.024 47.6291 406.024 47.2757V43.9834C406.024 43.6319 406.31 43.3457 406.664 43.3457C407.019 43.3457 407.302 43.63 407.302 43.9834V47.2757C407.302 47.6272 407.017 47.9134 406.664 47.9134Z" fill="#020D3A"/>
<path d="M406.664 55.5814C406.312 55.5814 406.024 55.2971 406.024 54.9437V51.6514C406.024 51.2999 406.31 51.0156 406.664 51.0156C407.019 51.0156 407.302 51.2999 407.302 51.6514V54.9437C407.302 55.2952 407.017 55.5814 406.664 55.5814Z" fill="#020D3A"/>
<path d="M404.468 50.1024H401.164C400.811 50.1024 400.523 49.818 400.523 49.4662C400.523 49.1145 400.809 48.8281 401.164 48.8281H404.468C404.821 48.8281 405.108 49.1126 405.108 49.4662C405.108 49.8199 404.823 50.1024 404.468 50.1024Z" fill="#020D3A"/>
<path d="M412.167 50.1024H408.862C408.509 50.1024 408.222 49.818 408.222 49.4662C408.222 49.1145 408.508 48.8281 408.862 48.8281H412.167C412.52 48.8281 412.807 49.1126 412.807 49.4662C412.807 49.8199 412.522 50.1024 412.167 50.1024Z" fill="#020D3A"/>
<path d="M142.813 156.435C142.46 156.435 142.175 156.151 142.175 155.797V152.505C142.175 152.153 142.46 151.869 142.813 151.869C143.166 151.869 143.453 152.153 143.453 152.505V155.797C143.453 156.149 143.167 156.435 142.813 156.435Z" fill="#020D3A"/>
<path d="M142.813 164.105C142.46 164.105 142.175 163.821 142.175 163.469V160.177C142.175 159.825 142.46 159.539 142.813 159.539C143.166 159.539 143.453 159.823 143.453 160.177V163.469C143.453 163.821 143.167 164.105 142.813 164.105Z" fill="#020D3A"/>
<path d="M140.617 158.625H137.312C136.959 158.625 136.672 158.34 136.672 157.987C136.672 157.633 136.957 157.349 137.312 157.349H140.617C140.969 157.349 141.257 157.633 141.257 157.987C141.257 158.34 140.971 158.625 140.617 158.625Z" fill="#020D3A"/>
<path d="M148.313 158.625H145.009C144.656 158.625 144.369 158.34 144.369 157.987C144.369 157.633 144.654 157.349 145.009 157.349H148.313C148.666 157.349 148.952 157.633 148.952 157.987C148.952 158.34 148.666 158.625 148.313 158.625Z" fill="#020D3A"/>
<path d="M126.954 183.797C106.405 188.188 96.449 226.013 96.0152 250.499C95.2768 292.163 121.451 332.095 157.574 351.288C205.57 376.788 277.12 368.861 300.688 327.426C314.751 302.701 312.821 264.122 293.26 248.623C273.65 233.087 262.516 250.275 225.029 240.743C173.226 227.573 152.654 178.306 126.956 183.797H126.954Z" fill="#020D3A"/>
<path d="M137.309 308.979C137.228 308.979 137.145 308.963 137.064 308.931C136.739 308.796 136.584 308.424 136.719 308.099C141.613 296.322 157.387 294.121 158.056 294.033C158.405 293.987 158.727 294.233 158.774 294.58C158.82 294.93 158.573 295.249 158.224 295.295C158.068 295.316 142.509 297.494 137.901 308.585C137.799 308.831 137.562 308.979 137.311 308.979H137.309Z" fill="white"/>
<path d="M159.32 316.148C158.998 316.148 158.721 315.906 158.686 315.58C157.475 304.233 163.984 296.961 164.262 296.658C164.499 296.398 164.902 296.377 165.164 296.615C165.426 296.852 165.444 297.255 165.209 297.514C165.145 297.585 158.81 304.689 159.957 315.445C159.993 315.795 159.741 316.108 159.388 316.146C159.365 316.148 159.342 316.15 159.32 316.15V316.148Z" fill="white"/>
<path d="M251.031 346.432L254.077 357.563L261.068 356.948L259.556 345.287L251.031 346.432Z" fill="white"/>
<path d="M254.077 358.2C253.791 358.2 253.537 358.01 253.46 357.731L250.413 346.6C250.365 346.423 250.396 346.233 250.498 346.081C250.6 345.928 250.762 345.826 250.946 345.803L259.471 344.658C259.639 344.635 259.81 344.681 259.945 344.783C260.08 344.887 260.169 345.038 260.19 345.208L261.7 356.871C261.723 357.042 261.673 357.216 261.565 357.351C261.455 357.485 261.297 357.572 261.123 357.585L254.133 358.2C254.113 358.2 254.094 358.202 254.077 358.202V358.2ZM251.84 346.965L254.553 356.882L260.348 356.373L259.005 346.003L251.838 346.965H251.84Z" fill="#020D3A"/>
<path d="M254.542 370.28C259.676 372.704 273.026 378.57 283.454 379.354C285.681 379.521 287.063 377.391 286.547 375.226C284.347 366.041 261.681 350.576 261.681 350.576L258.408 351.677C257.258 352.063 256.695 353.354 257.197 354.454L257.873 355.941L252.622 355.495C251.426 355.394 250.385 356.308 250.348 357.505C250.285 359.533 250.441 362.837 251.596 366.813C252.037 368.336 253.106 369.6 254.544 370.28H254.542Z" fill="#20E086"/>
<path d="M283.701 380.001C283.604 380.001 283.506 379.997 283.406 379.989C272.9 379.2 259.527 373.339 254.266 370.856C252.669 370.103 251.472 368.693 250.977 366.991C249.806 362.956 249.639 359.594 249.704 357.485C249.727 356.734 250.051 356.043 250.616 355.543C251.175 355.048 251.925 354.8 252.671 354.861L256.836 355.215L256.61 354.717C256.296 354.03 256.29 353.236 256.593 352.545C256.896 351.851 257.482 351.316 258.199 351.074L261.775 349.871L262.039 350.05C262.973 350.687 284.934 365.76 287.165 375.078C287.487 376.426 287.183 377.811 286.35 378.785C285.675 379.574 284.74 379.999 283.697 379.999L283.701 380.001ZM252.438 356.125C252.079 356.125 251.74 356.254 251.468 356.494C251.169 356.759 250.996 357.126 250.984 357.525C250.921 359.542 251.081 362.762 252.207 366.638C252.6 367.99 253.55 369.108 254.815 369.705C260.011 372.158 273.21 377.947 283.502 378.72C284.254 378.775 284.913 378.506 285.38 377.961C285.949 377.296 286.153 376.33 285.924 375.376C283.93 367.053 264.099 353.035 261.579 351.283L258.61 352.28C258.226 352.408 257.927 352.683 257.767 353.052C257.605 353.421 257.609 353.826 257.777 354.191L258.903 356.667L252.565 356.129C252.523 356.125 252.48 356.123 252.438 356.123V356.125Z" fill="#020D3A"/>
<path d="M283.118 376.314C283.086 376.314 283.055 376.312 283.022 376.306C268.706 374.144 255.361 367.327 255.228 367.257C254.914 367.096 254.792 366.712 254.954 366.399C255.116 366.086 255.502 365.965 255.816 366.126C255.947 366.193 269.113 372.916 283.215 375.046C283.564 375.098 283.805 375.423 283.751 375.77C283.702 376.085 283.431 376.312 283.12 376.312L283.118 376.314Z" fill="#020D3A"/>
<path d="M272.566 367.935C272.439 367.935 272.309 367.897 272.198 367.818C271.908 367.615 271.841 367.217 272.045 366.931L275.282 362.371C275.487 362.083 275.886 362.016 276.173 362.219C276.462 362.423 276.53 362.82 276.325 363.107L273.088 367.667C272.963 367.841 272.766 367.935 272.566 367.935Z" fill="#020D3A"/>
<path d="M266.368 365.456C266.24 365.456 266.111 365.417 265.999 365.339C265.71 365.135 265.643 364.737 265.847 364.451L269.915 358.721C270.119 358.433 270.519 358.366 270.806 358.57C271.095 358.773 271.163 359.171 270.958 359.457L266.89 365.187C266.765 365.362 266.568 365.456 266.368 365.456Z" fill="#020D3A"/>
<path d="M218.977 298.547C220.88 303.468 226.103 315.968 232.637 323.169C234.031 324.706 236.338 324.155 237.383 322.363C241.822 314.758 236.496 289.818 236.496 289.818L233.577 288.466C232.554 287.992 231.341 288.503 230.969 289.565L230.468 291.002L227.211 287.341C226.469 286.507 225.177 286.459 224.383 287.241C223.031 288.57 221.009 290.898 219.223 294.319C218.539 295.629 218.445 297.166 218.979 298.545L218.977 298.547Z" fill="#20E086"/>
<path d="M234.602 324.704C233.671 324.704 232.813 324.317 232.16 323.597C225.574 316.337 220.327 303.821 218.378 298.777C217.782 297.236 217.883 295.505 218.652 294.028C220.466 290.552 222.523 288.172 223.929 286.791C224.438 286.289 225.12 286.028 225.83 286.051C226.539 286.074 227.214 286.391 227.687 286.921L230.22 289.768L230.363 289.357C230.6 288.681 231.115 288.133 231.778 287.853C232.439 287.574 233.193 287.588 233.845 287.889L237.053 289.376L237.118 289.687C237.338 290.715 242.442 314.954 237.932 322.683C237.275 323.81 236.162 324.558 234.959 324.684C234.838 324.698 234.718 324.704 234.6 324.704H234.602ZM219.572 298.317C221.496 303.296 226.667 315.641 233.108 322.742C233.692 323.388 234.367 323.465 234.828 323.419C235.626 323.336 236.374 322.821 236.827 322.043C240.83 315.184 236.519 293.143 235.933 290.262L233.305 289.044C232.975 288.89 232.609 288.884 232.275 289.027C231.94 289.167 231.691 289.434 231.572 289.776L230.71 292.238L226.73 287.765C226.487 287.492 226.152 287.334 225.788 287.323C225.427 287.317 225.086 287.444 224.827 287.695C223.486 289.013 221.523 291.285 219.786 294.614C219.184 295.767 219.105 297.117 219.57 298.317H219.572Z" fill="#020D3A"/>
<path d="M234.778 321.108C234.587 321.108 234.399 321.024 234.273 320.863C226.004 310.239 221.392 297.091 221.346 296.96C221.23 296.628 221.408 296.265 221.741 296.151C222.075 296.036 222.439 296.213 222.555 296.545C222.599 296.674 227.147 309.63 235.283 320.083C235.499 320.361 235.449 320.761 235.17 320.976C235.054 321.066 234.915 321.108 234.778 321.108Z" fill="#020D3A"/>
<path d="M233.06 308.703C232.761 308.703 232.493 308.492 232.433 308.188C232.366 307.842 232.591 307.508 232.937 307.441L238.061 306.436C238.408 306.367 238.744 306.592 238.811 306.938C238.879 307.283 238.653 307.618 238.308 307.685L233.183 308.689C233.141 308.697 233.1 308.701 233.058 308.701L233.06 308.703Z" fill="#020D3A"/>
<path d="M230.476 303.064C230.178 303.064 229.91 302.853 229.85 302.549C229.782 302.204 230.008 301.869 230.353 301.802L236.793 300.54C237.136 300.473 237.475 300.696 237.543 301.042C237.61 301.387 237.384 301.722 237.039 301.789L230.6 303.051C230.557 303.058 230.517 303.062 230.474 303.062L230.476 303.064Z" fill="#020D3A"/>
<path d="M194.047 253.557C194.573 253.006 232.071 236.866 247.399 233.433C262.726 230.001 269.16 229.578 273.652 238.694C279.274 250.102 248.529 295.041 248.529 295.041L183.985 278.28L194.047 253.557Z" fill="#20E086"/>
<path d="M160.872 269.533C160.872 269.533 157.891 277.358 167.257 286.584C178.993 298.143 234.014 292.081 234.014 292.081C234.014 292.081 234.381 301.593 235.703 308.427C239.363 327.343 241.214 328.265 249.888 349.868L261.373 348.078C261.373 348.078 261.089 284.056 252.65 274.175C244.212 264.295 191.059 263.753 191.059 263.753L160.874 269.533H160.872Z" fill="#20E086"/>
<path d="M256.886 283.724C256.622 283.724 256.375 283.559 256.283 283.296C254.762 278.936 253.375 276.006 252.163 274.587C247.726 269.393 218.756 265.613 193.125 263.805C192.772 263.78 192.508 263.477 192.533 263.126C192.558 262.774 192.869 262.511 193.216 262.536C209.319 263.671 247.393 267.036 253.138 273.761C254.47 275.323 255.895 278.304 257.492 282.877C257.607 283.209 257.432 283.572 257.098 283.688C257.029 283.713 256.958 283.722 256.888 283.722L256.886 283.724Z" fill="white"/>
<path d="M240.229 211.416C239.87 209.626 239.02 207.077 237.028 205.986C235.366 205.075 232.258 203.527 229.33 206.587C229.33 206.587 221.98 217.643 213.129 217.912C204.279 218.181 193.166 205.463 165.05 206.187C160.999 205.442 157.583 205.719 155.721 206.376C148.83 208.807 138.442 211.925 136.782 231.707C135.052 252.314 142.911 262.26 142.911 262.26L164.171 256.455L164.518 270.592L193.153 263.556C193.105 262.909 193.623 246.096 193.563 245.468C193.132 240.964 192.38 236.953 191.383 233.375C196.723 233.532 207.755 239.131 216.885 237.823C226.422 236.456 236.731 219.844 239.666 214.789C240.258 213.771 240.462 212.57 240.229 211.416Z" fill="white"/>
<path d="M234.497 216.204C234.478 216.204 234.458 216.204 234.437 216.204C232.336 216.174 230.338 214.485 228.497 211.189C228.325 210.882 228.435 210.494 228.744 210.323C229.052 210.152 229.442 210.261 229.613 210.571C231.19 213.396 232.864 214.906 234.451 214.931C234.466 214.931 234.48 214.931 234.495 214.931C236.543 214.931 238.006 212.541 238.021 212.518C238.203 212.217 238.594 212.119 238.899 212.299C239.201 212.48 239.3 212.87 239.12 213.171C239.045 213.296 237.273 216.206 234.497 216.206V216.204Z" fill="#020D3A"/>
<path d="M256.04 189.692C255.822 189.058 255.168 188.687 254.515 188.826C252.689 189.212 243.292 191.204 241.539 191.588C239.787 191.97 239.716 193.849 238.719 195.57C237.851 197.064 234.863 202.544 231.606 206.363C230.625 207.513 230.488 209.163 231.252 210.469C231.689 211.218 232.246 211.956 232.908 212.39C234.662 213.543 235.966 214.926 239.633 206.192C239.633 206.192 241.304 205.396 242.914 203.56C242.914 203.56 248.629 210.275 250.09 196.64C250.219 195.428 249.658 194.246 248.598 193.651C248.513 193.603 248.424 193.557 248.332 193.509L255.178 191.396C255.893 191.175 256.285 190.403 256.04 189.692Z" fill="white"/>
<path d="M234.737 213.878C233.985 213.878 233.349 213.452 232.774 213.068L232.552 212.92C231.895 212.488 231.27 211.769 230.696 210.788C229.795 209.245 229.963 207.3 231.116 205.949C233.977 202.596 236.655 197.89 237.8 195.882C237.945 195.629 238.066 195.416 238.163 195.25C238.442 194.768 238.649 194.263 238.847 193.773C239.341 192.561 239.848 191.307 241.4 190.967C243.083 190.598 251.761 188.76 254.379 188.205C255.345 187.999 256.319 188.553 256.641 189.488C256.816 189.997 256.778 190.542 256.533 191.023C256.29 191.501 255.874 191.851 255.363 192.008L249.735 193.744C250.465 194.513 250.839 195.592 250.72 196.712C250.138 202.138 248.838 205.089 246.744 205.73C245.16 206.218 243.675 205.162 242.925 204.486C241.737 205.705 240.598 206.395 240.128 206.652C238.165 211.289 236.767 213.364 235.323 213.794C235.119 213.855 234.922 213.882 234.733 213.882L234.737 213.878ZM254.788 189.434C254.742 189.434 254.695 189.438 254.647 189.45C252.029 190.005 243.355 191.843 241.676 192.212C240.822 192.398 240.525 193.04 240.033 194.252C239.827 194.757 239.595 195.331 239.271 195.89C239.177 196.053 239.057 196.263 238.915 196.512C237.752 198.552 235.032 203.331 232.094 206.777C231.291 207.718 231.174 209.074 231.804 210.15C232.279 210.961 232.768 211.537 233.26 211.86L233.491 212.013C234.129 212.442 234.546 212.697 234.962 212.572C235.95 212.278 237.322 210.048 239.044 205.947C239.106 205.803 239.217 205.686 239.358 205.619C239.374 205.611 240.939 204.847 242.433 203.145C242.557 203.005 242.736 202.936 242.919 202.928C243.104 202.928 243.282 203.01 243.401 203.153C243.831 203.652 245.2 204.876 246.376 204.512C247.236 204.247 248.78 202.863 249.453 196.578C249.557 195.598 249.098 194.67 248.283 194.211C248.206 194.169 248.125 194.125 248.04 194.083C247.809 193.965 247.672 193.719 247.693 193.46C247.714 193.203 247.892 192.982 248.14 192.907L254.987 190.794C255.164 190.738 255.311 190.617 255.395 190.448C255.482 190.277 255.496 190.085 255.434 189.905C255.338 189.622 255.073 189.44 254.786 189.44L254.788 189.434Z" fill="#020D3A"/>
<path d="M241.602 201.12C241.378 201.12 241.162 201.003 241.045 200.796C240.871 200.49 240.981 200.101 241.288 199.928C241.577 199.764 242.142 199.397 242.834 198.919C244.575 197.719 245.533 196.543 245.95 195.95C246.154 195.658 246.258 195.339 246.25 195.026C246.241 194.699 246.166 194.672 245.911 194.588C245.416 194.423 244.243 194.899 243.609 195.275C243.306 195.454 242.913 195.356 242.734 195.055C242.552 194.753 242.653 194.363 242.955 194.183C243.302 193.977 245.095 192.969 246.322 193.382C246.644 193.489 247.496 193.775 247.531 194.991C247.546 195.579 247.363 196.163 247 196.68C246.536 197.342 245.471 198.652 243.574 199.96C243.139 200.26 242.36 200.788 241.918 201.036C241.82 201.092 241.712 201.119 241.606 201.119L241.602 201.12Z" fill="#020D3A"/>
<path d="M242.834 204.275C242.674 204.275 242.512 204.216 242.389 204.095C242.136 203.849 242.131 203.446 242.377 203.194C243.595 201.947 243.547 200.655 243.545 200.601C243.528 200.251 243.796 199.952 244.147 199.932C244.494 199.915 244.798 200.174 244.821 200.524C244.827 200.601 244.925 202.414 243.295 204.083C243.169 204.212 243.004 204.275 242.838 204.275H242.834Z" fill="#020D3A"/>
<path d="M193.916 241.596C195.376 241.1 196.729 242.078 195.688 243.403C194.857 244.462 190.876 246.751 190.242 247.145C190.085 247.241 190.149 247.535 190.326 247.495C195.457 246.369 198.129 246.446 199.517 246.795C200.497 247.041 201.087 248.032 200.88 249.018C199.382 256.113 184.672 255.308 182.952 255.514C181.54 255.683 172.284 264.161 172.284 264.161C168.1 268.472 162.432 271.946 158.339 273.977C149.954 278.137 146.862 264.014 146.013 260.497C146.013 260.497 172.359 253.349 181.618 248.768C182.836 248.165 183.954 247.389 184.978 246.498C186.156 245.472 188.705 243.365 193.918 241.596H193.916Z" fill="white"/>
<path d="M155.404 275.373C154.573 275.373 153.769 275.195 152.999 274.835C148.253 272.623 146.232 264.165 145.471 260.981L145.391 260.646C145.31 260.312 145.511 259.974 145.845 259.884C146.107 259.813 172.237 252.7 181.333 248.2C182.44 247.652 183.525 246.918 184.557 246.02C185.546 245.159 188.17 242.873 193.711 240.995C194.781 240.632 195.892 240.887 196.412 241.617C196.858 242.241 196.775 243.058 196.192 243.799C195.683 244.448 194.295 245.403 192.734 246.379C195.799 245.858 198.128 245.793 199.676 246.181C200.985 246.509 201.789 247.816 201.508 249.15C200.108 255.787 188.625 256.015 184.302 256.102C183.703 256.113 183.23 256.123 183.03 256.148C182.162 256.344 177.101 260.618 172.719 264.632C167.779 269.722 161.217 273.264 158.625 274.549C157.515 275.101 156.439 275.375 155.407 275.375L155.404 275.373ZM146.776 260.948C147.487 263.914 149.479 271.789 153.539 273.681C154.912 274.321 156.389 274.23 158.051 273.406C160.584 272.15 166.995 268.693 171.822 263.718C174.678 261.1 181.414 255.055 182.874 254.88C183.136 254.849 183.589 254.84 184.274 254.826C187.931 254.753 199.061 254.533 200.255 248.885C200.395 248.221 200.002 247.573 199.362 247.412C198.155 247.109 195.629 246.984 190.464 248.117C190.092 248.2 189.726 248.006 189.577 247.646C189.421 247.266 189.56 246.819 189.901 246.605C189.994 246.548 190.16 246.448 190.376 246.319C191.407 245.703 194.546 243.822 195.184 243.01C195.288 242.879 195.512 242.551 195.369 242.351C195.232 242.159 194.754 241.984 194.122 242.197C188.82 243.995 186.333 246.16 185.398 246.976C184.283 247.946 183.105 248.741 181.9 249.339C173.355 253.566 150.84 259.834 146.776 260.948Z" fill="#020D3A"/>
<path d="M172.268 251.063C174.006 255.133 175.968 258.898 178.773 261.52L161.742 274.132C158.057 276.86 152.846 276.051 150.168 272.336L147.175 268.598C141.307 261.265 137.223 252.636 135.55 243.407C133.726 233.346 135.118 224.692 141.058 216.625C143.763 239.934 157.606 257.413 172.266 251.063H172.268Z" fill="white"/>
<path d="M212.851 218.556C209.596 218.556 206.105 216.962 201.719 214.961C194.219 211.536 183.946 206.847 167.601 206.799C167.248 206.799 166.962 206.513 166.964 206.161C166.964 205.81 167.252 205.526 167.603 205.526H167.604C184.226 205.574 194.645 210.33 202.251 213.802C206.618 215.796 210.055 217.375 213.109 217.279C221.531 217.024 228.724 206.348 228.795 206.238L228.865 206.15C230.041 204.923 231.373 204.25 232.829 204.154C233.187 204.127 233.486 204.398 233.509 204.748C233.533 205.099 233.266 205.403 232.914 205.426C231.788 205.501 230.777 206.012 229.827 206.989C229.21 207.904 222.011 218.28 213.146 218.551C213.047 218.554 212.947 218.554 212.847 218.554L212.851 218.556Z" fill="#020D3A"/>
<path d="M213.988 238.66C208.939 238.66 203.596 237.095 199.158 235.794C197.92 235.431 196.752 235.089 195.667 234.801C195.325 234.711 195.123 234.361 195.214 234.021C195.304 233.681 195.655 233.48 195.994 233.57C197.097 233.862 198.273 234.206 199.519 234.571C204.726 236.096 211.206 237.996 216.794 237.195C226.037 235.869 236.212 219.467 239.112 214.471C239.629 213.582 239.802 212.541 239.602 211.542C239.438 210.726 239.216 209.979 238.941 209.318C238.806 208.993 238.96 208.621 239.286 208.486C239.613 208.352 239.986 208.505 240.121 208.83C240.427 209.568 240.674 210.395 240.853 211.292C241.115 212.595 240.888 213.951 240.217 215.109C237.246 220.23 226.786 237.049 216.973 238.456C215.995 238.597 214.995 238.66 213.985 238.66H213.988Z" fill="#020D3A"/>
<path d="M156.864 276.386C156.405 276.386 155.942 276.351 155.48 276.278C153.116 275.911 151.045 274.642 149.649 272.705L146.676 268.992C140.64 261.449 136.576 252.641 134.921 243.519C132.974 232.766 134.759 224.101 140.543 216.247C140.752 215.963 141.153 215.903 141.436 216.111C141.721 216.318 141.781 216.718 141.573 217C136.013 224.553 134.297 232.906 136.178 243.292C137.794 252.208 141.77 260.821 147.673 268.199L150.665 271.937C151.878 273.62 153.65 274.705 155.672 275.02C157.695 275.335 159.714 274.838 161.358 273.62L177.79 261.451C175.193 258.793 173.393 255.249 171.968 251.986C167.04 254.967 163.749 256.911 160.537 256.044C157.219 255.149 154.182 251.402 148.932 241.727C148.764 241.417 148.88 241.031 149.19 240.864C149.503 240.697 149.888 240.812 150.056 241.122C155.05 250.324 157.982 254.035 160.872 254.815C163.61 255.555 166.606 253.739 171.571 250.735L172.564 250.134L172.853 250.81C174.362 254.35 176.298 258.334 179.208 261.052L179.765 261.572L162.118 274.638C160.573 275.781 158.746 276.382 156.858 276.382L156.864 276.386Z" fill="#020D3A"/>
<path d="M151.284 207.666L149.435 192.934L162.306 196.896L163.605 205.524C163.918 207.843 162.19 209.47 162.19 209.47C160.081 211.673 156.64 211.94 153.879 210.653L153.239 210.355C152.168 209.856 151.43 208.842 151.284 207.666Z" fill="white"/>
<path d="M157.352 212.078C156.113 212.078 154.831 211.802 153.608 211.231L152.968 210.934C151.692 210.338 150.824 209.147 150.649 207.747L148.8 193.014C148.773 192.799 148.858 192.586 149.024 192.448C149.189 192.309 149.417 192.263 149.623 192.327L162.494 196.289C162.73 196.362 162.901 196.562 162.938 196.804L164.237 205.432C164.59 208.054 162.708 209.86 162.629 209.935C161.286 211.341 159.375 212.078 157.352 212.078ZM150.192 193.835L151.917 207.59C152.039 208.554 152.633 209.372 153.51 209.781L154.15 210.079C156.828 211.327 159.946 210.897 161.729 209.032C161.766 208.996 163.237 207.565 162.975 205.611L161.735 197.388L150.194 193.835H150.192Z" fill="#020D3A"/>
<path d="M162.949 171.388C159.761 171.757 164.291 174.305 152.025 172.938C147.142 172.394 150.431 177.398 149.164 177.262C144.483 176.753 144.643 176.764 142.567 177.715C141.192 178.343 140.712 181.157 141.325 183.089C142.135 185.64 144.414 185.94 147.284 191.13C149.301 194.774 149.378 197.188 151.034 197.484C152.708 197.781 153.506 195.469 155.361 195.657C157.759 195.899 157.993 199.931 160.503 201.181C162.086 201.971 165.437 201.88 170.233 198.427C171.01 197.868 171.28 196.829 170.872 195.961C170.347 194.848 169.678 193.446 168.926 192.161C165.344 186.036 162.751 184.962 163.304 183.116C164.153 180.289 169.341 180.923 169.788 178.645C170.253 176.278 167.316 170.884 162.949 171.39V171.388Z" fill="#020D3A"/>
<path d="M153.885 184.589L155.08 186.114C155.643 186.833 156.154 187.588 156.613 188.377C157.473 189.858 158.971 192.392 159.917 193.748C161.309 195.74 167.782 191.883 167.782 191.883L167.967 190.471L168.717 190.002C168.861 189.912 168.989 189.791 169.07 189.639C169.27 189.263 169.195 188.821 168.919 188.535C167.408 186.969 164.205 183.421 162.682 180C162.682 180 157.309 179.57 153.883 184.585L153.885 184.589Z" fill="white"/>
<path d="M154.522 184.568C154.775 184.81 155.008 185.039 155.224 185.279C155.332 185.398 155.436 185.521 155.538 185.646L155.911 186.122C156.416 186.789 156.884 187.501 157.299 188.214C158.122 189.608 158.945 191.005 159.813 192.357C160.031 192.693 160.249 193.029 160.474 193.35C160.578 193.483 160.731 193.581 161.041 193.619C161.644 193.692 162.423 193.519 163.148 193.293C164.617 192.818 166.083 192.105 167.45 191.331L167.141 191.8C167.207 191.329 167.267 190.859 167.338 190.39L167.342 190.371C167.371 190.185 167.482 190.029 167.631 189.937C167.866 189.793 168.123 189.683 168.377 189.57C168.583 189.491 168.655 189.459 168.718 189.301C168.765 189.161 168.722 189.003 168.633 188.892L168.096 188.329C167.332 187.52 166.592 186.693 165.867 185.847C164.434 184.144 163.081 182.34 162.105 180.26L162.635 180.634C162.288 180.625 161.857 180.644 161.463 180.69C161.062 180.738 160.663 180.811 160.268 180.905C159.479 181.093 158.718 181.382 158.006 181.76C157.295 182.136 156.616 182.584 156.028 183.137C155.714 183.391 155.45 183.7 155.17 183.992C155.002 184.161 154.977 184.232 154.869 184.32C154.775 184.403 154.659 184.478 154.524 184.566L154.522 184.568ZM153.244 184.61C153.369 184.357 153.512 184.086 153.678 183.827C153.836 183.579 154.044 183.283 154.183 183.149C154.492 182.811 154.785 182.461 155.137 182.163C155.806 181.535 156.58 181.02 157.389 180.59C158.199 180.156 159.072 179.849 159.965 179.641C160.411 179.54 160.864 179.463 161.321 179.413C161.785 179.369 162.219 179.34 162.734 179.372C162.975 179.388 163.173 179.538 163.264 179.745V179.749C163.68 180.715 164.211 181.649 164.783 182.561C165.356 183.473 165.982 184.361 166.65 185.219C167.315 186.08 168.02 186.914 168.763 187.711L169.04 188.01L169.181 188.158L169.254 188.235C169.289 188.273 169.322 188.31 169.353 188.352C169.599 188.677 169.686 189.107 169.603 189.503C169.569 189.701 169.491 189.893 169.37 190.077C169.258 190.248 169.081 190.409 168.963 190.498C168.751 190.676 168.539 190.859 168.308 191.007L168.599 190.553C168.547 191.026 168.483 191.495 168.425 191.967C168.4 192.169 168.279 192.34 168.117 192.436C166.661 193.279 165.19 194.019 163.565 194.568C162.743 194.818 161.901 195.067 160.873 194.973C160.746 194.964 160.609 194.925 160.478 194.9C160.339 194.85 160.204 194.82 160.067 194.741C159.792 194.62 159.535 194.378 159.35 194.13C159.109 193.784 158.884 193.438 158.662 193.093C157.779 191.704 156.946 190.306 156.13 188.892C155.739 188.195 155.323 187.54 154.856 186.902L154.486 186.41C154.337 186.216 154.191 186.018 154.048 185.817C153.763 185.415 153.497 185.006 153.246 184.607L153.244 184.61Z" fill="#020D3A"/>
<path d="M156.177 190.241C156.177 190.241 153.308 186.57 151.92 188.231C150.532 189.895 153.79 193.856 156.177 190.241Z" fill="white"/>
<path d="M176.121 266.564L246.612 263.424L246.737 266.212C246.768 266.907 246.227 267.498 245.528 267.53L177.568 270.557C176.871 270.588 176.277 270.049 176.246 269.352L176.121 266.564Z" fill="white"/>
<path d="M179.527 271.107C177.387 271.107 175.6 269.422 175.503 267.271L175.472 266.599C175.457 266.247 175.729 265.949 176.082 265.934L246.571 262.797C246.934 262.782 247.223 263.053 247.238 263.404L247.269 264.077C247.317 265.148 246.943 266.174 246.217 266.965C245.49 267.757 244.497 268.22 243.423 268.268L179.71 271.103C179.648 271.105 179.589 271.107 179.527 271.107ZM176.778 267.177V267.213C176.847 268.723 178.139 269.897 179.652 269.829L243.365 266.994C244.1 266.962 244.776 266.647 245.274 266.105C245.769 265.565 246.026 264.864 245.993 264.132V264.096L176.778 267.177Z" fill="#020D3A"/>
<path d="M246.605 263.507L203.31 265.434L215.258 224.48C216.025 223.182 217.425 222.352 218.965 222.283L255.565 220.654C257.225 220.581 258.366 222.139 257.888 223.579C257.697 224.152 257.491 224.72 257.327 225.3L246.605 263.505V263.507Z" fill="white"/>
<path d="M203.308 266.069C203.113 266.069 202.926 265.981 202.807 265.825C202.679 265.664 202.637 265.451 202.695 265.255L214.643 224.301C214.658 224.251 214.679 224.201 214.706 224.155C215.587 222.663 217.168 221.723 218.936 221.645L255.536 220.016C256.538 219.972 257.454 220.394 258.05 221.176C258.62 221.927 258.786 222.899 258.495 223.777C258.441 223.94 258.385 224.103 258.329 224.267C258.189 224.68 258.056 225.069 257.942 225.469L247.22 263.674C247.147 263.939 246.91 264.127 246.634 264.139L203.339 266.065C203.339 266.065 203.32 266.065 203.31 266.065L203.308 266.069ZM215.846 224.737L204.17 264.757L246.112 262.89L256.71 225.129C256.831 224.695 256.976 224.27 257.117 223.859C257.171 223.7 257.226 223.541 257.279 223.379C257.44 222.891 257.348 222.371 257.028 221.948C256.69 221.504 256.162 221.266 255.592 221.291L218.992 222.92C217.685 222.978 216.515 223.656 215.846 224.737Z" fill="#020D3A"/>
<path d="M229.565 242.492C229.126 244.22 229.993 245.93 231.501 246.312C233.009 246.692 234.588 245.601 235.027 243.873C235.467 242.144 234.599 240.434 233.092 240.052C231.584 239.672 230.005 240.763 229.565 242.492Z" fill="white"/>
<path d="M207.653 152.83C220.375 140.152 220.375 119.596 207.653 106.918C194.931 94.2404 174.304 94.2404 161.582 106.918C148.86 119.596 148.86 140.152 161.582 152.83C174.304 165.508 194.931 165.508 207.653 152.83Z" fill="#020D3A"/>
<path d="M208.371 151.182C220.717 138.882 220.717 118.94 208.371 106.64C196.026 94.3408 176.009 94.3408 163.663 106.64C151.317 118.94 151.317 138.882 163.663 151.182C176.009 163.482 196.026 163.482 208.371 151.182Z" fill="#20E086"/>
<path d="M186.016 161.042C168.232 161.042 153.762 146.628 153.762 128.909C153.762 111.189 168.23 96.7754 186.016 96.7754C203.802 96.7754 218.269 111.189 218.269 128.909C218.269 146.628 203.802 161.042 186.016 161.042ZM186.016 98.0508C168.936 98.0508 155.04 111.894 155.04 128.91C155.04 145.927 168.936 159.77 186.016 159.77C203.096 159.77 216.991 145.927 216.991 128.91C216.991 111.894 203.096 98.0508 186.016 98.0508Z" fill="#020D3A"/>
<path d="M204.777 147.601C215.137 137.279 215.137 120.545 204.777 110.223C194.416 99.9014 177.619 99.9014 167.259 110.223C156.898 120.545 156.898 137.279 167.259 147.601C177.619 157.923 194.416 157.923 204.777 147.601Z" fill="white"/>
<path d="M208.321 143.864C208.202 143.864 208.082 143.831 207.974 143.762C207.678 143.572 207.593 143.176 207.784 142.882C209.127 140.81 210.161 138.562 210.857 136.204C210.957 135.866 211.316 135.674 211.651 135.773C211.99 135.873 212.183 136.227 212.085 136.565C211.354 139.041 210.269 141.4 208.857 143.574C208.736 143.762 208.53 143.866 208.32 143.866L208.321 143.864Z" fill="#020D3A"/>
<path d="M209.899 118.019C209.661 118.019 209.434 117.886 209.324 117.66C204.953 108.689 196.023 103.115 186.018 103.115C177.801 103.115 169.991 107.063 165.125 113.674C164.916 113.958 164.515 114.02 164.232 113.81C163.947 113.603 163.885 113.203 164.095 112.921C169.2 105.983 177.396 101.842 186.02 101.842C196.518 101.842 205.888 107.689 210.475 117.103C210.629 117.42 210.496 117.8 210.18 117.954C210.089 117.998 209.995 118.017 209.9 118.017L209.899 118.019Z" fill="#020D3A"/>
<path d="M186.016 155.978C171.036 155.978 158.847 143.835 158.847 128.91C158.847 124.273 160.044 119.7 162.307 115.679C162.479 115.372 162.87 115.263 163.177 115.436C163.485 115.608 163.593 115.996 163.422 116.302C161.264 120.13 160.125 124.49 160.125 128.908C160.125 143.132 171.739 154.703 186.016 154.703C186.369 154.703 186.656 154.987 186.656 155.338C186.656 155.69 186.371 155.976 186.016 155.976V155.978Z" fill="#020D3A"/>
<path d="M183.584 147.57V143.225C180.509 143.089 177.524 142.265 175.779 141.258L177.156 135.907C179.084 136.96 181.793 137.92 184.777 137.92C187.394 137.92 189.185 136.914 189.185 135.085C189.185 133.256 187.716 132.25 184.318 131.105C179.406 129.459 176.055 127.171 176.055 122.734C176.055 118.71 178.901 115.552 183.813 114.592V110.247H188.313V114.271C191.388 114.408 193.455 115.049 194.971 115.781L193.638 120.95C192.445 120.447 190.332 119.394 187.027 119.394C184.043 119.394 183.079 120.675 183.079 121.954C183.079 123.464 184.685 124.425 188.589 125.888C194.053 127.809 196.257 130.325 196.257 134.442C196.257 138.558 193.365 141.988 188.084 142.903V147.568H183.584V147.57Z" fill="#020D3A"/>
<path d="M248.946 99.9621C259.812 89.1364 259.812 71.5843 248.946 60.7586C238.08 49.9328 220.462 49.9329 209.596 60.7586C198.729 71.5843 198.729 89.1364 209.596 99.9621C220.462 110.788 238.08 110.788 248.946 99.9621Z" fill="#020D3A"/>
<path d="M249.552 98.5605C260.096 88.0558 260.096 71.0243 249.552 60.5196C239.008 50.0149 221.913 50.0149 211.369 60.5196C200.825 71.0243 200.825 88.0558 211.369 98.5605C221.913 109.065 239.008 109.065 249.552 98.5605Z" fill="#20E086"/>
<path d="M230.46 107.074C215.221 107.074 202.822 94.7217 202.822 79.5396C202.822 64.3576 215.221 52.0049 230.46 52.0049C245.699 52.0049 258.098 64.3576 258.098 79.5396C258.098 94.7217 245.699 107.074 230.46 107.074ZM230.46 53.2765C215.924 53.2765 204.1 65.0568 204.1 79.5377C204.1 94.0187 215.924 105.799 230.46 105.799C244.995 105.799 256.819 94.0187 256.819 79.5377C256.819 65.0568 244.995 53.2765 230.46 53.2765Z" fill="#020D3A"/>
<path d="M246.483 95.5018C255.331 86.6864 255.331 72.3937 246.483 63.5783C237.634 54.7629 223.288 54.7629 214.44 63.5783C205.591 72.3937 205.591 86.6864 214.44 95.5018C223.288 104.317 237.634 104.317 246.483 95.5018Z" fill="white"/>
<path d="M249.508 92.4012C249.388 92.4012 249.269 92.3686 249.161 92.2994C248.864 92.1093 248.779 91.7136 248.97 91.4197C250.111 89.6564 250.993 87.7471 251.584 85.7399C251.685 85.4018 252.041 85.2097 252.379 85.3096C252.716 85.4095 252.911 85.7629 252.811 86.101C252.184 88.2235 251.253 90.2461 250.044 92.1112C249.923 92.2994 249.716 92.4031 249.506 92.4031L249.508 92.4012Z" fill="#020D3A"/>
<path d="M250.856 70.3289C250.619 70.3289 250.391 70.1963 250.281 69.9697C246.564 62.3402 238.97 57.6016 230.461 57.6016C223.472 57.6016 216.83 60.9592 212.693 66.5814C212.485 66.8657 212.082 66.9252 211.8 66.7178C211.515 66.5103 211.453 66.1108 211.663 65.8284C216.042 59.8797 223.069 56.3281 230.463 56.3281C239.328 56.3281 247.559 61.4644 251.434 69.4146C251.588 69.7315 251.455 70.1118 251.139 70.2655C251.049 70.3097 250.954 70.3289 250.86 70.3289H250.856Z" fill="#020D3A"/>
<path d="M230.461 102.747C217.614 102.747 207.163 92.3339 207.163 79.5356C207.163 75.5595 208.188 71.6372 210.13 68.1913C210.301 67.884 210.693 67.7764 210.999 67.9473C211.308 68.1202 211.416 68.5082 211.244 68.8136C209.409 72.0694 208.441 75.7766 208.441 79.5336C208.441 91.629 218.318 101.471 230.461 101.471C230.813 101.471 231.099 101.755 231.099 102.107C231.099 102.458 230.813 102.745 230.461 102.745V102.747Z" fill="#020D3A"/>
<path d="M228.382 95.4754V91.7644C225.754 91.6472 223.207 90.9442 221.717 90.0856L222.893 85.516C224.539 86.415 226.853 87.2352 229.402 87.2352C231.636 87.2352 233.165 86.3766 233.165 84.813C233.165 83.2495 231.91 82.3909 229.009 81.4151C224.813 80.0091 221.95 78.0556 221.95 74.2659C221.95 70.8276 224.381 68.1327 228.577 67.3126V63.6016H232.419V67.0398C235.047 67.157 236.811 67.7044 238.105 68.3287L236.967 72.7427C235.947 72.3124 234.145 71.4154 231.32 71.4154C228.771 71.4154 227.948 72.5083 227.948 73.6032C227.948 74.8921 229.321 75.7122 232.652 76.9627C237.318 78.6031 239.2 80.7524 239.2 84.2675C239.2 87.7826 236.73 90.7137 232.221 91.4936V95.4773H228.378L228.382 95.4754Z" fill="#020D3A"/>
<path d="M306.777 76.7641C317.266 66.3141 317.266 49.3714 306.777 38.9215C296.288 28.4715 279.282 28.4716 268.793 38.9215C258.304 49.3714 258.304 66.3141 268.793 76.7641C279.282 87.214 296.288 87.214 306.777 76.7641Z" fill="#020D3A"/>
<path d="M307.364 75.4059C317.541 65.2665 317.541 48.8273 307.364 38.6879C297.187 28.5485 280.686 28.5485 270.508 38.6879C260.331 48.8273 260.331 65.2665 270.508 75.4059C280.686 85.5452 297.187 85.5452 307.364 75.4059Z" fill="#20E086"/>
<path d="M288.936 83.6459C274.214 83.6459 262.235 71.7119 262.235 57.0446C262.235 42.3774 274.214 30.4453 288.936 30.4453C303.658 30.4453 315.637 42.3793 315.637 57.0465C315.637 71.7138 303.66 83.6478 288.936 83.6478V83.6459ZM288.936 31.7188C274.918 31.7188 263.514 43.0804 263.514 57.0465C263.514 71.0127 274.918 82.3743 288.936 82.3743C302.955 82.3743 314.359 71.0127 314.359 57.0465C314.359 43.0804 302.955 31.7188 288.936 31.7188Z" fill="#020D3A"/>
<path d="M304.4 72.4554C312.941 63.9461 312.941 50.1496 304.4 41.6403C295.859 33.1309 282.01 33.1309 273.469 41.6403C264.928 50.1496 264.928 63.9461 273.469 72.4554C282.01 80.9648 295.859 80.9648 304.4 72.4554Z" fill="white"/>
<path d="M307.322 69.4877C307.202 69.4877 307.083 69.455 306.975 69.3859C306.678 69.1957 306.593 68.8 306.784 68.5061C307.885 66.8062 308.733 64.9642 309.304 63.0299C309.404 62.6919 309.761 62.4998 310.098 62.5997C310.436 62.6995 310.63 63.053 310.53 63.391C309.925 65.4424 309.024 67.3959 307.856 69.1995C307.735 69.3878 307.528 69.4915 307.318 69.4915L307.322 69.4877Z" fill="#020D3A"/>
<path d="M308.622 48.1791C308.385 48.1791 308.158 48.0465 308.048 47.8199C304.464 40.4632 297.139 35.8936 288.937 35.8936C282.199 35.8936 275.792 39.1302 271.803 44.5526C271.595 44.8369 271.194 44.8983 270.911 44.689C270.625 44.4815 270.564 44.082 270.774 43.7996C275.004 38.0526 281.794 34.6201 288.939 34.6201C297.504 34.6201 305.457 39.5835 309.201 47.2629C309.355 47.5798 309.222 47.9601 308.906 48.1138C308.815 48.158 308.721 48.1772 308.626 48.1772L308.622 48.1791Z" fill="#020D3A"/>
<path d="M288.935 79.4733C276.522 79.4733 266.425 69.414 266.425 57.0479C266.425 53.2082 267.416 49.4165 269.292 46.0878C269.464 45.7804 269.855 45.6729 270.162 45.8438C270.47 46.0167 270.578 46.4047 270.407 46.7101C268.639 49.8506 267.704 53.4252 267.704 57.0479C267.704 68.711 277.228 78.1998 288.935 78.1998C289.288 78.1998 289.573 78.4841 289.573 78.8375C289.573 79.1909 289.288 79.4752 288.935 79.4752V79.4733Z" fill="#020D3A"/>
<path d="M286.929 72.4315V68.8492C284.394 68.7359 281.934 68.0579 280.496 67.2281L281.631 62.816C283.22 63.6823 285.454 64.4755 287.915 64.4755C290.072 64.4755 291.549 63.6458 291.549 62.1379C291.549 60.6301 290.338 59.8003 287.537 58.8572C283.488 57.4992 280.725 55.6149 280.725 51.9577C280.725 48.6404 283.071 46.0377 287.122 45.2464V41.6641H290.832V44.9813C293.367 45.0946 295.071 45.6228 296.319 46.226L295.222 50.4863C294.238 50.0714 292.497 49.2051 289.771 49.2051C287.311 49.2051 286.517 50.2616 286.517 51.3161C286.517 52.5608 287.841 53.3522 291.059 54.5584C295.563 56.1412 297.379 58.2156 297.379 61.6097C297.379 65.0038 294.994 67.8312 290.643 68.5861V72.4315H286.933H286.929Z" fill="#020D3A"/>
<path d="M398.744 307.259L398.098 311.81L402.808 313.59C402.849 314.67 402.976 315.734 403.192 316.769L399.052 319.62L400.776 323.882L405.75 323.077C406.321 323.98 406.967 324.835 407.68 325.632L405.523 330.169L409.155 333.002L413.054 329.831C413.993 330.324 414.982 330.741 416.013 331.079L416.422 336.081L420.989 336.724L422.777 332.032C423.86 331.992 424.928 331.865 425.967 331.65L428.829 335.774L433.107 334.056L432.299 329.101C433.205 328.532 434.063 327.889 434.865 327.18L439.419 329.329L442.263 325.71L439.08 321.827C439.575 320.891 439.994 319.906 440.333 318.878L445.353 318.471L445.999 313.921L441.289 312.14C441.249 311.061 441.122 309.996 440.906 308.961L445.045 306.111L443.321 301.848L438.347 302.653C437.776 301.75 437.131 300.896 436.417 300.097L438.575 295.56L434.942 292.726L431.044 295.898C430.105 295.404 429.116 294.987 428.084 294.649L427.676 289.647L423.108 289.004L421.323 293.696C420.239 293.737 419.171 293.864 418.132 294.079L415.271 289.955L410.993 291.672L411.8 296.628C410.894 297.196 410.036 297.84 409.234 298.55L404.68 296.401L401.837 300.02L405.02 303.904C404.524 304.839 404.106 305.824 403.766 306.852L398.746 307.259H398.744ZM423.712 301.153C430.205 302.069 434.724 308.054 433.805 314.524C432.885 320.993 426.877 325.495 420.384 324.579C413.89 323.663 409.371 317.678 410.291 311.208C411.21 304.739 417.218 300.237 423.712 301.153Z" fill="#20E086"/>
<path d="M422.35 339.169C422.319 339.169 422.291 339.167 422.26 339.163L417.692 338.52C417.397 338.477 417.168 338.237 417.145 337.942L416.771 333.355C415.986 333.08 415.224 332.757 414.494 332.394L410.921 335.3C410.69 335.489 410.358 335.493 410.123 335.308L406.491 332.475C406.255 332.291 406.178 331.97 406.307 331.701L408.286 327.54C407.752 326.918 407.256 326.259 406.803 325.575L402.241 326.313C401.952 326.361 401.657 326.198 401.545 325.923L399.822 321.661C399.71 321.384 399.806 321.069 400.051 320.898L403.845 318.284C403.697 317.485 403.599 316.667 403.552 315.839L399.234 314.208C398.954 314.102 398.786 313.818 398.827 313.524L399.473 308.974C399.515 308.68 399.756 308.453 400.053 308.428L404.657 308.056C404.933 307.274 405.257 306.515 405.621 305.787L402.704 302.228C402.515 301.998 402.511 301.667 402.696 301.433L405.54 297.814C405.723 297.58 406.047 297.503 406.317 297.632L410.493 299.602C411.118 299.07 411.779 298.577 412.465 298.125L411.723 293.581C411.675 293.287 411.839 292.999 412.115 292.887L416.393 291.17C416.67 291.059 416.989 291.153 417.156 291.399L419.78 295.179C420.58 295.031 421.404 294.933 422.235 294.887L423.872 290.584C423.978 290.306 424.265 290.138 424.558 290.179L429.125 290.822C429.42 290.865 429.648 291.105 429.673 291.4L430.047 295.987C430.832 296.264 431.595 296.585 432.324 296.948L435.896 294.042C436.128 293.853 436.459 293.849 436.695 294.034L440.327 296.867C440.562 297.051 440.639 297.372 440.51 297.641L438.532 301.802C439.066 302.424 439.564 303.083 440.015 303.767L444.576 303.029C444.869 302.981 445.161 303.144 445.272 303.419L446.996 307.681C447.108 307.958 447.011 308.273 446.767 308.444L442.972 311.058C443.119 311.855 443.219 312.675 443.267 313.503L447.586 315.134C447.866 315.24 448.033 315.524 447.993 315.818L447.347 320.368C447.304 320.662 447.063 320.889 446.767 320.914L442.162 321.286C441.887 322.068 441.563 322.827 441.198 323.555L444.116 327.114C444.305 327.344 444.308 327.675 444.123 327.909L441.279 331.528C441.096 331.762 440.774 331.839 440.502 331.71L436.326 329.74C435.702 330.272 435.04 330.765 434.354 331.217L435.096 335.761C435.145 336.055 434.981 336.343 434.705 336.455L430.427 338.172C430.149 338.283 429.831 338.189 429.663 337.944L427.039 334.163C426.237 334.311 425.416 334.409 424.587 334.457L422.948 338.76C422.854 339.01 422.613 339.171 422.35 339.171V339.169ZM418.379 337.329L421.934 337.83L423.54 333.614C423.631 333.374 423.858 333.213 424.114 333.203C425.163 333.165 426.201 333.042 427.197 332.834C427.45 332.782 427.708 332.886 427.853 333.095L430.425 336.801L433.754 335.464L433.028 331.011C432.987 330.76 433.101 330.506 433.319 330.37C434.194 329.82 435.029 329.196 435.8 328.51C435.991 328.341 436.267 328.301 436.5 328.411L440.591 330.341L442.805 327.525L439.945 324.037C439.783 323.839 439.756 323.562 439.876 323.336C440.352 322.439 440.759 321.478 441.087 320.487C441.168 320.243 441.386 320.072 441.642 320.051L446.153 319.684L446.657 316.142L442.425 314.542C442.184 314.452 442.022 314.225 442.012 313.97C441.974 312.923 441.848 311.89 441.642 310.897C441.59 310.647 441.694 310.39 441.904 310.244L445.623 307.683L444.281 304.366L439.812 305.09C439.558 305.13 439.305 305.017 439.168 304.8C438.619 303.93 437.99 303.098 437.302 302.33C437.132 302.14 437.092 301.865 437.202 301.635L439.139 297.557L436.313 295.352L432.812 298.2C432.613 298.361 432.335 298.39 432.108 298.269C431.208 297.795 430.246 297.39 429.249 297.063C429.004 296.982 428.832 296.765 428.811 296.51L428.443 292.015L424.888 291.514L423.282 295.73C423.191 295.97 422.963 296.131 422.707 296.141C421.658 296.179 420.619 296.302 419.624 296.51C419.37 296.562 419.113 296.46 418.969 296.249L416.397 292.543L413.067 293.88L413.794 298.333C413.834 298.584 413.721 298.838 413.503 298.974C412.629 299.522 411.795 300.148 411.021 300.834C410.829 301.004 410.553 301.043 410.323 300.933L406.23 299.003L404.017 301.819L406.876 305.307C407.038 305.505 407.065 305.782 406.946 306.008C406.469 306.907 406.063 307.866 405.735 308.859C405.654 309.103 405.436 309.274 405.18 309.295L400.668 309.66L400.165 313.202L404.399 314.802C404.64 314.892 404.802 315.119 404.811 315.374C404.85 316.419 404.973 317.452 405.181 318.447C405.234 318.697 405.129 318.954 404.919 319.1L401.2 321.661L402.542 324.978L407.011 324.254C407.266 324.212 407.518 324.327 407.655 324.544C408.205 325.414 408.833 326.246 409.521 327.016C409.693 327.206 409.732 327.481 409.622 327.711L407.684 331.789L410.512 333.994L414.014 331.146C414.214 330.984 414.49 330.956 414.717 331.077C415.62 331.551 416.582 331.956 417.579 332.283C417.823 332.364 417.995 332.581 418.016 332.836L418.383 337.331L418.379 337.329ZM423.438 327.141C422.848 327.141 422.252 327.099 421.658 327.016C414.827 326.054 410.055 319.732 411.021 312.925C411.989 306.12 418.334 301.368 425.165 302.328C428.476 302.795 431.404 304.518 433.413 307.178C435.422 309.84 436.271 313.121 435.802 316.417C435.334 319.715 433.604 322.633 430.934 324.634C428.742 326.277 426.133 327.139 423.44 327.139L423.438 327.141ZM423.403 303.478C417.901 303.478 413.079 307.522 412.286 313.104C411.419 319.214 415.703 324.89 421.836 325.754C424.809 326.173 427.764 325.414 430.163 323.618C432.561 321.822 434.113 319.202 434.533 316.24C434.954 313.28 434.192 310.334 432.389 307.944C430.585 305.555 427.955 304.009 424.984 303.59C424.452 303.515 423.924 303.478 423.401 303.478H423.403Z" fill="#020D3A"/>
<path d="M311.787 318.97L310.68 326.757L318.741 329.801C318.809 331.649 319.026 333.468 319.397 335.241L312.313 340.12L315.263 347.413L323.775 346.036C324.753 347.582 325.855 349.044 327.076 350.409L323.384 358.173L329.598 363.021L336.267 357.597C337.873 358.442 339.567 359.157 341.33 359.735L342.029 368.296L349.844 369.398L352.902 361.368C354.756 361.3 356.582 361.083 358.362 360.714L363.259 367.772L370.579 364.833L369.197 356.352C370.749 355.378 372.218 354.28 373.587 353.064L381.38 356.74L386.246 350.548L380.802 343.904C381.65 342.304 382.367 340.615 382.948 338.86L391.541 338.162L392.647 330.377L384.586 327.333C384.519 325.485 384.301 323.666 383.931 321.893L391.014 317.016L388.064 309.723L379.552 311.1C378.575 309.554 377.472 308.09 376.252 306.726L379.942 298.963L373.726 294.114L367.057 299.541C365.451 298.696 363.756 297.981 361.994 297.403L361.294 288.842L353.48 287.739L350.424 295.77C348.569 295.837 346.743 296.054 344.964 296.423L340.069 289.366L332.748 292.305L334.132 300.783C332.58 301.757 331.111 302.856 329.742 304.072L321.949 300.395L317.083 306.588L322.528 313.232C321.679 314.832 320.962 316.521 320.382 318.276L311.789 318.973L311.787 318.97ZM354.509 308.52C365.621 310.088 373.354 320.331 371.781 331.401C370.207 342.471 359.925 350.175 348.814 348.608C337.703 347.04 329.97 336.797 331.543 325.727C333.116 314.657 343.398 306.953 354.509 308.52Z" fill="#20E086"/>
<path d="M352.182 373.12C352.151 373.12 352.122 373.119 352.092 373.115L344.275 372.012C343.98 371.97 343.753 371.73 343.728 371.434L343.063 363.292C341.547 362.773 340.076 362.153 338.68 361.442L332.335 366.603C332.104 366.791 331.772 366.795 331.537 366.611L325.321 361.763C325.086 361.58 325.009 361.258 325.138 360.989L328.649 353.603C327.612 352.414 326.653 351.145 325.794 349.819L317.698 351.129C317.407 351.177 317.114 351.014 317.002 350.739L314.052 343.446C313.94 343.169 314.037 342.854 314.281 342.683L321.018 338.045C320.719 336.514 320.53 334.935 320.451 333.337L312.783 330.44C312.504 330.335 312.336 330.05 312.377 329.756L313.483 321.971C313.526 321.677 313.767 321.451 314.064 321.426L322.236 320.763C322.757 319.251 323.38 317.786 324.093 316.397L318.913 310.078C318.724 309.847 318.72 309.517 318.905 309.282L323.771 303.09C323.954 302.855 324.278 302.779 324.548 302.907L331.961 306.405C333.157 305.372 334.431 304.417 335.759 303.56L334.443 295.495C334.394 295.201 334.558 294.913 334.834 294.802L342.155 291.863C342.43 291.751 342.748 291.845 342.918 292.091L347.576 298.803C349.113 298.505 350.7 298.317 352.302 298.238L355.209 290.601C355.315 290.322 355.602 290.155 355.895 290.195L363.712 291.298C364.007 291.34 364.234 291.58 364.259 291.876L364.924 300.018C366.442 300.537 367.913 301.157 369.307 301.868L375.65 296.707C375.881 296.519 376.213 296.515 376.448 296.699L382.662 301.547C382.897 301.732 382.974 302.053 382.845 302.321L379.334 309.707C380.371 310.898 381.33 312.168 382.19 313.491L390.285 312.179C390.578 312.131 390.869 312.294 390.981 312.569L393.931 319.862C394.043 320.139 393.947 320.454 393.702 320.625L386.965 325.264C387.264 326.794 387.453 328.373 387.532 329.971L395.2 332.868C395.479 332.974 395.647 333.258 395.607 333.552L394.5 341.339C394.457 341.633 394.216 341.859 393.92 341.884L385.747 342.547C385.226 344.059 384.603 345.524 383.89 346.913L389.071 353.232C389.26 353.463 389.263 353.793 389.078 354.028L384.212 360.22C384.029 360.455 383.707 360.531 383.435 360.403L376.022 356.905C374.828 357.938 373.554 358.893 372.224 359.75L373.539 367.815C373.587 368.109 373.423 368.397 373.147 368.509L365.827 371.447C365.549 371.559 365.231 371.465 365.061 371.219L360.405 364.508C358.867 364.805 357.282 364.994 355.68 365.072L352.772 372.709C352.678 372.959 352.437 373.12 352.174 373.12H352.182ZM344.962 370.823L351.766 371.782L354.642 364.227C354.733 363.987 354.96 363.826 355.217 363.816C357.035 363.749 358.838 363.534 360.571 363.176C360.823 363.125 361.08 363.228 361.226 363.438L365.83 370.076L372.204 367.517L370.903 359.54C370.863 359.289 370.976 359.035 371.194 358.899C372.713 357.946 374.161 356.861 375.499 355.674C375.69 355.505 375.966 355.464 376.199 355.574L383.53 359.033L387.765 353.643L382.643 347.393C382.481 347.195 382.454 346.919 382.573 346.692C383.4 345.134 384.108 343.469 384.677 341.746C384.758 341.502 384.976 341.331 385.232 341.31L393.316 340.655L394.278 333.876L386.695 331.011C386.454 330.92 386.292 330.694 386.283 330.438C386.215 328.623 385.999 326.829 385.641 325.104C385.589 324.854 385.693 324.597 385.903 324.451L392.564 319.862L389.996 313.512L381.989 314.809C381.736 314.851 381.482 314.736 381.345 314.519C380.391 313.007 379.301 311.564 378.108 310.229C377.938 310.039 377.898 309.765 378.008 309.534L381.48 302.231L376.07 298.011L369.796 303.115C369.598 303.276 369.32 303.305 369.093 303.184C367.529 302.362 365.859 301.657 364.128 301.088C363.883 301.008 363.712 300.791 363.69 300.535L363.033 292.483L356.229 291.525L353.352 299.079C353.262 299.319 353.034 299.481 352.778 299.49C350.958 299.557 349.157 299.773 347.424 300.13C347.173 300.18 346.915 300.078 346.768 299.869L342.162 293.23L335.788 295.789L337.09 303.766C337.13 304.018 337.016 304.271 336.799 304.407C335.281 305.358 333.833 306.444 332.493 307.633C332.301 307.803 332.025 307.842 331.795 307.732L324.463 304.273L320.227 309.663L325.35 315.913C325.512 316.111 325.539 316.388 325.42 316.614C324.594 318.172 323.885 319.835 323.316 321.56C323.235 321.804 323.017 321.975 322.761 321.996L314.677 322.651L313.715 329.428L321.297 332.294C321.538 332.384 321.7 332.611 321.71 332.866C321.778 334.681 321.993 336.475 322.352 338.2C322.404 338.45 322.3 338.707 322.09 338.853L315.427 343.442L317.995 349.792L326.002 348.496C326.254 348.453 326.509 348.569 326.646 348.786C327.602 350.299 328.691 351.742 329.883 353.075C330.053 353.265 330.093 353.54 329.983 353.77L326.511 361.073L331.921 365.293L338.194 360.19C338.393 360.028 338.671 360.001 338.896 360.12C340.462 360.944 342.131 361.649 343.861 362.216C344.106 362.297 344.277 362.514 344.299 362.769L344.956 370.821L344.962 370.823ZM354.01 352.537C353.036 352.537 352.051 352.47 351.058 352.33C339.615 350.716 331.626 340.129 333.243 328.731C334.863 317.331 345.494 309.371 356.931 310.982C368.374 312.596 376.365 323.183 374.746 334.581C373.267 344.992 364.273 352.537 354.008 352.537H354.01ZM353.983 312.048C344.345 312.048 335.9 319.132 334.51 328.909C332.989 339.614 340.493 349.554 351.237 351.07C352.169 351.2 353.094 351.266 354.008 351.266C363.648 351.266 372.091 344.182 373.481 334.405C375.002 323.7 367.498 313.76 356.753 312.244C355.822 312.114 354.897 312.048 353.981 312.048H353.983Z" fill="#020D3A"/>
</svg>
