<svg width="544" height="400" viewBox="0 0 544 400" fill="none" xmlns="http://www.w3.org/2000/svg">
<path d="M308.079 36.4203C307.88 36.4203 307.685 36.3261 307.562 36.1511L306.57 34.7264C306.369 34.4399 306.438 34.0438 306.725 33.8439C307.01 33.642 307.404 33.7112 307.604 33.9996L308.597 35.4243C308.797 35.7108 308.729 36.1069 308.442 36.3069C308.331 36.3857 308.205 36.4222 308.081 36.4222L308.079 36.4203Z" fill="black"/>
<path d="M312.835 43.2377C312.637 43.2377 312.442 43.1435 312.319 42.9685L311.327 41.5438C311.126 41.2573 311.195 40.8612 311.482 40.6612C311.767 40.4594 312.16 40.5286 312.361 40.817L313.354 42.2417C313.554 42.5282 313.486 42.9243 313.199 43.1242C313.088 43.2031 312.962 43.2396 312.837 43.2396L312.835 43.2377Z" fill="black"/>
<path d="M305.837 41.9718C305.636 41.9718 305.439 41.8756 305.317 41.6968C305.12 41.4084 305.193 41.0123 305.479 40.8143L306.904 39.8279C307.191 39.6299 307.583 39.703 307.781 39.9914C307.978 40.2798 307.906 40.6759 307.619 40.8739L306.194 41.8602C306.085 41.9352 305.961 41.9718 305.837 41.9718Z" fill="black"/>
<path d="M312.661 37.2486C312.46 37.2486 312.263 37.1525 312.141 36.9737C311.944 36.6853 312.017 36.2892 312.304 36.0912L313.728 35.1048C314.015 34.9068 314.407 34.9779 314.606 35.2683C314.803 35.5567 314.73 35.9527 314.443 36.1508L313.019 37.1371C312.91 37.2121 312.785 37.2486 312.661 37.2486Z" fill="black"/>
<path d="M417.439 338.154C417.1 338.154 416.819 337.883 416.808 337.539L416.754 335.801C416.743 335.451 417.016 335.159 417.366 335.147C417.718 335.13 418.005 335.41 418.016 335.76L418.07 337.498C418.081 337.848 417.808 338.141 417.458 338.152C417.452 338.152 417.444 338.152 417.439 338.152V338.154Z" fill="black"/>
<path d="M417.695 346.479C417.356 346.479 417.075 346.208 417.064 345.864L417.01 344.126C416.999 343.776 417.272 343.484 417.622 343.472C417.964 343.453 418.261 343.736 418.272 344.086L418.326 345.824C418.337 346.174 418.064 346.466 417.714 346.478C417.708 346.478 417.7 346.478 417.695 346.478V346.479Z" fill="black"/>
<path d="M412.536 341.556C412.194 341.556 411.913 341.281 411.905 340.935C411.898 340.585 412.173 340.295 412.523 340.287L414.251 340.249C414.607 340.253 414.888 340.52 414.896 340.87C414.903 341.22 414.628 341.51 414.278 341.518L412.55 341.556H412.536Z" fill="black"/>
<path d="M420.818 341.377C420.475 341.377 420.194 341.102 420.187 340.756C420.179 340.406 420.454 340.115 420.804 340.108L422.533 340.069C422.894 340.065 423.169 340.338 423.177 340.69C423.185 341.04 422.909 341.33 422.559 341.338L420.831 341.377H420.818Z" fill="black"/>
<path d="M405.307 360.535C404.336 360.535 403.361 360.173 402.6 359.448C401.03 357.951 400.956 355.459 402.434 353.894C403.151 353.134 404.12 352.703 405.164 352.68C406.204 352.657 407.198 353.044 407.957 353.769C408.716 354.492 409.152 355.468 409.185 356.516C409.217 357.566 408.841 358.562 408.124 359.321C407.363 360.127 406.338 360.535 405.307 360.535ZM405.25 353.947C405.231 353.947 405.21 353.947 405.191 353.947C404.485 353.963 403.831 354.253 403.348 354.765C402.349 355.822 402.403 357.51 403.468 358.525C404.533 359.541 406.212 359.506 407.21 358.447C407.693 357.935 407.946 357.262 407.925 356.553C407.904 355.841 407.605 355.178 407.089 354.686C406.586 354.207 405.936 353.946 405.25 353.946V353.947Z" fill="black"/>
<path d="M386.568 365.059C385.952 365.059 385.333 364.83 384.851 364.37C383.855 363.42 383.809 361.838 384.746 360.844C385.684 359.85 387.256 359.813 388.252 360.763C389.248 361.713 389.294 363.295 388.357 364.289C387.874 364.803 387.222 365.06 386.568 365.06V365.059ZM385.662 361.715C385.203 362.201 385.227 362.98 385.719 363.449C386.21 363.918 386.983 363.903 387.443 363.415C387.902 362.928 387.877 362.149 387.386 361.682C386.895 361.215 386.12 361.229 385.662 361.717V361.715Z" fill="black"/>
<path d="M153.485 366.695H311.817C318.639 366.695 323.473 361.15 322.612 354.311L283.627 44.5943C282.766 37.7552 276.537 32.2101 269.713 32.2101L119.33 30.4451C102.068 30.4451 99.7259 37.7552 100.588 44.5943L139.574 354.311C140.434 361.15 146.663 366.695 153.487 366.695H153.485Z" fill="#20E086"/>
<path d="M163.012 366.695H321.344C328.168 366.695 332.999 361.132 332.139 354.272L293.153 43.5689C292.293 36.7087 286.064 31.1462 279.24 31.1462H120.91C114.086 31.1462 109.254 36.7087 110.115 43.5689L149.1 354.272C149.961 361.132 156.19 366.695 163.014 366.695H163.012Z" fill="white"/>
<path opacity="0.1" d="M323.116 354.702L285.891 58.0325C285.693 56.4482 284.255 55.1638 282.679 55.1638H123.497C121.921 55.1638 120.807 56.4482 121.005 58.0325L158.23 354.702C158.429 356.286 159.867 357.57 161.442 357.57H320.625C322.2 357.57 323.315 356.286 323.116 354.702Z" fill="#020D3A"/>
<path d="M205.062 45.6795C206.705 43.9197 206.428 40.9742 204.443 39.1006C202.458 37.227 199.518 37.1347 197.875 38.8945C196.232 40.6542 196.509 43.5997 198.494 45.4733C200.479 47.3469 203.42 47.4392 205.062 45.6795Z" fill="#020D3A"/>
<path d="M285.625 367.329H185.884C185.536 367.329 185.253 367.045 185.253 366.695C185.253 366.345 185.536 366.06 185.884 366.06H285.625C285.973 366.06 286.256 366.345 286.256 366.695C286.256 367.045 285.973 367.329 285.625 367.329Z" fill="black"/>
<path d="M121.872 137.911C121.558 137.911 121.287 137.677 121.247 137.356L109.488 43.6484C109.046 40.128 110.004 36.819 112.188 34.331C114.346 31.868 117.444 30.5125 120.91 30.5125H279.24C286.358 30.5125 292.88 36.3344 293.779 43.4908L298.15 78.3304C298.194 78.6784 297.949 78.9956 297.603 79.0399C297.255 79.0841 296.941 78.838 296.897 78.49L292.527 43.6504C291.706 37.1054 285.745 31.7814 279.24 31.7814H120.91C117.813 31.7814 115.052 32.9851 113.134 35.1693C111.195 37.3804 110.345 40.3356 110.74 43.4908L122.499 137.2C122.543 137.548 122.298 137.865 121.952 137.91C121.926 137.913 121.899 137.915 121.872 137.915V137.911Z" fill="black"/>
<path d="M310.427 181.871C310.114 181.871 309.842 181.637 309.802 181.316L303.578 131.721C303.534 131.373 303.779 131.056 304.125 131.012C304.473 130.968 304.787 131.214 304.831 131.562L311.054 181.156C311.098 181.504 310.853 181.821 310.507 181.866C310.481 181.869 310.454 181.871 310.427 181.871Z" fill="black"/>
<path d="M321.344 367.329H253.164C252.816 367.329 252.533 367.044 252.533 366.694C252.533 366.344 252.816 366.06 253.164 366.06H321.344C324.441 366.06 327.202 364.856 329.12 362.67C331.059 360.459 331.909 357.504 331.514 354.348L319.929 262.022C319.885 261.674 320.13 261.356 320.476 261.312C320.824 261.27 321.137 261.514 321.181 261.862L332.766 354.189C333.208 357.709 332.25 361.018 330.066 363.506C327.908 365.969 324.81 367.325 321.344 367.325V367.329Z" fill="black"/>
<path d="M279.48 305.874L274.618 303.357C273.834 302.951 273.343 302.132 273.377 301.252C273.414 300.321 273.412 299.396 273.37 298.475C273.33 297.598 273.813 296.779 274.592 296.368L279.425 293.809C280.377 293.305 280.851 292.211 280.568 291.175L279.414 286.958C279.131 285.922 278.163 285.22 277.087 285.268L271.605 285.51C270.718 285.549 269.886 285.08 269.471 284.299C269.041 283.491 268.578 282.701 268.085 281.93C267.607 281.186 267.605 280.232 268.077 279.483L270.987 274.847C271.559 273.936 271.421 272.753 270.655 271.997L267.538 268.921C266.773 268.165 265.584 268.039 264.676 268.617L260.062 271.551C259.315 272.026 258.361 272.034 257.607 271.567C256.831 271.084 256.032 270.63 255.21 270.209C254.42 269.804 253.938 268.977 253.971 268.09L254.164 262.632C254.202 261.559 253.489 260.601 252.447 260.328L248.204 259.217C247.162 258.944 246.068 259.427 245.571 260.38L243.046 265.226C242.638 266.008 241.818 266.497 240.933 266.462C240 266.425 239.071 266.427 238.147 266.47C237.266 266.508 236.445 266.027 236.032 265.251L233.465 260.434C232.96 259.486 231.862 259.013 230.822 259.296L226.591 260.446C225.551 260.728 224.847 261.692 224.895 262.765L225.14 268.225C225.18 269.104 224.715 269.934 223.935 270.346C223.117 270.778 222.316 271.244 221.534 271.742C220.79 272.217 219.836 272.209 219.088 271.742L214.438 268.842C213.525 268.273 212.337 268.41 211.578 269.173L208.49 272.278C207.731 273.041 207.605 274.226 208.184 275.131L211.129 279.731C211.605 280.475 211.614 281.426 211.144 282.176C210.658 282.949 210.205 283.747 209.781 284.566C209.374 285.355 208.544 285.833 207.655 285.803L202.177 285.61C201.1 285.572 200.141 286.283 199.865 287.321L198.749 291.55C198.475 292.588 198.959 293.678 199.915 294.172L204.777 296.689C205.561 297.095 206.052 297.914 206.018 298.794C205.982 299.725 205.984 300.65 206.026 301.571C206.064 302.447 205.582 303.267 204.804 303.678L199.97 306.237C199.018 306.741 198.544 307.835 198.827 308.871L199.982 313.088C200.265 314.124 201.232 314.826 202.309 314.778L207.789 314.536C208.67 314.497 209.504 314.959 209.917 315.735C210.351 316.552 210.817 317.35 211.318 318.127C211.794 318.867 211.787 319.819 211.318 320.565L208.41 325.199C207.838 326.11 207.976 327.293 208.741 328.048L211.857 331.125C212.622 331.88 213.811 332.007 214.72 331.429L219.333 328.494C220.081 328.02 221.035 328.012 221.786 328.479C222.562 328.962 223.362 329.415 224.184 329.837C224.973 330.242 225.455 331.069 225.425 331.955L225.232 337.414C225.193 338.487 225.907 339.444 226.949 339.717L231.191 340.829C232.233 341.102 233.327 340.619 233.824 339.665L236.35 334.82C236.757 334.038 237.577 333.549 238.461 333.584C239.394 333.62 240.323 333.619 241.246 333.576C242.128 333.538 242.948 334.018 243.361 334.795L245.929 339.612C246.434 340.56 247.531 341.033 248.571 340.75L252.802 339.6C253.843 339.317 254.546 338.354 254.498 337.281L254.254 331.819C254.214 330.936 254.686 330.106 255.47 329.692C256.28 329.264 257.074 328.802 257.846 328.31C258.594 327.833 259.55 327.833 260.303 328.302L264.955 331.202C265.869 331.771 267.056 331.634 267.815 330.871L270.903 327.766C271.662 327.002 271.789 325.818 271.209 324.912L268.265 320.313C267.789 319.569 267.779 318.617 268.249 317.868C268.735 317.095 269.188 316.297 269.613 315.478C270.02 314.689 270.85 314.211 271.739 314.241L277.217 314.436C278.293 314.474 279.253 313.763 279.528 312.724L280.645 308.496C280.918 307.458 280.435 306.368 279.479 305.874H279.48ZM239.7 318.792C229.297 318.792 220.863 310.388 220.863 300.021C220.863 289.654 229.297 281.25 239.7 281.25C250.103 281.25 258.537 289.654 258.537 300.021C258.537 310.388 250.103 318.792 239.7 318.792Z" fill="#20E086"/>
<path d="M217.671 101.92L214.954 100.513C214.516 100.286 214.24 99.8285 214.26 99.3362C214.281 98.8171 214.279 98.298 214.256 97.7846C214.235 97.2943 214.504 96.8367 214.938 96.606L217.64 95.1755C218.171 94.8948 218.437 94.2833 218.279 93.7027L217.632 91.3454C217.474 90.7667 216.934 90.3745 216.332 90.4014L213.269 90.5379C212.774 90.559 212.309 90.2976 212.076 89.8611C211.835 89.4093 211.577 88.967 211.302 88.5363C211.034 88.1191 211.034 87.5865 211.298 87.1674L212.925 84.5775C213.244 84.068 213.168 83.4065 212.74 82.9855L210.998 81.2666C210.569 80.8436 209.906 80.7724 209.397 81.0954L206.818 82.7355C206.401 83.0008 205.866 83.0047 205.447 82.7432C205.013 82.474 204.566 82.2202 204.107 81.9837C203.665 81.7568 203.396 81.2954 203.415 80.7993L203.524 77.748C203.545 77.1481 203.147 76.6136 202.564 76.4617L200.193 75.8407C199.61 75.6888 199 75.9579 198.723 76.4905L197.312 79.1996C197.084 79.6361 196.625 79.911 196.132 79.8918C195.61 79.8707 195.092 79.8726 194.576 79.8957C194.084 79.9168 193.623 79.6476 193.394 79.215L191.96 76.5232C191.677 75.9925 191.063 75.7291 190.482 75.8868L188.117 76.5309C187.536 76.6886 187.142 77.2269 187.169 77.8268L187.304 80.8782C187.325 81.3685 187.067 81.8338 186.631 82.0645C186.174 82.3067 185.725 82.5663 185.289 82.8451C184.874 83.1104 184.341 83.1066 183.922 82.8451L181.324 81.2243C180.813 80.9051 180.15 80.982 179.725 81.4088L177.999 83.1451C177.574 83.5719 177.503 84.2333 177.829 84.739L179.475 87.3096C179.741 87.725 179.746 88.2576 179.482 88.6767C179.211 89.1093 178.957 89.5535 178.721 90.0111C178.494 90.4514 178.029 90.7186 177.534 90.7013L174.473 90.5936C173.871 90.5725 173.335 90.9705 173.18 91.5492L172.557 93.9123C172.404 94.4929 172.674 95.1024 173.209 95.3793L175.926 96.7867C176.364 97.0136 176.639 97.4712 176.62 97.9634C176.599 98.4825 176.601 99.0017 176.624 99.515C176.645 100.005 176.375 100.463 175.941 100.694L173.24 102.124C172.708 102.405 172.442 103.016 172.601 103.597L173.247 105.954C173.406 106.533 173.945 106.925 174.548 106.898L177.611 106.762C178.104 106.741 178.57 106.998 178.8 107.433C179.043 107.888 179.303 108.335 179.582 108.769C179.848 109.182 179.844 109.715 179.582 110.13L177.957 112.72C177.637 113.23 177.714 113.891 178.142 114.314L179.884 116.033C180.312 116.456 180.976 116.527 181.484 116.204L184.064 114.564C184.48 114.299 185.016 114.295 185.434 114.556C185.868 114.826 186.316 115.079 186.775 115.316C187.216 115.543 187.486 116.004 187.467 116.5L187.358 119.552C187.337 120.152 187.735 120.686 188.318 120.838L190.689 121.459C191.272 121.611 191.882 121.342 192.159 120.809L193.57 118.1C193.797 117.664 194.256 117.389 194.75 117.408C195.272 117.427 195.79 117.427 196.306 117.404C196.797 117.383 197.258 117.652 197.488 118.085L198.922 120.776C199.205 121.307 199.818 121.571 200.4 121.413L202.765 120.771C203.346 120.613 203.74 120.075 203.713 119.475L203.577 116.421C203.554 115.927 203.818 115.464 204.256 115.233C204.709 114.993 205.153 114.735 205.585 114.46C206.004 114.195 206.537 114.193 206.958 114.456L209.558 116.077C210.068 116.396 210.732 116.32 211.156 115.893L212.883 114.157C213.307 113.73 213.378 113.068 213.053 112.563L211.407 109.992C211.141 109.577 211.135 109.044 211.399 108.625C211.671 108.192 211.925 107.748 212.16 107.289C212.388 106.848 212.852 106.581 213.348 106.598L216.409 106.706C217.011 106.727 217.546 106.329 217.701 105.748L218.324 103.385C218.477 102.805 218.206 102.195 217.672 101.92H217.671ZM195.436 109.142C189.622 109.142 184.909 104.445 184.909 98.6498C184.909 92.8548 189.622 88.1576 195.436 88.1576C201.25 88.1576 205.963 92.8548 205.963 98.6498C205.963 104.445 201.25 109.142 195.436 109.142Z" fill="white"/>
<path d="M191.02 122.134C190.857 122.134 190.691 122.113 190.527 122.071L188.156 121.45C187.282 121.221 186.693 120.431 186.724 119.527L186.833 116.476C186.842 116.228 186.704 115.993 186.483 115.88C186.009 115.638 185.544 115.372 185.098 115.095C184.886 114.963 184.609 114.965 184.397 115.101L181.817 116.741C181.058 117.224 180.079 117.122 179.439 116.487L177.697 114.768C177.053 114.132 176.938 113.151 177.42 112.384L179.045 109.794C179.177 109.585 179.179 109.318 179.049 109.116C178.762 108.668 178.489 108.202 178.24 107.733C178.125 107.518 177.884 107.379 177.634 107.397L174.571 107.533C173.669 107.576 172.873 106.993 172.634 106.122L171.988 103.765C171.749 102.892 172.141 101.986 172.94 101.563L175.642 100.133C175.864 100.015 175.999 99.7847 175.988 99.5444C175.965 99.0156 175.963 98.4753 175.984 97.9389C175.994 97.6986 175.856 97.4678 175.632 97.3525L172.915 95.945C172.11 95.5297 171.711 94.628 171.942 93.7532L172.565 91.3901C172.795 90.5172 173.584 89.9289 174.489 89.9635L177.55 90.0712C177.808 90.0769 178.041 89.9423 178.156 89.7212C178.401 89.2482 178.667 88.7829 178.944 88.3407C179.074 88.1331 179.072 87.8639 178.938 87.6562L177.292 85.0856C176.804 84.3222 176.907 83.3417 177.546 82.6995L179.273 80.9652C179.907 80.3268 180.884 80.2115 181.649 80.6902L184.248 82.3092C184.464 82.4437 184.737 82.4457 184.945 82.313C185.393 82.0265 185.859 81.7554 186.332 81.5074C186.548 81.3939 186.68 81.1594 186.668 80.9113L186.532 77.86C186.492 76.9563 187.074 76.1603 187.945 75.9238L190.311 75.2816C191.182 75.0451 192.085 75.4354 192.509 76.2314L193.943 78.9232C194.062 79.1463 194.297 79.2828 194.542 79.2693C195.077 79.2463 195.616 79.2443 196.152 79.2655C196.402 79.2809 196.633 79.1367 196.75 78.9136L198.161 76.2065C198.578 75.4066 199.478 75.0067 200.35 75.2374L202.721 75.8584C203.595 76.0872 204.184 76.8775 204.151 77.7812L204.042 80.8325C204.033 81.0805 204.171 81.3151 204.392 81.4285C204.866 81.6708 205.331 81.9361 205.777 82.213C205.991 82.3457 206.266 82.3438 206.478 82.2072L209.058 80.5672C209.819 80.0846 210.796 80.1884 211.436 80.821L213.178 82.5418C213.822 83.1782 213.937 84.1588 213.455 84.926L211.83 87.5159C211.698 87.7254 211.698 87.9946 211.83 88.2023C212.113 88.6445 212.383 89.104 212.631 89.5712C212.748 89.7904 212.991 89.9346 213.241 89.9135L216.304 89.777C217.203 89.7385 218.002 90.3173 218.241 91.1883L218.887 93.5455C219.126 94.4184 218.734 95.324 217.935 95.747L215.233 97.1775C215.011 97.2948 214.876 97.5255 214.887 97.7659C214.91 98.2946 214.912 98.8349 214.891 99.3713C214.881 99.6117 215.019 99.8424 215.243 99.9578L217.96 101.365C218.763 101.78 219.164 102.682 218.933 103.557L218.31 105.92C218.08 106.793 217.292 107.379 216.386 107.347L213.325 107.239C213.061 107.218 212.834 107.368 212.719 107.589C212.474 108.064 212.209 108.527 211.931 108.97C211.801 109.177 211.803 109.446 211.937 109.654L213.583 112.225C214.071 112.986 213.968 113.969 213.329 114.611L211.602 116.347C210.968 116.985 209.991 117.099 209.226 116.622L206.626 115.001C206.409 114.866 206.134 114.866 205.922 115.001C205.476 115.286 205.014 115.553 204.549 115.799C204.329 115.914 204.195 116.151 204.207 116.397L204.343 119.45C204.383 120.354 203.802 121.15 202.93 121.386L200.565 122.031C199.695 122.265 198.79 121.877 198.368 121.081L196.934 118.389C196.815 118.168 196.58 118.033 196.335 118.043C195.806 118.066 195.264 118.068 194.727 118.047C194.473 118.033 194.245 118.175 194.129 118.399L192.718 121.108C192.379 121.756 191.723 122.14 191.022 122.14L191.02 122.134ZM184.752 113.728C185.104 113.728 185.456 113.824 185.762 114.015C186.179 114.274 186.615 114.52 187.056 114.747C187.712 115.084 188.119 115.78 188.093 116.518L187.984 119.569C187.972 119.875 188.175 120.142 188.473 120.221L190.844 120.842C191.14 120.919 191.458 120.781 191.597 120.512L193.008 117.802C193.351 117.147 194.037 116.753 194.771 116.772C195.274 116.791 195.781 116.789 196.276 116.768C197.002 116.735 197.697 117.135 198.043 117.783L199.477 120.475C199.62 120.742 199.937 120.881 200.234 120.8L202.599 120.156C202.897 120.075 203.094 119.806 203.081 119.5L202.945 116.447C202.912 115.711 203.31 115.013 203.96 114.668C204.396 114.438 204.828 114.188 205.245 113.922C205.863 113.53 206.664 113.526 207.287 113.915L209.887 115.536C210.147 115.697 210.492 115.659 210.708 115.441L212.434 113.705C212.648 113.488 212.685 113.159 212.52 112.903L210.874 110.333C210.476 109.712 210.471 108.908 210.862 108.283C211.123 107.87 211.369 107.437 211.599 106.993C211.937 106.339 212.644 105.939 213.369 105.96L216.43 106.068C216.738 106.087 217.011 105.88 217.09 105.584L217.713 103.221C217.792 102.926 217.654 102.623 217.382 102.482L214.665 101.075C214.008 100.735 213.6 100.04 213.629 99.3098C213.648 98.8099 213.648 98.3042 213.625 97.812C213.593 97.0833 213.992 96.3892 214.644 96.045L217.346 94.6145C217.618 94.4703 217.751 94.1665 217.671 93.8724L217.025 91.5151C216.945 91.219 216.673 91.0229 216.361 91.0344L213.298 91.1709C212.57 91.2056 211.866 90.8056 211.522 90.1596C211.291 89.7231 211.038 89.2925 210.773 88.881C210.375 88.26 210.371 87.4563 210.765 86.8295L212.392 84.2396C212.555 83.9819 212.514 83.6531 212.298 83.4378L210.557 81.717C210.339 81.5016 209.994 81.4651 209.736 81.6304L207.157 83.2705C206.538 83.6647 205.736 83.6685 205.117 83.282C204.7 83.0225 204.264 82.7764 203.823 82.5495C203.167 82.213 202.759 81.517 202.786 80.7787L202.895 77.7273C202.907 77.4235 202.704 77.1544 202.406 77.0774L200.035 76.4564C199.739 76.3776 199.421 76.5179 199.282 76.7871L197.871 79.4962C197.528 80.1519 196.838 80.5556 196.108 80.5268C195.609 80.5076 195.102 80.5076 194.603 80.5306C193.878 80.5556 193.182 80.1634 192.836 79.5154L191.402 76.8236C191.259 76.5564 190.941 76.4199 190.647 76.5006L188.282 77.1428C187.984 77.2236 187.785 77.4927 187.8 77.7985L187.936 80.8498C187.968 81.5881 187.573 82.2842 186.926 82.6264C186.485 82.859 186.049 83.1128 185.63 83.3801C185.016 83.7723 184.217 83.7723 183.592 83.3839L180.993 81.765C180.733 81.6035 180.389 81.642 180.173 81.8592L178.447 83.5954C178.232 83.8127 178.196 84.1415 178.361 84.3972L180.007 86.9679C180.404 87.5889 180.408 88.3926 180.018 89.0156C179.758 89.429 179.512 89.8635 179.282 90.3057C178.944 90.9594 178.246 91.3651 177.512 91.3382L174.451 91.2306C174.135 91.2171 173.869 91.419 173.791 91.7151L173.168 94.0781C173.089 94.3723 173.227 94.6761 173.498 94.8164L176.215 96.2238C176.873 96.5642 177.278 97.2583 177.252 97.9889C177.233 98.4888 177.233 98.9945 177.255 99.4867C177.288 100.215 176.888 100.91 176.236 101.254L173.535 102.684C173.263 102.828 173.129 103.132 173.21 103.426L173.856 105.784C173.936 106.08 174.206 106.28 174.519 106.264L177.582 106.128C178.322 106.101 179.014 106.489 179.357 107.133C179.59 107.572 179.844 108.006 180.114 108.425C180.51 109.041 180.51 109.844 180.118 110.469L178.493 113.059C178.33 113.317 178.368 113.647 178.586 113.861L180.328 115.58C180.546 115.795 180.89 115.832 181.148 115.666L183.728 114.026C184.041 113.826 184.399 113.728 184.758 113.728H184.752ZM195.438 109.775C189.286 109.775 184.28 104.784 184.28 98.6503C184.28 92.5168 189.286 87.5255 195.438 87.5255C201.591 87.5255 206.597 92.5168 206.597 98.6503C206.597 104.784 201.591 109.775 195.438 109.775ZM195.438 88.7925C189.982 88.7925 185.542 93.2148 185.542 98.6503C185.542 104.086 189.982 108.508 195.438 108.508C200.895 108.508 205.335 104.086 205.335 98.6503C205.335 93.2148 200.895 88.7925 195.438 88.7925Z" fill="#020D3A"/>
<path d="M423.954 88.1189C423.608 88.1189 423.258 88.0882 422.91 88.0247C419.775 87.4556 417.681 84.4504 418.241 81.3241C418.302 80.9799 418.629 80.7549 418.973 80.8126C419.316 80.8742 419.543 81.2049 419.482 81.549C419.046 83.987 420.683 86.3327 423.134 86.7769C424.319 86.9922 425.52 86.7346 426.51 86.0501C427.499 85.3675 428.159 84.3408 428.371 83.1603C428.583 81.9797 428.319 80.7857 427.631 79.7994C426.941 78.8111 425.906 78.1477 424.719 77.9324C424.377 77.8709 424.149 77.5402 424.21 77.196C424.272 76.8518 424.6 76.623 424.943 76.6846C426.461 76.9595 427.782 77.8074 428.663 79.0726C429.547 80.3377 429.883 81.8701 429.612 83.3871C429.34 84.9022 428.493 86.2212 427.226 87.098C426.25 87.7729 425.117 88.1228 423.954 88.1228V88.1189Z" fill="black"/>
<path d="M372.651 195.935C372.451 195.935 372.256 195.84 372.133 195.662C371.935 195.375 372.005 194.979 372.292 194.779L398.461 176.496C398.748 176.296 399.14 176.367 399.339 176.656C399.538 176.942 399.467 177.338 399.18 177.538L373.011 195.821C372.902 195.898 372.776 195.935 372.651 195.935Z" fill="black"/>
<path d="M360.907 186.201C360.709 186.201 360.512 186.107 360.389 185.928C360.19 185.64 360.261 185.245 360.548 185.046L398.988 158.227C399.275 158.028 399.667 158.099 399.866 158.387C400.065 158.675 399.994 159.07 399.707 159.27L361.267 186.088C361.158 186.165 361.032 186.201 360.907 186.201Z" fill="black"/>
<path d="M350.069 116.198C349.869 116.198 349.674 116.103 349.551 115.925C349.352 115.638 349.423 115.242 349.71 115.042L372.769 98.9335C373.055 98.7336 373.447 98.8047 373.646 99.0931C373.845 99.3796 373.774 99.7757 373.487 99.9757L350.429 116.084C350.32 116.161 350.194 116.198 350.069 116.198Z" fill="black"/>
<path d="M303.651 98.7957C303.453 98.7957 303.256 98.7015 303.133 98.5227C302.935 98.2362 303.005 97.8401 303.292 97.6401L316.856 88.165C317.142 87.965 317.534 88.0362 317.733 88.3246C317.932 88.6111 317.861 89.0071 317.575 89.2071L304.011 98.6822C303.902 98.7592 303.776 98.7957 303.651 98.7957Z" fill="black"/>
<path d="M309.279 86.7019C309.081 86.7019 308.884 86.6077 308.761 86.4288C308.562 86.1424 308.633 85.7463 308.92 85.5463L315.95 80.6357C316.237 80.4357 316.629 80.5069 316.828 80.7953C317.027 81.0818 316.956 81.4778 316.669 81.6778L309.639 86.5884C309.53 86.6653 309.404 86.7019 309.279 86.7019Z" fill="black"/>
<path d="M314.213 125.529C314.012 125.529 313.817 125.435 313.695 125.256C313.496 124.969 313.567 124.573 313.854 124.373L348.107 100.443C348.394 100.243 348.786 100.314 348.984 100.603C349.183 100.891 349.113 101.285 348.826 101.485L314.572 125.416C314.463 125.492 314.337 125.529 314.213 125.529Z" fill="black"/>
<path d="M317.505 67.3311C317.505 52.9531 329.086 41.2957 343.374 41.2957C357.662 41.2957 369.243 52.9531 369.243 67.3311C369.243 81.7092 357.662 93.3666 343.374 93.3666C329.086 93.3666 317.505 81.7111 317.505 67.3311Z" fill="white"/>
<path d="M325.162 86.262C329.822 90.6842 336.099 93.3991 343.012 93.3991C349.926 93.3991 356.203 90.6842 360.863 86.262C355.473 84.5835 349.416 83.6394 343.012 83.6394C336.609 83.6394 330.554 84.5835 325.162 86.262Z" fill="#20E086"/>
<path d="M351.349 52.121C350.177 51.3615 348.812 50.9578 347.416 50.9578H339.206C337.372 50.9578 335.608 51.6557 334.266 52.9093L333.816 53.3304C331.682 55.3223 330.939 58.4025 331.925 61.1578L334.625 68.691L351.934 68.5814L354.378 60.3483C355.301 57.2335 354.068 53.8803 351.351 52.121H351.349Z" fill="black"/>
<path d="M347.211 55.4723L347.193 55.4646L334.532 63.6265V68.3641C334.532 71.1636 335.834 73.6554 337.859 75.2686V82.7249C337.859 85.6724 340.236 88.0623 343.167 88.0623C346.098 88.0623 348.474 85.6724 348.474 82.7249V75.4704C350.646 73.8669 352.058 71.2809 352.058 68.3641V63.1747C352.058 59.7734 350.075 56.8393 347.209 55.4723H347.211Z" fill="white"/>
<path d="M343.167 88.6971C339.892 88.6971 337.229 86.0187 337.229 82.7251V75.4246H338.49V82.7251C338.49 85.3189 340.588 87.4281 343.167 87.4281C345.746 87.4281 347.844 85.3189 347.844 82.7251V75.6534H349.106V82.7251C349.106 86.0168 346.442 88.6971 343.167 88.6971Z" fill="black"/>
<path d="M343.296 77.811C342.948 77.811 342.665 77.5265 342.665 77.1765C342.665 76.8266 342.948 76.542 343.296 76.542C347.78 76.542 351.428 72.8735 351.428 68.3647V63.1753C351.428 58.8281 347.911 55.2922 343.588 55.2922H335.162V68.3647C335.162 71.5641 337.034 74.4867 339.929 75.8114C340.246 75.9556 340.386 76.3325 340.243 76.6516C340.097 76.9708 339.724 77.1112 339.407 76.967C336.063 75.4365 333.902 72.0602 333.902 68.3647V54.6577C333.902 54.3078 334.185 54.0232 334.533 54.0232H343.588C348.606 54.0232 352.688 58.1282 352.688 63.1753V68.3647C352.688 73.5734 348.474 77.811 343.294 77.811H343.296Z" fill="black"/>
<path d="M342.978 94.0147C342.783 94.0147 342.588 94.0127 342.391 94.0089C335.275 93.8551 328.642 90.9249 323.717 85.7547C314.032 75.5893 313.845 59.5019 323.29 49.1308C323.526 48.8731 323.925 48.8539 324.181 49.0904C324.438 49.3269 324.455 49.7287 324.22 49.9864C315.222 59.8653 315.4 75.1913 324.627 84.876C329.319 89.8001 335.636 92.5938 342.416 92.7399C349.198 92.8937 355.628 90.3692 360.524 85.6508C365.421 80.9325 368.199 74.5798 368.344 67.7619C368.49 60.9439 365.987 54.4759 361.295 49.5519C356.219 44.2221 349.098 41.3726 341.76 41.711C341.412 41.7283 341.118 41.4572 341.101 41.1073C341.085 40.7574 341.353 40.4593 341.701 40.444C349.408 40.0767 356.876 43.08 362.205 48.6751C367.13 53.8453 369.757 60.6325 369.604 67.7907C369.451 74.9471 366.536 81.617 361.396 86.568C356.398 91.3844 349.875 94.0166 342.974 94.0166L342.978 94.0147Z" fill="black"/>
<path d="M378.614 114.998C378.614 103.1 388.197 93.4539 400.021 93.4539C411.845 93.4539 421.428 103.1 421.428 114.998C421.428 126.896 411.845 136.542 400.021 136.542C388.197 136.542 378.614 126.898 378.614 114.998Z" fill="white"/>
<path d="M400.02 137.176C387.869 137.176 377.982 127.228 377.982 114.998C377.982 112.383 378.43 109.822 379.313 107.388C379.432 107.059 379.795 106.89 380.122 107.009C380.449 107.128 380.617 107.493 380.499 107.822C379.665 110.116 379.244 112.531 379.244 114.996C379.244 126.526 388.563 135.905 400.02 135.905C411.477 135.905 420.796 126.526 420.796 114.996C420.796 103.465 411.477 94.0862 400.02 94.0862C393.785 94.0862 387.934 96.8683 383.969 101.719C383.747 101.99 383.349 102.029 383.082 101.808C382.812 101.585 382.774 101.185 382.996 100.916C387.202 95.7705 393.408 92.8191 400.022 92.8191C412.173 92.8191 422.058 102.767 422.058 114.998C422.058 127.228 412.173 137.176 400.022 137.176H400.02Z" fill="black"/>
<path d="M385.337 130.666C389.17 134.306 394.335 136.542 400.021 136.542C405.707 136.542 410.872 134.306 414.705 130.666C410.271 129.283 405.289 128.507 400.021 128.507C394.753 128.507 389.771 129.283 385.337 130.666Z" fill="#20E086"/>
<path d="M400.147 132.146C398.281 132.146 396.769 130.624 396.769 128.745V111.406H403.526V128.745C403.526 130.624 402.013 132.146 400.147 132.146Z" fill="white"/>
<path d="M413.228 117.734C412.803 112.348 415.163 108.985 409.872 102.9C404.394 96.599 399.693 100.823 399.693 100.823C399.693 100.823 395.775 97.5489 390.632 104.396C386.093 110.439 391.905 115.851 389.951 119.614C387.997 123.377 381.372 125.428 381.372 125.428C381.372 125.428 383.496 129.702 386.129 131.583H414.077C414.077 131.583 419.853 125.257 419.853 123.461C419.853 123.461 413.652 123.119 413.228 117.734Z" fill="black"/>
<path d="M385.338 130.665C389.171 134.305 394.336 136.541 400.022 136.541C405.708 136.541 410.872 134.305 414.706 130.665C410.272 129.282 405.29 128.506 400.022 128.506C394.754 128.506 389.772 129.282 385.338 130.665Z" fill="#20E086"/>
<path d="M400.021 137.175C394.381 137.175 389.012 135.027 384.903 131.126L384.117 130.38L385.148 130.059C389.805 128.607 394.809 127.871 400.019 127.871C405.229 127.871 410.233 128.607 414.891 130.059L415.921 130.38L415.135 131.126C411.028 135.027 405.66 137.175 400.017 137.175H400.021ZM386.599 130.949C390.35 134.154 395.075 135.906 400.021 135.906C404.967 135.906 409.692 134.154 413.443 130.949C409.214 129.747 404.705 129.138 400.021 129.138C395.337 129.138 390.826 129.747 386.599 130.949Z" fill="black"/>
<path d="M400.475 105.763H400.24L393.364 112.72V116.534C393.364 119.082 394.733 121.303 396.768 122.506V128.744C396.768 130.622 398.28 132.145 400.146 132.145C402.012 132.145 403.525 130.622 403.525 128.744V122.624C405.67 121.451 407.125 119.165 407.125 116.534V112.456C407.125 108.759 404.148 105.763 400.475 105.763Z" fill="white"/>
<path d="M400.146 132.78C397.936 132.78 396.137 130.971 396.137 128.747V122.7C396.137 122.35 396.42 122.065 396.768 122.065C397.116 122.065 397.399 122.35 397.399 122.7V128.747C397.399 130.271 398.632 131.513 400.146 131.513C401.66 131.513 402.894 130.273 402.894 128.747V122.804C402.894 122.454 403.177 122.169 403.525 122.169C403.873 122.169 404.156 122.454 404.156 122.804V128.747C404.156 130.971 402.356 132.78 400.146 132.78Z" fill="black"/>
<path d="M400.246 124.095C399.898 124.095 399.615 123.811 399.615 123.461C399.615 123.111 399.898 122.826 400.246 122.826C403.691 122.826 406.496 120.004 406.496 116.535V112.457C406.496 109.204 403.968 106.547 400.743 106.404C400.739 106.404 400.733 106.404 400.729 106.404L393.995 113.103V116.535C393.995 118.996 395.433 121.244 397.659 122.263C397.976 122.409 398.116 122.784 397.97 123.103C397.827 123.422 397.452 123.563 397.135 123.417C394.46 122.192 392.733 119.488 392.733 116.533V112.836C392.733 112.667 392.8 112.505 392.921 112.384L400.031 105.31C400.15 105.193 400.309 105.128 400.475 105.128C400.582 105.128 400.689 105.13 400.796 105.133C404.699 105.305 407.756 108.521 407.756 112.453V116.531C407.756 120.7 404.387 124.091 400.244 124.091L400.246 124.095Z" fill="black"/>
<path d="M375.135 155.253C377.54 145.019 371.238 134.766 361.06 132.352C350.882 129.939 340.682 136.279 338.277 146.513C335.873 156.747 342.175 167 352.353 169.413C362.531 171.827 372.731 165.487 375.135 155.253Z" fill="white"/>
<path d="M356.714 170.57C345.926 170.57 337.148 161.745 337.148 150.895C337.148 140.045 345.924 131.219 356.714 131.219C367.503 131.219 376.279 140.045 376.279 150.895C376.279 161.745 367.503 170.57 356.714 170.57ZM356.714 132.488C346.62 132.488 338.41 140.747 338.41 150.895C338.41 161.043 346.622 169.301 356.714 169.301C366.805 169.301 375.017 161.045 375.017 150.895C375.017 140.745 366.805 132.488 356.714 132.488Z" fill="black"/>
<path d="M361.821 152.793C360.76 152.791 359.823 153.309 359.217 154.097L352.823 151.596C352.829 151.511 352.848 151.428 352.848 151.342C352.848 151.18 352.823 151.026 352.802 150.873L359.355 147.823C359.961 148.519 360.836 148.967 361.821 148.969C363.643 148.973 365.127 147.473 365.127 145.627C365.127 143.782 363.645 142.278 361.821 142.274C359.999 142.27 358.515 143.77 358.515 145.614C358.515 145.775 358.54 145.929 358.563 146.083L352.011 149.133C351.404 148.436 350.529 147.988 349.544 147.987C347.722 147.983 346.238 149.482 346.238 151.328C346.238 153.174 347.72 154.678 349.544 154.681C350.605 154.683 351.542 154.166 352.148 153.378L358.542 155.879C358.536 155.964 358.517 156.047 358.517 156.133C358.517 157.979 359.999 159.482 361.823 159.486C363.645 159.49 365.129 157.99 365.129 156.145C365.129 154.299 363.647 152.795 361.823 152.791L361.821 152.793Z" fill="#020D3A"/>
<path d="M421.486 67.7901C430.235 58.9922 430.235 44.728 421.486 35.9301C412.738 27.1322 398.553 27.1322 389.804 35.9301C381.055 44.728 381.055 58.9922 389.804 67.7901C398.553 76.588 412.737 76.5881 421.486 67.7901Z" fill="white"/>
<path d="M405.646 75.0248C392.945 75.0248 382.612 64.6345 382.612 51.8619C382.612 39.0893 392.945 28.697 405.646 28.697C418.347 28.697 428.68 39.0874 428.68 51.86C428.68 64.6326 418.347 75.0229 405.646 75.0229V75.0248ZM405.646 29.966C393.641 29.966 383.874 39.7892 383.874 51.8619C383.874 63.9346 393.641 73.7578 405.646 73.7578C417.651 73.7578 427.42 63.9366 427.42 51.8619C427.42 39.7872 417.653 29.966 405.646 29.966Z" fill="black"/>
<path d="M405.769 63.1941C405.548 63.3326 405.269 63.3383 405.041 63.2114C403.066 62.102 393.908 56.5531 394.265 49.2929C394.644 41.6213 402.923 42.9518 404.966 46.728C405.045 46.8703 405.196 46.9568 405.358 46.9491C405.521 46.9414 405.662 46.8395 405.726 46.6895C406.727 44.265 409.966 42.5076 413.018 43.6593C416.654 45.0321 420.352 54.1074 405.769 63.196V63.1941Z" fill="#020D3A"/>
<path d="M436.537 178.7C443.973 171.223 443.973 159.1 436.537 151.623C429.102 144.146 417.047 144.146 409.611 151.623C402.176 159.1 402.176 171.223 409.611 178.7C417.047 186.178 429.102 186.178 436.537 178.7Z" fill="white"/>
<path d="M423.075 184.943C412.228 184.943 403.404 176.07 403.404 165.162C403.404 154.255 412.228 145.382 423.075 145.382C433.922 145.382 442.745 154.255 442.745 165.162C442.745 176.07 433.922 184.943 423.075 184.943ZM423.075 146.651C412.924 146.651 404.666 154.955 404.666 165.162C404.666 175.37 412.924 183.674 423.075 183.674C433.226 183.674 441.483 175.37 441.483 165.162C441.483 154.955 433.226 146.651 423.075 146.651Z" fill="black"/>
<path d="M423.183 174.792C422.996 174.909 422.759 174.915 422.566 174.805C420.887 173.863 413.103 169.147 413.407 162.977C413.728 156.457 420.764 157.587 422.502 160.796C422.567 160.917 422.697 160.99 422.835 160.983C422.973 160.975 423.093 160.89 423.147 160.762C423.998 158.701 426.751 157.208 429.344 158.187C432.435 159.354 435.577 167.066 423.183 174.79V174.792Z" fill="#020D3A"/>
<path d="M160.244 191.914C157.613 182.567 162.383 176.676 167.976 168.697L181.526 181.064L175.782 200.022L160.244 191.914Z" fill="#020D3A"/>
<path d="M175.783 200.657C175.685 200.657 175.588 200.634 175.498 200.59L163.475 194.476C163.164 194.318 163.039 193.935 163.198 193.624C163.355 193.311 163.735 193.188 164.045 193.343L175.398 199.117L180.813 181.247L166.576 167.077C166.328 166.831 166.326 166.429 166.573 166.179C166.817 165.931 167.217 165.929 167.464 166.175L181.97 180.615C182.136 180.78 182.197 181.026 182.13 181.251L176.387 200.209C176.333 200.388 176.201 200.534 176.031 200.607C175.953 200.642 175.869 200.657 175.783 200.657Z" fill="black"/>
<path d="M163.572 195.516C163.54 195.516 163.509 195.514 163.477 195.508C163.133 195.456 162.895 195.131 162.949 194.785C163.314 192.382 164.14 188.2 164.635 186.068C164.714 185.727 165.054 185.518 165.392 185.595C165.731 185.674 165.943 186.016 165.863 186.356C165.373 188.465 164.555 192.599 164.196 194.976C164.148 195.289 163.88 195.514 163.572 195.514V195.516Z" fill="black"/>
<path d="M265.603 251.939C246.973 263.893 222.146 258.375 210.259 239.64C198.372 220.905 203.858 195.938 222.488 183.985L261.816 158.753L270.735 113.948L203.003 153.275C192.868 159.778 184.784 168.311 178.923 178.005L177.126 169.878L170.407 192.877C165.004 214.489 166.966 239.136 179.719 259.236C202.349 294.906 249.619 305.41 285.089 282.653L330.837 253.301L343.68 201.849L265.603 251.943V251.939Z" fill="#020D3A"/>
<path d="M244.255 295.328C238.67 295.328 233.043 294.714 227.454 293.472C207.365 289.008 190.224 276.97 179.188 259.575C167.288 240.817 163.863 216.45 169.796 192.722L176.523 169.697C176.603 169.419 176.859 169.222 177.15 169.242C177.437 169.251 177.681 169.455 177.744 169.738L179.205 176.348C185.239 166.796 193.126 158.859 202.665 152.739L270.422 113.398C270.636 113.273 270.904 113.287 271.105 113.433C271.306 113.579 271.405 113.829 271.355 114.073L262.436 158.878C262.402 159.047 262.302 159.196 262.157 159.288L222.829 184.52C213.961 190.209 207.824 199.048 205.547 209.405C203.271 219.763 205.134 230.38 210.791 239.298C222.491 257.739 246.928 263.168 265.264 251.403L343.34 201.309C343.558 201.17 343.839 201.176 344.047 201.33C344.258 201.482 344.353 201.747 344.29 201.999L331.447 253.453C331.409 253.61 331.31 253.747 331.174 253.833L285.426 283.186C272.94 291.196 258.74 295.328 244.251 295.328H244.255ZM177.045 172.416L171.016 193.055C165.173 216.421 168.538 240.428 180.253 258.892C191.107 276.001 207.967 287.841 227.728 292.232C247.488 296.622 267.738 293.03 284.751 282.115L330.289 252.899L342.684 203.237L265.944 252.474C247.022 264.616 221.802 259.011 209.73 239.98C203.891 230.776 201.967 219.821 204.317 209.132C206.665 198.442 213 189.323 222.152 183.451L261.252 158.363L269.847 115.198L203.321 153.823C193.532 160.105 185.498 168.355 179.465 178.332C179.331 178.553 179.077 178.673 178.823 178.628C178.569 178.586 178.366 178.394 178.31 178.14L177.045 172.416Z" fill="black"/>
<path d="M306.296 111.135L286.811 80.4236L247.208 105.834L249.03 124.361L266.693 136.544L306.296 111.135Z" fill="#20E086"/>
<path d="M266.694 137.179C266.57 137.179 266.446 137.142 266.337 137.067L248.672 124.885C248.519 124.779 248.419 124.61 248.4 124.423L246.58 105.894C246.557 105.656 246.668 105.425 246.869 105.296L286.472 79.8855C286.613 79.7952 286.784 79.7644 286.948 79.8009C287.11 79.8375 287.254 79.9374 287.344 80.0797L306.829 110.791C306.919 110.934 306.949 111.105 306.913 111.268C306.877 111.432 306.777 111.576 306.636 111.666L267.033 137.077C266.929 137.144 266.811 137.177 266.694 137.177V137.179ZM249.63 124.006L266.708 135.785L305.427 110.941L286.621 81.2987L247.876 106.158L249.63 124.004V124.006Z" fill="black"/>
<path d="M368.9 209.801L349.415 179.09L309.812 204.5L313.314 223.858L329.297 235.21L368.9 209.801Z" fill="#20E086"/>
<path d="M329.295 235.845C329.167 235.845 329.041 235.806 328.932 235.729L312.95 224.378C312.814 224.281 312.722 224.137 312.694 223.974L309.191 204.614C309.145 204.36 309.256 204.104 309.472 203.966L349.075 178.555C349.216 178.465 349.387 178.434 349.551 178.471C349.714 178.507 349.857 178.607 349.947 178.75L369.432 209.461C369.522 209.603 369.552 209.775 369.516 209.94C369.48 210.103 369.38 210.248 369.239 210.338L329.636 235.749C329.533 235.816 329.414 235.849 329.297 235.849L329.295 235.845ZM313.889 223.489L329.315 234.447L368.029 209.607L349.222 179.965L310.508 204.804L313.889 223.489Z" fill="black"/>
<path d="M215.137 217.434C203.25 198.699 208.736 173.733 227.366 161.779L266.694 136.547L247.209 105.836L207.881 131.067C172.412 153.825 161.966 201.358 184.597 237.028C207.227 272.699 254.497 283.202 289.966 260.445L329.294 235.213L309.809 204.502L270.481 229.734C251.851 241.687 227.024 236.169 215.137 217.434Z" fill="white"/>
<path d="M249.049 273.103C223.627 273.105 198.725 260.472 184.066 237.369C161.248 201.405 171.78 153.477 207.543 130.531L246.871 105.3C247.165 105.111 247.555 105.198 247.743 105.494L267.228 136.205C267.318 136.348 267.348 136.519 267.312 136.682C267.276 136.846 267.176 136.99 267.035 137.08L227.707 162.312C209.371 174.077 203.97 198.651 215.669 217.092C227.369 235.533 251.806 240.963 270.142 229.197L309.469 203.966C309.611 203.875 309.781 203.845 309.946 203.881C310.108 203.918 310.251 204.018 310.341 204.16L329.826 234.871C330.014 235.167 329.928 235.56 329.633 235.748L290.306 260.98C277.516 269.184 263.199 273.103 249.049 273.103ZM247.018 106.711L208.222 131.602C173.045 154.171 162.686 201.312 185.131 236.688C207.574 272.062 254.452 282.48 289.629 259.911L328.425 235.019L309.619 205.377L270.822 230.268C251.899 242.41 226.68 236.806 214.608 217.775C202.534 198.745 208.107 173.385 227.03 161.243L265.826 136.351L247.02 106.709L247.018 106.711Z" fill="black"/>
<path d="M306.153 111.654L301.274 133.859L261.671 159.27L266.55 137.063L306.153 111.654Z" fill="#020D3A"/>
<path d="M261.671 159.905C261.545 159.905 261.418 159.867 261.309 159.792C261.101 159.646 261 159.386 261.055 159.136L265.934 136.929C265.971 136.765 266.07 136.621 266.212 136.531L305.815 111.12C306.029 110.982 306.306 110.987 306.514 111.136C306.723 111.282 306.824 111.541 306.769 111.793L301.889 134C301.853 134.164 301.754 134.308 301.612 134.398L262.009 159.807C261.906 159.874 261.787 159.907 261.671 159.907V159.905ZM267.11 137.458L262.615 157.913L300.715 133.468L305.211 113.012L267.11 137.458Z" fill="black"/>
<path d="M121.827 232.428C121.827 232.428 116.819 241.913 116.479 249.591C115.946 261.602 114.215 272.075 111.636 300.869C108.653 334.142 98.8066 359.872 98.8066 359.872C99.9271 361.693 101.65 363.06 103.671 363.571C106.954 364.404 109.674 363.006 109.674 363.006L123.645 332.096C127.884 323.582 131.186 314.6 133.49 305.321L140.452 277.287L144.679 301.15C146.281 307.291 147.161 313.609 147.3 319.97L149.752 366.38L152.344 367.653C154.495 368.709 157.006 368.618 159.078 367.407L160.396 365.152L168.705 310.629C169.078 306.816 168.977 302.969 168.403 299.183L158.308 232.428H121.827Z" fill="black"/>
<path d="M98.6174 360.338C97.8966 361.839 96.1682 366.131 95.2944 368.746C94.7476 370.386 95.4913 372.187 96.9961 372.943C101.254 375.077 111.99 377.144 120.846 379.313C121.452 379.461 122.636 379.376 123.416 377.952C126.093 373.066 116.768 369.588 108.382 362.341C108.382 362.341 107.74 362.697 106.837 362.974C105.325 363.437 103.109 362.879 101.931 361.793L100.04 360.053C99.5906 359.64 98.8851 359.778 98.6155 360.338H98.6174Z" fill="white"/>
<path d="M121.302 380C121.088 380 120.885 379.975 120.699 379.929C118.436 379.375 116.015 378.82 113.675 378.281C106.618 376.66 99.9524 375.132 96.7173 373.509C94.922 372.609 94.0539 370.473 94.6983 368.543C95.5701 365.934 97.2986 361.627 98.05 360.062C98.266 359.612 98.6656 359.3 99.1474 359.206C99.6254 359.116 100.105 359.252 100.469 359.585L102.36 361.325C103.384 362.267 105.392 362.753 106.658 362.365C107.488 362.111 108.076 361.786 108.082 361.782C108.314 361.654 108.598 361.684 108.797 361.857C111.38 364.09 114.074 365.976 116.451 367.639C121.837 371.409 126.091 374.388 123.973 378.256C123.261 379.554 122.193 379.998 121.304 379.998L121.302 380ZM99.1857 360.613C98.4553 362.132 96.7288 366.445 95.8932 368.946C95.4478 370.281 96.0443 371.754 97.2794 372.375C100.381 373.928 107.281 375.513 113.956 377.045C116.3 377.583 118.726 378.139 120.998 378.697C121.189 378.743 122.174 378.912 122.866 377.647C124.363 374.913 121.29 372.577 115.728 368.683C113.422 367.07 110.824 365.249 108.291 363.096C107.994 363.234 107.551 363.421 107.023 363.582C105.333 364.099 102.859 363.509 101.507 362.263L99.6159 360.523C99.5279 360.44 99.4342 360.446 99.3845 360.454C99.3348 360.463 99.2411 360.498 99.1857 360.615V360.613Z" fill="black"/>
<path d="M94.8019 369.91C94.7847 369.954 94.7732 369.987 94.7675 370.001C94.2188 371.641 95.4367 372.565 96.7942 373.579C100.903 376.645 119.738 379.199 119.738 379.199C119.738 379.199 122.195 379.766 123.162 378.378C123.304 378.174 123.453 378.053 123.531 377.78C123.616 377.486 123.816 376.407 123.816 376.407C114.279 375.994 108.245 374.584 100.127 371.237C99.1135 370.82 96.148 369.283 95.3239 368.614C95.3239 368.614 95.1614 368.983 94.8 369.912L94.8019 369.91Z" fill="white"/>
<path d="M120.859 379.947C120.249 379.947 119.762 379.853 119.63 379.824C118.548 379.676 100.573 377.188 96.4202 374.088C95.0397 373.058 93.4738 371.889 94.1717 369.799C94.1774 369.78 94.1927 369.737 94.2157 369.68C94.577 368.751 94.7415 368.372 94.7491 368.357C94.8294 368.176 94.9862 368.043 95.1774 367.997C95.3686 367.953 95.5693 367.997 95.7223 368.12C96.4871 368.741 99.3895 370.247 100.368 370.651C108.686 374.081 114.611 375.375 123.846 375.775C124.029 375.782 124.199 375.871 124.312 376.015C124.425 376.159 124.473 376.346 124.438 376.526C124.417 376.64 124.228 377.643 124.138 377.959C124.047 378.278 123.89 378.478 123.773 378.624C123.742 378.663 123.712 378.701 123.681 378.745C122.993 379.733 121.785 379.949 120.859 379.949V379.947ZM95.6114 369.578C95.5483 369.735 95.4737 369.922 95.3896 370.141L95.3648 370.206C94.9977 371.304 95.6324 371.921 97.1697 373.069C101.103 376.003 119.636 378.545 119.823 378.57C119.842 378.572 119.861 378.576 119.88 378.58C120.45 378.709 122.058 378.859 122.647 378.013C122.693 377.945 122.741 377.886 122.787 377.828C122.876 377.717 122.905 377.676 122.926 377.603C122.955 377.503 123.006 377.267 123.058 377.005C114.072 376.561 108.137 375.223 99.8885 371.821C99.03 371.468 96.8618 370.362 95.6114 369.578Z" fill="black"/>
<path d="M108.534 367.515C108.304 367.515 108.082 367.388 107.971 367.169C107.813 366.857 107.937 366.475 108.247 366.315L111.344 364.729C111.654 364.571 112.034 364.694 112.193 365.006C112.352 365.317 112.228 365.7 111.918 365.859L108.82 367.446C108.729 367.492 108.631 367.515 108.535 367.515H108.534Z" fill="black"/>
<path d="M111.854 369.743C111.622 369.743 111.401 369.614 111.29 369.393C111.135 369.079 111.261 368.699 111.573 368.541L114.278 367.182C114.59 367.026 114.968 367.153 115.125 367.466C115.28 367.78 115.154 368.16 114.842 368.318L112.137 369.677C112.047 369.724 111.949 369.745 111.856 369.745L111.854 369.743Z" fill="black"/>
<path d="M140.32 281.009C140.278 281.009 140.235 281.006 140.191 280.996C139.851 280.925 139.631 280.59 139.7 280.246L143.266 262.824C143.861 259.315 145.306 254.487 147.572 251.526C147.784 251.248 148.18 251.198 148.457 251.411C148.732 251.625 148.784 252.023 148.572 252.301C146.448 255.078 145.079 259.679 144.505 263.059L140.935 280.502C140.874 280.802 140.61 281.008 140.318 281.008L140.32 281.009Z" fill="#020D3A"/>
<path d="M118.415 254.822C118.137 254.822 117.883 254.637 117.807 254.356C117.715 254.018 117.912 253.67 118.248 253.576C126.271 251.355 129.871 243.945 129.906 243.87C130.055 243.554 130.432 243.42 130.747 243.57C131.061 243.72 131.194 244.099 131.045 244.414C130.89 244.739 127.175 252.418 118.583 254.797C118.528 254.812 118.47 254.82 118.415 254.82V254.822Z" fill="#020D3A"/>
<path d="M149.206 366.17C148.937 367.852 148.489 370.977 148.392 373.786C148.331 375.549 149.57 377.07 151.25 377.337C156 378.095 166.791 379.068 176.016 378.437C176.647 378.395 177.773 377.947 178.123 376.32C179.322 370.746 169.741 369.216 159.512 364.766L157.669 366.529C156.69 367.466 155.264 367.702 154.051 367.129L150.508 365.451C149.952 365.187 149.306 365.541 149.206 366.168V366.17Z" fill="white"/>
<path d="M169.584 379.277C162.228 379.277 154.974 378.574 151.152 377.964C149.147 377.645 147.69 375.84 147.762 373.763C147.862 370.9 148.321 367.712 148.585 366.068C148.665 365.567 148.965 365.144 149.407 364.911C149.839 364.682 150.338 364.672 150.779 364.88L154.322 366.557C155.299 367.02 156.443 366.83 157.236 366.072L159.079 364.309C159.263 364.134 159.533 364.086 159.764 364.186C162.307 365.292 164.869 366.238 167.129 367.074C174.182 369.679 179.754 371.736 178.74 376.455C178.348 378.278 177.052 379.002 176.06 379.07C173.951 379.214 171.762 379.275 169.584 379.275V379.277ZM149.831 366.272C149.571 367.887 149.122 371.016 149.024 373.809C148.975 375.244 149.975 376.491 151.351 376.713C156.25 377.493 166.85 378.428 175.976 377.807C176.176 377.793 177.196 377.651 177.509 376.188C178.255 372.717 174.102 371 166.697 368.264C164.534 367.466 162.097 366.564 159.649 365.517L158.108 366.991C156.936 368.112 155.24 368.393 153.787 367.705L150.244 366.026C150.135 365.974 150.043 366.007 149.997 366.032C149.91 366.078 149.85 366.164 149.833 366.27L149.831 366.272Z" fill="black"/>
<path d="M148.408 373.363C148.408 373.363 148.395 373.648 148.391 373.784C148.33 375.547 149.569 377.068 151.249 377.335C155.999 378.093 166.79 379.066 176.015 378.435C176.646 378.393 177.772 377.945 178.122 376.318C178.229 375.82 178.193 374.917 178.193 374.917L177.539 374.934C168.226 375.17 158.907 374.699 149.66 373.521L148.408 373.361V373.363Z" fill="white"/>
<path d="M169.584 379.277C162.228 379.277 154.974 378.573 151.152 377.963C149.147 377.644 147.69 375.839 147.762 373.762L147.78 373.333C147.787 373.156 147.869 372.991 148.003 372.876C148.137 372.762 148.313 372.708 148.489 372.732L149.741 372.891C158.926 374.06 168.272 374.535 177.524 374.299L178.178 374.281C178.526 374.256 178.811 374.543 178.825 374.889C178.828 374.989 178.861 375.891 178.74 376.452C178.348 378.275 177.052 379 176.06 379.067C173.951 379.211 171.762 379.273 169.584 379.273V379.277ZM149.026 374.081C149.103 375.398 150.061 376.506 151.349 376.71C156.248 377.49 166.848 378.425 175.974 377.804C176.175 377.79 177.194 377.648 177.507 376.185C177.54 376.033 177.557 375.8 177.565 375.568H177.557C168.242 375.804 158.831 375.327 149.583 374.151L149.026 374.079V374.081Z" fill="black"/>
<path d="M161.804 371.644C161.644 371.644 161.485 371.583 161.361 371.462C161.112 371.216 161.11 370.814 161.355 370.566L164.735 367.116C164.98 366.866 165.38 366.865 165.626 367.111C165.875 367.357 165.877 367.759 165.632 368.007L162.252 371.456C162.127 371.583 161.965 371.644 161.802 371.644H161.804Z" fill="black"/>
<path d="M165.668 372.781C165.525 372.781 165.382 372.733 165.263 372.633C164.995 372.408 164.961 372.008 165.185 371.739L168.202 368.117C168.425 367.847 168.823 367.813 169.091 368.038C169.358 368.263 169.393 368.663 169.169 368.932L166.152 372.554C166.028 372.704 165.848 372.781 165.668 372.781Z" fill="black"/>
<path d="M122.132 223.88C122.132 223.88 121.076 230.746 120.038 234.512C119.558 236.254 129.455 238.213 139.514 238.525C147.793 238.781 156.181 237.754 158.987 236.025C158.987 236.025 157.919 227.254 157.725 225.943C157.53 224.631 122.132 223.88 122.132 223.88Z" fill="white"/>
<path d="M181.752 217.192C181.752 217.192 185.902 217.78 187.309 218.465C188.718 219.149 192.878 221.122 193.236 222.058C193.593 222.995 192.232 223.987 189.462 222.743C187.913 222.047 186.907 221.693 186.322 221.514C186.125 221.455 185.976 221.701 186.119 221.855C186.886 222.676 188.467 224.262 189.779 224.85C191.584 225.662 196.695 227.388 196.182 229.692C195.718 231.778 191.609 231.959 186.313 230.155C185.286 229.805 184.338 229.249 183.494 228.548C182.175 227.45 180.018 225.74 178.691 225.144L181.751 217.188L181.752 217.192Z" fill="white"/>
<path d="M192.609 232.024C190.82 232.024 188.575 231.598 186.112 230.757C185.043 230.394 184.028 229.815 183.095 229.039C181.042 227.331 179.388 226.154 178.437 225.728C178.132 225.589 177.986 225.235 178.107 224.92L181.166 216.964C181.271 216.689 181.554 216.525 181.843 216.564C182.017 216.589 186.106 217.175 187.586 217.894L187.829 218.012C191.89 219.979 193.515 221.013 193.827 221.83C194.039 222.388 193.905 222.97 193.468 223.388C192.644 224.174 191.051 224.149 189.208 223.32C188.745 223.113 188.332 222.936 187.967 222.786C188.625 223.38 189.382 223.974 190.039 224.27C190.28 224.378 190.579 224.503 190.917 224.643C193.326 225.643 197.36 227.318 196.8 229.831C196.653 230.494 196.227 231.042 195.567 231.415C194.846 231.823 193.835 232.023 192.609 232.023V232.024ZM179.489 224.841C180.812 225.576 182.575 226.96 183.9 228.062C184.715 228.74 185.596 229.242 186.518 229.558C190.219 230.819 193.529 231.115 194.949 230.311C195.297 230.115 195.5 229.867 195.569 229.556C195.896 228.085 192.208 226.554 190.435 225.818C190.085 225.672 189.774 225.543 189.525 225.431C188.127 224.803 186.506 223.193 185.663 222.29C185.401 222.007 185.361 221.598 185.562 221.269C185.762 220.944 186.141 220.798 186.506 220.907C187.095 221.086 188.129 221.448 189.722 222.163C191.441 222.934 192.357 222.699 192.6 222.469C192.672 222.399 192.672 222.349 192.649 222.286C192.487 221.969 191.42 221.159 187.282 219.156L187.038 219.037C186.087 218.575 183.533 218.11 182.162 217.894L179.491 224.841H179.489Z" fill="black"/>
<path d="M160.537 226.078C160.323 227.58 159.394 228.878 158.05 229.509C155.082 230.901 150.383 231.725 142.316 231.629C138.607 231.585 134.907 231.185 131.263 230.466L116.317 227.517L116.953 224.083C118.16 217.576 118.135 206.671 118.079 202.719C118.066 201.783 117.848 200.864 117.443 200.028C113.37 191.618 112.219 181.441 114.932 170.104C115.684 166.966 117.745 164.321 120.588 163C120.628 162.981 120.664 162.965 120.699 162.95C130.635 158.583 141.735 156.624 152.174 159.454C162.185 162.167 167.177 166.736 167.177 166.736C173.833 172.014 166.344 194.254 163.759 193.909C162.784 199.141 162.109 205.03 161.86 210.029L161.954 210.349C165.73 211.977 169.609 213.335 173.562 214.423L181.923 216.721L177.821 226.826C170.646 226.713 165.141 226.492 160.528 226.028L160.537 226.076V226.078Z" fill="#020D3A"/>
<path d="M177.822 227.461H177.813C156.697 227.13 149.902 225.878 137.42 220.029C127.56 215.409 120.226 208.112 116.209 198.927C116.069 198.606 116.212 198.233 116.532 198.091C116.851 197.951 117.222 198.095 117.363 198.416C121.254 207.314 128.375 214.392 137.954 218.88C150.148 224.594 156.85 225.847 177.404 226.184L181.073 217.141L173.398 215.032C168.721 213.746 164.131 212.073 159.756 210.06C151.842 206.418 148.278 203.992 141.594 197.701C136.797 193.186 132.04 183.35 131.839 182.934C131.688 182.619 131.818 182.24 132.132 182.086C132.445 181.935 132.822 182.065 132.975 182.383C133.023 182.482 137.831 192.423 142.455 196.776C149.016 202.954 152.515 205.334 160.278 208.906C164.592 210.893 169.117 212.54 173.729 213.809L182.09 216.107C182.264 216.155 182.409 216.276 182.49 216.438C182.57 216.601 182.576 216.79 182.509 216.959L178.408 227.064C178.31 227.303 178.081 227.459 177.824 227.459L177.822 227.461Z" fill="black"/>
<path d="M177.824 227.46H177.814C170.021 227.337 164.832 227.099 160.467 226.661C160.12 226.626 159.866 226.314 159.901 225.966C159.935 225.618 160.243 225.359 160.591 225.399C164.78 225.82 169.979 226.063 177.401 226.186L181.07 217.143L173.395 215.034C169.409 213.938 165.476 212.557 161.705 210.931C161.533 210.856 161.401 210.708 161.348 210.527L161.254 210.208C161.235 210.141 161.226 210.069 161.229 209.998C161.457 205.403 162.256 198.872 163.266 193.355C163.329 193.011 163.656 192.784 164 192.846C164.342 192.909 164.57 193.24 164.507 193.584C163.518 198.983 162.734 205.359 162.497 209.893C166.124 211.44 169.9 212.757 173.726 213.809L182.087 216.107C182.261 216.155 182.407 216.276 182.487 216.437C182.567 216.601 182.573 216.789 182.506 216.959L178.405 227.064C178.307 227.303 178.078 227.458 177.822 227.458L177.824 227.46Z" fill="black"/>
<path d="M143.571 232.271C143.158 232.271 142.737 232.27 142.309 232.264C138.628 232.22 134.871 231.825 131.141 231.089L116.195 228.14C115.855 228.072 115.633 227.743 115.696 227.401L116.333 223.967C117.516 217.586 117.507 206.988 117.449 202.729C117.438 201.894 117.239 201.058 116.876 200.306C112.576 191.427 111.692 180.933 114.319 169.956C115.132 166.565 117.319 163.819 120.325 162.425C120.371 162.404 120.413 162.385 120.453 162.367C128.263 158.935 140.141 155.538 152.339 158.843C162.383 161.566 167.394 166.076 167.603 166.267C167.817 166.455 170.484 168.96 170.864 169.756C171.015 170.072 170.884 170.45 170.57 170.602C170.256 170.754 169.88 170.622 169.729 170.306C169.516 169.876 167.436 167.805 166.763 167.213C166.706 167.161 161.737 162.704 152.012 160.068C140.166 156.857 128.585 160.179 120.954 163.532L120.856 163.577C118.204 164.807 116.27 167.241 115.549 170.254C112.99 180.941 113.843 191.141 118.013 199.753C118.457 200.67 118.7 201.695 118.713 202.714C118.772 207.011 118.78 217.709 117.575 224.202L117.053 227.019L131.386 229.847C135.04 230.568 138.72 230.954 142.326 230.999C149.689 231.083 154.603 230.429 157.786 228.937C158.934 228.399 159.731 227.297 159.916 225.992C159.966 225.646 160.285 225.404 160.63 225.454C160.974 225.504 161.215 225.825 161.165 226.171C160.918 227.901 159.855 229.364 158.32 230.085C155.15 231.574 150.442 232.273 143.575 232.273L143.571 232.271Z" fill="black"/>
<path d="M146.336 197.114C146.219 197.114 146.102 197.081 145.997 197.014C145.703 196.826 145.617 196.433 145.804 196.137L145.999 195.828C148.035 192.613 149.32 188.893 149.72 185.066C149.756 184.718 150.068 184.472 150.412 184.501C150.758 184.538 151.011 184.849 150.974 185.199C150.555 189.219 149.202 193.13 147.062 196.51L146.865 196.82C146.745 197.01 146.54 197.112 146.334 197.112L146.336 197.114Z" fill="black"/>
<path d="M135.478 160.791C135.21 160.68 135.241 160.28 135.52 160.209C136.478 159.968 137.853 159.58 137.946 159.299C139.503 154.583 140.315 150.799 140.984 145.859L141.021 145.592C140.575 134.496 146.093 129.864 151.42 130.656C158.984 131.781 158.238 136.296 158.238 136.296C158.324 137.628 158.527 140.735 158.883 141.231C159.317 141.841 160.554 142.785 160.661 143.179C160.768 143.573 160.263 144.485 159.074 144.954C159.074 144.954 159.46 151.431 157.99 152.712C156.519 153.992 150.055 152.866 150.055 152.866L149.892 160.57L152.802 161.979C153.152 162.149 153.064 162.689 152.68 162.729L148.864 163.133C145.768 163.512 142.633 163.285 139.619 162.466C139.371 162.399 136.853 161.358 135.48 160.789L135.478 160.791Z" fill="white"/>
<path d="M145.931 163.949C143.753 163.949 141.583 163.659 139.453 163.08C139.365 163.057 139.132 162.993 135.237 161.376C134.865 161.223 134.635 160.844 134.666 160.436C134.696 160.029 134.977 159.69 135.369 159.592C136.735 159.252 137.234 159.034 137.396 158.95C138.842 154.545 139.673 150.834 140.358 145.774L140.386 145.562C140.157 139.588 141.658 134.829 144.614 132.157C146.547 130.411 148.996 129.655 151.51 130.028C154.598 130.488 156.766 131.551 157.954 133.191C158.969 134.593 158.906 135.958 158.87 136.312C159.09 139.661 159.281 140.646 159.405 140.878C159.552 141.084 159.902 141.419 160.21 141.713C160.816 142.293 161.166 142.639 161.265 143.009C161.453 143.697 160.877 144.733 159.722 145.347C159.799 147.085 159.87 151.907 158.399 153.187C157.011 154.397 152.596 153.893 150.667 153.603L150.53 160.171L153.073 161.403C153.487 161.605 153.713 162.049 153.633 162.511C153.554 162.968 153.195 163.309 152.742 163.355L148.925 163.761C147.927 163.882 146.927 163.943 145.927 163.943L145.931 163.949ZM136.612 160.575C138.731 161.449 139.648 161.815 139.788 161.857C142.731 162.657 145.761 162.876 148.786 162.505L151.776 162.188L149.616 161.142C149.394 161.034 149.254 160.805 149.258 160.557L149.421 152.853C149.424 152.668 149.509 152.495 149.65 152.376C149.792 152.259 149.977 152.207 150.159 152.242C152.721 152.688 156.715 152.982 157.573 152.234C158.424 151.494 158.592 147.554 158.441 144.993C158.426 144.718 158.587 144.464 158.841 144.364C159.64 144.049 159.969 143.535 160.03 143.341C159.906 143.178 159.571 142.857 159.34 142.636C158.975 142.286 158.596 141.924 158.367 141.603C158.026 141.126 157.828 139.75 157.606 136.339C157.602 136.291 157.606 136.243 157.613 136.193C157.636 136.039 158.107 132.295 151.325 131.286C149.189 130.967 147.105 131.613 145.457 133.103C142.775 135.527 141.423 139.953 141.648 145.57C141.648 145.606 141.648 145.643 141.643 145.681L141.606 145.948C140.903 151.151 140.044 154.951 138.543 159.502C138.438 159.823 138.211 160.115 136.61 160.576L136.612 160.575Z" fill="black"/>
<path d="M146.658 141.068C146.782 141.003 146.856 140.338 146.853 140.049C146.814 137.515 144.977 137.096 145.189 136.063C145.306 135.498 145.598 135.329 145.87 135.127C147.212 134.129 148.969 134.752 152.499 135.46C156.881 136.338 157.38 136.475 158.21 136.142C160.317 135.292 161.527 132.618 161.63 130.414C161.659 129.795 161.728 126.513 159.043 124.804C157.206 123.635 154.77 123.644 152.724 124.796C152.554 124.892 152.344 124.815 152.275 124.627C152.061 124.044 151.684 123.375 151.002 123.01C149.025 121.952 146.059 124.287 145.021 125.106C144.097 125.834 142.476 127.323 141.254 129.922C141.178 130.084 140.994 130.155 140.838 130.076C140.237 129.772 139 129.292 137.667 129.726C135.291 130.499 134.692 133.498 134.641 133.783C134.031 137.098 136.65 140.007 138.629 142.203C139.971 143.693 140.532 144.05 141.4 144.642C141.497 144.708 141.621 144.716 141.723 144.658C141.828 144.598 141.943 144.533 142.061 144.466C142.681 144.116 142.891 143.298 142.522 142.676C142.149 142.045 141.895 141.343 141.816 140.607C141.753 140.009 142.145 139.399 142.518 139.078C143.113 138.565 143.774 138.886 143.918 138.936C145.073 139.332 145.549 140.503 145.726 141.126C145.782 141.322 145.994 141.42 146.17 141.326L146.658 141.066V141.068Z" fill="black"/>
<path d="M368.942 209.694L363.973 232.313L326.305 256.305L329.299 235.21L368.942 209.694Z" fill="#020D3A"/>
<path d="M326.305 256.939C326.186 256.939 326.066 256.905 325.963 256.837C325.756 256.703 325.645 256.461 325.682 256.214L328.674 235.12C328.701 234.938 328.804 234.774 328.959 234.676L368.604 209.158C368.818 209.02 369.095 209.023 369.306 209.173C369.516 209.319 369.615 209.579 369.56 209.831L364.589 232.452C364.552 232.617 364.453 232.761 364.31 232.852L326.643 256.843C326.54 256.909 326.423 256.941 326.305 256.941V256.939ZM329.88 235.59L327.121 255.034L363.411 231.919L367.996 211.056L329.88 235.59Z" fill="black"/>
</svg>
