<svg width="544" height="400" viewBox="0 0 544 400" fill="none" xmlns="http://www.w3.org/2000/svg">
<path d="M200.478 354.999C206.816 349.812 213.47 344.975 220.284 340.363C234.115 331.001 248.691 322.631 263.423 314.523C271.172 310.257 279.218 306.397 287.16 302.427C295.15 298.434 303.163 294.476 311.177 290.521C318.501 286.907 325.824 283.293 333.134 279.658C349.75 223.39 367.796 159.598 364.212 159.598L91.7695 151.895C85.3565 151.895 81.054 157.121 82.1787 163.545L115.194 352.113C116.319 358.537 122.451 363.763 128.864 363.763H189.493C193.067 360.747 196.859 357.96 200.478 354.999Z" fill="#20E086"/>
<path d="M371.989 152.553H97.4181C91.3579 152.553 87.3066 157.474 88.3695 163.544L121.385 352.113C122.448 358.183 128.222 363.104 134.282 363.104H408.853C414.913 363.104 418.964 358.183 417.902 352.113L384.886 163.544C383.823 157.474 378.049 152.553 371.989 152.553Z" fill="#20E086"/>
<path d="M452.185 363.215H238.417H203.032H132.869C128.614 363.215 125.152 366.738 125.152 371.264C125.152 375.791 128.614 379.313 132.869 379.313H203.032H241.569H452.185C456.447 379.313 459.902 375.798 459.902 371.264C459.902 366.73 456.447 363.215 452.185 363.215Z" fill="#20E086"/>
<path d="M365.22 159.823H105.727C100 159.823 96.1713 164.405 97.1756 170.056L128.378 345.602C129.382 351.253 134.84 355.835 140.567 355.835H400.06C405.787 355.835 409.616 351.253 408.612 345.602L377.409 170.056C376.405 164.405 370.947 159.823 365.22 159.823Z" fill="#FFFFF6"/>
<path d="M452.186 380.001H132.87C128.158 380.001 124.468 376.163 124.468 371.265C124.468 366.366 128.158 362.529 132.87 362.529H139.804C140.182 362.529 140.489 362.837 140.489 363.216C140.489 363.595 140.183 363.902 139.804 363.902H132.87C128.927 363.902 125.838 367.137 125.838 371.265C125.838 375.394 128.927 378.628 132.87 378.628H452.186C456.129 378.628 459.217 375.394 459.217 371.265C459.217 367.137 456.129 363.902 452.186 363.902H197.065C196.687 363.902 196.38 363.595 196.38 363.216C196.38 362.837 196.686 362.529 197.065 362.529H452.186C456.897 362.529 460.588 366.366 460.588 371.265C460.588 376.163 456.897 380.001 452.186 380.001Z" fill="#020D3A"/>
<path d="M136.069 355.156H361.353L317.037 103.568H99.7174C95.563 103.568 92.4159 107.326 93.1376 111.424L136.069 355.156Z" fill="white"/>
<path opacity="0.2" d="M240.378 268.257H331.675C333.528 268.257 334.933 266.581 334.611 264.753L323.228 200.129C322.976 198.702 321.738 197.662 320.292 197.662H228.996C227.142 197.662 225.738 199.339 226.06 201.167L237.443 265.79C237.694 267.217 238.932 268.257 240.378 268.257Z" fill="#20E086"/>
<path opacity="0.2" d="M226.895 190.456H316.914C319.159 190.456 320.859 188.426 320.469 186.211L309.308 122.848C309.004 121.12 307.505 119.86 305.753 119.86H215.734C213.489 119.86 211.789 121.891 212.179 124.105L223.34 187.468C223.644 189.196 225.143 190.456 226.895 190.456Z" fill="#20E086"/>
<path opacity="0.2" d="M136.509 268.115H226.2C228.545 268.115 230.322 265.994 229.914 263.681L218.81 200.641C218.492 198.836 216.926 197.52 215.096 197.52H125.406C123.06 197.52 121.284 199.641 121.691 201.954L132.795 264.994C133.113 266.799 134.679 268.115 136.509 268.115Z" fill="#20E086"/>
<path d="M120.943 190.314H214.397C215.59 190.314 216.493 189.235 216.286 188.059L204.528 121.307C204.367 120.388 203.57 119.719 202.639 119.719H109.185C107.992 119.719 107.088 120.798 107.295 121.975L119.053 188.726C119.215 189.645 120.012 190.314 120.943 190.314Z" fill="#20E086"/>
<path opacity="0.2" d="M149.766 346.124H345.089C347.1 346.124 348.623 344.305 348.274 342.322L336.98 278.205C336.707 276.657 335.364 275.528 333.795 275.528H138.472C136.461 275.528 134.938 277.347 135.287 279.33L146.581 343.447C146.854 344.995 148.197 346.124 149.766 346.124Z" fill="#20E086"/>
<path d="M115.057 222.396C114.73 222.396 114.441 222.161 114.382 221.828L95.5014 113.765C95.1125 111.556 95.7149 109.304 97.154 107.586C98.5933 105.867 100.703 104.882 102.942 104.882L296.006 104.672C296.006 104.672 296.006 104.672 296.007 104.672C296.385 104.672 296.691 104.979 296.692 105.357C296.692 105.737 296.386 106.044 296.008 106.045L102.943 106.255C101.109 106.255 99.3821 107.061 98.2038 108.468C97.0257 109.875 96.5327 111.718 96.851 113.527L115.732 221.591C115.798 221.964 115.548 222.32 115.175 222.386C115.136 222.393 115.096 222.396 115.057 222.396Z" fill="#020D3A"/>
<path d="M361.351 355.844C361.025 355.844 360.736 355.609 360.677 355.277L327.777 168.498C327.712 168.124 327.961 167.768 328.333 167.702C328.703 167.639 329.061 167.886 329.127 168.259L362.027 355.038C362.092 355.412 361.843 355.767 361.471 355.833C361.431 355.84 361.391 355.844 361.351 355.844Z" fill="#020D3A"/>
<path d="M153.165 168.876H139.218L138.549 176.772H127.676L133.702 134.507H143.27L168.328 176.772H157.397L153.165 168.876ZM139.893 161.009H148.969L141.136 146.35L139.893 161.009Z" fill="white"/>
<path d="M171.402 176.772L161.943 134.507H175.543C179.273 134.507 182.816 135.354 186.172 137.047C189.528 138.74 192.387 141.13 194.75 144.217C197.113 147.304 198.733 150.763 199.61 154.595L200.045 156.54C200.911 160.41 200.871 163.879 199.924 166.946C198.976 170.014 197.213 172.413 194.634 174.145C192.054 175.877 188.94 176.753 185.29 176.772H171.402ZM173.881 142.374L179.825 168.934H183.363C186.282 168.934 188.291 167.894 189.392 165.814C190.492 163.734 190.583 160.642 189.665 156.54L189.255 154.71C188.342 150.627 186.87 147.551 184.841 145.479C182.812 143.409 180.299 142.373 177.303 142.373H173.881V142.374Z" fill="white"/>
<path d="M118.427 164.538C118.101 164.538 117.812 164.304 117.753 163.971L111.217 126.989C111.027 125.91 111.318 124.809 112.018 123.967C112.718 123.126 113.746 122.639 114.84 122.632L175.984 122.224C175.986 122.224 175.987 122.224 175.988 122.224C176.365 122.224 176.671 122.528 176.674 122.906C176.676 123.285 176.372 123.594 175.993 123.597L114.849 124.005C114.16 124.009 113.512 124.316 113.072 124.846C112.631 125.376 112.447 126.07 112.567 126.749L119.103 163.732C119.169 164.106 118.92 164.462 118.548 164.527C118.507 164.535 118.467 164.538 118.427 164.538Z" fill="#20E086"/>
<path d="M210.605 187.795H150.863C150.485 187.795 150.178 187.487 150.178 187.108C150.178 186.729 150.484 186.422 150.863 186.422H210.605C211.298 186.422 211.951 186.116 212.396 185.584C212.84 185.051 213.024 184.353 212.902 183.67L204.333 136.011C204.266 135.638 204.514 135.282 204.886 135.214C205.26 135.147 205.615 135.395 205.682 135.768L214.251 183.427C214.446 184.511 214.153 185.618 213.447 186.464C212.741 187.31 211.706 187.795 210.605 187.795Z" fill="#20E086"/>
<path d="M454.568 136.32C454.393 136.32 454.217 136.254 454.083 136.119C453.816 135.851 453.816 135.417 454.084 135.148L455.832 133.399C456.1 133.132 456.534 133.131 456.802 133.399C457.069 133.667 457.069 134.102 456.801 134.37L455.053 136.12C454.919 136.253 454.744 136.32 454.568 136.32Z" fill="#20E086"/>
<path d="M448.449 142.445C448.274 142.445 448.098 142.378 447.964 142.244C447.697 141.975 447.697 141.541 447.965 141.273L449.713 139.524C449.981 139.257 450.415 139.256 450.682 139.524C450.95 139.793 450.95 140.227 450.682 140.495L448.934 142.244C448.8 142.378 448.624 142.445 448.449 142.445Z" fill="#20E086"/>
<path d="M456.317 142.445C456.141 142.445 455.966 142.378 455.832 142.244L454.084 140.495C453.816 140.227 453.816 139.793 454.083 139.524C454.351 139.256 454.785 139.257 455.053 139.524L456.801 141.273C457.069 141.541 457.069 141.975 456.802 142.244C456.668 142.378 456.492 142.445 456.317 142.445Z" fill="#20E086"/>
<path d="M450.198 136.32C450.022 136.32 449.847 136.253 449.713 136.12L447.965 134.37C447.697 134.102 447.697 133.667 447.964 133.399C448.232 133.131 448.666 133.132 448.934 133.399L450.682 135.148C450.95 135.417 450.95 135.851 450.682 136.119C450.549 136.253 450.373 136.32 450.198 136.32Z" fill="#20E086"/>
<path d="M213.913 74.5C213.737 74.5 213.562 74.4331 213.428 74.2991C213.161 74.031 213.161 73.5963 213.428 73.3287L215.177 71.579C215.445 71.3109 215.878 71.3109 216.146 71.579C216.413 71.847 216.413 72.2818 216.146 72.5494L214.397 74.2991C214.264 74.4329 214.088 74.5 213.913 74.5Z" fill="#20E086"/>
<path d="M207.794 80.6245C207.618 80.6245 207.443 80.5576 207.309 80.4236C207.041 80.1551 207.042 79.7208 207.309 79.4527L209.058 77.7035C209.325 77.4362 209.759 77.4358 210.027 77.7039C210.294 77.9724 210.294 78.4067 210.026 78.6747L208.278 80.4238C208.144 80.5576 207.969 80.6245 207.794 80.6245Z" fill="#20E086"/>
<path d="M215.661 80.6243C215.486 80.6243 215.311 80.5574 215.177 80.4238L213.428 78.6747C213.161 78.4067 213.161 77.9719 213.428 77.7039C213.696 77.4358 214.129 77.4362 214.397 77.7035L216.145 79.4527C216.413 79.7208 216.413 80.1555 216.146 80.4236C216.012 80.5574 215.837 80.6243 215.661 80.6243Z" fill="#20E086"/>
<path d="M209.542 74.4999C209.367 74.4999 209.192 74.433 209.058 74.2994L207.309 72.5497C207.041 72.2817 207.041 71.8469 207.309 71.5789C207.577 71.3108 208.011 71.3112 208.278 71.5785L210.027 73.3281C210.294 73.5962 210.294 74.0309 210.027 74.299C209.893 74.4328 209.718 74.4999 209.542 74.4999Z" fill="#20E086"/>
<path d="M119.589 67.6248C119.395 67.6248 119.202 67.5425 119.067 67.3831C118.821 67.0939 118.857 66.6607 119.145 66.4155C142.293 46.7107 176.93 33.6578 216.676 29.6624C217.054 29.615 217.389 29.8992 217.426 30.2768C217.464 30.6541 217.189 30.9907 216.813 31.0281C177.342 34.9962 142.971 47.9352 120.032 67.4612C119.904 67.571 119.746 67.6248 119.589 67.6248Z" fill="#20E086"/>
<path d="M275.51 31.7252C275.482 31.7252 275.454 31.7233 275.426 31.7202C259.526 29.7887 243.482 29.2662 227.735 30.1681C227.363 30.1789 227.033 29.9004 227.012 29.5218C226.99 29.1433 227.279 28.8188 227.657 28.7974C243.484 27.8905 259.611 28.4158 275.592 30.3573C275.967 30.4028 276.235 30.7451 276.189 31.1216C276.147 31.4695 275.852 31.7252 275.51 31.7252Z" fill="#20E086"/>
<path d="M139.128 65.0091C138.918 65.0091 138.71 64.912 138.575 64.7289C138.351 64.4231 138.417 63.9937 138.722 63.7694C144.842 59.2693 151.747 55.2461 159.245 51.8115C159.589 51.6533 159.996 51.8061 160.153 52.1503C160.311 52.4954 160.159 52.9024 159.815 53.0601C152.402 56.4558 145.578 60.4313 139.533 64.8758C139.411 64.9658 139.269 65.0091 139.128 65.0091Z" fill="#20E086"/>
<path d="M170.689 48.5882C170.408 48.5882 170.144 48.4134 170.044 48.1327C169.917 47.776 170.102 47.3834 170.458 47.2553C195.775 38.1802 227.826 34.4849 263.142 36.5671C263.52 36.5896 263.808 36.9138 263.786 37.2926C263.764 37.6711 263.441 37.9669 263.062 37.9376C227.929 35.867 196.065 39.5352 170.92 48.5481C170.844 48.5753 170.766 48.5882 170.689 48.5882Z" fill="#20E086"/>
<path d="M111.808 77.5313C111.662 77.5313 111.516 77.4843 111.395 77.3922C111.181 77.2301 111.081 76.9574 111.14 76.695L112.709 69.6538C112.759 69.4285 112.919 69.2435 113.135 69.1618C113.351 69.0799 113.593 69.1121 113.78 69.2472C116.178 70.9854 118.417 72.9745 118.439 72.9942C118.606 73.143 118.691 73.3642 118.665 73.5868C118.639 73.8095 118.506 74.0051 118.31 74.1115L112.134 77.4492C112.032 77.504 111.92 77.5313 111.808 77.5313ZM113.817 70.9835L112.804 75.5264L116.784 73.3759C116.1 72.793 115.013 71.8902 113.817 70.9835Z" fill="#20E086"/>
<path d="M459.945 115.448C459.838 115.448 459.729 115.423 459.628 115.371L443.866 107.133C443.531 106.957 443.401 106.543 443.576 106.206C443.751 105.87 444.166 105.741 444.501 105.915L460.262 114.153C460.598 114.329 460.728 114.743 460.553 115.08C460.431 115.314 460.192 115.448 459.945 115.448Z" fill="#20E086"/>
<path d="M446.925 69.4564C446.648 69.4564 446.388 69.2885 446.284 69.0145C446.15 68.6601 446.327 68.2637 446.681 68.1288L461.072 62.637C461.425 62.5021 461.822 62.6794 461.956 63.0338C462.091 63.3882 461.914 63.7846 461.56 63.9197L447.169 69.4115C447.088 69.4421 447.006 69.4564 446.925 69.4564Z" fill="#20E086"/>
<path d="M459.946 87.9897C459.922 87.9897 459.898 87.9884 459.873 87.9861L446.853 86.6136C446.477 86.5739 446.204 86.236 446.243 85.8591C446.283 85.4823 446.619 85.2188 446.996 85.2483L460.017 86.6209C460.393 86.6606 460.666 86.9984 460.627 87.3756C460.59 87.7278 460.292 87.9897 459.946 87.9897Z" fill="#20E086"/>
<path d="M431.08 353.769C430.855 353.769 430.634 353.657 430.503 353.453C430.299 353.134 430.392 352.709 430.71 352.504C451.611 339.075 458.451 313.478 449.007 284.035C448.891 283.674 449.09 283.287 449.45 283.171C449.812 283.054 450.196 283.255 450.312 283.614C454.825 297.686 455.685 311.449 452.797 323.417C449.71 336.212 442.328 346.671 431.45 353.66C431.336 353.734 431.207 353.769 431.08 353.769Z" fill="#20E086"/>
<path d="M431.356 343.685C431.185 343.685 431.014 343.622 430.881 343.494C430.608 343.231 430.6 342.796 430.862 342.523C440.494 332.486 445.15 318.642 444.329 302.488C444.31 302.11 444.601 301.787 444.979 301.768C445.351 301.757 445.679 302.04 445.698 302.419C446.539 318.96 441.751 333.157 431.85 343.474C431.716 343.614 431.536 343.685 431.356 343.685Z" fill="#20E086"/>
<path d="M300.42 291.023C300.051 291.023 299.747 290.73 299.735 290.358C299.723 289.979 300.021 289.662 300.399 289.651C302.172 289.595 303.977 289.42 305.765 289.133C306.139 289.069 306.49 289.327 306.55 289.701C306.61 290.075 306.356 290.428 305.982 290.488C304.137 290.785 302.273 290.965 300.442 291.023C300.435 291.023 300.427 291.023 300.42 291.023ZM294.95 290.834C294.927 290.834 294.903 290.833 294.88 290.83C293.061 290.647 291.217 290.339 289.398 289.916C289.03 289.83 288.8 289.461 288.885 289.092C288.971 288.723 289.337 288.491 289.708 288.579C291.47 288.988 293.257 289.286 295.018 289.464C295.394 289.502 295.669 289.839 295.631 290.216C295.595 290.57 295.297 290.834 294.95 290.834ZM311.218 289.291C310.921 289.291 310.648 289.097 310.56 288.797C310.454 288.433 310.663 288.052 311.027 287.945C312.767 287.438 314.473 286.819 316.097 286.108C316.444 285.956 316.848 286.115 316.999 286.462C317.151 286.809 316.993 287.214 316.646 287.366C314.969 288.101 313.207 288.739 311.41 289.264C311.346 289.282 311.282 289.291 311.218 289.291ZM284.304 288.379C284.228 288.379 284.149 288.366 284.073 288.339C282.382 287.731 280.661 287.009 278.958 286.193C278.617 286.029 278.472 285.619 278.635 285.277C278.799 284.935 279.208 284.79 279.55 284.954C281.211 285.75 282.889 286.454 284.536 287.047C284.892 287.175 285.077 287.568 284.949 287.925C284.849 288.205 284.585 288.379 284.304 288.379ZM321.228 284.881C320.999 284.881 320.775 284.765 320.645 284.555C320.446 284.233 320.546 283.81 320.868 283.61C322.425 282.646 323.881 281.577 325.196 280.432C325.482 280.183 325.914 280.214 326.162 280.5C326.411 280.786 326.381 281.22 326.095 281.468C324.725 282.662 323.208 283.775 321.588 284.778C321.476 284.848 321.352 284.881 321.228 284.881ZM274.42 283.676C274.302 283.676 274.182 283.645 274.073 283.581C272.545 282.681 270.977 281.678 269.412 280.602C269.1 280.387 269.021 279.96 269.235 279.647C269.449 279.335 269.876 279.254 270.188 279.47C271.727 280.529 273.268 281.513 274.768 282.397C275.094 282.59 275.203 283.01 275.011 283.337C274.884 283.554 274.655 283.676 274.42 283.676ZM356.253 281.733C355.879 281.733 355.573 281.432 355.567 281.057C355.562 280.678 355.864 280.366 356.242 280.36C358.103 280.332 359.922 280.227 361.651 280.046C362.028 280.008 362.364 280.28 362.404 280.658C362.443 281.034 362.169 281.372 361.793 281.411C360.024 281.596 358.163 281.704 356.263 281.733C356.259 281.733 356.256 281.733 356.253 281.733ZM350.774 281.612C350.761 281.612 350.749 281.612 350.735 281.611C348.991 281.514 347.14 281.357 345.235 281.145C344.859 281.103 344.587 280.764 344.629 280.387C344.671 280.01 345.016 279.738 345.385 279.78C347.267 279.989 349.092 280.144 350.812 280.24C351.19 280.262 351.479 280.586 351.458 280.964C351.438 281.329 351.135 281.612 350.774 281.612ZM367.133 280.565C366.816 280.565 366.532 280.344 366.463 280.021C366.384 279.65 366.621 279.286 366.991 279.207C368.752 278.832 370.504 278.355 372.2 277.787C372.561 277.667 372.947 277.861 373.067 278.22C373.187 278.58 372.994 278.969 372.634 279.089C370.89 279.673 369.087 280.165 367.276 280.55C367.228 280.56 367.18 280.565 367.133 280.565ZM339.881 280.382C339.841 280.382 339.802 280.379 339.762 280.372C337.938 280.05 336.117 279.665 334.349 279.227C333.981 279.137 333.757 278.765 333.848 278.397C333.939 278.029 334.312 277.804 334.677 277.895C336.416 278.325 338.206 278.703 339.999 279.019C340.372 279.085 340.621 279.441 340.556 279.814C340.497 280.147 340.207 280.382 339.881 280.382ZM329.24 277.736C329.169 277.736 329.097 277.725 329.027 277.702C327.218 277.108 325.471 276.451 323.835 275.749C323.487 275.6 323.326 275.196 323.475 274.847C323.624 274.499 324.028 274.337 324.375 274.487C325.869 275.128 327.458 275.731 329.104 276.281C330.127 274.938 331.002 273.514 331.71 272.044C331.874 271.701 332.284 271.56 332.625 271.723C332.966 271.888 333.109 272.298 332.945 272.64C332.145 274.302 331.143 275.907 329.965 277.41C329.858 277.547 329.71 277.632 329.551 277.661C329.456 277.709 329.35 277.736 329.24 277.736ZM265.374 277.481C265.227 277.481 265.08 277.434 264.955 277.337C263.569 276.263 262.128 275.092 260.673 273.856C260.385 273.611 260.349 273.178 260.594 272.889C260.838 272.599 261.27 272.564 261.56 272.809C262.999 274.032 264.423 275.189 265.794 276.251C266.093 276.483 266.148 276.914 265.916 277.214C265.782 277.389 265.579 277.481 265.374 277.481ZM377.507 277.098C377.248 277.098 377 276.95 376.885 276.699C376.726 276.355 376.876 275.947 377.22 275.788C378.802 275.057 380.416 274.211 382.016 273.276C382.342 273.086 382.762 273.196 382.953 273.523C383.144 273.85 383.034 274.271 382.707 274.462C381.069 275.419 379.416 276.285 377.794 277.035C377.701 277.078 377.603 277.098 377.507 277.098ZM319.188 273.379C319.073 273.379 318.957 273.35 318.85 273.29C317.161 272.331 315.595 271.295 314.197 270.209C313.898 269.976 313.844 269.545 314.076 269.246C314.308 268.945 314.738 268.891 315.037 269.124C316.383 270.169 317.893 271.169 319.526 272.095C319.855 272.282 319.971 272.701 319.785 273.031C319.658 273.254 319.426 273.379 319.188 273.379ZM386.979 271.602C386.762 271.602 386.548 271.499 386.415 271.306C386.2 270.995 386.277 270.567 386.589 270.351C388.006 269.369 389.478 268.28 390.964 267.114C391.262 266.881 391.692 266.933 391.926 267.231C392.159 267.53 392.107 267.962 391.809 268.195C390.302 269.377 388.807 270.482 387.369 271.48C387.25 271.562 387.114 271.602 386.979 271.602ZM256.997 270.393C256.832 270.393 256.667 270.334 256.536 270.214C255.239 269.033 253.922 267.802 252.511 266.451C252.237 266.189 252.228 265.754 252.489 265.48C252.751 265.206 253.184 265.196 253.458 265.458C254.861 266.801 256.169 268.025 257.458 269.198C257.738 269.453 257.758 269.887 257.504 270.168C257.369 270.317 257.183 270.393 256.997 270.393ZM334.121 267.856C334.072 267.856 334.022 267.85 333.972 267.839C333.603 267.757 333.37 267.39 333.452 267.02C333.83 265.321 334.021 263.545 334.021 261.742C334.021 261.363 334.328 261.047 334.706 261.047C335.085 261.047 335.392 261.346 335.392 261.725C335.392 263.645 335.189 265.521 334.79 267.319C334.719 267.638 334.435 267.856 334.121 267.856ZM310.618 266.61C310.427 266.61 310.237 266.531 310.102 266.376C308.822 264.909 307.753 263.342 306.925 261.716C306.753 261.379 306.887 260.965 307.224 260.793C307.56 260.621 307.974 260.755 308.146 261.093C308.923 262.617 309.928 264.091 311.134 265.472C311.383 265.758 311.354 266.191 311.069 266.44C310.939 266.554 310.778 266.61 310.618 266.61ZM395.627 264.86C395.432 264.86 395.239 264.778 395.103 264.617C394.858 264.328 394.895 263.894 395.184 263.65L395.912 263.033C397.013 262.101 398.169 261.124 399.365 260.098C399.651 259.851 400.085 259.885 400.331 260.173C400.577 260.461 400.543 260.894 400.256 261.141C399.058 262.169 397.9 263.148 396.796 264.082L396.069 264.698C395.94 264.807 395.783 264.86 395.627 264.86ZM249.053 262.807C248.879 262.807 248.705 262.741 248.571 262.609C247.268 261.319 245.974 260.02 244.686 258.722C244.42 258.453 244.421 258.018 244.689 257.751C244.958 257.484 245.392 257.485 245.659 257.754C246.943 259.05 248.235 260.345 249.535 261.633C249.804 261.899 249.806 262.334 249.54 262.603C249.406 262.739 249.23 262.807 249.053 262.807ZM403.942 257.691C403.753 257.691 403.566 257.613 403.43 257.462C403.178 257.179 403.202 256.745 403.484 256.492C404.914 255.211 406.228 253.998 407.501 252.783C407.775 252.522 408.209 252.532 408.47 252.806C408.731 253.081 408.721 253.515 408.447 253.777C407.163 255.002 405.839 256.225 404.398 257.516C404.267 257.633 404.104 257.691 403.942 257.691ZM334.132 256.96C333.821 256.96 333.54 256.747 333.465 256.431C333.089 254.827 332.457 253.097 331.637 251.426C331.47 251.086 331.61 250.675 331.95 250.507C332.289 250.34 332.701 250.48 332.868 250.821C333.744 252.607 334.394 254.389 334.8 256.116C334.886 256.485 334.658 256.855 334.29 256.942C334.236 256.954 334.184 256.96 334.132 256.96ZM305.829 256.895C305.499 256.895 305.209 256.657 305.154 256.321C304.972 255.226 304.881 254.103 304.881 252.984C304.881 252.202 304.926 251.419 305.014 250.656C305.058 250.28 305.399 250.008 305.774 250.053C306.15 250.097 306.419 250.437 306.376 250.814C306.293 251.525 306.252 252.255 306.252 252.984C306.252 254.028 306.337 255.076 306.506 256.096C306.568 256.47 306.315 256.824 305.942 256.886C305.904 256.892 305.866 256.895 305.829 256.895ZM241.314 255.023C241.137 255.023 240.961 254.955 240.827 254.819C239.532 253.511 238.243 252.211 236.958 250.93C236.69 250.662 236.689 250.228 236.956 249.959C237.223 249.69 237.657 249.689 237.925 249.956C239.212 251.24 240.504 252.542 241.801 253.853C242.067 254.123 242.065 254.557 241.796 254.824C241.662 254.957 241.488 255.023 241.314 255.023ZM411.874 250.105C411.702 250.105 411.53 250.04 411.397 249.911C411.125 249.646 411.119 249.212 411.383 248.94C412.673 247.61 413.923 246.264 415.097 244.94C415.348 244.657 415.78 244.631 416.064 244.883C416.347 245.135 416.373 245.569 416.121 245.852C414.934 247.191 413.67 248.552 412.366 249.897C412.232 250.035 412.053 250.105 411.874 250.105ZM233.526 247.281C233.354 247.281 233.183 247.217 233.05 247.089C231.626 245.714 230.323 244.487 229.067 243.337C228.788 243.082 228.768 242.647 229.023 242.368C229.279 242.088 229.712 242.069 229.991 242.324C231.257 243.481 232.568 244.716 234.001 246.1C234.274 246.363 234.282 246.797 234.019 247.07C233.885 247.211 233.705 247.281 233.526 247.281ZM329.372 247.143C329.165 247.143 328.961 247.05 328.827 246.873C327.695 245.387 326.461 244.091 325.16 243.019C324.868 242.778 324.826 242.345 325.066 242.053C325.306 241.76 325.737 241.717 326.03 241.958C327.414 243.097 328.721 244.471 329.916 246.04C330.146 246.342 330.088 246.773 329.787 247.002C329.663 247.097 329.517 247.143 329.372 247.143ZM307.156 246.154C307.058 246.154 306.958 246.132 306.863 246.087C306.521 245.924 306.375 245.515 306.538 245.173C307.423 243.307 308.613 241.781 310.077 240.637C310.377 240.404 310.807 240.458 311.039 240.756C311.272 241.055 311.219 241.486 310.92 241.72C309.626 242.731 308.568 244.091 307.775 245.762C307.658 246.009 307.413 246.154 307.156 246.154ZM419.147 241.886C418.996 241.886 418.845 241.837 418.718 241.735C418.423 241.498 418.376 241.066 418.612 240.77C419.76 239.336 420.866 237.873 421.899 236.423C422.119 236.114 422.548 236.043 422.855 236.263C423.163 236.483 423.235 236.912 423.015 237.22C421.967 238.691 420.846 240.175 419.681 241.629C419.546 241.798 419.347 241.886 419.147 241.886ZM320.889 240.411C320.811 240.411 320.732 240.398 320.655 240.37C319.415 239.918 318.163 239.689 316.933 239.689C316.933 239.689 316.931 239.689 316.93 239.689C316.484 239.689 316.033 239.72 315.591 239.779C315.216 239.832 314.871 239.566 314.821 239.191C314.77 238.815 315.033 238.469 315.409 238.419C315.911 238.351 316.423 238.316 316.93 238.316C316.931 238.316 316.933 238.316 316.934 238.316C318.323 238.316 319.732 238.573 321.123 239.079C321.479 239.209 321.662 239.602 321.533 239.958C321.432 240.238 321.169 240.411 320.889 240.411ZM225.411 239.889C225.255 239.889 225.098 239.836 224.97 239.727C223.762 238.708 222.572 237.746 221.432 236.871C221.194 236.688 220.955 236.505 220.713 236.323C220.411 236.094 220.351 235.664 220.579 235.361C220.807 235.058 221.237 234.998 221.539 235.227C221.783 235.412 222.026 235.597 222.266 235.781C223.423 236.67 224.629 237.644 225.853 238.678C226.142 238.923 226.179 239.356 225.935 239.645C225.8 239.806 225.606 239.889 225.411 239.889ZM216.673 233.255C216.54 233.255 216.405 233.216 216.286 233.134C214.799 232.113 213.263 231.107 211.721 230.145C211.4 229.945 211.301 229.521 211.502 229.199C211.702 228.877 212.124 228.779 212.446 228.98C214.004 229.953 215.557 230.969 217.061 232.002C217.373 232.216 217.453 232.644 217.239 232.956C217.106 233.15 216.892 233.255 216.673 233.255ZM425.509 232.948C425.384 232.948 425.259 232.914 425.145 232.843C424.824 232.642 424.728 232.218 424.929 231.897C425.895 230.353 426.817 228.77 427.669 227.193C427.849 226.859 428.263 226.734 428.598 226.915C428.931 227.096 429.055 227.512 428.874 227.846C428.009 229.449 427.072 231.057 426.09 232.626C425.96 232.834 425.737 232.948 425.509 232.948ZM207.366 227.447C207.252 227.447 207.137 227.418 207.03 227.358C205.45 226.464 203.832 225.597 202.223 224.78C201.885 224.609 201.75 224.196 201.921 223.858C202.092 223.52 202.504 223.384 202.842 223.556C204.47 224.381 206.106 225.259 207.704 226.162C208.034 226.349 208.15 226.768 207.964 227.098C207.838 227.321 207.605 227.447 207.366 227.447ZM430.715 223.293C430.62 223.293 430.523 223.273 430.43 223.23C430.086 223.073 429.934 222.666 430.092 222.321C430.844 220.67 431.546 218.98 432.176 217.297C432.309 216.942 432.706 216.763 433.058 216.895C433.412 217.029 433.592 217.424 433.459 217.779C432.818 219.492 432.104 221.211 431.338 222.891C431.223 223.144 430.975 223.293 430.715 223.293ZM197.579 222.487C197.485 222.487 197.39 222.468 197.299 222.427C195.624 221.675 193.933 220.966 192.271 220.32C191.918 220.183 191.743 219.785 191.88 219.431C192.017 219.078 192.414 218.903 192.767 219.04C194.45 219.695 196.164 220.413 197.86 221.174C198.205 221.329 198.359 221.735 198.205 222.081C198.091 222.336 197.841 222.487 197.579 222.487ZM139.921 222.092C139.703 222.092 139.488 221.988 139.356 221.794C139.141 221.481 139.221 221.054 139.533 220.839C141.065 219.787 142.678 218.831 144.328 217.998C144.665 217.828 145.078 217.964 145.248 218.303C145.419 218.641 145.282 219.054 144.945 219.225C143.349 220.03 141.79 220.953 140.309 221.971C140.19 222.053 140.055 222.092 139.921 222.092ZM187.355 218.519C187.285 218.519 187.214 218.508 187.144 218.486C185.389 217.914 183.632 217.401 181.923 216.96C181.556 216.865 181.336 216.491 181.43 216.124C181.524 215.756 181.897 215.533 182.265 215.63C184.002 216.078 185.786 216.6 187.567 217.18C187.927 217.297 188.124 217.684 188.007 218.045C187.913 218.335 187.644 218.519 187.355 218.519ZM149.683 217.164C149.399 217.164 149.133 216.986 149.036 216.702C148.912 216.344 149.101 215.953 149.459 215.829C151.186 215.231 152.991 214.732 154.824 214.348C155.194 214.27 155.557 214.508 155.635 214.879C155.713 215.25 155.475 215.614 155.105 215.692C153.328 216.064 151.579 216.547 149.907 217.127C149.833 217.152 149.757 217.164 149.683 217.164ZM176.745 215.794C176.704 215.794 176.662 215.791 176.62 215.783C174.808 215.448 173.003 215.187 171.253 215.006C170.876 214.967 170.603 214.63 170.641 214.253C170.68 213.876 171.021 213.608 171.393 213.64C173.179 213.825 175.021 214.091 176.868 214.432C177.24 214.501 177.487 214.859 177.418 215.232C177.357 215.563 177.069 215.794 176.745 215.794ZM160.383 214.899C160.032 214.899 159.734 214.631 159.701 214.274C159.667 213.896 159.945 213.563 160.322 213.528C162.119 213.364 163.988 213.294 165.865 213.316C166.243 213.32 166.546 213.632 166.542 214.011C166.538 214.39 166.217 214.7 165.849 214.689C164.019 214.667 162.197 214.736 160.446 214.896C160.425 214.898 160.404 214.899 160.383 214.899ZM434.561 213.022C434.496 213.022 434.43 213.013 434.365 212.993C434.002 212.886 433.795 212.504 433.903 212.14C434.415 210.409 434.872 208.638 435.261 206.874C435.342 206.504 435.708 206.272 436.078 206.352C436.447 206.433 436.681 206.8 436.599 207.17C436.203 208.965 435.738 210.769 435.217 212.531C435.129 212.828 434.856 213.022 434.561 213.022ZM436.925 202.314C436.892 202.314 436.858 202.311 436.824 202.306C436.449 202.25 436.191 201.901 436.247 201.526C436.511 199.752 436.718 197.933 436.863 196.121C436.894 195.743 437.229 195.465 437.601 195.492C437.979 195.523 438.26 195.853 438.229 196.231C438.082 198.074 437.871 199.924 437.602 201.728C437.552 202.069 437.259 202.314 436.925 202.314ZM437.807 191.382C437.803 191.382 437.799 191.382 437.796 191.382C437.417 191.375 437.115 191.063 437.121 190.684C437.128 190.237 437.132 189.787 437.132 189.336C437.132 187.987 437.1 186.608 437.038 185.237C437.02 184.858 437.312 184.537 437.691 184.52C438.077 184.501 438.39 184.796 438.407 185.174C438.471 186.567 438.503 187.967 438.503 189.336C438.503 189.794 438.499 190.251 438.492 190.706C438.485 191.081 438.18 191.382 437.807 191.382ZM437.311 180.417C436.965 180.417 436.667 180.154 436.631 179.801C436.446 178.023 436.208 176.204 435.922 174.393C435.863 174.019 436.118 173.667 436.492 173.608C436.862 173.549 437.217 173.804 437.276 174.179C437.566 176.013 437.807 177.857 437.994 179.659C438.033 180.036 437.759 180.374 437.383 180.413C437.359 180.415 437.335 180.417 437.311 180.417ZM435.604 169.572C435.287 169.572 435.002 169.349 434.935 169.026C434.568 167.277 434.15 165.489 433.692 163.71C433.597 163.343 433.818 162.969 434.184 162.874C434.551 162.779 434.924 163 435.019 163.367C435.482 165.166 435.905 166.975 436.276 168.745C436.353 169.116 436.116 169.479 435.746 169.557C435.698 169.567 435.651 169.572 435.604 169.572ZM432.871 158.94C432.577 158.94 432.305 158.749 432.215 158.453C432.103 158.083 431.989 157.711 431.872 157.339C431.758 156.977 431.96 156.592 432.32 156.478C432.682 156.361 433.066 156.566 433.18 156.928C433.298 157.305 433.413 157.679 433.527 158.054C433.637 158.416 433.432 158.8 433.07 158.91C433.004 158.93 432.937 158.94 432.871 158.94Z" fill="#20E086"/>
<path d="M355.682 70.6736C352.253 66.72 347.004 65.7493 343.008 66.7119C337.951 67.9302 335.289 72.1991 333.411 75.2099C330.093 80.532 331.555 82.5411 328.981 85.6127C324.422 91.0529 317.648 87.3573 312.175 91.2658C303.825 97.2282 302.072 118.277 312.867 126.643C320.067 132.221 330.177 129.433 332.928 128.674C341.276 126.371 351.785 119.551 353.557 109.924C355.023 101.964 349.965 95.1485 354.573 88.5795C355.746 86.9066 356.689 86.4718 357.587 84.3626C359.046 80.9376 359.529 75.109 355.682 70.6736Z" fill="#020D3A"/>
<path d="M384.7 109.07C384.356 107.521 384.054 106.002 384.827 104.655L385.972 102.622C386.156 102.306 386.552 101.033 387.386 101.626C388.018 102.074 388.064 102.805 387.379 105.663C387.036 107.098 387.316 107.938 388 108.867C388.044 108.656 388.123 108.416 388.237 108.167C388.757 107.029 389.814 106.226 391.038 105.974C392.562 105.66 395.012 105.406 395.664 107.233C396.117 108.504 395.589 110.742 393.305 112.205C392.769 112.547 390.022 113.861 390.022 113.861C381.606 124.62 369.112 132.723 352.976 115.661L349.012 100.869C367.091 123.195 385.097 110.855 384.7 109.07Z" fill="white"/>
<path d="M371.225 126.196C365.1 126.197 358.798 122.815 352.479 116.133C352.401 116.05 352.344 115.949 352.315 115.839L348.35 101.047C348.266 100.734 348.412 100.405 348.7 100.258C348.988 100.11 349.339 100.185 349.544 100.436C360.273 113.686 370.677 114.018 375.922 113.039C380.792 112.129 383.681 109.799 384.008 109.116C383.688 107.672 383.323 105.898 384.234 104.313L385.375 102.285C385.401 102.24 385.424 102.188 385.452 102.128C385.649 101.708 385.979 101.004 386.664 100.823C386.923 100.754 387.327 100.742 387.783 101.065C388.868 101.837 388.697 103.107 388.047 105.823C387.906 106.408 387.887 106.86 387.965 107.255C388.631 106.263 389.687 105.552 390.901 105.301C394.597 104.537 395.883 105.803 396.31 107.001C396.885 108.618 396.157 111.193 393.674 112.783C393.173 113.103 391.078 114.115 390.462 114.411C384.552 121.922 378.343 125.881 372.004 126.178C371.744 126.19 371.484 126.196 371.225 126.196ZM353.593 115.315C359.852 121.891 366.026 125.09 371.939 124.807C377.898 124.527 383.8 120.702 389.482 113.438C389.547 113.355 389.631 113.288 389.726 113.242C390.815 112.721 392.569 111.861 392.935 111.626C394.938 110.345 395.359 108.42 395.018 107.463C394.663 106.468 393.37 106.192 391.177 106.646C390.146 106.859 389.28 107.535 388.859 108.454C388.772 108.645 388.706 108.837 388.671 109.008C388.616 109.273 388.41 109.481 388.146 109.538C387.882 109.594 387.609 109.493 387.448 109.275C386.706 108.267 386.297 107.24 386.713 105.503C387.317 102.979 387.277 102.39 386.989 102.186C386.881 102.308 386.748 102.594 386.692 102.712C386.643 102.818 386.599 102.907 386.563 102.968L385.424 104.993C384.802 106.076 385.009 107.304 385.369 108.921C385.66 110.231 382.97 111.92 381.335 112.712C377.534 114.553 364.47 119.081 350.456 103.612L353.593 115.315Z" fill="#020D3A"/>
<path d="M389.343 94.6865L384.95 118.96C384.628 120.738 385.264 122.322 386.37 122.499L388.19 122.79C389.296 122.967 390.454 121.668 390.776 119.89L395.169 95.6171L389.343 94.6865Z" fill="#20E086"/>
<path d="M388.393 123.492C388.29 123.492 388.187 123.484 388.083 123.468L386.262 123.177C385.702 123.087 385.211 122.765 384.843 122.245C384.252 121.411 384.041 120.137 384.276 118.837L388.669 94.5639C388.736 94.1962 389.085 93.9503 389.451 94.0085L395.277 94.9389C395.459 94.968 395.621 95.0695 395.728 95.22C395.835 95.3707 395.876 95.5579 395.843 95.7392L391.45 120.012C391.083 122.038 389.777 123.492 388.393 123.492ZM389.898 95.4704L385.624 119.082C385.456 120.012 385.585 120.92 385.961 121.451C386.113 121.666 386.287 121.791 386.477 121.821L388.299 122.112C388.926 122.214 389.836 121.233 390.102 119.768L394.37 96.1847L389.898 95.4704Z" fill="#020D3A"/>
<path d="M394.781 97.7657L390.776 119.891C390.454 121.669 389.296 122.967 388.19 122.79L386.37 122.5C385.264 122.323 384.628 120.738 384.95 118.96L389.06 96.2158L394.781 97.7657Z" fill="#20E086"/>
<path d="M388.393 123.493C388.29 123.493 388.187 123.485 388.083 123.468L386.262 123.177C385.702 123.088 385.211 122.766 384.843 122.246C384.252 121.411 384.041 120.137 384.276 118.838L388.386 96.0934C388.42 95.9043 388.532 95.7386 388.694 95.6357C388.856 95.533 389.054 95.5029 389.239 95.553L394.96 97.1024C395.304 97.196 395.519 97.5369 395.455 97.8877L391.45 120.013C391.083 122.038 389.777 123.493 388.393 123.493ZM389.602 97.0737L385.624 119.083C385.456 120.012 385.585 120.921 385.961 121.452C386.113 121.667 386.287 121.791 386.477 121.822L388.299 122.113C388.926 122.216 389.836 121.233 390.102 119.768L393.994 98.2633L389.602 97.0737Z" fill="#020D3A"/>
<path d="M389.253 111.05C390.051 111.471 391.436 111.816 393.234 111.429C395.121 111.022 396.117 108.504 395.664 107.232C395.015 105.414 392.585 105.657 391.06 105.969C389.825 106.222 388.386 107.134 388.046 108.041C387.527 109.424 387.759 110.26 389.253 111.05Z" fill="white"/>
<path d="M392.062 113.578C391.817 113.578 391.58 113.447 391.457 113.216C391.278 112.881 391.405 112.465 391.738 112.286C391.749 112.281 391.76 112.275 391.77 112.269C391.756 112.269 391.743 112.269 391.729 112.269C390.682 112.269 389.687 112.055 388.934 111.657C387.192 110.737 386.735 109.583 387.405 107.798C387.858 106.59 389.55 105.578 390.923 105.296C393.603 104.746 395.353 105.181 396.123 106.584C396.138 106.612 396.266 106.879 396.31 107.002C396.897 108.65 396.181 111.165 393.676 112.781C393.621 112.816 393.368 112.971 392.385 113.497C392.281 113.552 392.171 113.578 392.062 113.578ZM392.287 110.875C392.64 110.875 392.94 111.147 392.969 111.507C392.971 111.54 392.972 111.572 392.97 111.603C395.051 110.242 395.333 108.344 395.018 107.463C394.989 107.383 394.907 107.218 394.907 107.218C394.364 106.23 392.589 106.357 391.198 106.642C390.143 106.858 388.923 107.655 388.688 108.282C388.296 109.325 388.371 109.808 389.573 110.443C389.823 110.574 390.748 110.993 392.232 110.877C392.25 110.875 392.268 110.875 392.287 110.875Z" fill="#020D3A"/>
<path d="M336.452 156.386C336.452 156.386 327.373 159.774 323.813 156.921C320.252 154.068 329.331 149.253 331.468 149.61C333.604 149.966 336.452 156.386 336.452 156.386Z" fill="#020D3A"/>
<path d="M382.079 229.09L373.534 244.069L368.905 237.65L376.382 223.027L382.079 229.09Z" fill="white"/>
<path d="M373.534 244.756C373.314 244.756 373.108 244.65 372.978 244.471L368.35 238.051C368.199 237.842 368.178 237.566 368.295 237.337L375.772 222.715C375.874 222.516 376.066 222.379 376.286 222.348C376.506 222.315 376.729 222.395 376.882 222.557L382.578 228.62C382.784 228.84 382.824 229.169 382.674 229.431L374.129 244.41C374.014 244.612 373.803 244.742 373.571 244.755C373.558 244.755 373.546 244.756 373.534 244.756ZM369.706 237.589L373.467 242.804L381.232 229.191L376.549 224.207L369.706 237.589Z" fill="#020D3A"/>
<path d="M376.494 241.785C374.241 246.438 368.537 257.724 363.041 263.133C361.7 264.452 359.435 263.84 358.954 262.02C357.235 255.505 356.088 241.93 362.497 231.231C362.497 231.231 365.544 230.874 371.241 231.944L369.974 237.293L370.674 236.793C371.727 236.04 373.157 236.103 374.139 236.946L375.781 238.356C376.769 239.204 377.062 240.612 376.494 241.785Z" fill="white"/>
<path d="M361.331 264.53C361.051 264.53 360.767 264.492 360.486 264.414C359.399 264.116 358.579 263.287 358.292 262.197C356.572 255.679 355.398 241.748 361.909 230.879C362.018 230.696 362.206 230.575 362.417 230.55C362.546 230.535 365.634 230.194 371.367 231.27C371.551 231.305 371.713 231.414 371.815 231.571C371.918 231.728 371.951 231.921 371.908 232.104L371.026 235.826C372.209 235.356 373.58 235.564 374.585 236.426L376.226 237.836C377.45 238.886 377.813 240.633 377.11 242.086C374.289 247.911 368.773 258.454 363.521 263.624C362.92 264.214 362.14 264.53 361.331 264.53ZM362.905 231.889C356.83 242.322 357.968 255.597 359.617 261.845C359.778 262.457 360.239 262.923 360.849 263.091C361.465 263.261 362.104 263.093 362.56 262.644C367.666 257.62 373.095 247.231 375.877 241.487C376.308 240.595 376.085 239.522 375.334 238.878L373.692 237.468C372.948 236.829 371.871 236.781 371.072 237.353L370.372 237.853C370.14 238.019 369.828 238.023 369.591 237.864C369.354 237.705 369.241 237.414 369.307 237.136L370.407 232.492C366.349 231.787 363.774 231.842 362.905 231.889Z" fill="#020D3A"/>
<path d="M362.141 261.875C361.864 261.875 361.604 261.706 361.5 261.432C356.474 248.125 363.014 233.016 363.294 232.379C363.447 232.033 363.85 231.876 364.198 232.029C364.544 232.182 364.7 232.587 364.548 232.934C364.481 233.085 357.957 248.174 362.782 260.945C362.916 261.3 362.737 261.696 362.384 261.831C362.304 261.861 362.222 261.875 362.141 261.875Z" fill="#020D3A"/>
<path d="M373.178 248.959C373.05 248.959 372.921 248.924 372.806 248.849L368.533 246.073C368.215 245.866 368.125 245.441 368.331 245.123C368.537 244.805 368.962 244.715 369.279 244.921L373.552 247.697C373.869 247.903 373.959 248.328 373.754 248.646C373.622 248.849 373.402 248.959 373.178 248.959Z" fill="#020D3A"/>
<path d="M371.042 252.76C370.896 252.76 370.749 252.714 370.625 252.618L366.709 249.607C366.408 249.376 366.352 248.945 366.582 248.644C366.812 248.344 367.243 248.287 367.543 248.518L371.459 251.529C371.759 251.76 371.816 252.191 371.586 252.491C371.451 252.668 371.247 252.76 371.042 252.76Z" fill="#020D3A"/>
<path d="M409.139 229.447C409.139 229.804 416.972 246.923 416.972 246.923L408.071 247.636L402.019 233.014L409.139 229.447Z" fill="white"/>
<path d="M408.07 248.323C407.795 248.323 407.544 248.158 407.437 247.9L401.384 233.277C401.247 232.945 401.389 232.562 401.711 232.4L408.832 228.834C409.044 228.728 409.296 228.739 409.499 228.864C409.66 228.965 409.771 229.126 409.809 229.309C410.091 230.155 414.604 240.103 417.594 246.637C417.687 246.841 417.676 247.078 417.562 247.271C417.449 247.464 417.248 247.59 417.025 247.608L408.124 248.321C408.107 248.322 408.088 248.323 408.07 248.323ZM402.895 233.342L408.512 246.913L415.94 246.317C411.097 235.726 409.387 231.856 408.783 230.394L402.895 233.342Z" fill="#020D3A"/>
<path d="M408.783 243.357C408.783 243.357 410.563 239.077 415.192 241.217C415.192 241.217 423.688 253.51 426.846 263.661C427.739 266.532 424.796 269.119 422.06 267.882C415.658 264.986 405.622 258.907 399.882 247.637C399.882 247.637 401.662 243 404.51 240.86L408.783 243.357Z" fill="white"/>
<path d="M423.509 268.886C422.927 268.886 422.34 268.762 421.779 268.509C414.645 265.282 404.949 259.095 399.272 247.95C399.184 247.776 399.173 247.573 399.243 247.392C399.318 247.195 401.128 242.545 404.1 240.312C404.32 240.146 404.619 240.13 404.856 240.269L408.521 242.41C408.945 241.74 409.753 240.752 411.042 240.249C412.368 239.731 413.861 239.848 415.48 240.595C415.591 240.646 415.686 240.727 415.756 240.828C415.841 240.952 424.348 253.325 427.501 263.458C427.994 265.043 427.525 266.714 426.277 267.82C425.485 268.522 424.506 268.886 423.509 268.886ZM400.637 247.605C406.152 258.22 415.469 264.148 422.343 267.257C423.365 267.718 424.524 267.54 425.369 266.792C426.207 266.049 426.522 264.928 426.192 263.866C423.293 254.547 415.726 243.226 414.736 241.766C413.542 241.249 412.472 241.169 411.552 241.523C410.082 242.091 409.422 243.609 409.415 243.624C409.338 243.806 409.186 243.946 408.999 244.008C408.812 244.071 408.608 244.05 408.438 243.951L404.572 241.692C402.493 243.471 401.042 246.649 400.637 247.605Z" fill="#020D3A"/>
<path d="M424.252 265.472C421.821 265.472 412.955 264.264 401.463 248.397C401.241 248.09 401.308 247.661 401.615 247.438C401.921 247.216 402.35 247.284 402.572 247.59C415.279 265.134 424.616 264.089 424.708 264.076C425.078 264.027 425.427 264.286 425.48 264.66C425.533 265.033 425.277 265.38 424.904 265.435C424.849 265.443 424.628 265.472 424.252 265.472Z" fill="#020D3A"/>
<path d="M416.973 255.813C416.737 255.813 416.508 255.691 416.38 255.472C416.19 255.145 416.3 254.725 416.627 254.533L420.9 252.037C421.226 251.846 421.646 251.956 421.837 252.284C422.028 252.612 421.917 253.032 421.59 253.223L417.318 255.719C417.209 255.783 417.09 255.813 416.973 255.813Z" fill="#020D3A"/>
<path d="M414.836 252.603C414.592 252.603 414.356 252.473 414.233 252.242C414.053 251.908 414.178 251.492 414.511 251.313L419.14 248.816C419.473 248.637 419.888 248.761 420.068 249.095C420.247 249.429 420.123 249.845 419.789 250.025L415.161 252.521C415.057 252.577 414.946 252.603 414.836 252.603Z" fill="#020D3A"/>
<path d="M363.566 143.139C363.566 143.139 386.772 147.29 403.495 164.855C407.716 169.289 409.207 175.671 407.397 181.522C403.682 193.528 395.594 215.454 382.08 231.944L371.755 223.028C371.755 223.028 374.247 202.343 381.012 189.503C387.777 176.664 348.256 148.846 348.256 148.846L363.566 143.139Z" fill="#020D3A"/>
<path d="M411.987 232.658L399.881 236.224C399.881 236.224 377.807 189.503 371.398 182.727C364.989 175.951 352.528 164.895 339.354 160.972C326.181 157.049 326.181 147.063 326.181 147.063L348.611 140.643C348.611 140.643 379.943 154.196 390.268 169.532C400.593 184.867 411.987 232.658 411.987 232.658Z" fill="#020D3A"/>
<path d="M411.866 232.845C411.557 232.845 411.277 232.634 411.201 232.321C410.016 227.442 399.347 184.244 389.701 169.916C385.537 163.731 377.073 156.82 365.224 149.93C364.897 149.74 364.786 149.32 364.976 148.992C365.166 148.664 365.585 148.553 365.912 148.743C378.111 155.837 386.497 162.702 390.837 169.148C400.617 183.674 411.342 227.093 412.532 231.996C412.622 232.365 412.396 232.736 412.029 232.825C411.974 232.839 411.92 232.845 411.866 232.845Z" fill="white"/>
<path d="M399.882 236.911C399.626 236.911 399.38 236.766 399.263 236.518C399.042 236.052 377.162 189.819 370.901 183.199C367.159 179.243 353.81 165.993 339.159 161.63C325.652 157.608 325.496 147.168 325.496 147.063C325.496 146.756 325.699 146.487 325.993 146.403L348.424 139.983C348.575 139.94 348.738 139.95 348.884 140.013C348.962 140.047 356.858 143.478 365.912 148.743C366.24 148.933 366.351 149.353 366.161 149.681C365.97 150.009 365.552 150.12 365.224 149.93C357.09 145.2 349.902 141.964 348.563 141.371L326.898 147.572C327.099 149.605 328.587 157.049 339.55 160.314C354.527 164.774 368.094 178.236 371.896 182.255C378.306 189.033 399.598 234.019 400.501 235.931C400.663 236.274 400.517 236.682 400.175 236.845C400.081 236.89 399.981 236.911 399.882 236.911Z" fill="white"/>
<path d="M316.913 108.293C323.591 96.6976 339.397 95.8057 339.397 95.8057L350.357 97.5677C355.69 98.072 360.924 106.319 362.214 111.526C359.182 125.218 362.124 133.092 370.896 143.414C370.896 143.414 367.123 154.147 352.838 153.26C338.553 152.373 329.032 149.915 323.547 154.801C319.931 158.022 324.057 133.275 328.976 113.971L316.913 108.293Z" fill="#20E086"/>
<path d="M363.555 139.653L355.382 136.959L349.635 140.098C349.635 140.098 316.91 139.529 328.824 114.818C328.876 114.711 317.219 113.647 317.219 113.647C317.219 113.647 307.485 146.498 349.198 142.657C349.198 142.657 351.399 143.134 354.076 141.407C356.753 139.679 362.017 141.974 363.555 139.653Z" fill="white"/>
<path d="M342.74 143.657C332.162 143.657 324.547 140.891 320.053 135.404C312.797 126.542 316.405 113.983 316.562 113.453C316.655 113.139 316.957 112.937 317.281 112.964C329.178 114.05 329.178 114.05 329.42 114.48C329.531 114.675 329.539 114.915 329.441 115.118C326.394 121.436 326.089 126.655 328.532 130.632C333.402 138.557 347.711 139.341 349.47 139.408L355.054 136.357C355.22 136.266 355.417 136.248 355.596 136.308L363.769 139.002C363.972 139.069 364.132 139.227 364.202 139.429C364.272 139.632 364.244 139.855 364.126 140.034C363.094 141.592 360.937 141.506 358.853 141.425C357.21 141.361 355.515 141.295 354.447 141.985C351.885 143.638 349.696 143.432 349.169 143.35C346.917 143.555 344.774 143.657 342.74 143.657ZM317.736 114.385C317.144 116.856 315.137 127.243 321.119 134.54C326.183 140.719 335.609 143.221 349.135 141.974C349.204 141.968 349.274 141.972 349.343 141.987C349.418 142.002 351.325 142.366 353.704 140.831C355.137 139.905 357.051 139.981 358.906 140.053C360.11 140.1 361.267 140.145 362.08 139.89L355.45 137.704L349.963 140.701C349.859 140.759 349.74 140.789 349.623 140.785C348.944 140.773 332.92 140.392 327.365 131.351C324.774 127.134 324.925 121.76 327.812 115.365C325.892 115.149 321.139 114.697 317.736 114.385Z" fill="#020D3A"/>
<path d="M330.614 116.887L314.316 114.139C313.698 113.81 318.627 104.301 319.807 104.949C320.11 105.115 326.009 109.726 326.009 109.726L331.696 110.847L330.614 116.887Z" fill="#20E086"/>
<path d="M401.139 69.6639L377.76 74.9773L367.701 79.3228L362.912 83.0448L362.877 83.0756C361.983 83.6921 361.478 85.7676 361.674 88.1755C361.867 90.5568 362.711 92.505 363.68 93.0028L363.643 93.0055L368.696 95.7963L379.255 98.3657L403.412 99.6547L427.647 115.096L427.829 115.178C421.753 111.213 416.575 98.7151 415.345 83.5873C414.117 68.477 417.201 55.348 422.549 50.4794L422.544 50.4746L401.41 69.4215L401.139 69.6639Z" fill="white"/>
<path d="M432.274 116.334C440.105 115.69 445.206 100.004 443.667 81.299C442.129 62.5941 434.533 47.9532 426.703 48.5977C418.872 49.2422 413.772 64.928 415.31 83.6329C416.849 102.338 424.444 116.979 432.274 116.334Z" fill="#20E086"/>
<path d="M431.768 117.06C423.637 117.06 416.169 102.606 414.627 83.6424C413.5 69.7801 415.982 57.051 420.951 51.2137C422.669 49.195 424.599 48.0889 426.687 47.9266C435.012 47.2803 442.785 61.9464 444.361 81.3228C445.488 95.1853 443.006 107.914 438.037 113.751C436.319 115.77 434.389 116.876 432.301 117.039C432.123 117.052 431.945 117.06 431.768 117.06ZM427.196 49.2793C427.061 49.2793 426.927 49.2847 426.793 49.2949C425.082 49.4282 423.466 50.3733 421.993 52.1042C417.249 57.6781 414.894 70.0137 415.993 83.5305C416.721 92.4895 418.862 100.789 422.02 106.898C425.04 112.742 428.75 115.925 432.195 115.67C433.906 115.537 435.521 114.592 436.994 112.861C441.738 107.287 444.094 94.9517 442.995 81.4344C442.266 72.4754 440.126 64.1764 436.967 58.0666C434.065 52.4512 430.526 49.2793 427.196 49.2793Z" fill="#020D3A"/>
<path d="M431.475 111.485C424.624 111.485 418.336 99.3626 417.043 83.4584C416.098 71.8456 418.182 61.1767 422.351 56.2784C423.806 54.5693 425.443 53.6327 427.217 53.4948C431.895 53.1128 436.487 58.4372 439.456 67.6962C439.572 68.0572 439.373 68.4439 439.013 68.5597C438.652 68.6777 438.267 68.4769 438.151 68.1163C435.431 59.6333 431.29 54.5616 427.323 54.8632C425.925 54.9723 424.603 55.7477 423.394 57.1689C419.449 61.8034 417.492 72.079 418.409 83.3464C419.603 98.0385 425.54 110.11 431.48 110.111C431.594 110.111 431.706 110.107 431.819 110.098C437.286 109.672 441.288 98.7764 440.932 85.2924C440.922 84.9135 441.221 84.5979 441.599 84.5882C441.981 84.5649 442.292 84.8765 442.302 85.2558C442.69 99.9452 438.326 110.969 431.925 111.467C431.775 111.479 431.625 111.485 431.475 111.485Z" fill="#020D3A"/>
<path d="M426.134 90.2125C427.847 90.0713 428.963 86.6376 428.627 82.5431C428.29 78.4485 426.629 75.2437 424.916 75.385C423.202 75.5262 422.086 78.9599 422.422 83.0544C422.759 87.1489 424.42 90.3537 426.134 90.2125Z" fill="#20E086"/>
<path d="M426.036 90.9196C423.942 90.9196 422.115 87.6168 421.749 83.1117C421.487 79.8936 422.065 77.0233 423.258 75.6213C423.723 75.0752 424.284 74.7614 424.879 74.7154C427.05 74.5417 428.946 77.902 429.321 82.5168C429.583 85.736 429.004 88.6062 427.811 90.0077C427.346 90.5537 426.786 90.8672 426.191 90.9131C426.139 90.9173 426.087 90.9196 426.036 90.9196ZM425.033 76.0821C425.017 76.0821 425.001 76.083 424.985 76.0838C424.758 76.1017 424.528 76.2457 424.301 76.512C423.523 77.4272 422.853 79.7884 423.115 83.0001C423.454 87.1711 425.086 89.6042 426.085 89.5447C426.312 89.5269 426.542 89.3828 426.769 89.117C427.548 88.2021 428.216 85.8406 427.955 82.6284C427.621 78.5223 426.047 76.0821 425.033 76.0821Z" fill="#020D3A"/>
<path d="M427.828 115.866C427.733 115.866 427.637 115.846 427.545 115.804L427.363 115.722C427.334 115.708 427.305 115.693 427.279 115.676L403.195 100.331L379.217 99.0521C379.176 99.0499 379.134 99.0436 379.092 99.0338L368.533 96.4644C368.474 96.4497 368.417 96.4278 368.364 96.3983L363.311 93.6077C363.253 93.5755 363.201 93.5362 363.156 93.4907C362.031 92.7372 361.192 90.718 360.99 88.2321C360.773 85.5658 361.346 83.3402 362.449 82.5379L362.456 82.5316L367.28 78.7811C367.326 78.7458 367.376 78.7163 367.429 78.6934L377.488 74.348C377.526 74.3309 377.566 74.318 377.607 74.3087L400.813 69.0345L422.087 49.9635C422.367 49.7133 422.797 49.7342 423.051 50.0136C423.173 50.1481 423.239 50.3287 423.23 50.5106C423.221 50.6925 423.143 50.8659 423.009 50.9883C417.647 55.87 414.842 68.9483 416.028 83.5323C417.197 97.9116 422.203 110.689 428.202 114.604C428.502 114.8 428.601 115.195 428.429 115.51C428.305 115.736 428.071 115.866 427.828 115.866ZM379.354 97.6844L403.448 98.9698C403.566 98.9761 403.68 99.0126 403.779 99.0762L423.156 111.422C418.817 105.357 415.594 95.1152 414.661 83.6439C413.734 72.2448 415.239 61.6875 418.503 55.0186L401.595 70.1763C401.508 70.2541 401.403 70.3081 401.29 70.3341L377.972 75.6336L368.051 79.9192L363.33 83.5903C363.309 83.609 363.287 83.626 363.264 83.6416C362.672 84.0505 362.17 85.8373 362.356 88.1207C362.538 90.3619 363.331 92.0531 363.991 92.3934C364.048 92.4221 364.099 92.4582 364.144 92.4998L368.945 95.1517L379.354 97.6844Z" fill="#020D3A"/>
<path d="M401.203 69.6069L422.544 50.4746L422.549 50.4794C417.201 55.3482 414.116 68.4772 415.345 83.5873C416.575 98.7151 421.753 111.213 427.829 115.178L427.647 115.096L403.452 99.6802L402.89 99.3254C400.085 97.5182 397.689 91.8678 397.148 85.0253C396.592 78.0018 398.477 72.0217 400.937 69.837L401.203 69.6069Z" fill="#20E086"/>
<path d="M427.829 115.866C427.734 115.866 427.638 115.846 427.546 115.805L427.364 115.722C427.335 115.708 427.307 115.693 427.28 115.676L402.525 99.9071C399.442 97.9214 397.009 91.9644 396.465 85.0805C395.934 78.3758 397.587 71.8966 400.483 69.3247L400.75 69.0927L422.088 49.9635C422.368 49.7133 422.798 49.7342 423.052 50.0136C423.174 50.1481 423.24 50.3287 423.231 50.5106C423.222 50.6925 423.144 50.8659 423.01 50.9883C417.648 55.87 414.843 68.9483 416.029 83.5323C417.198 97.9116 422.204 110.689 428.203 114.604C428.503 114.8 428.602 115.195 428.43 115.51C428.306 115.736 428.072 115.866 427.829 115.866ZM418.504 55.0188L401.66 70.1194C401.657 70.1217 401.654 70.1237 401.652 70.126L401.386 70.3565C399.202 72.2972 397.275 77.9441 397.831 84.9722C398.335 91.3489 400.568 97.0144 403.261 98.7491L403.817 99.1008L423.157 111.422C418.818 105.358 415.595 95.116 414.662 83.6439C413.735 72.245 415.24 61.6877 418.504 55.0188Z" fill="#020D3A"/>
<path d="M368.422 96.3327C368.31 96.3327 368.196 96.3055 368.091 96.2473L363.311 93.6074C363.253 93.5752 363.201 93.5359 363.156 93.4904C362.031 92.7369 361.192 90.7176 360.99 88.2318C360.773 85.5655 361.346 83.3399 362.449 82.5375L362.456 82.5313L367.28 78.7808C367.579 78.5488 368.01 78.6024 368.242 78.9024C368.474 79.2023 368.42 79.6336 368.12 79.8658L363.33 83.5899C363.309 83.6087 363.287 83.6257 363.265 83.6413C362.672 84.0502 362.171 85.837 362.356 88.1204C362.538 90.3616 363.331 92.0528 363.991 92.393C364.048 92.4217 364.099 92.4579 364.144 92.4995L368.753 95.0452C369.084 95.2279 369.205 95.6459 369.022 95.9779C368.897 96.2042 368.663 96.3327 368.422 96.3327Z" fill="#020D3A"/>
<path d="M368.754 95.787C367.174 94.9882 365.867 91.7247 365.551 87.8416C365.217 83.7273 366.27 80.0572 367.859 79.2617L362.912 83.0453L362.877 83.076C361.983 83.6926 361.478 85.7681 361.674 88.176C361.867 90.5573 362.711 92.5054 363.68 93.0033L363.643 93.006L368.754 95.787Z" fill="#20E086"/>
<path d="M368.752 96.4738C368.648 96.4738 368.543 96.4501 368.444 96.4C368.401 96.3786 368.358 96.3553 368.316 96.3307L363.315 93.6098C363.255 93.5772 363.202 93.537 363.156 93.4905C362.031 92.737 361.192 90.7178 360.99 88.2319C360.773 85.5656 361.346 83.34 362.449 82.5376L362.456 82.5314C362.469 82.5202 362.482 82.51 362.495 82.4996L366.818 79.1937C367.047 78.9617 367.293 78.7776 367.552 78.6476C367.869 78.4895 368.254 78.598 368.44 78.8983C368.627 79.1987 368.555 79.5924 368.275 79.8073L367.715 80.2345C366.721 81.3349 365.95 84.3055 366.233 87.7856C366.557 91.7664 367.843 94.4577 368.978 95.128L369.08 95.1835C369.409 95.3627 369.534 95.773 369.36 96.1054C369.238 96.3397 368.999 96.4738 368.752 96.4738ZM364.14 92.4965L366.218 93.6268C365.533 92.1019 365.047 90.1056 364.867 87.8979C364.691 85.729 364.876 83.6846 365.337 82.0539L363.33 83.5905C363.309 83.6092 363.288 83.6262 363.265 83.6418C362.673 84.0507 362.171 85.8375 362.356 88.1209C362.538 90.3621 363.331 92.0533 363.992 92.3936C364.047 92.4214 364.096 92.4563 364.14 92.4965Z" fill="#020D3A"/>
<path d="M378.87 98.2722L379.325 98.364C376.848 97.8832 374.694 92.9346 374.209 86.9672C373.715 80.8815 375.31 75.681 377.761 74.9775L377.425 75.1228L367.888 79.2481C366.283 80.0154 365.216 83.7037 365.552 87.8415C365.877 91.8342 367.299 95.1725 368.935 95.8491L378.87 98.2722Z" fill="#20E086"/>
<path d="M379.325 99.0509C379.282 99.0509 379.238 99.047 379.194 99.0385C379.179 99.0358 379.166 99.0326 379.151 99.0299L378.734 98.9449C378.725 98.9437 378.716 98.9414 378.708 98.9391L368.772 96.5158C368.739 96.5077 368.705 96.4971 368.673 96.4836C366.75 95.6885 365.221 92.2377 364.868 87.8973C364.507 83.4536 365.652 79.5555 367.592 78.629L376.945 74.5821C377.147 74.4682 377.356 74.3796 377.571 74.3175C377.918 74.2183 378.284 74.406 378.406 74.7465C378.527 75.0876 378.363 75.4647 378.031 75.6081L377.547 75.8172C375.843 76.8549 374.433 81.2728 374.892 86.9112C375.401 93.1735 377.592 97.2936 379.428 97.6846L379.46 97.6913C379.83 97.7659 380.07 98.1266 379.996 98.4972C379.932 98.8248 379.645 99.0509 379.325 99.0509ZM369.153 95.1963L376.488 96.985C374.981 94.8558 373.871 91.2768 373.526 87.0234C373.196 82.9744 373.764 79.3095 374.936 76.9472L368.159 79.8789C366.977 80.4439 365.907 83.7631 366.235 87.7859C366.557 91.7571 367.963 94.6498 369.153 95.1963Z" fill="#020D3A"/>
<path d="M424.931 75.3973C423.217 75.5308 422.024 78.9651 422.43 83.0536C423.111 89.9092 425.787 90.2551 426.112 90.2717C426.118 90.272 426.118 90.2803 426.112 90.2817L419.181 92.2856C418.558 89.5083 418.099 86.5179 417.844 83.3912C417.601 80.3942 417.563 77.4916 417.708 74.7559L424.931 75.3973Z" fill="#020D3A"/>
<path d="M418.673 93.1479L418.513 92.4368C417.868 89.5631 417.413 86.5388 417.162 83.4479C416.921 80.4808 416.875 77.5441 417.024 74.7205L417.062 74.0098L424.992 74.714L424.984 76.082C424.746 76.1007 424.503 76.2557 424.263 76.5436C423.466 77.4965 422.802 79.858 423.113 82.986C423.749 89.3903 426.123 89.5853 426.147 89.5866L426.728 89.6161L426.867 90.8071L426.267 90.951L418.673 93.1479ZM418.36 75.5035C418.256 78.0473 418.312 80.6785 418.528 83.3363C418.754 86.109 419.146 88.8258 419.695 91.4233L424.292 90.0946C423.273 89.1538 422.154 87.1955 421.749 83.1222C421.458 80.1965 421.954 77.4235 423.016 75.9173L418.36 75.5035Z" fill="#020D3A"/>
<path d="M342.704 78.1251C343.01 78.2762 343.373 78.1236 343.477 77.7962C343.971 76.2437 345.616 73.7836 347.583 73.1623C350.105 72.3659 353.117 72.9332 353.918 74.8539C354.617 76.5297 354.152 77.6108 356.201 79.6924C356.398 79.8919 356.27 80.2461 356.061 80.432L354.96 81.5216C354.726 81.7301 354.564 82.3823 354.558 82.6979C354.54 83.673 354.58 85.7406 354.267 86.0325C353.657 86.6016 350.393 86.6571 350.393 86.6571L348.494 95.8356C348.422 96.184 348.651 96.5234 348.998 96.5831L352.419 98.628C352.419 98.628 349.968 101.085 342.15 101.172C337.153 101.228 333.524 97.5995 333.524 97.5995C333.524 97.5995 342.794 95.8682 343.198 84.3228C343.207 84.069 343.079 83.8289 342.866 83.6936C342.05 83.1741 339.839 81.6284 340.066 79.8668C340.307 77.9962 341.657 77.6077 342.704 78.1251Z" fill="white"/>
<path d="M342.034 101.859C336.874 101.86 333.195 98.2404 333.04 98.0854C332.86 97.9053 332.794 97.6403 332.87 97.3967C332.945 97.1531 333.148 96.9716 333.398 96.9249C333.753 96.8569 342.134 95.1295 342.514 84.2989C341.225 83.4627 339.126 81.8016 339.386 79.7797C339.524 78.7084 340.011 77.8981 340.756 77.4982C341.392 77.1554 342.157 77.1392 342.871 77.4468C343.457 75.7602 345.187 73.2002 347.377 72.5084C350.057 71.6609 353.561 72.2182 354.55 74.5901C354.79 75.1649 354.902 75.6596 355.011 76.1383C355.227 77.0916 355.413 77.9143 356.689 79.2114C356.888 79.4139 356.993 79.6878 356.983 79.9828C356.971 80.3364 356.796 80.6964 356.515 80.9458L355.442 82.0103C355.358 82.1172 355.247 82.5158 355.243 82.7106C355.24 82.8607 355.239 83.0367 355.237 83.2282C355.22 85.374 355.145 86.1524 354.734 86.536C354.125 87.1036 352.288 87.2787 350.954 87.3292L349.177 95.9209C349.237 95.9369 349.295 95.962 349.349 95.9942L352.769 98.0394C352.951 98.1481 353.072 98.334 353.098 98.5439C353.125 98.7541 353.053 98.9644 352.903 99.1143C352.795 99.2224 350.162 101.77 342.157 101.859C342.117 101.859 342.075 101.859 342.034 101.859ZM334.931 97.8873C336.248 98.8829 338.861 100.486 342.037 100.486C342.072 100.486 342.107 100.486 342.142 100.486C347.216 100.429 349.94 99.3444 351.15 98.6695L348.737 97.2262C348.447 97.1423 348.198 96.9616 348.024 96.7074C347.824 96.4133 347.751 96.0456 347.823 95.697L349.722 86.5181C349.787 86.204 350.061 85.9768 350.382 85.971C351.817 85.9458 353.315 85.76 353.74 85.5611C353.851 85.1281 353.862 83.8046 353.867 83.217C353.868 83.0199 353.87 82.8389 353.872 82.6846C353.879 82.3302 354.047 81.4158 354.505 81.0082L355.534 79.9884C354.143 78.5117 353.905 77.4601 353.674 76.4416C353.574 76.0005 353.479 75.584 353.286 75.1187C352.678 73.6635 350.163 73.0677 347.789 73.8173C346.1 74.3505 344.579 76.5919 344.13 78.0045C344.02 78.3504 343.767 78.6302 343.436 78.7716C343.104 78.9123 342.726 78.9017 342.401 78.7408C342.051 78.5683 341.687 78.5562 341.403 78.7077C341.054 78.8954 340.826 79.3268 340.745 79.9552C340.628 80.8677 341.558 82.0486 343.233 83.1141C343.651 83.3791 343.9 83.851 343.883 84.3459C343.558 93.6479 337.605 96.8951 334.931 97.8873Z" fill="#020D3A"/>
<path d="M329.411 46.3149C329.249 40.1035 324.141 35.3149 318.061 35.7635C312.134 36.2006 307.633 41.3808 307.882 47.4719C308.002 50.4084 309.204 53.0161 311.117 54.8858C312.585 56.3201 313.45 58.289 313.505 60.3874L313.537 61.6329C313.564 62.6629 314.399 63.4607 315.401 63.4152L322.72 63.0814C323.722 63.0356 324.513 62.1636 324.486 61.1337L324.454 59.8933C324.4 57.8244 325.107 55.7786 326.492 54.2498C328.383 52.1622 329.49 49.3554 329.411 46.3149Z" fill="white"/>
<path d="M315.319 64.1039C314.698 64.1039 314.11 63.8724 313.653 63.4456C313.155 62.9812 312.871 62.3439 312.853 61.6513L312.82 60.4058C312.77 58.4893 311.996 56.7035 310.639 55.3775C308.544 53.3307 307.321 50.5334 307.197 47.5009C306.932 41.0022 311.682 35.5461 318.011 35.0795C321.086 34.8552 324.026 35.8669 326.306 37.9335C328.665 40.072 330.011 43.0422 330.096 46.2976C330.177 49.4301 329.078 52.4177 327 54.7113C325.767 56.0718 325.089 57.9542 325.139 59.8759L325.171 61.1161C325.208 62.5158 324.122 63.705 322.751 63.7672L315.432 64.101C315.394 64.1031 315.356 64.1039 315.319 64.1039ZM318.851 36.4217C318.605 36.4217 318.359 36.4306 318.111 36.4489C312.525 36.8609 308.332 41.6908 308.567 47.4446C308.676 50.1252 309.752 52.5936 311.596 54.3945C313.21 55.9718 314.131 58.0937 314.19 60.3698L314.222 61.6154C314.231 61.9363 314.36 62.2294 314.587 62.4408C314.801 62.6405 315.088 62.738 315.37 62.7299L322.688 62.3961C323.319 62.367 323.818 61.8093 323.801 61.1518L323.769 59.9117C323.71 57.6399 324.518 55.4085 325.984 53.7888C327.825 51.758 328.798 49.1104 328.726 46.3333C328.65 43.4569 327.465 40.8353 325.386 38.9516C323.571 37.3055 321.274 36.4217 318.851 36.4217Z" fill="#020D3A"/>
<path d="M319.268 70.7898C316.771 70.9037 314.692 68.9161 314.626 66.3504L314.547 63.3343L323.591 62.9219L323.669 65.938C323.736 68.5037 321.766 70.6761 319.268 70.7898Z" fill="white"/>
<path d="M319.063 71.4823C317.778 71.4823 316.559 71.0023 315.61 70.1175C314.571 69.149 313.978 67.8181 313.941 66.3697L313.845 62.6803L324.258 62.2051L324.355 65.9213C324.431 68.8541 322.164 71.346 319.3 71.4765C319.221 71.48 319.142 71.4823 319.063 71.4823ZM315.25 63.9904L315.311 66.3337C315.339 67.4104 315.777 68.3972 316.544 69.1122C317.279 69.7982 318.242 70.1482 319.237 70.1052C321.361 70.0081 323.042 68.1473 322.985 65.9568L322.924 63.6404L315.25 63.9904Z" fill="#020D3A"/>
<path d="M318.322 28.4447C317.953 28.4447 317.648 28.1498 317.638 27.7771L317.443 20.7053C317.432 20.3263 317.73 20.0108 318.109 20.0004C318.115 20 318.121 20 318.128 20C318.497 20 318.802 20.295 318.812 20.6677L319.007 27.7392C319.018 28.1182 318.719 28.4337 318.341 28.4441C318.335 28.4447 318.329 28.4447 318.322 28.4447Z" fill="#20E086"/>
<path d="M292.358 50.8601C291.988 50.8601 291.683 50.5653 291.673 50.1927C291.663 49.8139 291.961 49.4984 292.339 49.488L300.037 49.2786C300.409 49.258 300.73 49.5664 300.74 49.9456C300.75 50.3244 300.452 50.6399 300.074 50.6503L292.377 50.8597C292.371 50.8601 292.364 50.8601 292.358 50.8601Z" fill="#20E086"/>
<path d="M336.656 49.9498C336.283 49.9498 335.977 49.6495 335.971 49.2742C335.965 48.8954 336.267 48.5835 336.645 48.5773L343.807 48.463C344.175 48.4568 344.497 48.7601 344.503 49.1385C344.509 49.5174 344.208 49.8293 343.829 49.8355L336.667 49.9498C336.663 49.9498 336.66 49.9498 336.656 49.9498Z" fill="#20E086"/>
<path d="M303.794 36.0772C303.623 36.0772 303.451 36.0132 303.318 35.8845L297.81 30.5582C297.538 30.295 297.53 29.8606 297.793 29.5874C298.056 29.3149 298.49 29.3072 298.762 29.5704L304.27 34.8967C304.543 35.1601 304.55 35.5943 304.287 35.8675C304.153 36.0069 303.974 36.0772 303.794 36.0772Z" fill="#20E086"/>
<path d="M332.439 35.9928C332.269 35.9928 332.099 35.9298 331.966 35.8028C331.692 35.5409 331.682 35.1065 331.944 34.8321L337.24 29.2746C337.501 29.0007 337.935 28.9909 338.209 29.2522C338.482 29.5141 338.492 29.9485 338.231 30.2229L332.935 35.7804C332.8 35.9219 332.62 35.9928 332.439 35.9928Z" fill="#20E086"/>
</svg>
