<svg width="25" height="25" viewBox="0 0 25 25" fill="none" xmlns="http://www.w3.org/2000/svg">
<path d="M11.3522 4.3373C11.0812 4.06074 10.7198 3.9084 10.3345 3.9084C9.94927 3.9084 9.58789 4.06074 9.31689 4.33726C8.84239 4.82148 8.76924 5.56235 9.09713 6.12593C7.98265 10.3433 7.46237 10.818 5.33622 12.7556C4.57877 13.4459 3.6361 14.305 2.40315 15.5632C2.14316 15.8286 2 16.182 2 16.5585C2 16.935 2.1432 17.2884 2.40315 17.5538L5.79933 21.0196C6.05932 21.285 6.40563 21.4311 6.77453 21.4311C7.0139 21.4311 7.24366 21.3692 7.44658 21.2535L10.9283 24.8066C11.0514 24.9323 11.2196 25 11.4017 25C11.4395 25 11.4778 24.9971 11.5165 24.9912C11.7023 24.9628 11.8831 24.867 12.0256 24.7216L13.2375 23.4848C13.5685 23.147 13.6052 22.6551 13.3208 22.3649L11.447 20.4526C12.0013 19.4388 11.8873 18.1854 11.1509 17.2904C12.5712 15.7156 13.3773 15.1845 16.9974 14.1882C17.223 14.325 17.4776 14.3935 17.7323 14.3935C18.1009 14.3935 18.4694 14.2502 18.75 13.964C19.3111 13.3913 19.3111 12.4595 18.75 11.8869L11.3522 4.3373ZM6.34061 20.4671L2.94444 17.0013C2.82903 16.8835 2.76549 16.7263 2.76549 16.5585C2.76549 16.3907 2.82903 16.2334 2.94444 16.1157C3.79543 15.2473 4.50733 14.5706 5.11527 14.0082L9.27363 18.2519C8.72249 18.8723 8.05939 19.5988 7.2084 20.4672C7.09299 20.585 6.93893 20.6499 6.77453 20.6499C6.61008 20.6498 6.45602 20.5849 6.34061 20.4671ZM12.6961 22.9323L11.4842 24.1691C11.4629 24.1908 11.4424 24.2035 11.4269 24.2106L8.02394 20.7378C8.50967 20.2359 8.93172 19.7831 9.30555 19.3722L12.7368 22.8738C12.7299 22.8896 12.7174 22.9106 12.6961 22.9323ZM10.8753 19.8692L9.82358 18.7959C10.0693 18.5195 10.293 18.2639 10.5009 18.0263C10.545 17.9759 10.5881 17.9267 10.6307 17.8781C11.0563 18.4558 11.1451 19.2125 10.8753 19.8692ZM9.92994 17.5059C9.88295 17.5596 9.83492 17.6145 9.78621 17.6701L5.68526 13.485C5.73971 13.4353 5.79344 13.3863 5.84607 13.3383C7.97135 11.4016 8.61398 10.8158 9.70664 6.81216L16.3248 13.5662C12.4018 14.6812 11.8278 15.3371 9.92994 17.5059ZM18.2086 13.4115C17.946 13.6795 17.5186 13.6795 17.256 13.4115L9.85817 5.86191C9.59554 5.5939 9.59554 5.15776 9.85817 4.88975C9.98458 4.76069 10.1538 4.68965 10.3345 4.68965C10.5153 4.68965 10.6844 4.76069 10.8108 4.88975L18.2086 12.4393C18.4713 12.7073 18.4713 13.1435 18.2086 13.4115ZM17.1293 5.99116C16.9798 5.83857 16.9798 5.59131 17.1293 5.43872L19.23 3.29497C19.3794 3.14248 19.6218 3.14248 19.7712 3.29497C19.9207 3.44756 19.9207 3.69482 19.7712 3.84741L17.6706 5.99116C17.5959 6.06743 17.4979 6.10557 17.3999 6.10557C17.3019 6.10557 17.2041 6.06743 17.1293 5.99116ZM23 11.2497C23 11.4654 22.8286 11.6403 22.6172 11.6403H19.6465C19.4351 11.6403 19.2637 11.4654 19.2637 11.2497C19.2637 11.034 19.4351 10.8591 19.6465 10.8591H22.6172C22.8286 10.8591 23 11.034 23 11.2497ZM11.5938 3.42236V0.390625C11.5938 0.174902 11.7652 0 11.9766 0C12.1879 0 12.3593 0.174902 12.3593 0.390625V3.42236C12.3593 3.63809 12.1879 3.81299 11.9766 3.81299C11.7652 3.81299 11.5938 3.63809 11.5938 3.42236Z" fill="#020D3A"/>
</svg>
