<svg width="40" height="40" viewBox="0 0 40 40" fill="none" xmlns="http://www.w3.org/2000/svg">
<g clip-path="url(#clip0_2384_616)">
<path d="M40.001 20C40.001 29.9828 32.6869 38.257 23.126 39.757V25.7813H27.7861L28.6729 20H23.126V16.2484C23.126 14.6664 23.901 13.125 26.3854 13.125H28.9072V8.20313C28.9072 8.20313 26.6182 7.8125 24.4299 7.8125C19.8619 7.8125 16.876 10.5813 16.876 15.5938V20H11.7979V25.7813H16.876V39.757C7.31504 38.257 0.000976562 29.9828 0.000976562 20C0.000976562 8.95469 8.95566 0 20.001 0C31.0463 0 40.001 8.95469 40.001 20Z" fill="#1877F2"/>
<path d="M27.7871 25.7812L28.6738 20H23.127V16.2484C23.127 14.6667 23.9018 13.125 26.3862 13.125H28.9082V8.20312C28.9082 8.20312 26.6195 7.8125 24.4313 7.8125C19.8628 7.8125 16.877 10.5813 16.877 15.5938V20H11.7988V25.7812H16.877V39.757C17.8952 39.9167 18.9388 40 20.002 40C21.0651 40 22.1087 39.9167 23.127 39.757V25.7812H27.7871Z" fill="white"/>
</g>
<defs>
<clipPath id="clip0_2384_616">
<rect width="40" height="40" fill="white"/>
</clipPath>
</defs>
</svg>
