<svg width="40" height="40" viewBox="0 0 40 40" fill="none" xmlns="http://www.w3.org/2000/svg">
<g clip-path="url(#clip0_2384_625)">
<path d="M19.998 0C8.95273 0 -0.00195312 8.95469 -0.00195312 20C-0.00195312 31.0453 8.95273 40 19.998 40C31.0434 40 39.998 31.0453 39.998 20C39.998 8.95469 31.0434 0 19.998 0Z" fill="black"/>
<path d="M22.1863 18.1906L30.7481 8.23828H28.7192L21.285 16.8798L15.3474 8.23828H8.49902L17.4779 21.3057L8.49902 31.7423H10.528L18.3787 22.6166L24.6493 31.7423H31.4977L22.1858 18.1906H22.1863ZM11.2591 9.76568H14.3754L28.7201 30.2844H25.6038L11.2591 9.76568Z" fill="white"/>
</g>
<defs>
<clipPath id="clip0_2384_625">
<rect width="40" height="40" rx="20" fill="white"/>
</clipPath>
</defs>
</svg>
