<svg width="40" height="40" viewBox="0 0 40 40" fill="none" xmlns="http://www.w3.org/2000/svg">
<g clip-path="url(#clip0_2384_612)">
<path d="M2.49854 2.72117C-0.644792 5.98617 -0.00145827 9.45451 -0.00145827 19.9912C-0.00145827 28.7412 -1.52813 37.5128 6.46187 39.5778C8.95687 40.2195 31.0635 40.2195 33.5552 39.5745C36.8819 38.7162 39.5885 36.0178 39.9585 31.3128C40.0102 30.6562 40.0102 9.33784 39.9569 8.66784C39.5635 3.65617 36.4785 0.767841 32.4135 0.182841C31.4819 0.047841 31.2952 0.00784099 26.5152 -0.000492342C9.56021 0.00784099 5.84354 -0.747159 2.49854 2.72117Z" fill="url(#paint0_linear_2384_612)"/>
<path d="M20.0003 7.01253C14.6755 7.01253 9.61913 6.53923 7.68778 11.492C6.89002 13.5376 7.00587 16.1942 7.00587 19.9982C7.00587 23.3362 6.89882 26.4734 7.68778 28.5029C9.61473 33.4586 14.7122 32.9838 19.9974 32.9838C25.0963 32.9838 30.3537 33.5143 32.3085 28.5029C33.1077 26.4368 32.9904 23.8197 32.9904 19.9982C32.9904 14.9252 33.2705 11.6503 30.8083 9.19146C28.3152 6.70042 24.9438 7.01253 19.9945 7.01253H20.0003ZM18.8359 9.35264C29.943 9.33506 31.3567 8.10126 30.5766 25.2411C30.2994 31.3031 25.68 30.6378 20.0018 30.6378C9.64846 30.6378 9.35077 30.3418 9.35077 19.9923C9.35077 9.52262 10.172 9.3585 18.8359 9.34971V9.35264ZM26.9368 11.5081C26.0759 11.5081 25.3779 12.2056 25.3779 13.0658C25.3779 13.9259 26.0759 14.6234 26.9368 14.6234C27.7976 14.6234 28.4956 13.9259 28.4956 13.0658C28.4956 12.2056 27.7976 11.5081 26.9368 11.5081ZM20.0003 13.3295C16.3151 13.3295 13.3279 16.3158 13.3279 19.9982C13.3279 23.6805 16.3151 26.6654 20.0003 26.6654C23.6856 26.6654 26.6713 23.6805 26.6713 19.9982C26.6713 16.3158 23.6856 13.3295 20.0003 13.3295ZM20.0003 15.6696C25.7269 15.6696 25.7342 24.3267 20.0003 24.3267C14.2752 24.3267 14.2664 15.6696 20.0003 15.6696Z" fill="white"/>
</g>
<defs>
<linearGradient id="paint0_linear_2384_612" x1="2.57524" y1="37.4447" x2="39.751" y2="5.26947" gradientUnits="userSpaceOnUse">
<stop stop-color="#FFDD55"/>
<stop offset="0.5" stop-color="#FF543E"/>
<stop offset="1" stop-color="#C837AB"/>
</linearGradient>
<clipPath id="clip0_2384_612">
<rect width="40" height="40" rx="20" fill="white"/>
</clipPath>
</defs>
</svg>
