<svg width="40" height="40" viewBox="0 0 40 40" fill="none" xmlns="http://www.w3.org/2000/svg">
<g clip-path="url(#clip0_2384_639)">
<path d="M34.5435 0H5.45259C2.44013 0 -0.00195312 2.44208 -0.00195312 5.45455V34.5455C-0.00195312 37.5579 2.44013 40 5.45259 40H34.5435C37.556 40 39.998 37.5579 39.998 34.5455V5.45455C39.998 2.44208 37.556 0 34.5435 0Z" fill="#0077B5"/>
<path d="M14.408 10.9091C14.408 11.5833 14.2081 12.2425 13.8335 12.8031C13.4589 13.3637 12.9265 13.8007 12.3035 14.0587C11.6806 14.3167 10.9952 14.3842 10.3339 14.2527C9.67256 14.1211 9.06512 13.7965 8.58835 13.3197C8.11158 12.8429 7.78689 12.2355 7.65535 11.5742C7.52381 10.9129 7.59132 10.2274 7.84935 9.60449C8.10737 8.98156 8.54433 8.44913 9.10495 8.07454C9.66557 7.69994 10.3247 7.5 10.9989 7.5C11.9031 7.5 12.7702 7.85917 13.4095 8.4985C14.0489 9.13783 14.408 10.0049 14.408 10.9091Z" fill="white"/>
<path d="M13.6344 16.5915V31.6529C13.635 31.764 13.6136 31.8742 13.5715 31.977C13.5294 32.0798 13.4674 32.1733 13.389 32.2521C13.3107 32.3309 13.2175 32.3934 13.1149 32.436C13.0123 32.4787 12.9023 32.5006 12.7912 32.5006H9.198C9.08689 32.5009 8.97681 32.4793 8.8741 32.4369C8.77139 32.3945 8.67807 32.3322 8.5995 32.2537C8.52093 32.1751 8.45867 32.0818 8.41629 31.9791C8.37391 31.8764 8.35224 31.7663 8.35254 31.6552V16.5915C8.35254 16.3673 8.44162 16.1523 8.60017 15.9937C8.75872 15.8352 8.97377 15.7461 9.198 15.7461H12.7912C13.015 15.7467 13.2295 15.836 13.3875 15.9945C13.5456 16.153 13.6344 16.3677 13.6344 16.5915Z" fill="white"/>
<path d="M32.4169 24.4327V31.7236C32.4172 31.8258 32.3973 31.927 32.3584 32.0214C32.3194 32.1159 32.2622 32.2017 32.1899 32.2739C32.1177 32.3461 32.0319 32.4034 31.9375 32.4423C31.843 32.4813 31.7418 32.5012 31.6397 32.5009H27.776C27.6739 32.5012 27.5726 32.4813 27.4782 32.4423C27.3838 32.4034 27.298 32.3461 27.2257 32.2739C27.1535 32.2017 27.0963 32.1159 27.0573 32.0214C27.0183 31.927 26.9984 31.8258 26.9987 31.7236V24.6577C26.9987 23.6032 27.3078 20.0395 24.2419 20.0395C21.8669 20.0395 21.3828 22.4782 21.2874 23.5736V31.7236C21.2874 31.9278 21.2071 32.1238 21.0638 32.2692C20.9204 32.4147 20.7256 32.4979 20.5215 32.5009H16.7897C16.6877 32.5009 16.5867 32.4808 16.4925 32.4417C16.3984 32.4026 16.3128 32.3453 16.2408 32.2731C16.1688 32.2009 16.1118 32.1152 16.073 32.0209C16.0342 31.9266 16.0144 31.8256 16.0147 31.7236V16.5259C16.0144 16.4239 16.0342 16.3229 16.073 16.2286C16.1118 16.1343 16.1688 16.0486 16.2408 15.9764C16.3128 15.9042 16.3984 15.8469 16.4925 15.8078C16.5867 15.7687 16.6877 15.7486 16.7897 15.7486H20.5215C20.7276 15.7486 20.9253 15.8305 21.0711 15.9763C21.2169 16.122 21.2987 16.3197 21.2987 16.5259V17.8395C22.1806 16.5168 23.4874 15.4963 26.276 15.4963C32.4533 15.4963 32.4169 21.2645 32.4169 24.4327Z" fill="white"/>
</g>
<defs>
<clipPath id="clip0_2384_639">
<rect width="40" height="40" rx="20" fill="white"/>
</clipPath>
</defs>
</svg>
