<svg width="30" height="30" viewBox="0 0 30 30" fill="none" xmlns="http://www.w3.org/2000/svg">
<g opacity="0.7">
<path fill-rule="evenodd" clip-rule="evenodd" d="M20 4.05322H10C6.54822 4.05322 3.75 6.85145 3.75 10.3032V20.3032C3.75 23.755 6.54822 26.5532 10 26.5532H20C23.4517 26.5532 26.25 23.755 26.25 20.3032V10.3032C26.25 6.85145 23.4517 4.05322 20 4.05322ZM24.0625 20.3032C24.0556 22.544 22.2407 24.3588 20 24.3657H10C7.75919 24.3588 5.94436 22.544 5.9375 20.3032V10.3032C5.94436 8.06241 7.75919 6.24759 10 6.24072H20C22.2407 6.24759 24.0556 8.06241 24.0625 10.3032V20.3032ZM20.9375 10.6157C21.6279 10.6157 22.1875 10.0561 22.1875 9.36572C22.1875 8.67537 21.6279 8.11572 20.9375 8.11572C20.2471 8.11572 19.6875 8.67537 19.6875 9.36572C19.6875 10.0561 20.2471 10.6157 20.9375 10.6157ZM15 9.67822C11.8934 9.67822 9.375 12.1966 9.375 15.3032C9.375 18.4098 11.8934 20.9282 15 20.9282C18.1066 20.9282 20.625 18.4098 20.625 15.3032C20.6284 13.8103 20.0368 12.3777 18.9811 11.3221C17.9255 10.2665 16.4929 9.6749 15 9.67822ZM11.5625 15.3032C11.5625 17.2017 13.1015 18.7407 15 18.7407C16.8985 18.7407 18.4375 17.2017 18.4375 15.3032C18.4375 13.4047 16.8985 11.8657 15 11.8657C13.1015 11.8657 11.5625 13.4047 11.5625 15.3032Z" fill="white"/>
</g>
</svg>
