<svg width="200" height="200" viewBox="0 0 200 200" fill="none" xmlns="http://www.w3.org/2000/svg">
<circle cx="100" cy="100" r="100" fill="#FFFFF6"/>
<path d="M47.3298 47.8386C37.8374 57.6966 39.7802 68.1684 39.7802 99.9815C39.7802 126.4 35.1698 152.884 59.2986 159.119C66.8332 161.056 133.592 161.057 141.117 159.109C151.163 156.518 159.337 148.37 160.454 134.165C160.61 132.182 160.61 67.8162 160.449 65.7933C159.261 50.6616 149.945 41.941 137.669 40.1747C134.856 39.7671 134.292 39.6463 119.857 39.6212C68.6552 39.6463 57.4313 37.3668 47.3298 47.8386Z" fill="url(#paint0_linear_186_5358)"/>
<path d="M100.167 55.4166C81.8922 55.4166 64.538 53.7912 57.9094 70.7998C55.1714 77.8247 55.569 86.9479 55.569 100.011C55.569 111.475 55.2016 122.248 57.9094 129.218C64.5229 146.236 82.018 144.606 100.157 144.606C117.657 144.606 135.701 146.428 142.41 129.218C145.153 122.122 144.751 113.135 144.751 100.011C144.751 82.5901 145.712 71.3433 137.261 62.8994C128.705 54.3447 117.134 55.4166 100.147 55.4166H100.167ZM96.1711 63.4529C134.292 63.3925 139.144 59.1555 136.466 118.016C135.515 138.834 119.661 136.55 100.172 136.55C64.6386 136.55 63.6169 135.533 63.6169 99.9912C63.6169 64.0366 66.4355 63.473 96.1711 63.4428V63.4529ZM123.974 70.8552C121.02 70.8552 118.624 73.2505 118.624 76.2043C118.624 79.1582 121.02 81.5535 123.974 81.5535C126.929 81.5535 129.324 79.1582 129.324 76.2043C129.324 73.2505 126.929 70.8552 123.974 70.8552ZM100.167 77.1101C87.5192 77.1101 77.2667 87.3656 77.2667 100.011C77.2667 112.657 87.5192 122.908 100.167 122.908C112.816 122.908 123.063 112.657 123.063 100.011C123.063 87.3656 112.816 77.1101 100.167 77.1101ZM100.167 85.1464C119.822 85.1464 119.847 114.876 100.167 114.876C80.5181 114.876 80.4879 85.1464 100.167 85.1464Z" fill="white"/>
<defs>
<linearGradient id="paint0_linear_186_5358" x1="47.5615" y1="152.678" x2="159.809" y2="55.5108" gradientUnits="userSpaceOnUse">
<stop stop-color="#FFDD55"/>
<stop offset="0.5" stop-color="#FF543E"/>
<stop offset="1" stop-color="#C837AB"/>
</linearGradient>
</defs>
</svg>
