<svg width="30" height="30" viewBox="0 0 30 30" fill="none" xmlns="http://www.w3.org/2000/svg">
<path d="M5.43505 5.52739C3.71119 7.31763 4.064 9.21936 4.064 14.9967C4.064 19.7945 3.22675 24.6041 7.60862 25.7364C8.97693 26.0882 21.1007 26.0882 22.4671 25.7345C24.2916 25.2639 25.7759 23.7844 25.9789 21.2046C26.0072 20.8445 26.0072 9.15539 25.9779 8.78802C25.7622 6.04007 24.0704 4.45636 21.841 4.13559C21.3301 4.06157 21.2277 4.03964 18.6063 4.03507C9.30781 4.03964 7.26952 3.62566 5.43505 5.52739Z" fill="url(#paint0_linear_1293_12048)"/>
<path d="M15.0002 7.00771C11.7234 7.00771 8.61177 6.71645 7.42325 9.76431C6.93232 11.0231 7.00361 12.658 7.00361 14.9989C7.00361 17.053 6.93773 18.9836 7.42325 20.2325C8.60907 23.2822 11.746 22.99 14.9984 22.99C18.1362 22.99 21.3715 23.3165 22.5744 20.2325C23.0663 18.9611 22.9941 17.3506 22.9941 14.9989C22.9941 11.8771 23.1664 9.8617 21.6512 8.34859C20.1171 6.81564 18.0423 7.00771 14.9966 7.00771H15.0002ZM14.2837 8.44778C21.1188 8.43696 21.9888 7.6777 21.5086 18.2253C21.3381 21.9557 18.4954 21.5464 15.0011 21.5464C8.62982 21.5464 8.44662 21.3642 8.44662 14.9953C8.44662 8.55238 8.952 8.45139 14.2837 8.44598V8.44778ZM19.2688 9.77423C18.739 9.77423 18.3095 10.2035 18.3095 10.7328C18.3095 11.2621 18.739 11.6913 19.2688 11.6913C19.7985 11.6913 20.2281 11.2621 20.2281 10.7328C20.2281 10.2035 19.7985 9.77423 19.2688 9.77423ZM15.0002 10.8951C12.7323 10.8951 10.8941 12.7328 10.8941 14.9989C10.8941 17.2649 12.7323 19.1018 15.0002 19.1018C17.268 19.1018 19.1054 17.2649 19.1054 14.9989C19.1054 12.7328 17.268 10.8951 15.0002 10.8951ZM15.0002 12.3352C18.5243 12.3352 18.5288 17.6626 15.0002 17.6626C11.477 17.6626 11.4716 12.3352 15.0002 12.3352Z" fill="white"/>
<defs>
<linearGradient id="paint0_linear_1293_12048" x1="5.47712" y1="24.5667" x2="25.8616" y2="6.92069" gradientUnits="userSpaceOnUse">
<stop stop-color="#FFDD55"/>
<stop offset="0.5" stop-color="#FF543E"/>
<stop offset="1" stop-color="#C837AB"/>
</linearGradient>
</defs>
</svg>
