<svg width="65" height="66" viewBox="0 0 65 66" fill="none" xmlns="http://www.w3.org/2000/svg">
<g filter="url(#filter0_d_1293_15395)">
<path d="M7.99942 8.26658C4.22742 12.1846 4.99942 16.3466 4.99942 28.9906C4.99942 39.4906 3.16742 50.0166 12.7554 52.4946C15.7494 53.2646 42.2774 53.2646 45.2674 52.4906C49.2594 51.4606 52.5074 48.2226 52.9514 42.5766C53.0134 41.7886 53.0134 16.2066 52.9494 15.4026C52.4774 9.38858 48.7754 5.92258 43.8974 5.22058C42.7794 5.05858 42.5554 5.01058 36.8194 5.00058C16.4734 5.01058 12.0134 4.10458 7.99942 8.26658Z" fill="url(#paint0_linear_1293_15395)"/>
<path d="M28.9956 11.2788C21.7336 11.2788 14.8376 10.6328 12.2036 17.3928C11.1156 20.1848 11.2736 23.8108 11.2736 29.0028C11.2736 33.5588 11.1276 37.8408 12.2036 40.6108C14.8316 47.3748 21.7836 46.7268 28.9916 46.7268C35.9456 46.7268 43.1156 47.4508 45.7816 40.6108C46.8716 37.7908 46.7116 34.2188 46.7116 29.0028C46.7116 22.0788 47.0936 17.6088 43.7356 14.2528C40.3356 10.8528 35.7376 11.2788 28.9876 11.2788H28.9956ZM27.4076 14.4728C42.5556 14.4488 44.4836 12.7648 43.4196 36.1588C43.0416 44.4328 36.7416 43.5248 28.9976 43.5248C14.8776 43.5248 14.4716 43.1208 14.4716 28.9948C14.4716 14.7048 15.5916 14.4808 27.4076 14.4688V14.4728ZM38.4556 17.4148C37.2816 17.4148 36.3296 18.3668 36.3296 19.5408C36.3296 20.7148 37.2816 21.6668 38.4556 21.6668C39.6296 21.6668 40.5816 20.7148 40.5816 19.5408C40.5816 18.3668 39.6296 17.4148 38.4556 17.4148ZM28.9956 19.9008C23.9696 19.9008 19.8956 23.9768 19.8956 29.0028C19.8956 34.0288 23.9696 38.1028 28.9956 38.1028C34.0216 38.1028 38.0936 34.0288 38.0936 29.0028C38.0936 23.9768 34.0216 19.9008 28.9956 19.9008ZM28.9956 23.0948C36.8056 23.0948 36.8156 34.9108 28.9956 34.9108C21.1876 34.9108 21.1756 23.0948 28.9956 23.0948Z" fill="white"/>
</g>
<defs>
<filter id="filter0_d_1293_15395" x="0.859375" y="0.923828" width="64.1406" height="64.1479" filterUnits="userSpaceOnUse" color-interpolation-filters="sRGB">
<feFlood flood-opacity="0" result="BackgroundImageFix"/>
<feColorMatrix in="SourceAlpha" type="matrix" values="0 0 0 0 0 0 0 0 0 0 0 0 0 0 0 0 0 0 127 0" result="hardAlpha"/>
<feOffset dx="4" dy="4"/>
<feGaussianBlur stdDeviation="4"/>
<feComposite in2="hardAlpha" operator="out"/>
<feColorMatrix type="matrix" values="0 0 0 0 0 0 0 0 0 0 0 0 0 0 0 0 0 0 0.25 0"/>
<feBlend mode="normal" in2="BackgroundImageFix" result="effect1_dropShadow_1293_15395"/>
<feBlend mode="normal" in="SourceGraphic" in2="effect1_dropShadow_1293_15395" result="shape"/>
</filter>
<linearGradient id="paint0_linear_1293_15395" x1="8.09146" y1="49.9348" x2="52.7024" y2="11.3245" gradientUnits="userSpaceOnUse">
<stop stop-color="#FFDD55"/>
<stop offset="0.5" stop-color="#FF543E"/>
<stop offset="1" stop-color="#C837AB"/>
</linearGradient>
</defs>
</svg>
