<svg width="620" height="640" viewBox="0 0 620 640" fill="none" xmlns="http://www.w3.org/2000/svg">
<path d="M473.569 267.483L464.411 236.629L381.166 229.164L375.703 270.813C375.703 270.813 461.014 288.832 473.566 267.483H473.569Z" fill="white"/>
<path d="M437.307 278.639C409.968 278.639 377.724 271.933 375.561 271.478C375.214 271.406 374.982 271.077 375.027 270.724L380.49 229.075C380.538 228.713 380.87 228.456 381.223 228.487L464.468 235.952C464.745 235.976 464.981 236.169 465.059 236.435L474.217 267.288C474.272 267.469 474.248 267.662 474.151 267.825C469.309 276.06 454.251 278.636 437.307 278.636V278.639ZM376.457 270.274C384.14 271.831 460.718 286.762 472.83 267.388L463.889 237.264L381.754 229.898L376.457 270.274Z" fill="#020D3A"/>
<path d="M313.589 153.332L325.453 162.254C324.017 167.973 323.067 173.734 322.621 179.486L308.572 184.18C301.622 186.502 297.209 193.331 297.945 200.622C298.681 207.912 304.37 213.721 311.646 214.605L326.391 216.4C327.999 221.998 330.065 227.452 332.575 232.709L322.729 243.827C317.869 249.314 317.462 257.434 321.746 263.379C326.029 269.324 333.86 271.511 340.605 268.639L354.234 262.839C358.385 266.851 362.916 270.53 367.781 273.86L364.816 288.405C363.353 295.584 367.06 302.823 373.742 305.83C380.424 308.838 388.3 306.814 392.704 300.959L401.627 289.096C407.346 290.532 413.108 291.482 418.861 291.928L423.554 305.975C425.877 312.925 432.707 317.338 439.998 316.602C447.289 315.866 453.098 310.177 453.982 302.902L455.777 288.161C461.376 286.553 466.833 284.484 472.088 281.974L483.207 291.82C488.694 296.676 496.814 297.086 502.76 292.803C508.706 288.52 510.893 280.689 508.021 273.945L502.22 260.317C506.232 256.17 509.912 251.636 513.242 246.771L527.788 249.736C534.971 251.199 542.207 247.492 545.215 240.811C548.222 234.13 546.198 226.254 540.343 221.85L528.479 212.928C529.915 207.209 530.865 201.448 531.312 195.696L545.36 191.003C552.31 188.68 556.723 181.851 555.987 174.561C555.251 167.27 549.562 161.461 542.286 160.577L527.544 158.782C525.936 153.184 523.867 147.731 521.357 142.473L531.203 131.355C536.06 125.868 536.47 117.748 532.186 111.803C527.903 105.858 520.072 103.671 513.327 106.543L499.698 112.343C495.547 108.335 491.017 104.652 486.151 101.322L489.116 86.7771C490.579 79.5982 486.872 72.3621 480.19 69.3518C473.508 66.3446 465.632 68.3685 461.228 74.2232L452.305 86.0863C446.586 84.6506 440.824 83.7004 435.072 83.254L430.378 69.2071C428.055 62.2575 421.226 57.8446 413.935 58.5806C406.644 59.3166 400.834 65.0053 399.95 72.2807L398.155 87.0244C392.556 88.6321 387.102 90.6983 381.844 93.2078L370.725 83.3626C365.238 78.5063 357.118 78.0961 351.172 82.3793C345.227 86.6624 343.04 94.4928 345.911 101.237L351.712 114.865C347.7 119.015 344.02 123.546 340.69 128.411L326.144 125.446C318.964 123.983 311.725 127.69 308.717 134.371C305.71 141.052 307.734 148.928 313.589 153.332ZM351.097 153.447C369.956 111.547 419.217 92.867 461.119 111.728C503.022 130.586 521.704 179.842 502.841 221.742C483.982 263.641 434.722 282.318 392.819 263.46C350.916 244.602 332.237 195.346 351.097 153.447Z" fill="white"/>
<path d="M438.384 317.367C431.391 317.367 425.174 312.957 422.915 306.194L418.363 292.573C412.906 292.123 407.374 291.215 401.905 289.867L393.25 301.371C388.623 307.524 380.487 309.615 373.464 306.454C366.442 303.293 362.614 295.818 364.152 288.274L367.027 274.17C362.394 270.97 358.044 267.432 354.089 263.643L340.874 269.269C333.791 272.285 325.7 270.026 321.2 263.779C316.699 257.532 317.121 249.144 322.225 243.38L331.773 232.596C329.405 227.583 327.42 222.347 325.866 217.02L311.568 215.28C303.924 214.348 298.048 208.348 297.272 200.69C296.5 193.028 301.058 185.973 308.361 183.536L321.984 178.985C322.43 173.528 323.341 167.993 324.69 162.525L313.185 153.874C307.031 149.247 304.94 141.112 308.099 134.09C311.26 127.068 318.732 123.24 326.28 124.778L340.385 127.653C343.583 123.02 347.121 118.67 350.913 114.716L345.287 101.502C342.27 94.4193 344.53 86.3266 350.777 81.8263C357.021 77.3259 365.413 77.7482 371.178 82.8518L381.962 92.3984C386.979 90.0306 392.212 88.0459 397.537 86.4925L399.277 72.1952C400.209 64.5519 406.209 58.6761 413.868 57.9009C421.527 57.1257 428.583 61.6864 431.023 68.9889L435.575 82.6105C441.038 83.0599 446.574 83.9709 452.037 85.3161L460.688 73.8119C465.315 67.6587 473.454 65.5684 480.471 68.7295C487.493 71.8905 491.321 79.365 489.783 86.9087L486.908 101.013C491.538 104.21 495.885 107.748 499.846 111.54L513.061 105.914C520.144 102.901 528.238 105.157 532.738 111.404C537.239 117.651 536.817 126.039 531.713 131.803L522.165 142.587C524.533 147.603 526.518 152.839 528.072 158.16L542.367 159.9C550.008 160.832 555.887 166.832 556.663 174.49C557.435 182.152 552.877 189.204 545.574 191.644L531.951 196.196C531.502 201.655 530.594 207.187 529.245 212.656L540.75 221.306C546.904 225.933 548.995 234.068 545.836 241.09C542.675 248.109 535.2 251.94 527.656 250.402L513.55 247.527C510.35 252.163 506.808 256.513 503.022 260.464L508.648 273.678C511.665 280.761 509.405 288.854 503.158 293.351C496.911 297.851 488.519 297.429 482.757 292.325L471.973 282.779C466.96 285.146 461.723 287.131 456.399 288.685L454.658 302.982C453.726 310.625 447.726 316.501 440.067 317.276C439.5 317.334 438.939 317.361 438.381 317.361L438.384 317.367ZM401.63 288.422C401.684 288.422 401.739 288.428 401.796 288.443C407.482 289.87 413.244 290.817 418.918 291.255C419.189 291.276 419.425 291.457 419.509 291.716L424.203 305.763C426.441 312.459 432.903 316.64 439.934 315.931C446.96 315.222 452.462 309.832 453.316 302.825L455.11 288.084C455.144 287.813 455.334 287.59 455.596 287.514C461.144 285.922 466.598 283.856 471.801 281.37C472.045 281.252 472.341 281.295 472.543 281.476L483.662 291.321C488.947 296.002 496.642 296.385 502.368 292.262C508.096 288.136 510.166 280.719 507.402 274.221L501.602 260.594C501.496 260.343 501.547 260.051 501.737 259.855C505.692 255.765 509.375 251.237 512.687 246.396C512.841 246.17 513.116 246.058 513.384 246.115L527.933 249.081C534.85 250.492 541.704 246.978 544.603 240.541C547.501 234.105 545.583 226.645 539.942 222.401L528.078 213.479C527.858 213.316 527.761 213.036 527.827 212.77C529.254 207.087 530.199 201.326 530.639 195.65C530.66 195.378 530.841 195.146 531.1 195.058L545.149 190.365C551.845 188.127 556.026 181.66 555.317 174.635C554.608 167.61 549.218 162.108 542.21 161.255L527.469 159.46C527.197 159.427 526.974 159.237 526.898 158.974C525.306 153.43 523.239 147.98 520.754 142.771C520.636 142.523 520.678 142.231 520.859 142.029L530.705 130.908C535.384 125.623 535.77 117.931 531.646 112.203C527.52 106.476 520.099 104.406 513.604 107.169L499.976 112.97C499.725 113.075 499.433 113.024 499.237 112.834C495.14 108.877 490.612 105.191 485.78 101.885C485.554 101.731 485.442 101.456 485.499 101.188L488.465 86.6433C489.873 79.7269 486.362 72.8708 479.925 69.9752C473.484 67.0765 466.027 68.9949 461.783 74.6354L452.86 86.4985C452.697 86.7157 452.42 86.8152 452.151 86.7489C446.471 85.3222 440.709 84.3781 435.029 83.9347C434.758 83.9136 434.523 83.7326 434.438 83.4732L429.744 69.4262C427.506 62.73 421.036 58.5524 414.013 59.2583C406.99 59.9671 401.488 65.3572 400.635 72.3641L398.84 87.1078C398.807 87.3793 398.616 87.6025 398.354 87.6779C392.81 89.2705 387.356 91.3367 382.149 93.8221C381.905 93.9398 381.609 93.8975 381.407 93.7166L370.288 83.8713C365.003 79.193 357.308 78.8039 351.582 82.9302C345.854 87.0565 343.782 94.4736 346.548 100.971L352.349 114.598C352.454 114.849 352.403 115.141 352.213 115.337C348.255 119.431 344.572 123.958 341.263 128.796C341.109 129.022 340.837 129.134 340.566 129.077L326.02 126.112C319.103 124.7 312.25 128.214 309.351 134.651C306.452 141.088 308.37 148.547 314.011 152.791L325.875 161.713C326.096 161.876 326.192 162.157 326.126 162.422C324.699 168.108 323.752 173.869 323.314 179.543C323.293 179.814 323.112 180.049 322.853 180.134L308.805 184.827C302.108 187.065 297.927 193.532 298.636 200.557C299.345 207.582 304.735 213.084 311.743 213.938L326.488 215.732C326.759 215.765 326.982 215.955 327.058 216.218C328.651 221.765 330.717 227.218 333.203 232.421C333.32 232.669 333.278 232.961 333.097 233.163L323.251 244.282C318.572 249.566 318.183 257.258 322.31 262.986C326.436 268.714 333.854 270.783 340.352 268.02L353.981 262.22C354.231 262.114 354.524 262.165 354.72 262.355C358.813 266.31 363.341 269.996 368.18 273.304C368.406 273.458 368.517 273.733 368.46 274.001L365.495 288.546C364.086 295.462 367.597 302.318 374.035 305.214C380.472 308.113 387.932 306.194 392.176 300.554L401.099 288.691C401.229 288.519 401.431 288.419 401.642 288.419L401.63 288.422ZM426.845 271.468C415.349 271.468 403.684 269.097 392.541 264.081C350.364 245.099 331.495 195.342 350.478 153.168C359.676 132.739 376.276 117.111 397.229 109.166C418.179 101.221 440.969 101.912 461.4 111.106C503.577 130.087 522.446 179.844 503.463 222.018C489.493 253.05 458.857 271.462 426.848 271.465L426.845 271.468ZM427.002 105.031C417.123 105.031 407.223 106.828 397.706 110.436C377.093 118.251 360.762 133.625 351.715 153.723C333.04 195.215 351.601 244.164 393.096 262.838C434.595 281.512 483.545 262.953 502.22 221.46C520.895 179.968 502.335 131.019 460.839 112.345C450.019 107.474 438.522 105.031 427.002 105.031Z" fill="#020D3A"/>
<path d="M319.299 209.582C319.299 209.582 309.987 209.926 298.476 209.88C296.054 209.871 289.559 202.098 285.387 203.416C282.392 204.363 288.057 209.461 287.279 209.458C279.9 209.428 273.532 209.401 271.224 209.389C269.418 209.38 268.811 211.229 269.559 212.876C270.63 215.228 272.965 218.794 276.826 220.036C283.728 222.259 297.049 221.258 301.17 220.459C310.174 218.709 317.317 218.576 317.317 218.576L319.302 209.582H319.299Z" fill="white"/>
<path d="M288.738 222.074C284.37 222.074 279.846 221.721 276.615 220.68C272.114 219.229 269.746 214.934 268.938 213.154C268.413 211.999 268.443 210.726 269.019 209.836C269.496 209.103 270.301 208.699 271.224 208.705C273.411 208.717 279.242 208.744 286.126 208.772C286.096 208.732 286.066 208.696 286.039 208.657C284.953 207.26 283.465 205.345 283.906 203.933C284.026 203.544 284.346 203.026 285.182 202.763C288.06 201.855 291.673 204.588 294.575 206.784C296.069 207.912 297.758 209.194 298.476 209.197C309.842 209.239 319.178 208.901 319.272 208.898C319.483 208.889 319.682 208.98 319.818 209.143C319.954 209.303 320.005 209.52 319.96 209.725L317.975 218.719C317.908 219.027 317.637 219.247 317.323 219.253C317.251 219.253 310.129 219.407 301.293 221.12C299.031 221.561 293.999 222.071 288.735 222.071L288.738 222.074ZM271.206 210.066C270.733 210.066 270.38 210.238 270.159 210.575C269.837 211.073 269.843 211.863 270.174 212.59C270.911 214.207 273.049 218.101 277.031 219.386C283.821 221.573 297.124 220.547 301.037 219.787C308.596 218.318 314.928 217.98 316.762 217.911L318.442 210.289C315.857 210.37 307.854 210.596 298.467 210.557C297.296 210.551 295.731 209.369 293.752 207.87C291.097 205.861 287.794 203.363 285.586 204.06C285.251 204.166 285.212 204.295 285.197 204.341C284.968 205.074 286.467 207.001 287.106 207.825C287.897 208.844 288.195 209.224 287.948 209.725C287.824 209.978 287.565 210.135 287.272 210.135H287.269C279.891 210.105 273.52 210.078 271.215 210.066H271.203H271.206Z" fill="#020D3A"/>
<path d="M382.371 129.7C394.344 127.555 420.048 125.911 438.029 127.414C443.538 127.872 448.759 130.035 452.985 133.6C465.371 144.061 493.51 168.927 495.498 199.609C495.612 201.358 494.831 203.05 493.455 204.142L493.217 202.809C486.445 208.199 477.806 209.222 471.272 203.548L465.447 199.265C465.447 199.265 475.453 235.117 474.771 240.878C474.089 246.639 456.548 256.442 434.609 248.401C417.034 241.958 393.276 241.306 379.264 244.932C379.035 244.992 378.431 251.317 378.208 251.381C377.204 251.658 376.1 251.459 375.059 251.061C372.528 250.09 370.86 247.653 370.799 244.941L369.888 204.166L340.154 198.429C340.154 198.429 354.51 134.686 382.374 129.697L382.371 129.7Z" fill="#020D3A"/>
<path d="M511.104 140.775C510.769 142.452 502.956 184.873 499.409 193.416C495.783 202.151 492.45 213.028 476.655 207.013C453.066 198.031 494.8 141.671 497.255 137.891C497.34 137.765 511.113 140.736 511.104 140.778V140.775Z" fill="#020D3A"/>
<path d="M300.118 220.983L300.033 210.975C300.015 208.939 301.686 207.292 303.723 207.343C311.837 207.551 330.983 206.887 338.377 196.677C344.591 188.096 346.473 177.792 346.473 177.792C346.473 177.792 377.812 173.078 383.215 198.487C390.88 234.52 319.146 226.686 303.231 224.521C301.457 224.279 300.133 222.771 300.118 220.983Z" fill="#020D3A"/>
<path d="M500.011 139.152L499.061 126.305C499.061 126.305 498.461 116.475 500.388 114.641C501.806 113.29 503.815 116.472 504.612 120.945C504.744 121.687 505.794 121.69 505.921 120.951C506.415 118.034 506.515 115.917 506.352 112.925C506.18 109.7 505.568 104.021 508.596 103.897C511.625 103.77 518.635 111.652 516.97 121.186C515.305 130.721 508.361 140.967 508.361 140.967L500.014 139.155L500.011 139.152Z" fill="white"/>
<path d="M508.356 141.645C508.308 141.645 508.259 141.639 508.211 141.63L499.864 139.817C499.569 139.754 499.351 139.503 499.33 139.205L498.38 126.358C498.274 124.654 497.864 116.106 499.916 114.151C500.404 113.684 501.011 113.536 501.62 113.738C503.376 114.314 504.721 117.713 505.276 120.829C505.719 118.036 505.831 115.976 505.671 112.963L505.623 112.145C505.448 109.283 505.231 105.721 506.715 104.077C507.2 103.54 507.822 103.25 508.567 103.22C509.885 103.163 511.701 104.27 513.372 106.176C516.157 109.352 518.739 114.996 517.638 121.306C515.967 130.874 509.206 140.93 508.92 141.352C508.793 141.542 508.579 141.651 508.359 141.651L508.356 141.645ZM500.649 138.595L508.045 140.203C509.297 138.27 514.856 129.326 516.298 121.068C517.318 115.228 514.926 110.007 512.35 107.066C510.802 105.301 509.339 104.541 508.621 104.574C508.247 104.59 507.961 104.719 507.722 104.985C506.621 106.203 506.835 109.726 506.977 112.061L507.026 112.887C507.191 116.012 507.077 118.151 506.585 121.065C506.474 121.719 505.934 122.181 505.273 122.184H505.267C504.6 122.184 504.057 121.725 503.94 121.065C503.276 117.342 501.912 115.261 501.198 115.026C501.107 114.996 501.014 114.981 500.854 115.132C499.617 116.308 499.514 122.585 499.738 126.262L500.652 138.592L500.649 138.595Z" fill="#020D3A"/>
<path d="M392.707 103.148C390.762 102.264 389.754 103.736 386.852 103.338C383.772 102.916 380.382 100.632 379.109 97.2964C377.573 93.2666 379.787 89.4238 381.181 87.0017C382.569 84.5917 384.336 81.9102 387.401 80.7519C391.398 79.2408 393.069 81.5603 397.645 80.1366C401.365 78.9784 401.093 77.1867 404.405 76.2456C407.166 75.4613 415.12 75.9077 416.903 80.1366C418.031 82.8211 415.597 84.4529 416.81 88.4284C417.54 90.8143 418.686 91.1069 419.521 92.9499C421.597 97.5226 418.997 105.555 414.046 108.246C407.328 111.898 396.065 104.671 392.707 103.148Z" fill="#020D3A"/>
<path d="M398.887 110.82L397.325 123.649C397.026 126.092 395.267 128.104 392.884 128.725L386.287 130.444L387.216 131.153C398.688 139.888 414.573 139.901 426.06 131.189L429.478 128.598L421.282 126.768C418.926 126.243 417.116 124.354 416.688 121.981L413.282 103.083L398.887 110.826V110.82Z" fill="white"/>
<path d="M406.659 138.365C399.652 138.365 392.645 136.139 386.802 131.69L385.872 130.981C385.664 130.824 385.568 130.562 385.619 130.309C385.67 130.052 385.863 129.85 386.114 129.784L392.711 128.064C394.838 127.509 396.382 125.745 396.648 123.564L398.21 110.736C398.237 110.516 398.367 110.326 398.563 110.22L412.958 102.477C413.148 102.375 413.377 102.368 413.576 102.465C413.773 102.559 413.911 102.743 413.95 102.957L417.356 121.854C417.736 123.965 419.335 125.63 421.428 126.098L429.624 127.929C429.884 127.986 430.083 128.188 430.14 128.447C430.195 128.707 430.098 128.972 429.887 129.132L426.469 131.723C420.635 136.148 413.646 138.362 406.659 138.362V138.365ZM387.806 130.749C398.979 139.128 414.505 139.095 425.646 130.646L427.896 128.939L421.13 127.428C418.502 126.84 416.493 124.749 416.017 122.098L412.777 104.121L399.516 111.252L397.996 123.73C397.661 126.469 395.721 128.686 393.055 129.383L387.809 130.749H387.806Z" fill="#020D3A"/>
<path d="M411.641 105.683C411.641 105.683 416.703 103.774 414.802 99.59C412.899 95.4064 409.804 98.4951 409.804 98.4951C409.804 98.4951 406.926 88.1883 400.881 92.2543C394.836 96.3203 389.107 97.7983 389.107 97.7983C389.107 97.7983 391.237 108.171 395.059 115.076C397.364 119.238 400.287 122.14 403.732 120.74C413.158 116.91 411.638 105.686 411.638 105.686L411.641 105.683Z" fill="white"/>
<path d="M401.962 121.782C399.334 121.782 396.821 119.646 394.472 115.399C390.641 108.486 388.535 98.3573 388.447 97.929C388.375 97.5761 388.592 97.2262 388.942 97.1357C389 97.1206 394.637 95.6336 400.505 91.6882C402.094 90.6174 403.648 90.352 405.117 90.8949C407.895 91.9175 409.521 95.6125 410.155 97.374C410.782 96.9788 411.708 96.5807 412.71 96.7647C413.835 96.9698 414.746 97.8264 415.422 99.3104C416.01 100.607 416.07 101.847 415.593 102.996C414.891 104.698 413.198 105.699 412.363 106.109C412.523 108.42 412.613 117.867 403.995 121.369C403.31 121.646 402.634 121.785 401.965 121.785L401.962 121.782ZM389.911 98.2728C390.432 100.592 392.456 108.966 395.657 114.742C398.221 119.369 400.849 121.173 403.479 120.105C412.296 116.525 411.023 106.209 410.966 105.771C410.924 105.458 411.105 105.159 411.397 105.044C411.419 105.035 413.636 104.176 414.336 102.469C414.664 101.672 414.613 100.822 414.182 99.8685C413.702 98.8128 413.123 98.2185 412.462 98.0979C411.382 97.9048 410.293 98.9636 410.281 98.9726C410.109 99.1445 409.862 99.2109 409.63 99.1476C409.397 99.0872 409.213 98.9063 409.147 98.674C409.132 98.6197 407.597 93.2537 404.64 92.1648C403.588 91.7787 402.484 91.9899 401.259 92.8133C396.281 96.1614 391.576 97.7661 389.907 98.2698L389.911 98.2728Z" fill="#020D3A"/>
<path d="M369.888 204.847C369.864 204.847 369.84 204.847 369.816 204.844C369.442 204.804 369.174 204.47 369.213 204.096C371.611 181.425 374.999 162.265 375.035 162.075C375.101 161.707 375.454 161.46 375.822 161.526C376.193 161.593 376.437 161.946 376.371 162.314C376.338 162.504 372.956 181.621 370.564 204.24C370.528 204.59 370.232 204.85 369.888 204.85V204.847Z" fill="white"/>
<path d="M125.542 485.998L131.538 489.189C131.294 491.877 131.276 494.546 131.481 497.18L125.463 500.298C122.486 501.843 120.974 505.242 121.825 508.485C122.676 511.727 125.659 513.95 129.011 513.836L135.804 513.6C136.926 516.016 138.25 518.336 139.756 520.535L136.093 526.26C134.287 529.083 134.679 532.784 137.038 535.167C139.397 537.55 143.092 537.984 145.936 536.208L151.686 532.618C153.846 534.135 156.157 535.481 158.591 536.639L158.283 543.423C158.132 546.771 160.319 549.781 163.553 550.665C166.787 551.551 170.205 550.077 171.779 547.118L174.971 541.121C177.659 541.362 180.328 541.384 182.962 541.178L186.081 547.196C187.625 550.173 191.025 551.684 194.268 550.834C197.51 549.983 199.734 547 199.619 543.649L199.384 536.859C201.8 535.737 204.12 534.413 206.319 532.908L212.044 536.569C214.868 538.376 218.569 537.984 220.952 535.625C223.335 533.267 223.77 529.572 221.993 526.727L218.403 520.978C219.92 518.819 221.266 516.508 222.424 514.074L229.208 514.382C232.557 514.532 235.567 512.346 236.451 509.112C237.338 505.879 235.863 502.461 232.904 500.887L226.907 497.695C227.151 495.008 227.169 492.338 226.964 489.705L232.982 486.586C235.959 485.042 237.471 481.643 236.62 478.4C235.769 475.157 232.786 472.934 229.435 473.049L222.644 473.284C221.522 470.868 220.198 468.549 218.693 466.35L222.355 460.625C224.162 457.802 223.77 454.101 221.411 451.718C219.052 449.335 215.356 448.901 212.512 450.677L206.762 454.267C204.602 452.749 202.292 451.404 199.857 450.246L200.165 443.459C200.316 440.111 198.129 437.101 194.895 436.217C191.661 435.33 188.244 436.805 186.669 439.764L183.477 445.761C180.79 445.516 178.117 445.498 175.487 445.703L172.367 439.686C170.823 436.709 167.423 435.197 164.181 436.048C160.938 436.899 158.715 439.882 158.829 443.233L159.064 450.026C156.648 451.148 154.328 452.472 152.129 453.977L146.404 450.315C143.581 448.508 139.879 448.901 137.496 451.259C135.113 453.618 134.679 457.313 136.455 460.157L140.045 465.906C138.528 468.066 137.182 470.377 136.024 472.811L129.24 472.503C125.891 472.352 122.881 474.539 121.997 477.773C121.11 481.006 122.585 484.424 125.545 485.998H125.542ZM142.504 483.389C148.057 463.11 168.998 451.175 189.275 456.725C209.556 462.278 221.492 483.217 215.939 503.493C210.385 523.771 189.444 535.707 169.167 530.154C148.887 524.601 136.95 503.662 142.504 483.386V483.389Z" fill="#20E086"/>
<path d="M192.425 551.754C189.55 551.754 186.863 550.173 185.481 547.51L182.567 541.89C180.205 542.053 177.786 542.035 175.361 541.839L172.38 547.44C170.643 550.704 166.941 552.299 163.376 551.322C159.81 550.345 157.436 547.084 157.605 543.392L157.895 537.055C155.711 535.99 153.62 534.775 151.669 533.429L146.299 536.781C143.162 538.738 139.159 538.271 136.559 535.64C133.958 533.013 133.536 529.002 135.527 525.889L138.948 520.541C137.611 518.553 136.417 516.454 135.385 514.291L129.041 514.511C125.34 514.638 122.112 512.231 121.174 508.657C120.236 505.082 121.874 501.396 125.156 499.695L130.776 496.781C130.613 494.42 130.631 492 130.827 489.575L125.229 486.595C121.965 484.858 120.369 481.157 121.343 477.592C122.321 474.026 125.572 471.652 129.274 471.821L135.611 472.108C136.676 469.924 137.895 467.834 139.237 465.882L135.886 460.513C133.928 457.379 134.396 453.374 137.026 450.774C139.654 448.174 143.666 447.751 146.779 449.742L152.127 453.163C154.115 451.826 156.215 450.629 158.377 449.6L158.157 443.257C158.031 439.562 160.438 436.328 164.015 435.39C167.59 434.455 171.276 436.09 172.978 439.372L175.892 444.991C178.256 444.828 180.676 444.847 183.098 445.043L186.078 439.441C187.816 436.178 191.517 434.582 195.083 435.556C198.648 436.534 201.019 439.794 200.853 443.486L200.567 449.823C202.751 450.888 204.841 452.104 206.793 453.449L212.163 450.098C215.3 448.14 219.303 448.608 221.903 451.238C224.503 453.865 224.929 457.877 222.935 460.99L219.514 466.338C220.85 468.329 222.048 470.425 223.076 472.588L229.42 472.367C233.116 472.241 236.349 474.648 237.287 478.225C238.226 481.799 236.588 485.485 233.306 487.186L227.686 490.1C227.849 492.465 227.831 494.884 227.634 497.306L233.236 500.286C236.5 502.024 238.096 505.725 237.118 509.29C236.141 512.855 232.889 515.223 229.188 515.06L222.85 514.774C221.785 516.957 220.567 519.051 219.224 520.999L222.576 526.368C224.533 529.502 224.066 533.508 221.435 536.108C218.808 538.708 214.799 539.133 211.683 537.14L206.335 533.719C204.347 535.055 202.247 536.253 200.084 537.281L200.304 543.625C200.431 547.32 198.024 550.553 194.449 551.491C193.777 551.666 193.098 551.754 192.431 551.754H192.425ZM182.965 540.503C183.219 540.503 183.451 540.644 183.569 540.871L186.688 546.888C188.096 549.603 191.14 550.954 194.099 550.182C197.056 549.407 199.047 546.731 198.941 543.679L198.706 536.889C198.697 536.618 198.85 536.364 199.098 536.25C201.475 535.146 203.774 533.834 205.933 532.353C206.157 532.199 206.452 532.193 206.684 532.341L212.41 536.002C214.986 537.649 218.301 537.299 220.476 535.149C222.648 532.998 223.037 529.686 221.417 527.095L217.828 521.346C217.683 521.114 217.692 520.818 217.849 520.595C219.336 518.481 220.669 516.191 221.812 513.787C221.93 513.54 222.181 513.389 222.458 513.401L229.245 513.709C232.286 513.848 234.995 511.887 235.803 508.937C236.612 505.99 235.29 502.926 232.591 501.49L226.594 498.299C226.352 498.169 226.211 497.909 226.235 497.638C226.473 494.987 226.494 492.338 226.292 489.762C226.271 489.491 226.416 489.232 226.657 489.105L232.675 485.986C235.39 484.58 236.741 481.531 235.969 478.575C235.194 475.619 232.5 473.619 229.465 473.731L222.675 473.966C222.398 473.972 222.15 473.821 222.036 473.574C220.932 471.2 219.619 468.902 218.138 466.739C217.984 466.513 217.978 466.22 218.126 465.988L221.788 460.263C223.435 457.687 223.085 454.372 220.935 452.2C218.784 450.029 215.472 449.639 212.88 451.259L207.131 454.849C206.899 454.993 206.603 454.984 206.38 454.828C204.265 453.34 201.976 452.007 199.574 450.864C199.327 450.746 199.176 450.493 199.188 450.219L199.496 443.432C199.635 440.379 197.671 437.683 194.724 436.874C191.777 436.066 188.712 437.387 187.276 440.087L184.084 446.083C183.955 446.325 183.695 446.466 183.424 446.439C180.775 446.201 178.127 446.18 175.548 446.382C175.276 446.403 175.017 446.258 174.893 446.017L171.774 439.999C170.368 437.285 167.321 435.933 164.362 436.706C161.406 437.481 159.415 440.156 159.521 443.209L159.756 450.001C159.765 450.273 159.611 450.526 159.364 450.641C156.99 451.745 154.688 453.057 152.528 454.538C152.302 454.692 152.006 454.698 151.777 454.55L146.052 450.888C143.476 449.241 140.16 449.591 137.986 451.742C135.814 453.892 135.424 457.204 137.044 459.795L140.634 465.544C140.779 465.777 140.77 466.072 140.613 466.296C139.126 468.41 137.792 470.699 136.649 473.103C136.532 473.351 136.275 473.501 136.004 473.489L129.219 473.182C126.158 473.043 123.47 475.004 122.661 477.954C121.853 480.9 123.174 483.965 125.874 485.401L131.871 488.592C132.112 488.722 132.254 488.981 132.23 489.253C131.992 491.904 131.971 494.552 132.173 497.128C132.194 497.4 132.049 497.659 131.808 497.786L125.79 500.905C123.075 502.31 121.723 505.36 122.496 508.316C123.271 511.272 125.943 513.268 128.999 513.16L135.789 512.925C136.07 512.916 136.314 513.069 136.429 513.317C137.533 515.694 138.845 517.995 140.326 520.152C140.48 520.378 140.486 520.673 140.338 520.903L136.676 526.628C135.029 529.204 135.379 532.519 137.53 534.693C139.681 536.865 142.993 537.254 145.584 535.634L151.334 532.045C151.566 531.9 151.862 531.909 152.085 532.066C154.199 533.553 156.489 534.886 158.893 536.03C159.141 536.147 159.291 536.401 159.279 536.675L158.972 543.462C158.833 546.514 160.794 549.211 163.744 550.019C166.691 550.828 169.753 549.506 171.192 546.807L174.383 540.81C174.513 540.569 174.772 540.427 175.044 540.454C177.695 540.693 180.344 540.714 182.92 540.512C182.938 540.512 182.956 540.512 182.974 540.512L182.965 540.503ZM179.216 532.196C175.837 532.196 172.404 531.749 168.993 530.817C159.011 528.085 150.688 521.627 145.563 512.635C140.438 503.643 139.12 493.195 141.853 483.214C144.586 473.233 151.044 464.911 160.037 459.786C169.029 454.662 179.478 453.343 189.46 456.076C210.069 461.72 222.244 483.075 216.6 503.68C211.891 520.873 196.241 532.199 179.216 532.199V532.196ZM179.167 456.04C172.757 456.04 166.429 457.705 160.709 460.963C152.034 465.909 145.801 473.939 143.165 483.57C140.528 493.201 141.798 503.285 146.746 511.959C151.693 520.634 159.723 526.866 169.355 529.502C172.646 530.404 175.961 530.832 179.219 530.832C195.65 530.832 210.751 519.907 215.294 503.315C220.739 483.431 208.989 462.824 189.104 457.379C185.822 456.48 182.486 456.034 179.171 456.034L179.167 456.04Z" fill="#020D3A"/>
<path d="M211.972 493.579C211.972 475.297 197.163 460.475 178.892 460.475C160.621 460.475 145.812 475.297 145.812 493.579C145.812 511.861 160.621 526.683 178.892 526.683C197.163 526.683 211.972 511.861 211.972 493.579Z" fill="white"/>
<path d="M202.18 517.65C196.222 523.272 188.195 526.726 179.354 526.726C170.512 526.726 162.488 523.272 156.527 517.65C163.42 515.514 171.164 514.314 179.354 514.314C187.544 514.314 195.287 515.514 202.18 517.65Z" fill="#020D3A"/>
<path d="M168.699 474.24C170.198 473.274 171.944 472.762 173.727 472.762H184.225C186.569 472.762 188.825 473.649 190.544 475.244L191.121 475.778C193.848 478.312 194.801 482.227 193.537 485.732L190.086 495.312L167.953 495.173L164.828 484.706C163.646 480.746 165.224 476.481 168.699 474.243V474.24Z" fill="#020D3A"/>
<path d="M174.167 478.418C174.215 478.397 174.312 478.354 174.312 478.354L190.197 488.67V494.893C190.197 498.452 188.532 501.619 185.944 503.673V513.154C185.944 516.903 182.906 519.94 179.156 519.94C175.407 519.94 172.369 516.903 172.369 513.154V503.918C169.594 501.879 167.787 498.603 167.787 494.893V488.293C167.787 483.898 170.405 480.113 174.167 478.418Z" fill="white"/>
<path d="M178.995 506.778C172.443 506.778 167.109 501.448 167.109 494.893V488.294C167.109 481.947 172.274 476.783 178.618 476.783H190.198C190.572 476.783 190.877 477.088 190.877 477.462V494.89C190.877 499.538 188.144 503.785 183.912 505.713C183.568 505.867 183.166 505.719 183.013 505.375C182.856 505.034 183.007 504.63 183.35 504.476C187.1 502.769 189.519 499.008 189.519 494.89V478.141H178.618C173.019 478.141 168.467 482.695 168.467 488.291V494.89C168.467 500.694 173.188 505.414 178.992 505.414C179.366 505.414 179.67 505.719 179.67 506.093C179.67 506.467 179.366 506.772 178.992 506.772L178.995 506.778Z" fill="#020D3A"/>
<path d="M179.36 527.379C170.38 527.379 161.921 523.91 155.523 517.597C148.537 510.705 144.875 501.131 145.481 491.328C145.505 490.954 145.819 490.664 146.202 490.691C146.576 490.716 146.863 491.035 146.838 491.412C146.259 500.823 149.774 510.017 156.479 516.632C162.624 522.691 170.742 526.021 179.363 526.021C179.438 526.021 179.514 526.021 179.592 526.021C188.298 525.961 196.461 522.516 202.572 516.318C208.687 510.119 212.02 501.912 211.963 493.207C211.902 484.502 208.458 476.34 202.259 470.226C190.072 458.203 170.512 457.687 157.731 469.052C157.451 469.303 157.022 469.276 156.772 468.995C156.522 468.715 156.549 468.286 156.829 468.036C170.141 456.197 190.515 456.734 203.212 469.257C209.667 475.625 213.257 484.128 213.32 493.195C213.381 502.262 209.908 510.813 203.538 517.268C197.17 523.723 188.666 527.312 179.598 527.376C179.52 527.376 179.438 527.376 179.36 527.376V527.379Z" fill="#020D3A"/>
<path d="M179.157 520.618C175.04 520.618 171.691 517.27 171.691 513.152V504.152C171.691 503.778 171.996 503.473 172.37 503.473C172.744 503.473 173.049 503.778 173.049 504.152V513.152C173.049 516.519 175.788 519.26 179.157 519.26C182.527 519.26 185.266 516.522 185.266 513.152V503.672C185.266 503.298 185.571 502.993 185.945 502.993C186.319 502.993 186.623 503.298 186.623 503.672V513.152C186.623 517.27 183.275 520.618 179.157 520.618Z" fill="#020D3A"/>
<path d="M380.261 595.988C373.054 595.988 366.741 591.304 364.693 584.3L360.678 570.573C355.209 569.909 349.758 568.811 344.461 567.3L335.435 578.397C330.609 584.333 322.449 586.101 315.598 582.698C308.745 579.296 305.224 571.728 307.037 564.296L310.416 550.439C306.066 547.175 301.897 543.486 298.012 539.462L284.654 544.557C277.505 547.284 269.56 544.738 265.324 538.365C261.092 531.991 261.825 523.678 267.11 518.149L276.986 507.812C274.784 502.673 272.998 497.4 271.677 492.122L257.593 489.859C250.039 488.647 244.429 482.466 243.949 474.832C243.469 467.198 248.263 460.366 255.605 458.218L269.333 454.203C269.994 448.738 271.095 443.287 272.606 437.991L261.508 428.966C255.572 424.14 253.804 415.984 257.207 409.131C260.609 402.278 268.178 398.758 275.611 400.571L289.469 403.949C292.736 399.596 296.425 395.425 300.446 391.546L295.351 378.19C292.624 371.041 295.17 363.096 301.544 358.861C307.915 354.629 316.232 355.362 321.764 360.65L332.102 370.525C337.236 368.323 342.512 366.541 347.794 365.216L350.053 351.133C351.266 343.58 357.447 337.97 365.082 337.49C372.705 337.011 379.549 341.804 381.697 349.146L385.712 362.876C391.178 363.536 396.629 364.637 401.929 366.148L410.954 355.051C415.781 349.115 423.938 347.348 430.788 350.75C437.642 354.153 441.162 361.72 439.349 369.153L435.971 383.01C440.324 386.273 444.492 389.965 448.375 393.986L461.732 388.891C468.881 386.165 476.83 388.71 481.062 395.084L480.495 395.461L481.062 395.087C485.294 401.46 484.558 409.773 479.273 415.302L469.397 425.639C471.599 430.776 473.385 436.051 474.706 441.33L488.79 443.592C496.344 444.805 501.955 450.985 502.434 458.619C502.914 466.254 498.121 473.086 490.778 475.233L477.047 479.248C476.386 484.716 475.285 490.167 473.774 495.464L484.872 504.488C490.809 509.314 492.576 517.471 489.174 524.324C485.771 531.177 478.202 534.697 470.77 532.884L456.912 529.506C453.648 533.855 449.958 538.024 445.934 541.909L451.029 555.265C453.756 562.414 451.21 570.361 444.836 574.593C438.462 578.825 430.149 578.092 424.619 572.808L414.282 562.932C409.141 565.134 403.868 566.92 398.593 568.241L396.333 582.324C395.121 589.877 388.94 595.487 381.305 595.967C380.955 595.988 380.605 596 380.258 596L380.261 595.988ZM344.219 565.843C344.283 565.843 344.346 565.852 344.409 565.87C349.911 567.466 355.589 568.612 361.284 569.276C361.555 569.306 361.782 569.499 361.857 569.758L365.999 583.917C367.965 590.646 374.219 595.038 381.226 594.598C388.222 594.157 393.887 589.017 394.997 582.095L397.329 567.568C397.371 567.3 397.573 567.083 397.838 567.016C403.329 565.668 408.822 563.81 414.164 561.494C414.414 561.385 414.707 561.436 414.903 561.626L425.567 571.812C430.634 576.657 438.254 577.329 444.094 573.45C449.934 569.571 452.269 562.287 449.768 555.738L444.514 541.96C444.417 541.704 444.48 541.417 444.679 541.227C448.888 537.2 452.731 532.857 456.1 528.32C456.263 528.1 456.544 528 456.806 528.067L471.101 531.551C477.913 533.21 484.848 529.985 487.967 523.705C491.086 517.425 489.463 509.951 484.024 505.529L472.58 496.221C472.368 496.049 472.281 495.765 472.356 495.506C473.952 490.001 475.098 484.324 475.762 478.633C475.795 478.361 475.985 478.135 476.248 478.059L490.407 473.918C497.134 471.948 501.529 465.69 501.089 458.692C500.649 451.694 495.508 446.032 488.585 444.922L474.058 442.591C473.786 442.548 473.572 442.346 473.506 442.081C472.157 436.588 470.299 431.096 467.982 425.757C467.874 425.506 467.925 425.214 468.115 425.018L478.302 414.355C483.143 409.288 483.819 401.668 479.94 395.829C476.061 389.989 468.776 387.655 462.227 390.155L448.45 395.41C448.197 395.506 447.907 395.443 447.717 395.244C443.693 391.039 439.349 387.196 434.809 383.824C434.589 383.661 434.49 383.384 434.556 383.118L438.04 368.824C439.699 362.013 436.474 355.079 430.194 351.96C423.913 348.841 416.441 350.461 412.016 355.902L402.707 367.346C402.535 367.557 402.252 367.645 401.992 367.569C396.487 365.973 390.81 364.827 385.118 364.164C384.846 364.134 384.623 363.94 384.544 363.681L380.403 349.523C378.436 342.793 372.183 338.401 365.175 338.842C358.18 339.282 352.515 344.422 351.405 351.344L349.073 365.871C349.031 366.139 348.829 366.357 348.563 366.423C343.067 367.774 337.574 369.632 332.237 371.946C331.987 372.054 331.698 372.003 331.498 371.813L320.838 361.627C315.77 356.783 308.15 356.11 302.31 359.989C296.47 363.868 294.135 371.149 296.636 377.701L301.891 391.479C301.987 391.736 301.924 392.022 301.725 392.212C297.52 396.236 293.68 400.577 290.304 405.119C290.141 405.339 289.864 405.439 289.598 405.376L275.303 401.892C268.489 400.233 261.557 403.457 258.438 409.737C255.318 416.017 256.941 423.491 262.38 427.913L273.828 437.222C274.039 437.394 274.127 437.677 274.051 437.937C272.455 443.444 271.309 449.121 270.645 454.81C270.615 455.081 270.422 455.307 270.163 455.383L256.003 459.524C249.273 461.491 244.881 467.753 245.322 474.751C245.762 481.748 250.902 487.41 257.825 488.52L272.353 490.852C272.621 490.894 272.839 491.096 272.905 491.361C274.253 496.851 276.111 502.344 278.428 507.686C278.537 507.936 278.486 508.229 278.295 508.425L268.109 519.084C263.264 524.152 262.591 531.771 266.471 537.61C270.35 543.45 277.635 545.785 284.184 543.284L297.963 538.03C298.22 537.933 298.506 537.997 298.696 538.196C302.724 542.403 307.067 546.246 311.604 549.615C311.824 549.778 311.924 550.056 311.858 550.321L308.374 564.615C306.714 571.426 309.939 578.361 316.22 581.48C322.5 584.598 329.975 582.979 334.397 577.537L343.706 566.093C343.836 565.934 344.032 565.843 344.234 565.843H344.219ZM373.326 550.02C346.322 550.02 319.812 536.95 303.785 512.822C294.603 498.999 289.846 483.127 289.843 466.902C289.843 461.367 290.395 455.79 291.517 450.24C295.918 428.423 308.555 409.625 327.097 397.313C345.64 385 367.866 380.642 389.685 385.046C411.503 389.449 430.3 402.082 442.616 420.623C452.013 434.769 456.507 450.768 456.507 466.598C456.507 493.596 443.434 520.11 419.307 536.132C405.163 545.528 389.16 550.023 373.329 550.023L373.326 550.02ZM291.2 466.899C291.2 482.858 295.882 498.471 304.917 512.071C329.924 549.721 380.904 560.004 418.55 534.998C442.284 519.235 455.144 493.153 455.144 466.598C455.144 451.024 450.722 435.288 441.479 421.374C429.364 403.137 410.873 390.707 389.41 386.376C367.95 382.047 346.083 386.331 327.845 398.444C309.607 410.558 297.176 429.047 292.844 450.509C291.743 455.968 291.197 461.455 291.2 466.899Z" fill="#020D3A"/>
<mask id="mask0_212_15247" style="mask-type:luminance" maskUnits="userSpaceOnUse" x="240" y="221" width="340" height="329">
<path d="M505.14 228.417L300.98 284.647L240.98 385.024L294.017 443.018C287.23 465.725 290.208 491.168 304.346 512.451C329.601 550.471 380.9 560.823 418.924 535.568C441.868 520.329 454.73 495.614 455.78 470.051L534.575 455.409L579.996 359.277L568.37 221.721L505.143 228.414L505.14 228.417Z" fill="white"/>
</mask>
<g mask="url(#mask0_212_15247)">
<path d="M372.835 367.348C372.835 367.348 350.652 357.249 343.21 355.654C335.768 354.058 323.047 341.628 340.968 325.524C346.775 320.305 345.388 311.615 358.003 305.888C370.618 300.16 383.674 303.209 387.806 310.991C391.939 318.773 386.479 328.501 380.947 331.384C375.414 334.268 372.838 367.348 372.838 367.348H372.835Z" fill="#020D3A"/>
<path d="M362.923 384.067L356.896 402.536C356.896 402.536 398.274 400.041 396.69 393.909C396.241 392.172 395.185 390.908 393.897 389.994C387.538 385.47 390.126 366.702 390.126 366.702L401.134 357.379C403.152 355.668 403.547 352.709 402.051 350.532L396.684 342.719C395.779 341.401 395.514 339.745 395.966 338.21L396.917 334.977L386.669 328.139L377.731 317.666C363.466 321.328 359.131 326.989 362.483 337.752C364.631 344.653 361.074 346.007 361.074 346.007C361.074 346.007 353.883 342.05 353.376 349.729C352.869 357.409 365.834 358.347 365.834 358.347C368.35 360.986 369.213 364.793 368.081 368.259L362.923 384.067Z" fill="white"/>
<path d="M356.9 403.214C356.692 403.214 356.493 403.117 356.363 402.948C356.224 402.77 356.185 402.535 356.255 402.321L362.282 383.852L367.44 368.044C368.469 364.892 367.733 361.45 365.518 358.998C363.549 358.811 352.194 357.39 352.704 349.68C352.864 347.252 353.681 345.621 355.132 344.824C357.289 343.645 360.104 344.779 361.069 345.237C361.727 344.794 363.443 343.093 361.841 337.947C360.291 332.967 360.381 329.034 362.122 325.918C364.321 321.976 369.229 319.143 377.57 317.002C377.823 316.938 378.088 317.02 378.254 317.219L387.129 327.622L397.298 334.409C397.545 334.575 397.657 334.879 397.572 335.166L396.622 338.399C396.227 339.745 396.456 341.177 397.25 342.33L402.616 350.142C404.317 352.618 403.871 355.951 401.578 357.894L390.773 367.048C390.499 369.283 388.731 385.478 394.296 389.438C395.88 390.563 396.906 392.011 397.352 393.737C397.512 394.358 397.376 394.985 396.96 395.558C393.081 400.888 360.629 402.991 356.939 403.214C356.924 403.214 356.912 403.214 356.897 403.214H356.9ZM357.341 345.663C356.795 345.663 356.255 345.762 355.781 346.022C354.764 346.58 354.185 347.841 354.059 349.774C353.6 356.69 365.763 357.662 365.886 357.671C366.055 357.683 366.212 357.758 366.33 357.879C369.021 360.702 369.941 364.762 368.731 368.469L357.859 401.793C368.363 401.105 392.996 398.698 395.865 394.759C396.094 394.445 396.079 394.228 396.04 394.077C395.678 392.669 394.827 391.48 393.512 390.545C386.894 385.837 389.355 367.389 389.464 366.608C389.485 366.442 389.569 366.291 389.696 366.183L400.704 356.859C402.462 355.369 402.803 352.814 401.5 350.914L396.133 343.102C395.108 341.609 394.812 339.757 395.322 338.019L396.133 335.266L386.303 328.705C386.251 328.672 386.203 328.63 386.164 328.581L377.503 318.432C369.796 320.458 365.283 323.056 363.313 326.588C361.745 329.399 361.69 332.883 363.144 337.552C365.458 344.975 361.497 346.58 361.328 346.646C361.141 346.715 360.933 346.703 360.758 346.607C360.737 346.595 359.018 345.669 357.347 345.669L357.341 345.663Z" fill="#020D3A"/>
<path d="M359.115 336.638L373.081 346.505C379.003 350.688 387.084 349.98 392.185 344.828L396.544 340.424L412.116 355.056C413.992 357.249 413.6 360.576 411.265 362.274L399.117 372.762C395.522 375.377 390.758 375.748 386.798 373.724L366.599 363.384C366.599 363.384 370.578 356.166 361.076 346.004C351.573 335.842 359.112 336.638 359.112 336.638H359.115Z" fill="#020D3A"/>
<path d="M534.676 322.406L508.441 335.548C508.441 335.548 511.445 382.189 483.856 392.864C470.583 398.001 458.985 397.171 450.517 394.927C437.7 391.531 424.261 391.25 411.371 394.363L359.586 406.863C330.968 413.77 309.201 437.05 304.263 466.07C298.984 497.102 293.261 538.057 292.537 573.055C292.405 579.507 298.664 584.164 304.793 582.14L438.578 537.955L443.667 454.53C460.393 455.929 484.815 453.975 515.593 440.567C580.666 412.217 534.673 322.406 534.673 322.406H534.676Z" fill="white"/>
<path d="M301.832 583.301C299.739 583.301 297.688 582.631 295.932 581.334C293.275 579.371 291.79 576.348 291.86 573.039C292.602 537.178 298.653 495.014 303.594 465.954C308.584 436.639 330.499 413.184 359.431 406.201L411.216 393.702C423.997 390.616 437.65 390.812 450.693 394.269C461.583 397.155 472.657 396.468 483.613 392.23C510.415 381.86 507.794 336.051 507.763 335.59C507.745 335.318 507.893 335.062 508.137 334.938L534.372 321.796C534.707 321.63 535.112 321.763 535.28 322.095C535.534 322.589 560.435 371.936 547.238 408.844C541.989 423.521 531.434 434.404 515.866 441.185C484.406 454.888 459.692 456.441 444.301 455.259L439.255 537.993C439.236 538.27 439.052 538.509 438.79 538.596L305.006 582.782C303.959 583.129 302.888 583.298 301.832 583.298V583.301ZM429.692 392.881C423.55 392.881 417.448 393.593 411.532 395.023L359.747 407.522C331.346 414.379 309.829 437.405 304.933 466.184C299.998 495.198 293.959 537.29 293.217 573.069C293.157 575.932 294.442 578.547 296.738 580.242C299.021 581.928 301.881 582.387 304.581 581.494L437.927 537.453L442.989 454.486C443.001 454.302 443.086 454.133 443.221 454.013C443.36 453.892 443.541 453.835 443.722 453.85C458.904 455.12 483.649 453.738 515.323 439.942C530.535 433.315 540.843 422.698 545.959 408.388C558.173 374.222 537.157 329.053 534.369 323.316L509.142 335.952C509.245 338.235 509.546 348.831 507.16 360.335C503.583 377.574 495.607 389.042 484.102 393.491C472.874 397.834 461.514 398.537 450.343 395.575C443.553 393.774 436.597 392.875 429.692 392.875V392.881Z" fill="#020D3A"/>
<path d="M505.872 281.614C506.135 279.834 508.46 274.01 509.773 272.124L522.539 248.911C522.539 248.911 527.661 256.373 526.364 262.201C532.08 260.521 536.873 260.005 536.873 260.005C536.873 260.005 542.84 249.81 544.514 247.837C546.188 245.867 548.255 242.936 551.087 242.043C553.926 241.147 557.44 242.381 557.44 242.381L548.031 268.236L521.278 286.057L537.664 330.134L508.436 335.548L505.869 281.617L505.872 281.614Z" fill="white"/>
<path d="M508.441 336.225C508.29 336.225 508.139 336.174 508.019 336.077C507.865 335.957 507.771 335.773 507.762 335.577L505.195 281.645C505.195 281.6 505.195 281.558 505.201 281.515C505.473 279.678 507.817 273.773 509.195 271.767L521.943 248.583C522.058 248.375 522.269 248.243 522.504 248.233C522.731 248.224 522.966 248.333 523.099 248.529C523.301 248.825 527.786 255.442 527.201 261.258C531.602 260.045 535.337 259.517 536.459 259.373C537.466 257.659 542.447 249.229 543.997 247.401C544.229 247.129 544.465 246.84 544.712 246.538C546.29 244.617 548.254 242.228 550.881 241.399C553.901 240.445 557.511 241.691 557.662 241.745C557.834 241.806 557.973 241.932 558.051 242.095C558.13 242.258 558.139 242.448 558.075 242.617L548.667 268.473C548.619 268.609 548.525 268.726 548.404 268.805L522.097 286.326L538.299 329.9C538.368 330.087 538.353 330.298 538.254 330.473C538.154 330.648 537.985 330.769 537.786 330.805L508.559 336.219C508.52 336.228 508.477 336.231 508.435 336.231L508.441 336.225ZM506.556 281.651L509.081 334.738L536.748 329.613L520.643 286.293C520.534 285.998 520.643 285.666 520.902 285.491L547.472 267.794L556.558 242.828C555.457 242.542 553.183 242.095 551.294 242.689C549.05 243.398 547.228 245.615 545.765 247.398C545.512 247.706 545.27 248.001 545.035 248.276C543.418 250.182 537.521 260.244 537.46 260.347C537.352 260.534 537.162 260.655 536.948 260.679C536.899 260.685 532.142 261.207 526.556 262.85C526.323 262.917 526.076 262.86 525.901 262.694C525.726 262.531 525.651 262.283 525.702 262.051C526.658 257.759 523.856 252.399 522.58 250.248L510.372 272.451C510.36 272.473 510.348 272.494 510.333 272.512C509.078 274.309 506.848 279.887 506.556 281.648V281.651Z" fill="#020D3A"/>
<path d="M255.422 550.656C255.422 550.656 260.852 443.743 330.48 422.183L349.149 478.705C349.149 478.705 282.725 557.639 276.354 582.24C269.98 606.844 255.422 550.656 255.422 550.656Z" fill="white"/>
<path d="M255.424 551.336C255.424 551.336 255.4 551.336 255.388 551.336C255.014 551.318 254.724 550.999 254.745 550.625C254.76 550.356 256.223 523.463 266.199 494.289C272.066 477.132 279.686 462.545 288.847 450.936C300.325 436.388 314.265 426.497 330.283 421.536C330.645 421.424 331.022 421.626 331.133 421.982C331.245 422.341 331.043 422.721 330.687 422.833C295.001 433.884 276.627 468.011 267.499 494.696C257.578 523.695 256.121 550.425 256.106 550.691C256.088 551.053 255.786 551.336 255.427 551.336H255.424Z" fill="#020D3A"/>
<path d="M276.355 582.918C276.283 582.918 276.207 582.906 276.135 582.881C275.779 582.761 275.592 582.372 275.712 582.019C284.952 555.14 337.956 491.213 338.49 490.57C338.728 490.284 339.157 490.242 339.446 490.483C339.736 490.724 339.775 491.152 339.534 491.439C339 492.079 286.156 555.816 276.997 582.459C276.901 582.74 276.635 582.918 276.355 582.918Z" fill="#020D3A"/>
<path d="M409.133 397.675L407.875 389.667C407.455 386.991 404.641 384.029 402.318 385.423C382.931 397.06 351.402 386.813 346.072 389.178C331.031 395.847 305.9 433.925 311.583 430.951C335.526 418.415 375.887 427.259 394.161 420.638C408.191 415.556 409.13 397.678 409.13 397.678L409.133 397.675Z" fill="#020D3A"/>
<path d="M386.083 482.187C385.755 482.187 385.468 481.949 385.414 481.617L374.337 413.27C374.277 412.899 374.53 412.553 374.898 412.492C375.272 412.432 375.616 412.685 375.676 413.053L386.753 481.4C386.813 481.771 386.56 482.118 386.192 482.178C386.156 482.184 386.12 482.187 386.083 482.187Z" fill="#020D3A"/>
<path d="M402.633 467.22C402.335 467.22 402.06 467.021 401.979 466.719L387.188 412.109C387.089 411.747 387.303 411.373 387.665 411.277C388.027 411.18 388.401 411.391 388.498 411.753L403.288 466.363C403.387 466.725 403.173 467.099 402.811 467.196C402.751 467.211 402.691 467.22 402.633 467.22Z" fill="#020D3A"/>
<path d="M385.733 480.21C384.568 480.452 383.757 481.275 383.917 482.05L385.346 488.947C385.506 489.722 386.58 490.153 387.742 489.912C388.906 489.671 389.717 488.847 389.558 488.072L388.128 481.176C387.968 480.4 386.894 479.969 385.733 480.21Z" fill="#020D3A"/>
<path d="M402.321 464.887C401.178 465.207 400.424 466.085 400.638 466.848L402.541 473.63C402.756 474.39 403.854 474.749 405 474.426C406.143 474.106 406.897 473.228 406.683 472.465L404.78 465.684C404.565 464.923 403.464 464.564 402.321 464.887Z" fill="#020D3A"/>
</g>
<path d="M373.322 550.021C363.328 550.021 353.401 548.229 344.046 544.751C328.719 539.051 314.937 528.819 304.922 514.501C304.536 513.949 304.153 513.388 303.778 512.824C303.772 512.815 303.766 512.806 303.76 512.797C294.59 498.979 289.839 483.119 289.836 466.907C289.836 461.372 290.388 455.794 291.51 450.244C295.911 428.428 308.548 409.63 327.09 397.317C327.102 397.311 327.111 397.302 327.124 397.296C327.133 397.29 327.142 397.284 327.151 397.278C327.151 397.278 327.151 397.278 327.154 397.278C327.163 397.272 327.175 397.266 327.184 397.26C337.989 390.105 349.938 385.662 362.707 384.052C363.081 384.003 363.419 384.269 363.467 384.64C363.515 385.011 363.25 385.352 362.879 385.4C362.779 385.412 362.68 385.424 362.58 385.439C362.58 385.439 362.577 385.439 362.574 385.439C350.092 387.059 338.405 391.439 327.844 398.454C310.71 409.835 298.702 426.841 293.721 446.655C293.721 446.67 293.715 446.688 293.709 446.703C288.083 469.06 292.165 492.889 304.913 512.082C329.92 549.731 380.9 560.014 418.546 535.009C418.555 535.003 418.564 534.997 418.57 534.994C418.57 534.994 418.573 534.994 418.576 534.991C418.582 534.988 418.588 534.982 418.594 534.979C418.594 534.979 418.597 534.979 418.6 534.976C418.603 534.976 418.613 534.97 418.616 534.966C443.478 518.419 457.408 489.203 454.871 459.607C454.871 459.607 454.871 459.601 454.871 459.598C454.751 458.207 454.597 456.817 454.404 455.423L454.347 455.01C454.347 455.01 454.347 455.01 454.347 455.004C454.332 454.893 454.316 454.787 454.298 454.678C454.292 454.645 454.292 454.612 454.292 454.579C454.292 454.247 454.534 453.958 454.871 453.906C455.243 453.852 455.589 454.108 455.644 454.479C455.683 454.739 455.719 454.998 455.755 455.258V455.279H455.758C455.795 455.541 455.831 455.803 455.864 456.066C456.316 459.601 456.543 463.151 456.543 466.692C456.543 476.182 454.92 485.623 451.731 494.614C451.044 496.551 450.283 498.466 449.454 500.357C449.134 501.081 448.805 501.799 448.467 502.514C448.464 502.523 448.458 502.532 448.455 502.541C448.455 502.547 448.449 502.553 448.446 502.559C448.446 502.559 448.446 502.562 448.446 502.565C446.603 506.441 444.473 510.151 442.075 513.668C442.069 513.68 442.06 513.692 442.051 513.708C436.066 522.485 428.522 529.959 419.623 535.926C419.617 535.929 419.611 535.932 419.608 535.938C419.602 535.938 419.602 535.944 419.596 535.947C419.499 536.01 419.403 536.076 419.309 536.14C405.165 545.536 389.162 550.03 373.331 550.03L373.322 550.021Z" fill="#020D3A"/>
<path d="M151.501 356.283L144.904 390.34C144.904 390.34 205.929 407.925 233.259 378.459L225.253 356.286H151.498L151.501 356.283Z" fill="#020D3A"/>
<path d="M50.1991 272.819L64.6333 280.501C64.0481 286.968 63.9998 293.399 64.4945 299.733L50.012 307.241C42.8447 310.954 39.2098 319.137 41.255 326.943C43.3002 334.749 50.4856 340.097 58.5519 339.82L74.8986 339.256C77.6044 345.071 80.7839 350.654 84.4128 355.945L75.5984 369.723C71.2486 376.522 72.1927 385.426 77.8669 391.166C83.544 396.903 92.4368 397.944 99.2844 393.67L113.121 385.031C118.322 388.687 123.881 391.917 129.743 394.711L129 411.041C128.635 419.103 133.902 426.343 141.688 428.475C149.474 430.608 157.697 427.06 161.489 419.936L169.172 405.503C175.639 406.088 182.071 406.136 188.405 405.642L195.914 420.123C199.627 427.287 207.811 430.924 215.618 428.879C223.425 426.834 228.773 419.652 228.495 411.584L227.931 395.238C233.747 392.533 239.331 389.351 244.622 385.725L258.401 394.539C265.201 398.888 274.106 397.944 279.843 392.267C285.581 386.591 286.621 377.699 282.347 370.852L273.707 357.016C277.364 351.816 280.594 346.257 283.388 340.396L299.719 341.138C307.782 341.503 315.022 336.236 317.155 328.451C319.288 320.666 315.74 312.444 308.615 308.652L294.181 300.97C294.766 294.503 294.814 288.072 294.32 281.735L308.802 274.227C315.969 270.514 319.604 262.331 317.559 254.525C315.514 246.718 308.331 241.371 300.262 241.648L283.915 242.212C281.21 236.397 278.027 230.813 274.401 225.523L283.216 211.744C287.566 204.946 286.621 196.041 280.944 190.304C275.267 184.567 266.374 183.527 259.527 187.801L245.69 196.44C240.489 192.784 234.93 189.553 229.069 186.76L229.811 170.427C230.176 162.364 224.909 155.125 217.123 152.993C209.337 150.86 201.114 154.407 197.322 161.532L189.639 175.965C183.172 175.38 176.74 175.331 170.403 175.826L162.894 161.345C159.181 154.178 150.997 150.543 143.19 152.592C135.383 154.637 130.035 161.821 130.313 169.887L130.877 186.232C125.058 188.935 119.477 192.117 114.186 195.746L100.407 186.932C93.6072 182.583 84.7024 183.527 78.9649 189.203C73.2274 194.88 72.1867 203.772 76.4612 210.619L85.1006 224.455C81.4445 229.655 78.2138 235.214 75.4205 241.075L59.0888 240.333C51.0256 239.965 43.7859 245.234 41.6532 253.019C39.5205 260.805 43.0679 269.027 50.193 272.819H50.1991ZM91.0281 266.539C104.394 217.729 154.798 188.995 203.612 202.361C252.426 215.726 281.161 266.125 267.795 314.935C254.429 363.745 204.025 392.475 155.211 379.113C106.397 365.748 77.6648 315.348 91.0281 266.539Z" fill="white"/>
<path d="M211.184 430.136C204.614 430.136 198.473 426.525 195.317 420.439L188.017 406.355C181.975 406.805 175.773 406.76 169.568 406.223L162.096 420.258C158.126 427.714 149.662 431.364 141.517 429.131C133.369 426.899 127.946 419.449 128.329 411.013L129.05 395.129C123.436 392.429 118.075 389.31 113.104 385.844L99.6473 394.245C92.483 398.718 83.3278 397.647 77.3882 391.642C71.4486 385.636 70.4773 376.473 75.0293 369.357L83.5993 355.956C80.1484 350.882 77.0835 345.504 74.4742 339.948L58.574 340.497C50.1276 340.79 42.7401 335.285 40.5983 327.114C38.4566 318.943 42.1971 310.521 49.6993 306.633L63.7836 299.334C63.3341 293.289 63.3793 287.088 63.9163 280.886L49.8803 273.418C42.4233 269.448 38.7733 260.987 41.0056 252.84C43.2378 244.693 50.6857 239.27 59.126 239.653L75.0082 240.374C77.7049 234.764 80.8271 229.404 84.2931 224.43L75.892 210.974C71.4185 203.807 72.4893 194.656 78.4953 188.717C84.5012 182.778 93.6655 181.806 100.782 186.358L114.184 194.927C119.258 191.477 124.639 188.409 130.193 185.803L129.644 169.904C129.351 161.461 134.857 154.071 143.028 151.93C151.197 149.788 159.622 153.528 163.508 161.03L170.808 175.113C176.856 174.664 183.058 174.709 189.257 175.246L196.726 161.211C200.696 153.755 209.157 150.105 217.305 152.337C225.453 154.569 230.876 162.019 230.493 170.456L229.772 186.34C235.38 189.036 240.741 192.155 245.715 195.624L259.172 187.224C266.339 182.75 275.491 183.821 281.431 189.827C287.37 195.832 288.342 204.996 283.79 212.111L275.22 225.513C278.671 230.586 281.739 235.967 284.345 241.517L300.242 240.968C308.694 240.682 316.076 246.18 318.218 254.352C320.359 262.523 316.616 270.944 309.117 274.832L295.032 282.132C295.482 288.173 295.437 294.375 294.9 300.579L308.936 308.048C316.393 312.017 320.043 320.478 317.813 328.625C315.581 336.772 308.124 342.195 299.69 341.812L283.808 341.092C281.108 346.705 277.986 352.065 274.523 357.036L282.924 370.491C287.398 377.655 286.327 386.81 280.321 392.749C274.315 398.688 265.15 399.659 258.034 395.108L244.632 386.538C239.561 389.986 234.18 393.053 228.626 395.663L229.175 411.558C229.465 420.001 223.962 427.391 215.791 429.533C214.252 429.937 212.702 430.13 211.178 430.13L211.184 430.136ZM188.412 404.965C188.666 404.965 188.898 405.104 189.016 405.333L196.524 419.814C200.117 426.746 207.902 430.205 215.453 428.224C223.006 426.245 228.092 419.413 227.824 411.61L227.26 395.264C227.251 394.993 227.404 394.74 227.652 394.625C233.419 391.943 239 388.761 244.243 385.166C244.466 385.012 244.765 385.006 244.994 385.154L258.774 393.967C265.353 398.172 273.823 397.276 279.374 391.787C284.924 386.297 285.913 377.836 281.781 371.212L273.141 357.377C272.997 357.144 273.006 356.849 273.162 356.625C276.77 351.495 280.007 345.936 282.785 340.102C282.903 339.855 283.153 339.701 283.431 339.716L299.762 340.458C307.551 340.811 314.45 335.801 316.513 328.272C318.574 320.74 315.201 312.919 308.308 309.251L293.877 301.569C293.636 301.439 293.494 301.18 293.518 300.908C294.1 294.474 294.146 288.041 293.657 281.788C293.636 281.516 293.781 281.257 294.022 281.13L308.504 273.623C315.436 270.03 318.896 262.245 316.915 254.695C314.936 247.143 308.085 242.06 300.299 242.326L283.953 242.89C283.669 242.896 283.428 242.745 283.313 242.497C280.634 236.733 277.452 231.153 273.853 225.908C273.699 225.682 273.693 225.386 273.841 225.157L282.656 211.378C286.861 204.803 285.965 196.33 280.475 190.78C274.981 185.23 266.523 184.241 259.899 188.373L246.059 197.012C245.826 197.156 245.531 197.147 245.308 196.99C240.17 193.38 234.611 190.143 228.786 187.368C228.539 187.251 228.388 186.997 228.4 186.723L229.142 170.39C229.495 162.589 224.484 155.703 216.955 153.643C209.423 151.58 201.601 154.955 197.933 161.847L190.253 176.28C190.123 176.522 189.863 176.664 189.592 176.636C183.164 176.054 176.729 176.009 170.47 176.498C170.198 176.519 169.939 176.377 169.815 176.133L162.307 161.651C158.714 154.72 150.929 151.26 143.378 153.242C135.825 155.221 130.739 162.053 131.007 169.856L131.572 186.201C131.581 186.473 131.427 186.726 131.179 186.841C125.415 189.519 119.831 192.701 114.588 196.297C114.362 196.451 114.066 196.457 113.837 196.309L100.058 187.495C93.4785 183.29 85.008 184.186 79.4576 189.676C73.9071 195.166 72.9177 203.626 77.0504 210.25L85.6898 224.086C85.8346 224.318 85.8255 224.614 85.6686 224.837C82.0608 229.971 78.8211 235.53 76.0458 241.36C75.9282 241.608 75.6718 241.758 75.4003 241.746L59.0687 241.004C51.2679 240.655 44.3811 245.662 42.3178 253.19C40.2544 260.719 43.63 268.54 50.5228 272.211L64.957 279.894C65.1983 280.023 65.3401 280.283 65.316 280.554C64.7338 286.985 64.6885 293.419 65.1772 299.675C65.1983 299.946 65.0535 300.205 64.8122 300.332L50.3297 307.84C43.3977 311.432 39.9377 319.217 41.9196 326.767C43.8984 334.32 50.752 339.408 58.5348 339.137L74.8815 338.573C75.165 338.564 75.4063 338.718 75.521 338.965C78.2027 344.732 81.3851 350.312 84.9809 355.555C85.1347 355.781 85.1407 356.077 84.9929 356.306L76.1786 370.084C71.9705 376.66 72.8694 385.133 78.3595 390.683C83.8497 396.233 92.3111 397.222 98.9354 393.087L112.772 384.448C113.005 384.303 113.3 384.312 113.523 384.469C118.655 388.077 124.214 391.313 130.048 394.091C130.296 394.209 130.446 394.462 130.434 394.737L129.692 411.07C129.339 418.87 134.35 425.756 141.879 427.816C149.411 429.88 157.23 426.504 160.901 419.615L168.585 405.182C168.714 404.941 168.971 404.799 169.245 404.826C175.68 405.408 182.114 405.453 188.364 404.962C188.382 404.962 188.4 404.962 188.418 404.962L188.412 404.965ZM179.559 383.085C171.375 383.085 163.14 381.987 155.034 379.767C131.252 373.254 111.427 357.871 99.216 336.452C87.005 315.034 83.8647 290.14 90.3775 266.359C96.8902 242.579 112.275 222.756 133.695 210.546C155.116 198.333 180.011 195.196 203.794 201.708C227.576 208.22 247.401 223.603 259.612 245.022C271.826 266.441 274.963 291.335 268.451 315.118C261.938 338.899 246.553 358.722 225.133 370.932C211.012 378.979 195.384 383.088 179.559 383.088V383.085ZM179.269 199.747C163.677 199.747 148.277 203.795 134.365 211.725C113.258 223.757 98.0999 243.288 91.6837 266.718C85.2674 290.149 88.3594 314.678 100.392 335.78C112.425 356.885 131.958 372.042 155.39 378.458C178.823 384.873 203.353 381.781 224.457 369.749C245.564 357.717 260.722 338.187 267.138 314.756C273.555 291.325 270.463 266.797 258.43 245.695C246.397 224.59 226.864 209.433 203.432 203.017C195.444 200.83 187.329 199.747 179.269 199.747Z" fill="#020D3A"/>
<path d="M62.2963 205.678C62.2963 205.678 60.8815 187.764 60.2299 182.932C59.4909 177.437 67.4606 183.189 68.9025 200.089L62.2993 205.678H62.2963Z" fill="white"/>
<path d="M62.2968 206.355C62.2093 206.355 62.1189 206.337 62.0344 206.304C61.7991 206.207 61.6392 205.984 61.6181 205.73C61.603 205.553 60.1943 187.78 59.5548 183.021C59.3889 181.79 59.6 180.942 60.1852 180.508C60.4447 180.315 61.0027 180.05 61.8594 180.433C64.4718 181.606 68.5924 188.462 69.5758 200.03C69.5939 200.25 69.5064 200.464 69.3375 200.606L62.7342 206.195C62.6105 206.301 62.4537 206.355 62.2968 206.355ZM61.0269 181.594C61.0269 181.594 61.0027 181.594 60.9967 181.597C60.9484 181.633 60.7825 181.953 60.9032 182.84C61.4462 186.866 62.5261 200.066 62.867 204.304L68.1912 199.797C67.2198 189.18 63.6211 183.138 61.5578 181.814C61.2712 181.63 61.0932 181.594 61.0238 181.594H61.0269Z" fill="#020D3A"/>
<path d="M52.6231 288.7C52.6231 288.7 63.3198 230.024 63.4556 228.072C63.5551 226.661 63.3591 225.249 62.8885 223.913C61.5129 220.007 58.6653 211.655 58.6382 209.323C58.611 206.928 60.6713 205.1 61.5853 204.406C62.1283 203.996 62.6472 203.556 63.163 203.109L67.9653 198.959C69.1599 197.979 69.7421 196.359 71.3861 196.603C74.5233 197.068 75.4434 202.446 75.4434 202.446C75.4434 202.446 78.481 200.048 80.1371 201.191C81.7932 202.337 84.5805 210.695 80.6469 219.28C76.7133 227.864 75.561 223.925 75.2533 232.832C75.1327 236.391 75.7209 270.135 75.7209 270.135C75.7209 272.931 78.6982 274.726 81.1718 273.416L102.442 262.16L109.527 298.174L71.5822 306.831C60.5868 309.341 50.6051 299.797 52.6201 288.7H52.6231Z" fill="white"/>
<path d="M68.0726 307.906C63.9007 307.906 59.8465 306.314 56.7575 303.358C52.7636 299.539 50.9688 294.013 51.9552 288.578C55.6535 268.296 62.673 229.537 62.7786 228.025C62.8721 226.707 62.6941 225.401 62.2477 224.14C60.6579 219.628 57.9853 211.704 57.9581 209.333C57.928 206.625 60.1964 204.607 61.1768 203.868C61.7198 203.458 62.2386 203.014 62.7213 202.598L67.5236 198.447C67.8554 198.176 68.142 197.841 68.4195 197.518C69.1495 196.671 69.9791 195.709 71.4904 195.932C74.1842 196.33 75.4209 199.612 75.8855 201.319C77.0408 200.598 79.08 199.633 80.531 200.634C82.6546 202.1 85.1946 211.004 81.2731 219.565C79.7075 222.982 78.5732 224.454 77.7467 225.528C76.5642 227.066 76.1208 227.639 75.9428 232.857C75.8221 236.359 76.4043 269.786 76.4104 270.124C76.4104 271.21 76.9594 272.181 77.8794 272.733C78.7995 273.285 79.9156 273.318 80.8628 272.815L102.133 261.558C102.323 261.458 102.549 261.452 102.742 261.546C102.935 261.639 103.074 261.817 103.116 262.028L110.202 298.043C110.274 298.402 110.045 298.755 109.686 298.836L71.7407 307.493C70.5221 307.77 69.2943 307.906 68.0756 307.906H68.0726ZM53.2915 288.822C52.3865 293.808 54.0336 298.875 57.6957 302.377C61.3578 305.879 66.495 307.297 71.4361 306.169L108.739 297.657L101.958 263.186L81.4963 274.015C80.1237 274.742 78.5069 274.697 77.1766 273.897C75.8463 273.095 75.0499 271.689 75.0499 270.136C75.0258 268.77 74.4617 236.347 74.5823 232.812C74.7663 227.416 75.2309 226.569 76.6668 224.701C77.4541 223.679 78.534 222.276 80.0333 219.001C83.991 210.365 80.9412 202.574 79.7557 201.753C78.8146 201.102 76.7301 202.299 75.8674 202.981C75.6804 203.129 75.427 203.168 75.2037 203.084C74.9805 202.999 74.8176 202.8 74.7784 202.565C74.5431 201.204 73.4572 197.597 71.2913 197.277C70.5522 197.169 70.151 197.588 69.4482 198.405C69.1314 198.773 68.8056 199.15 68.3984 199.488L63.6111 203.629C63.1134 204.061 62.5734 204.519 62.0003 204.954C61.1858 205.569 59.2975 207.231 59.3216 209.321C59.3397 210.887 60.9143 216.262 63.5327 223.694C64.0395 225.13 64.2416 226.62 64.136 228.125C63.9973 230.089 53.7319 286.421 53.2945 288.825L53.2915 288.822Z" fill="#020D3A"/>
<path d="M68.4388 218.396C67.8053 218.396 67.2502 218.257 66.8008 218.025C65.573 217.397 64.9697 216.052 65.2261 214.514C65.7872 211.135 68.0315 209.307 68.1281 209.232C68.4207 208.997 68.849 209.045 69.0843 209.338C69.3196 209.63 69.2713 210.059 68.9787 210.294C68.9606 210.309 67.0421 211.892 66.5685 214.74C66.4086 215.702 66.7193 216.459 67.4252 216.818C68.3995 217.319 70.3362 217.099 72.5835 214.836C76.2697 211.129 74.7343 202.313 74.7192 202.222C74.6529 201.854 74.8972 201.501 75.2682 201.435C75.6393 201.369 75.9892 201.613 76.0586 201.984C76.1279 202.373 77.7297 211.591 73.5518 215.796C71.6484 217.711 69.8535 218.399 68.4478 218.399L68.4388 218.396Z" fill="#020D3A"/>
<path d="M297.732 390.31C292.691 387.444 290.682 385.143 288.815 380.401C288.815 380.401 278.417 347.439 270.287 326.756C267.035 318.479 259.75 302.975 252.345 287.68L226.043 302.36C225.763 302.517 225.5 302.692 225.25 302.879C238.155 324.461 261.856 364.019 264.381 367.672C264.381 367.672 277.286 386.75 276.658 396.65C276.26 402.906 278.697 414.452 287.937 420.922C289.868 422.273 292.389 420.198 291.424 418.048C291.409 418.014 291.394 417.978 291.376 417.945C289.937 414.902 287.376 411.062 287.376 411.062C287.376 411.062 292.426 411.11 297.705 415.273C302.984 419.435 314.196 426.894 316.519 424.388C320.501 420.09 318.13 401.904 297.729 390.313L297.732 390.31Z" fill="white"/>
<path d="M315.09 425.549C309.72 425.549 297.865 416.259 297.289 415.803C293.868 413.107 290.526 412.199 288.728 411.894C289.606 413.282 291.033 415.625 291.995 417.655L292.046 417.77C292.613 419.037 292.284 420.43 291.204 421.32C290.122 422.213 288.689 422.276 287.551 421.477C277.594 414.503 275.63 402.161 275.983 396.605C276.589 387.049 263.95 368.239 263.82 368.049C261.313 364.421 238.213 325.875 224.668 303.223C224.49 302.924 224.566 302.541 224.843 302.333C225.136 302.113 225.419 301.926 225.715 301.763L252.016 287.082C252.179 286.992 252.372 286.971 252.55 287.028C252.728 287.086 252.876 287.212 252.958 287.381C262.086 306.233 268.131 319.396 270.921 326.506C278.963 346.974 289.358 379.864 289.464 380.193C291.283 384.814 293.216 386.961 298.07 389.715C314.83 399.238 318 412.048 318.574 415.746C319.189 419.728 318.61 423.127 317.023 424.84C316.571 425.329 315.904 425.543 315.093 425.543L315.09 425.549ZM287.379 410.38H287.386C287.6 410.38 292.728 410.48 298.127 414.736C305.346 420.424 314.468 425.6 316.025 423.92C317.313 422.53 317.774 419.477 317.231 415.957C316.682 412.41 313.63 400.122 297.397 390.901C292.284 387.996 290.134 385.601 288.185 380.648C288.064 380.274 277.684 347.427 269.657 327.003C266.909 320.009 260.985 307.096 252.047 288.621L226.376 302.951C226.303 302.99 226.234 303.033 226.162 303.078C239.739 325.785 262.472 363.715 264.942 367.286C265.479 368.079 277.974 386.675 277.337 396.695C277.003 401.986 278.867 413.74 288.33 420.367C289.087 420.898 289.865 420.669 290.339 420.274C290.812 419.881 291.183 419.167 290.806 418.325L290.767 418.244C289.361 415.276 286.836 411.475 286.812 411.439C286.674 411.231 286.662 410.959 286.779 410.739C286.897 410.519 287.126 410.383 287.376 410.383L287.379 410.38Z" fill="#020D3A"/>
<path d="M91.9344 260.235L97.5392 253.943C107.035 243.398 118.99 235.372 132.341 230.579L141.466 227.303C142.175 227.047 194.078 221.717 211.71 227.547C222.72 231.188 237.109 239.703 256.692 279.362C258.137 282.29 256.973 285.994 254.125 287.584L225.414 303.61C222.916 305.003 222.979 308.143 223.354 310.982L231.884 357.161C232.373 359.807 231.242 362.506 228.979 363.963C221.857 368.551 201.076 375.681 155.581 368.367C144.926 366.654 136.374 358.633 133.949 348.109L125.611 311.953C125.092 308.894 120.905 307.395 117.663 306.689C115.841 306.294 113.973 306.258 112.115 306.385C108.2 306.653 104.486 304.237 103.234 300.364L90.5347 267.954C89.5031 265.324 90.046 262.335 91.9374 260.235H91.9344Z" fill="white"/>
<path d="M190.906 372.174C181.304 372.174 169.615 371.312 155.467 369.037C144.493 367.273 135.784 359.117 133.281 348.261L124.943 312.105C124.46 309.269 120.08 307.912 117.51 307.354C115.945 307.013 114.243 306.923 112.153 307.064C107.851 307.357 103.909 304.691 102.578 300.576L89.8937 268.202C88.7625 265.313 89.3477 262.085 91.4231 259.781L97.0248 253.492C106.563 242.898 118.693 234.754 132.104 229.94L141.226 226.665C141.561 226.544 193.944 220.961 211.913 226.903C223.512 230.737 237.97 239.933 257.291 279.061C258.899 282.316 257.623 286.406 254.444 288.176L225.732 304.202C223.599 305.393 223.666 308.253 224.013 310.892L232.54 357.036C233.083 359.982 231.828 362.926 229.337 364.531C225.922 366.73 215.005 372.171 190.9 372.171L190.906 372.174ZM113.945 305.641C115.356 305.641 116.611 305.767 117.803 306.027C121.35 306.799 125.7 308.434 126.276 311.839L134.608 347.956C136.988 358.269 145.259 366.018 155.688 367.695C204.876 375.604 223.937 366.401 228.61 363.391C230.637 362.085 231.657 359.69 231.213 357.286L222.682 311.106C222.272 307.978 222.239 304.603 225.08 303.016L253.792 286.991C256.347 285.564 257.373 282.276 256.082 279.661C236.984 240.983 222.824 231.937 211.494 228.191C194.508 222.575 143.564 227.542 141.637 227.959L132.569 231.216C119.368 235.955 107.432 243.969 98.0444 254.394L92.4427 260.683C90.7142 262.604 90.2255 265.291 91.1667 267.699L103.866 300.109C105.019 303.668 108.385 305.951 112.068 305.698C112.729 305.653 113.353 305.632 113.948 305.632L113.945 305.641Z" fill="#020D3A"/>
<path d="M187.717 301.88C187.572 301.88 187.427 301.834 187.304 301.741C175.268 292.529 171.675 282.403 171.53 281.975C171.406 281.622 171.596 281.233 171.949 281.112C172.302 280.989 172.691 281.179 172.812 281.532C172.848 281.631 176.438 291.715 188.127 300.661C188.426 300.89 188.483 301.315 188.254 301.614C188.121 301.789 187.919 301.88 187.714 301.88H187.717Z" fill="#020D3A"/>
<path d="M144.895 300.426C144.69 300.426 144.485 300.333 144.352 300.155C135.227 288.048 134.485 277.331 134.458 276.878C134.437 276.504 134.721 276.181 135.095 276.16C135.475 276.139 135.791 276.423 135.816 276.797C135.822 276.902 136.579 287.58 145.441 299.338C145.668 299.636 145.607 300.062 145.309 300.288C145.185 300.381 145.043 300.423 144.901 300.423L144.895 300.426Z" fill="#020D3A"/>
<path d="M187.941 251.596C159 264.641 141.558 238.906 141.558 238.906C141.076 238.372 140.542 237.908 139.969 237.51L140.216 237.422C140.548 237.304 140.877 237.184 141.203 237.057C154.125 232.062 162.343 219.264 162.026 205.401L161.845 197.438L183.483 197.212C183.483 197.212 184.053 226.346 194.04 226.563L199.561 227.209C203.69 236.65 197.651 247.216 187.944 251.593L187.941 251.596Z" fill="white"/>
<path d="M171.951 255.939C153.034 255.939 141.701 240.284 141.028 239.331C140.597 238.86 140.111 238.438 139.583 238.07C139.375 237.925 139.264 237.675 139.297 237.422C139.33 237.168 139.505 236.957 139.743 236.873L139.991 236.785C140.316 236.671 140.639 236.55 140.959 236.426C153.469 231.591 161.662 219.131 161.348 205.422L161.167 197.459C161.164 197.278 161.23 197.103 161.357 196.97C161.484 196.84 161.655 196.765 161.839 196.762L183.477 196.536C183.845 196.536 184.156 196.828 184.162 197.202C184.319 205.123 186.4 225.721 194.053 225.887L199.637 226.539C199.878 226.566 200.083 226.72 200.18 226.94C204.729 237.337 197.67 247.955 188.219 252.217C182.319 254.877 176.874 255.939 171.948 255.939H171.951ZM141.345 237.735C141.598 237.962 141.837 238.203 142.066 238.453C142.087 238.477 142.108 238.502 142.123 238.529C142.166 238.592 146.521 244.926 154.292 249.592C164.666 255.821 175.894 256.289 187.661 250.983C196.4 247.044 202.982 237.358 199.088 227.848L193.96 227.248C184.265 227.04 182.976 202.439 182.823 197.908L162.539 198.119L162.705 205.395C163.031 219.677 154.488 232.659 141.448 237.699C141.411 237.714 141.378 237.726 141.342 237.741L141.345 237.735Z" fill="#020D3A"/>
<path d="M161.942 198.574L160.841 183.954C160.304 176.82 165.857 170.697 173.003 170.543L191.79 170.139C191.79 170.139 193.247 179.306 198.152 183.628L195.959 187.748L193.793 195.325C193.32 196.975 191.965 198.233 190.279 198.55L178.952 198.559L161.945 198.574H161.942Z" fill="white"/>
<path d="M161.938 199.25C161.585 199.25 161.29 198.979 161.263 198.623L160.162 184.003C159.887 180.362 161.088 176.872 163.537 174.169C165.987 171.47 169.341 169.941 172.985 169.862L191.772 169.458C192.104 169.446 192.402 169.696 192.457 170.031C192.472 170.122 193.935 179.011 198.598 183.119C198.834 183.327 198.897 183.671 198.749 183.948L196.589 188.005L194.442 195.513C193.893 197.434 192.345 198.852 190.399 199.22C190.357 199.229 190.315 199.232 190.276 199.232L178.949 199.241C178.575 199.241 178.27 198.936 178.27 198.562C178.27 198.188 178.575 197.884 178.949 197.884L190.209 197.875C191.618 197.588 192.734 196.544 193.135 195.142L195.301 187.565C195.313 187.52 195.332 187.474 195.356 187.432L197.301 183.776C193.232 179.852 191.621 172.906 191.22 170.836L173.012 171.229C169.745 171.298 166.738 172.67 164.542 175.089C162.343 177.511 161.269 180.642 161.513 183.906L162.614 198.526C162.641 198.9 162.361 199.226 161.987 199.253C161.968 199.253 161.95 199.253 161.935 199.253L161.938 199.25Z" fill="#020D3A"/>
<path d="M175.514 233.83C174.901 233.83 174.228 233.755 173.501 233.571C173.136 233.477 172.916 233.11 173.01 232.745C173.103 232.38 173.471 232.16 173.836 232.253C176.971 233.046 178.747 231.412 178.765 231.394C179.04 231.137 179.468 231.149 179.725 231.421C179.981 231.692 179.969 232.123 179.697 232.38C179.622 232.452 178.126 233.827 175.514 233.827V233.83Z" fill="#020D3A"/>
<path d="M195.529 169.024L186.084 174.034C180.54 176.975 176.733 182.392 175.864 188.612C174.649 197.308 173.608 212.371 165.324 225.082C158.911 234.921 148.085 241.002 136.368 241.741C128.646 242.23 119.512 245.153 114.631 250.087C114.631 250.087 99.096 229.76 114.704 211.916C130.311 194.074 150.836 195.236 154.881 176.296C158.751 158.171 180.854 144.74 196.446 164.563C197.592 166.02 197.17 168.152 195.535 169.018L195.529 169.024Z" fill="#020D3A"/>
<path d="M319.309 209.582C319.309 209.582 309.997 209.926 298.486 209.88C296.063 209.871 289.569 202.098 285.397 203.416C282.401 204.363 288.067 209.461 287.288 209.458C279.91 209.428 273.542 209.401 271.234 209.389C269.427 209.38 268.821 211.229 269.569 212.876C270.64 215.228 272.975 218.794 276.836 220.036C283.738 222.259 297.059 221.258 301.18 220.459C310.184 218.709 317.327 218.576 317.327 218.576L319.312 209.582H319.309Z" fill="white"/>
<path d="M288.748 222.074C284.38 222.074 279.855 221.721 276.625 220.68C272.124 219.229 269.756 214.934 268.947 213.154C268.423 211.999 268.453 210.726 269.029 209.836C269.506 209.103 270.311 208.699 271.234 208.705C273.421 208.717 279.252 208.744 286.136 208.772C286.106 208.732 286.075 208.696 286.048 208.657C284.962 207.26 283.475 205.345 283.916 203.933C284.036 203.544 284.356 203.026 285.192 202.763C288.069 201.855 291.683 204.588 294.585 206.784C296.078 207.912 297.768 209.194 298.486 209.197C309.852 209.239 319.188 208.901 319.282 208.898C319.493 208.889 319.692 208.98 319.828 209.143C319.963 209.303 320.015 209.52 319.969 209.725L317.985 218.719C317.918 219.027 317.647 219.247 317.333 219.253C317.261 219.253 310.138 219.407 301.303 221.12C299.041 221.561 294.009 222.071 288.745 222.071L288.748 222.074ZM271.216 210.066C270.742 210.066 270.389 210.238 270.169 210.575C269.846 211.073 269.852 211.863 270.184 212.59C270.92 214.207 273.059 218.101 277.041 219.386C283.831 221.573 297.134 220.547 301.047 219.787C308.606 218.318 314.938 217.98 316.772 217.911L318.452 210.289C315.867 210.37 307.864 210.596 298.476 210.557C297.306 210.551 295.74 209.369 293.762 207.87C291.107 205.861 287.804 203.363 285.596 204.06C285.261 204.166 285.222 204.295 285.207 204.341C284.977 205.074 286.477 207.001 287.116 207.825C287.906 208.844 288.205 209.224 287.958 209.725C287.834 209.978 287.575 210.135 287.282 210.135H287.279C279.901 210.105 273.53 210.078 271.225 210.066H271.213H271.216Z" fill="#020D3A"/>
<path d="M303.732 207.342C311.796 207.547 330.752 206.89 338.242 196.861C342.233 201.862 345.931 207.113 349.994 212.051C351.156 213.462 352.607 213.686 353.867 213.209C355.62 216.985 357.056 220.895 358.308 224.873C338.19 228.677 312.091 225.727 303.244 224.523C301.47 224.282 300.146 222.774 300.128 220.985L300.043 210.977C300.025 208.941 301.696 207.294 303.732 207.345V207.342Z" fill="#020D3A"/>
<path d="M196.879 94.8706L202.876 98.0619C202.632 100.749 202.614 103.419 202.819 106.052L196.801 109.171C193.824 110.715 192.312 114.115 193.163 117.357C194.014 120.6 196.997 122.823 200.348 122.708L207.142 122.473C208.264 124.889 209.588 127.208 211.093 129.407L207.431 135.132C205.624 137.956 206.017 141.657 208.376 144.039C210.734 146.422 214.43 146.857 217.274 145.08L223.024 141.491C225.184 143.008 227.494 144.353 229.929 145.511L229.621 152.295C229.47 155.646 231.657 158.653 234.891 159.537C238.125 160.424 241.543 158.949 243.117 155.99L246.309 149.994C248.996 150.235 251.666 150.256 254.299 150.051L257.419 156.069C258.963 159.046 262.363 160.557 265.606 159.706C268.848 158.856 271.072 155.872 270.957 152.521L270.722 145.732C273.138 144.61 275.458 143.285 277.657 141.78L283.382 145.442C286.206 147.249 289.907 146.857 292.29 144.498C294.673 142.139 295.107 138.444 293.331 135.6L289.741 129.851C291.258 127.691 292.604 125.381 293.762 122.946L300.546 123.254C303.895 123.405 306.905 121.218 307.789 117.985C308.676 114.751 307.201 111.334 304.242 109.759L298.245 106.568C298.489 103.88 298.507 101.211 298.302 98.5777L304.32 95.4588C307.297 93.9145 308.809 90.5151 307.958 87.2726C307.107 84.03 304.124 81.807 300.772 81.9216L293.982 82.1569C292.86 79.7408 291.536 77.4213 290.031 75.2224L293.693 69.4975C295.5 66.6742 295.107 62.9732 292.748 60.5903C290.39 58.2074 286.694 57.7731 283.85 59.5497L278.1 63.1391C275.94 61.6219 273.63 60.2766 271.195 59.1183L271.503 52.3316C271.654 48.9835 269.467 45.9733 266.233 45.0895C262.999 44.2027 259.581 45.6777 258.007 48.6367L254.815 54.6331C252.128 54.3888 249.455 54.3707 246.824 54.5758L243.705 48.5582C242.161 45.5812 238.761 44.07 235.518 44.9206C232.276 45.7712 230.052 48.7543 230.17 52.1054L230.405 58.8982C227.989 60.0202 225.669 61.3444 223.47 62.8495L217.745 59.1877C214.921 57.3809 211.22 57.7731 208.837 60.1318C206.454 62.4906 206.02 66.1856 207.796 69.0299L211.386 74.779C209.869 76.9387 208.523 79.2492 207.365 81.6833L200.581 81.3757C197.232 81.2249 194.222 83.4117 193.338 86.6452C192.451 89.8786 193.926 93.2961 196.885 94.8706H196.879ZM213.841 92.2615C219.395 71.9829 240.336 60.0474 260.613 65.5974C280.893 71.1504 292.83 92.0896 287.276 112.365C281.723 132.644 260.782 144.579 240.505 139.026C220.225 133.473 208.288 112.534 213.841 92.2585V92.2615Z" fill="#20E086"/>
<path d="M263.759 160.625C260.884 160.625 258.197 159.045 256.815 156.381L253.901 150.762C251.539 150.925 249.12 150.907 246.698 150.711L243.717 156.312C241.98 159.576 238.275 161.171 234.713 160.194C231.147 159.217 228.773 155.956 228.942 152.264L229.229 145.927C227.045 144.862 224.951 143.643 223.003 142.301L217.633 145.652C214.499 147.61 210.493 147.142 207.893 144.512C205.292 141.885 204.87 137.873 206.861 134.76L210.282 129.412C208.945 127.425 207.748 125.325 206.719 123.163L200.375 123.383C196.674 123.513 193.446 121.103 192.508 117.528C191.57 113.954 193.208 110.268 196.49 108.567L202.11 105.653C201.947 103.288 201.965 100.869 202.161 98.4471L196.559 95.467C193.296 93.7296 191.7 90.0286 192.677 86.4633C193.655 82.898 196.909 80.5272 200.608 80.6931L206.945 80.9796C208.01 78.7958 209.226 76.7055 210.571 74.754L207.22 69.385C205.262 66.248 205.73 62.2454 208.36 59.6453C210.988 57.0452 215 56.623 218.113 58.6137L223.461 62.0342C225.449 60.698 227.549 59.5005 229.711 58.472L229.491 52.1287C229.364 48.4337 231.772 45.2002 235.346 44.2621C238.921 43.3241 242.607 44.9619 244.308 48.2437L247.222 53.863C249.587 53.7002 252.007 53.7183 254.429 53.9143L257.409 48.3161C259.147 45.0524 262.848 43.4568 266.414 44.431C269.979 45.4083 272.353 48.669 272.184 52.3609L271.898 58.6982C274.082 59.7629 276.172 60.9785 278.124 62.3238L283.494 58.9727C286.631 57.0151 290.634 57.4826 293.234 60.1128C295.834 62.74 296.26 66.7517 294.266 69.8646L290.845 75.2125C292.181 77.2002 293.379 79.2996 294.407 81.4623L300.751 81.2421C304.459 81.1154 307.68 83.5224 308.618 87.0967C309.557 90.671 307.919 94.357 304.637 96.0582L299.017 98.9719C299.18 101.337 299.161 103.756 298.965 106.178L304.564 109.158C307.828 110.895 309.424 114.596 308.449 118.162C307.472 121.727 304.205 124.101 300.519 123.932L294.181 123.645C293.116 125.829 291.898 127.922 290.555 129.871L293.907 135.24C295.864 138.374 295.397 142.38 292.769 144.98C290.142 147.58 286.13 148.005 283.017 146.011L277.669 142.591C275.681 143.927 273.581 145.124 271.418 146.153L271.638 152.496C271.765 156.191 269.358 159.425 265.78 160.363C265.108 160.538 264.429 160.625 263.762 160.625H263.759ZM254.299 149.374C254.553 149.374 254.785 149.513 254.903 149.742L258.022 155.76C259.427 158.475 262.477 159.829 265.433 159.054C268.39 158.279 270.381 155.603 270.278 152.551L270.043 145.761C270.034 145.489 270.188 145.236 270.435 145.121C272.812 144.017 275.111 142.705 277.27 141.224C277.494 141.071 277.792 141.064 278.021 141.212L283.747 144.874C286.323 146.521 289.638 146.171 291.813 144.02C293.985 141.87 294.374 138.558 292.754 135.967L289.165 130.218C289.02 129.986 289.029 129.69 289.186 129.467C290.673 127.352 292.006 125.063 293.149 122.659C293.267 122.412 293.524 122.261 293.795 122.273L300.579 122.581C303.626 122.719 306.329 120.759 307.137 117.809C307.946 114.862 306.624 111.797 303.925 110.361L297.928 107.17C297.686 107.041 297.545 106.781 297.569 106.51C297.807 103.858 297.828 101.21 297.626 98.6341C297.605 98.3626 297.75 98.1032 297.991 97.9765L304.009 94.8577C306.724 93.4521 308.078 90.4026 307.3 87.4466C306.525 84.4906 303.861 82.4999 300.796 82.6024L294.006 82.8377C293.729 82.8467 293.481 82.6929 293.367 82.4456C292.263 80.0687 290.95 77.7703 289.469 75.6106C289.315 75.3844 289.309 75.0918 289.457 74.8596L293.119 69.1346C294.766 66.5587 294.413 63.2438 292.266 61.072C290.115 58.9003 286.803 58.5112 284.211 60.1309L278.462 63.7203C278.23 63.8651 277.934 63.8561 277.711 63.6992C275.596 62.2122 273.307 60.879 270.905 59.7358C270.658 59.6182 270.507 59.3648 270.519 59.0903L270.827 52.3036C270.966 49.2511 269.005 46.5545 266.055 45.7462C263.108 44.9378 260.043 46.2589 258.607 48.9585L255.415 54.9549C255.286 55.1963 255.023 55.335 254.755 55.3109C252.106 55.0726 249.458 55.0515 246.879 55.2536C246.607 55.2747 246.348 55.1329 246.221 54.8886L243.102 48.8711C241.696 46.1564 238.646 44.8021 235.69 45.5772C232.734 46.3524 230.743 49.0279 230.849 52.0804L231.084 58.8731C231.093 59.1446 230.939 59.398 230.692 59.5126C228.318 60.6166 226.016 61.9286 223.856 63.4097C223.63 63.5635 223.334 63.5695 223.105 63.4217L217.38 59.7599C214.804 58.113 211.488 58.4629 209.313 60.6135C207.142 62.7642 206.752 66.0761 208.372 68.6671L211.962 74.4162C212.107 74.6484 212.098 74.944 211.941 75.1672C210.454 77.2817 209.12 79.571 207.977 81.975C207.859 82.2224 207.603 82.3732 207.332 82.3611L200.544 82.0535C197.483 81.9147 194.795 83.8753 193.986 86.8252C193.178 89.7722 194.499 92.8368 197.199 94.2725L203.196 97.4638C203.437 97.5935 203.579 97.8529 203.555 98.1243C203.317 100.776 203.295 103.424 203.498 106C203.519 106.271 203.374 106.531 203.133 106.657L197.115 109.776C194.4 111.182 193.045 114.231 193.82 117.187C194.596 120.143 197.268 122.134 200.324 122.032L207.114 121.796C207.395 121.787 207.639 121.941 207.754 122.188C208.858 124.565 210.17 126.864 211.651 129.023C211.805 129.25 211.811 129.545 211.663 129.774L208.001 135.499C206.354 138.075 206.704 141.39 208.855 143.565C211.006 145.74 214.318 146.126 216.909 144.506L222.659 140.917C222.891 140.772 223.187 140.781 223.41 140.938C225.524 142.425 227.814 143.758 230.218 144.901C230.466 145.019 230.616 145.272 230.604 145.547L230.297 152.33C230.158 155.383 232.119 158.079 235.069 158.888C238.016 159.696 241.081 158.375 242.517 155.675L245.708 149.679C245.838 149.438 246.1 149.296 246.369 149.323C249.02 149.561 251.672 149.583 254.245 149.38C254.263 149.38 254.281 149.38 254.299 149.38V149.374ZM250.622 141.08C247.186 141.08 243.729 140.618 240.327 139.686C219.718 134.043 207.543 112.69 213.187 92.0827C218.828 71.4753 240.185 59.3014 260.794 64.945C270.776 67.6777 279.098 74.1356 284.224 83.1273C289.349 92.1189 290.667 102.567 287.934 112.548C285.201 122.529 278.742 130.851 269.75 135.976C263.823 139.354 257.262 141.08 250.619 141.08H250.622ZM214.496 92.4416C209.051 112.325 220.801 132.933 240.686 138.377C250.317 141.013 260.402 139.743 269.077 134.797C277.753 129.85 283.985 121.823 286.622 112.189C289.258 102.558 287.988 92.4748 283.041 83.7999C278.094 75.125 270.064 68.8933 260.432 66.257C240.547 60.8126 219.938 72.5611 214.493 92.4446L214.496 92.4416Z" fill="#020D3A"/>
<mask id="mask1_212_15247" style="mask-type:luminance" maskUnits="userSpaceOnUse" x="216" y="68" width="69" height="69">
<path d="M216.471 102.234C216.471 83.4333 231.713 68.1919 250.516 68.1919C269.318 68.1919 284.56 83.4333 284.56 102.234C284.56 121.035 269.318 136.276 250.516 136.276C231.713 136.276 216.471 121.035 216.471 102.234Z" fill="white"/>
</mask>
<g mask="url(#mask1_212_15247)">
<path d="M277.619 126.349C270.733 132.913 261.433 136.973 251.167 137.027C240.902 137.081 231.557 133.118 224.604 126.627C232.597 124.105 241.581 122.663 251.092 122.615C260.6 122.564 269.601 123.912 277.619 126.349Z" fill="#020D3A"/>
<path d="M228.547 100.181C231.908 88.0767 238.837 72.2049 251.832 74.1564C264.299 76.0296 270.164 89.7055 272.86 100.302C274.498 106.751 269.581 113.009 262.927 113.046L238.526 113.172C231.721 113.209 226.728 106.739 228.55 100.178L228.547 100.181Z" fill="#020D3A"/>
<path d="M239.304 86.1233C239.31 86.0932 239.322 86.0359 239.322 86.0359L261.476 85.8669C261.476 85.8669 261.485 85.9031 261.491 85.9182C261.783 87.0222 261.94 88.1865 261.946 89.39L261.98 95.8751C262.004 100.216 259.968 104.043 256.873 106.281L256.96 123.209C256.978 126.578 254.26 129.323 250.894 129.341C247.524 129.359 244.782 126.641 244.764 123.275L244.677 106.595C241.358 104.435 239.126 100.502 239.102 95.9957L239.063 88.6812C239.057 87.8034 239.141 86.9468 239.301 86.1233H239.304Z" fill="white"/>
<path d="M250.859 130.022C249.061 130.022 247.372 129.325 246.093 128.061C244.805 126.788 244.093 125.09 244.084 123.28L243.996 106.79C243.996 106.416 244.298 106.109 244.672 106.109H244.675C245.049 106.109 245.354 106.41 245.354 106.784L245.441 123.274C245.45 124.722 246.02 126.08 247.049 127.099C248.071 128.11 249.423 128.668 250.859 128.668C250.868 128.668 250.877 128.668 250.889 128.668C252.337 128.659 253.694 128.088 254.714 127.06C255.733 126.031 256.289 124.668 256.283 123.22L256.198 106.793C256.198 106.419 256.5 106.112 256.874 106.112H256.877C257.251 106.112 257.556 106.413 257.556 106.787L257.64 123.214C257.649 125.024 256.952 126.731 255.679 128.016C254.406 129.304 252.708 130.016 250.898 130.028C250.886 130.028 250.874 130.028 250.862 130.028L250.859 130.022Z" fill="#020D3A"/>
<path d="M250.51 101.07C249.092 101.07 247.774 100.503 246.797 99.4715C246.537 99.2 246.549 98.7688 246.821 98.5124C247.092 98.2561 247.524 98.2651 247.78 98.5366C248.498 99.2935 249.466 99.7097 250.507 99.7097C250.513 99.7097 250.519 99.7097 250.525 99.7097C251.572 99.7037 252.54 99.2815 253.249 98.5185C253.505 98.244 253.934 98.229 254.208 98.4823C254.483 98.7386 254.498 99.1669 254.244 99.4413C253.288 100.467 251.937 101.061 250.531 101.067C250.522 101.067 250.513 101.067 250.507 101.067L250.51 101.07Z" fill="#020D3A"/>
<path d="M250.545 109.035C243.89 109.035 238.458 103.201 238.418 95.9984L238.379 88.6839C238.361 85.3056 239.559 82.1234 241.749 79.7164C243.954 77.2973 246.901 75.955 250.047 75.9369C253.399 75.9188 256.551 77.3154 258.925 79.8702C261.287 82.4069 262.599 85.7882 262.617 89.3867L262.65 95.8717C262.677 100.984 259.923 105.678 255.631 107.828C255.296 107.997 254.886 107.862 254.72 107.527C254.551 107.192 254.687 106.782 255.024 106.616C258.855 104.697 261.317 100.484 261.293 95.8808L261.26 89.3957C261.242 86.1381 260.059 83.0856 257.932 80.7962C255.818 78.5249 253.009 77.2913 250.056 77.2973C247.296 77.3124 244.702 78.4948 242.756 80.6333C240.795 82.784 239.724 85.6434 239.74 88.6778L239.779 95.9924C239.812 102.447 244.638 107.678 250.548 107.678C250.566 107.678 250.59 107.678 250.605 107.678C250.979 107.678 251.284 107.979 251.284 108.353C251.284 108.727 250.982 109.035 250.608 109.035C250.59 109.035 250.569 109.035 250.548 109.035H250.545Z" fill="#020D3A"/>
</g>
<path d="M250.639 137.114C247.013 137.114 243.33 136.541 239.704 135.331C231.87 132.719 225.218 127.386 220.971 120.319C220.778 119.997 220.884 119.58 221.203 119.387C221.523 119.194 221.942 119.297 222.136 119.619C226.214 126.412 232.606 131.534 240.135 134.043C257.55 139.85 276.439 130.409 282.243 112.999C288.05 95.5885 278.608 76.7004 261.194 70.894C252.76 68.0828 243.734 68.7223 235.779 72.6978C227.825 76.6733 221.897 83.5082 219.086 91.9418C217.152 97.7392 216.848 103.935 218.202 109.859C218.286 110.224 218.057 110.589 217.692 110.673C217.33 110.758 216.962 110.528 216.878 110.163C215.466 103.995 215.786 97.5461 217.798 91.5135C220.724 82.7361 226.896 75.6236 235.173 71.4852C243.45 67.3469 252.844 66.6803 261.625 69.6091C279.749 75.6508 289.577 95.311 283.531 113.433C278.696 127.932 265.143 137.12 250.636 137.12L250.639 137.114Z" fill="#020D3A"/>
<path d="M120.985 70.4127C120.816 70.4127 120.647 70.3494 120.514 70.2227C120.243 69.9633 120.234 69.5319 120.493 69.2634L122.994 66.6539C123.254 66.3824 123.685 66.3734 123.953 66.6328C124.225 66.8922 124.234 67.3236 123.974 67.5921L121.474 70.2016C121.341 70.3403 121.163 70.4097 120.982 70.4097L120.985 70.4127Z" fill="#020D3A"/>
<path d="M112.231 79.548C112.062 79.548 111.893 79.4846 111.761 79.3579C111.489 79.0985 111.48 78.6671 111.739 78.3986L114.24 75.7892C114.5 75.5177 114.931 75.5086 115.199 75.7681C115.471 76.0275 115.48 76.4589 115.221 76.7274L112.72 79.3368C112.587 79.4756 112.409 79.545 112.228 79.545L112.231 79.548Z" fill="#020D3A"/>
<path d="M114.688 70.5549C114.516 70.5549 114.344 70.4885 114.211 70.3588L111.674 67.861C111.406 67.5985 111.403 67.1671 111.665 66.9017C111.928 66.6332 112.359 66.6301 112.628 66.8926L115.164 69.3904C115.433 69.6529 115.436 70.0843 115.174 70.3498C115.041 70.4855 114.866 70.5519 114.688 70.5519V70.5549Z" fill="#020D3A"/>
<path d="M123.569 79.2937C123.397 79.2937 123.225 79.2273 123.092 79.0976L120.555 76.5997C120.287 76.3373 120.284 75.9059 120.546 75.6404C120.809 75.3719 121.24 75.3689 121.508 75.6314L124.045 78.1292C124.314 78.3917 124.317 78.8231 124.054 79.0885C123.922 79.2243 123.747 79.2907 123.569 79.2907V79.2937Z" fill="#020D3A"/>
<path d="M514.233 74.9777C514.064 74.9777 513.895 74.9143 513.763 74.7876C513.491 74.5282 513.482 74.0968 513.741 73.8283L516.242 71.2189C516.502 70.9474 516.933 70.9383 517.201 71.1977C517.473 71.4572 517.482 71.8886 517.223 72.1571L514.722 74.7665C514.589 74.9053 514.411 74.9747 514.23 74.9747L514.233 74.9777Z" fill="#020D3A"/>
<path d="M505.479 84.1129C505.31 84.1129 505.141 84.0496 505.009 83.9229C504.737 83.6634 504.728 83.2321 504.988 82.9636L507.488 80.3541C507.748 80.0826 508.179 80.0736 508.447 80.333C508.719 80.5924 508.728 81.0238 508.469 81.2923L505.968 83.9018C505.835 84.0405 505.657 84.1099 505.476 84.1099L505.479 84.1129Z" fill="#020D3A"/>
<path d="M507.936 75.1162C507.764 75.1162 507.592 75.0498 507.459 74.9201L504.922 72.4222C504.654 72.1598 504.651 71.7284 504.913 71.4629C505.176 71.1944 505.607 71.1914 505.873 71.4539L508.41 73.9517C508.678 74.2142 508.681 74.6456 508.419 74.911C508.286 75.0468 508.111 75.1132 507.933 75.1132L507.936 75.1162Z" fill="#020D3A"/>
<path d="M516.817 83.8586C516.645 83.8586 516.473 83.7922 516.34 83.6625L513.803 81.1647C513.535 80.9022 513.532 80.4708 513.794 80.2054C514.057 79.9369 514.488 79.9339 514.753 80.1963L517.29 82.6942C517.559 82.9566 517.562 83.388 517.299 83.6535C517.167 83.7892 516.992 83.8556 516.814 83.8556L516.817 83.8586Z" fill="#020D3A"/>
<path d="M525.138 474.517C524.77 474.517 524.466 474.221 524.459 473.853L524.381 470.239C524.372 469.865 524.671 469.555 525.045 469.545C525.425 469.53 525.729 469.835 525.738 470.209L525.817 473.823C525.826 474.197 525.527 474.508 525.153 474.517C525.147 474.517 525.144 474.517 525.138 474.517Z" fill="#020D3A"/>
<path d="M525.41 487.16C525.042 487.16 524.737 486.864 524.731 486.496L524.653 482.882C524.643 482.508 524.942 482.197 525.316 482.188C525.69 482.176 526.001 482.478 526.01 482.852L526.088 486.466C526.097 486.84 525.799 487.151 525.425 487.16C525.419 487.16 525.416 487.16 525.41 487.16Z" fill="#020D3A"/>
<path d="M517.226 479.094C516.852 479.094 516.55 478.792 516.547 478.421C516.547 478.047 516.846 477.74 517.22 477.737L520.779 477.71H520.785C521.159 477.71 521.461 478.011 521.464 478.382C521.464 478.756 521.165 479.064 520.791 479.067L517.232 479.094H517.226Z" fill="#020D3A"/>
<path d="M529.687 478.994C529.312 478.994 529.011 478.692 529.008 478.321C529.008 477.947 529.306 477.64 529.681 477.637L533.24 477.61C533.587 477.604 533.922 477.908 533.925 478.282C533.925 478.656 533.626 478.964 533.252 478.967L529.693 478.994H529.687Z" fill="#020D3A"/>
<path d="M68.8881 137.666C67.9379 137.666 66.9877 137.488 66.0767 137.135C64.0918 136.362 62.5262 134.845 61.6695 132.864C59.9229 128.816 61.7328 124.071 65.7056 122.288C67.6181 121.429 69.7448 121.374 71.6965 122.135C73.6814 122.907 75.247 124.424 76.1037 126.406C77.8503 130.454 76.0403 135.198 72.0675 136.981C71.051 137.436 69.971 137.666 68.8911 137.666H68.8881ZM68.8851 122.961C67.9922 122.961 67.1023 123.151 66.2637 123.528C62.9636 125.009 61.4644 128.954 62.9183 132.327C63.6272 133.971 64.9244 135.231 66.5684 135.868C68.1762 136.492 69.9318 136.447 71.5095 135.741C74.8066 134.26 76.3088 130.315 74.8548 126.943C74.146 125.299 72.8488 124.038 71.2048 123.401C70.4537 123.109 69.6694 122.964 68.8851 122.964V122.961Z" fill="#020D3A"/>
<path d="M556.078 450.903C555.145 450.903 554.21 450.728 553.314 450.381C551.363 449.624 549.827 448.134 548.989 446.188C547.275 442.216 549.052 437.559 552.949 435.806C554.826 434.965 556.913 434.91 558.832 435.655C560.78 436.412 562.319 437.903 563.157 439.848C564.871 443.82 563.094 448.478 559.194 450.23C558.195 450.68 557.133 450.903 556.075 450.903H556.078ZM553.508 437.046C550.283 438.494 548.814 442.355 550.238 445.651C550.931 447.262 552.201 448.49 553.809 449.117C555.384 449.729 557.1 449.684 558.642 448.993C561.869 447.546 563.335 443.685 561.915 440.388C561.221 438.777 559.951 437.547 558.343 436.922C556.768 436.31 555.052 436.355 553.511 437.049L553.508 437.046Z" fill="#020D3A"/>
<path d="M96.9003 564.176C95.8596 564.176 94.8159 563.983 93.8144 563.594C91.6365 562.747 89.92 561.085 88.9819 558.91C87.0664 554.47 89.0513 549.264 93.4102 547.306C95.5067 546.365 97.8385 546.305 99.9802 547.137C102.158 547.985 103.875 549.647 104.813 551.821C106.728 556.261 104.743 561.468 100.384 563.425C99.2683 563.926 98.0859 564.179 96.9003 564.179V564.176ZM96.8943 547.912C95.8989 547.912 94.9034 548.123 93.9652 548.546C90.282 550.199 88.6048 554.609 90.2277 558.37C91.0211 560.207 92.469 561.612 94.3061 562.327C96.104 563.027 98.0647 562.976 99.8264 562.185C103.51 560.533 105.187 556.123 103.564 552.361C102.771 550.524 101.323 549.119 99.4855 548.404C98.6439 548.078 97.7691 547.915 96.8943 547.915V547.912Z" fill="#020D3A"/>
<path d="M86.2155 92.7493C85.573 92.7493 84.9305 92.6286 84.3151 92.3903C82.9727 91.8684 81.9169 90.8427 81.3378 89.5063C80.1583 86.7732 81.383 83.5724 84.0647 82.3657C85.3558 81.7865 86.7947 81.7473 88.1159 82.2601C89.4583 82.782 90.5171 83.8077 91.0933 85.1441C92.2728 87.8773 91.048 91.078 88.3663 92.2847C87.6785 92.5924 86.9485 92.7493 86.2185 92.7493H86.2155ZM86.2155 83.2617C85.6725 83.2617 85.1326 83.3763 84.6228 83.6056C82.6138 84.5076 81.6997 86.9119 82.5866 88.9663C83.018 89.9679 83.8083 90.7341 84.8068 91.1233C85.7842 91.5034 86.852 91.4762 87.8083 91.0448C89.8173 90.1428 90.7313 87.7385 89.8444 85.6841C89.4131 84.6826 88.6227 83.9163 87.6212 83.5272C87.1627 83.3492 86.6891 83.2617 86.2125 83.2617H86.2155Z" fill="#020D3A"/>
<path d="M422.509 119.161C422.34 119.161 422.171 119.098 422.038 118.971C421.766 118.712 421.757 118.28 422.017 118.012L424.518 115.402C424.777 115.131 425.208 115.122 425.477 115.381C425.748 115.641 425.757 116.072 425.498 116.341L422.997 118.95C422.864 119.089 422.687 119.158 422.506 119.158L422.509 119.161Z" fill="#020D3A"/>
<path d="M413.757 128.289C413.588 128.289 413.419 128.225 413.286 128.099C413.014 127.839 413.005 127.408 413.265 127.139L415.766 124.53C416.025 124.258 416.456 124.249 416.725 124.509C416.996 124.768 417.005 125.2 416.746 125.468L414.245 128.078C414.113 128.216 413.935 128.286 413.754 128.286L413.757 128.289Z" fill="#020D3A"/>
<path d="M416.213 119.3C416.041 119.3 415.869 119.233 415.737 119.104L413.2 116.606C412.931 116.343 412.928 115.912 413.191 115.647C413.453 115.378 413.884 115.375 414.15 115.637L416.687 118.135C416.955 118.398 416.958 118.829 416.696 119.095C416.563 119.23 416.388 119.297 416.21 119.297L416.213 119.3Z" fill="#020D3A"/>
<path d="M425.094 128.04C424.922 128.04 424.75 127.974 424.618 127.844L422.081 125.346C421.812 125.084 421.809 124.652 422.072 124.387C422.334 124.119 422.765 124.115 423.031 124.378L425.568 126.876C425.836 127.138 425.839 127.57 425.577 127.835C425.444 127.971 425.269 128.037 425.091 128.037L425.094 128.04Z" fill="#020D3A"/>
<path d="M73.9917 532.531C70.6735 532.531 67.9707 529.832 67.9707 526.511C67.9707 523.19 70.6705 520.49 73.9917 520.49C77.313 520.49 80.0128 523.19 80.0128 526.511C80.0128 529.832 77.313 532.531 73.9917 532.531ZM73.9917 521.85C71.4216 521.85 69.3312 523.941 69.3312 526.514C69.3312 529.086 71.4216 531.174 73.9917 531.174C76.5618 531.174 78.6553 529.083 78.6553 526.514C78.6553 523.944 76.5649 521.85 73.9917 521.85Z" fill="#020D3A"/>
</svg>
