<svg width="620" height="640" viewBox="0 0 620 640" fill="none" xmlns="http://www.w3.org/2000/svg">
<path d="M208.363 540.441C217.37 533.064 226.826 526.186 236.509 519.625C256.163 506.311 276.876 494.408 297.811 482.875C308.824 476.809 320.257 471.319 331.543 465.673C342.897 459.994 354.284 454.365 365.672 448.74C376.079 443.6 386.486 438.459 396.875 433.29C420.486 353.264 446.131 262.539 441.037 262.539L53.883 251.583C44.7698 251.583 38.6556 259.016 40.2539 268.152L87.1701 536.337C88.7684 545.474 97.4832 552.906 106.597 552.906H192.753C197.832 548.616 203.221 544.653 208.363 540.441Z" fill="#20E086"/>
<path d="M452.09 252.521H61.9117C53.2998 252.521 47.5427 259.519 49.0531 268.153L95.9696 536.338C97.48 544.972 105.686 551.971 114.298 551.971H504.477C513.088 551.971 518.845 544.972 517.335 536.338L470.419 268.153C468.908 259.52 460.702 252.521 452.09 252.521Z" fill="#20E086"/>
<path d="M566.052 552.126H262.277H211.993H112.288C106.241 552.126 101.322 557.137 101.322 563.574C101.322 570.012 106.241 575.022 112.288 575.022H211.994H266.756H566.052C572.109 575.022 577.019 570.022 577.019 563.574C577.019 557.126 572.109 552.126 566.052 552.126Z" fill="#20E086"/>
<path d="M442.47 262.859H73.7178C65.579 262.859 60.138 269.375 61.5652 277.412L105.905 527.077C107.333 535.114 115.088 541.63 123.227 541.63H491.979C500.118 541.63 505.559 535.114 504.132 527.077L459.792 277.412C458.364 269.375 450.609 262.859 442.47 262.859Z" fill="#FFFFF6"/>
<path d="M566.052 576H112.288C105.592 576 100.348 570.542 100.348 563.576C100.348 556.609 105.592 551.152 112.288 551.152H122.141C122.679 551.152 123.115 551.589 123.115 552.128C123.115 552.667 122.679 553.104 122.141 553.104H112.288C106.684 553.104 102.295 557.704 102.295 563.576C102.295 569.448 106.684 574.047 112.288 574.047H566.052C571.655 574.047 576.044 569.448 576.044 563.576C576.044 557.704 571.655 553.104 566.052 553.104H203.512C202.974 553.104 202.538 552.667 202.538 552.128C202.538 551.589 202.974 551.152 203.512 551.152H566.052C572.747 551.152 577.992 556.609 577.992 563.576C577.992 570.542 572.747 576 566.052 576Z" fill="#020D3A"/>
<path d="M116.835 540.665H436.974L374 182.853H65.1769C59.2733 182.853 54.801 188.198 55.8267 194.026L116.835 540.665Z" fill="white"/>
<path opacity="0.2" d="M265.065 417.077H394.802C397.436 417.077 399.432 414.692 398.974 412.092L382.798 320.183C382.441 318.154 380.682 316.675 378.627 316.675H248.89C246.256 316.675 244.26 319.059 244.718 321.659L260.894 413.568C261.251 415.597 263.01 417.077 265.065 417.077Z" fill="#20E086"/>
<path opacity="0.2" d="M245.904 306.426H373.825C377.015 306.426 379.432 303.538 378.878 300.389L363.017 210.273C362.585 207.815 360.455 206.023 357.965 206.023H230.044C226.854 206.023 224.437 208.911 224.992 212.06L240.852 302.176C241.285 304.634 243.415 306.426 245.904 306.426Z" fill="#20E086"/>
<path opacity="0.2" d="M117.461 416.874H244.915C248.248 416.874 250.773 413.858 250.194 410.567L234.414 320.911C233.962 318.344 231.737 316.472 229.136 316.472H101.682C98.3487 316.472 95.8242 319.488 96.4033 322.779L112.183 412.435C112.634 415.002 114.86 416.874 117.461 416.874Z" fill="#20E086"/>
<path d="M95.3403 306.224H228.143C229.838 306.224 231.123 304.69 230.828 303.016L214.12 208.08C213.89 206.774 212.757 205.822 211.435 205.822H78.6315C76.9362 205.822 75.6519 207.357 75.9465 209.03L92.6551 303.966C92.8851 305.272 94.0172 306.224 95.3403 306.224Z" fill="#20E086"/>
<path opacity="0.2" d="M136.298 527.82H413.863C416.72 527.82 418.884 525.234 418.388 522.413L402.339 431.225C401.951 429.023 400.043 427.418 397.813 427.418H120.249C117.391 427.418 115.227 430.005 115.724 432.825L131.773 524.014C132.16 526.215 134.068 527.82 136.298 527.82Z" fill="#20E086"/>
<path d="M86.9747 351.852C86.5106 351.852 86.0995 351.518 86.0166 351.044L59.1858 197.355C58.6332 194.214 59.4892 191.01 61.5342 188.567C63.5796 186.123 66.5777 184.721 69.7595 184.721L344.113 184.423C344.114 184.423 344.114 184.423 344.114 184.423C344.652 184.423 345.087 184.859 345.088 185.398C345.089 185.937 344.653 186.375 344.115 186.375L69.7601 186.674C67.1545 186.674 64.7005 187.821 63.0261 189.822C61.352 191.822 60.6514 194.444 61.1037 197.016L87.9349 350.707C88.0278 351.238 87.6733 351.744 87.1437 351.837C87.0874 351.847 87.0305 351.852 86.9747 351.852Z" fill="#020D3A"/>
<path d="M436.971 541.645C436.508 541.645 436.097 541.311 436.013 540.838L389.261 275.198C389.168 274.667 389.522 274.161 390.051 274.067C390.576 273.977 391.086 274.328 391.18 274.859L437.932 540.499C438.025 541.03 437.671 541.536 437.142 541.63C437.085 541.64 437.028 541.645 436.971 541.645Z" fill="#020D3A"/>
<path d="M141.129 275.736H121.31L120.36 286.966H104.908L113.471 226.855H127.068L162.677 286.966H147.143L141.129 275.736ZM122.27 264.548H135.167L124.036 243.7L122.27 264.548Z" fill="white"/>
<path d="M167.046 286.966L153.605 226.855H172.931C178.232 226.855 183.267 228.06 188.036 230.468C192.804 232.877 196.868 236.275 200.226 240.665C203.583 245.056 205.886 249.975 207.132 255.425L207.75 258.191C208.981 263.695 208.923 268.629 207.578 272.991C206.231 277.354 203.726 280.766 200.06 283.23C196.394 285.693 191.969 286.939 186.783 286.966H167.046ZM170.57 238.044L179.016 275.819H184.044C188.191 275.819 191.047 274.34 192.611 271.381C194.174 268.423 194.303 264.026 192.999 258.191L192.417 255.589C191.119 249.782 189.028 245.407 186.144 242.461C183.26 239.516 179.69 238.044 175.433 238.044H170.57V238.044Z" fill="white"/>
<path d="M91.7644 269.566C91.3008 269.566 90.8903 269.234 90.8066 268.76L81.5185 216.163C81.2478 214.629 81.6624 213.063 82.6571 211.866C83.6512 210.669 85.1126 209.976 86.6664 209.966L173.556 209.386C173.558 209.386 173.56 209.386 173.562 209.386C174.097 209.386 174.532 209.818 174.536 210.356C174.539 210.895 174.106 211.334 173.568 211.338L86.6793 211.919C85.7009 211.925 84.7803 212.362 84.1536 213.115C83.5273 213.869 83.266 214.856 83.4365 215.822L92.7245 268.419C92.8183 268.951 92.465 269.457 91.9354 269.551C91.8779 269.562 91.8207 269.566 91.7644 269.566Z" fill="#20E086"/>
<path d="M222.754 302.641H137.857C137.319 302.641 136.883 302.204 136.883 301.665C136.883 301.126 137.319 300.689 137.857 300.689H222.754C223.738 300.689 224.666 300.254 225.298 299.497C225.929 298.739 226.191 297.747 226.017 296.775L213.841 228.994C213.746 228.464 214.097 227.956 214.626 227.86C215.157 227.765 215.662 228.117 215.758 228.648L227.934 296.429C228.211 297.972 227.795 299.546 226.792 300.749C225.789 301.951 224.317 302.641 222.754 302.641Z" fill="#20E086"/>
<path d="M569.439 229.433C569.19 229.433 568.94 229.337 568.75 229.146C568.37 228.765 568.37 228.147 568.75 227.766L571.235 225.277C571.615 224.897 572.232 224.897 572.613 225.278C572.992 225.659 572.993 226.277 572.612 226.659L570.127 229.147C569.937 229.337 569.688 229.433 569.439 229.433Z" fill="#20E086"/>
<path d="M560.743 238.142C560.494 238.142 560.244 238.047 560.054 237.857C559.674 237.475 559.675 236.857 560.055 236.476L562.54 233.988C562.92 233.608 563.537 233.608 563.917 233.989C564.297 234.371 564.297 234.988 563.917 235.37L561.432 237.857C561.242 238.047 560.993 238.142 560.743 238.142Z" fill="#20E086"/>
<path d="M571.924 238.142C571.674 238.142 571.425 238.047 571.235 237.857L568.75 235.37C568.37 234.988 568.37 234.371 568.75 233.989C569.13 233.608 569.747 233.608 570.127 233.988L572.612 236.476C572.993 236.857 572.992 237.475 572.613 237.857C572.422 238.047 572.173 238.142 571.924 238.142Z" fill="#20E086"/>
<path d="M563.228 229.432C562.979 229.432 562.73 229.337 562.54 229.147L560.055 226.659C559.675 226.277 559.674 225.659 560.054 225.278C560.435 224.897 561.052 224.897 561.432 225.277L563.917 227.766C564.297 228.147 564.297 228.765 563.917 229.146C563.727 229.337 563.477 229.432 563.228 229.432Z" fill="#20E086"/>
<path d="M227.454 141.511C227.205 141.511 226.956 141.416 226.766 141.226C226.385 140.844 226.385 140.226 226.766 139.846L229.25 137.357C229.631 136.976 230.248 136.976 230.628 137.357C231.008 137.738 231.008 138.357 230.627 138.737L228.143 141.226C227.953 141.416 227.704 141.511 227.454 141.511Z" fill="#20E086"/>
<path d="M218.759 150.222C218.509 150.222 218.26 150.127 218.07 149.936C217.69 149.554 217.69 148.936 218.071 148.555L220.555 146.067C220.936 145.687 221.552 145.687 221.932 146.068C222.313 146.45 222.312 147.067 221.932 147.449L219.447 149.936C219.257 150.127 219.008 150.222 218.759 150.222Z" fill="#20E086"/>
<path d="M229.939 150.221C229.689 150.221 229.441 150.126 229.25 149.936L226.766 147.449C226.386 147.067 226.385 146.449 226.765 146.068C227.145 145.687 227.762 145.687 228.142 146.067L230.627 148.555C231.007 148.936 231.008 149.555 230.627 149.936C230.437 150.126 230.188 150.221 229.939 150.221Z" fill="#20E086"/>
<path d="M221.244 141.511C220.995 141.511 220.745 141.416 220.555 141.226L218.071 138.738C217.69 138.356 217.69 137.738 218.07 137.357C218.451 136.976 219.067 136.976 219.447 137.356L221.932 139.845C222.313 140.226 222.313 140.844 221.933 141.226C221.742 141.416 221.493 141.511 221.244 141.511Z" fill="#20E086"/>
<path d="M93.4158 131.732C93.1401 131.732 92.8662 131.615 92.6733 131.389C92.3248 130.977 92.3749 130.361 92.7848 130.012C125.68 101.988 174.901 83.4238 231.381 77.7415C231.919 77.6741 232.394 78.0783 232.448 78.6154C232.501 79.152 232.111 79.6306 231.576 79.6838C175.485 85.3274 126.643 103.729 94.046 131.5C93.8632 131.656 93.6391 131.732 93.4158 131.732Z" fill="#20E086"/>
<path d="M314.988 80.6755C314.949 80.6755 314.909 80.6728 314.869 80.6684C292.275 77.9214 269.474 77.1782 247.098 78.4609C246.568 78.4763 246.1 78.0801 246.07 77.5418C246.039 77.0034 246.45 76.542 246.987 76.5115C269.477 75.2217 292.395 75.9687 315.104 78.7299C315.638 78.7947 316.018 79.2816 315.954 79.817C315.894 80.3118 315.474 80.6755 314.988 80.6755Z" fill="#20E086"/>
<path d="M121.182 128.012C120.882 128.012 120.587 127.874 120.396 127.613C120.078 127.178 120.171 126.568 120.604 126.249C129.301 119.848 139.114 114.127 149.768 109.242C150.257 109.017 150.836 109.234 151.059 109.724C151.283 110.214 151.068 110.793 150.579 111.018C140.044 115.847 130.347 121.501 121.757 127.822C121.583 127.95 121.381 128.012 121.182 128.012Z" fill="#20E086"/>
<path d="M166.033 104.658C165.633 104.658 165.258 104.409 165.116 104.01C164.935 103.503 165.198 102.945 165.704 102.762C201.681 89.8556 247.227 84.6002 297.413 87.5615C297.95 87.5934 298.36 88.0546 298.328 88.5933C298.297 89.1316 297.838 89.5523 297.299 89.5106C247.372 86.5658 202.093 91.7828 166.361 104.601C166.253 104.64 166.142 104.658 166.033 104.658Z" fill="#20E086"/>
<path d="M82.3586 145.822C82.1508 145.822 81.9437 145.755 81.7709 145.624C81.4669 145.394 81.3251 145.006 81.4082 144.633L83.6388 134.619C83.7101 134.298 83.9375 134.035 84.2439 133.919C84.5508 133.802 84.8947 133.848 85.1598 134.04C88.5681 136.512 91.7499 139.341 91.7815 139.369C92.0188 139.581 92.1386 139.896 92.1017 140.212C92.0648 140.529 91.8767 140.807 91.5972 140.958L82.8213 145.705C82.6759 145.783 82.517 145.822 82.3586 145.822ZM85.2132 136.51L83.7738 142.971L89.4289 139.912C88.4572 139.083 86.9126 137.799 85.2132 136.51Z" fill="#20E086"/>
<path d="M577.079 199.748C576.927 199.748 576.773 199.712 576.628 199.637L554.23 187.922C553.753 187.672 553.569 187.083 553.817 186.604C554.067 186.126 554.656 185.942 555.132 186.19L577.53 197.906C578.007 198.156 578.191 198.745 577.943 199.223C577.769 199.557 577.43 199.748 577.079 199.748Z" fill="#20E086"/>
<path d="M558.576 134.338C558.183 134.338 557.814 134.099 557.666 133.709C557.474 133.205 557.726 132.642 558.229 132.45L578.679 124.639C579.182 124.447 579.745 124.699 579.936 125.203C580.127 125.708 579.876 126.271 579.373 126.463L558.922 134.274C558.808 134.317 558.691 134.338 558.576 134.338Z" fill="#20E086"/>
<path d="M577.08 160.695C577.046 160.695 577.011 160.694 576.976 160.69L558.474 158.738C557.939 158.682 557.551 158.201 557.607 157.665C557.663 157.129 558.141 156.755 558.678 156.797L577.18 158.749C577.715 158.805 578.103 159.286 578.047 159.822C577.994 160.323 577.572 160.695 577.08 160.695Z" fill="#20E086"/>
<path d="M536.06 538.692C535.74 538.692 535.426 538.534 535.24 538.242C534.95 537.789 535.082 537.185 535.534 536.894C565.236 517.794 574.956 481.39 561.536 439.515C561.371 439.001 561.653 438.451 562.165 438.287C562.679 438.12 563.225 438.406 563.39 438.917C569.803 458.929 571.025 478.504 566.921 495.525C562.534 513.723 552.044 528.597 536.586 538.538C536.423 538.642 536.24 538.692 536.06 538.692Z" fill="#20E086"/>
<path d="M536.452 524.35C536.209 524.35 535.966 524.26 535.778 524.078C535.39 523.705 535.378 523.086 535.751 522.698C549.437 508.423 556.055 488.734 554.888 465.76C554.861 465.221 555.274 464.763 555.811 464.735C556.34 464.719 556.806 465.122 556.833 465.661C558.028 489.186 551.223 509.377 537.154 524.051C536.963 524.25 536.708 524.35 536.452 524.35Z" fill="#20E086"/>
<path d="M350.385 449.454C349.862 449.454 349.429 449.037 349.413 448.508C349.396 447.969 349.818 447.518 350.356 447.502C352.875 447.423 355.441 447.174 357.98 446.765C358.512 446.674 359.011 447.041 359.096 447.573C359.182 448.105 358.821 448.607 358.29 448.692C355.668 449.115 353.019 449.371 350.416 449.454C350.406 449.454 350.395 449.454 350.385 449.454ZM342.612 449.184C342.579 449.184 342.546 449.182 342.513 449.179C339.928 448.918 337.307 448.48 334.723 447.879C334.199 447.757 333.873 447.232 333.994 446.707C334.116 446.182 334.637 445.853 335.163 445.977C337.668 446.559 340.206 446.983 342.709 447.237C343.244 447.291 343.634 447.769 343.58 448.306C343.529 448.809 343.106 449.184 342.612 449.184ZM365.73 446.99C365.308 446.99 364.92 446.714 364.796 446.287C364.645 445.769 364.942 445.228 365.458 445.076C367.931 444.354 370.355 443.474 372.664 442.463C373.157 442.246 373.731 442.473 373.946 442.967C374.162 443.461 373.937 444.036 373.444 444.252C371.06 445.298 368.556 446.205 366.003 446.951C365.912 446.977 365.821 446.99 365.73 446.99ZM327.484 445.693C327.375 445.693 327.264 445.675 327.155 445.636C324.752 444.771 322.307 443.744 319.887 442.583C319.402 442.351 319.197 441.767 319.429 441.281C319.661 440.795 320.242 440.588 320.728 440.821C323.089 441.954 325.473 442.955 327.814 443.798C328.32 443.981 328.583 444.54 328.401 445.047C328.258 445.445 327.884 445.693 327.484 445.693ZM379.955 440.718C379.63 440.718 379.311 440.554 379.126 440.255C378.843 439.796 378.986 439.194 379.443 438.911C381.656 437.54 383.725 436.019 385.593 434.391C385.999 434.036 386.615 434.08 386.967 434.487C387.32 434.894 387.277 435.511 386.871 435.864C384.924 437.562 382.769 439.146 380.467 440.572C380.308 440.671 380.131 440.718 379.955 440.718ZM313.439 439.004C313.271 439.004 313.101 438.96 312.945 438.869C310.774 437.589 308.546 436.163 306.322 434.632C305.878 434.327 305.766 433.719 306.07 433.274C306.375 432.83 306.981 432.716 307.425 433.022C309.611 434.528 311.801 435.928 313.933 437.186C314.397 437.459 314.551 438.057 314.279 438.522C314.098 438.831 313.772 439.004 313.439 439.004ZM429.727 436.241C429.196 436.241 428.761 435.813 428.753 435.279C428.745 434.74 429.175 434.297 429.712 434.288C432.356 434.249 434.941 434.099 437.398 433.841C437.934 433.787 438.411 434.175 438.467 434.711C438.523 435.247 438.135 435.728 437.6 435.784C435.086 436.046 432.442 436.2 429.741 436.241C429.736 436.241 429.731 436.241 429.727 436.241ZM421.941 436.069C421.923 436.069 421.905 436.068 421.886 436.068C419.407 435.929 416.778 435.706 414.07 435.405C413.535 435.345 413.15 434.863 413.209 434.327C413.268 433.79 413.759 433.404 414.284 433.464C416.958 433.761 419.551 433.981 421.995 434.118C422.532 434.148 422.943 434.609 422.913 435.147C422.884 435.667 422.454 436.069 421.941 436.069ZM445.188 434.58C444.738 434.58 444.334 434.265 444.237 433.806C444.124 433.278 444.46 432.76 444.987 432.648C447.489 432.116 449.979 431.436 452.388 430.628C452.902 430.458 453.45 430.734 453.621 431.245C453.792 431.757 453.516 432.31 453.006 432.481C450.527 433.312 447.965 434.011 445.391 434.558C445.323 434.572 445.255 434.58 445.188 434.58ZM406.462 434.319C406.406 434.319 406.349 434.315 406.292 434.305C403.701 433.847 401.112 433.3 398.6 432.677C398.078 432.548 397.759 432.019 397.888 431.496C398.018 430.973 398.548 430.653 399.067 430.782C401.537 431.394 404.082 431.932 406.63 432.381C407.16 432.475 407.514 432.981 407.42 433.512C407.337 433.986 406.926 434.319 406.462 434.319ZM391.34 430.556C391.24 430.556 391.137 430.541 391.037 430.508C388.467 429.663 385.984 428.729 383.66 427.73C383.166 427.518 382.937 426.944 383.148 426.448C383.36 425.952 383.934 425.723 384.427 425.935C386.549 426.846 388.809 427.705 391.147 428.487C392.601 426.577 393.845 424.552 394.85 422.461C395.084 421.974 395.666 421.772 396.15 422.005C396.635 422.239 396.838 422.822 396.605 423.308C395.469 425.673 394.044 427.956 392.371 430.092C392.219 430.287 392.008 430.408 391.783 430.449C391.647 430.518 391.496 430.556 391.34 430.556ZM300.583 430.193C300.375 430.193 300.166 430.126 299.988 429.989C298.018 428.461 295.971 426.796 293.903 425.039C293.493 424.69 293.443 424.074 293.79 423.663C294.137 423.25 294.752 423.2 295.163 423.549C297.208 425.288 299.233 426.935 301.18 428.444C301.605 428.774 301.683 429.388 301.354 429.814C301.163 430.063 300.875 430.193 300.583 430.193ZM459.931 429.649C459.562 429.649 459.21 429.439 459.046 429.082C458.821 428.592 459.034 428.012 459.522 427.786C461.771 426.746 464.064 425.544 466.338 424.213C466.801 423.942 467.398 424.099 467.67 424.565C467.94 425.03 467.784 425.628 467.319 425.9C464.992 427.262 462.643 428.493 460.339 429.559C460.206 429.62 460.067 429.649 459.931 429.649ZM377.056 424.359C376.893 424.359 376.728 424.319 376.576 424.233C374.175 422.869 371.95 421.395 369.964 419.851C369.539 419.52 369.461 418.907 369.791 418.481C370.121 418.054 370.733 417.977 371.157 418.308C373.07 419.795 375.216 421.216 377.536 422.533C378.004 422.799 378.169 423.395 377.904 423.864C377.724 424.181 377.395 424.359 377.056 424.359ZM473.391 421.832C473.082 421.832 472.778 421.685 472.589 421.412C472.283 420.968 472.394 420.36 472.836 420.053C474.85 418.656 476.941 417.107 479.053 415.45C479.476 415.118 480.088 415.192 480.42 415.616C480.752 416.041 480.677 416.655 480.254 416.987C478.112 418.668 475.989 420.24 473.944 421.658C473.775 421.776 473.583 421.832 473.391 421.832ZM288.679 420.112C288.445 420.112 288.211 420.028 288.024 419.859C286.181 418.179 284.31 416.428 282.305 414.506C281.916 414.134 281.902 413.516 282.273 413.126C282.645 412.736 283.262 412.722 283.65 413.095C285.644 415.005 287.503 416.745 289.334 418.413C289.732 418.776 289.761 419.393 289.4 419.793C289.208 420.005 288.944 420.112 288.679 420.112ZM398.277 416.504C398.207 416.504 398.136 416.497 398.065 416.481C397.54 416.364 397.209 415.842 397.326 415.316C397.862 412.899 398.134 410.373 398.134 407.809C398.134 407.27 398.57 406.821 399.108 406.821C399.646 406.821 400.082 407.246 400.082 407.785C400.082 410.516 399.794 413.184 399.227 415.741C399.126 416.195 398.723 416.504 398.277 416.504ZM364.878 414.733C364.607 414.733 364.336 414.62 364.144 414.399C362.325 412.314 360.807 410.085 359.63 407.773C359.385 407.293 359.576 406.705 360.055 406.46C360.532 406.216 361.121 406.405 361.365 406.886C362.469 409.054 363.897 411.15 365.61 413.114C365.965 413.52 365.924 414.137 365.518 414.492C365.334 414.654 365.105 414.733 364.878 414.733ZM485.679 412.244C485.402 412.244 485.128 412.127 484.935 411.899C484.587 411.487 484.639 410.871 485.05 410.522L486.084 409.646C487.65 408.321 489.292 406.93 490.991 405.471C491.398 405.12 492.014 405.168 492.364 405.578C492.713 405.987 492.666 406.604 492.258 406.954C490.555 408.416 488.91 409.81 487.341 411.137L486.307 412.013C486.124 412.169 485.901 412.244 485.679 412.244ZM277.39 409.325C277.143 409.325 276.895 409.23 276.706 409.042C274.854 407.207 273.014 405.361 271.185 403.514C270.806 403.131 270.808 402.513 271.19 402.133C271.571 401.753 272.188 401.755 272.567 402.138C274.392 403.98 276.228 405.823 278.075 407.654C278.458 408.033 278.461 408.651 278.083 409.034C277.893 409.228 277.642 409.325 277.39 409.325ZM497.495 402.047C497.228 402.047 496.962 401.937 496.769 401.722C496.41 401.32 496.445 400.703 496.845 400.343C498.877 398.521 500.744 396.796 502.553 395.067C502.943 394.696 503.559 394.711 503.931 395.101C504.302 395.491 504.287 396.109 503.898 396.481C502.073 398.224 500.191 399.963 498.144 401.799C497.958 401.965 497.726 402.047 497.495 402.047ZM398.292 401.009C397.85 401.009 397.45 400.705 397.345 400.256C396.81 397.975 395.911 395.514 394.747 393.138C394.51 392.654 394.709 392.069 395.192 391.831C395.674 391.594 396.258 391.793 396.495 392.277C397.741 394.818 398.664 397.352 399.241 399.808C399.364 400.333 399.039 400.859 398.516 400.982C398.44 401 398.366 401.009 398.292 401.009ZM358.072 400.916C357.604 400.916 357.191 400.577 357.112 400.099C356.855 398.542 356.725 396.945 356.725 395.353C356.725 394.242 356.788 393.128 356.914 392.043C356.976 391.508 357.461 391.122 357.994 391.185C358.528 391.248 358.911 391.732 358.849 392.268C358.732 393.278 358.673 394.316 358.673 395.353C358.673 396.839 358.795 398.328 359.034 399.78C359.122 400.312 358.763 400.815 358.232 400.903C358.178 400.911 358.124 400.916 358.072 400.916ZM266.393 398.253C266.142 398.253 265.891 398.156 265.7 397.964C263.861 396.102 262.029 394.254 260.203 392.432C259.822 392.051 259.82 391.434 260.2 391.052C260.579 390.669 261.196 390.668 261.577 391.048C263.406 392.873 265.241 394.724 267.085 396.59C267.463 396.973 267.46 397.591 267.078 397.97C266.888 398.159 266.64 398.253 266.393 398.253ZM508.768 391.259C508.523 391.259 508.279 391.167 508.09 390.982C507.704 390.607 507.695 389.989 508.07 389.602C509.903 387.71 511.679 385.797 513.347 383.914C513.704 383.511 514.319 383.473 514.722 383.832C515.124 384.19 515.161 384.807 514.803 385.21C513.116 387.114 511.32 389.05 509.466 390.963C509.276 391.16 509.022 391.259 508.768 391.259ZM255.325 387.242C255.082 387.242 254.839 387.151 254.65 386.969C252.626 385.014 250.774 383.268 248.989 381.634C248.592 381.27 248.565 380.653 248.927 380.255C249.29 379.857 249.906 379.83 250.303 380.192C252.101 381.839 253.965 383.595 256.001 385.563C256.388 385.937 256.4 386.555 256.027 386.943C255.836 387.143 255.581 387.242 255.325 387.242ZM391.528 387.046C391.234 387.046 390.944 386.914 390.753 386.662C389.145 384.549 387.392 382.705 385.543 381.181C385.127 380.838 385.067 380.223 385.408 379.807C385.75 379.39 386.362 379.329 386.779 379.672C388.745 381.292 390.603 383.246 392.301 385.478C392.628 385.907 392.545 386.52 392.118 386.846C391.941 386.981 391.734 387.046 391.528 387.046ZM359.958 385.639C359.818 385.639 359.676 385.609 359.541 385.545C359.055 385.313 358.849 384.731 359.08 384.244C360.337 381.591 362.029 379.421 364.109 377.794C364.535 377.462 365.146 377.538 365.476 377.963C365.807 378.388 365.731 379.001 365.307 379.333C363.468 380.772 361.964 382.706 360.838 385.082C360.672 385.434 360.322 385.639 359.958 385.639ZM519.102 379.57C518.888 379.57 518.674 379.5 518.494 379.355C518.074 379.018 518.007 378.403 518.343 377.982C519.974 375.943 521.546 373.862 523.014 371.801C523.327 371.361 523.936 371.26 524.372 371.573C524.81 371.886 524.912 372.496 524.599 372.934C523.11 375.026 521.517 377.136 519.862 379.204C519.67 379.445 519.388 379.57 519.102 379.57ZM379.473 377.472C379.363 377.472 379.25 377.453 379.14 377.413C377.378 376.771 375.599 376.446 373.852 376.446C373.851 376.446 373.849 376.446 373.848 376.446C373.213 376.446 372.573 376.489 371.945 376.574C371.412 376.649 370.922 376.27 370.85 375.736C370.778 375.202 371.152 374.71 371.685 374.639C372.399 374.542 373.127 374.493 373.847 374.493C373.849 374.493 373.851 374.493 373.852 374.493C375.827 374.493 377.83 374.858 379.805 375.578C380.311 375.762 380.572 376.322 380.389 376.828C380.245 377.226 379.871 377.472 379.473 377.472ZM243.794 376.73C243.572 376.73 243.349 376.654 243.167 376.5C241.451 375.05 239.76 373.682 238.139 372.437C237.801 372.177 237.461 371.917 237.118 371.658C236.689 371.332 236.604 370.72 236.928 370.29C237.252 369.859 237.863 369.774 238.292 370.099C238.639 370.362 238.983 370.625 239.325 370.887C240.968 372.151 242.683 373.537 244.422 375.008C244.833 375.355 244.886 375.971 244.539 376.383C244.346 376.612 244.071 376.73 243.794 376.73ZM231.377 367.294C231.187 367.294 230.996 367.239 230.827 367.123C228.714 365.671 226.531 364.24 224.34 362.872C223.883 362.587 223.744 361.984 224.028 361.527C224.312 361.069 224.913 360.929 225.37 361.214C227.585 362.598 229.791 364.044 231.929 365.512C232.372 365.817 232.485 366.425 232.181 366.869C231.993 367.146 231.688 367.294 231.377 367.294ZM528.143 366.857C527.966 366.857 527.788 366.809 527.627 366.708C527.171 366.422 527.033 365.819 527.319 365.363C528.692 363.167 530.002 360.916 531.213 358.673C531.468 358.198 532.058 358.02 532.533 358.278C533.006 358.535 533.182 359.128 532.926 359.602C531.696 361.882 530.364 364.169 528.969 366.4C528.784 366.695 528.467 366.857 528.143 366.857ZM218.152 359.034C217.99 359.034 217.825 358.993 217.674 358.908C215.428 357.636 213.129 356.403 210.842 355.242C210.363 354.999 210.17 354.411 210.413 353.93C210.657 353.449 211.242 353.256 211.722 353.501C214.036 354.674 216.361 355.922 218.631 357.207C219.1 357.473 219.265 358.069 219.001 358.538C218.821 358.856 218.491 359.034 218.152 359.034ZM535.541 353.126C535.406 353.126 535.268 353.098 535.137 353.038C534.648 352.814 534.432 352.235 534.656 351.744C535.726 349.396 536.722 346.992 537.618 344.599C537.807 344.094 538.371 343.839 538.871 344.028C539.375 344.217 539.63 344.78 539.441 345.284C538.53 347.72 537.516 350.166 536.427 352.555C536.264 352.914 535.911 353.126 535.541 353.126ZM204.243 351.98C204.11 351.98 203.975 351.953 203.846 351.895C201.466 350.825 199.062 349.817 196.7 348.898C196.198 348.703 195.95 348.137 196.145 347.635C196.34 347.132 196.904 346.883 197.405 347.078C199.797 348.009 202.232 349.031 204.642 350.113C205.133 350.333 205.352 350.911 205.132 351.403C204.97 351.765 204.615 351.98 204.243 351.98ZM122.309 351.418C121.998 351.418 121.693 351.27 121.505 350.994C121.201 350.549 121.314 349.942 121.757 349.636C123.933 348.14 126.226 346.781 128.571 345.596C129.05 345.355 129.637 345.547 129.879 346.029C130.121 346.511 129.927 347.097 129.447 347.34C127.18 348.485 124.964 349.799 122.859 351.247C122.69 351.363 122.499 351.418 122.309 351.418ZM189.715 346.337C189.615 346.337 189.514 346.322 189.414 346.29C186.921 345.477 184.424 344.747 181.995 344.119C181.474 343.985 181.161 343.452 181.295 342.93C181.429 342.408 181.959 342.09 182.481 342.228C184.949 342.866 187.484 343.607 190.016 344.432C190.527 344.599 190.807 345.15 190.641 345.663C190.507 346.075 190.125 346.337 189.715 346.337ZM136.181 344.41C135.777 344.41 135.4 344.157 135.261 343.753C135.084 343.243 135.354 342.687 135.862 342.511C138.316 341.66 140.881 340.952 143.486 340.405C144.012 340.293 144.529 340.633 144.639 341.16C144.749 341.687 144.411 342.205 143.885 342.316C141.361 342.846 138.875 343.533 136.499 344.357C136.394 344.393 136.286 344.41 136.181 344.41ZM174.637 342.462C174.578 342.462 174.519 342.457 174.46 342.446C171.885 341.969 169.319 341.598 166.833 341.341C166.297 341.286 165.908 340.806 165.964 340.269C166.019 339.733 166.503 339.352 167.032 339.398C169.57 339.661 172.187 340.04 174.812 340.525C175.341 340.623 175.691 341.132 175.594 341.663C175.507 342.133 175.098 342.462 174.637 342.462ZM151.385 341.188C150.888 341.188 150.463 340.807 150.417 340.3C150.368 339.763 150.763 339.288 151.299 339.239C153.853 339.006 156.509 338.906 159.176 338.937C159.713 338.943 160.144 339.386 160.138 339.925C160.132 340.464 159.677 340.905 159.153 340.89C156.553 340.858 153.963 340.957 151.475 341.184C151.445 341.187 151.415 341.188 151.385 341.188ZM541.006 338.518C540.914 338.518 540.821 338.506 540.729 338.478C540.213 338.325 539.919 337.782 540.072 337.264C540.799 334.803 541.449 332.284 542.001 329.775C542.117 329.249 542.637 328.919 543.162 329.032C543.687 329.149 544.019 329.67 543.903 330.196C543.341 332.75 542.68 335.314 541.939 337.82C541.814 338.244 541.426 338.518 541.006 338.518ZM544.367 323.289C544.319 323.289 544.27 323.286 544.222 323.279C543.69 323.199 543.323 322.703 543.403 322.169C543.777 319.646 544.072 317.059 544.279 314.483C544.322 313.944 544.798 313.549 545.327 313.588C545.864 313.631 546.263 314.101 546.22 314.639C546.01 317.26 545.71 319.89 545.328 322.457C545.257 322.942 544.841 323.289 544.367 323.289ZM545.62 307.742C545.614 307.742 545.609 307.742 545.604 307.742C545.065 307.733 544.637 307.289 544.645 306.75C544.655 306.114 544.66 305.474 544.66 304.832C544.66 302.914 544.616 300.952 544.526 299.002C544.502 298.464 544.917 298.007 545.455 297.983C546.003 297.955 546.448 298.375 546.472 298.913C546.563 300.894 546.608 302.885 546.608 304.832C546.608 305.484 546.603 306.134 546.593 306.78C546.584 307.314 546.15 307.742 545.62 307.742ZM544.915 292.147C544.423 292.147 544 291.773 543.948 291.272C543.686 288.743 543.347 286.156 542.941 283.581C542.857 283.048 543.22 282.548 543.751 282.464C544.277 282.379 544.781 282.743 544.865 283.276C545.277 285.885 545.62 288.507 545.886 291.07C545.941 291.606 545.552 292.086 545.018 292.142C544.983 292.145 544.949 292.147 544.915 292.147ZM542.489 276.723C542.038 276.723 541.634 276.407 541.538 275.947C541.017 273.46 540.423 270.916 539.772 268.387C539.638 267.865 539.951 267.333 540.471 267.198C540.993 267.063 541.523 267.376 541.657 267.899C542.316 270.457 542.917 273.03 543.444 275.547C543.554 276.075 543.217 276.592 542.69 276.703C542.623 276.717 542.556 276.723 542.489 276.723ZM538.605 261.602C538.188 261.602 537.802 261.331 537.674 260.909C537.514 260.383 537.352 259.855 537.185 259.325C537.024 258.811 537.31 258.263 537.823 258.102C538.337 257.935 538.883 258.226 539.044 258.741C539.212 259.277 539.376 259.81 539.538 260.342C539.694 260.858 539.403 261.403 538.888 261.56C538.794 261.589 538.699 261.602 538.605 261.602Z" fill="#20E086"/>
<path d="M428.915 136.07C424.042 130.447 416.584 129.066 410.906 130.435C403.719 132.168 399.935 138.24 397.268 142.521C392.552 150.091 394.63 152.948 390.972 157.316C384.493 165.054 374.867 159.798 367.089 165.356C355.224 173.836 352.732 203.772 368.074 215.67C378.304 223.604 392.672 219.638 396.581 218.559C408.444 215.284 423.378 205.584 425.896 191.893C427.979 180.571 420.791 170.878 427.339 161.536C429.007 159.157 430.347 158.538 431.623 155.539C433.696 150.667 434.382 142.378 428.915 136.07Z" fill="#020D3A"/>
<path d="M470.155 190.679C469.665 188.475 469.236 186.314 470.335 184.399L471.962 181.507C472.224 181.059 472.787 179.248 473.972 180.091C474.869 180.729 474.935 181.768 473.962 185.833C473.474 187.874 473.872 189.068 474.844 190.39C474.907 190.089 475.019 189.748 475.18 189.395C475.92 187.776 477.422 186.634 479.161 186.275C481.326 185.828 484.809 185.467 485.734 188.065C486.378 189.873 485.629 193.056 482.382 195.136C481.621 195.624 477.717 197.493 477.717 197.493C465.757 212.794 448.004 224.319 425.074 200.052L419.439 179.015C445.131 210.767 470.719 193.216 470.155 190.679Z" fill="white"/>
<path d="M451.006 215.035C442.301 215.036 433.345 210.226 424.366 200.723C424.255 200.605 424.175 200.462 424.133 200.305L418.498 179.267C418.379 178.823 418.587 178.355 418.996 178.145C419.406 177.935 419.905 178.042 420.195 178.399C435.442 197.242 450.226 197.716 457.681 196.322C464.6 195.028 468.706 191.715 469.171 190.744C468.715 188.69 468.197 186.167 469.491 183.912L471.113 181.028C471.15 180.964 471.182 180.891 471.222 180.805C471.503 180.207 471.971 179.206 472.945 178.949C473.312 178.851 473.887 178.833 474.535 179.294C476.077 180.391 475.833 182.198 474.91 186.06C474.71 186.892 474.683 187.535 474.794 188.096C475.74 186.686 477.24 185.674 478.965 185.318C484.218 184.231 486.046 186.032 486.652 187.736C487.47 190.035 486.435 193.698 482.906 195.958C482.195 196.414 479.217 197.853 478.342 198.274C469.944 208.957 461.12 214.586 452.112 215.01C451.743 215.027 451.374 215.035 451.006 215.035ZM425.95 199.559C434.844 208.913 443.618 213.462 452.02 213.059C460.487 212.661 468.875 207.221 476.95 196.89C477.042 196.772 477.161 196.676 477.297 196.611C478.844 195.87 481.336 194.647 481.857 194.313C484.703 192.491 485.301 189.754 484.816 188.393C484.312 186.977 482.474 186.585 479.357 187.231C477.893 187.533 476.662 188.494 476.064 189.801C475.94 190.074 475.847 190.347 475.797 190.589C475.718 190.966 475.426 191.262 475.051 191.344C474.675 191.423 474.288 191.28 474.06 190.97C473.004 189.536 472.423 188.075 473.014 185.605C473.873 182.016 473.816 181.178 473.407 180.887C473.254 181.061 473.064 181.468 472.985 181.635C472.915 181.786 472.853 181.912 472.802 182L471.183 184.879C470.299 186.42 470.593 188.166 471.104 190.467C471.518 192.329 467.696 194.731 465.372 195.858C459.971 198.476 441.407 204.916 421.491 182.916L425.95 199.559Z" fill="#020D3A"/>
<path d="M476.75 170.222L470.507 204.743C470.05 207.272 470.954 209.526 472.525 209.777L475.112 210.191C476.684 210.442 478.329 208.595 478.786 206.067L485.029 171.545L476.75 170.222Z" fill="#20E086"/>
<path d="M475.401 211.19C475.255 211.19 475.107 211.178 474.96 211.155L472.372 210.741C471.576 210.614 470.879 210.156 470.356 209.416C469.517 208.229 469.216 206.417 469.55 204.569L475.793 170.047C475.887 169.524 476.383 169.175 476.904 169.257L485.183 170.581C485.441 170.622 485.672 170.766 485.824 170.98C485.975 171.195 486.034 171.461 485.987 171.719L479.745 206.241C479.223 209.121 477.367 211.19 475.401 211.19ZM477.539 171.336L471.465 204.918C471.227 206.24 471.41 207.531 471.945 208.287C472.161 208.593 472.408 208.769 472.678 208.813L475.267 209.226C476.157 209.372 477.451 207.976 477.829 205.893L483.894 172.352L477.539 171.336Z" fill="#020D3A"/>
<path d="M484.478 174.6L478.786 206.067C478.329 208.595 476.684 210.442 475.112 210.19L472.525 209.777C470.954 209.525 470.05 207.272 470.507 204.743L476.349 172.396L484.478 174.6Z" fill="#20E086"/>
<path d="M475.401 211.19C475.255 211.19 475.107 211.178 474.96 211.155L472.372 210.741C471.576 210.614 470.879 210.155 470.356 209.416C469.517 208.229 469.216 206.417 469.55 204.569L475.391 172.221C475.439 171.952 475.598 171.717 475.829 171.57C476.059 171.424 476.34 171.382 476.603 171.453L484.733 173.656C485.221 173.789 485.527 174.274 485.436 174.773L479.745 206.24C479.223 209.121 477.367 211.19 475.401 211.19ZM477.118 173.616L471.465 204.917C471.227 206.24 471.41 207.531 471.945 208.287C472.161 208.592 472.408 208.769 472.678 208.812L475.267 209.226C476.157 209.374 477.451 207.975 477.829 205.892L483.36 175.308L477.118 173.616Z" fill="#020D3A"/>
<path d="M476.623 193.495C477.757 194.094 479.724 194.585 482.28 194.034C484.962 193.456 486.377 189.874 485.733 188.066C484.811 185.48 481.358 185.825 479.191 186.269C477.436 186.629 475.391 187.926 474.907 189.215C474.17 191.182 474.5 192.372 476.623 193.495Z" fill="white"/>
<path d="M480.614 197.091C480.267 197.091 479.93 196.903 479.755 196.575C479.501 196.099 479.68 195.508 480.155 195.253C480.17 195.245 480.185 195.237 480.2 195.229C480.18 195.229 480.161 195.229 480.142 195.229C478.653 195.229 477.24 194.924 476.17 194.358C473.695 193.049 473.045 191.408 473.997 188.87C474.641 187.152 477.045 185.712 478.997 185.312C482.805 184.529 485.291 185.148 486.385 187.144C486.406 187.183 486.589 187.563 486.651 187.738C487.485 190.082 486.469 193.659 482.908 195.956C482.831 196.007 482.471 196.226 481.073 196.975C480.926 197.054 480.769 197.091 480.614 197.091ZM480.934 193.245C481.437 193.245 481.863 193.633 481.903 194.145C481.907 194.191 481.908 194.237 481.904 194.282C484.862 192.346 485.262 189.647 484.816 188.393C484.774 188.279 484.657 188.045 484.657 188.045C483.886 186.64 481.364 186.82 479.387 187.225C477.887 187.532 476.154 188.666 475.82 189.558C475.263 191.041 475.37 191.728 477.078 192.631C477.432 192.818 478.748 193.414 480.856 193.249C480.882 193.247 480.908 193.245 480.934 193.245Z" fill="#020D3A"/>
<path d="M401.589 257.971C401.589 257.971 388.687 262.789 383.628 258.731C378.568 254.674 391.47 247.826 394.506 248.333C397.542 248.841 401.589 257.971 401.589 257.971Z" fill="#020D3A"/>
<path d="M466.425 361.372L454.283 382.676L447.705 373.546L458.33 352.749L466.425 361.372Z" fill="white"/>
<path d="M454.282 383.652C453.97 383.652 453.677 383.502 453.493 383.247L446.915 374.117C446.701 373.82 446.671 373.427 446.838 373.101L457.463 352.304C457.608 352.022 457.88 351.827 458.193 351.783C458.506 351.737 458.822 351.85 459.039 352.08L467.135 360.703C467.428 361.016 467.483 361.484 467.271 361.857L455.128 383.16C454.964 383.448 454.665 383.633 454.334 383.651C454.317 383.651 454.299 383.652 454.282 383.652ZM448.843 373.459L454.187 380.876L465.222 361.515L458.567 354.427L448.843 373.459Z" fill="#020D3A"/>
<path d="M458.49 379.427C455.288 386.045 447.182 402.096 439.372 409.789C437.467 411.665 434.247 410.793 433.565 408.205C431.122 398.939 429.492 379.633 438.6 364.416C438.6 364.416 442.93 363.909 451.025 365.431L449.225 373.039L450.219 372.327C451.715 371.256 453.747 371.346 455.143 372.545L457.476 374.55C458.881 375.757 459.297 377.758 458.49 379.427Z" fill="white"/>
<path d="M436.941 411.774C436.543 411.774 436.14 411.72 435.74 411.61C434.196 411.186 433.031 410.007 432.622 408.456C430.178 399.187 428.51 379.375 437.763 363.915C437.918 363.655 438.185 363.483 438.485 363.448C438.668 363.427 443.057 362.941 451.203 364.472C451.465 364.522 451.695 364.676 451.84 364.9C451.986 365.124 452.033 365.398 451.972 365.658L450.719 370.951C452.4 370.284 454.349 370.579 455.776 371.806L458.109 373.81C459.847 375.303 460.364 377.789 459.364 379.854C455.356 388.139 447.518 403.134 440.053 410.487C439.2 411.326 438.092 411.774 436.941 411.774ZM439.178 365.352C430.546 380.191 432.162 399.07 434.505 407.957C434.735 408.827 435.389 409.489 436.256 409.728C437.131 409.97 438.04 409.732 438.688 409.093C445.943 401.947 453.659 387.173 457.612 379.002C458.225 377.734 457.908 376.209 456.841 375.293L454.508 373.288C453.45 372.378 451.919 372.31 450.784 373.123L449.789 373.835C449.459 374.071 449.016 374.077 448.68 373.851C448.343 373.624 448.182 373.211 448.275 372.815L449.839 366.209C444.072 365.207 440.413 365.285 439.178 365.352Z" fill="#020D3A"/>
<path d="M438.094 407.999C437.701 407.999 437.33 407.758 437.183 407.368C430.04 388.444 439.334 366.955 439.732 366.05C439.95 365.557 440.523 365.334 441.016 365.551C441.508 365.769 441.731 366.345 441.514 366.838C441.42 367.053 432.149 388.512 439.005 406.676C439.195 407.181 438.941 407.744 438.439 407.936C438.325 407.978 438.209 407.999 438.094 407.999Z" fill="#020D3A"/>
<path d="M453.779 389.63C453.597 389.63 453.413 389.579 453.25 389.473L447.178 385.524C446.727 385.231 446.599 384.626 446.891 384.173C447.185 383.721 447.788 383.593 448.238 383.885L454.31 387.834C454.761 388.127 454.889 388.732 454.597 389.185C454.41 389.473 454.098 389.63 453.779 389.63Z" fill="#020D3A"/>
<path d="M450.742 395.035C450.534 395.035 450.327 394.969 450.15 394.833L444.584 390.55C444.157 390.222 444.077 389.609 444.405 389.181C444.732 388.754 445.343 388.672 445.77 389.001L451.335 393.284C451.762 393.612 451.842 394.225 451.515 394.653C451.323 394.903 451.034 395.035 450.742 395.035Z" fill="#020D3A"/>
<path d="M504.881 361.88C504.881 362.387 516.012 386.734 516.012 386.734L503.363 387.749L494.762 366.953L504.881 361.88Z" fill="white"/>
<path d="M503.362 388.726C502.971 388.726 502.614 388.49 502.463 388.123L493.862 367.327C493.666 366.854 493.869 366.309 494.326 366.08L504.445 361.008C504.746 360.856 505.105 360.872 505.392 361.05C505.622 361.193 505.78 361.423 505.834 361.682C506.234 362.886 512.648 377.034 516.896 386.328C517.028 386.618 517.012 386.954 516.851 387.229C516.69 387.504 516.405 387.683 516.088 387.708L503.439 388.722C503.414 388.724 503.388 388.726 503.362 388.726ZM496.009 367.419L503.991 386.719L514.546 385.873C507.664 370.809 505.234 365.306 504.375 363.226L496.009 367.419Z" fill="#020D3A"/>
<path d="M504.375 381.664C504.375 381.664 506.905 375.577 513.483 378.62C513.483 378.62 525.557 396.104 530.044 410.541C531.313 414.624 527.131 418.303 523.243 416.543C514.145 412.425 499.884 403.78 491.727 387.75C491.727 387.75 494.256 381.156 498.304 378.113L504.375 381.664Z" fill="white"/>
<path d="M525.303 417.971C524.475 417.971 523.64 417.795 522.844 417.434C512.706 412.845 498.927 404.046 490.86 388.195C490.735 387.949 490.72 387.659 490.818 387.401C490.926 387.121 493.498 380.509 497.72 377.333C498.034 377.097 498.458 377.073 498.796 377.271L504.003 380.316C504.606 379.364 505.755 377.958 507.586 377.242C509.471 376.506 511.592 376.672 513.892 377.735C514.05 377.808 514.185 377.922 514.284 378.066C514.406 378.242 526.494 395.839 530.974 410.251C531.675 412.505 531.009 414.882 529.235 416.455C528.11 417.453 526.718 417.971 525.303 417.971ZM492.799 387.705C500.637 402.802 513.877 411.232 523.645 415.654C525.097 416.31 526.744 416.057 527.945 414.992C529.136 413.936 529.584 412.342 529.115 410.832C524.995 397.578 514.243 381.477 512.835 379.4C511.139 378.665 509.619 378.551 508.31 379.055C506.222 379.862 505.283 382.022 505.274 382.043C505.164 382.302 504.949 382.501 504.683 382.589C504.417 382.678 504.126 382.649 503.885 382.508L498.392 379.295C495.437 381.826 493.375 386.345 492.799 387.705Z" fill="#020D3A"/>
<path d="M526.356 413.114C522.901 413.114 510.301 411.396 493.971 388.83C493.655 388.393 493.752 387.783 494.187 387.466C494.621 387.15 495.232 387.247 495.547 387.683C513.604 412.634 526.874 411.148 527.003 411.129C527.53 411.06 528.026 411.427 528.101 411.959C528.176 412.49 527.813 412.983 527.283 413.061C527.205 413.073 526.889 413.114 526.356 413.114Z" fill="#020D3A"/>
<path d="M516.014 399.378C515.679 399.378 515.353 399.204 515.172 398.893C514.901 398.428 515.058 397.83 515.522 397.558L521.594 394.008C522.057 393.736 522.654 393.893 522.926 394.359C523.197 394.825 523.04 395.422 522.575 395.694L516.504 399.245C516.35 399.335 516.181 399.378 516.014 399.378Z" fill="#020D3A"/>
<path d="M512.977 394.813C512.63 394.813 512.295 394.627 512.119 394.299C511.863 393.824 512.041 393.232 512.515 392.977L519.092 389.427C519.565 389.172 520.156 389.348 520.411 389.823C520.666 390.298 520.489 390.89 520.015 391.145L513.438 394.696C513.291 394.775 513.133 394.813 512.977 394.813Z" fill="#020D3A"/>
<path d="M440.119 239.131C440.119 239.131 473.096 245.034 496.861 270.015C502.859 276.321 504.979 285.397 502.405 293.72C497.126 310.794 485.633 341.977 466.429 365.43L451.756 352.75C451.756 352.75 455.298 323.33 464.911 305.07C474.524 286.81 418.363 247.246 418.363 247.246L440.119 239.131Z" fill="#020D3A"/>
<path d="M508.927 366.445L491.724 371.518C491.724 371.518 460.355 305.071 451.248 295.434C442.141 285.796 424.433 270.072 405.712 264.493C386.992 258.913 386.992 244.711 386.992 244.711L418.867 235.581C418.867 235.581 463.391 254.856 478.064 276.666C492.737 298.477 508.927 366.445 508.927 366.445Z" fill="#020D3A"/>
<path d="M508.756 366.711C508.317 366.711 507.919 366.412 507.811 365.966C506.126 359.027 490.966 297.59 477.258 277.212C471.34 268.416 459.313 258.588 442.475 248.788C442.01 248.518 441.852 247.921 442.122 247.454C442.392 246.988 442.988 246.829 443.453 247.1C460.789 257.189 472.705 266.953 478.872 276.12C492.77 296.78 508.011 358.531 509.703 365.504C509.83 366.028 509.509 366.556 508.987 366.683C508.909 366.702 508.832 366.711 508.756 366.711Z" fill="white"/>
<path d="M491.726 372.494C491.362 372.494 491.012 372.288 490.846 371.935C490.533 371.273 459.44 305.52 450.542 296.105C445.224 290.477 426.254 271.633 405.436 265.428C386.241 259.708 386.02 244.86 386.02 244.711C386.02 244.275 386.308 243.892 386.726 243.772L418.601 234.642C418.816 234.58 419.047 234.595 419.254 234.685C419.366 234.733 430.587 239.613 443.453 247.1C443.918 247.371 444.076 247.968 443.806 248.435C443.535 248.902 442.941 249.059 442.475 248.789C430.916 242.062 420.702 237.459 418.798 236.616L388.011 245.435C388.298 248.327 390.411 258.913 405.991 263.557C427.273 269.9 446.554 289.045 451.956 294.762C461.066 304.402 491.322 368.381 492.606 371.1C492.836 371.588 492.629 372.169 492.142 372.4C492.008 372.464 491.866 372.494 491.726 372.494Z" fill="white"/>
<path d="M373.822 189.572C383.312 173.081 405.773 171.812 405.773 171.812L421.348 174.318C428.926 175.036 436.364 186.764 438.198 194.17C433.888 213.643 438.069 224.842 450.535 239.521C450.535 239.521 445.173 254.786 424.873 253.525C404.573 252.263 391.044 248.768 383.25 255.717C378.111 260.298 383.974 225.102 390.964 197.648L373.822 189.572Z" fill="#20E086"/>
<path d="M440.104 234.173L428.49 230.34L420.323 234.805C420.323 234.805 373.818 233.996 390.749 198.852C390.823 198.699 374.258 197.187 374.258 197.187C374.258 197.187 360.425 243.907 419.701 238.445C419.701 238.445 422.829 239.123 426.633 236.666C430.438 234.209 437.918 237.473 440.104 234.173Z" fill="white"/>
<path d="M410.524 239.866C395.492 239.866 384.671 235.933 378.285 228.128C367.973 215.524 373.1 197.663 373.324 196.909C373.455 196.462 373.885 196.176 374.346 196.214C391.251 197.758 391.251 197.758 391.596 198.369C391.753 198.648 391.764 198.989 391.625 199.277C387.296 208.262 386.862 215.686 390.334 221.341C397.254 232.613 417.589 233.728 420.088 233.822L428.023 229.484C428.259 229.354 428.539 229.328 428.793 229.414L440.407 233.246C440.695 233.341 440.924 233.565 441.023 233.853C441.122 234.141 441.082 234.459 440.914 234.713C439.448 236.928 436.383 236.807 433.421 236.692C431.087 236.6 428.678 236.506 427.16 237.488C423.519 239.839 420.409 239.546 419.66 239.429C416.46 239.721 413.415 239.866 410.524 239.866ZM374.993 198.234C374.151 201.75 371.299 216.521 379.799 226.899C386.996 235.687 400.391 239.246 419.611 237.473C419.709 237.464 419.81 237.47 419.907 237.491C420.014 237.513 422.724 238.029 426.105 235.846C428.141 234.53 430.861 234.638 433.497 234.741C435.207 234.807 436.852 234.871 438.007 234.509L428.585 231.4L420.789 235.662C420.641 235.744 420.472 235.788 420.306 235.782C419.341 235.765 396.57 235.222 388.676 222.364C384.994 216.367 385.209 208.723 389.311 199.629C386.583 199.321 379.829 198.678 374.993 198.234Z" fill="#020D3A"/>
<path d="M393.293 201.795L370.133 197.886C369.254 197.418 376.258 183.895 377.935 184.815C378.366 185.052 386.748 191.61 386.748 191.61L394.83 193.204L393.293 201.795Z" fill="#20E086"/>
<path d="M493.513 134.631L460.29 142.188L445.996 148.368L439.19 153.662L439.141 153.706C437.871 154.582 437.153 157.534 437.431 160.959C437.706 164.345 438.905 167.116 440.281 167.824L440.229 167.828L447.409 171.797L462.415 175.451L496.743 177.285L531.182 199.245L531.441 199.363C522.807 193.723 515.449 175.948 513.701 154.433C511.955 132.943 516.338 114.271 523.937 107.347L523.931 107.34L493.898 134.286L493.513 134.631Z" fill="white"/>
<path d="M537.757 201.006C548.885 200.09 556.133 177.781 553.947 151.179C551.76 124.576 540.967 103.754 529.84 104.67C518.712 105.587 511.464 127.896 513.65 154.498C515.837 181.1 526.63 201.923 537.757 201.006Z" fill="#20E086"/>
<path d="M537.037 202.038C525.482 202.038 514.869 181.481 512.678 154.511C511.077 134.796 514.604 116.693 521.665 108.391C524.107 105.52 526.849 103.947 529.817 103.716C541.647 102.797 552.693 123.655 554.932 151.212C556.534 170.928 553.006 189.031 545.946 197.333C543.504 200.204 540.762 201.777 537.794 202.008C537.542 202.028 537.288 202.038 537.037 202.038ZM530.54 105.64C530.348 105.64 530.157 105.647 529.967 105.662C527.535 105.851 525.24 107.196 523.146 109.657C516.405 117.585 513.058 135.128 514.62 154.352C515.655 167.094 518.696 178.897 523.185 187.586C527.476 195.897 532.747 200.425 537.643 200.062C540.076 199.872 542.37 198.528 544.464 196.066C551.205 188.139 554.552 170.596 552.99 151.371C551.955 138.63 548.914 126.827 544.425 118.137C540.301 110.151 535.272 105.64 530.54 105.64Z" fill="#020D3A"/>
<path d="M536.621 194.11C526.885 194.11 517.95 176.87 516.112 154.25C514.77 137.734 517.731 122.561 523.656 115.594C525.723 113.164 528.049 111.832 530.57 111.636C537.217 111.092 543.743 118.665 547.962 131.833C548.127 132.347 547.845 132.897 547.333 133.061C546.82 133.229 546.273 132.944 546.108 132.431C542.242 120.366 536.359 113.153 530.721 113.582C528.735 113.737 526.856 114.84 525.137 116.861C519.531 123.452 516.751 138.066 518.053 154.091C519.75 174.986 528.186 192.155 536.628 192.157C536.789 192.157 536.949 192.15 537.11 192.138C544.878 191.533 550.566 176.036 550.06 156.859C550.046 156.32 550.47 155.871 551.007 155.857C551.55 155.824 551.992 156.267 552.007 156.807C552.558 177.698 546.356 193.376 537.26 194.085C537.047 194.102 536.834 194.11 536.621 194.11Z" fill="#020D3A"/>
<path d="M529.03 163.856C531.464 163.655 533.05 158.772 532.573 152.949C532.095 147.125 529.734 142.567 527.299 142.768C524.864 142.969 523.278 147.853 523.756 153.676C524.234 159.499 526.595 164.057 529.03 163.856Z" fill="#20E086"/>
<path d="M528.892 164.862C525.917 164.862 523.32 160.164 522.799 153.757C522.427 149.18 523.249 145.098 524.945 143.104C525.606 142.327 526.402 141.881 527.248 141.816C530.332 141.569 533.027 146.348 533.56 152.911C533.932 157.489 533.11 161.571 531.414 163.565C530.754 164.341 529.957 164.787 529.111 164.852C529.038 164.858 528.964 164.862 528.892 164.862ZM527.466 143.76C527.443 143.76 527.421 143.761 527.399 143.762C527.076 143.787 526.749 143.992 526.427 144.371C525.32 145.673 524.369 149.031 524.741 153.598C525.223 159.53 527.541 162.991 528.961 162.906C529.283 162.881 529.611 162.676 529.933 162.298C531.04 160.997 531.99 157.638 531.619 153.07C531.145 147.23 528.907 143.76 527.466 143.76Z" fill="#020D3A"/>
<path d="M531.439 200.341C531.305 200.341 531.168 200.312 531.038 200.253L530.779 200.136C530.737 200.116 530.697 200.095 530.659 200.07L496.435 178.247L462.362 176.428C462.302 176.425 462.243 176.416 462.184 176.402L447.178 172.748C447.094 172.727 447.014 172.696 446.938 172.654L439.758 168.685C439.675 168.639 439.602 168.583 439.538 168.518C437.939 167.447 436.746 164.575 436.459 161.04C436.151 157.248 436.965 154.082 438.533 152.941L438.543 152.932L445.398 147.598C445.463 147.548 445.534 147.506 445.61 147.473L459.904 141.293C459.958 141.269 460.015 141.251 460.074 141.237L493.05 133.736L523.281 106.613C523.679 106.257 524.291 106.287 524.651 106.685C524.825 106.876 524.918 107.133 524.906 107.391C524.894 107.65 524.783 107.897 524.591 108.071C516.972 115.014 512.985 133.614 514.671 154.355C516.332 174.806 523.446 192.978 531.971 198.546C532.398 198.825 532.539 199.386 532.294 199.834C532.118 200.155 531.785 200.341 531.439 200.341ZM462.556 174.483L496.794 176.311C496.962 176.32 497.123 176.372 497.265 176.462L524.8 194.021C518.635 185.395 514.054 170.829 512.729 154.514C511.412 138.302 513.55 123.287 518.188 113.803L494.161 135.36C494.038 135.471 493.888 135.548 493.728 135.585L460.592 143.122L446.494 149.217L439.785 154.438C439.755 154.464 439.724 154.489 439.691 154.511C438.85 155.092 438.137 157.634 438.4 160.881C438.659 164.069 439.785 166.474 440.724 166.958C440.805 166.999 440.877 167.05 440.941 167.109L447.764 170.881L462.556 174.483Z" fill="#020D3A"/>
<path d="M493.605 134.551L523.932 107.34L523.938 107.347C516.339 114.272 511.956 132.944 513.702 154.434C515.45 175.949 522.808 193.724 531.442 199.363L531.183 199.246L496.801 177.321L496.003 176.817C492.016 174.247 488.611 166.211 487.842 156.479C487.053 146.49 489.732 137.985 493.227 134.878L493.605 134.551Z" fill="#20E086"/>
<path d="M531.44 200.341C531.306 200.341 531.169 200.313 531.039 200.253L530.78 200.136C530.738 200.117 530.699 200.095 530.66 200.07L495.482 177.644C491.102 174.82 487.644 166.347 486.87 156.557C486.116 147.022 488.465 137.807 492.58 134.149L492.96 133.819L523.282 106.613C523.68 106.257 524.292 106.287 524.652 106.684C524.826 106.876 524.919 107.133 524.907 107.391C524.895 107.65 524.784 107.896 524.592 108.071C516.973 115.013 512.986 133.614 514.672 154.355C516.333 174.806 523.447 192.978 531.972 198.546C532.399 198.825 532.54 199.386 532.295 199.834C532.119 200.156 531.786 200.341 531.44 200.341ZM518.189 113.803L494.253 135.279C494.249 135.282 494.245 135.285 494.241 135.289L493.864 135.616C490.76 138.376 488.022 146.407 488.812 156.403C489.529 165.472 492.701 173.53 496.528 175.997L497.319 176.497L524.801 194.021C518.635 185.396 514.055 170.83 512.73 154.514C511.413 138.302 513.551 123.287 518.189 113.803Z" fill="#020D3A"/>
<path d="M447.02 172.561C446.861 172.561 446.7 172.522 446.551 172.44L439.758 168.685C439.675 168.639 439.602 168.583 439.538 168.519C437.939 167.447 436.746 164.575 436.459 161.04C436.151 157.248 436.965 154.082 438.533 152.941L438.543 152.932L445.398 147.598C445.822 147.268 446.435 147.345 446.765 147.771C447.095 148.198 447.017 148.811 446.592 149.142L439.785 154.438C439.755 154.465 439.724 154.489 439.692 154.511C438.85 155.093 438.137 157.634 438.4 160.881C438.659 164.069 439.786 166.474 440.725 166.958C440.805 166.999 440.877 167.05 440.941 167.109L447.491 170.73C447.962 170.99 448.134 171.584 447.874 172.056C447.696 172.378 447.363 172.561 447.02 172.561Z" fill="#020D3A"/>
<path d="M447.492 171.786C445.247 170.65 443.39 166.008 442.941 160.486C442.465 154.634 443.962 149.415 446.221 148.283L439.19 153.664L439.141 153.708C437.871 154.585 437.153 157.537 437.431 160.961C437.706 164.348 438.905 167.119 440.281 167.827L440.229 167.831L447.492 171.786Z" fill="#20E086"/>
<path d="M447.49 172.762C447.342 172.762 447.193 172.729 447.052 172.657C446.991 172.627 446.93 172.594 446.87 172.559L439.763 168.689C439.678 168.643 439.603 168.586 439.538 168.519C437.939 167.448 436.746 164.576 436.459 161.041C436.151 157.249 436.965 154.083 438.533 152.942L438.543 152.933C438.561 152.917 438.58 152.903 438.598 152.888L444.742 148.186C445.067 147.856 445.416 147.594 445.785 147.41C446.235 147.185 446.781 147.339 447.046 147.766C447.312 148.193 447.21 148.753 446.811 149.059L446.017 149.666C444.604 151.232 443.508 155.456 443.91 160.406C444.371 166.067 446.198 169.895 447.81 170.848L447.955 170.927C448.423 171.182 448.6 171.766 448.353 172.238C448.18 172.572 447.841 172.762 447.49 172.762ZM440.936 167.106L443.889 168.713C442.916 166.545 442.225 163.705 441.969 160.565C441.719 157.481 441.981 154.573 442.637 152.254L439.785 154.439C439.755 154.466 439.724 154.49 439.692 154.512C438.851 155.094 438.137 157.635 438.401 160.883C438.659 164.07 439.786 166.475 440.725 166.959C440.803 166.999 440.874 167.049 440.936 167.106Z" fill="#020D3A"/>
<path d="M461.868 175.319L462.513 175.45C458.993 174.766 455.933 167.728 455.244 159.241C454.541 150.586 456.808 143.19 460.29 142.189L459.813 142.396L446.261 148.263C443.98 149.354 442.464 154.6 442.942 160.485C443.403 166.163 445.424 170.911 447.749 171.873L461.868 175.319Z" fill="#20E086"/>
<path d="M462.513 176.427C462.452 176.427 462.389 176.421 462.327 176.409C462.306 176.405 462.287 176.401 462.267 176.397L461.673 176.276C461.661 176.274 461.648 176.271 461.636 176.268L447.518 172.821C447.469 172.81 447.422 172.795 447.376 172.775C444.644 171.645 442.471 166.737 441.969 160.564C441.456 154.244 443.084 148.7 445.84 147.382L459.131 141.627C459.418 141.465 459.715 141.339 460.021 141.25C460.514 141.109 461.033 141.376 461.207 141.861C461.38 142.346 461.147 142.882 460.675 143.086L459.987 143.383C457.565 144.859 455.562 151.142 456.213 159.161C456.937 168.068 460.051 173.928 462.66 174.484L462.705 174.493C463.231 174.599 463.571 175.112 463.467 175.639C463.375 176.105 462.968 176.427 462.513 176.427ZM448.059 170.945L458.482 173.489C456.34 170.46 454.763 165.37 454.272 159.321C453.804 153.563 454.611 148.35 456.276 144.99L446.646 149.16C444.967 149.964 443.446 154.684 443.911 160.405C444.37 166.053 446.368 170.167 448.059 170.945Z" fill="#020D3A"/>
<path d="M527.322 142.787C524.886 142.977 523.191 147.861 523.768 153.676C524.737 163.426 528.539 163.918 529.001 163.942C529.009 163.942 529.009 163.954 529.001 163.956L519.152 166.806C518.266 162.856 517.613 158.603 517.252 154.156C516.906 149.894 516.852 145.766 517.058 141.875L527.322 142.787Z" fill="#020D3A"/>
<path d="M518.43 168.032L518.203 167.021C517.286 162.934 516.64 158.632 516.282 154.236C515.94 150.017 515.874 145.84 516.087 141.824L516.141 140.813L527.409 141.815L527.398 143.761C527.059 143.787 526.714 144.008 526.373 144.417C525.241 145.772 524.297 149.131 524.739 153.58C525.643 162.688 529.017 162.965 529.051 162.967L529.876 163.009L530.074 164.703L529.221 164.907L518.43 168.032ZM517.984 142.938C517.836 146.556 517.917 150.298 518.224 154.078C518.544 158.021 519.102 161.885 519.883 165.579L526.414 163.69C524.966 162.351 523.376 159.566 522.801 153.773C522.388 149.612 523.092 145.669 524.602 143.526L517.984 142.938Z" fill="#020D3A"/>
<path d="M410.475 146.667C410.91 146.882 411.426 146.665 411.573 146.199C412.274 143.991 414.612 140.492 417.408 139.609C420.991 138.476 425.272 139.283 426.41 142.015C427.403 144.398 426.743 145.936 429.655 148.896C429.934 149.18 429.752 149.684 429.456 149.948L427.891 151.498C427.558 151.794 427.327 152.722 427.319 153.171C427.294 154.557 427.351 157.498 426.907 157.913C426.04 158.722 421.401 158.801 421.401 158.801L418.703 171.855C418.6 172.351 418.925 172.833 419.419 172.918L424.279 175.827C424.279 175.827 420.796 179.321 409.687 179.445C402.585 179.524 397.43 174.364 397.43 174.364C397.43 174.364 410.603 171.902 411.177 155.481C411.19 155.121 411.008 154.779 410.705 154.587C409.545 153.848 406.404 151.65 406.726 149.144C407.068 146.484 408.987 145.931 410.475 146.667Z" fill="white"/>
<path d="M409.522 180.421C402.189 180.422 396.962 175.274 396.741 175.054C396.485 174.798 396.392 174.421 396.499 174.074C396.605 173.728 396.895 173.47 397.25 173.403C397.755 173.307 409.664 170.85 410.203 155.447C408.372 154.257 405.39 151.895 405.759 149.019C405.955 147.496 406.646 146.343 407.705 145.774C408.61 145.287 409.696 145.264 410.712 145.701C411.544 143.303 414.002 139.662 417.114 138.678C420.922 137.473 425.903 138.265 427.308 141.639C427.649 142.456 427.808 143.16 427.962 143.84C428.269 145.196 428.534 146.366 430.347 148.211C430.631 148.499 430.779 148.889 430.765 149.308C430.749 149.811 430.5 150.323 430.101 150.678L428.575 152.192C428.456 152.344 428.298 152.911 428.293 153.188C428.288 153.401 428.286 153.652 428.284 153.924C428.26 156.976 428.154 158.083 427.569 158.628C426.704 159.436 424.093 159.684 422.198 159.756L419.672 171.976C419.757 171.998 419.841 172.034 419.917 172.08L424.777 174.989C425.036 175.143 425.208 175.407 425.245 175.706C425.282 176.005 425.18 176.304 424.968 176.517C424.814 176.671 421.073 180.295 409.697 180.421C409.639 180.421 409.58 180.421 409.522 180.421ZM399.429 174.772C401.3 176.188 405.013 178.468 409.526 178.468C409.576 178.468 409.626 178.468 409.676 178.468C416.886 178.388 420.757 176.845 422.476 175.885L419.047 173.832C418.635 173.713 418.281 173.456 418.035 173.094C417.75 172.676 417.646 172.153 417.748 171.657L420.447 158.603C420.54 158.156 420.929 157.833 421.384 157.825C423.425 157.789 425.552 157.525 426.157 157.242C426.315 156.626 426.33 154.744 426.337 153.908C426.339 153.628 426.341 153.37 426.345 153.151C426.354 152.647 426.593 151.346 427.243 150.766L428.706 149.316C426.729 147.216 426.391 145.72 426.063 144.272C425.92 143.644 425.786 143.052 425.511 142.39C424.648 140.321 421.073 139.473 417.7 140.539C415.3 141.298 413.139 144.486 412.5 146.495C412.344 146.987 411.984 147.384 411.513 147.586C411.042 147.786 410.505 147.771 410.043 147.542C409.546 147.296 409.029 147.279 408.626 147.495C408.129 147.762 407.806 148.375 407.69 149.269C407.524 150.567 408.845 152.246 411.226 153.761C411.819 154.138 412.173 154.81 412.15 155.513C411.687 168.743 403.228 173.361 399.429 174.772Z" fill="#020D3A"/>
<path d="M391.584 101.426C391.354 92.5923 384.095 85.7819 375.456 86.4199C367.033 87.0416 360.637 94.409 360.991 103.072C361.161 107.248 362.87 110.957 365.588 113.616C367.674 115.656 368.904 118.456 368.981 121.44L369.027 123.212C369.065 124.677 370.251 125.811 371.676 125.747L382.076 125.272C383.5 125.207 384.625 123.967 384.586 122.502L384.54 120.738C384.464 117.795 385.468 114.886 387.437 112.711C390.124 109.742 391.696 105.75 391.584 101.426Z" fill="white"/>
<path d="M371.558 126.726C370.676 126.726 369.841 126.396 369.191 125.789C368.483 125.129 368.079 124.223 368.054 123.238L368.008 121.466C367.936 118.74 366.836 116.201 364.908 114.315C361.931 111.404 360.193 107.426 360.017 103.113C359.64 93.8701 366.39 86.1104 375.384 85.4467C379.753 85.1277 383.932 86.5665 387.172 89.5057C390.524 92.5471 392.437 96.7714 392.557 101.401C392.673 105.856 391.111 110.105 388.157 113.367C386.406 115.302 385.442 117.98 385.513 120.713L385.559 122.476C385.611 124.467 384.068 126.158 382.12 126.247L371.72 126.722C371.666 126.725 371.611 126.726 371.558 126.726ZM376.578 87.3556C376.229 87.3556 375.879 87.3683 375.527 87.3943C367.588 87.9802 361.63 94.8495 361.963 103.032C362.119 106.845 363.648 110.356 366.268 112.917C368.561 115.16 369.87 118.178 369.954 121.415L370 123.186C370.012 123.643 370.196 124.06 370.518 124.36C370.823 124.644 371.23 124.783 371.631 124.772L382.031 124.297C382.927 124.255 383.637 123.462 383.613 122.527L383.566 120.763C383.483 117.533 384.63 114.359 386.715 112.055C389.33 109.167 390.712 105.402 390.61 101.452C390.503 97.3611 388.819 93.6327 385.865 90.9537C383.286 88.6126 380.02 87.3556 376.578 87.3556Z" fill="#020D3A"/>
<path d="M377.172 136.236C373.624 136.398 370.67 133.572 370.575 129.923L370.463 125.633L383.315 125.047L383.426 129.336C383.521 132.985 380.721 136.075 377.172 136.236Z" fill="white"/>
<path d="M376.88 137.221C375.054 137.221 373.322 136.539 371.973 135.28C370.498 133.903 369.655 132.01 369.602 129.95L369.465 124.703L384.263 124.027L384.4 129.312C384.509 133.483 381.286 137.027 377.217 137.213C377.104 137.218 376.992 137.221 376.88 137.221ZM371.462 126.566L371.548 129.899C371.588 131.43 372.211 132.834 373.3 133.851C374.345 134.826 375.713 135.324 377.128 135.263C380.145 135.125 382.535 132.478 382.453 129.363L382.367 126.068L371.462 126.566Z" fill="#020D3A"/>
<path d="M375.826 76.0099C375.301 76.0099 374.868 75.5904 374.854 75.0604L374.577 65.0028C374.561 64.4638 374.986 64.0151 375.523 64.0003C375.532 63.9997 375.541 63.9997 375.55 63.9997C376.075 63.9997 376.508 64.4192 376.523 64.9493L376.8 75.0066C376.815 75.5455 376.391 75.9943 375.853 76.009C375.845 76.0099 375.836 76.0099 375.826 76.0099Z" fill="#20E086"/>
<path d="M338.93 107.889C338.404 107.889 337.971 107.47 337.957 106.94C337.943 106.401 338.366 105.952 338.904 105.938L349.842 105.64C350.372 105.611 350.827 106.049 350.842 106.588C350.857 107.127 350.433 107.576 349.896 107.591L338.957 107.889C338.949 107.889 338.939 107.889 338.93 107.889Z" fill="#20E086"/>
<path d="M401.88 106.595C401.35 106.595 400.916 106.168 400.906 105.634C400.898 105.095 401.327 104.652 401.865 104.643L412.042 104.48C412.566 104.471 413.023 104.903 413.032 105.441C413.04 105.98 412.611 106.424 412.073 106.432L401.895 106.595C401.89 106.595 401.885 106.595 401.88 106.595Z" fill="#20E086"/>
<path d="M355.182 86.8647C354.939 86.8647 354.695 86.7736 354.506 86.5906L346.678 79.0154C346.291 78.6412 346.281 78.0233 346.654 77.6348C347.028 77.2473 347.645 77.2363 348.031 77.6106L355.859 85.1858C356.246 85.5604 356.256 86.1779 355.883 86.5664C355.692 86.7648 355.437 86.8647 355.182 86.8647Z" fill="#20E086"/>
<path d="M395.888 86.7457C395.646 86.7457 395.404 86.6561 395.215 86.4755C394.827 86.103 394.812 85.4851 395.184 85.0949L402.709 77.1909C403.081 76.8013 403.697 76.7874 404.087 77.159C404.475 77.5315 404.49 78.1494 404.118 78.5396L396.593 86.4435C396.401 86.6449 396.144 86.7457 395.888 86.7457Z" fill="#20E086"/>
</svg>
