<svg width="620" height="640" viewBox="0 0 620 640" fill="none" xmlns="http://www.w3.org/2000/svg">
<path d="M363.91 65.5337C363.613 65.5337 363.322 65.3871 363.139 65.115L361.656 62.8987C361.356 62.4531 361.459 61.837 361.888 61.5259C362.313 61.2119 362.902 61.3195 363.202 61.7682L364.685 63.9844C364.985 64.4301 364.882 65.0462 364.453 65.3572C364.288 65.4799 364.099 65.5367 363.913 65.5367L363.91 65.5337Z" fill="#020D3A"/>
<path d="M371.018 76.1392C370.721 76.1392 370.429 75.9926 370.246 75.7204L368.764 73.5042C368.464 73.0585 368.566 72.4424 368.995 72.1314C369.421 71.8173 370.009 71.925 370.309 72.3736L371.792 74.5899C372.092 75.0355 371.989 75.6516 371.561 75.9627C371.395 76.0853 371.206 76.1421 371.021 76.1421L371.018 76.1392Z" fill="#020D3A"/>
<path d="M360.564 74.1687C360.264 74.1687 359.969 74.0191 359.787 73.741C359.492 73.2923 359.601 72.6762 360.029 72.3681L362.158 70.8338C362.587 70.5258 363.172 70.6394 363.469 71.088C363.764 71.5367 363.655 72.1528 363.227 72.4609L361.098 73.9952C360.935 74.1118 360.749 74.1687 360.564 74.1687Z" fill="#020D3A"/>
<path d="M370.759 66.8218C370.459 66.8218 370.165 66.6723 369.982 66.3941C369.688 65.9455 369.796 65.3293 370.225 65.0213L372.353 63.487C372.782 63.1789 373.368 63.2896 373.665 63.7412C373.959 64.1898 373.851 64.8059 373.422 65.114L371.293 66.6483C371.13 66.765 370.945 66.8218 370.759 66.8218Z" fill="#020D3A"/>
<path d="M527.336 534.905C526.83 534.905 526.41 534.483 526.393 533.948L526.313 531.244C526.296 530.7 526.704 530.245 527.227 530.227C527.753 530.2 528.182 530.637 528.199 531.181L528.279 533.885C528.296 534.429 527.887 534.884 527.364 534.902C527.356 534.902 527.344 534.902 527.336 534.902V534.905Z" fill="#020D3A"/>
<path d="M527.715 547.856C527.209 547.856 526.789 547.435 526.772 546.899L526.692 544.196C526.675 543.651 527.083 543.197 527.606 543.179C528.118 543.149 528.56 543.588 528.578 544.133L528.658 546.836C528.675 547.381 528.266 547.835 527.743 547.853C527.735 547.853 527.723 547.853 527.715 547.853V547.856Z" fill="#020D3A"/>
<path d="M520.009 540.197C519.498 540.197 519.078 539.77 519.067 539.231C519.055 538.687 519.467 538.235 519.989 538.223L522.572 538.164C523.104 538.17 523.524 538.585 523.535 539.13C523.547 539.674 523.135 540.126 522.612 540.138L520.029 540.197H520.009Z" fill="#020D3A"/>
<path d="M532.388 539.918C531.877 539.918 531.457 539.49 531.446 538.952C531.434 538.408 531.846 537.956 532.368 537.944L534.951 537.884C535.491 537.878 535.903 538.303 535.914 538.85C535.926 539.395 535.514 539.846 534.991 539.858L532.408 539.918H532.388Z" fill="#020D3A"/>
<path d="M509.205 569.723C507.753 569.723 506.296 569.16 505.159 568.033C502.813 565.703 502.702 561.827 504.911 559.392C505.982 558.211 507.431 557.541 508.991 557.505C510.545 557.469 512.031 558.07 513.165 559.198C514.299 560.322 514.951 561.842 514.999 563.472C515.048 565.105 514.485 566.654 513.414 567.835C512.276 569.089 510.745 569.723 509.205 569.723ZM509.119 559.476C509.091 559.476 509.059 559.476 509.031 559.476C507.976 559.5 506.999 559.951 506.276 560.747C504.785 562.392 504.865 565.018 506.456 566.597C508.048 568.176 510.556 568.123 512.048 566.475C512.771 565.679 513.148 564.632 513.116 563.529C513.085 562.422 512.639 561.39 511.868 560.624C511.116 559.88 510.145 559.473 509.119 559.473V559.476Z" fill="#020D3A"/>
<path d="M481.204 576.759C480.284 576.759 479.358 576.403 478.638 575.688C477.149 574.211 477.081 571.749 478.481 570.203C479.884 568.657 482.232 568.6 483.721 570.077C485.21 571.555 485.278 574.016 483.878 575.563C483.155 576.361 482.181 576.762 481.204 576.762V576.759ZM479.85 571.558C479.164 572.315 479.201 573.526 479.935 574.256C480.67 574.985 481.824 574.962 482.512 574.202C483.198 573.445 483.161 572.234 482.427 571.507C481.692 570.78 480.535 570.801 479.85 571.561V571.558Z" fill="#020D3A"/>
<path d="M132.895 579.303H369.499C379.694 579.303 386.917 570.678 385.631 560.039L327.373 78.249C326.087 67.6102 316.778 58.9843 306.581 58.9843L81.8536 56.2386C56.0588 56.2386 52.5587 67.6102 53.8473 78.249L112.106 560.039C113.391 570.678 122.7 579.303 132.897 579.303H132.895Z" fill="#20E086"/>
<path d="M147.131 579.302H383.736C393.933 579.302 401.153 570.649 399.868 559.977L341.609 76.653C340.324 65.9813 331.015 57.3285 320.817 57.3285H84.2155C74.0182 57.3285 66.798 65.9813 68.0838 76.653L126.342 559.977C127.628 570.649 136.937 579.302 147.134 579.302H147.131Z" fill="white"/>
<path opacity="0.1" d="M386.383 560.647L330.756 99.1542C330.459 96.6896 328.31 94.6917 325.956 94.6917H88.0795C85.7252 94.6917 84.0594 96.6896 84.3566 99.1542L139.983 560.647C140.281 563.112 142.429 565.11 144.783 565.11H382.66C385.014 565.11 386.68 563.112 386.383 560.647Z" fill="#020D3A"/>
<path d="M209.971 79.9362C212.426 77.1987 212.011 72.6168 209.045 69.7023C206.079 66.7877 201.685 66.6441 199.23 69.3816C196.775 72.119 197.19 76.7009 200.156 79.6155C203.121 82.5301 207.516 82.6736 209.971 79.9362Z" fill="#020D3A"/>
<path d="M330.357 580.29H181.308C180.788 580.29 180.365 579.847 180.365 579.303C180.365 578.758 180.788 578.316 181.308 578.316H330.357C330.877 578.316 331.3 578.758 331.3 579.303C331.3 579.847 330.877 580.29 330.357 580.29Z" fill="#020D3A"/>
<path d="M85.6536 223.412C85.185 223.412 84.7793 223.047 84.7193 222.548L67.1475 76.7782C66.4875 71.3018 67.9189 66.1544 71.1819 62.2841C74.4076 58.4527 79.0363 56.3441 84.2164 56.3441H320.818C331.456 56.3441 341.202 65.4007 342.544 76.533L349.076 130.729C349.142 131.27 348.776 131.764 348.259 131.832C347.739 131.901 347.27 131.518 347.205 130.977L340.673 76.7812C339.447 66.6 330.538 58.3181 320.818 58.3181H84.2164C79.5877 58.3181 75.4619 60.1905 72.5962 63.5882C69.699 67.0278 68.4275 71.6248 69.0189 76.533L86.5907 222.305C86.6564 222.847 86.2907 223.34 85.7736 223.409C85.7336 223.415 85.6936 223.418 85.6536 223.418V223.412Z" fill="#020D3A"/>
<path d="M367.424 291.795C366.955 291.795 366.55 291.43 366.49 290.93L357.189 213.784C357.124 213.242 357.489 212.749 358.006 212.68C358.526 212.611 358.995 212.994 359.061 213.535L368.361 290.682C368.427 291.224 368.061 291.717 367.544 291.786C367.504 291.792 367.464 291.795 367.424 291.795Z" fill="#020D3A"/>
<path d="M383.732 580.29H281.847C281.327 580.29 280.904 579.847 280.904 579.303C280.904 578.758 281.327 578.316 281.847 578.316H383.732C388.361 578.316 392.487 576.443 395.352 573.043C398.249 569.603 399.521 565.006 398.929 560.098L381.618 416.476C381.552 415.935 381.918 415.441 382.435 415.372C382.955 415.306 383.424 415.686 383.489 416.228L400.801 559.85C401.461 565.326 400.03 570.474 396.767 574.344C393.541 578.175 388.912 580.284 383.732 580.284V580.29Z" fill="#020D3A"/>
<path d="M321.174 484.69L313.908 480.775C312.736 480.144 312.002 478.87 312.053 477.5C312.108 476.052 312.105 474.613 312.042 473.181C311.982 471.817 312.705 470.543 313.868 469.903L321.091 465.922C322.514 465.138 323.222 463.436 322.799 461.824L321.074 455.265C320.651 453.653 319.205 452.561 317.596 452.636L309.405 453.013C308.079 453.073 306.836 452.343 306.216 451.129C305.573 449.872 304.882 448.643 304.145 447.444C303.43 446.286 303.428 444.803 304.133 443.636L308.482 436.425C309.336 435.007 309.131 433.168 307.985 431.993L303.328 427.207C302.185 426.032 300.408 425.834 299.05 426.734L292.156 431.299C291.039 432.037 289.613 432.049 288.487 431.323C287.327 430.572 286.133 429.866 284.904 429.211C283.724 428.58 283.004 427.294 283.053 425.915L283.341 417.424C283.399 415.755 282.333 414.265 280.776 413.841L274.436 412.112C272.878 411.687 271.244 412.438 270.501 413.921L266.727 421.458C266.118 422.676 264.893 423.435 263.57 423.382C262.175 423.325 260.787 423.328 259.407 423.394C258.09 423.453 256.864 422.706 256.247 421.497L252.409 414.005C251.655 412.53 250.015 411.795 248.461 412.234L242.138 414.023C240.583 414.463 239.532 415.961 239.603 417.63L239.969 426.124C240.029 427.491 239.335 428.783 238.169 429.423C236.946 430.096 235.749 430.82 234.581 431.595C233.469 432.333 232.043 432.322 230.926 431.595L223.977 427.084C222.612 426.199 220.837 426.411 219.703 427.599L215.089 432.429C213.954 433.617 213.766 435.459 214.632 436.868L219.032 444.022C219.743 445.18 219.757 446.66 219.054 447.827C218.329 449.029 217.652 450.27 217.017 451.544C216.409 452.771 215.169 453.515 213.84 453.467L205.654 453.168C204.046 453.109 202.611 454.215 202.2 455.83L200.531 462.407C200.123 464.023 200.846 465.718 202.274 466.487L209.54 470.402C210.711 471.033 211.446 472.307 211.394 473.677C211.34 475.125 211.343 476.564 211.406 477.996C211.463 479.36 210.743 480.634 209.58 481.274L202.357 485.255C200.934 486.039 200.226 487.741 200.648 489.353L202.374 495.912C202.797 497.524 204.243 498.616 205.851 498.541L214.04 498.164C215.357 498.104 216.603 498.822 217.22 500.03C217.869 501.302 218.566 502.543 219.314 503.751C220.026 504.903 220.015 506.383 219.314 507.544L214.969 514.752C214.114 516.17 214.32 518.009 215.463 519.184L220.12 523.97C221.263 525.145 223.04 525.343 224.397 524.443L231.292 519.878C232.409 519.14 233.835 519.128 234.958 519.854C236.118 520.605 237.312 521.311 238.541 521.966C239.721 522.597 240.441 523.883 240.395 525.262L240.106 533.753C240.049 535.422 241.115 536.912 242.672 537.336L249.012 539.065C250.569 539.49 252.204 538.739 252.947 537.256L256.721 529.719C257.33 528.501 258.555 527.742 259.875 527.795C261.27 527.852 262.658 527.849 264.038 527.783C265.355 527.724 266.581 528.471 267.198 529.68L271.036 537.172C271.79 538.646 273.43 539.382 274.984 538.943L281.307 537.154C282.861 536.714 283.913 535.216 283.841 533.547L283.476 525.05C283.416 523.677 284.122 522.385 285.293 521.742C286.504 521.075 287.69 520.357 288.844 519.591C289.962 518.849 291.39 518.849 292.516 519.579L299.468 524.09C300.833 524.975 302.608 524.763 303.742 523.575L308.356 518.745C309.491 517.557 309.679 515.715 308.813 514.306L304.413 507.152C303.702 505.994 303.688 504.514 304.39 503.347C305.116 502.145 305.793 500.904 306.428 499.63C307.036 498.403 308.276 497.659 309.605 497.707L317.791 498.009C319.399 498.068 320.834 496.962 321.245 495.347L322.914 488.77C323.322 487.154 322.599 485.459 321.171 484.69H321.174ZM261.727 504.786C246.181 504.786 233.578 491.713 233.578 475.586C233.578 459.458 246.181 446.385 261.727 446.385C277.273 446.385 289.876 459.458 289.876 475.586C289.876 491.713 277.273 504.786 261.727 504.786Z" fill="#20E086"/>
<path d="M228.808 167.423L224.748 165.234C224.094 164.881 223.682 164.169 223.711 163.403C223.742 162.596 223.739 161.788 223.705 160.99C223.674 160.227 224.077 159.515 224.725 159.156L228.762 156.931C229.557 156.494 229.954 155.543 229.717 154.64L228.751 150.973C228.514 150.073 227.708 149.463 226.808 149.505L222.231 149.717C221.491 149.75 220.796 149.343 220.448 148.664C220.088 147.961 219.702 147.274 219.291 146.604C218.891 145.955 218.891 145.126 219.285 144.474L221.716 140.445C222.194 139.653 222.079 138.624 221.439 137.969L218.836 135.295C218.196 134.637 217.205 134.526 216.445 135.029L212.59 137.58C211.968 137.993 211.168 137.999 210.542 137.592C209.893 137.173 209.225 136.779 208.539 136.411C207.879 136.058 207.476 135.34 207.505 134.568L207.667 129.822C207.699 128.889 207.105 128.057 206.233 127.821L202.69 126.855C201.819 126.619 200.907 127.037 200.493 127.866L198.384 132.08C198.044 132.759 197.359 133.187 196.621 133.157C195.841 133.124 195.067 133.127 194.296 133.163C193.561 133.195 192.873 132.777 192.53 132.104L190.387 127.917C189.964 127.091 189.047 126.681 188.178 126.927L184.644 127.929C183.775 128.174 183.187 129.011 183.227 129.944L183.43 134.691C183.461 135.454 183.075 136.177 182.424 136.536C181.741 136.913 181.069 137.317 180.418 137.751C179.798 138.163 179.001 138.157 178.375 137.751L174.492 135.229C173.729 134.733 172.738 134.852 172.103 135.516L169.523 138.217C168.889 138.881 168.783 139.91 169.269 140.697L171.729 144.695C172.126 145.341 172.135 146.17 171.741 146.822C171.335 147.495 170.955 148.186 170.603 148.898C170.263 149.583 169.569 149.998 168.829 149.971L164.255 149.804C163.355 149.771 162.555 150.39 162.323 151.29L161.392 154.966C161.163 155.869 161.566 156.817 162.366 157.248L166.426 159.438C167.08 159.79 167.492 160.502 167.463 161.268C167.432 162.075 167.435 162.883 167.469 163.682C167.5 164.444 167.098 165.156 166.449 165.515L162.412 167.74C161.617 168.177 161.22 169.128 161.457 170.031L162.423 173.698C162.66 174.598 163.466 175.208 164.366 175.167L168.943 174.954C169.68 174.921 170.378 175.322 170.721 175.998C171.083 176.707 171.472 177.401 171.889 178.077C172.286 178.72 172.281 179.548 171.889 180.194L169.46 184.223C168.983 185.016 169.098 186.044 169.738 186.702L172.341 189.376C172.981 190.034 173.972 190.145 174.732 189.642L178.586 187.091C179.209 186.678 180.009 186.673 180.635 187.079C181.284 187.498 181.952 187.893 182.638 188.261C183.298 188.614 183.701 189.331 183.672 190.103L183.51 194.85C183.478 195.783 184.072 196.614 184.944 196.85L188.487 197.817C189.358 198.053 190.27 197.634 190.684 196.806L192.793 192.591C193.133 191.913 193.818 191.485 194.556 191.515C195.336 191.545 196.11 191.545 196.881 191.509C197.616 191.476 198.304 191.895 198.647 192.568L200.79 196.755C201.213 197.58 202.13 197.99 202.999 197.745L206.533 196.746C207.402 196.501 207.99 195.663 207.95 194.73L207.747 189.98C207.713 189.212 208.107 188.491 208.762 188.132C209.439 187.758 210.102 187.357 210.748 186.93C211.373 186.517 212.17 186.514 212.799 186.924L216.685 189.445C217.448 189.942 218.439 189.822 219.074 189.158L221.654 186.457C222.288 185.793 222.394 184.764 221.908 183.978L219.448 179.979C219.051 179.333 219.042 178.504 219.436 177.852C219.842 177.179 220.222 176.489 220.574 175.774C220.914 175.089 221.608 174.673 222.348 174.7L226.922 174.867C227.822 174.9 228.622 174.281 228.854 173.378L229.785 169.702C230.014 168.799 229.608 167.851 228.811 167.423H228.808ZM195.581 178.657C186.892 178.657 179.849 171.35 179.849 162.336C179.849 153.321 186.892 146.014 195.581 146.014C204.27 146.014 211.313 153.321 211.313 162.336C211.313 171.35 204.27 178.657 195.581 178.657Z" fill="white"/>
<path d="M188.982 198.866C188.739 198.866 188.49 198.833 188.245 198.767L184.702 197.801C183.396 197.445 182.516 196.216 182.562 194.811L182.724 190.064C182.739 189.678 182.533 189.313 182.202 189.137C181.493 188.76 180.799 188.347 180.133 187.917C179.816 187.71 179.401 187.713 179.084 187.926L175.23 190.477C174.096 191.227 172.633 191.069 171.675 190.082L169.073 187.408C168.11 186.418 167.938 184.893 168.658 183.699L171.087 179.671C171.284 179.345 171.287 178.929 171.093 178.615C170.664 177.918 170.255 177.194 169.884 176.464C169.713 176.129 169.353 175.914 168.978 175.941L164.401 176.153C163.052 176.219 161.864 175.313 161.507 173.958L160.541 170.291C160.184 168.933 160.769 167.525 161.964 166.867L166.001 164.641C166.332 164.459 166.535 164.1 166.518 163.726C166.484 162.904 166.481 162.063 166.512 161.229C166.527 160.855 166.321 160.496 165.987 160.317L161.927 158.127C160.724 157.481 160.127 156.079 160.472 154.718L161.404 151.042C161.747 149.684 162.927 148.769 164.278 148.823L168.853 148.99C169.238 148.999 169.587 148.79 169.758 148.446C170.124 147.71 170.521 146.986 170.935 146.298C171.13 145.975 171.127 145.557 170.927 145.234L168.467 141.235C167.738 140.047 167.893 138.522 168.847 137.523L171.427 134.825C172.376 133.832 173.836 133.653 174.978 134.398L178.861 136.916C179.184 137.125 179.593 137.128 179.904 136.922C180.573 136.476 181.27 136.055 181.976 135.669C182.299 135.492 182.496 135.127 182.479 134.742L182.276 129.995C182.216 128.589 183.084 127.351 184.387 126.983L187.922 125.984C189.225 125.616 190.573 126.224 191.208 127.462L193.35 131.649C193.528 131.996 193.879 132.208 194.245 132.187C195.045 132.151 195.851 132.148 196.651 132.181C197.025 132.205 197.371 131.981 197.545 131.634L199.654 127.423C200.276 126.179 201.622 125.557 202.925 125.915L206.468 126.882C207.774 127.237 208.654 128.467 208.605 129.872L208.442 134.619C208.428 135.005 208.634 135.37 208.965 135.546C209.674 135.923 210.368 136.336 211.034 136.766C211.354 136.973 211.765 136.97 212.083 136.757L215.937 134.206C217.074 133.456 218.534 133.617 219.491 134.601L222.094 137.278C223.057 138.268 223.229 139.793 222.509 140.987L220.08 145.015C219.883 145.341 219.883 145.76 220.08 146.083C220.503 146.771 220.906 147.486 221.277 148.213C221.451 148.553 221.814 148.778 222.189 148.745L226.766 148.533C228.109 148.473 229.303 149.373 229.66 150.728L230.626 154.395C230.983 155.753 230.397 157.161 229.203 157.819L225.166 160.044C224.834 160.227 224.631 160.586 224.649 160.96C224.683 161.782 224.686 162.623 224.654 163.457C224.64 163.831 224.846 164.19 225.18 164.369L229.24 166.559C230.44 167.205 231.04 168.607 230.695 169.968L229.763 173.644C229.42 175.002 228.243 175.914 226.889 175.863L222.314 175.696C221.92 175.663 221.58 175.896 221.409 176.24C221.043 176.979 220.646 177.7 220.231 178.388C220.037 178.711 220.04 179.129 220.24 179.452L222.7 183.451C223.429 184.636 223.274 186.164 222.32 187.163L219.74 189.864C218.791 190.857 217.331 191.033 216.188 190.291L212.303 187.77C211.98 187.561 211.568 187.561 211.251 187.77C210.585 188.213 209.894 188.628 209.2 189.011C208.871 189.191 208.671 189.559 208.688 189.941L208.891 194.691C208.951 196.097 208.082 197.335 206.779 197.703L203.245 198.705C201.945 199.07 200.594 198.465 199.962 197.227L197.819 193.04C197.642 192.696 197.291 192.487 196.925 192.502C196.133 192.537 195.325 192.54 194.522 192.508C194.142 192.487 193.802 192.708 193.628 193.055L191.519 197.269C191.013 198.277 190.033 198.875 188.985 198.875L188.982 198.866ZM179.616 185.79C180.141 185.79 180.667 185.94 181.124 186.236C181.747 186.639 182.399 187.022 183.059 187.375C184.039 187.899 184.647 188.981 184.607 190.13L184.444 194.876C184.427 195.352 184.73 195.768 185.176 195.89L188.719 196.856C189.162 196.976 189.636 196.761 189.845 196.342L191.953 192.128C192.465 191.108 193.49 190.495 194.588 190.525C195.339 190.554 196.096 190.552 196.836 190.519C197.922 190.468 198.959 191.09 199.476 192.098L201.619 196.285C201.834 196.701 202.308 196.916 202.751 196.79L206.285 195.789C206.731 195.663 207.025 195.244 207.005 194.769L206.802 190.019C206.754 188.874 207.348 187.788 208.32 187.253C208.971 186.894 209.617 186.505 210.24 186.092C211.162 185.482 212.36 185.476 213.291 186.08L217.177 188.601C217.566 188.853 218.08 188.793 218.403 188.455L220.983 185.754C221.303 185.416 221.357 184.905 221.111 184.507L218.651 180.508C218.057 179.542 218.048 178.292 218.634 177.32C219.023 176.677 219.391 176.004 219.734 175.313C220.24 174.296 221.297 173.674 222.38 173.707L226.954 173.874C227.414 173.904 227.823 173.581 227.94 173.121L228.872 169.445C228.989 168.987 228.783 168.515 228.377 168.296L224.317 166.107C223.334 165.578 222.726 164.498 222.769 163.361C222.797 162.584 222.797 161.797 222.763 161.031C222.714 159.898 223.311 158.818 224.286 158.283L228.323 156.058C228.729 155.833 228.929 155.361 228.809 154.903L227.843 151.236C227.723 150.776 227.317 150.471 226.852 150.489L222.274 150.701C221.186 150.755 220.134 150.133 219.62 149.128C219.274 148.449 218.897 147.779 218.5 147.139C217.906 146.173 217.9 144.923 218.488 143.948L220.92 139.919C221.163 139.518 221.103 139.007 220.78 138.672L218.177 135.995C217.851 135.66 217.337 135.603 216.951 135.86L213.097 138.411C212.171 139.025 210.974 139.031 210.048 138.429C209.425 138.026 208.774 137.643 208.114 137.29C207.134 136.766 206.525 135.684 206.565 134.535L206.728 129.789C206.745 129.316 206.442 128.897 205.997 128.778L202.454 127.812C202.011 127.689 201.536 127.907 201.328 128.326L199.219 132.54C198.708 133.56 197.676 134.188 196.585 134.143C195.839 134.114 195.082 134.114 194.336 134.149C193.253 134.188 192.213 133.578 191.696 132.57L189.553 128.383C189.339 127.967 188.865 127.755 188.425 127.881L184.89 128.879C184.444 129.005 184.147 129.424 184.17 129.899L184.373 134.646C184.422 135.794 183.83 136.877 182.864 137.409C182.204 137.771 181.553 138.166 180.927 138.582C180.01 139.192 178.816 139.192 177.881 138.588L173.998 136.07C173.61 135.818 173.096 135.878 172.773 136.216L170.193 138.917C169.873 139.255 169.818 139.766 170.064 140.164L172.524 144.163C173.118 145.129 173.124 146.379 172.541 147.348C172.153 147.991 171.784 148.667 171.441 149.355C170.935 150.372 169.893 151.003 168.795 150.961L164.221 150.794C163.75 150.773 163.352 151.087 163.235 151.547L162.304 155.223C162.187 155.681 162.392 156.153 162.798 156.372L166.858 158.561C167.841 159.09 168.447 160.17 168.407 161.307C168.378 162.084 168.378 162.871 168.413 163.637C168.461 164.77 167.864 165.85 166.89 166.385L162.852 168.61C162.447 168.835 162.247 169.307 162.367 169.765L163.332 173.432C163.452 173.892 163.855 174.203 164.324 174.179L168.901 173.967C170.007 173.925 171.041 174.529 171.553 175.531C171.901 176.213 172.281 176.889 172.684 177.541C173.276 178.498 173.276 179.748 172.69 180.72L170.261 184.749C170.018 185.15 170.075 185.664 170.401 185.996L173.004 188.67C173.33 189.005 173.844 189.062 174.23 188.805L178.084 186.254C178.553 185.943 179.087 185.79 179.624 185.79H179.616ZM195.585 179.641C186.39 179.641 178.91 171.876 178.91 162.335C178.91 152.795 186.39 145.03 195.585 145.03C204.779 145.03 212.26 152.795 212.26 162.335C212.26 171.876 204.779 179.641 195.585 179.641ZM195.585 147.001C187.43 147.001 180.796 153.88 180.796 162.335C180.796 170.791 187.43 177.67 195.585 177.67C203.739 177.67 210.374 170.791 210.374 162.335C210.374 153.88 203.739 147.001 195.585 147.001Z" fill="#020D3A"/>
<path d="M537.071 145.955C536.554 145.955 536.031 145.907 535.511 145.808C530.825 144.923 527.697 140.248 528.534 135.385C528.625 134.85 529.114 134.5 529.628 134.59C530.14 134.685 530.48 135.2 530.388 135.735C529.737 139.528 532.183 143.176 535.846 143.867C537.617 144.202 539.411 143.801 540.891 142.737C542.369 141.675 543.354 140.078 543.672 138.241C543.989 136.405 543.594 134.548 542.566 133.013C541.534 131.476 539.989 130.444 538.214 130.109C537.703 130.014 537.363 129.499 537.454 128.964C537.546 128.428 538.037 128.072 538.549 128.168C540.817 128.596 542.792 129.915 544.109 131.883C545.429 133.851 545.932 136.235 545.526 138.594C545.12 140.951 543.854 143.003 541.96 144.367C540.503 145.417 538.809 145.961 537.071 145.961V145.955Z" fill="#020D3A"/>
<path d="M460.408 313.67C460.108 313.67 459.816 313.524 459.633 313.245C459.336 312.8 459.442 312.184 459.871 311.873L498.978 283.432C499.406 283.121 499.992 283.232 500.289 283.681C500.586 284.126 500.481 284.742 500.052 285.053L460.945 313.494C460.782 313.613 460.594 313.67 460.408 313.67Z" fill="#020D3A"/>
<path d="M442.857 298.529C442.56 298.529 442.266 298.382 442.083 298.104C441.786 297.655 441.891 297.042 442.32 296.731L499.765 255.014C500.193 254.703 500.779 254.814 501.076 255.263C501.373 255.711 501.267 256.324 500.839 256.635L443.394 298.352C443.231 298.472 443.043 298.529 442.857 298.529Z" fill="#020D3A"/>
<path d="M426.664 189.633C426.364 189.633 426.072 189.487 425.889 189.209C425.592 188.763 425.698 188.147 426.126 187.836L460.585 162.778C461.013 162.467 461.599 162.578 461.896 163.027C462.193 163.472 462.088 164.088 461.659 164.399L427.201 189.457C427.038 189.577 426.849 189.633 426.664 189.633Z" fill="#020D3A"/>
<path d="M357.296 162.563C356.999 162.563 356.705 162.416 356.522 162.138C356.225 161.693 356.331 161.077 356.759 160.765L377.029 146.026C377.457 145.715 378.043 145.826 378.34 146.275C378.637 146.72 378.531 147.336 378.103 147.647L357.834 162.387C357.671 162.506 357.482 162.563 357.296 162.563Z" fill="#020D3A"/>
<path d="M365.709 143.75C365.411 143.75 365.117 143.603 364.934 143.325C364.637 142.879 364.743 142.263 365.171 141.952L375.677 134.313C376.106 134.002 376.692 134.113 376.989 134.562C377.286 135.007 377.18 135.623 376.752 135.934L366.246 143.573C366.083 143.693 365.894 143.75 365.709 143.75Z" fill="#020D3A"/>
<path d="M373.078 204.148C372.778 204.148 372.486 204.001 372.303 203.723C372.006 203.278 372.112 202.662 372.541 202.35L423.728 165.126C424.157 164.815 424.742 164.926 425.039 165.374C425.337 165.823 425.231 166.436 424.802 166.747L373.615 203.972C373.452 204.091 373.263 204.148 373.078 204.148Z" fill="#020D3A"/>
<path d="M378 113.615C378 91.2493 395.306 73.1156 416.658 73.1156C438.011 73.1156 455.317 91.2493 455.317 113.615C455.317 135.981 438.011 154.115 416.658 154.115C395.306 154.115 378 135.984 378 113.615Z" fill="white"/>
<path d="M389.445 143.066C396.408 149.945 405.789 154.168 416.12 154.168C426.452 154.168 435.833 149.945 442.796 143.066C434.741 140.455 425.689 138.987 416.12 138.987C406.552 138.987 397.503 140.455 389.445 143.066Z" fill="#20E086"/>
<path d="M428.576 89.9583C426.824 88.7769 424.784 88.1488 422.698 88.1488H410.429C407.689 88.1488 405.052 89.2345 403.046 91.1846L402.375 91.8396C399.186 94.9381 398.075 99.7295 399.549 104.015L403.583 115.734L429.45 115.563L433.102 102.756C434.482 97.9111 432.639 92.6949 428.579 89.9583H428.576Z" fill="#020D3A"/>
<path d="M422.39 95.1705L422.364 95.1585L403.443 107.855V115.224C403.443 119.579 405.389 123.455 408.415 125.965V137.563C408.415 142.148 411.967 145.866 416.347 145.866C420.727 145.866 424.278 142.148 424.278 137.563V126.279C427.524 123.784 429.633 119.762 429.633 115.224V107.152C429.633 101.861 426.67 97.297 422.387 95.1705H422.39Z" fill="white"/>
<path d="M416.347 146.853C411.453 146.853 407.473 142.687 407.473 137.564V126.207H409.358V137.564C409.358 141.598 412.493 144.879 416.347 144.879C420.202 144.879 423.336 141.598 423.336 137.564V126.563H425.222V137.564C425.222 142.684 421.242 146.853 416.347 146.853Z" fill="#020D3A"/>
<path d="M416.542 129.92C416.021 129.92 415.599 129.477 415.599 128.933C415.599 128.388 416.021 127.946 416.542 127.946C423.242 127.946 428.693 122.239 428.693 115.225V107.153C428.693 100.391 423.439 94.8904 416.979 94.8904H404.387V115.225C404.387 120.202 407.184 124.748 411.51 126.809C411.984 127.033 412.193 127.62 411.979 128.116C411.761 128.613 411.204 128.831 410.73 128.607C405.733 126.226 402.504 120.974 402.504 115.225V93.9034C402.504 93.359 402.927 92.9164 403.447 92.9164H416.979C424.476 92.9164 430.576 99.3019 430.576 107.153V115.225C430.576 123.328 424.279 129.92 416.539 129.92H416.542Z" fill="#020D3A"/>
<path d="M416.067 155.123C415.775 155.123 415.484 155.12 415.19 155.114C404.555 154.875 394.644 150.317 387.283 142.275C372.812 126.462 372.532 101.437 386.646 85.3042C386.998 84.9034 387.595 84.8735 387.978 85.2414C388.361 85.6092 388.386 86.2343 388.035 86.6351C374.589 102.002 374.855 125.843 388.643 140.908C395.655 148.567 405.095 152.913 415.227 153.14C425.361 153.38 434.97 149.453 442.287 142.113C449.605 134.773 453.756 124.892 453.973 114.286C454.19 103.68 450.45 93.6188 443.439 85.9592C435.853 77.6684 425.213 73.236 414.247 73.7623C413.727 73.7893 413.287 73.3676 413.261 72.8232C413.238 72.2789 413.638 71.8153 414.158 71.7914C425.676 71.2201 436.836 75.8919 444.799 84.5953C452.159 92.6378 456.085 103.196 455.856 114.331C455.628 125.463 451.27 135.838 443.59 143.54C436.122 151.032 426.373 155.126 416.061 155.126L416.067 155.123Z" fill="#020D3A"/>
<path d="M469.32 187.765C469.32 169.257 483.641 154.252 501.31 154.252C518.979 154.252 533.3 169.257 533.3 187.765C533.3 206.273 518.979 221.278 501.31 221.278C483.641 221.278 469.32 206.276 469.32 187.765Z" fill="white"/>
<path d="M501.306 222.264C483.148 222.264 468.373 206.789 468.373 187.764C468.373 183.696 469.042 179.712 470.362 175.926C470.539 175.414 471.082 175.151 471.57 175.337C472.059 175.522 472.31 176.09 472.133 176.602C470.887 180.17 470.259 183.926 470.259 187.761C470.259 205.697 484.185 220.287 501.306 220.287C518.426 220.287 532.352 205.697 532.352 187.761C532.352 169.824 518.426 155.235 501.306 155.235C491.988 155.235 483.245 159.563 477.319 167.109C476.988 167.53 476.393 167.59 475.993 167.246C475.59 166.899 475.533 166.277 475.865 165.858C482.151 157.855 491.425 153.264 501.308 153.264C519.466 153.264 534.238 168.739 534.238 187.764C534.238 206.789 519.466 222.264 501.308 222.264H501.306Z" fill="#020D3A"/>
<path d="M479.365 212.138C485.094 217.8 492.811 221.278 501.309 221.278C509.806 221.278 517.524 217.8 523.252 212.138C516.626 209.988 509.181 208.779 501.309 208.779C493.437 208.779 485.991 209.988 479.365 212.138Z" fill="#20E086"/>
<path d="M501.494 214.439C498.705 214.439 496.445 212.07 496.445 209.148V182.176H506.543V209.148C506.543 212.07 504.283 214.439 501.494 214.439Z" fill="white"/>
<path d="M521.044 192.02C520.41 183.642 523.935 178.411 516.029 168.945C507.843 159.144 500.817 165.715 500.817 165.715C500.817 165.715 494.963 160.621 487.277 171.272C480.494 180.672 489.18 189.091 486.26 194.945C483.34 200.798 473.439 203.989 473.439 203.989C473.439 203.989 476.614 210.638 480.548 213.563H522.312C522.312 213.563 530.944 203.723 530.944 200.929C530.944 200.929 521.678 200.397 521.044 192.02Z" fill="#020D3A"/>
<path d="M479.363 212.136C485.092 217.798 492.809 221.276 501.307 221.276C509.804 221.276 517.522 217.798 523.25 212.136C516.624 209.986 509.179 208.777 501.307 208.777C493.435 208.777 485.989 209.986 479.363 212.136Z" fill="#20E086"/>
<path d="M501.306 222.262C492.877 222.262 484.854 218.921 478.713 212.853L477.539 211.692L479.079 211.193C486.039 208.935 493.517 207.789 501.303 207.789C509.089 207.789 516.566 208.935 523.526 211.193L525.066 211.692L523.892 212.853C517.755 218.921 509.732 222.262 501.3 222.262H501.306ZM481.248 212.578C486.854 217.563 493.914 220.288 501.306 220.288C508.697 220.288 515.757 217.563 521.363 212.578C515.043 210.708 508.306 209.76 501.306 209.76C494.305 209.76 487.565 210.708 481.248 212.578Z" fill="#020D3A"/>
<path d="M501.987 173.399H501.636L491.361 184.22V190.154C491.361 194.116 493.407 197.571 496.447 199.443V209.146C496.447 212.068 498.707 214.436 501.496 214.436C504.285 214.436 506.545 212.068 506.545 209.146V199.626C509.75 197.801 511.925 194.245 511.925 190.154V183.81C511.925 178.058 507.476 173.399 501.987 173.399Z" fill="white"/>
<path d="M501.494 215.428C498.191 215.428 495.502 212.614 495.502 209.153V199.747C495.502 199.203 495.925 198.76 496.445 198.76C496.965 198.76 497.388 199.203 497.388 199.747V209.153C497.388 211.525 499.231 213.457 501.494 213.457C503.757 213.457 505.599 211.528 505.599 209.153V199.908C505.599 199.364 506.022 198.921 506.542 198.921C507.062 198.921 507.485 199.364 507.485 199.908V209.153C507.485 212.614 504.797 215.428 501.494 215.428Z" fill="#020D3A"/>
<path d="M501.642 201.915C501.122 201.915 500.699 201.473 500.699 200.928C500.699 200.384 501.122 199.941 501.642 199.941C506.791 199.941 510.982 195.551 510.982 190.155V183.812C510.982 178.751 507.205 174.618 502.385 174.396C502.379 174.396 502.371 174.396 502.365 174.396L492.302 184.817V190.155C492.302 193.984 494.45 197.48 497.776 199.065C498.251 199.292 498.459 199.876 498.242 200.372C498.028 200.869 497.468 201.087 496.993 200.86C492.996 198.954 490.416 194.749 490.416 190.152V184.401C490.416 184.138 490.516 183.886 490.696 183.698L501.322 172.694C501.499 172.512 501.736 172.41 501.985 172.41C502.145 172.41 502.305 172.413 502.465 172.419C508.297 172.686 512.865 177.689 512.865 183.806V190.149C512.865 196.634 507.831 201.909 501.639 201.909L501.642 201.915Z" fill="#020D3A"/>
<path d="M464.113 250.392C467.705 234.471 458.286 218.521 443.077 214.766C427.867 211.01 412.626 220.871 409.034 236.791C405.443 252.711 414.861 268.662 430.071 272.417C445.28 276.173 460.522 266.312 464.113 250.392Z" fill="white"/>
<path d="M436.59 274.212C420.469 274.212 407.352 260.483 407.352 243.606C407.352 226.728 420.466 213 436.59 213C452.713 213 465.828 226.728 465.828 243.606C465.828 260.483 452.713 274.212 436.59 274.212ZM436.59 214.974C421.506 214.974 409.237 227.82 409.237 243.606C409.237 259.392 421.509 272.238 436.59 272.238C451.67 272.238 463.942 259.395 463.942 243.606C463.942 227.817 451.67 214.974 436.59 214.974Z" fill="#020D3A"/>
<path d="M444.224 246.56C442.638 246.557 441.238 247.362 440.332 248.588L430.778 244.697C430.786 244.566 430.815 244.437 430.815 244.302C430.815 244.051 430.778 243.812 430.746 243.573L440.538 238.829C441.444 239.912 442.752 240.609 444.224 240.612C446.947 240.618 449.164 238.285 449.164 235.413C449.164 232.542 446.95 230.203 444.224 230.197C441.501 230.191 439.284 232.524 439.284 235.392C439.284 235.644 439.321 235.883 439.355 236.122L429.564 240.866C428.658 239.783 427.349 239.086 425.878 239.083C423.155 239.077 420.938 241.41 420.938 244.281C420.938 247.153 423.152 249.491 425.878 249.497C427.463 249.5 428.863 248.696 429.769 247.47L439.324 251.361C439.315 251.492 439.287 251.621 439.287 251.756C439.287 254.627 441.501 256.966 444.227 256.972C446.95 256.978 449.167 254.645 449.167 251.774C449.167 248.902 446.953 246.563 444.227 246.557L444.224 246.56Z" fill="#020D3A"/>
<path d="M533.396 114.329C546.473 100.646 546.473 78.4604 533.396 64.7768C520.32 51.0933 499.119 51.0933 486.042 64.7768C472.966 78.4604 472.966 100.646 486.042 114.329C499.119 128.013 520.32 128.013 533.396 114.329Z" fill="white"/>
<path d="M509.712 125.583C490.732 125.583 475.291 109.421 475.291 89.5522C475.291 69.6837 490.732 53.518 509.712 53.518C528.693 53.518 544.133 69.6807 544.133 89.5492C544.133 109.418 528.693 125.58 509.712 125.58V125.583ZM509.712 55.492C491.772 55.492 477.177 70.7724 477.177 89.5522C477.177 108.332 491.772 123.612 509.712 123.612C527.653 123.612 542.25 108.335 542.25 89.5522C542.25 70.7694 527.656 55.492 509.712 55.492Z" fill="#020D3A"/>
<path d="M509.895 107.183C509.563 107.398 509.146 107.407 508.806 107.21C505.855 105.484 492.168 96.8523 492.703 85.5588C493.268 73.6251 505.64 75.6948 508.695 81.5689C508.812 81.7902 509.038 81.9248 509.28 81.9129C509.523 81.9009 509.735 81.7424 509.829 81.5091C511.326 77.7376 516.166 75.0039 520.726 76.7955C526.161 78.931 531.687 93.0479 509.895 107.186V107.183Z" fill="#020D3A"/>
<path d="M555.885 286.851C566.996 275.22 566.996 256.362 555.885 244.731C544.774 233.1 526.759 233.1 515.648 244.731C504.537 256.362 504.537 275.22 515.648 286.851C526.759 298.483 544.774 298.483 555.885 286.851Z" fill="white"/>
<path d="M535.766 296.562C519.557 296.562 506.371 282.759 506.371 265.792C506.371 248.825 519.557 235.022 535.766 235.022C551.975 235.022 565.162 248.825 565.162 265.792C565.162 282.759 551.975 296.562 535.766 296.562ZM535.766 236.996C520.597 236.996 508.257 249.913 508.257 265.792C508.257 281.67 520.597 294.588 535.766 294.588C550.935 294.588 563.276 281.67 563.276 265.792C563.276 249.913 550.935 236.996 535.766 236.996Z" fill="#020D3A"/>
<path d="M535.927 280.771C535.647 280.953 535.292 280.962 535.004 280.791C532.495 279.326 520.863 271.989 521.318 262.392C521.798 252.249 532.312 254.008 534.909 259C535.007 259.188 535.201 259.302 535.407 259.29C535.612 259.278 535.792 259.146 535.872 258.946C537.144 255.74 541.258 253.419 545.133 254.941C549.753 256.757 554.447 268.753 535.927 280.768V280.771Z" fill="#020D3A"/>
<path d="M142.994 307.416C139.062 292.877 146.191 283.713 154.549 271.301L174.798 290.538L166.215 320.028L142.994 307.416Z" fill="#020D3A"/>
<path d="M166.212 321.016C166.066 321.016 165.921 320.98 165.786 320.911L147.82 311.4C147.354 311.155 147.169 310.559 147.406 310.075C147.64 309.587 148.209 309.396 148.672 309.638L165.638 318.62L173.73 290.823L152.455 268.78C152.083 268.397 152.08 267.772 152.449 267.383C152.815 266.997 153.412 266.994 153.78 267.377L175.458 289.839C175.707 290.096 175.798 290.479 175.698 290.829L167.115 320.319C167.035 320.597 166.838 320.824 166.584 320.938C166.467 320.992 166.341 321.016 166.212 321.016Z" fill="#020D3A"/>
<path d="M147.968 313.018C147.92 313.018 147.874 313.015 147.825 313.006C147.311 312.925 146.957 312.42 147.037 311.882C147.582 308.143 148.817 301.638 149.557 298.321C149.674 297.791 150.182 297.465 150.688 297.585C151.194 297.708 151.511 298.24 151.391 298.769C150.66 302.05 149.437 308.481 148.9 312.178C148.828 312.665 148.428 313.015 147.968 313.015V313.018Z" fill="#020D3A"/>
<path d="M300.434 400.794C272.593 419.388 235.493 410.804 217.729 381.661C199.966 352.517 208.164 313.679 236.004 295.085L294.774 255.835L308.103 186.137L206.886 247.313C191.74 257.429 179.66 270.703 170.903 285.783L168.217 273.14L158.177 308.918C150.102 342.536 153.034 380.877 172.091 412.144C205.909 467.632 276.548 483.972 329.552 448.571L397.916 402.911L417.108 322.874L300.434 400.8V400.794Z" fill="#020D3A"/>
<path d="M268.533 468.287C260.187 468.287 251.778 467.333 243.426 465.401C213.406 458.456 187.791 439.729 171.299 412.67C153.516 383.491 148.399 345.586 157.265 308.675L167.316 272.859C167.436 272.425 167.819 272.12 168.254 272.15C168.682 272.165 169.048 272.482 169.142 272.922L171.325 283.204C180.342 268.345 192.128 255.999 206.383 246.479L307.636 185.281C307.956 185.087 308.356 185.107 308.656 185.335C308.956 185.562 309.105 185.951 309.031 186.331L295.702 256.029C295.65 256.292 295.502 256.522 295.285 256.666L236.515 295.916C223.263 304.766 214.092 318.515 210.689 334.628C207.289 350.74 210.072 367.256 218.526 381.128C236.009 409.814 272.527 418.26 299.928 399.959L416.601 322.033C416.927 321.817 417.347 321.826 417.659 322.066C417.973 322.302 418.116 322.715 418.021 323.107L398.83 403.147C398.772 403.392 398.624 403.605 398.421 403.739L330.057 449.399C311.399 461.859 290.179 468.287 268.527 468.287H268.533ZM168.096 277.088L159.088 309.193C150.356 345.542 155.385 382.886 172.891 411.608C189.111 438.222 214.306 456.64 243.835 463.471C273.364 470.3 303.625 464.713 329.048 447.733L397.098 402.286L415.621 325.033L300.945 401.625C272.667 420.512 234.981 411.794 216.94 382.19C208.214 367.872 205.34 350.83 208.852 334.203C212.36 317.573 221.826 303.387 235.503 294.253L293.933 255.227L306.776 188.08L207.363 248.165C192.734 257.937 180.728 270.771 171.714 286.291C171.514 286.635 171.134 286.82 170.754 286.752C170.374 286.686 170.071 286.387 169.988 285.992L168.096 277.088Z" fill="#020D3A"/>
<path d="M361.244 181.76L332.127 133.987L272.945 173.514L275.668 202.334L302.063 221.285L361.244 181.76Z" fill="#20E086"/>
<path d="M302.068 222.272C301.882 222.272 301.697 222.215 301.534 222.098L275.136 203.148C274.907 202.984 274.759 202.72 274.73 202.43L272.01 173.607C271.976 173.236 272.142 172.877 272.442 172.677L331.623 133.149C331.834 133.009 332.089 132.961 332.334 133.018C332.577 133.075 332.792 133.23 332.926 133.452L362.044 181.225C362.178 181.446 362.224 181.712 362.169 181.967C362.115 182.221 361.966 182.445 361.755 182.586L302.574 222.113C302.419 222.218 302.242 222.269 302.068 222.269V222.272ZM276.568 201.781L302.088 220.103L359.949 181.458L331.846 135.348L273.947 174.017L276.568 201.778V201.781Z" fill="#020D3A"/>
<path d="M454.795 335.244L425.677 287.471L366.496 326.998L371.731 357.11L395.614 374.769L454.795 335.244Z" fill="#20E086"/>
<path d="M395.608 375.756C395.416 375.756 395.228 375.696 395.065 375.576L371.181 357.918C370.979 357.768 370.841 357.544 370.799 357.29L365.564 327.175C365.496 326.78 365.661 326.382 365.984 326.167L425.165 286.639C425.377 286.499 425.631 286.451 425.877 286.508C426.12 286.564 426.334 286.72 426.468 286.941L455.586 334.715C455.72 334.936 455.766 335.202 455.712 335.459C455.657 335.714 455.509 335.938 455.297 336.079L396.116 375.606C395.962 375.711 395.785 375.762 395.61 375.762L395.608 375.756ZM372.584 356.536L395.636 373.581L453.489 334.942L425.385 288.832L367.533 327.471L372.584 356.536Z" fill="#020D3A"/>
<path d="M225.014 347.118C207.251 317.974 215.448 279.137 243.289 260.542L302.058 221.292L272.941 173.518L214.171 212.768C161.167 248.169 145.558 322.111 179.376 377.599C213.194 433.087 283.832 449.426 336.836 414.025L395.606 374.775L366.488 327.001L307.719 366.251C279.878 384.846 242.777 376.262 225.014 347.118Z" fill="white"/>
<path d="M275.692 433.716C237.703 433.719 200.491 414.068 178.585 378.129C144.487 322.184 160.224 247.629 213.668 211.935L272.438 172.685C272.878 172.391 273.461 172.526 273.741 172.987L302.859 220.761C302.993 220.982 303.039 221.248 302.984 221.503C302.93 221.757 302.781 221.981 302.57 222.122L243.8 261.372C216.4 279.673 208.328 317.901 225.811 346.587C243.295 375.273 279.812 383.719 307.213 365.418L365.983 326.168C366.194 326.027 366.448 325.979 366.694 326.036C366.937 326.093 367.151 326.248 367.286 326.47L396.403 374.244C396.683 374.705 396.555 375.315 396.115 375.608L337.345 414.858C318.233 427.62 296.838 433.716 275.692 433.716ZM272.658 174.88L214.683 213.601C162.116 248.708 146.635 322.04 180.176 377.07C213.714 432.098 283.767 448.303 336.334 413.195L394.309 374.474L366.206 328.363L308.23 367.084C279.952 385.972 242.266 377.253 224.226 347.649C206.182 318.047 214.511 278.597 242.789 259.709L300.764 220.988L272.661 174.877L272.658 174.88Z" fill="#020D3A"/>
<path d="M361.038 182.566L353.746 217.108L294.564 256.636L301.856 222.091L361.038 182.566Z" fill="#020D3A"/>
<path d="M294.56 257.623C294.371 257.623 294.182 257.563 294.02 257.447C293.708 257.219 293.557 256.816 293.64 256.427L300.931 221.882C300.986 221.628 301.134 221.404 301.346 221.263L360.527 181.736C360.847 181.52 361.262 181.529 361.573 181.759C361.885 181.987 362.036 182.391 361.953 182.782L354.662 217.327C354.607 217.581 354.459 217.806 354.247 217.946L295.065 257.471C294.911 257.575 294.734 257.626 294.56 257.626V257.623ZM302.688 222.705L295.971 254.525L352.907 216.499L359.625 184.679L302.688 222.705Z" fill="#020D3A"/>
<path d="M85.5843 370.439C85.5843 370.439 78.1013 385.194 77.5927 397.137C76.7955 415.821 74.2098 432.113 70.3554 476.905C65.8982 528.663 51.1836 568.688 51.1836 568.688C52.8579 571.52 55.4323 573.647 58.4523 574.443C63.3581 575.738 67.4239 573.563 67.4239 573.563L88.3015 525.481C94.6359 512.237 99.5703 498.263 103.013 483.829L113.416 440.221L119.734 477.342C122.128 486.895 123.442 496.723 123.651 506.617L127.314 578.812L131.188 580.792C134.402 582.434 138.154 582.294 141.251 580.409L143.22 576.901L155.637 492.087C156.194 486.156 156.043 480.171 155.186 474.282L140.1 370.439H85.5843Z" fill="#020D3A"/>
<path d="M50.8977 569.415C49.8205 571.751 47.2376 578.426 45.9318 582.494C45.1146 585.045 46.2261 587.847 48.4747 589.023C54.8378 592.343 70.8812 595.558 84.1159 598.932C85.0216 599.162 86.7903 599.03 87.956 596.814C91.9562 589.214 78.0214 583.804 65.4896 572.531C65.4896 572.531 64.5296 573.084 63.1809 573.515C60.9209 574.236 57.6093 573.369 55.8493 571.679L53.0235 568.972C52.352 568.329 51.2977 568.544 50.8948 569.415H50.8977Z" fill="white"/>
<path d="M84.7969 600C84.4769 600 84.174 599.961 83.8969 599.889C80.5139 599.028 76.8966 598.163 73.3994 597.326C62.8533 594.805 52.893 592.427 48.0585 589.903C45.3756 588.503 44.0784 585.18 45.0413 582.177C46.3442 578.118 48.9271 571.419 50.05 568.984C50.3729 568.284 50.9701 567.8 51.6901 567.653C52.4044 567.513 53.1216 567.725 53.6644 568.243L56.4902 570.949C58.0217 572.415 61.0218 573.172 62.9133 572.567C64.1534 572.173 65.0334 571.667 65.042 571.661C65.3877 571.461 65.8134 571.509 66.1106 571.778C69.9707 575.25 73.9965 578.184 77.5481 580.771C85.5969 586.636 91.9543 591.269 88.7884 597.287C87.7256 599.306 86.1284 599.997 84.7997 599.997L84.7969 600ZM51.7472 569.843C50.6558 572.205 48.0757 578.914 46.8271 582.805C46.1613 584.881 47.0528 587.172 48.8986 588.138C53.533 590.555 63.8448 593.019 73.8194 595.403C77.3224 596.24 80.9482 597.105 84.3426 597.972C84.6283 598.044 86.0998 598.307 87.1341 596.339C89.3713 592.086 84.7797 588.452 76.468 582.395C73.0222 579.886 69.1392 577.054 65.3534 573.704C64.9105 573.919 64.2476 574.209 63.459 574.461C60.9333 575.265 57.236 574.347 55.2159 572.409L52.3901 569.702C52.2587 569.573 52.1187 569.582 52.0444 569.594C51.9701 569.609 51.8301 569.663 51.7472 569.846V569.843Z" fill="#020D3A"/>
<path d="M45.2 584.304C45.1743 584.373 45.1571 584.424 45.1485 584.445C44.3285 586.996 46.1486 588.435 48.1772 590.011C54.3174 594.781 82.464 598.753 82.464 598.753C82.464 598.753 86.1356 599.635 87.5814 597.476C87.7928 597.159 88.0157 596.971 88.1328 596.546C88.2585 596.088 88.5585 594.41 88.5585 594.41C74.3066 593.767 65.2892 591.575 53.1574 586.368C51.643 585.719 47.2115 583.329 45.98 582.288C45.98 582.288 45.7371 582.863 45.1971 584.307L45.2 584.304Z" fill="white"/>
<path d="M84.1379 599.916C83.2264 599.916 82.4978 599.77 82.3007 599.725C80.6835 599.495 53.8226 595.624 47.6167 590.803C45.5537 589.2 43.2137 587.382 44.2566 584.13C44.2651 584.101 44.288 584.035 44.3223 583.945C44.8623 582.5 45.108 581.911 45.1194 581.887C45.2394 581.606 45.4737 581.4 45.7595 581.328C46.0452 581.259 46.3452 581.328 46.5738 581.519C47.7167 582.486 52.054 584.827 53.5169 585.455C65.9458 590.791 74.8004 592.804 88.6009 593.426C88.8752 593.438 89.1294 593.576 89.298 593.8C89.4666 594.024 89.538 594.314 89.4866 594.596C89.4552 594.772 89.1723 596.333 89.038 596.824C88.9009 597.32 88.6666 597.631 88.4923 597.859C88.4466 597.918 88.4009 597.978 88.3551 598.047C87.3265 599.584 85.5208 599.919 84.1379 599.919V599.916ZM46.4081 583.787C46.3138 584.032 46.2023 584.322 46.0766 584.663L46.0395 584.765C45.4909 586.472 46.4395 587.432 48.7367 589.218C54.614 593.782 82.3092 597.736 82.5892 597.775C82.6178 597.778 82.6464 597.784 82.675 597.79C83.5264 597.99 85.9293 598.224 86.8094 596.908C86.8779 596.803 86.9494 596.71 87.018 596.62C87.1522 596.447 87.1951 596.384 87.2265 596.271C87.2694 596.115 87.3465 595.747 87.4237 595.34C73.9947 594.649 65.1258 592.568 52.7997 587.277C51.5168 586.727 48.2767 585.007 46.4081 583.787Z" fill="#020D3A"/>
<path d="M65.7225 580.577C65.3797 580.577 65.0482 580.379 64.8825 580.039C64.6454 579.554 64.8311 578.959 65.294 578.711L69.9227 576.243C70.3856 575.998 70.9541 576.189 71.1913 576.674C71.4284 577.158 71.2427 577.753 70.7798 578.002L66.1511 580.469C66.014 580.541 65.8683 580.577 65.7254 580.577H65.7225Z" fill="#020D3A"/>
<path d="M70.6781 584.044C70.3324 584.044 70.0009 583.844 69.8352 583.5C69.6038 583.012 69.7923 582.42 70.2581 582.175L74.3011 580.06C74.7668 579.818 75.3325 580.015 75.5668 580.503C75.7982 580.99 75.6097 581.583 75.1439 581.828L71.1009 583.942C70.9667 584.014 70.8209 584.047 70.6809 584.047L70.6781 584.044Z" fill="#020D3A"/>
<path d="M113.222 446.009C113.159 446.009 113.096 446.003 113.03 445.988C112.522 445.877 112.193 445.357 112.296 444.821L117.625 417.721C118.514 412.263 120.674 404.753 124.059 400.147C124.377 399.713 124.968 399.635 125.382 399.967C125.794 400.299 125.871 400.918 125.554 401.352C122.379 405.671 120.334 412.828 119.476 418.086L114.142 445.219C114.051 445.686 113.656 446.006 113.219 446.006L113.222 446.009Z" fill="#020D3A"/>
<path d="M80.4852 405.274C80.0709 405.274 79.6909 404.987 79.5766 404.55C79.4395 404.024 79.7338 403.482 80.2366 403.336C92.2256 399.881 97.6058 388.354 97.6572 388.238C97.8801 387.747 98.443 387.538 98.9144 387.771C99.383 388.004 99.583 388.594 99.3601 389.084C99.1287 389.59 93.5771 401.535 80.7367 405.235C80.6538 405.259 80.5681 405.271 80.4852 405.271V405.274Z" fill="#020D3A"/>
<path d="M126.496 578.488C126.093 581.105 125.424 585.965 125.279 590.334C125.187 593.077 127.039 595.443 129.55 595.859C136.648 597.037 152.774 598.55 166.56 597.569C167.503 597.504 169.186 596.807 169.709 594.276C171.5 585.606 157.183 583.225 141.896 576.304L139.142 579.047C137.679 580.503 135.548 580.871 133.736 579.98L128.442 577.369C127.61 576.959 126.644 577.51 126.496 578.485V578.488Z" fill="white"/>
<path d="M156.949 598.877C145.958 598.877 135.117 597.783 129.406 596.835C126.408 596.338 124.231 593.53 124.34 590.299C124.488 585.846 125.174 580.887 125.568 578.33C125.688 577.549 126.137 576.891 126.797 576.529C127.443 576.174 128.189 576.159 128.849 576.482L134.143 579.09C135.603 579.81 137.312 579.514 138.497 578.336L141.252 575.593C141.526 575.321 141.929 575.246 142.275 575.402C146.075 577.122 149.904 578.593 153.281 579.894C163.821 583.947 172.147 587.147 170.633 594.487C170.047 597.322 168.11 598.45 166.627 598.554C163.475 598.779 160.204 598.874 156.949 598.874V598.877ZM127.431 578.647C127.043 581.159 126.371 586.026 126.226 590.371C126.151 592.602 127.646 594.544 129.703 594.887C137.023 596.102 152.864 597.555 166.501 596.589C166.801 596.568 168.324 596.347 168.793 594.071C169.907 588.672 163.701 586.002 152.635 581.746C149.403 580.504 145.761 579.102 142.103 577.472L139.8 579.766C138.049 581.509 135.514 581.946 133.343 580.875L128.049 578.264C127.886 578.183 127.748 578.234 127.68 578.273C127.548 578.345 127.46 578.479 127.434 578.644L127.431 578.647Z" fill="#020D3A"/>
<path d="M125.304 589.68C125.304 589.68 125.284 590.123 125.279 590.335C125.187 593.078 127.039 595.444 129.55 595.859C136.648 597.038 152.774 598.551 166.56 597.57C167.503 597.504 169.186 596.808 169.709 594.277C169.869 593.503 169.814 592.097 169.814 592.097L168.837 592.124C154.92 592.492 140.993 591.759 127.176 589.925L125.304 589.677V589.68Z" fill="white"/>
<path d="M156.949 598.878C145.958 598.878 135.117 597.784 129.406 596.835C126.408 596.339 124.231 593.53 124.34 590.3L124.366 589.633C124.377 589.358 124.5 589.101 124.7 588.922C124.9 588.745 125.163 588.661 125.426 588.697L127.297 588.945C141.023 590.764 154.989 591.503 168.816 591.135L169.793 591.108C170.313 591.069 170.738 591.515 170.758 592.053C170.764 592.209 170.813 593.611 170.633 594.485C170.047 597.32 168.11 598.448 166.627 598.552C163.475 598.776 160.204 598.872 156.949 598.872V598.878ZM126.228 590.797C126.343 592.846 127.774 594.568 129.7 594.885C137.02 596.1 152.861 597.553 166.498 596.587C166.798 596.566 168.321 596.345 168.79 594.069C168.838 593.833 168.864 593.471 168.876 593.109H168.864C154.944 593.477 140.88 592.735 127.06 590.904L126.228 590.794V590.797Z" fill="#020D3A"/>
<path d="M145.324 587.003C145.084 587.003 144.847 586.907 144.662 586.719C144.29 586.336 144.287 585.711 144.653 585.325L149.705 579.96C150.07 579.571 150.668 579.568 151.036 579.951C151.408 580.333 151.41 580.958 151.045 581.344L145.993 586.71C145.807 586.907 145.564 587.003 145.322 587.003H145.324Z" fill="#020D3A"/>
<path d="M151.098 588.771C150.883 588.771 150.669 588.696 150.492 588.541C150.092 588.191 150.04 587.569 150.375 587.15L154.883 581.515C155.218 581.096 155.812 581.042 156.212 581.392C156.612 581.742 156.663 582.364 156.329 582.783L151.82 588.418C151.635 588.651 151.366 588.771 151.098 588.771Z" fill="#020D3A"/>
<path d="M86.0385 357.142C86.0385 357.142 84.4613 367.823 82.9098 373.682C82.1927 376.392 96.9817 379.439 112.014 379.924C124.385 380.322 136.92 378.725 141.115 376.036C141.115 376.036 139.517 362.391 139.229 360.352C138.937 358.312 86.0385 357.142 86.0385 357.142Z" fill="white"/>
<path d="M175.131 346.74C175.131 346.74 181.331 347.655 183.434 348.72C185.54 349.785 191.757 352.853 192.292 354.31C192.826 355.767 190.792 357.31 186.651 355.375C184.337 354.292 182.834 353.742 181.96 353.464C181.666 353.371 181.443 353.754 181.657 353.993C182.803 355.27 185.166 357.738 187.126 358.653C189.823 359.915 197.46 362.601 196.695 366.184C196 369.429 189.86 369.71 181.946 366.905C180.411 366.36 178.994 365.496 177.734 364.404C175.763 362.696 172.54 360.038 170.557 359.11L175.128 346.734L175.131 346.74Z" fill="white"/>
<path d="M191.358 369.812C188.684 369.812 185.33 369.148 181.649 367.841C180.052 367.276 178.535 366.376 177.141 365.167C174.072 362.511 171.601 360.681 170.18 360.017C169.723 359.802 169.506 359.251 169.686 358.761L174.258 346.384C174.415 345.957 174.838 345.703 175.269 345.762C175.529 345.801 181.641 346.713 183.852 347.832L184.215 348.014C190.284 351.074 192.713 352.683 193.178 353.954C193.496 354.822 193.296 355.728 192.641 356.377C191.41 357.6 189.03 357.561 186.275 356.272C185.584 355.949 184.967 355.674 184.421 355.441C185.404 356.365 186.535 357.289 187.518 357.75C187.878 357.917 188.324 358.112 188.83 358.33C192.43 359.885 198.459 362.49 197.621 366.399C197.401 367.431 196.764 368.284 195.778 368.864C194.701 369.498 193.19 369.809 191.358 369.809V369.812ZM171.752 358.638C173.729 359.781 176.364 361.934 178.344 363.648C179.561 364.704 180.878 365.484 182.255 365.975C187.787 367.937 192.733 368.397 194.856 367.147C195.376 366.842 195.678 366.456 195.781 365.972C196.27 363.684 190.758 361.303 188.11 360.157C187.587 359.93 187.121 359.73 186.75 359.556C184.661 358.578 182.238 356.075 180.978 354.669C180.587 354.23 180.527 353.592 180.827 353.081C181.127 352.576 181.692 352.348 182.238 352.519C183.118 352.797 184.664 353.359 187.044 354.472C189.613 355.671 190.981 355.306 191.344 354.947C191.453 354.84 191.453 354.762 191.418 354.663C191.175 354.17 189.581 352.911 183.398 349.794L183.032 349.609C181.612 348.891 177.795 348.167 175.746 347.832L171.755 358.638H171.752Z" fill="#020D3A"/>
<path d="M143.428 360.563C143.108 362.899 141.72 364.918 139.711 365.899C135.277 368.065 128.254 369.348 116.199 369.198C110.656 369.13 105.128 368.507 99.6817 367.389L77.347 362.801L78.2984 357.459C80.1013 347.338 80.0642 330.373 79.9813 324.227C79.9613 322.77 79.6356 321.34 79.0299 320.039C72.944 306.957 71.224 291.126 75.2784 273.491C76.4013 268.61 79.4813 264.494 83.73 262.44C83.79 262.41 83.8443 262.386 83.8957 262.362C98.7446 255.57 115.331 252.522 130.931 256.924C145.891 261.145 153.351 268.251 153.351 268.251C163.297 276.461 152.106 311.057 148.243 310.522C146.786 318.66 145.777 327.822 145.405 335.598L145.545 336.095C151.188 338.628 156.986 340.74 162.892 342.432L175.386 346.007L169.257 361.727C158.534 361.551 150.308 361.207 143.414 360.486L143.428 360.561V360.563Z" fill="#020D3A"/>
<path d="M169.258 362.711H169.244C137.689 362.197 127.535 360.25 108.883 351.152C94.1484 343.965 83.1882 332.614 77.1852 318.327C76.9766 317.827 77.1909 317.247 77.6681 317.026C78.1452 316.807 78.6995 317.032 78.911 317.531C84.7254 331.373 95.3656 342.382 109.68 349.363C127.903 358.252 137.918 360.202 168.633 360.725L174.116 346.659L162.647 343.378C155.658 341.377 148.798 338.775 142.261 335.644C130.435 329.979 125.109 326.205 115.12 316.418C107.952 309.396 100.843 294.094 100.543 293.448C100.317 292.958 100.511 292.369 100.98 292.129C101.449 291.893 102.011 292.097 102.24 292.59C102.311 292.746 109.497 308.208 116.406 314.98C126.212 324.59 131.441 328.292 143.041 333.849C149.487 336.939 156.25 339.502 163.141 341.476L175.636 345.05C175.896 345.125 176.113 345.313 176.233 345.565C176.353 345.819 176.361 346.112 176.261 346.375L170.133 362.095C169.987 362.466 169.644 362.708 169.261 362.708L169.258 362.711Z" fill="#020D3A"/>
<path d="M169.261 362.712H169.247C157.601 362.521 149.846 362.15 143.323 361.468C142.806 361.414 142.426 360.929 142.477 360.388C142.529 359.847 142.989 359.443 143.509 359.506C149.769 360.161 157.538 360.538 168.63 360.729L174.113 346.663L162.644 343.382C156.686 341.677 150.809 339.53 145.175 336.999C144.917 336.883 144.72 336.652 144.64 336.371L144.5 335.875C144.472 335.77 144.457 335.659 144.463 335.549C144.803 328.401 145.997 318.24 147.506 309.66C147.6 309.124 148.089 308.771 148.603 308.867C149.115 308.966 149.455 309.48 149.36 310.016C147.883 318.414 146.712 328.332 146.357 335.384C151.778 337.792 157.421 339.841 163.138 341.477L175.633 345.051C175.893 345.126 176.11 345.314 176.23 345.565C176.35 345.819 176.358 346.113 176.258 346.376L170.13 362.096C169.984 362.467 169.641 362.709 169.258 362.709L169.261 362.712Z" fill="#020D3A"/>
<path d="M118.075 370.197C117.458 370.197 116.83 370.193 116.19 370.185C110.69 370.116 105.075 369.503 99.5008 368.357L77.1661 363.769C76.6575 363.664 76.3261 363.153 76.4204 362.62L77.3718 357.279C79.1404 347.352 79.1261 330.866 79.0404 324.241C79.0233 322.943 78.7261 321.642 78.1833 320.472C71.7574 306.66 70.4374 290.335 74.3632 273.26C75.5775 267.984 78.8461 263.713 83.3376 261.545C83.4062 261.512 83.4691 261.482 83.5291 261.455C95.2007 256.116 112.95 250.831 131.179 255.972C146.187 260.208 153.676 267.224 153.988 267.52C154.308 267.814 158.293 271.711 158.862 272.949C159.088 273.44 158.891 274.029 158.422 274.265C157.953 274.501 157.391 274.295 157.165 273.804C156.848 273.134 153.739 269.913 152.733 268.992C152.648 268.911 145.222 261.978 130.69 257.878C112.987 252.883 95.6808 258.051 84.2777 263.267L84.132 263.336C80.169 265.25 77.2775 269.037 76.2004 273.724C72.3774 290.347 73.6517 306.214 79.8833 319.611C80.5462 321.037 80.909 322.632 80.929 324.217C81.0176 330.901 81.029 347.543 79.229 357.644L78.449 362.025L99.8665 366.425C105.327 367.547 110.827 368.148 116.215 368.216C127.219 368.348 134.562 367.331 139.319 365.01C141.033 364.173 142.225 362.459 142.502 360.428C142.576 359.89 143.053 359.513 143.567 359.591C144.082 359.668 144.442 360.168 144.367 360.706C143.999 363.398 142.41 365.674 140.116 366.796C135.379 369.111 128.344 370.199 118.081 370.199L118.075 370.197Z" fill="#020D3A"/>
<path d="M122.208 315.504C122.034 315.504 121.859 315.454 121.702 315.349C121.262 315.056 121.134 314.446 121.414 313.985L121.705 313.504C124.748 308.503 126.668 302.715 127.265 296.764C127.32 296.222 127.785 295.839 128.3 295.884C128.817 295.941 129.194 296.426 129.14 296.97C128.514 303.224 126.491 309.307 123.294 314.565L122.999 315.047C122.819 315.343 122.514 315.501 122.205 315.501L122.208 315.504Z" fill="#020D3A"/>
<path d="M105.987 258.999C105.587 258.825 105.633 258.203 106.05 258.092C107.482 257.719 109.536 257.114 109.676 256.678C112.002 249.341 113.216 243.455 114.216 235.772L114.27 235.356C113.605 218.095 121.851 210.89 129.811 212.123C141.114 213.872 140 220.895 140 220.895C140.128 222.968 140.431 227.801 140.963 228.572C141.611 229.521 143.46 230.989 143.62 231.602C143.78 232.215 143.026 233.633 141.248 234.363C141.248 234.363 141.826 244.439 139.628 246.431C137.431 248.423 127.771 246.67 127.771 246.67L127.528 258.655L131.877 260.847C132.4 261.11 132.268 261.951 131.694 262.014L125.991 262.642C121.365 263.231 116.679 262.878 112.176 261.604C111.805 261.499 108.042 259.881 105.99 258.996L105.987 258.999Z" fill="white"/>
<path d="M121.61 263.91C118.356 263.91 115.113 263.458 111.93 262.558C111.799 262.522 111.45 262.423 105.63 259.908C105.073 259.669 104.73 259.08 104.776 258.446C104.821 257.812 105.241 257.285 105.827 257.133C107.867 256.603 108.613 256.265 108.856 256.134C111.016 249.282 112.259 243.509 113.282 235.637L113.324 235.308C112.982 226.015 115.224 218.613 119.642 214.456C122.53 211.74 126.191 210.565 129.948 211.145C134.562 211.86 137.802 213.514 139.577 216.065C141.094 218.245 141 220.369 140.945 220.919C141.274 226.129 141.56 227.66 141.745 228.022C141.965 228.342 142.488 228.863 142.948 229.32C143.854 230.224 144.377 230.762 144.525 231.336C144.805 232.407 143.945 234.019 142.22 234.973C142.334 237.677 142.44 245.178 140.242 247.17C138.168 249.051 131.571 248.268 128.688 247.816L128.482 258.033L132.282 259.95C132.902 260.264 133.239 260.955 133.119 261.673C133.002 262.385 132.465 262.914 131.788 262.986L126.085 263.617C124.593 263.805 123.099 263.901 121.605 263.901L121.61 263.91ZM107.684 258.661C110.85 260.022 112.222 260.59 112.43 260.656C116.827 261.9 121.356 262.241 125.876 261.664L130.345 261.17L127.116 259.543C126.785 259.376 126.576 259.02 126.582 258.634L126.825 246.65C126.831 246.362 126.956 246.093 127.168 245.908C127.379 245.725 127.656 245.645 127.928 245.698C131.756 246.392 137.725 246.85 139.008 245.686C140.28 244.535 140.531 238.407 140.305 234.423C140.282 233.995 140.522 233.6 140.902 233.445C142.097 232.954 142.588 232.156 142.68 231.854C142.494 231.599 141.994 231.1 141.648 230.756C141.102 230.212 140.537 229.649 140.194 229.15C139.685 228.408 139.388 226.267 139.057 220.961C139.051 220.886 139.057 220.811 139.068 220.734C139.102 220.494 139.805 214.671 129.671 213.101C126.479 212.604 123.365 213.609 120.902 215.927C116.893 219.699 114.873 226.584 115.21 235.32C115.21 235.377 115.21 235.434 115.202 235.494L115.147 235.909C114.096 244.003 112.813 249.913 110.57 256.992C110.413 257.491 110.073 257.946 107.681 258.664L107.684 258.661Z" fill="#020D3A"/>
<path d="M122.694 228.319C122.879 228.217 122.991 227.182 122.985 226.734C122.928 222.792 120.182 222.14 120.499 220.534C120.674 219.654 121.111 219.391 121.517 219.077C123.522 217.525 126.148 218.494 131.423 219.595C137.971 220.961 138.717 221.174 139.957 220.656C143.106 219.334 144.914 215.174 145.069 211.747C145.112 210.783 145.214 205.678 141.203 203.019C138.457 201.201 134.817 201.216 131.76 203.007C131.505 203.157 131.191 203.037 131.088 202.744C130.768 201.838 130.205 200.797 129.185 200.229C126.231 198.584 121.799 202.215 120.248 203.489C118.868 204.622 116.445 206.937 114.619 210.981C114.505 211.232 114.231 211.343 113.996 211.22C113.099 210.748 111.251 210 109.259 210.676C105.707 211.878 104.813 216.544 104.736 216.987C103.825 222.143 107.739 226.668 110.696 230.084C112.702 232.402 113.539 232.958 114.836 233.879C114.982 233.981 115.168 233.993 115.319 233.903C115.476 233.81 115.648 233.709 115.825 233.604C116.751 233.06 117.065 231.788 116.514 230.819C115.956 229.838 115.576 228.747 115.459 227.601C115.365 226.671 115.951 225.723 116.508 225.223C117.396 224.425 118.385 224.924 118.599 225.002C120.325 225.618 121.037 227.44 121.302 228.409C121.385 228.714 121.702 228.866 121.965 228.72L122.694 228.316V228.319Z" fill="#020D3A"/>
<path d="M454.863 335.076L447.437 370.261L391.146 407.581L395.621 374.768L454.863 335.076Z" fill="#020D3A"/>
<path d="M391.149 408.569C390.972 408.569 390.792 408.515 390.637 408.41C390.329 408.201 390.163 407.824 390.217 407.441L394.689 374.628C394.729 374.344 394.883 374.09 395.115 373.937L454.359 334.242C454.679 334.027 455.094 334.033 455.408 334.266C455.722 334.493 455.871 334.897 455.788 335.289L448.359 370.477C448.305 370.734 448.156 370.958 447.942 371.099L391.654 408.419C391.5 408.521 391.326 408.572 391.149 408.572V408.569ZM396.492 375.358L392.369 405.605L446.599 369.648L453.451 337.194L396.492 375.358Z" fill="#020D3A"/>
</svg>
