<svg width="620" height="640" viewBox="0 0 620 640" fill="none" xmlns="http://www.w3.org/2000/svg">
<path d="M560.074 462.493L547.947 470.648C545.894 471.9 103.113 434.592 103.113 429.812L96.5059 90.6361L108.544 84.0211C108.544 84.0211 113.604 81.0405 116.577 81.232L557.32 113.771C562.18 114.086 565.705 117.824 565.705 122.66V452.879C565.705 456.667 563.528 460.384 560.074 462.493Z" fill="#20E086"/>
<path d="M540.98 471.575L100.237 439.036C95.3772 438.721 91.8516 434.983 91.8516 430.147V100.281C91.8516 94.0076 97.6665 88.5942 103.966 89.0036L544.709 121.543C549.569 121.858 553.095 125.595 553.095 130.431V460.295C553.095 466.568 547.28 471.981 540.98 471.572V471.575Z" fill="white"/>
<path d="M91.8501 276.016C91.3088 276.016 90.8711 275.581 90.8711 275.039V100.28C90.8711 97.0286 92.3263 93.8035 94.864 91.4356C97.4106 89.0588 100.753 87.8218 104.03 88.0279L177.252 93.4324C177.793 93.4737 178.198 93.942 178.157 94.478C178.115 95.017 177.639 95.4146 177.107 95.3792L103.897 89.9747C101.17 89.7951 98.3601 90.8495 96.2068 92.8581C94.0625 94.8579 92.8321 97.5646 92.8321 100.28V275.039C92.8321 275.578 92.3943 276.016 91.8501 276.016Z" fill="#020D3A"/>
<path d="M553.097 443.928C552.556 443.928 552.115 443.492 552.115 442.95V130.431C552.115 126.125 548.974 122.797 544.647 122.517L416.332 113.046C415.791 113.004 415.385 112.536 415.427 112C415.465 111.461 415.935 111.066 416.477 111.099L544.783 120.571C550.163 120.918 554.076 125.065 554.076 130.434V442.95C554.076 443.489 553.638 443.928 553.097 443.928Z" fill="#020D3A"/>
<path d="M528.438 451.236L497.577 449.319C494.441 449.124 492.164 446.715 492.164 443.599V149.444C492.164 145.415 495.894 141.933 499.946 142.187L530.807 144.104C533.942 144.298 536.219 146.708 536.219 149.824V443.982C536.219 448.011 532.49 451.492 528.438 451.239V451.236Z" fill="#020D3A"/>
<path d="M468.531 446.612L437.67 444.671C434.535 444.474 432.258 442.035 432.258 438.878V189.399C432.258 185.317 435.988 181.794 440.04 182.051L470.901 183.992C474.036 184.189 476.313 186.628 476.313 189.785V439.264C476.313 443.346 472.583 446.868 468.531 446.612Z" fill="#20E086"/>
<path d="M408.619 441.985L377.758 439.829C374.623 439.611 372.346 436.902 372.346 433.394V232.223C372.346 227.69 376.075 223.773 380.127 224.059L410.988 226.214C414.124 226.432 416.401 229.142 416.401 232.65V433.821C416.401 438.354 412.671 442.271 408.619 441.985Z" fill="#20E086"/>
<path d="M348.709 438.075L317.848 435.86C314.713 435.636 312.436 432.853 312.436 429.248V270.005C312.436 265.345 316.165 261.325 320.217 261.614L351.078 263.829C354.213 264.052 356.491 266.836 356.491 270.441V429.684C356.491 434.343 352.761 438.363 348.709 438.075Z" fill="#20E086"/>
<path d="M288.799 433.446L257.938 430.524C254.803 430.227 252.525 426.557 252.525 421.8V306.609C252.525 300.465 256.255 295.158 260.307 295.541L291.168 298.463C294.303 298.76 296.581 302.43 296.581 307.186V422.378C296.581 428.521 292.851 433.829 288.799 433.446Z" fill="#20E086"/>
<path d="M228.891 428.829L198.03 426.911C194.895 426.717 192.617 424.308 192.617 421.192V375.016C192.617 370.987 196.347 367.506 200.399 367.759L231.26 369.677C234.395 369.871 236.673 372.28 236.673 375.396V421.572C236.673 425.601 232.943 429.082 228.891 428.829Z" fill="#20E086"/>
<path d="M168.981 424.918L138.12 423C134.984 422.806 132.707 420.397 132.707 417.281V390.847C132.707 386.818 136.437 383.337 140.489 383.59L171.35 385.508C174.485 385.702 176.762 388.111 176.762 391.227V417.661C176.762 421.69 173.033 425.171 168.981 424.918Z" fill="white"/>
<path d="M241.545 270.792C241.427 270.792 241.305 270.772 241.187 270.724C240.684 270.527 240.436 269.962 240.631 269.458C253.722 236.236 275.266 206.671 302.93 183.961C303.347 183.616 303.965 183.678 304.311 184.093C304.657 184.509 304.595 185.124 304.178 185.469C276.772 207.967 255.429 237.258 242.459 270.174C242.308 270.559 241.938 270.795 241.545 270.795V270.792Z" fill="#020D3A"/>
<path d="M220.839 285.636C220.733 285.636 220.626 285.619 220.52 285.583C220.008 285.407 219.736 284.853 219.914 284.344C228.568 259.291 241.316 235.968 257.805 215.019C274.868 193.342 295.513 174.772 319.172 159.828C319.628 159.539 320.234 159.675 320.527 160.128C320.817 160.585 320.681 161.186 320.225 161.477C274.206 190.55 239.242 234.41 221.771 284.98C221.632 285.383 221.251 285.639 220.845 285.639L220.839 285.636Z" fill="#020D3A"/>
<path d="M214.703 302.391C214.608 302.391 214.513 302.376 214.419 302.349C214.055 302.24 213.789 301.931 213.733 301.56L211.86 289.016C211.813 288.698 211.925 288.38 212.159 288.159C212.393 287.941 212.718 287.85 213.037 287.918L224.138 290.3C224.481 290.374 224.756 290.624 224.865 290.954C224.972 291.287 224.895 291.649 224.658 291.909L215.43 302.067C215.241 302.276 214.975 302.388 214.703 302.388V302.391ZM214.008 290.124L215.365 299.227L222.064 291.853L214.008 290.124Z" fill="#020D3A"/>
<path d="M117.572 188.327C117.421 188.327 117.267 188.292 117.125 188.221C116.643 187.974 116.454 187.388 116.699 186.908C130.396 160.265 146.176 141.542 166.357 127.985C166.803 127.685 167.415 127.803 167.717 128.248C168.022 128.695 167.9 129.302 167.454 129.602C147.56 142.968 131.985 161.458 118.447 187.797C118.273 188.136 117.93 188.33 117.575 188.33L117.572 188.327Z" fill="white"/>
<path d="M124.518 155.013C124.305 155.013 124.089 154.943 123.909 154.801C123.486 154.465 123.415 153.85 123.752 153.429C139.866 133.266 160.44 116.351 183.247 104.514C183.729 104.264 184.32 104.449 184.569 104.93C184.82 105.407 184.634 105.999 184.152 106.246C161.584 117.956 141.229 134.691 125.284 154.645C125.092 154.887 124.805 155.013 124.515 155.013H124.518Z" fill="white"/>
<path d="M516.588 86.7986C516.048 86.7986 515.607 86.3627 515.607 85.8208V80.7726C515.607 80.2336 516.045 79.7948 516.588 79.7948C517.132 79.7948 517.566 80.2307 517.566 80.7726V85.8208C517.566 86.3597 517.129 86.7986 516.588 86.7986Z" fill="#020D3A"/>
<path d="M516.588 98.5567C516.048 98.5567 515.607 98.1208 515.607 97.5789V92.5308C515.607 91.9918 516.045 91.5559 516.588 91.5559C517.132 91.5559 517.566 91.9918 517.566 92.5308V97.5789C517.566 98.1179 517.129 98.5567 516.588 98.5567Z" fill="#020D3A"/>
<path d="M513.218 90.1536H508.148C507.607 90.1536 507.166 89.7176 507.166 89.1784C507.166 88.6393 507.604 88.2003 508.148 88.2003H513.218C513.759 88.2003 514.2 88.6363 514.2 89.1784C514.2 89.7205 513.762 90.1536 513.218 90.1536Z" fill="#020D3A"/>
<path d="M525.026 90.1536H519.957C519.415 90.1536 518.975 89.7176 518.975 89.1784C518.975 88.6393 519.412 88.2003 519.957 88.2003H525.026C525.567 88.2003 526.008 88.6363 526.008 89.1784C526.008 89.7205 525.57 90.1536 525.026 90.1536Z" fill="#020D3A"/>
<path d="M111.814 253.2C111.273 253.2 110.836 252.764 110.836 252.222V247.174C110.836 246.635 111.273 246.199 111.814 246.199C112.355 246.199 112.795 246.635 112.795 247.174V252.222C112.795 252.761 112.358 253.2 111.814 253.2Z" fill="#020D3A"/>
<path d="M111.814 264.961C111.273 264.961 110.836 264.525 110.836 263.986V258.938C110.836 258.399 111.273 257.96 111.814 257.96C112.355 257.96 112.795 258.396 112.795 258.938V263.986C112.795 264.525 112.358 264.961 111.814 264.961Z" fill="#020D3A"/>
<path d="M108.446 256.557H103.376C102.835 256.557 102.395 256.121 102.395 255.579C102.395 255.037 102.832 254.601 103.376 254.601H108.446C108.987 254.601 109.428 255.037 109.428 255.579C109.428 256.121 108.99 256.557 108.446 256.557Z" fill="#020D3A"/>
<path d="M120.255 256.557H115.185C114.644 256.557 114.203 256.121 114.203 255.579C114.203 255.037 114.641 254.601 115.185 254.601H120.255C120.796 254.601 121.234 255.037 121.234 255.579C121.234 256.121 120.796 256.557 120.255 256.557Z" fill="#020D3A"/>
<path d="M87.4861 295.155C55.9626 301.888 40.6889 359.886 40.0234 397.432C38.8906 461.317 79.0447 522.545 134.461 551.974C208.09 591.075 317.855 578.92 354.01 515.385C375.584 477.474 372.623 418.319 342.614 394.554C312.531 370.733 295.45 397.087 237.943 382.473C158.472 362.277 126.913 286.735 87.489 295.155H87.4861Z" fill="#020D3A"/>
<path d="M103.373 487.1C103.248 487.1 103.121 487.077 102.997 487.027C102.497 486.821 102.26 486.249 102.468 485.751C109.974 467.694 134.174 464.319 135.201 464.183C135.736 464.113 136.23 464.49 136.301 465.023C136.372 465.559 135.993 466.048 135.458 466.118C135.218 466.151 111.35 469.491 104.281 486.497C104.124 486.874 103.76 487.1 103.376 487.1H103.373Z" fill="white"/>
<path d="M137.139 498.094C136.645 498.094 136.219 497.722 136.166 497.222C134.308 479.824 144.293 468.674 144.719 468.208C145.083 467.811 145.701 467.778 146.104 468.143C146.506 468.506 146.532 469.124 146.172 469.522C146.074 469.631 136.355 480.522 138.115 497.016C138.171 497.552 137.784 498.032 137.242 498.091C137.207 498.094 137.171 498.097 137.139 498.097V498.094Z" fill="white"/>
<path d="M277.822 544.527L282.495 561.595L293.22 560.653L290.901 542.772L277.822 544.527Z" fill="white"/>
<path d="M282.5 562.571C282.062 562.571 281.671 562.279 281.553 561.852L276.88 544.784C276.806 544.513 276.853 544.222 277.01 543.989C277.167 543.754 277.415 543.597 277.696 543.562L290.775 541.807C291.033 541.771 291.296 541.842 291.503 541.998C291.71 542.157 291.846 542.39 291.879 542.649L294.194 560.533C294.23 560.795 294.153 561.063 293.987 561.269C293.819 561.475 293.576 561.608 293.31 561.628L282.585 562.571C282.556 562.571 282.526 562.574 282.5 562.574V562.571ZM279.069 545.344L283.23 560.55L292.121 559.77L290.059 543.868L279.066 545.344H279.069Z" fill="#020D3A"/>
<path d="M283.209 581.095C291.086 584.812 311.565 593.807 327.563 595.008C330.98 595.265 333.1 591.998 332.308 588.679C328.933 574.595 294.162 550.883 294.162 550.883L289.14 552.571C287.377 553.163 286.513 555.142 287.282 556.829L288.32 559.109L280.263 558.426C278.43 558.27 276.833 559.672 276.776 561.506C276.679 564.617 276.918 569.682 278.69 575.779C279.367 578.115 281.006 580.053 283.212 581.095H283.209Z" fill="#20E086"/>
<path d="M327.946 596C327.798 596 327.647 595.994 327.493 595.982C311.377 594.772 290.862 585.786 282.79 581.978C280.341 580.823 278.504 578.661 277.744 576.052C275.949 569.864 275.692 564.71 275.792 561.476C275.828 560.324 276.325 559.264 277.191 558.498C278.049 557.738 279.199 557.358 280.344 557.453L286.733 557.995L286.387 557.232C285.905 556.177 285.896 554.961 286.36 553.901C286.824 552.838 287.724 552.016 288.824 551.645L294.31 549.801L294.716 550.075C296.147 551.053 329.839 574.164 333.261 588.451C333.755 590.519 333.287 592.642 332.01 594.136C330.974 595.346 329.54 595.997 327.94 595.997L327.946 596ZM279.986 559.391C279.436 559.391 278.916 559.588 278.498 559.956C278.04 560.363 277.774 560.925 277.756 561.538C277.658 564.63 277.904 569.567 279.631 575.51C280.235 577.583 281.693 579.298 283.633 580.214C291.604 583.975 311.853 592.852 327.641 594.035C328.795 594.121 329.806 593.709 330.522 592.872C331.394 591.853 331.708 590.372 331.356 588.908C328.298 576.146 297.875 554.652 294.009 551.966L289.454 553.494C288.865 553.692 288.407 554.113 288.161 554.678C287.913 555.244 287.919 555.865 288.176 556.425L289.903 560.221L280.181 559.397C280.116 559.391 280.051 559.388 279.986 559.388V559.391Z" fill="#020D3A"/>
<path d="M327.051 590.346C327.001 590.346 326.953 590.343 326.903 590.334C304.942 587.018 284.468 576.565 284.264 576.459C283.782 576.212 283.596 575.623 283.844 575.143C284.093 574.663 284.684 574.477 285.166 574.725C285.368 574.828 305.566 585.136 327.199 588.402C327.734 588.482 328.104 588.98 328.021 589.513C327.947 589.996 327.53 590.343 327.054 590.343L327.051 590.346Z" fill="#020D3A"/>
<path d="M310.861 577.5C310.665 577.5 310.467 577.441 310.296 577.32C309.852 577.008 309.748 576.398 310.062 575.96L315.028 568.968C315.341 568.526 315.954 568.423 316.394 568.735C316.838 569.047 316.942 569.657 316.628 570.096L311.662 577.088C311.47 577.356 311.168 577.5 310.861 577.5Z" fill="#020D3A"/>
<path d="M301.355 573.697C301.159 573.697 300.961 573.638 300.79 573.517C300.346 573.205 300.243 572.595 300.556 572.157L306.797 563.371C307.11 562.929 307.723 562.826 308.163 563.138C308.607 563.451 308.711 564.06 308.397 564.499L302.156 573.285C301.964 573.553 301.662 573.697 301.355 573.697Z" fill="#020D3A"/>
<path d="M228.653 471.102C231.572 478.648 239.584 497.816 249.608 508.857C251.747 511.214 255.287 510.368 256.89 507.62C263.699 495.96 255.53 457.719 255.53 457.719L251.052 455.646C249.481 454.918 247.621 455.702 247.05 457.33L246.281 459.533L241.285 453.92C240.146 452.642 238.165 452.568 236.946 453.767C234.873 455.805 231.77 459.374 229.031 464.62C227.981 466.629 227.836 468.985 228.656 471.099L228.653 471.102Z" fill="#20E086"/>
<path d="M252.628 511.209C251.199 511.209 249.883 510.617 248.88 509.513C238.777 498.38 230.729 479.189 227.738 471.455C226.825 469.093 226.978 466.439 228.158 464.174C230.942 458.843 234.098 455.194 236.254 453.076C237.035 452.308 238.082 451.907 239.17 451.942C240.259 451.978 241.294 452.464 242.018 453.277L245.905 457.641L246.124 457.011C246.487 455.974 247.277 455.135 248.295 454.705C249.309 454.278 250.466 454.299 251.465 454.761L256.387 457.041L256.488 457.518C256.825 459.094 264.654 496.259 257.736 508.111C256.727 509.84 255.021 510.986 253.175 511.18C252.989 511.201 252.805 511.209 252.625 511.209H252.628ZM229.569 470.751C232.521 478.385 240.454 497.314 250.335 508.202C251.232 509.192 252.267 509.31 252.974 509.239C254.198 509.112 255.346 508.323 256.041 507.13C262.181 496.613 255.568 462.816 254.669 458.398L250.637 456.531C250.131 456.296 249.569 456.287 249.058 456.505C248.543 456.72 248.162 457.129 247.978 457.653L246.656 461.429L240.551 454.57C240.179 454.151 239.664 453.91 239.105 453.892C238.552 453.883 238.028 454.078 237.632 454.464C235.573 456.484 232.562 459.968 229.898 465.072C228.975 466.839 228.854 468.91 229.566 470.751H229.569Z" fill="#020D3A"/>
<path d="M252.897 505.696C252.604 505.696 252.314 505.567 252.122 505.319C239.436 489.029 232.362 468.869 232.291 468.669C232.113 468.159 232.385 467.602 232.897 467.429C233.409 467.252 233.968 467.523 234.145 468.032C234.213 468.23 241.19 488.095 253.672 504.123C254.003 504.55 253.926 505.163 253.498 505.493C253.32 505.631 253.107 505.696 252.897 505.696Z" fill="#020D3A"/>
<path d="M250.261 486.675C249.802 486.675 249.391 486.351 249.3 485.886C249.196 485.356 249.542 484.843 250.072 484.74L257.933 483.2C258.466 483.094 258.98 483.439 259.084 483.969C259.187 484.499 258.841 485.011 258.312 485.114L250.45 486.655C250.385 486.666 250.323 486.672 250.258 486.672L250.261 486.675Z" fill="#020D3A"/>
<path d="M246.298 478.028C245.839 478.028 245.428 477.704 245.337 477.239C245.233 476.709 245.579 476.196 246.109 476.093L255.987 474.158C256.514 474.055 257.034 474.397 257.138 474.927C257.242 475.457 256.895 475.97 256.366 476.073L246.487 478.008C246.422 478.02 246.36 478.025 246.295 478.025L246.298 478.028Z" fill="#020D3A"/>
<path d="M190.409 402.119C191.217 401.274 248.741 376.525 272.255 371.262C295.769 365.999 305.639 365.351 312.531 379.329C321.155 396.821 273.989 465.727 273.989 465.727L174.973 440.027L190.409 402.119Z" fill="#20E086"/>
<path d="M139.516 426.614C139.516 426.614 134.943 438.613 149.312 452.759C167.316 470.484 251.723 461.188 251.723 461.188C251.723 461.188 252.285 475.773 254.314 486.252C259.928 515.257 262.767 516.671 276.074 549.796L293.693 547.051C293.693 547.051 293.259 448.883 280.313 433.733C267.367 418.583 185.825 417.752 185.825 417.752L139.519 426.614H139.516Z" fill="#20E086"/>
<path d="M286.808 448.374C286.402 448.374 286.024 448.121 285.882 447.717C283.548 441.032 281.422 436.54 279.561 434.364C272.755 426.4 228.313 420.603 188.993 417.832C188.451 417.794 188.046 417.328 188.085 416.789C188.123 416.25 188.599 415.847 189.132 415.885C213.835 417.626 272.244 422.786 281.058 433.097C283.102 435.492 285.287 440.063 287.736 447.075C287.914 447.585 287.645 448.141 287.133 448.318C287.026 448.356 286.917 448.371 286.811 448.371L286.808 448.374Z" fill="white"/>
<path d="M261.262 337.503C260.712 334.758 259.407 330.85 256.352 329.177C253.803 327.781 249.035 325.407 244.542 330.099C244.542 330.099 233.267 347.052 219.688 347.464C206.112 347.876 189.064 328.376 145.931 329.486C139.717 328.344 134.476 328.768 131.619 329.775C121.048 333.504 105.112 338.284 102.565 368.617C99.912 400.213 111.968 415.464 111.968 415.464L144.583 406.563L145.115 428.24L189.043 417.452C188.969 416.459 189.765 390.679 189.673 389.716C189.011 382.81 187.857 376.66 186.328 371.173C194.521 371.415 211.445 380 225.45 377.994C240.082 375.897 255.897 350.427 260.398 342.675C261.306 341.114 261.62 339.273 261.262 337.503Z" fill="white"/>
<path d="M252.467 344.844C252.438 344.844 252.408 344.844 252.376 344.844C249.152 344.797 246.088 342.208 243.263 337.154C243 336.683 243.168 336.088 243.641 335.826C244.115 335.564 244.712 335.732 244.975 336.206C247.395 340.538 249.962 342.853 252.396 342.892C252.42 342.892 252.441 342.892 252.464 342.892C255.606 342.892 257.85 339.228 257.874 339.193C258.152 338.73 258.753 338.58 259.22 338.857C259.684 339.134 259.835 339.731 259.56 340.194C259.445 340.385 256.726 344.847 252.467 344.847V344.844Z" fill="#020D3A"/>
<path d="M285.517 304.192C285.183 303.22 284.18 302.652 283.178 302.864C280.377 303.456 265.961 306.51 263.272 307.099C260.584 307.685 260.474 310.566 258.945 313.205C257.614 315.496 253.03 323.899 248.034 329.754C246.529 331.518 246.319 334.048 247.49 336.051C248.161 337.199 249.016 338.33 250.031 338.996C252.722 340.763 254.721 342.884 260.347 329.492C260.347 329.492 262.911 328.272 265.381 325.457C265.381 325.457 274.148 335.753 276.39 314.845C276.588 312.987 275.727 311.175 274.101 310.262C273.97 310.189 273.834 310.118 273.692 310.044L284.195 306.805C285.293 306.466 285.893 305.282 285.517 304.192Z" fill="white"/>
<path d="M252.84 341.279C251.687 341.279 250.711 340.625 249.829 340.036L249.489 339.809C248.481 339.147 247.522 338.045 246.641 336.54C245.26 334.175 245.517 331.192 247.286 329.121C251.675 323.979 255.783 316.763 257.54 313.685C257.762 313.296 257.948 312.969 258.096 312.716C258.525 311.977 258.841 311.202 259.146 310.451C259.903 308.593 260.681 306.67 263.062 306.148C265.644 305.583 278.957 302.764 282.974 301.913C284.455 301.598 285.949 302.446 286.443 303.88C286.712 304.661 286.653 305.497 286.277 306.234C285.905 306.967 285.266 307.503 284.482 307.745L275.848 310.407C276.969 311.585 277.543 313.24 277.36 314.958C276.467 323.278 274.473 327.802 271.261 328.785C268.83 329.533 266.552 327.914 265.402 326.877C263.58 328.747 261.832 329.804 261.11 330.199C258.099 337.309 255.955 340.49 253.739 341.149C253.426 341.244 253.124 341.285 252.834 341.285L252.84 341.279ZM283.601 303.798C283.53 303.798 283.459 303.804 283.385 303.822C279.368 304.673 266.061 307.491 263.485 308.057C262.175 308.343 261.719 309.326 260.965 311.185C260.649 311.959 260.294 312.84 259.797 313.697C259.652 313.947 259.469 314.268 259.25 314.651C257.466 317.779 253.293 325.107 248.785 330.391C247.555 331.834 247.374 333.913 248.342 335.562C249.069 336.805 249.82 337.689 250.575 338.184L250.93 338.419C251.909 339.076 252.547 339.468 253.186 339.276C254.701 338.826 256.807 335.406 259.448 329.118C259.542 328.897 259.714 328.718 259.93 328.615C259.954 328.603 262.355 327.431 264.647 324.821C264.837 324.606 265.112 324.5 265.393 324.488C265.677 324.488 265.949 324.615 266.132 324.833C266.792 325.599 268.892 327.475 270.696 326.918C272.015 326.512 274.384 324.388 275.417 314.751C275.576 313.249 274.872 311.827 273.621 311.123C273.503 311.058 273.379 310.99 273.249 310.925C272.894 310.746 272.684 310.369 272.716 309.971C272.749 309.577 273.021 309.238 273.402 309.123L283.905 305.883C284.177 305.798 284.402 305.612 284.532 305.353C284.665 305.091 284.686 304.796 284.591 304.52C284.444 304.087 284.038 303.807 283.598 303.807L283.601 303.798Z" fill="#020D3A"/>
<path d="M263.37 321.718C263.027 321.718 262.695 321.538 262.515 321.22C262.249 320.752 262.417 320.154 262.888 319.889C263.331 319.638 264.198 319.076 265.26 318.342C267.931 316.502 269.401 314.699 270.039 313.789C270.353 313.341 270.513 312.853 270.501 312.372C270.486 311.872 270.371 311.831 269.98 311.701C269.22 311.448 267.422 312.178 266.449 312.755C265.984 313.029 265.381 312.879 265.106 312.417C264.828 311.954 264.982 311.356 265.446 311.08C265.979 310.764 268.729 309.218 270.61 309.851C271.104 310.016 272.412 310.455 272.465 312.319C272.488 313.221 272.207 314.116 271.651 314.908C270.939 315.924 269.306 317.933 266.396 319.939C265.727 320.398 264.532 321.208 263.855 321.588C263.704 321.674 263.538 321.715 263.376 321.715L263.37 321.718Z" fill="#020D3A"/>
<path d="M265.259 326.555C265.013 326.555 264.765 326.464 264.575 326.278C264.188 325.901 264.179 325.283 264.558 324.897C266.426 322.985 266.353 321.003 266.35 320.921C266.323 320.385 266.734 319.925 267.272 319.896C267.804 319.869 268.272 320.267 268.307 320.803C268.316 320.921 268.467 323.701 265.965 326.26C265.773 326.458 265.519 326.555 265.264 326.555H265.259Z" fill="#020D3A"/>
<path d="M190.205 383.78C192.444 383.02 194.52 384.519 192.923 386.551C191.648 388.174 185.54 391.685 184.567 392.289C184.328 392.436 184.425 392.886 184.697 392.825C192.568 391.099 196.667 391.217 198.797 391.753C200.299 392.13 201.204 393.649 200.888 395.16C198.59 406.04 176.022 404.806 173.384 405.121C171.219 405.38 157.019 418.38 157.019 418.38C150.601 424.99 141.905 430.317 135.626 433.431C122.762 439.81 118.018 418.154 116.717 412.761C116.717 412.761 157.134 401.802 171.337 394.777C173.206 393.853 174.922 392.663 176.492 391.296C178.3 389.723 182.21 386.492 190.207 383.78H190.205Z" fill="white"/>
<path d="M131.127 435.572C129.852 435.572 128.619 435.298 127.439 434.747C120.157 431.354 117.057 418.386 115.889 413.503L115.768 412.99C115.644 412.478 115.951 411.96 116.463 411.821C116.865 411.712 156.951 400.806 170.906 393.905C172.603 393.066 174.269 391.941 175.851 390.562C177.368 389.243 181.394 385.738 189.894 382.858C191.536 382.301 193.24 382.693 194.038 383.812C194.721 384.769 194.594 386.021 193.701 387.158C192.92 388.153 190.791 389.617 188.395 391.113C193.098 390.315 196.671 390.215 199.046 390.81C201.054 391.314 202.287 393.316 201.855 395.363C199.708 405.539 182.092 405.889 175.461 406.022C174.541 406.04 173.816 406.054 173.509 406.093C172.178 406.393 164.414 412.946 157.691 419.102C150.113 426.907 140.045 432.338 136.07 434.308C134.366 435.153 132.716 435.575 131.133 435.575L131.127 435.572ZM117.891 413.453C118.983 418 122.038 430.076 128.267 432.977C130.373 433.958 132.639 433.819 135.188 432.556C139.075 430.629 148.909 425.328 156.315 417.7C160.696 413.686 171.03 404.417 173.269 404.149C173.671 404.102 174.366 404.087 175.416 404.066C181.027 403.954 198.102 403.616 199.933 394.957C200.149 393.938 199.545 392.945 198.563 392.698C196.712 392.232 192.837 392.041 184.914 393.779C184.343 393.905 183.781 393.608 183.553 393.057C183.313 392.474 183.526 391.788 184.05 391.461C184.192 391.372 184.446 391.219 184.777 391.022C186.36 390.077 191.175 387.193 192.154 385.947C192.314 385.747 192.657 385.243 192.438 384.937C192.228 384.643 191.494 384.375 190.524 384.701C182.391 387.458 178.575 390.777 177.141 392.029C175.431 393.517 173.624 394.736 171.775 395.652C158.667 402.134 124.126 411.745 117.891 413.453Z" fill="#020D3A"/>
<path d="M157.003 398.296C159.667 404.537 162.678 410.309 166.982 414.329L140.853 433.668C135.201 437.85 127.206 436.61 123.098 430.914L118.508 425.183C109.504 413.938 103.24 400.708 100.673 386.556C97.8746 371.129 100.01 357.86 109.123 345.49C113.273 381.231 134.509 408.033 157 398.296H157.003Z" fill="white"/>
<path d="M219.257 348.452C214.265 348.452 208.908 346.007 202.179 342.938C190.674 337.687 174.915 330.498 149.839 330.424C149.298 330.424 148.86 329.985 148.863 329.446C148.863 328.907 149.304 328.471 149.842 328.471H149.845C175.344 328.545 191.327 335.837 202.996 341.162C209.695 344.219 214.969 346.64 219.654 346.493C232.573 346.101 243.608 329.732 243.718 329.564L243.824 329.428C245.628 327.546 247.672 326.516 249.905 326.368C250.455 326.327 250.914 326.742 250.949 327.278C250.985 327.817 250.577 328.283 250.035 328.318C248.308 328.433 246.758 329.216 245.3 330.715C244.354 332.117 233.309 348.028 219.71 348.443C219.559 348.449 219.405 348.449 219.251 348.449L219.257 348.452Z" fill="#020D3A"/>
<path d="M221.002 379.277C213.255 379.277 205.059 376.877 198.251 374.883C196.352 374.326 194.559 373.802 192.894 373.36C192.371 373.222 192.06 372.686 192.199 372.165C192.338 371.643 192.877 371.334 193.397 371.472C195.089 371.92 196.893 372.447 198.804 373.007C206.793 375.345 216.734 378.258 225.305 377.03C239.484 374.998 255.095 349.849 259.544 342.188C260.336 340.824 260.603 339.228 260.295 337.697C260.044 336.445 259.703 335.299 259.28 334.286C259.073 333.788 259.31 333.217 259.81 333.011C260.313 332.804 260.884 333.04 261.091 333.538C261.561 334.669 261.939 335.938 262.215 337.314C262.617 339.311 262.268 341.39 261.239 343.166C256.681 351.018 240.635 376.806 225.58 378.965C224.081 379.18 222.545 379.277 220.996 379.277H221.002Z" fill="#020D3A"/>
<path d="M133.369 437.123C132.665 437.123 131.955 437.07 131.245 436.959C127.619 436.396 124.442 434.449 122.301 431.48L117.74 425.787C108.479 414.221 102.244 400.714 99.7066 386.728C96.7193 370.24 99.4582 356.954 108.331 344.911C108.651 344.475 109.266 344.384 109.701 344.702C110.139 345.02 110.23 345.633 109.911 346.066C101.381 357.646 98.7483 370.455 101.635 386.38C104.114 400.052 110.212 413.258 119.269 424.571L123.859 430.302C125.72 432.882 128.438 434.546 131.541 435.029C134.643 435.512 137.74 434.75 140.263 432.882L165.472 414.224C161.488 410.148 158.725 404.714 156.539 399.71C148.979 404.281 143.931 407.262 139.003 405.933C133.913 404.561 129.254 398.815 121.2 383.98C120.943 383.506 121.121 382.914 121.597 382.657C122.076 382.401 122.667 382.578 122.925 383.052C130.585 397.163 135.084 402.853 139.518 404.049C143.718 405.182 148.314 402.399 155.93 397.793L157.453 396.871L157.897 397.908C160.213 403.336 163.182 409.444 167.646 413.612L168.5 414.41L141.428 434.443C139.059 436.196 136.255 437.118 133.36 437.118L133.369 437.123Z" fill="#020D3A"/>
<path d="M124.805 331.754L121.969 309.164L141.715 315.24L143.708 328.47C144.187 332.025 141.537 334.519 141.537 334.519C138.301 337.898 133.022 338.307 128.786 336.334L127.804 335.877C126.163 335.111 125.03 333.556 124.805 331.754Z" fill="white"/>
<path d="M134.12 338.518C132.218 338.518 130.252 338.094 128.376 337.219L127.394 336.763C125.436 335.85 124.105 334.024 123.836 331.877L121 309.287C120.958 308.957 121.089 308.63 121.343 308.418C121.597 308.206 121.946 308.135 122.263 308.232L142.009 314.308C142.369 314.42 142.633 314.727 142.689 315.098L144.682 328.328C145.224 332.348 142.337 335.117 142.216 335.231C140.154 337.387 137.223 338.518 134.12 338.518ZM123.135 310.544L125.782 331.635C125.969 333.114 126.88 334.368 128.225 334.996L129.207 335.452C133.316 337.367 138.098 336.707 140.834 333.847C140.89 333.791 143.147 331.597 142.745 328.602L140.843 315.993L123.138 310.544H123.135Z" fill="#020D3A"/>
<path d="M142.705 276.127C137.813 276.692 144.764 280.6 125.947 278.503C118.455 277.67 123.501 285.342 121.558 285.133C114.376 284.353 114.622 284.37 111.436 285.828C109.327 286.791 108.591 291.106 109.532 294.069C110.774 297.98 114.27 298.44 118.674 306.398C121.768 311.985 121.886 315.687 124.427 316.141C126.994 316.597 128.218 313.051 131.064 313.34C134.743 313.711 135.101 319.893 138.952 321.81C141.38 323.021 146.521 322.882 153.88 317.587C155.072 316.73 155.486 315.136 154.859 313.805C154.054 312.1 153.028 309.95 151.874 307.979C146.379 298.587 142.401 296.941 143.25 294.11C144.551 289.775 152.51 290.747 153.196 287.254C153.909 283.625 149.405 275.355 142.705 276.13V276.127Z" fill="#020D3A"/>
<path d="M128.796 296.369L130.63 298.707C131.493 299.809 132.277 300.966 132.981 302.177C134.3 304.448 136.598 308.332 138.051 310.412C140.186 313.466 150.115 307.552 150.115 307.552L150.399 305.387L151.55 304.668C151.772 304.53 151.967 304.344 152.091 304.112C152.399 303.535 152.283 302.857 151.86 302.418C149.541 300.018 144.629 294.578 142.292 289.333C142.292 289.333 134.049 288.673 128.793 296.363L128.796 296.369Z" fill="white"/>
<path d="M129.777 296.337C130.165 296.708 130.523 297.058 130.854 297.426C131.02 297.609 131.179 297.797 131.336 297.989L131.907 298.719C132.682 299.741 133.401 300.834 134.037 301.927C135.299 304.065 136.562 306.206 137.893 308.279C138.228 308.795 138.562 309.31 138.908 309.802C139.068 310.005 139.301 310.156 139.777 310.214C140.703 310.326 141.898 310.061 143.01 309.714C145.264 308.986 147.512 307.894 149.609 306.707L149.136 307.425C149.236 306.704 149.328 305.982 149.437 305.264L149.443 305.234C149.488 304.948 149.659 304.71 149.887 304.568C150.248 304.348 150.641 304.18 151.032 304.006C151.348 303.885 151.458 303.835 151.555 303.594C151.626 303.379 151.561 303.137 151.425 302.966L150.6 302.103C149.429 300.863 148.293 299.594 147.181 298.298C144.983 295.686 142.907 292.92 141.41 289.73L142.223 290.305C141.691 290.29 141.029 290.319 140.425 290.39C139.81 290.464 139.198 290.576 138.591 290.72C137.382 291.009 136.213 291.45 135.122 292.031C134.031 292.608 132.989 293.294 132.087 294.142C131.605 294.531 131.2 295.005 130.771 295.453C130.514 295.712 130.475 295.821 130.31 295.957C130.165 296.083 129.987 296.198 129.78 296.334L129.777 296.337ZM127.816 296.401C128.009 296.013 128.228 295.597 128.482 295.2C128.724 294.82 129.044 294.366 129.257 294.16C129.73 293.642 130.18 293.106 130.721 292.649C131.747 291.686 132.933 290.897 134.176 290.237C135.418 289.571 136.758 289.1 138.127 288.782C138.81 288.626 139.505 288.508 140.206 288.432C140.919 288.364 141.585 288.32 142.374 288.37C142.744 288.393 143.049 288.623 143.188 288.941V288.947C143.827 290.428 144.64 291.86 145.518 293.259C146.397 294.658 147.358 296.018 148.381 297.335C149.402 298.654 150.484 299.933 151.623 301.155L152.049 301.614L152.265 301.841L152.377 301.959C152.431 302.018 152.481 302.074 152.528 302.139C152.907 302.636 153.04 303.296 152.913 303.903C152.859 304.206 152.741 304.501 152.555 304.783C152.383 305.046 152.111 305.293 151.931 305.428C151.605 305.702 151.28 305.982 150.925 306.209L151.372 305.514C151.292 306.238 151.194 306.957 151.106 307.682C151.067 307.991 150.881 308.253 150.632 308.4C148.399 309.693 146.142 310.827 143.649 311.669C142.389 312.052 141.097 312.435 139.52 312.291C139.325 312.276 139.115 312.217 138.914 312.179C138.701 312.102 138.494 312.055 138.284 311.934C137.861 311.749 137.467 311.378 137.184 310.998C136.814 310.468 136.468 309.938 136.128 309.407C134.773 307.278 133.495 305.134 132.244 302.966C131.644 301.897 131.005 300.893 130.289 299.915L129.721 299.161C129.493 298.864 129.269 298.56 129.05 298.251C128.612 297.635 128.204 297.008 127.819 296.395L127.816 296.401Z" fill="#020D3A"/>
<path d="M132.318 305.034C132.318 305.034 127.917 299.406 125.787 301.953C123.658 304.504 128.656 310.577 132.318 305.034Z" fill="white"/>
<path d="M162.914 422.067L271.053 417.252L271.245 421.527C271.293 422.592 270.463 423.499 269.39 423.547L165.134 428.188C164.064 428.236 163.154 427.41 163.106 426.342L162.914 422.067Z" fill="white"/>
<path d="M168.139 429.031C164.856 429.031 162.114 426.448 161.966 423.149L161.919 422.119C161.895 421.58 162.312 421.123 162.854 421.099L270.991 416.29C271.547 416.266 271.991 416.682 272.014 417.221L272.062 418.251C272.136 419.895 271.562 421.468 270.447 422.681C269.332 423.895 267.809 424.604 266.161 424.678L168.42 429.025C168.325 429.028 168.234 429.031 168.139 429.031ZM163.921 423.005V423.061C164.028 425.376 166.009 427.176 168.331 427.072L266.072 422.725C267.199 422.675 268.237 422.192 269.001 421.362C269.761 420.534 270.154 419.459 270.104 418.337V418.281L163.921 423.005Z" fill="#020D3A"/>
<path d="M271.038 417.377L204.619 420.331L222.948 357.536C224.125 355.545 226.273 354.272 228.636 354.166L284.782 351.669C287.329 351.557 289.08 353.945 288.347 356.154C288.054 357.032 287.737 357.904 287.486 358.793L271.038 417.374V417.377Z" fill="white"/>
<path d="M204.618 421.305C204.319 421.305 204.033 421.169 203.849 420.931C203.654 420.683 203.589 420.356 203.678 420.056L222.007 357.261C222.03 357.184 222.063 357.108 222.104 357.037C223.456 354.748 225.881 353.308 228.594 353.187L284.74 350.69C286.278 350.622 287.683 351.27 288.597 352.469C289.473 353.62 289.727 355.111 289.28 356.457C289.197 356.707 289.112 356.957 289.026 357.208C288.81 357.841 288.606 358.439 288.431 359.051L271.983 417.632C271.871 418.039 271.507 418.327 271.084 418.345L204.666 421.299C204.666 421.299 204.636 421.299 204.621 421.299L204.618 421.305ZM223.852 357.929L205.94 419.293L270.283 416.43L286.541 358.53C286.728 357.864 286.95 357.214 287.165 356.583C287.248 356.339 287.334 356.094 287.414 355.847C287.662 355.099 287.52 354.301 287.029 353.653C286.512 352.972 285.701 352.607 284.826 352.646L228.679 355.143C226.674 355.231 224.879 356.271 223.852 357.929Z" fill="#020D3A"/>
<path d="M244.902 385.153C244.227 387.803 245.558 390.425 247.871 391.011C250.184 391.594 252.607 389.921 253.281 387.27C253.955 384.619 252.624 381.998 250.312 381.412C247.999 380.829 245.576 382.502 244.902 385.153Z" fill="white"/>
<path d="M211.286 247.672C230.803 228.232 230.803 196.714 211.286 177.275C191.769 157.835 160.127 157.835 140.61 177.275C121.093 196.714 121.093 228.232 140.61 247.672C160.127 267.111 191.77 267.111 211.286 247.672Z" fill="#020D3A"/>
<path d="M212.389 245.145C231.329 226.286 231.329 195.708 212.389 176.848C193.45 157.989 162.743 157.989 143.803 176.848C124.863 195.708 124.863 226.286 143.803 245.145C162.743 264.005 193.45 264.005 212.389 245.145Z" fill="#20E086"/>
<path d="M178.093 260.262C150.811 260.262 128.613 238.161 128.613 210.992C128.613 183.822 150.808 161.721 178.093 161.721C205.378 161.721 227.573 183.822 227.573 210.992C227.573 238.161 205.378 260.262 178.093 260.262ZM178.093 163.676C151.891 163.676 130.574 184.903 130.574 210.994C130.574 237.086 151.891 258.313 178.093 258.313C204.296 258.313 225.612 237.086 225.612 210.994C225.612 184.903 204.296 163.676 178.093 163.676Z" fill="#020D3A"/>
<path d="M206.873 239.653C222.767 223.827 222.767 198.167 206.873 182.34C190.98 166.513 165.211 166.513 149.317 182.34C133.423 198.167 133.423 223.827 149.317 239.653C165.211 255.48 190.98 255.48 206.873 239.653Z" fill="white"/>
<path d="M212.312 233.923C212.128 233.923 211.945 233.873 211.779 233.767C211.324 233.476 211.194 232.869 211.486 232.418C213.548 229.24 215.133 225.794 216.201 222.178C216.355 221.659 216.905 221.365 217.42 221.518C217.94 221.671 218.236 222.213 218.085 222.731C216.964 226.528 215.299 230.144 213.134 233.479C212.948 233.767 212.631 233.926 212.309 233.926L212.312 233.923Z" fill="#020D3A"/>
<path d="M214.73 194.294C214.366 194.294 214.017 194.09 213.848 193.743C207.143 179.989 193.443 171.441 178.095 171.441C165.489 171.441 153.508 177.494 146.042 187.631C145.723 188.067 145.108 188.162 144.673 187.841C144.235 187.522 144.141 186.91 144.463 186.477C152.295 175.839 164.868 169.489 178.098 169.489C194.203 169.489 208.578 178.454 215.614 192.889C215.851 193.375 215.647 193.958 215.161 194.193C215.022 194.261 214.878 194.291 214.733 194.291L214.73 194.294Z" fill="#020D3A"/>
<path d="M178.092 252.499C155.111 252.499 136.412 233.879 136.412 210.995C136.412 203.885 138.249 196.872 141.721 190.708C141.984 190.237 142.585 190.069 143.055 190.334C143.528 190.599 143.694 191.194 143.431 191.662C140.121 197.532 138.373 204.218 138.373 210.992C138.373 232.801 156.19 250.543 178.092 250.543C178.634 250.543 179.074 250.979 179.074 251.518C179.074 252.057 178.637 252.496 178.092 252.496V252.499Z" fill="#020D3A"/>
<path d="M174.36 239.607V232.945C169.642 232.736 165.063 231.472 162.387 229.929L164.499 221.724C167.456 223.338 171.612 224.81 176.19 224.81C180.204 224.81 182.952 223.267 182.952 220.463C182.952 217.659 180.698 216.116 175.486 214.36C167.95 211.836 162.81 208.329 162.81 201.525C162.81 195.355 167.175 190.513 174.712 189.04V182.378H181.615V188.548C186.332 188.758 189.503 189.741 191.828 190.863L189.784 198.789C187.953 198.017 184.712 196.403 179.642 196.403C175.064 196.403 173.585 198.368 173.585 200.329C173.585 202.644 176.048 204.117 182.038 206.361C190.42 209.306 193.801 213.165 193.801 219.476C193.801 225.788 189.364 231.048 181.263 232.45V239.604H174.36V239.607Z" fill="#020D3A"/>
<path d="M274.633 166.605C291.302 150.005 291.302 123.092 274.633 106.493C257.963 89.8933 230.935 89.8933 214.266 106.493C197.596 123.092 197.596 150.005 214.266 166.605C230.935 183.204 257.963 183.204 274.633 166.605Z" fill="#020D3A"/>
<path d="M275.564 164.454C291.74 148.347 291.74 122.232 275.564 106.125C259.389 90.0176 233.163 90.0176 216.988 106.125C200.812 122.232 200.812 148.347 216.988 164.454C233.163 180.561 259.389 180.561 275.564 164.454Z" fill="#20E086"/>
<path d="M246.272 177.509C222.894 177.509 203.873 158.569 203.873 135.29C203.873 112.01 222.894 93.0696 246.272 93.0696C269.65 93.0696 288.671 112.01 288.671 135.29C288.671 158.569 269.65 177.509 246.272 177.509ZM246.272 95.0193C223.974 95.0193 205.834 113.082 205.834 135.287C205.834 157.491 223.974 175.554 246.272 175.554C268.57 175.554 286.71 157.491 286.71 135.287C286.71 113.082 268.57 95.0193 246.272 95.0193Z" fill="#020D3A"/>
<path d="M270.851 159.766C284.425 146.249 284.425 124.334 270.851 110.817C257.276 97.3 235.268 97.3 221.694 110.817C208.119 124.334 208.119 146.249 221.694 159.766C235.268 173.283 257.276 173.283 270.851 159.766Z" fill="white"/>
<path d="M275.493 155.012C275.31 155.012 275.127 154.962 274.961 154.856C274.505 154.564 274.375 153.957 274.668 153.507C276.419 150.803 277.771 147.876 278.679 144.798C278.833 144.279 279.38 143.985 279.897 144.138C280.415 144.291 280.714 144.833 280.56 145.351C279.599 148.606 278.17 151.707 276.316 154.567C276.129 154.856 275.813 155.015 275.49 155.015L275.493 155.012Z" fill="#020D3A"/>
<path d="M277.562 121.168C277.198 121.168 276.849 120.965 276.681 120.617C270.978 108.919 259.328 101.653 246.275 101.653C235.554 101.653 225.364 106.801 219.017 115.422C218.698 115.858 218.079 115.949 217.648 115.631C217.21 115.313 217.115 114.7 217.438 114.267C224.155 105.146 234.935 99.7001 246.278 99.7001C259.878 99.7001 272.505 107.576 278.45 119.766C278.686 120.252 278.482 120.835 277.997 121.071C277.858 121.138 277.713 121.168 277.568 121.168H277.562Z" fill="#020D3A"/>
<path d="M246.27 170.876C226.563 170.876 210.529 154.91 210.529 135.286C210.529 129.189 212.103 123.175 215.081 117.891C215.344 117.42 215.945 117.255 216.415 117.517C216.888 117.782 217.054 118.377 216.791 118.846C213.975 123.838 212.49 129.522 212.49 135.283C212.49 153.829 227.643 168.92 246.27 168.92C246.812 168.92 247.25 169.356 247.25 169.895C247.25 170.434 246.812 170.873 246.27 170.873V170.876Z" fill="#020D3A"/>
<path d="M243.084 159.726V154.036C239.053 153.856 235.146 152.778 232.859 151.462L234.664 144.455C237.19 145.833 240.739 147.091 244.649 147.091C248.077 147.091 250.422 145.774 250.422 143.377C250.422 140.98 248.497 139.663 244.046 138.167C237.609 136.011 233.217 133.016 233.217 127.205C233.217 121.933 236.947 117.801 243.383 116.543V110.853H249.278V116.125C253.309 116.304 256.015 117.144 258 118.101L256.255 124.869C254.69 124.209 251.925 122.834 247.592 122.834C243.682 122.834 242.419 124.51 242.419 126.189C242.419 128.165 244.525 129.422 249.636 131.34C256.793 133.855 259.68 137.151 259.68 142.541C259.68 147.93 255.891 152.425 248.973 153.621V159.729H243.078L243.084 159.726Z" fill="#020D3A"/>
<path d="M363.352 131.038C379.444 115.015 379.444 89.0359 363.352 73.0126C347.261 56.9894 321.172 56.9894 305.081 73.0126C288.99 89.0359 288.99 115.015 305.081 131.038C321.172 147.061 347.261 147.061 363.352 131.038Z" fill="#020D3A"/>
<path d="M364.253 128.955C379.866 113.408 379.866 88.2011 364.253 72.654C348.64 57.1069 323.326 57.1069 307.713 72.654C292.1 88.2011 292.1 113.408 307.713 128.955C323.326 144.502 348.64 144.502 364.253 128.955Z" fill="#20E086"/>
<path d="M335.983 141.589C313.398 141.589 295.021 123.29 295.021 100.801C295.021 78.3108 313.398 60.015 335.983 60.015C358.568 60.015 376.945 78.3138 376.945 100.804C376.945 123.293 358.571 141.592 335.983 141.592V141.589ZM335.983 61.9677C314.477 61.9677 296.982 79.3888 296.982 100.804C296.982 122.218 314.477 139.639 335.983 139.639C357.489 139.639 374.984 122.218 374.984 100.804C374.984 79.3888 357.489 61.9677 335.983 61.9677Z" fill="#020D3A"/>
<path d="M359.703 124.43C372.806 111.382 372.806 90.2274 359.703 77.1797C346.6 64.132 325.356 64.132 312.253 77.1797C299.149 90.2274 299.149 111.382 312.253 124.43C325.356 137.477 346.6 137.477 359.703 124.43Z" fill="white"/>
<path d="M364.185 119.88C364.001 119.88 363.818 119.83 363.652 119.724C363.197 119.432 363.067 118.825 363.359 118.375C365.048 115.768 366.35 112.944 367.225 109.978C367.379 109.459 367.926 109.165 368.444 109.318C368.961 109.471 369.26 110.013 369.106 110.532C368.178 113.677 366.796 116.672 365.004 119.438C364.818 119.727 364.501 119.886 364.179 119.886L364.185 119.88Z" fill="#020D3A"/>
<path d="M366.182 87.2068C365.819 87.2068 365.47 87.0036 365.301 86.656C359.802 75.3758 348.566 68.3691 335.984 68.3691C325.647 68.3691 315.818 73.3318 309.699 81.6462C309.379 82.0821 308.764 82.1763 308.329 81.8553C307.891 81.5372 307.797 80.9246 308.119 80.4917C314.608 71.6795 325.026 66.4164 335.987 66.4164C349.125 66.4164 361.326 74.0269 367.07 85.8019C367.306 86.2879 367.102 86.871 366.617 87.1067C366.478 87.1744 366.333 87.2038 366.188 87.2038L366.182 87.2068Z" fill="#020D3A"/>
<path d="M335.977 135.19C316.935 135.19 301.445 119.766 301.445 100.805C301.445 94.9172 302.966 89.1033 305.843 83.9992C306.107 83.5279 306.707 83.363 307.177 83.6251C307.651 83.8902 307.816 84.4851 307.553 84.9534C304.841 89.7689 303.406 95.25 303.406 100.805C303.406 118.688 318.017 133.238 335.977 133.238C336.518 133.238 336.956 133.674 336.956 134.215C336.956 134.757 336.518 135.193 335.977 135.193V135.19Z" fill="#020D3A"/>
<path d="M332.903 124.394V118.901C329.014 118.727 325.24 117.687 323.033 116.415L324.775 109.65C327.212 110.978 330.64 112.195 334.415 112.195C337.724 112.195 339.99 110.922 339.99 108.61C339.99 106.298 338.132 105.026 333.835 103.58C327.624 101.497 323.385 98.6082 323.385 93.0004C323.385 87.914 326.985 83.9232 333.199 82.7098V77.2169H338.89V82.3033C342.779 82.4771 345.394 83.287 347.307 84.2119L345.624 90.7444C344.116 90.1082 341.445 88.7799 337.263 88.7799C333.489 88.7799 332.27 90.3998 332.27 92.0167C332.27 93.9252 334.302 95.1387 339.239 96.9883C346.148 99.4152 348.934 102.596 348.934 107.8C348.934 113.004 345.275 117.34 338.6 118.497V124.394H332.909H332.903Z" fill="#020D3A"/>
<path d="M504.438 484.462L503.447 491.439L510.673 494.169C510.735 495.824 510.93 497.456 511.262 499.044L504.911 503.414L507.556 509.95L515.186 508.716C516.062 510.1 517.053 511.411 518.147 512.633L514.837 519.59L520.41 523.934L526.39 519.071C527.831 519.828 529.348 520.467 530.93 520.986L531.557 528.655L538.564 529.642L541.306 522.446C542.968 522.385 544.607 522.19 546.201 521.86L550.591 528.184L557.154 525.551L555.914 517.952C557.305 517.08 558.621 516.094 559.851 515.007L566.837 518.302L571.2 512.754L566.317 506.798C567.077 505.364 567.719 503.853 568.239 502.277L575.941 501.653L576.932 494.676L569.706 491.946C569.644 490.29 569.449 488.659 569.118 487.071L575.468 482.7L572.824 476.165L565.193 477.399C564.317 476.015 563.326 474.704 562.232 473.479L565.542 466.522L559.969 462.178L553.989 467.041C552.549 466.284 551.031 465.645 549.449 465.126L548.822 457.457L541.815 456.47L539.076 463.665C537.414 463.727 535.775 463.922 534.181 464.252L529.792 457.928L523.229 460.561L524.468 468.16C523.078 469.032 521.762 470.018 520.531 471.108L513.545 467.812L509.182 473.361L514.066 479.316C513.305 480.751 512.664 482.262 512.143 483.837L504.441 484.462H504.438ZM542.741 475.099C552.702 476.504 559.635 485.681 558.224 495.601C556.814 505.52 547.597 512.424 537.636 511.019C527.674 509.614 520.741 500.437 522.152 490.517C523.563 480.598 532.779 473.694 542.741 475.099Z" fill="#20E086"/>
<path d="M540.653 533.39C540.606 533.39 540.561 533.387 540.514 533.381L533.507 532.394C533.055 532.33 532.703 531.962 532.667 531.508L532.093 524.475C530.89 524.054 529.721 523.559 528.6 523.002L523.12 527.458C522.765 527.747 522.256 527.753 521.895 527.47L516.323 523.126C515.962 522.843 515.844 522.351 516.042 521.939L519.076 515.559C518.257 514.605 517.497 513.595 516.802 512.547L509.804 513.677C509.36 513.751 508.908 513.501 508.736 513.08L506.092 506.544C505.92 506.12 506.068 505.637 506.444 505.375L512.265 501.366C512.037 500.141 511.886 498.887 511.815 497.617L505.19 495.117C504.761 494.955 504.504 494.519 504.566 494.068L505.557 487.091C505.622 486.64 505.991 486.293 506.447 486.254L513.51 485.683C513.933 484.484 514.43 483.321 514.989 482.205L510.514 476.747C510.224 476.394 510.218 475.887 510.502 475.528L514.865 469.979C515.146 469.62 515.643 469.502 516.057 469.699L522.463 472.721C523.421 471.905 524.436 471.148 525.489 470.456L524.35 463.488C524.276 463.037 524.528 462.595 524.95 462.425L531.514 459.791C531.94 459.621 532.428 459.765 532.685 460.142L536.71 465.938C537.938 465.711 539.201 465.561 540.476 465.491L542.987 458.893C543.149 458.466 543.59 458.21 544.04 458.272L551.047 459.258C551.499 459.323 551.848 459.691 551.887 460.145L552.46 467.178C553.664 467.602 554.835 468.094 555.953 468.651L561.434 464.195C561.789 463.906 562.298 463.9 562.659 464.183L568.231 468.527C568.592 468.81 568.71 469.302 568.512 469.714L565.477 476.093C566.297 477.048 567.06 478.058 567.752 479.106L574.75 477.975C575.199 477.902 575.646 478.152 575.817 478.573L578.462 485.109C578.633 485.533 578.485 486.016 578.11 486.278L572.289 490.286C572.514 491.509 572.668 492.766 572.741 494.036L579.367 496.536C579.796 496.698 580.053 497.134 579.991 497.585L579 504.562C578.935 505.013 578.565 505.36 578.11 505.398L571.047 505.97C570.624 507.169 570.127 508.332 569.568 509.448L574.043 514.906C574.333 515.259 574.339 515.766 574.055 516.125L569.692 521.674C569.411 522.033 568.917 522.151 568.5 521.954L562.094 518.932C561.135 519.748 560.121 520.505 559.068 521.197L560.207 528.165C560.281 528.616 560.029 529.058 559.606 529.228L553.043 531.861C552.617 532.032 552.129 531.888 551.872 531.511L547.846 525.715C546.616 525.941 545.356 526.092 544.084 526.165L541.57 532.763C541.425 533.146 541.055 533.393 540.653 533.393V533.39ZM534.56 530.568L540.014 531.337L542.478 524.872C542.617 524.504 542.966 524.257 543.359 524.242C544.968 524.183 546.56 523.995 548.089 523.677C548.476 523.597 548.873 523.756 549.094 524.077L553.04 529.758L558.148 527.709L557.033 520.882C556.971 520.496 557.145 520.107 557.48 519.898C558.822 519.055 560.103 518.098 561.286 517.047C561.579 516.788 562.002 516.726 562.36 516.894L568.636 519.854L572.032 515.536L567.645 510.187C567.397 509.884 567.355 509.46 567.539 509.112C568.269 507.737 568.893 506.264 569.396 504.745C569.52 504.371 569.855 504.108 570.248 504.076L577.169 503.513L577.941 498.082L571.449 495.629C571.079 495.491 570.831 495.143 570.816 494.751C570.757 493.146 570.565 491.562 570.248 490.039C570.168 489.656 570.328 489.261 570.65 489.038L576.356 485.112L574.297 480.025L567.441 481.136C567.051 481.197 566.663 481.024 566.453 480.691C565.61 479.357 564.646 478.081 563.59 476.903C563.33 476.612 563.268 476.191 563.436 475.837L566.409 469.584L562.073 466.203L556.702 470.571C556.397 470.818 555.971 470.863 555.622 470.677C554.241 469.95 552.765 469.328 551.236 468.827C550.86 468.704 550.597 468.371 550.564 467.979L549.999 461.087L544.545 460.319L542.082 466.783C541.943 467.152 541.594 467.399 541.2 467.414C539.591 467.473 537.997 467.661 536.471 467.979C536.08 468.059 535.687 467.903 535.465 467.579L531.52 461.897L526.412 463.947L527.527 470.774C527.589 471.16 527.414 471.549 527.08 471.758C525.74 472.597 524.46 473.557 523.273 474.609C522.978 474.871 522.555 474.93 522.203 474.762L515.923 471.802L512.528 476.12L516.914 481.468C517.163 481.772 517.204 482.196 517.021 482.543C516.29 483.922 515.666 485.391 515.163 486.914C515.039 487.288 514.705 487.55 514.312 487.583L507.39 488.142L506.618 493.573L513.114 496.027C513.483 496.165 513.732 496.513 513.747 496.904C513.806 498.507 513.995 500.091 514.314 501.617C514.394 502 514.235 502.394 513.912 502.618L508.207 506.544L510.265 511.631L517.121 510.52C517.512 510.455 517.899 510.632 518.109 510.965C518.952 512.299 519.916 513.574 520.972 514.755C521.236 515.047 521.295 515.468 521.126 515.822L518.154 522.074L522.493 525.455L527.864 521.088C528.171 520.84 528.594 520.796 528.943 520.982C530.328 521.709 531.804 522.331 533.333 522.831C533.708 522.955 533.972 523.288 534.004 523.679L534.566 530.571L534.56 530.568ZM542.321 514.947C541.416 514.947 540.502 514.882 539.591 514.755C529.112 513.28 521.792 503.587 523.273 493.149C524.758 482.714 534.492 475.428 544.971 476.9C550.05 477.616 554.543 480.258 557.624 484.337C560.706 488.419 562.008 493.45 561.289 498.504C560.57 503.561 557.917 508.034 553.821 511.103C550.458 513.622 546.456 514.944 542.324 514.944L542.321 514.947ZM542.268 478.665C533.827 478.665 526.429 484.864 525.214 493.423C523.883 502.792 530.455 511.495 539.863 512.82C544.424 513.462 548.958 512.299 552.638 509.545C556.317 506.792 558.698 502.774 559.343 498.233C559.988 493.694 558.819 489.176 556.054 485.512C553.286 481.848 549.251 479.477 544.693 478.835C543.877 478.721 543.067 478.665 542.265 478.665H542.268Z" fill="#020D3A"/>
<path d="M371.038 502.418L369.34 514.358L381.706 519.026C381.81 521.86 382.144 524.649 382.712 527.367L371.845 534.848L376.37 546.031L389.429 543.919C390.928 546.29 392.62 548.532 394.492 550.626L388.828 562.53L398.361 569.964L408.592 561.647C411.056 562.943 413.655 564.038 416.359 564.925L417.433 578.052L429.42 579.742L434.111 567.428C436.956 567.325 439.757 566.992 442.487 566.427L450 577.248L461.231 572.741L459.11 559.738C461.491 558.245 463.745 556.56 465.845 554.696L477.8 560.333L485.265 550.838L476.912 540.65C478.214 538.197 479.314 535.608 480.204 532.916L493.387 531.847L495.085 519.91L482.718 515.242C482.615 512.408 482.281 509.619 481.713 506.901L492.58 499.423L488.054 488.24L474.996 490.351C473.496 487.981 471.804 485.736 469.932 483.645L475.593 471.74L466.058 464.307L455.827 472.627C453.363 471.331 450.763 470.235 448.06 469.349L446.986 456.222L434.998 454.531L430.31 466.845C427.465 466.949 424.664 467.281 421.934 467.847L414.425 457.026L403.194 461.532L405.318 474.533C402.937 476.026 400.683 477.71 398.583 479.575L386.628 473.938L379.162 483.433L387.515 493.621C386.214 496.074 385.113 498.663 384.223 501.355L371.041 502.424L371.038 502.418ZM436.578 486.396C453.623 488.799 465.487 504.506 463.073 521.48C460.66 538.453 444.886 550.266 427.841 547.863C410.795 545.46 398.932 529.753 401.345 512.779C403.759 495.806 419.533 483.993 436.578 486.396Z" fill="#20E086"/>
<path d="M433.004 585.448C432.957 585.448 432.912 585.446 432.865 585.44L420.874 583.749C420.422 583.684 420.073 583.316 420.035 582.863L419.014 570.378C416.689 569.582 414.433 568.631 412.291 567.541L402.557 575.455C402.202 575.744 401.694 575.75 401.333 575.467L391.797 568.033C391.436 567.753 391.318 567.259 391.516 566.846L396.902 555.522C395.311 553.699 393.841 551.752 392.522 549.72L380.102 551.728C379.656 551.802 379.206 551.552 379.034 551.131L374.509 539.948C374.338 539.523 374.485 539.04 374.861 538.778L385.195 531.665C384.737 529.318 384.447 526.897 384.326 524.447L372.563 520.005C372.134 519.843 371.877 519.407 371.939 518.957L373.637 507.02C373.702 506.569 374.071 506.222 374.527 506.183L387.065 505.167C387.863 502.849 388.819 500.602 389.913 498.473L381.966 488.783C381.676 488.429 381.67 487.923 381.954 487.564L389.419 478.068C389.7 477.709 390.197 477.591 390.611 477.788L401.983 483.152C403.817 481.567 405.772 480.103 407.81 478.79L405.79 466.423C405.716 465.972 405.968 465.53 406.391 465.359L417.621 460.853C418.044 460.682 418.532 460.827 418.792 461.204L425.938 471.494C428.295 471.038 430.73 470.749 433.188 470.628L437.648 458.918C437.81 458.491 438.251 458.235 438.701 458.297L450.691 459.987C451.144 460.052 451.493 460.42 451.531 460.874L452.552 473.359C454.879 474.154 457.136 475.105 459.275 476.195L469.006 468.281C469.361 467.992 469.869 467.987 470.23 468.269L479.763 475.703C480.124 475.986 480.242 476.478 480.044 476.89L474.658 488.214C476.249 490.041 477.719 491.987 479.038 494.017L491.458 492.005C491.907 491.931 492.354 492.182 492.525 492.603L497.051 503.786C497.222 504.21 497.074 504.693 496.699 504.955L486.365 512.068C486.823 514.415 487.113 516.836 487.234 519.287L498.997 523.728C499.426 523.89 499.683 524.326 499.621 524.777L497.923 536.717C497.858 537.167 497.489 537.515 497.033 537.553L484.495 538.569C483.697 540.887 482.741 543.134 481.647 545.264L489.594 554.953C489.884 555.307 489.89 555.813 489.606 556.173L482.141 565.668C481.86 566.028 481.366 566.145 480.949 565.948L469.576 560.585C467.746 562.169 465.791 563.633 463.75 564.947L465.767 577.314C465.841 577.764 465.589 578.206 465.166 578.377L453.936 582.883C453.51 583.054 453.022 582.91 452.762 582.533L445.619 572.242C443.259 572.699 440.827 572.987 438.369 573.108L433.909 584.818C433.764 585.201 433.395 585.448 432.992 585.448H433.004ZM421.927 581.926L432.365 583.396L436.778 571.812C436.917 571.444 437.266 571.196 437.66 571.182C440.449 571.079 443.214 570.749 445.873 570.201C446.261 570.121 446.654 570.28 446.879 570.602L453.942 580.78L463.72 576.857L461.724 564.626C461.662 564.24 461.836 563.851 462.17 563.642C464.501 562.181 466.722 560.517 468.775 558.697C469.068 558.438 469.491 558.376 469.849 558.544L481.094 563.848L487.592 555.584L479.733 546C479.485 545.697 479.443 545.272 479.627 544.925C480.896 542.536 481.981 539.983 482.854 537.341C482.978 536.967 483.312 536.705 483.706 536.672L496.107 535.668L497.583 525.274L485.95 520.88C485.581 520.742 485.332 520.394 485.317 520.002C485.214 517.219 484.883 514.468 484.333 511.823C484.253 511.441 484.412 511.046 484.735 510.822L494.954 503.786L491.014 494.049L478.731 496.037C478.343 496.102 477.953 495.925 477.743 495.592C476.279 493.274 474.608 491.063 472.777 489.016C472.516 488.724 472.454 488.303 472.623 487.949L477.95 476.752L469.65 470.281L460.026 478.106C459.721 478.354 459.295 478.398 458.946 478.212C456.548 476.952 453.986 475.871 451.33 474.999C450.955 474.876 450.691 474.543 450.659 474.151L449.65 461.805L439.212 460.335L434.8 471.918C434.66 472.287 434.311 472.534 433.918 472.549C431.126 472.652 428.363 472.982 425.704 473.53C425.32 473.606 424.924 473.45 424.699 473.129L417.633 462.95L407.855 466.873L409.851 479.105C409.913 479.491 409.739 479.879 409.404 480.089C407.077 481.546 404.855 483.211 402.8 485.034C402.504 485.296 402.081 485.355 401.729 485.187L390.481 479.882L383.983 488.147L391.841 497.731C392.09 498.034 392.131 498.458 391.948 498.806C390.682 501.194 389.594 503.745 388.721 506.39C388.597 506.764 388.263 507.026 387.869 507.058L375.467 508.062L373.992 518.453L385.624 522.847C385.994 522.986 386.242 523.333 386.257 523.725C386.361 526.508 386.692 529.259 387.242 531.904C387.322 532.287 387.162 532.682 386.84 532.905L376.618 539.942L380.558 549.679L392.841 547.691C393.229 547.626 393.619 547.802 393.829 548.135C395.296 550.456 396.967 552.668 398.795 554.712C399.055 555.004 399.117 555.425 398.949 555.778L393.622 566.976L401.921 573.447L411.546 565.621C411.85 565.374 412.276 565.332 412.622 565.515C415.024 566.779 417.585 567.86 420.239 568.728C420.614 568.852 420.877 569.185 420.91 569.577L421.919 581.923L421.927 581.926ZM435.808 553.887C434.314 553.887 432.803 553.784 431.28 553.569C413.726 551.095 401.469 534.861 403.95 517.384C406.435 499.904 422.744 487.699 440.289 490.17C457.843 492.644 470.103 508.878 467.618 526.355C465.35 542.318 451.552 553.887 435.805 553.887H435.808ZM435.767 491.805C420.981 491.805 408.026 502.667 405.894 517.658C403.56 534.072 415.071 549.313 431.555 551.637C432.983 551.837 434.403 551.938 435.805 551.938C450.594 551.938 463.546 541.076 465.678 526.084C468.012 509.67 456.5 494.429 440.017 492.105C438.588 491.905 437.169 491.805 435.764 491.805H435.767Z" fill="#020D3A"/>
</svg>
