<svg width="200" height="200" viewBox="0 0 200 200" fill="none" xmlns="http://www.w3.org/2000/svg">
<circle cx="100" cy="100" r="98" stroke="#20E086" stroke-width="4"/>
<g clip-path="url(#clip0_186_5393)">
<path d="M144.051 39.4286H55.9472C46.8238 39.4286 39.4277 46.8246 39.4277 55.9481V144.052C39.4277 153.175 46.8238 160.571 55.9472 160.571H144.051C153.175 160.571 160.571 153.175 160.571 144.052V55.9481C160.571 46.8246 153.175 39.4286 144.051 39.4286Z" fill="#0077B5"/>
<path d="M83.0673 72.4675C83.0673 74.5096 82.4618 76.5057 81.3273 78.2036C80.1928 79.9015 78.5803 81.2248 76.6937 82.0063C74.8071 82.7877 72.7312 82.9922 70.7284 82.5938C68.7256 82.1954 66.8859 81.2121 65.442 79.7682C63.9981 78.3242 63.0147 76.4846 62.6164 74.4818C62.218 72.479 62.4224 70.403 63.2039 68.5164C63.9853 66.6299 65.3087 65.0174 67.0066 63.8829C68.7045 62.7484 70.7006 62.1429 72.7427 62.1429C75.4809 62.1429 78.107 63.2306 80.0433 65.1669C81.9796 67.1031 83.0673 69.7293 83.0673 72.4675Z" fill="white"/>
<path d="M80.7268 89.6753V135.29C80.7287 135.626 80.6639 135.96 80.5364 136.271C80.4089 136.583 80.2211 136.866 79.9838 137.104C79.7465 137.343 79.4644 137.532 79.1536 137.661C78.8429 137.791 78.5097 137.857 78.1732 137.857H67.291C66.9545 137.858 66.6211 137.792 66.3101 137.664C65.999 137.536 65.7164 137.347 65.4784 137.109C65.2405 136.871 65.0519 136.589 64.9235 136.278C64.7952 135.966 64.7296 135.633 64.7305 135.297V89.6753C64.7305 88.9962 65.0002 88.3449 65.4804 87.8647C65.9606 87.3845 66.6119 87.1148 67.291 87.1148H78.1732C78.8511 87.1166 79.5006 87.3872 79.9793 87.8672C80.458 88.3472 80.7268 88.9974 80.7268 89.6753Z" fill="white"/>
<path d="M137.607 113.423V135.504C137.608 135.813 137.548 136.119 137.43 136.405C137.312 136.692 137.138 136.951 136.92 137.17C136.701 137.389 136.441 137.562 136.155 137.68C135.869 137.798 135.562 137.859 135.253 137.858H123.552C123.242 137.859 122.936 137.798 122.65 137.68C122.364 137.562 122.104 137.389 121.885 137.17C121.666 136.951 121.493 136.692 121.375 136.405C121.257 136.119 121.197 135.813 121.198 135.504V114.104C121.198 110.91 122.134 100.117 112.849 100.117C105.656 100.117 104.19 107.503 103.9 110.821V135.504C103.901 136.122 103.657 136.716 103.223 137.156C102.789 137.597 102.199 137.849 101.581 137.858H90.2788C89.97 137.858 89.6642 137.797 89.379 137.678C89.0938 137.56 88.8347 137.386 88.6167 137.168C88.3986 136.949 88.2259 136.689 88.1083 136.404C87.9908 136.118 87.9307 135.812 87.9317 135.504V89.4762C87.9307 89.1674 87.9908 88.8614 88.1083 88.5758C88.2259 88.2903 88.3986 88.0307 88.6167 87.812C88.8347 87.5934 89.0938 87.4198 89.379 87.3015C89.6642 87.1831 89.97 87.1221 90.2788 87.1221H101.581C102.205 87.1221 102.804 87.3702 103.245 87.8116C103.687 88.2531 103.935 88.8518 103.935 89.4762V93.4546C106.606 89.4486 110.563 86.3581 119.009 86.3581C137.717 86.3581 137.607 103.827 137.607 113.423Z" fill="white"/>
</g>
<defs>
<clipPath id="clip0_186_5393">
<rect width="121.143" height="121.143" fill="white" transform="translate(39.4277 39.4286)"/>
</clipPath>
</defs>
</svg>
