<svg width="102" height="102" viewBox="0 0 102 102" fill="none" xmlns="http://www.w3.org/2000/svg">
<g opacity="0.2" clip-path="url(#clip0_1293_11996)">
<path d="M20.9861 20.9865C20.4024 21.5702 19.6374 21.863 18.8744 21.863C18.1094 21.863 17.3444 21.5702 16.7606 20.9865L10.2701 14.4959C9.10268 13.3285 9.10268 11.4379 10.2701 10.2705L16.4417 14.1688L20.9861 20.9865Z" fill="#20E086"/>
<path d="M11.8592 34.0377C11.6046 34.0377 11.3462 34.0051 11.0886 33.9363L2.22038 31.5758C0.62563 31.1512 -0.323248 29.5143 0.101287 27.9193C0.525822 26.3244 2.163 25.3751 3.75775 25.8002L12.626 28.1608C14.2207 28.5853 15.1696 30.2223 14.7451 31.8172C14.3891 33.1546 13.1804 34.0377 11.8592 34.0377Z" fill="#20E086"/>
<path d="M31.0467 14.8463C29.7253 14.8463 28.5169 13.9631 28.1611 12.6258L25.8005 3.75756C25.376 2.16261 26.3247 0.525631 27.9196 0.101096C29.5142 -0.322841 31.1515 0.625241 31.5761 2.22019L33.9366 11.0884C34.3611 12.6834 33.4125 14.3203 31.8175 14.7449C31.5599 14.8134 31.3011 14.8463 31.0467 14.8463Z" fill="#20E086"/>
<path d="M95.3214 95.3219C92.1287 98.5146 87.0377 98.8277 83.4787 96.0509L76.0587 90.2596L69.7833 100.648C68.5774 102.794 65.1127 102.273 64.5861 99.8778L53.7399 57.2049C53.4931 56.2311 53.776 55.2004 54.486 54.4906L54.488 54.4888L78.2969 69.3761L95.3214 95.3219Z" fill="#20E086"/>
<path d="M100.648 69.7841L90.2595 76.0594L96.0508 83.4795C98.8279 87.0385 98.5147 92.1295 95.3218 95.3222L54.4883 54.4886C55.1983 53.7806 56.227 53.4959 57.2008 53.7425L99.8775 64.5867C102.276 65.1127 102.791 68.5856 100.648 69.7841Z" fill="#20E086"/>
<path d="M20.9855 20.9866L10.2695 10.2706C11.437 9.10316 13.3275 9.10316 14.495 10.2706L20.9855 16.7611C22.1529 17.9286 22.1529 19.8191 20.9855 20.9866Z" fill="#20E086"/>
<path d="M41.445 41.4437L33.1913 49.6954C32.6076 50.2791 31.8426 50.5699 31.0776 50.5699C30.3126 50.5699 29.5476 50.2791 28.9639 49.6954C27.7985 48.5279 27.7985 46.6374 28.9639 45.4699L37.2175 37.2163H41.445V41.4437Z" fill="#020D3A"/>
<path d="M28.7438 66.1062C24.4181 66.1064 20.3517 64.4222 17.2931 61.3636C14.235 58.3055 12.5508 54.2386 12.5508 49.9122C12.5528 45.5852 14.237 41.5202 17.2931 38.464L23.2097 32.5475C24.3765 31.3807 26.2687 31.3807 27.4357 32.5475C28.6027 33.7143 28.6027 35.6065 27.4357 36.7735L21.5191 42.69C19.5911 44.618 18.5287 47.1836 18.5273 49.9136C18.5273 52.6423 19.5897 55.2084 21.5191 57.1378C25.5027 61.1212 31.9836 61.1208 35.967 57.1378L41.8835 51.2215C43.0505 50.0547 44.9423 50.0543 46.1095 51.2215C47.2763 52.3883 47.2763 54.2805 46.1095 55.4475L40.193 61.3638C37.135 64.4218 33.069 66.106 28.7438 66.1062Z" fill="#020D3A"/>
<path d="M66.1056 28.746C66.1036 33.073 64.4202 37.137 61.3642 40.193L55.4475 46.1098C54.8637 46.6935 54.0987 46.9863 53.3338 46.9863C52.5708 46.9863 51.8058 46.6935 51.2221 46.1098C50.0546 44.9443 50.0546 43.0518 51.2221 41.8844L57.1388 35.9676C59.0652 34.0392 60.1291 31.4753 60.1291 28.744C60.1291 26.0147 59.0672 23.4488 57.1388 21.5204C53.1545 17.536 46.6739 17.538 42.6896 21.5204L36.7728 27.4371C35.6074 28.6045 33.7148 28.6045 32.5474 27.4371C31.38 26.2697 31.38 24.3772 32.5474 23.2097L38.4642 17.295C44.7774 10.9798 55.051 10.9798 61.3642 17.295C64.4222 20.353 66.1056 24.419 66.1056 28.746Z" fill="#020D3A"/>
<path d="M49.6899 33.1943L41.4423 41.4439L37.2148 37.2165L45.4625 28.9688C46.6299 27.8014 48.5225 27.8014 49.6899 28.9688C50.8573 30.1343 50.8573 32.0268 49.6899 33.1943Z" fill="#020D3A"/>
</g>
<defs>
<clipPath id="clip0_1293_11996">
<rect width="102" height="102" fill="white"/>
</clipPath>
</defs>
</svg>
