<svg width="67" height="53" viewBox="0 0 67 53" fill="none" xmlns="http://www.w3.org/2000/svg">
<path d="M0 0H62C64.7614 0 67 2.23858 67 5V48C67 50.7614 64.7614 53 62 53H0V0Z" fill="#20E086"/>
<path fill-rule="evenodd" clip-rule="evenodd" d="M48 19.5079V20.0557C48.0013 21.7733 47.317 23.4204 46.0989 24.6311L41.5555 29.1906C40.7079 30.0301 39.3422 30.0301 38.4946 29.1906L38.3334 29.0134C38.0264 28.7002 38.0264 28.1988 38.3334 27.8856L43.8755 22.3434C44.467 21.7301 44.7913 20.9076 44.7778 20.0557V19.5079C44.7784 18.6491 44.4364 17.8256 43.8272 17.2202L42.78 16.173C42.1745 15.5639 41.3511 15.2217 40.4922 15.2224H39.9444C39.0857 15.2217 38.2622 15.5639 37.6568 16.173L32.1145 21.6668C31.8013 21.9738 31.2999 21.9738 30.9867 21.6668L30.8095 21.4896C29.97 20.6419 29.97 19.2762 30.8095 18.4285L35.369 13.853C36.5878 12.6526 38.2339 11.986 39.9444 12.0002H40.4922C42.2019 11.9989 43.842 12.677 45.0517 13.8852L46.115 14.9485C47.3232 16.1581 48.0013 17.7983 48 19.5079ZM28.1027 29.6256L36.6255 21.1029C36.7768 20.9504 36.9827 20.8646 37.1974 20.8646C37.4122 20.8646 37.6181 20.9504 37.7694 21.1029L38.8972 22.2307C39.0496 22.3819 39.1355 22.5878 39.1355 22.8026C39.1355 23.0174 39.0496 23.2233 38.8972 23.3746L30.3743 31.8973C30.2231 32.0498 30.0172 32.1355 29.8024 32.1355C29.5877 32.1355 29.3818 32.0498 29.2305 31.8973L28.1027 30.7695C27.9502 30.6182 27.8644 30.4123 27.8644 30.1975C27.8644 29.9828 27.9502 29.7769 28.1027 29.6256ZM36.0133 31.3334C35.7001 31.0263 35.1987 31.0263 34.8855 31.3334L29.3594 36.8273C28.75 37.4403 27.9199 37.7827 27.0555 37.7777H26.5077C25.6489 37.7785 24.8254 37.4363 24.22 36.8273L23.1728 35.78C22.5637 35.1746 22.2215 34.351 22.2222 33.4923V32.9445C22.2215 32.0856 22.5637 31.2622 23.1728 30.6567L28.6827 25.1145C28.9898 24.8013 28.9898 24.3 28.6827 23.9867L28.5055 23.8095C27.6578 22.97 26.2921 22.97 25.4444 23.8095L20.9011 28.3689C19.683 29.5798 18.9986 31.2269 19 32.9445V33.5084C19.0029 35.2124 19.6807 36.846 20.885 38.0516L21.9483 39.1149C23.1579 40.3232 24.7981 41.0013 26.5077 40.9999H27.0555C28.7527 41.0099 30.3853 40.3498 31.5988 39.1632L36.1905 34.5717C37.03 33.7239 37.03 32.3582 36.1905 31.5106L36.0133 31.3334Z" fill="white"/>
</svg>
