<svg width="30" height="30" viewBox="0 0 30 30" fill="none" xmlns="http://www.w3.org/2000/svg">
<g opacity="0.7">
<path fill-rule="evenodd" clip-rule="evenodd" d="M5.625 4.05322C4.58946 4.05322 3.75 4.89269 3.75 5.92822V24.6782C3.75 25.7137 4.58946 26.5532 5.625 26.5532H24.375C25.4105 26.5532 26.25 25.7137 26.25 24.6782V5.92822C26.25 4.89269 25.4105 4.05322 24.375 4.05322H5.625ZM10.6509 9.05662C10.658 10.2519 9.76326 10.9885 8.70154 10.9832C7.70134 10.9779 6.82946 10.1816 6.83474 9.05838C6.84001 8.00194 7.67497 7.15291 8.75955 7.17752C9.85994 7.20214 10.658 8.00897 10.6509 9.05662ZM15.3496 12.5054H12.1996H12.1979V23.2052H15.5271V22.9556C15.5271 22.4807 15.5267 22.0057 15.5264 21.5306C15.5254 20.2633 15.5243 18.9947 15.5307 17.7278C15.5325 17.4202 15.5465 17.1003 15.6256 16.8067C15.9226 15.7098 16.9089 15.0015 18.0093 15.1756C18.7159 15.2862 19.1834 15.6958 19.3802 16.3621C19.5016 16.7786 19.5561 17.2268 19.5614 17.6611C19.5756 18.9706 19.5736 20.2801 19.5716 21.5897C19.5709 22.052 19.5701 22.5145 19.5701 22.9767V23.2035H22.91V22.9468C22.91 22.3818 22.9097 21.817 22.9094 21.2521C22.9087 19.8402 22.908 18.4283 22.9117 17.016C22.9135 16.3778 22.845 15.7486 22.6885 15.1316C22.4548 14.214 21.9714 13.4546 21.1856 12.9062C20.6284 12.516 20.0166 12.2646 19.3329 12.2365C19.255 12.2332 19.1765 12.229 19.0976 12.2247C18.748 12.2058 18.3926 12.1866 18.0584 12.254C17.1021 12.4456 16.262 12.8833 15.6274 13.655C15.5536 13.7435 15.4815 13.8333 15.3739 13.9675L15.3496 13.9978V12.5054ZM7.10205 23.2087H10.4155V12.5124H7.10205V23.2087Z" fill="white"/>
</g>
</svg>
