<svg width="836" height="1018" viewBox="0 0 836 1018" fill="none" xmlns="http://www.w3.org/2000/svg">
<g clip-path="url(#clip0_637_10850)">
<rect width="836" height="1018" fill="white"/>
<g opacity="0.5">
<path d="M183.23 741.04H-115.206C-120.137 741.04 -124.692 738.41 -127.151 734.142C-129.616 729.873 -129.616 724.614 -127.151 720.346L22.0634 461.898C24.5289 457.629 29.0842 455 34.0084 455C38.9326 455 43.4948 457.629 45.9535 461.898L195.168 720.346C197.633 724.614 197.633 729.873 195.168 734.142C192.702 738.41 188.147 741.04 183.223 741.04H183.23ZM-91.3089 713.448H159.333L34.0153 496.388L-91.3089 713.448Z" fill="#20E086"/>
<path d="M691.143 374.93C687.372 373.628 684.189 370.709 682.698 366.676C669.777 331.764 669.363 297.332 681.527 269.726C696.799 235.079 733.69 213.513 767.341 219.57C786.564 223.032 801.548 233.816 816.045 244.252C826.878 252.051 837.129 259.425 848.186 262.995C873.196 271.084 904.814 255.712 914.532 230.736C924.264 205.715 912.32 173.207 888.449 159.745C881.814 156.004 879.464 147.592 883.208 140.951C886.952 134.31 895.368 131.969 902.003 135.711C937.784 155.883 954.939 203 940.251 240.746C925.069 279.759 879.017 301.971 839.698 289.247C824.52 284.342 812.006 275.342 799.929 266.644C787.37 257.607 775.506 249.069 762.459 246.72C738.894 242.482 715.643 260.742 706.783 280.847C694.283 309.198 702.544 340.782 708.579 357.083C711.221 364.23 707.578 372.17 700.431 374.812C697.318 375.962 694.059 375.921 691.147 374.917L691.143 374.93Z" fill="#20E086"/>
</g>
<path d="M599.685 937.952H236.315C232.279 937.952 229 934.608 229 930.505C229 926.402 232.284 923.059 236.315 923.059H599.685C603.721 923.059 607 926.402 607 930.505C607 934.608 603.716 937.952 599.685 937.952ZM236.315 924.563C233.096 924.563 230.478 927.229 230.478 930.505C230.478 933.782 233.096 936.447 236.315 936.447H599.685C602.904 936.447 605.522 933.782 605.522 930.505C605.522 927.229 602.904 924.563 599.685 924.563H236.315Z" fill="#020D3A"/>
<path d="M245.117 943C251.898 943 257.395 937.404 257.395 930.5C257.395 923.596 251.898 918 245.117 918C238.335 918 232.838 923.596 232.838 930.5C232.838 937.404 238.335 943 245.117 943Z" fill="#020D3A"/>
<path opacity="0.3" d="M427.168 799.411C547.345 799.411 644.767 787.436 644.767 772.665C644.767 757.894 547.345 745.92 427.168 745.92C306.991 745.92 209.568 757.894 209.568 772.665C209.568 787.436 306.991 799.411 427.168 799.411Z" fill="#B3B3B2"/>
<path d="M352.138 593.258C352.32 596.199 352.974 599.16 353.604 602.015C354.203 604.724 354.817 607.524 355.049 610.349C355.89 620.618 351.846 631.53 343.018 642.78C339.574 647.172 335.706 651.306 331.965 655.31C327.871 659.686 323.635 664.213 319.974 669.063C317.597 672.205 315.633 675.226 314.037 678.157C319.566 682.715 326.405 685.736 333.496 686.643C336.693 687.056 343.034 685.867 345.602 683.959C348.135 682.075 349.676 678.943 349.631 675.79C349.6 673.685 348.926 671.691 348.21 669.581C347.616 667.824 347.002 666.006 346.795 664.112C346.332 659.912 347.908 655.254 351.247 650.989C353.412 648.219 356.061 645.842 358.62 643.546C359.45 642.801 360.286 642.05 361.102 641.29C369.95 633.051 374.583 624.712 374.86 616.503C375.152 607.957 370.635 599.779 366.38 592.789L365.206 590.871C361.581 584.969 357.849 578.885 356.374 572.193C354.082 578.719 351.685 586.006 352.133 593.258H352.138Z" fill="#F5F0EA"/>
<path d="M331.099 654.504C334.825 650.52 338.678 646.401 342.087 642.055C350.724 631.047 354.687 620.416 353.866 610.455C353.639 607.711 353.03 604.946 352.441 602.277C351.801 599.371 351.137 596.37 350.95 593.338C350.477 585.664 353.045 578.07 355.427 571.311C349.329 579.626 344.247 588.65 340.33 598.193C339.801 599.482 339.292 600.781 338.784 602.086C337.389 605.646 335.948 609.327 334.085 612.752C331.119 618.205 327.483 622.133 323.288 624.425C321.113 625.613 318.731 626.394 316.424 627.149C313.488 628.106 310.714 629.017 308.297 630.694C303.23 634.209 300.244 641.149 300.31 649.251C300.38 658.316 303.87 667.401 309.888 674.179C310.895 675.312 311.978 676.375 313.116 677.377C314.717 674.461 316.676 671.465 319.028 668.352C322.729 663.458 326.985 658.905 331.099 654.504Z" fill="#F5F0EA"/>
<path d="M356.041 570.455C355.99 570.521 355.945 570.591 355.895 570.657L356.091 570.727C356.076 570.637 356.056 570.546 356.041 570.455Z" fill="#F5F0EA"/>
<path d="M250.052 702.052C249.513 702.712 249.301 703.573 249.472 704.409L261.166 761.647C263.17 771.467 271.902 778.597 281.923 778.597H299.287C309.308 778.597 318.041 771.472 320.045 761.647L331.738 704.409C331.909 703.573 331.698 702.712 331.159 702.052C330.62 701.393 329.819 701.01 328.963 701.01H252.247C251.391 701.01 250.59 701.393 250.052 702.052Z" fill="#F5F0EA"/>
<path d="M319.189 614.328C314.546 605.631 309.747 596.642 310.588 586.882C311.177 580.044 314.531 573.915 317.769 567.993C320.342 563.289 323.001 558.43 324.255 553.248C326.527 543.891 324.386 532.923 317.885 520.656C315.74 516.607 313.287 512.619 310.915 508.766C307.365 502.995 303.689 497.028 300.954 490.687C295.098 477.126 293.134 462.693 295.284 449.565C289.155 465.951 285.434 483.078 284.281 500.553C283.173 517.332 284.452 534.434 285.691 550.972C286.834 566.25 288.017 582.053 287.322 597.614C287 604.886 286.26 612.243 285.54 619.359C284.835 626.379 284.099 633.64 283.772 640.801C283.117 655.058 283.928 668.786 286.225 682.347C289.659 681.894 292.978 680.494 295.742 678.213C298.86 675.639 302.047 672.854 305.23 669.934C301.357 663.775 299.167 656.513 299.111 649.257C299.046 640.756 302.223 633.449 307.612 629.712C310.175 627.935 313.161 626.958 316.052 626.011C318.308 625.276 320.64 624.51 322.719 623.377C322.966 623.241 323.203 623.085 323.445 622.939C322.468 620.668 321.289 618.261 319.663 615.209L319.189 614.328Z" fill="#F5F0EA"/>
<path d="M269.098 670.558C270.438 664.404 270.125 657.334 268.136 648.934C266.963 643.984 265.064 637.699 260.759 633.016C258.145 630.171 254.761 628.071 251.483 626.036C249.252 624.651 246.945 623.216 244.861 621.544C237.332 615.506 232.88 606.562 229.516 598.606C227.885 594.753 226.349 590.76 224.863 586.902C220.487 575.542 215.96 563.793 208.502 554.064C204.745 549.164 201.023 546.303 197.166 545.367C197.221 545.467 197.272 545.568 197.327 545.664C206.588 553.132 209.791 565.334 210.823 574.368C211.443 579.807 211.523 585.362 211.599 590.735C211.674 596.163 211.75 601.773 212.394 607.237C214.479 624.999 222.592 641.748 235.237 654.398C237.327 656.488 239.573 658.502 241.748 660.446C244.649 663.045 247.645 665.729 250.335 668.655C254.721 673.429 258.337 678.963 261.026 684.91C264.934 681.431 267.844 676.344 269.108 670.553L269.098 670.558Z" fill="#F5F0EA"/>
<path d="M240.948 661.338C238.762 659.379 236.506 657.359 234.391 655.244C221.56 642.408 213.326 625.407 211.206 607.378C210.556 601.854 210.476 596.209 210.4 590.755C210.325 585.412 210.249 579.888 209.635 574.504C208.708 566.371 205.984 555.62 198.541 548.338C200.203 552.895 200.203 557.972 200.208 562.922V564.503C200.238 571.165 199.024 577.828 197.851 584.269L197.639 585.427C195.726 595.957 193.878 607.247 193.304 618.487C192.936 625.704 193.178 634.794 198.349 641.048C200.812 644.029 204.241 646.164 207.56 648.229C211.322 650.571 215.21 652.993 217.808 656.684C220.079 659.917 221.112 663.77 222.109 667.496C222.688 669.662 223.287 671.898 224.118 673.972C226.631 680.227 231.606 685.308 237.418 687.579C242.957 689.74 251.03 690.898 257.083 687.675C258.125 687.121 259.122 686.456 260.069 685.706C257.42 679.759 253.824 674.224 249.443 669.46C246.794 666.58 243.818 663.916 240.938 661.338H240.948Z" fill="#F5F0EA"/>
<path d="M285.046 682.473C282.744 668.851 281.934 655.068 282.593 640.751C282.921 633.56 283.656 626.278 284.361 619.243C285.076 612.142 285.816 604.8 286.139 597.564C286.828 582.073 285.65 566.311 284.507 551.062C283.268 534.484 281.984 517.342 283.097 500.477C284.285 482.474 288.173 464.823 294.609 447.978C274.108 465.151 262.546 491.941 264.293 518.682C264.661 524.257 265.587 529.937 266.484 535.431C268.196 545.891 269.963 556.708 267.909 567.258C266.247 575.799 262.163 583.649 258.22 591.244C256.286 594.96 254.287 598.807 252.605 602.68C250.011 608.642 248.052 614.912 246.788 621.308L246.426 621.237C248.239 622.607 250.203 623.836 252.116 625.029C255.455 627.104 258.915 629.249 261.639 632.21C266.131 637.095 268.09 643.566 269.299 648.657C271.328 657.233 271.645 664.48 270.266 670.81C269.812 672.895 269.148 674.889 268.307 676.762C270.774 678.248 273.453 679.648 276.283 680.922C279.058 682.171 282.075 682.675 285.046 682.468V682.473Z" fill="#F5F0EA"/>
<path d="M299.287 779.791H281.924C271.338 779.791 262.113 772.262 259.998 761.889L248.304 704.646C248.063 703.458 248.365 702.234 249.13 701.297C249.896 700.355 251.034 699.817 252.247 699.817H328.964C330.177 699.817 331.315 700.355 332.081 701.297C332.846 702.239 333.148 703.458 332.907 704.646L321.214 761.889C319.093 772.262 309.873 779.791 299.287 779.791ZM252.247 701.01C251.391 701.01 250.591 701.388 250.052 702.052C249.513 702.712 249.301 703.573 249.473 704.409L261.166 761.652C263.17 771.472 271.902 778.603 281.924 778.603H299.287C309.314 778.603 318.041 771.477 320.045 761.652L331.738 704.409C331.91 703.573 331.698 702.712 331.159 702.052C330.62 701.393 329.82 701.01 328.964 701.01H252.247Z" fill="black"/>
<path d="M283.757 683.707C281.042 683.707 278.323 683.148 275.795 682.01C272.753 680.64 269.873 679.129 267.234 677.518L267.854 676.501C270.447 678.087 273.282 679.572 276.279 680.922C282.639 683.787 290.283 682.725 295.747 678.213C298.99 675.534 302.304 672.638 305.592 669.601L306.398 670.478C303.094 673.529 299.761 676.44 296.503 679.129C292.862 682.136 288.309 683.702 283.752 683.702L283.757 683.707Z" fill="black"/>
<path d="M323.651 623.418C322.634 621.005 321.4 618.477 319.662 615.209L319.189 614.323C314.546 605.626 309.747 596.637 310.588 586.877C311.177 580.039 314.531 573.915 317.769 567.988C320.342 563.284 323.001 558.425 324.255 553.243C326.526 543.886 324.386 532.918 317.885 520.646C315.74 516.597 313.287 512.609 310.915 508.756C307.365 502.985 303.689 497.018 300.954 490.677C294.715 476.235 292.892 460.8 295.757 447.012C274.536 464.133 262.511 491.433 264.293 518.677C264.661 524.251 265.587 529.932 266.484 535.426C268.196 545.886 269.964 556.703 267.909 567.253C266.247 575.793 262.163 583.644 258.22 591.238C256.286 594.96 254.287 598.802 252.6 602.675C250.006 608.637 248.048 614.902 246.784 621.303L245.615 621.071C246.894 614.59 248.878 608.239 251.507 602.202C253.209 598.289 255.219 594.426 257.157 590.69C261.065 583.171 265.104 575.401 266.736 567.026C268.75 556.682 266.997 545.971 265.305 535.617C264.404 530.098 263.467 524.387 263.1 518.757C261.257 490.572 273.992 462.326 296.331 445.043L297.661 444.01L297.273 445.647C293.964 459.601 295.657 475.424 302.042 490.209C304.746 496.469 308.397 502.401 311.922 508.132C314.304 511.999 316.767 516.003 318.932 520.087C325.57 532.621 327.75 543.871 325.408 553.52C324.114 558.853 321.415 563.783 318.806 568.552C315.478 574.635 312.335 580.386 311.766 586.973C310.955 596.38 315.674 605.213 320.232 613.754L320.705 614.64C322.462 617.939 323.706 620.497 324.744 622.944L323.646 623.407L323.651 623.418Z" fill="black"/>
<path d="M334.917 687.917C334.348 687.917 333.819 687.887 333.346 687.826C324.075 686.643 315.197 681.954 308.997 674.965C302.793 667.975 299.193 658.603 299.122 649.257C299.057 640.756 302.234 633.449 307.623 629.712C310.186 627.935 313.172 626.958 316.063 626.011C318.319 625.276 320.65 624.51 322.73 623.377C326.724 621.197 330.198 617.425 333.054 612.178C334.882 608.819 336.307 605.178 337.682 601.658C338.195 600.348 338.709 599.039 339.243 597.735C343.518 587.326 349.148 577.516 355.982 568.572L356.893 567.379L357.045 568.869C357.84 576.579 362.106 583.523 366.235 590.241L367.413 592.165C371.759 599.306 376.372 607.665 376.065 616.539C375.773 625.079 371.014 633.696 361.924 642.156C361.103 642.921 360.262 643.672 359.426 644.427C356.903 646.693 354.295 649.03 352.195 651.719C349.053 655.738 347.562 660.089 347.99 663.981C348.186 665.744 348.781 667.501 349.35 669.199C350.06 671.304 350.795 673.479 350.83 675.77C350.886 679.3 349.158 682.805 346.323 684.91C343.886 686.723 338.568 687.912 334.922 687.912L334.917 687.917ZM356.042 570.455C349.662 579.001 344.384 588.328 340.336 598.188C339.802 599.482 339.293 600.786 338.784 602.091C337.395 605.646 335.954 609.322 334.091 612.742C331.125 618.195 327.494 622.123 323.294 624.42C321.119 625.608 318.737 626.389 316.43 627.139C313.494 628.101 310.72 629.007 308.302 630.684C303.236 634.199 300.25 641.139 300.316 649.241C300.386 658.306 303.876 667.391 309.894 674.169C315.907 680.947 324.513 685.495 333.507 686.643C336.705 687.051 343.05 685.867 345.613 683.959C348.146 682.075 349.687 678.943 349.642 675.79C349.612 673.685 348.937 671.691 348.222 669.581C347.627 667.824 347.013 666.006 346.807 664.112C346.343 659.912 347.925 655.249 351.258 650.989C353.424 648.219 356.073 645.842 358.636 643.546C359.467 642.801 360.303 642.05 361.119 641.29C369.967 633.051 374.6 624.712 374.877 616.503C375.169 607.952 370.651 599.779 366.396 592.789L365.223 590.871C361.285 584.46 357.221 577.843 356.057 570.455H356.042Z" fill="black"/>
<path d="M248.24 690.858C244.206 690.858 240.188 689.936 236.99 688.687C230.876 686.305 225.654 680.967 223.02 674.416C222.159 672.27 221.55 669.999 220.961 667.799C219.944 664.007 218.987 660.421 216.836 657.364C214.379 653.869 210.763 651.618 206.931 649.236C203.532 647.121 200.017 644.936 197.428 641.804C192 635.232 191.738 625.855 192.115 618.422C192.689 607.132 194.543 595.791 196.466 585.211L196.678 584.057C197.841 577.672 199.045 571.065 199.02 564.508V562.932C199.02 556.597 199.015 550.05 195.444 544.873L194.684 543.77L196.008 543.947C200.666 544.556 205.063 547.628 209.444 553.344C217.013 563.209 221.57 575.038 225.976 586.48C227.457 590.327 228.993 594.305 230.614 598.143C233.918 605.958 238.284 614.746 245.606 620.618C247.636 622.244 249.912 623.659 252.113 625.024C255.456 627.099 258.911 629.244 261.635 632.205C266.127 637.09 268.086 643.561 269.295 648.652C271.324 657.228 271.642 664.475 270.262 670.805C268.534 678.736 263.816 685.434 257.647 688.718C254.782 690.243 251.503 690.848 248.24 690.848V690.858ZM197.161 545.372C200.203 550.629 200.203 556.879 200.203 562.932V564.508C200.233 571.171 199.02 577.833 197.846 584.274L197.635 585.427C195.721 595.967 193.873 607.263 193.299 618.488C192.931 625.704 193.173 634.794 198.345 641.048C200.807 644.029 204.237 646.165 207.555 648.229C211.317 650.571 215.205 652.993 217.803 656.685C220.074 659.912 221.107 663.77 222.104 667.496C222.683 669.662 223.282 671.903 224.118 673.978C226.631 680.232 231.602 685.318 237.418 687.585C242.957 689.745 251.035 690.903 257.083 687.68C262.95 684.558 267.437 678.157 269.093 670.563C270.433 664.409 270.121 657.334 268.132 648.934C266.958 643.984 265.06 637.699 260.754 633.016C258.14 630.176 254.756 628.071 251.483 626.041C249.252 624.656 246.946 623.221 244.861 621.549C237.332 615.511 232.881 606.568 229.517 598.611C227.89 594.754 226.349 590.765 224.864 586.908C220.487 575.547 215.96 563.798 208.497 554.069C204.74 549.169 201.019 546.309 197.161 545.372Z" fill="black"/>
<path d="M289.004 700.567C283.742 680.993 281.642 661.428 282.594 640.751C282.921 633.555 283.656 626.278 284.366 619.238C285.081 612.142 285.822 604.805 286.144 597.569C286.834 582.083 285.655 566.316 284.512 551.072C283.268 534.494 281.989 517.347 283.097 500.482C284.331 481.804 288.44 463.504 295.314 446.09L296.422 446.528C289.593 463.826 285.509 482.006 284.286 500.558C283.178 517.342 284.457 534.444 285.696 550.982C286.839 566.261 288.022 582.063 287.327 597.619C287.005 604.891 286.265 612.243 285.55 619.359C284.84 626.384 284.109 633.645 283.782 640.811C282.84 661.363 284.925 680.811 290.157 700.265L289.009 700.572L289.004 700.567Z" fill="black"/>
<path d="M308.086 700.164C306.711 690.158 310.19 680.051 319.028 668.352C322.73 663.453 326.985 658.905 331.099 654.504C334.826 650.521 338.673 646.401 342.088 642.055C350.724 631.047 354.687 620.416 353.866 610.455C353.64 607.711 353.03 604.946 352.441 602.277C351.802 599.376 351.137 596.37 350.951 593.338C350.457 585.387 353.232 577.526 355.684 570.586L356.807 570.984C354.395 577.813 351.666 585.558 352.139 593.268C352.32 596.209 352.975 599.165 353.605 602.025C354.204 604.735 354.823 607.534 355.05 610.36C355.891 620.628 351.847 631.54 343.019 642.79C339.575 647.182 335.707 651.316 331.966 655.32C327.871 659.701 323.636 664.228 319.975 669.073C311.339 680.504 307.934 690.334 309.264 700.008L308.086 700.169V700.164Z" fill="black"/>
<path d="M264.512 700.496C262.653 689.035 257.305 678.011 249.449 669.46C246.8 666.58 243.824 663.911 240.944 661.332C238.758 659.379 236.502 657.354 234.387 655.239C221.556 642.403 213.322 625.402 211.202 607.373C210.552 601.849 210.472 596.204 210.396 590.75C210.321 585.407 210.245 579.883 209.631 574.499C208.598 565.48 205.386 553.228 195.943 546.072L196.663 545.125C206.443 552.538 209.757 565.117 210.814 574.368C211.434 579.807 211.514 585.362 211.59 590.735C211.665 596.163 211.741 601.773 212.385 607.237C214.47 624.999 222.583 641.748 235.228 654.398C237.318 656.488 239.564 658.497 241.734 660.446C244.635 663.045 247.636 665.729 250.321 668.655C258.333 677.377 263.786 688.617 265.68 700.305L264.507 700.496H264.512Z" fill="black"/>
<path d="M531.681 231.552C531.983 231.673 532.315 231.643 532.587 231.477C533.932 230.671 535.845 229.442 537.668 227.997C537.729 227.917 537.804 227.851 537.9 227.806C539.426 226.572 540.866 225.202 541.813 223.792C544.069 220.428 547.483 210.251 547.297 200.627C547.297 200.597 547.297 200.562 547.297 200.532C547.231 197.555 546.824 194.635 545.922 191.986C543.656 185.323 534.214 175.111 522.913 170.216C518.255 168.201 511.432 166.378 505.363 169.128C498.978 172.029 494.531 176.682 492.517 182.594C490.261 189.206 491.036 196.996 494.733 205.285C494.4 202.576 494.118 199.816 494.033 197.062C493.962 194.69 494.038 191.94 495.176 189.548C496.228 187.328 498.61 185.147 501.471 185.233C503.43 185.298 505.358 186.421 506.773 188.31C507.962 189.896 508.642 191.774 509.296 193.723C510.168 196.327 510.938 199.011 511.688 201.604C512.419 204.132 513.169 206.751 514.01 209.274C514.277 210.064 515.344 210.417 516.13 210.236C516.951 210.049 517.726 209.44 518.436 208.433C519.006 207.622 519.434 206.726 519.887 205.784C520.239 205.054 520.602 204.293 521.035 203.578C522.299 201.504 524.051 200.26 525.839 200.174C527.738 200.083 529.671 201.262 531.127 203.407C533.237 206.519 533.806 210.447 532.612 213.655C531.696 216.123 529.702 218.051 527.385 218.958L531.061 230.863C531.157 231.175 531.389 231.422 531.696 231.537L531.681 231.552Z" fill="black"/>
<path d="M533.197 232.494C532.845 232.706 532.452 232.811 532.054 232.811C531.782 232.811 531.51 232.761 531.253 232.66C530.604 232.414 530.115 231.89 529.909 231.225L526.233 219.32C525.664 219.451 525.09 219.547 524.51 219.547C524.415 219.547 524.314 219.547 524.218 219.542C523.891 219.527 523.634 219.25 523.649 218.923C523.664 218.595 523.951 218.384 524.269 218.353C525.009 218.389 525.744 218.278 526.459 218.056C526.459 218.056 526.464 218.056 526.469 218.056C526.479 218.056 526.484 218.056 526.495 218.056C528.69 217.366 530.629 215.579 531.49 213.262C532.553 210.412 532.034 206.902 530.136 204.102C529.561 203.251 527.955 201.267 525.89 201.388C523.916 201.483 522.541 203.402 522.043 204.218C521.64 204.883 521.287 205.613 520.95 206.318C520.497 207.265 520.029 208.247 519.399 209.138C518.518 210.392 517.506 211.162 516.388 211.419C515.063 211.716 513.361 211.137 512.873 209.677C512.027 207.129 511.271 204.5 510.536 201.957C509.791 199.373 509.025 196.699 508.159 194.121C507.519 192.197 506.895 190.49 505.817 189.045C504.639 187.469 503.002 186.497 501.431 186.441C499.029 186.325 497.136 188.209 496.249 190.077C495.222 192.243 495.151 194.816 495.222 197.047C495.333 200.778 495.821 204.55 496.295 208.196L496.451 209.435C496.642 210.916 496.798 212.129 497.04 213.796C497.05 213.877 497.045 213.957 497.025 214.033C496.894 214.536 496.778 215.105 496.662 215.695C496.37 217.16 496.038 218.827 495.297 220.015C495.166 220.227 495.026 220.438 494.885 220.65C494.336 221.466 493.822 222.241 493.857 223.062C493.892 223.802 494.436 224.512 495.182 224.789C495.897 225.051 496.808 224.91 497.488 224.432C497.659 224.311 497.866 224.301 498.047 224.371C498.123 224.271 498.218 224.19 498.349 224.15C498.671 224.054 498.994 224.24 499.089 224.558C499.412 225.671 499.769 226.673 500.182 227.619C501.089 229.719 502.378 231.809 504.241 234.206C505.193 235.43 506.356 236.825 507.776 237.877C510.954 240.219 515.431 240.783 519.454 239.338C521.519 238.598 523.881 236.85 526.102 234.418C526.323 234.176 526.701 234.156 526.943 234.378C527.179 234.594 527.195 234.947 526.998 235.193C527.069 236.84 527.124 244.787 522.426 247.939L525.215 258.358C527.018 258.232 529.244 257.734 531.676 256.384C533.061 255.619 534.638 254.637 536.309 253.594C539.386 251.681 542.675 249.636 545.812 248.226L537.896 229.342C536.184 230.651 534.451 231.764 533.202 232.509L533.197 232.494ZM500.056 203.508C499.855 203.508 499.653 203.402 499.543 203.216C499.377 202.934 499.472 202.566 499.754 202.4C502.509 200.788 506.084 200.753 508.869 202.309C509.156 202.47 509.257 202.833 509.096 203.12C508.935 203.407 508.572 203.508 508.285 203.347C505.863 201.992 502.745 202.022 500.353 203.427C500.258 203.483 500.157 203.508 500.051 203.508H500.056ZM501.003 212.26C500.243 210.422 500.686 208.493 501.995 207.954C503.304 207.411 504.981 208.463 505.742 210.296C506.502 212.134 506.059 214.063 504.75 214.602C503.44 215.146 501.763 214.093 501.003 212.26ZM513.814 219.945C512.57 223.812 509.383 226.94 505.49 228.113C505.435 228.128 505.374 228.138 505.319 228.138C505.062 228.138 504.825 227.972 504.75 227.715C504.654 227.398 504.83 227.065 505.148 226.975C508.668 225.912 511.553 223.082 512.681 219.582C512.782 219.27 513.119 219.094 513.432 219.199C513.744 219.3 513.915 219.638 513.814 219.95V219.945ZM523.387 212.713C523.161 212.713 522.944 212.582 522.844 212.361C522.264 211.062 521.993 209.893 521.998 208.795C522.008 207.406 522.516 206.111 523.382 205.25C524.405 204.238 525.926 203.87 527.174 204.339C527.688 204.53 528.172 204.857 528.7 205.371C530.538 207.149 531.405 209.747 530.906 211.988C530.835 212.31 530.518 212.512 530.196 212.441C529.874 212.371 529.672 212.049 529.743 211.731C530.156 209.883 529.42 207.723 527.874 206.232C527.466 205.839 527.109 205.593 526.756 205.457C525.951 205.16 524.908 205.421 524.223 206.101C523.906 206.418 523.654 206.816 523.478 207.275C523.72 207.204 523.977 207.149 524.249 207.144C526.082 207.113 527.819 208.453 528.313 210.321C528.756 211.993 528.187 213.932 526.862 215.256C526.746 215.372 526.595 215.433 526.439 215.433C526.283 215.433 526.137 215.372 526.016 215.256C525.785 215.025 525.785 214.647 526.016 214.415C527.043 213.383 527.492 211.898 527.159 210.623C526.812 209.304 525.518 208.262 524.284 208.332C523.831 208.347 523.453 208.498 523.267 208.74C523.246 208.77 523.216 208.785 523.191 208.811C523.186 209.737 523.428 210.744 523.931 211.887C524.067 212.19 523.931 212.542 523.629 212.673C523.549 212.708 523.468 212.723 523.387 212.723V212.713Z" fill="#F5F0EA"/>
<path d="M584.541 170.87C584.541 184.074 576.67 195.455 565.37 200.592C562.953 201.176 560.43 201.473 557.846 201.473C554.644 201.473 551.486 200.995 548.455 200.078C548.369 197.127 547.941 194.242 547.049 191.613C544.511 184.17 534.974 174.813 525.234 169.989C525.224 169.606 525.209 169.213 525.209 168.836C525.209 155.657 533.045 144.296 544.31 139.139C546.737 138.545 549.285 138.233 551.904 138.233C569.907 138.233 584.541 152.877 584.541 170.87Z" fill="black"/>
<path d="M379.769 449.55C379.407 448.638 379.009 448.024 378.51 447.611C378.087 447.263 377.584 447.077 377.115 447.092C377.755 449.348 378.601 451.458 379.543 452.208C379.86 452.46 380.066 452.45 380.197 452.42C380.288 452.4 380.378 452.354 380.474 452.299C380.474 452.284 380.464 452.274 380.464 452.259C380.348 451.327 380.117 450.416 379.769 449.55Z" fill="#F5F0EA"/>
<path d="M407.704 434.784C407.492 434.457 407.301 434.251 407.095 434.14C406.979 434.079 406.858 434.064 406.752 434.069C406.677 437.005 406.903 439.453 407.583 440.203C407.86 440.505 408.182 440.707 408.53 440.812C408.887 438.204 408.631 436.22 407.709 434.789L407.704 434.784Z" fill="#F5F0EA"/>
<path d="M312.914 382.417L305.078 383.65L357.708 465.473L362.074 464.783L365.539 464.234L312.914 382.417Z" fill="#F5F0EA"/>
<path d="M552.197 731.608V763.611H565.703V550.277H552.197V712.215V731.608Z" fill="#F5F0EA"/>
<path d="M384.286 434.784C384.074 434.457 383.883 434.251 383.677 434.14C383.561 434.079 383.44 434.064 383.334 434.069C383.259 437.005 383.485 439.453 384.165 440.203C384.442 440.505 384.764 440.707 385.112 440.812C385.469 438.204 385.213 436.225 384.286 434.789V434.784Z" fill="#F5F0EA"/>
<path d="M460.102 549.088H572.774C579.044 549.088 584.15 543.987 584.15 537.712C584.15 531.438 579.049 526.336 572.774 526.336H441.268L459.991 549.108C460.031 549.103 460.066 549.083 460.107 549.083L460.102 549.088Z" fill="#F5F0EA"/>
<path d="M551.002 712.814H517.469V731.014H551.002V712.814Z" fill="#F5F0EA"/>
<path d="M516.281 672.593C513.028 675.357 508.198 679.426 502.76 683.908C502.76 683.928 502.77 683.944 502.77 683.959V763.616H516.281V672.593Z" fill="#F5F0EA"/>
<path d="M560.724 429.849C536.003 438.924 508.482 436.285 504.176 435.797C503.451 440.913 501.487 452.455 498.219 454.309C497.287 454.837 492.165 455.351 480.674 456.464C476.952 456.821 472.747 457.229 468.22 457.693L468.26 457.949C468.285 458.106 468.245 458.267 468.155 458.393C468.064 458.519 467.923 458.604 467.767 458.629L384.348 471.818C372.342 475.585 364.622 479.815 361.399 484.393C348.654 502.507 346.377 519.765 354.631 535.688C360.297 546.616 460.676 650.631 467.898 658.105L513.704 616.322L425.556 509.104C425.345 508.852 425.385 508.474 425.637 508.268C425.889 508.056 426.266 508.097 426.473 508.348L428.432 510.73C433.105 514.286 444.325 522.836 447.231 525.153H580.097C583.103 525.153 586.009 524.025 588.275 521.98C622.866 490.723 603.82 447.273 596.297 433.334C581.758 436.718 560.724 429.854 560.724 429.854V429.849Z" fill="#20E086"/>
<path d="M501.577 712.814H468.043V731.014H501.577V712.814Z" fill="#F5F0EA"/>
<path d="M516.282 550.277H502.771V600.525C502.771 600.686 502.705 600.832 502.6 600.943L514.978 616C515.179 616.241 515.154 616.604 514.917 616.816L506.155 624.807C510.022 627.27 513.376 629.869 516.272 632.462V550.272L516.282 550.277Z" fill="#F5F0EA"/>
<path d="M472.337 655.662L468.273 659.374C468.158 659.479 468.017 659.53 467.871 659.53C467.714 659.53 467.558 659.469 467.442 659.348C466.44 658.311 460.276 651.936 451.303 642.589L440.994 653.2L451.967 669.491C452.098 669.682 452.103 669.929 451.982 670.13C444.016 683.465 432.529 704.616 433.541 708.237C433.561 708.312 433.602 708.418 433.662 708.448C434.871 708.926 442.732 704.852 481.291 672.386C481.513 672.009 481.709 671.681 481.855 671.434L472.327 655.667L472.337 655.662Z" fill="black"/>
<path d="M464.669 711.198C464.477 711.198 464.321 711.167 464.195 711.102C463.953 710.976 463.636 710.709 463.48 710.16C463.002 708.453 464.563 704.127 466.955 698.94C466.894 698.85 466.849 698.744 466.849 698.623V685.953C461.556 690.294 457.1 693.869 453.338 696.81V763.621H466.849V710.533C465.922 710.956 465.167 711.203 464.664 711.203L464.669 711.198Z" fill="#F5F0EA"/>
<path d="M483.648 336.59C483.653 336.822 483.658 337.054 483.663 337.28C486.921 350.499 495.644 379.984 496.938 384.34C501.817 383.096 505.519 382.165 508.329 381.465C507.77 375.014 502.266 308.964 509.296 282.41C513.46 266.678 523.059 263.193 528.412 262.518C537.693 261.345 547.77 266.496 552.398 274.76C563.064 293.821 579.672 403.814 562.439 424.048C573.886 431.738 591.048 428.842 594.004 427.931C596.869 427.049 613.256 400.667 612.994 387.115C612.747 374.017 585.065 295.825 578.206 279.997C571.64 264.844 559.156 248.543 553.47 247.697C549.029 247.048 542.331 251.217 536.938 254.576C535.251 255.624 533.659 256.616 532.249 257.396C528.472 259.486 525.123 259.698 522.973 259.506C521.493 259.37 520.072 259.673 518.859 260.373C516.709 261.611 513.818 263.545 512.237 265.716C509.135 269.976 481.468 324.665 482.505 331.902C482.631 332.798 482.943 334.249 483.386 336.097C483.552 336.198 483.648 336.364 483.653 336.575L483.648 336.59Z" fill="black"/>
<path d="M460.947 550.277L466.854 557.468V550.277H460.947Z" fill="#F5F0EA"/>
<path d="M483.07 671.732C482.818 672.155 482.561 672.588 482.3 673.026C482.3 673.036 482.29 673.046 482.285 673.056C474.368 686.421 463.647 706.333 464.634 709.838C464.654 709.913 464.694 710.014 464.755 710.049C464.815 710.075 464.891 710.085 464.976 710.085C465.384 710.085 466.074 709.823 466.991 709.349C467.096 709.213 467.252 709.123 467.434 709.118C475.068 704.943 496.521 687.871 516.453 670.891C516.453 670.891 516.463 670.88 516.468 670.88C516.982 670.442 517.495 670.009 518.004 669.571L516.332 665.88L510.959 654.025C510.848 653.779 510.913 653.487 511.125 653.315C511.336 653.144 511.639 653.139 511.855 653.3L524.47 662.753L531.455 654.715C530.503 652.354 523.886 637.402 505.258 625.648L473.245 654.851L483.08 671.122C483.196 671.309 483.196 671.545 483.08 671.737L483.07 671.732Z" fill="black"/>
<path d="M497.627 453.271C499.133 452.42 500.432 448.497 501.42 444.217C494.999 444.262 447.762 444.836 405.431 452.4C404.963 453.024 404.444 453.457 403.865 453.583C403.754 453.608 403.628 453.624 403.492 453.624C403.135 453.624 402.692 453.513 402.218 453.14C402.102 453.049 401.997 452.934 401.886 452.818C401.72 454.223 401.357 455.87 401.292 456.162C401.055 457.214 400.808 458.035 400.566 458.7L466.138 448.331C466.451 448.28 466.768 448.502 466.818 448.824L468.032 456.509C472.589 456.046 476.814 455.638 480.556 455.275C489.298 454.429 496.847 453.699 497.633 453.271H497.627Z" fill="#20E086"/>
<path d="M398.593 461.323C398.437 461.369 398.276 461.389 398.115 461.389C397.631 461.389 397.118 461.202 396.584 460.83C396.483 460.759 396.387 460.664 396.287 460.583L358.029 466.631L359.283 474.573L466.98 457.541L465.726 449.6L399.983 459.994C399.364 461.102 398.835 461.258 398.593 461.323Z" fill="#F5F0EA"/>
<path d="M517.108 379.637C517.41 379.768 517.551 380.115 517.425 380.417C517.314 380.679 517.037 380.82 516.765 380.77C515.632 380.8 504.573 383.62 491.787 386.883C479.505 390.016 464.216 393.918 450.372 397.242C444.712 398.602 438.307 399.256 432.661 399.841C425.938 400.531 420.132 401.125 417.775 402.646C400.653 413.699 392.193 429.154 391.901 449.897C391.886 451.72 392.103 453.553 392.4 454.364C392.4 454.374 392.41 454.379 392.41 454.389C392.475 454.565 392.546 454.706 392.616 454.767C392.616 454.757 392.646 454.736 392.672 454.716C392.536 454.238 392.425 453.775 392.39 453.352C392.228 451.559 392.928 444.146 393.543 438.249C393.578 437.922 393.87 437.685 394.197 437.72C394.525 437.756 394.761 438.048 394.726 438.375C393.865 446.644 393.457 451.926 393.573 453.251C393.578 453.326 393.603 453.412 393.613 453.493C393.749 453.407 393.9 453.336 394.062 453.286C394.52 453.15 395.054 453.175 395.592 453.367C396.343 453.634 397.038 454.183 397.607 454.953C398.09 455.608 398.428 456.328 398.755 457.023L399.41 458.408C400.246 456.116 400.86 452.324 400.805 451.398C400.789 451.337 400.794 451.272 400.799 451.206C399.107 447.903 398.12 442.112 398.105 440.495C398.105 440.349 399.102 425.357 399.888 424.884C400.069 424.778 400.301 424.773 400.487 424.874C400.769 425.03 400.88 425.382 400.729 425.669C400.482 426.767 399.269 438.143 399.294 440.48C399.304 441.442 399.651 443.663 400.22 445.934C401.046 445.833 401.958 446.095 402.678 446.689C403.338 447.238 403.846 448.004 404.284 449.106C404.541 449.761 404.722 450.441 404.863 451.126C406.027 449.046 407.014 444.891 407.492 441.633C407.205 441.467 406.928 441.266 406.686 440.999C404.33 438.405 406.047 423.559 407.996 420.347C410.086 416.897 417.352 416.378 417.66 416.358C417.992 416.313 418.269 416.585 418.294 416.912C418.314 417.239 418.067 417.521 417.74 417.547C417.67 417.547 410.786 418.04 409.018 420.961C407.95 422.718 407.034 428.177 406.792 432.871C407.084 432.871 407.386 432.946 407.658 433.092C408.167 433.369 408.494 433.823 408.696 434.14C409.753 435.781 410.086 437.957 409.728 440.762C410.69 440.435 413.716 438.642 414.814 429.074C414.839 428.867 414.97 428.686 415.162 428.6C415.348 428.515 415.57 428.535 415.746 428.651C415.973 428.807 438.755 444.206 456.516 425.876C456.748 425.639 457.126 425.634 457.357 425.861C457.594 426.087 457.599 426.465 457.372 426.702C456.657 427.442 455.932 428.107 455.202 428.741C465.047 429.824 541.204 437.7 559.781 424.899C568.297 419.032 570.976 392.639 567.129 352.488C564.007 319.911 556.931 285.3 551.351 275.339C547.026 267.604 537.236 262.593 528.554 263.696C519.827 264.799 513.391 271.552 510.44 282.712C504.916 303.575 507.202 349.175 508.673 370.477L516.398 379.627C516.79 379.576 516.992 379.586 517.098 379.632L517.108 379.637Z" fill="#F5F0EA"/>
<path d="M397.686 457.521C397.384 456.877 397.072 456.212 396.654 455.653C396.357 455.245 395.858 454.716 395.194 454.48C394.982 454.404 394.675 454.334 394.403 454.419C394.207 454.48 394.05 454.626 394.015 454.777C394.005 454.817 393.985 454.852 393.965 454.888C394.524 456.489 395.581 458.267 396.634 459.314L398.391 459.037L397.681 457.521H397.686Z" fill="#F5F0EA"/>
<path d="M403.18 449.55C402.818 448.638 402.42 448.024 401.921 447.611C401.498 447.258 400.995 447.082 400.531 447.092C401.171 449.353 402.017 451.463 402.959 452.208C403.276 452.46 403.482 452.45 403.608 452.42C403.699 452.4 403.795 452.355 403.885 452.299C403.885 452.284 403.875 452.274 403.87 452.259C403.754 451.332 403.523 450.421 403.18 449.55Z" fill="#F5F0EA"/>
<path d="M370.13 438.244C370.165 437.917 370.462 437.68 370.784 437.715C371.112 437.751 371.348 438.043 371.313 438.37C370.452 446.629 370.044 451.911 370.16 453.246C370.165 453.322 370.19 453.407 370.2 453.488C370.336 453.402 370.487 453.332 370.648 453.281C371.107 453.145 371.64 453.17 372.179 453.362C372.93 453.629 373.625 454.178 374.199 454.948C374.687 455.608 375.035 456.358 375.347 457.018L375.901 458.201C375.956 458.101 376.042 458.025 376.148 457.97C376.908 455.658 377.442 452.264 377.391 451.393C377.376 451.332 377.381 451.267 377.386 451.206C375.694 447.903 374.707 442.112 374.692 440.495C374.692 440.349 375.689 425.352 376.475 424.884C376.656 424.773 376.888 424.773 377.074 424.874C377.356 425.03 377.462 425.383 377.316 425.67C377.069 426.772 375.855 438.143 375.886 440.48C375.896 441.442 376.243 443.658 376.812 445.934C377.643 445.828 378.54 446.085 379.275 446.689C379.935 447.238 380.443 448.004 380.881 449.107C381.138 449.761 381.319 450.436 381.46 451.126C382.624 449.046 383.611 444.891 384.094 441.633C383.807 441.467 383.53 441.266 383.288 440.999C380.932 438.405 382.649 423.56 384.598 420.347C386.688 416.897 393.954 416.378 394.262 416.358C394.619 416.313 394.871 416.585 394.896 416.912C394.916 417.24 394.669 417.522 394.342 417.547C394.272 417.547 387.388 418.04 385.62 420.961C384.552 422.719 383.636 428.177 383.394 432.871C383.686 432.871 383.988 432.946 384.26 433.092C384.769 433.369 385.096 433.823 385.298 434.14C386.355 435.782 386.688 437.957 386.33 440.762C387.292 440.435 390.318 438.642 391.416 429.074C391.441 428.867 391.572 428.686 391.764 428.6C391.955 428.515 392.177 428.535 392.348 428.651C392.353 428.651 392.987 429.089 394.095 429.718C398.114 418.287 405.728 409.001 417.129 401.644C419.728 399.967 425.665 399.357 432.544 398.652C438.154 398.078 444.514 397.424 450.099 396.084C463.933 392.765 479.216 388.863 491.499 385.73C493.02 385.342 494.445 384.98 495.789 384.637C494.571 380.528 487.662 357.197 483.824 342.679C484.444 361.483 485.788 377.708 486.09 381.178C491.977 379.728 493.357 379.486 493.7 379.642C494.002 379.768 494.143 380.12 494.017 380.422C493.906 380.684 493.624 380.825 493.357 380.775C492.224 380.805 481.16 383.625 468.369 386.894C456.087 390.026 440.803 393.924 426.969 397.247C421.304 398.607 414.903 399.262 409.253 399.846C402.53 400.536 396.724 401.13 394.367 402.651C377.245 413.704 368.785 429.159 368.493 449.902C368.473 452.153 368.81 454.445 369.208 454.772C369.208 454.762 369.238 454.742 369.264 454.721C369.128 454.243 369.017 453.78 368.982 453.357C368.82 451.554 369.52 444.146 370.135 438.254L370.13 438.244Z" fill="#F5F0EA"/>
<path d="M373.242 455.658C372.945 455.25 372.447 454.721 371.782 454.485C371.571 454.409 371.263 454.344 370.991 454.424C370.8 454.485 370.639 454.631 370.609 454.777C370.599 454.817 370.573 454.852 370.558 454.893C371.228 456.811 372.623 458.997 373.852 459.853C374.134 460.049 374.542 460.271 374.869 460.175C375.025 460.13 375.181 459.989 375.337 459.782L374.275 457.526C373.973 456.887 373.665 456.222 373.247 455.658H373.242Z" fill="#F5F0EA"/>
<path d="M512.992 655.632L516.281 662.884V658.094L512.992 655.632Z" fill="#F5F0EA"/>
<path d="M360.418 483.698C363.162 479.8 368.923 476.169 377.585 472.881L358.887 475.837C358.857 475.837 358.826 475.842 358.791 475.842C358.504 475.842 358.252 475.63 358.202 475.338L356.807 466.515C346.861 471.34 340.108 476.899 336.744 483.048C336.628 483.28 324.22 508.877 332.066 523.33C339.761 537.501 430.094 646.995 437.109 655.486L450.474 641.728C419.775 609.745 358.101 544.979 353.564 536.232C345.089 519.88 347.39 502.204 360.413 483.698H360.418Z" fill="#20E086"/>
<path d="M393.064 455.839C392.888 455.915 392.727 455.955 392.581 455.955C392.435 455.955 392.304 455.925 392.193 455.88C391.911 455.769 391.684 455.527 391.498 455.2C386.366 456.358 381.522 457.607 377.07 458.921C376.254 461.026 375.484 461.238 375.182 461.323C375.026 461.369 374.864 461.389 374.703 461.389C374.22 461.389 373.706 461.203 373.172 460.83C372.946 460.674 372.719 460.477 372.493 460.261C372.427 460.326 372.357 460.377 372.266 460.407C370.06 461.127 367.94 461.877 365.926 462.638L366.822 464.033L395.24 459.541C394.378 458.513 393.598 457.169 393.064 455.844V455.839Z" fill="#F5F0EA"/>
<path d="M508.97 381.923L508.023 369.701L516.876 380.186L508.97 381.923Z" fill="black"/>
<path d="M426.371 509.164C426.371 509.164 448.191 525.747 447.93 525.747H440.054L426.371 509.164Z" fill="black"/>
<path d="M503.576 435.721C503.576 435.721 533.817 439.72 560.723 429.844C560.723 429.844 582.367 436.915 596.921 433.183L594.181 428.505C594.181 428.505 578.132 434.336 561.554 424.174C561.554 424.174 550.641 435.782 503.576 432.634V435.721Z" fill="black"/>
<path d="M392.588 455.955C392.442 455.955 392.311 455.925 392.2 455.88C390.86 455.361 390.694 451.896 390.714 449.877C391.012 428.706 399.653 412.929 417.133 401.644C419.731 399.967 425.668 399.357 432.547 398.652C438.157 398.078 444.517 397.423 450.102 396.084C463.931 392.765 479.204 388.868 491.482 385.735C513.191 380.196 516.55 379.4 517.114 379.642C517.417 379.773 517.558 380.12 517.427 380.422C517.316 380.684 517.029 380.825 516.767 380.775C515.634 380.805 504.565 383.625 491.769 386.893C479.492 390.026 464.208 393.924 450.374 397.247C444.714 398.607 438.308 399.262 432.663 399.841C425.94 400.531 420.129 401.125 417.772 402.651C400.65 413.704 392.19 429.159 391.898 449.902C391.878 452.153 392.215 454.444 392.618 454.772C392.628 454.747 392.724 454.691 392.88 454.515C393.101 454.268 393.479 454.253 393.721 454.47C393.968 454.691 393.988 455.064 393.766 455.311C393.313 455.814 392.905 455.965 392.583 455.965L392.588 455.955Z" fill="black"/>
<path d="M409.056 442.076C408.174 442.076 407.339 441.704 406.699 441.004C404.342 438.41 406.059 423.565 408.008 420.347C410.098 416.897 417.365 416.383 417.672 416.358C417.999 416.343 418.286 416.585 418.307 416.912C418.327 417.24 418.08 417.521 417.753 417.547C417.682 417.547 410.798 418.04 409.031 420.961C407.182 424.013 405.767 438.199 407.585 440.198C408.159 440.827 408.91 441.034 409.705 440.777C410.627 440.48 413.719 438.758 414.832 429.074C414.857 428.867 414.988 428.686 415.179 428.6C415.366 428.515 415.592 428.535 415.764 428.651C415.99 428.807 438.772 444.201 456.534 425.871C456.765 425.634 457.143 425.629 457.375 425.856C457.611 426.082 457.616 426.46 457.39 426.697C440.862 443.753 420.22 432.755 415.904 430.141C414.646 439.448 411.433 441.472 410.078 441.905C409.741 442.016 409.398 442.066 409.066 442.066L409.056 442.076Z" fill="black"/>
<path d="M403.495 453.624C403.137 453.624 402.694 453.513 402.221 453.14C399.672 451.116 398.131 442.525 398.111 440.5C398.111 440.354 399.108 425.362 399.894 424.889C400.075 424.778 400.307 424.773 400.493 424.879C400.775 425.035 400.881 425.388 400.735 425.675C400.488 426.778 399.275 438.154 399.305 440.49C399.325 442.575 400.921 450.587 402.966 452.214C403.283 452.465 403.49 452.455 403.621 452.43C405.338 452.052 406.964 445.657 407.569 441.235C407.614 440.908 407.911 440.682 408.238 440.727C408.566 440.772 408.792 441.069 408.747 441.397C408.485 443.31 407.02 452.899 403.877 453.593C403.767 453.619 403.641 453.634 403.505 453.634L403.495 453.624Z" fill="black"/>
<path d="M398.118 461.384C397.635 461.384 397.121 461.198 396.587 460.825C394.689 459.505 392.609 455.799 392.393 453.347C392.231 451.554 392.931 444.141 393.546 438.244C393.581 437.917 393.878 437.675 394.2 437.715C394.528 437.751 394.764 438.043 394.729 438.37C393.868 446.639 393.46 451.921 393.576 453.246C393.762 455.341 395.656 458.735 397.262 459.853C397.544 460.049 397.957 460.266 398.28 460.175C399.619 459.808 400.883 452.707 400.808 451.398C400.752 451.211 400.792 451 400.928 450.844C401.145 450.597 401.518 450.567 401.769 450.783C402.369 451.307 401.387 455.703 401.276 456.202C400.208 460.88 398.995 461.213 398.592 461.323C398.436 461.369 398.274 461.389 398.108 461.389L398.118 461.384Z" fill="black"/>
<path d="M512.834 433.39C485.031 433.39 456.07 430.051 454.025 429.809C453.698 429.769 453.466 429.477 453.501 429.149C453.542 428.822 453.834 428.59 454.161 428.626C455.017 428.726 540.022 438.521 559.788 424.904C568.304 419.037 570.983 392.644 567.135 352.494C564.013 319.917 556.938 285.31 551.363 275.344C547.037 267.609 537.238 262.604 528.566 263.701C519.839 264.804 513.403 271.557 510.452 282.717C503.15 310.303 509.5 381.153 509.566 381.868C509.596 382.195 509.354 382.482 509.027 382.512C508.699 382.548 508.407 382.301 508.377 381.973C508.312 381.258 501.941 310.202 509.299 282.41C513.463 266.678 523.062 263.193 528.415 262.518C537.691 261.34 547.773 266.496 552.401 274.76C563.449 294.506 580.873 411.821 560.463 425.881C552.063 431.672 532.741 433.384 512.829 433.384L512.834 433.39Z" fill="black"/>
<path d="M409.094 441.734C409.064 441.734 409.034 441.734 409.004 441.729C408.681 441.679 408.455 441.376 408.505 441.049C408.918 438.315 408.656 436.265 407.704 434.785C407.493 434.457 407.302 434.251 407.095 434.14C406.914 434.039 406.697 434.029 406.576 434.105C406.299 434.286 405.932 434.215 405.751 433.938C405.569 433.667 405.64 433.294 405.917 433.113C406.41 432.785 407.095 432.78 407.669 433.087C408.178 433.364 408.505 433.818 408.707 434.135C409.819 435.867 410.142 438.189 409.684 441.22C409.638 441.517 409.386 441.729 409.094 441.729V441.734Z" fill="black"/>
<path d="M404.468 452.783C404.171 452.783 403.914 452.561 403.879 452.259C403.763 451.332 403.531 450.421 403.189 449.55C402.826 448.638 402.428 448.024 401.93 447.611C401.356 447.137 400.626 446.966 400.062 447.178C399.759 447.294 399.412 447.137 399.296 446.83C399.18 446.523 399.336 446.181 399.644 446.065C400.615 445.697 401.784 445.944 402.69 446.699C403.35 447.248 403.859 448.014 404.297 449.117C404.679 450.078 404.936 451.086 405.062 452.118C405.102 452.445 404.871 452.742 404.543 452.783C404.518 452.783 404.493 452.783 404.468 452.783Z" fill="black"/>
<path d="M399.306 460.155C399.084 460.155 398.868 460.029 398.767 459.813L397.689 457.521C397.372 456.847 397.07 456.212 396.662 455.653C396.365 455.25 395.866 454.716 395.201 454.48C394.99 454.404 394.683 454.334 394.411 454.414C394.214 454.475 394.058 454.621 394.023 454.772C393.953 455.094 393.645 455.301 393.313 455.23C392.991 455.16 392.789 454.842 392.86 454.52C392.986 453.946 393.459 453.457 394.068 453.276C394.527 453.135 395.06 453.165 395.599 453.357C396.35 453.624 397.045 454.173 397.619 454.943C398.097 455.593 398.44 456.313 398.767 457.008L399.844 459.299C399.985 459.596 399.855 459.954 399.557 460.09C399.477 460.13 399.391 460.145 399.306 460.145V460.155Z" fill="black"/>
<path d="M369.17 455.955C369.023 455.955 368.893 455.925 368.782 455.88C367.442 455.361 367.276 451.896 367.296 449.877C367.593 428.706 376.235 412.929 393.714 401.644C396.313 399.967 402.25 399.357 409.129 398.652C414.739 398.078 421.099 397.423 426.684 396.084C440.507 392.765 455.781 388.868 468.054 385.735C489.773 380.196 493.127 379.395 493.696 379.637C493.998 379.768 494.139 380.115 494.008 380.417C493.898 380.679 493.611 380.82 493.349 380.77C492.211 380.8 481.142 383.625 468.346 386.888C456.068 390.021 440.789 393.919 426.961 397.237C421.301 398.597 414.895 399.251 409.25 399.831C402.527 400.521 396.721 401.115 394.364 402.641C377.242 413.694 368.782 429.149 368.49 449.892C368.47 452.143 368.807 454.434 369.205 454.762C369.215 454.737 369.311 454.681 369.467 454.505C369.688 454.258 370.066 454.243 370.308 454.46C370.554 454.681 370.575 455.054 370.353 455.301C369.9 455.804 369.497 455.955 369.17 455.955Z" fill="black"/>
<path d="M385.642 442.076C384.76 442.076 383.924 441.704 383.285 441.004C380.928 438.41 382.645 423.565 384.594 420.347C386.684 416.897 393.951 416.383 394.258 416.358C394.585 416.343 394.872 416.585 394.893 416.912C394.913 417.24 394.666 417.522 394.339 417.547C394.268 417.547 387.384 418.04 385.617 420.961C383.768 424.013 382.353 438.199 384.171 440.198C384.74 440.828 385.496 441.034 386.291 440.777C387.213 440.48 390.305 438.758 391.418 429.074C391.443 428.867 391.574 428.686 391.765 428.6C391.952 428.515 392.178 428.535 392.349 428.651C392.36 428.656 393.226 429.25 394.721 430.066C395.008 430.222 395.119 430.585 394.963 430.872C394.807 431.159 394.439 431.264 394.157 431.113C393.462 430.736 392.903 430.408 392.49 430.152C391.231 439.458 388.019 441.477 386.664 441.91C386.327 442.016 385.984 442.071 385.652 442.071L385.642 442.076Z" fill="black"/>
<path d="M380.082 453.624C379.725 453.624 379.282 453.513 378.808 453.14C376.26 451.121 374.719 442.525 374.699 440.5C374.699 440.354 375.696 425.362 376.482 424.889C376.663 424.778 376.895 424.778 377.081 424.879C377.368 425.035 377.474 425.388 377.323 425.675C377.066 426.793 375.862 438.033 375.892 440.485C375.918 442.57 377.509 450.587 379.554 452.209C379.871 452.46 380.077 452.45 380.203 452.42C381.92 452.037 383.547 445.647 384.151 441.225C384.197 440.898 384.494 440.671 384.821 440.717C385.148 440.762 385.375 441.059 385.33 441.386C385.068 443.3 383.602 452.888 380.455 453.583C380.344 453.609 380.218 453.624 380.082 453.624Z" fill="black"/>
<path d="M374.704 461.384C374.221 461.384 373.707 461.198 373.173 460.825C371.275 459.505 369.195 455.799 368.979 453.347C368.817 451.554 369.517 444.141 370.132 438.244C370.167 437.917 370.454 437.675 370.786 437.715C371.114 437.751 371.35 438.043 371.315 438.37C370.454 446.639 370.046 451.921 370.162 453.246C370.348 455.341 372.242 458.735 373.848 459.853C374.13 460.049 374.538 460.266 374.865 460.175C376.21 459.808 377.474 452.707 377.393 451.398C377.338 451.211 377.378 451 377.514 450.844C377.731 450.592 378.109 450.567 378.355 450.783C378.955 451.302 377.988 455.663 377.872 456.157C376.804 460.875 375.581 461.213 375.178 461.323C375.022 461.364 374.86 461.389 374.699 461.389L374.704 461.384Z" fill="black"/>
<path d="M485.554 382.517C485.252 382.517 484.99 382.286 484.96 381.979C484.94 381.767 483.001 360.309 482.457 336.621C482.452 336.293 482.709 336.021 483.036 336.011C483.414 336.026 483.636 336.263 483.646 336.59C484.189 360.239 486.123 381.656 486.143 381.868C486.174 382.195 485.932 382.482 485.605 382.512C485.584 382.512 485.569 382.512 485.549 382.512L485.554 382.517Z" fill="black"/>
<path d="M385.676 441.734C385.646 441.734 385.616 441.734 385.586 441.729C385.263 441.679 385.037 441.376 385.087 441.049C385.5 438.315 385.238 436.265 384.286 434.785C384.075 434.457 383.884 434.251 383.677 434.14C383.496 434.039 383.279 434.029 383.158 434.105C382.881 434.286 382.514 434.215 382.333 433.938C382.151 433.667 382.222 433.294 382.499 433.113C382.992 432.785 383.677 432.78 384.251 433.087C384.76 433.364 385.087 433.818 385.289 434.135C386.402 435.867 386.724 438.184 386.261 441.22C386.215 441.517 385.963 441.729 385.671 441.729L385.676 441.734Z" fill="black"/>
<path d="M381.049 452.783C380.752 452.783 380.495 452.561 380.46 452.259C380.344 451.332 380.112 450.421 379.77 449.55C379.407 448.638 379.01 448.024 378.511 447.611C377.937 447.132 377.202 446.966 376.638 447.178C376.336 447.294 375.988 447.137 375.872 446.83C375.756 446.523 375.913 446.181 376.22 446.065C377.171 445.707 378.37 445.954 379.266 446.699C379.926 447.248 380.435 448.014 380.873 449.117C381.256 450.083 381.512 451.091 381.638 452.118C381.679 452.445 381.447 452.742 381.12 452.783C381.094 452.783 381.069 452.783 381.044 452.783H381.049Z" fill="black"/>
<path d="M375.888 460.155C375.666 460.155 375.45 460.029 375.349 459.813L374.271 457.521C373.969 456.882 373.657 456.217 373.244 455.658C372.947 455.255 372.448 454.721 371.783 454.485C371.577 454.409 371.265 454.339 370.993 454.419C370.801 454.475 370.64 454.626 370.605 454.777C370.535 455.099 370.232 455.306 369.895 455.235C369.573 455.165 369.371 454.847 369.442 454.525C369.568 453.951 370.041 453.462 370.65 453.281C371.109 453.145 371.642 453.17 372.186 453.362C372.937 453.629 373.632 454.177 374.201 454.948C374.684 455.603 375.022 456.323 375.349 457.018L376.427 459.309C376.568 459.606 376.442 459.964 376.139 460.1C376.059 460.14 375.973 460.155 375.888 460.155Z" fill="black"/>
<path d="M514.918 241.297C512.058 241.297 509.278 240.451 507.062 238.814C505.521 237.676 504.293 236.206 503.291 234.916C501.372 232.444 500.032 230.268 499.081 228.073C498.652 227.086 498.28 226.038 497.937 224.865C497.847 224.548 498.028 224.22 498.345 224.125C498.663 224.029 498.99 224.215 499.086 224.527C499.413 225.65 499.77 226.653 500.178 227.594C501.09 229.694 502.379 231.789 504.237 234.181C505.189 235.405 506.352 236.8 507.772 237.852C510.95 240.199 515.422 240.758 519.451 239.313C521.515 238.572 523.877 236.825 526.098 234.393C526.319 234.151 526.697 234.131 526.939 234.352C527.181 234.574 527.201 234.952 526.979 235.193C524.632 237.767 522.099 239.63 519.853 240.431C518.247 241.01 516.57 241.292 514.918 241.292V241.297Z" fill="black"/>
<path d="M524.511 219.542C524.415 219.542 524.314 219.542 524.219 219.537C523.891 219.522 523.634 219.245 523.65 218.918C523.665 218.59 523.957 218.333 524.269 218.349C527.306 218.484 530.342 216.329 531.485 213.252C532.548 210.397 532.029 206.887 530.131 204.087C529.552 203.236 527.98 201.267 525.885 201.373C523.911 201.468 522.537 203.387 522.038 204.203C521.63 204.868 521.283 205.603 520.94 206.308C520.487 207.255 520.019 208.231 519.389 209.123C518.508 210.377 517.496 211.147 516.378 211.404C515.063 211.706 513.351 211.122 512.863 209.657C512.012 207.103 511.256 204.47 510.521 201.922C509.781 199.343 509.01 196.674 508.149 194.106C507.505 192.182 506.885 190.475 505.808 189.025C504.629 187.448 502.987 186.477 501.421 186.421C499.08 186.381 497.126 188.189 496.239 190.057C495.217 192.212 495.142 194.68 495.212 197.027C495.323 200.758 495.811 204.53 496.285 208.176L496.431 209.329C496.627 210.85 496.783 212.079 497.03 213.776C497.075 214.103 496.854 214.405 496.526 214.451C496.204 214.496 495.897 214.274 495.852 213.947C495.605 212.24 495.444 211.006 495.247 209.48L495.101 208.327C494.628 204.651 494.134 200.854 494.019 197.062C493.948 194.69 494.029 191.94 495.162 189.548C496.214 187.328 498.606 185.132 501.457 185.233C503.415 185.298 505.344 186.421 506.759 188.31C507.943 189.896 508.628 191.774 509.277 193.723C510.143 196.317 510.919 198.996 511.664 201.589C512.394 204.127 513.15 206.746 513.991 209.279C514.253 210.07 515.32 210.422 516.106 210.241C517.133 210.004 517.924 209.133 518.412 208.438C518.981 207.627 519.409 206.736 519.863 205.789C520.215 205.054 520.578 204.298 521.016 203.583C522.28 201.509 524.027 200.27 525.82 200.179C527.708 200.073 529.647 201.267 531.108 203.412C533.218 206.524 533.787 210.452 532.593 213.66C531.309 217.105 527.94 219.537 524.501 219.537L524.511 219.542Z" fill="black"/>
<path d="M524.765 259.567C524.503 259.567 524.261 259.391 524.19 259.124L519.079 240.033C518.993 239.716 519.185 239.388 519.502 239.303C519.814 239.217 520.147 239.408 520.232 239.726L525.344 258.817C525.429 259.134 525.238 259.461 524.921 259.547C524.87 259.562 524.82 259.567 524.77 259.567H524.765Z" fill="black"/>
<path d="M546.482 248.866C546.25 248.866 546.028 248.73 545.933 248.503L537.583 228.586C537.457 228.284 537.598 227.932 537.9 227.806C538.203 227.675 538.555 227.821 538.681 228.123L547.03 248.04C547.156 248.342 547.015 248.695 546.713 248.82C546.638 248.851 546.562 248.866 546.482 248.866Z" fill="black"/>
<path d="M582.458 430.474C575.761 430.474 567.618 429.23 561.207 424.662C560.94 424.471 560.875 424.098 561.066 423.831C561.257 423.565 561.63 423.504 561.897 423.69C573.333 431.844 590.999 428.862 594.001 427.936C596.866 427.054 613.253 400.672 612.991 387.125C612.744 374.027 585.062 295.835 578.203 280.007C571.636 264.855 559.152 248.553 553.467 247.707C549.025 247.048 542.328 251.228 536.934 254.586C535.247 255.634 533.656 256.626 532.246 257.407C528.464 259.496 525.11 259.708 522.97 259.511C521.494 259.381 520.069 259.678 518.856 260.378C516.705 261.616 513.815 263.55 512.233 265.726C509.131 269.986 481.469 324.675 482.502 331.912C483.569 339.365 496.965 384.426 497.101 384.879C497.191 385.196 497.015 385.524 496.698 385.619C496.375 385.715 496.048 385.534 495.957 385.217C495.404 383.358 482.401 339.617 481.323 332.078C480.155 323.895 509.292 267.745 511.272 265.026C512.974 262.684 516.015 260.645 518.261 259.35C519.686 258.53 521.353 258.177 523.076 258.328C525.055 258.504 528.152 258.308 531.667 256.364C533.052 255.599 534.628 254.617 536.3 253.574C542.151 249.928 548.779 245.804 553.638 246.524C559.878 247.456 572.346 263.495 579.296 279.529C586.356 295.825 613.922 373.528 614.184 387.095C614.446 400.767 598.014 427.941 594.353 429.069C592.651 429.592 588.058 430.464 582.453 430.464L582.458 430.474Z" fill="black"/>
<path d="M532.06 232.811C531.788 232.811 531.516 232.761 531.254 232.66C530.604 232.408 530.116 231.885 529.909 231.22L526.072 218.786C525.976 218.474 526.152 218.137 526.465 218.041C526.777 217.946 527.114 218.122 527.21 218.434L531.047 230.868C531.143 231.18 531.375 231.426 531.682 231.542C531.984 231.658 532.316 231.628 532.588 231.467C535.126 229.951 539.699 226.935 541.809 223.787C544.77 219.371 549.74 203.221 545.913 191.981C543.647 185.318 534.205 175.1 522.899 170.211C518.241 168.196 511.413 166.373 505.349 169.123C498.964 172.024 494.517 176.677 492.503 182.589C489.955 190.052 491.264 199.016 496.29 208.508C496.446 208.8 496.335 209.158 496.043 209.314C495.751 209.47 495.388 209.359 495.237 209.067C490.055 199.278 488.716 189.991 491.375 182.206C493.5 175.977 498.163 171.077 504.856 168.04C509.972 165.719 516.378 166.091 523.373 169.118C533.731 173.6 544.347 183.687 547.041 191.598C550.989 203.206 545.853 219.884 542.796 224.447C540.555 227.791 535.821 230.918 533.198 232.489C532.845 232.701 532.452 232.806 532.055 232.806L532.06 232.811Z" fill="black"/>
<path d="M557.843 202.657C554.384 202.657 550.969 202.138 547.696 201.111C547.384 201.01 547.208 200.678 547.308 200.365C547.404 200.053 547.747 199.877 548.054 199.978C551.211 200.97 554.505 201.468 557.843 201.468C575.842 201.468 590.481 186.829 590.481 168.831C590.481 150.833 575.842 136.193 557.843 136.193C539.845 136.193 525.206 150.833 525.206 168.831C525.206 169.329 525.216 169.828 525.241 170.321C525.256 170.649 525 170.926 524.672 170.941C524.34 170.961 524.068 170.699 524.053 170.372C524.033 169.858 524.018 169.345 524.018 168.826C524.018 150.173 539.191 135 557.843 135C576.496 135 591.669 150.173 591.669 168.826C591.669 187.479 576.496 202.652 557.843 202.652V202.657Z" fill="black"/>
<path d="M358.797 475.847C358.671 475.847 358.55 475.807 358.45 475.731C358.324 475.64 358.238 475.499 358.213 475.343L356.773 466.223C356.722 465.896 356.944 465.594 357.266 465.544L466.141 448.331C466.298 448.306 466.454 448.346 466.585 448.437C466.711 448.527 466.796 448.668 466.821 448.825L468.262 457.944C468.312 458.272 468.09 458.574 467.768 458.624L358.893 475.837C358.863 475.842 358.832 475.842 358.802 475.842L358.797 475.847ZM358.037 466.626L359.291 474.568L466.988 457.542L465.734 449.6L358.037 466.631V466.626Z" fill="black"/>
<path d="M357.417 466.717C357.216 466.717 357.029 466.616 356.914 466.445L303.584 383.53C303.478 383.358 303.458 383.147 303.544 382.966C303.624 382.784 303.795 382.653 303.992 382.623L313.112 381.183C313.348 381.148 313.58 381.253 313.706 381.45L367.036 464.365C367.141 464.536 367.162 464.748 367.076 464.929C366.995 465.11 366.824 465.241 366.628 465.272L357.508 466.712C357.478 466.717 357.447 466.717 357.417 466.717ZM305.08 383.655L357.704 465.473L365.54 464.234L312.915 382.417L305.08 383.655Z" fill="black"/>
<path d="M580.097 526.341H440.055C439.728 526.341 439.461 526.075 439.461 525.747C439.461 525.42 439.728 525.153 440.055 525.153H580.097C583.103 525.153 586.009 524.025 588.275 521.98C609.94 502.401 610.277 478.158 606.742 461.268C602.899 442.892 593.779 428.978 593.684 428.842C593.502 428.565 593.578 428.198 593.85 428.016C594.122 427.835 594.49 427.911 594.676 428.182C594.767 428.323 603.997 442.399 607.895 460.986C611.501 478.194 611.163 502.894 589.071 522.862C586.588 525.108 583.401 526.341 580.097 526.341Z" fill="black"/>
<path d="M467.868 659.525C467.712 659.525 467.555 659.464 467.44 659.343C463.033 654.791 359.496 547.663 353.569 536.227C345.094 519.875 347.395 502.205 360.418 483.698C363.797 478.899 371.738 474.512 384.026 470.66C384.343 470.564 384.675 470.736 384.771 471.048C384.867 471.36 384.695 471.697 384.378 471.793C372.348 475.565 364.612 479.8 361.39 484.378C348.644 502.492 346.368 519.749 354.621 535.673C360.287 546.601 460.666 650.611 467.888 658.089L513.694 616.307L425.546 509.089C425.335 508.837 425.375 508.459 425.627 508.253C425.879 508.041 426.256 508.081 426.463 508.333L514.968 615.99C515.169 616.236 515.144 616.594 514.908 616.806L468.26 659.359C468.145 659.464 468.004 659.515 467.858 659.515L467.868 659.525Z" fill="black"/>
<path d="M467.53 457.753C467.228 457.753 466.971 457.526 466.941 457.219C466.906 456.892 467.148 456.6 467.475 456.565C472.254 456.076 476.665 455.653 480.568 455.275C489.305 454.429 496.854 453.699 497.635 453.271C500.561 451.614 502.711 438.36 503.295 433.395C503.335 433.067 503.627 432.836 503.955 432.871C504.282 432.911 504.514 433.203 504.478 433.531C504.257 435.419 502.202 452.052 498.224 454.308C497.292 454.837 492.176 455.351 480.684 456.459C476.786 456.837 472.375 457.265 467.596 457.748C467.576 457.748 467.556 457.748 467.535 457.748L467.53 457.753Z" fill="black"/>
<path d="M437.074 656.971C437.074 656.971 437.059 656.971 437.049 656.971C436.882 656.966 436.721 656.886 436.616 656.755C432.637 651.941 339.041 538.674 331.024 523.899C322.886 508.907 335.168 483.572 335.697 482.504C339.257 475.988 346.383 470.161 356.888 465.156C357.185 465.015 357.542 465.141 357.678 465.438C357.819 465.735 357.694 466.087 357.396 466.233C347.123 471.123 340.174 476.784 336.749 483.053C336.634 483.29 324.225 508.882 332.071 523.335C339.766 537.511 430.099 647.001 437.114 655.491L450.887 641.315C451.119 641.078 451.496 641.073 451.728 641.305C451.965 641.532 451.97 641.909 451.738 642.146L437.502 656.795C437.391 656.911 437.235 656.977 437.074 656.977V656.971Z" fill="black"/>
<path d="M365.026 462.93C364.785 462.93 364.563 462.784 364.472 462.547C364.356 462.24 364.508 461.898 364.815 461.777C367.046 460.921 369.433 460.075 371.9 459.274C372.222 459.173 372.55 459.344 372.65 459.657C372.751 459.969 372.58 460.306 372.268 460.407C369.82 461.208 367.454 462.039 365.238 462.89C365.167 462.915 365.097 462.93 365.026 462.93Z" fill="black"/>
<path d="M376.431 459.077C376.174 459.077 375.937 458.911 375.862 458.649C375.771 458.332 375.947 458.005 376.264 457.909C381.013 456.494 386.205 455.155 391.699 453.926C392.022 453.855 392.339 454.057 392.409 454.379C392.48 454.701 392.279 455.019 391.956 455.089C386.487 456.313 381.321 457.642 376.597 459.052C376.541 459.067 376.481 459.077 376.426 459.077H376.431Z" fill="black"/>
<path d="M405.112 452.445C404.83 452.445 404.578 452.244 404.528 451.957C404.467 451.635 404.684 451.322 405.011 451.267C450.47 443.119 501.654 443.023 502.163 443.023C502.49 443.023 502.757 443.29 502.757 443.617C502.757 443.945 502.49 444.212 502.163 444.212C501.654 444.212 450.576 444.307 405.218 452.435C405.182 452.44 405.147 452.445 405.112 452.445Z" fill="black"/>
<path d="M464.67 711.198C464.478 711.198 464.322 711.167 464.196 711.102C463.955 710.976 463.637 710.709 463.481 710.16C462.036 705.019 479.102 676.062 481.862 671.429L471.962 655.048C471.79 654.766 471.881 654.398 472.163 654.232C472.445 654.066 472.813 654.151 472.979 654.433L483.066 671.122C483.181 671.309 483.181 671.545 483.066 671.737C475.099 685.072 463.612 706.222 464.624 709.843C464.645 709.924 464.685 710.024 464.745 710.054C467.409 711.082 494.109 689.997 517.994 669.571L510.944 654.021C510.833 653.774 510.899 653.482 511.11 653.31C511.322 653.139 511.624 653.134 511.841 653.3L524.455 662.753L531.44 654.72C530.478 652.344 523.786 637.201 504.866 625.407C504.589 625.231 504.503 624.868 504.675 624.586C504.851 624.304 505.218 624.223 505.495 624.395C526.359 637.397 532.624 654.464 532.684 654.635C532.754 654.836 532.714 655.063 532.573 655.224L524.989 663.946C524.788 664.183 524.435 664.218 524.183 664.032L512.984 655.637L519.258 669.481C519.369 669.722 519.304 670.004 519.102 670.181C510.919 677.185 470.859 711.198 464.655 711.203L464.67 711.198Z" fill="black"/>
<path d="M433.714 709.621C433.462 709.621 433.271 709.571 433.114 709.49C432.873 709.365 432.555 709.098 432.399 708.549C430.954 703.412 447.98 674.522 450.77 669.838L439.737 653.462C439.555 653.19 439.626 652.817 439.898 652.636C440.17 652.454 440.537 652.525 440.724 652.797L451.969 669.486C452.1 669.677 452.105 669.924 451.984 670.125C444.017 683.46 432.525 704.611 433.543 708.232C433.563 708.312 433.603 708.413 433.663 708.443C434.917 708.921 442.748 704.842 481.373 672.316C481.625 672.104 481.998 672.134 482.214 672.386C482.426 672.638 482.395 673.016 482.144 673.227C445.568 704.022 436.393 709.626 433.709 709.626L433.714 709.621Z" fill="black"/>
<path d="M572.771 550.282H460.098C459.771 550.282 459.504 550.015 459.504 549.688C459.504 549.36 459.771 549.093 460.098 549.093H572.771C579.04 549.093 584.147 543.992 584.147 537.717C584.147 531.443 579.045 526.341 572.771 526.341H440.524C440.197 526.341 439.93 526.075 439.93 525.747C439.93 525.42 440.197 525.153 440.524 525.153H572.771C579.7 525.153 585.335 530.788 585.335 537.717C585.335 544.647 579.7 550.282 572.771 550.282Z" fill="black"/>
<path d="M566.298 764.804H551.598C551.271 764.804 551.004 764.537 551.004 764.21V549.688C551.004 549.36 551.271 549.093 551.598 549.093H566.298C566.625 549.093 566.892 549.36 566.892 549.688V764.21C566.892 764.537 566.625 764.804 566.298 764.804ZM552.192 763.616H565.704V550.282H552.192V763.616Z" fill="black"/>
<path d="M516.878 764.804H502.178C501.851 764.804 501.584 764.537 501.584 764.21V683.959C501.584 683.631 501.851 683.364 502.178 683.364C502.506 683.364 502.772 683.631 502.772 683.959V763.616H516.284V671.304C516.284 670.976 516.551 670.709 516.878 670.709C517.205 670.709 517.472 670.976 517.472 671.304V764.21C517.472 764.537 517.205 764.804 516.878 764.804Z" fill="black"/>
<path d="M516.877 666.232C516.55 666.232 516.283 665.965 516.283 665.638V657.802C516.283 657.475 516.55 657.208 516.877 657.208C517.205 657.208 517.472 657.475 517.472 657.802V665.638C517.472 665.965 517.205 666.232 516.877 666.232Z" fill="black"/>
<path d="M516.878 634.018C516.551 634.018 516.284 633.751 516.284 633.424V550.282H502.772V600.53C502.772 600.857 502.506 601.124 502.178 601.124C501.851 601.124 501.584 600.857 501.584 600.53V549.683C501.584 549.355 501.851 549.088 502.178 549.088H516.878C517.205 549.088 517.472 549.355 517.472 549.683V633.424C517.472 633.751 517.205 634.018 516.878 634.018Z" fill="black"/>
<path d="M467.449 559.266C467.122 559.266 466.855 558.999 466.855 558.672V550.277H460.102C459.775 550.277 459.508 550.01 459.508 549.683C459.508 549.355 459.775 549.088 460.102 549.088H467.454C467.782 549.088 468.049 549.355 468.049 549.683V558.672C468.049 558.999 467.782 559.266 467.454 559.266H467.449Z" fill="black"/>
<path d="M467.45 764.804H452.75C452.423 764.804 452.156 764.537 452.156 764.21V696.518C452.156 696.191 452.423 695.924 452.75 695.924C453.078 695.924 453.345 696.191 453.345 696.518V763.616H466.856V709.707C466.856 709.38 467.123 709.113 467.45 709.113C467.777 709.113 468.044 709.38 468.044 709.707V764.21C468.044 764.537 467.777 764.804 467.45 764.804Z" fill="black"/>
<path d="M467.45 699.217C467.123 699.217 466.856 698.95 466.856 698.623V684.704C466.856 684.377 467.123 684.11 467.45 684.11C467.777 684.11 468.044 684.377 468.044 684.704V698.623C468.044 698.95 467.777 699.217 467.45 699.217Z" fill="black"/>
<path d="M551.599 732.202H516.872C516.544 732.202 516.277 731.935 516.277 731.608C516.277 731.281 516.544 731.014 516.872 731.014H551V712.814H516.872C516.544 712.814 516.277 712.547 516.277 712.22C516.277 711.893 516.544 711.626 516.872 711.626H551.599C551.926 711.626 552.193 711.893 552.193 712.22V731.608C552.193 731.935 551.926 732.202 551.599 732.202Z" fill="black"/>
<path d="M502.179 732.202H467.452C467.124 732.202 466.857 731.935 466.857 731.608V712.22C466.857 711.893 467.124 711.626 467.452 711.626H502.179C502.506 711.626 502.773 711.893 502.773 712.22C502.773 712.547 502.506 712.814 502.179 712.814H468.051V731.014H502.179C502.506 731.014 502.773 731.281 502.773 731.608C502.773 731.935 502.506 732.202 502.179 732.202Z" fill="black"/>
<path d="M500.062 203.508C499.861 203.508 499.659 203.402 499.548 203.216C499.382 202.934 499.478 202.566 499.76 202.4C502.515 200.788 506.09 200.748 508.875 202.309C509.162 202.47 509.263 202.833 509.102 203.12C508.94 203.407 508.578 203.508 508.291 203.347C505.869 201.992 502.756 202.022 500.359 203.427C500.264 203.483 500.163 203.508 500.057 203.508H500.062Z" fill="black"/>
<path d="M501.008 212.265C501.769 214.103 503.446 215.151 504.755 214.607C506.064 214.063 506.508 212.134 505.747 210.301C504.987 208.463 503.31 207.416 502.001 207.959C500.691 208.503 500.248 210.432 501.008 212.265Z" fill="black"/>
<path d="M495.961 226.094C495.554 226.094 495.151 226.023 494.773 225.887C493.59 225.449 492.723 224.301 492.673 223.097C492.618 221.884 493.298 220.866 493.897 219.97C494.033 219.768 494.164 219.572 494.29 219.371C494.914 218.369 495.211 216.883 495.493 215.453C495.614 214.838 495.735 214.244 495.876 213.72C495.962 213.403 496.289 213.212 496.601 213.297C496.918 213.383 497.11 213.705 497.024 214.023C496.888 214.531 496.777 215.1 496.661 215.689C496.369 217.155 496.037 218.817 495.297 220.005C495.166 220.217 495.025 220.428 494.884 220.64C494.335 221.456 493.821 222.231 493.857 223.052C493.887 223.782 494.446 224.507 495.181 224.779C495.901 225.046 496.808 224.905 497.487 224.422C497.754 224.23 498.127 224.296 498.318 224.563C498.51 224.83 498.444 225.202 498.177 225.394C497.518 225.862 496.732 226.104 495.961 226.104V226.094Z" fill="black"/>
<path d="M523.394 212.718C523.167 212.718 522.951 212.587 522.85 212.366C522.271 211.067 521.999 209.898 522.004 208.8C522.014 207.411 522.523 206.116 523.394 205.255C524.416 204.243 525.937 203.88 527.186 204.344C527.694 204.535 528.183 204.862 528.712 205.376C530.555 207.149 531.416 209.747 530.917 211.993C530.847 212.31 530.535 212.522 530.207 212.446C529.885 212.376 529.684 212.059 529.754 211.736C530.167 209.888 529.432 207.728 527.886 206.237C527.473 205.844 527.12 205.598 526.768 205.467C525.962 205.165 524.92 205.432 524.23 206.111C523.58 206.756 523.203 207.743 523.197 208.821C523.192 209.747 523.434 210.754 523.938 211.893C524.074 212.195 523.938 212.547 523.636 212.678C523.555 212.713 523.474 212.728 523.394 212.728V212.718Z" fill="black"/>
<path d="M526.446 215.428C526.295 215.428 526.144 215.367 526.023 215.251C525.791 215.02 525.791 214.642 526.023 214.41C527.05 213.378 527.499 211.893 527.166 210.618C526.819 209.294 525.54 208.247 524.291 208.327C523.837 208.342 523.46 208.493 523.273 208.735C523.072 208.997 522.699 209.047 522.437 208.846C522.176 208.644 522.125 208.272 522.327 208.01C522.735 207.476 523.435 207.159 524.255 207.134C526.094 207.114 527.826 208.448 528.319 210.311C528.763 211.983 528.193 213.922 526.869 215.246C526.753 215.362 526.602 215.423 526.446 215.423V215.428Z" fill="black"/>
<path d="M505.323 228.143C505.066 228.143 504.83 227.977 504.754 227.72C504.658 227.408 504.84 227.076 505.152 226.98C508.672 225.917 511.558 223.087 512.686 219.587C512.786 219.275 513.124 219.104 513.436 219.205C513.748 219.305 513.919 219.643 513.819 219.955C512.575 223.822 509.387 226.95 505.494 228.123C505.434 228.138 505.379 228.148 505.323 228.148V228.143Z" fill="black"/>
<path d="M389.168 199.555H112V236.211H389.168V199.555Z" fill="#20E086"/>
<path d="M114.752 162V139.344H122.272C127.936 139.344 134.176 143.12 134.176 150.672C134.176 158.224 127.936 162 122.272 162H114.752ZM117.056 141.456V159.888H121.536C128.448 159.888 131.68 155.344 131.68 150.672C131.68 146 128.448 141.456 121.536 141.456H117.056ZM160.871 150.672C160.871 157.552 155.815 162.576 149.063 162.576C142.311 162.576 137.255 157.552 137.255 150.672C137.255 143.792 142.311 138.768 149.063 138.768C155.815 138.768 160.871 143.792 160.871 150.672ZM158.375 150.672C158.375 145.456 154.887 140.88 149.063 140.88C143.239 140.88 139.751 145.456 139.751 150.672C139.751 155.888 143.239 160.464 149.063 160.464C154.887 160.464 158.375 155.888 158.375 150.672ZM168.358 139.344L181.862 158.544H181.926V139.344H184.23V162H181.35L167.846 142.608H167.782V162H165.478V139.344H168.358ZM193.841 139.344L191.249 146.864H189.105L191.249 139.344H193.841ZM205.961 141.456V162H203.657V141.456H196.073V139.344H213.545V141.456H205.961Z" fill="#020D3A"/>
<path d="M116.214 220.95V181.302H130.998C137.942 181.302 145.502 182.758 145.502 191.382C145.502 195.806 142.758 198.83 138.67 200.118V200.23C143.878 200.902 147.35 204.766 147.35 209.918C147.35 218.206 139.51 220.95 132.454 220.95H116.214ZM124.95 188.694V197.15H131.278C133.966 197.15 136.766 196.03 136.766 192.838C136.766 189.534 133.63 188.694 130.886 188.694H124.95ZM124.95 204.542V213.558H132.79C135.534 213.558 138.614 212.382 138.614 208.91C138.614 205.158 134.414 204.542 131.558 204.542H124.95ZM152.862 220.95V181.302H179.798V189.366H161.598V196.758H178.79V204.822H161.598V212.886H180.806V220.95H152.862ZM200.282 220.95L217.418 181.302H224.642L241.89 220.95H232.034L228.618 212.55H213.218L209.914 220.95H200.282ZM225.65 205.158L220.778 192.838L215.962 205.158H225.65ZM246.214 220.95V181.302H254.95V212.886H271.134V220.95H246.214ZM273.828 201.126C273.828 188.414 282.844 180.294 295.22 180.294C307.596 180.294 316.612 188.414 316.612 201.126C316.612 213.838 307.596 221.958 295.22 221.958C282.844 221.958 273.828 213.838 273.828 201.126ZM282.9 201.126C282.9 208.518 287.772 213.894 295.22 213.894C302.668 213.894 307.54 208.518 307.54 201.126C307.54 193.734 302.668 188.358 295.22 188.358C287.772 188.358 282.9 193.734 282.9 201.126ZM322.55 220.95V181.302H334.422L351.278 208.854H351.39V181.302H360.126V220.95H348.702L331.398 192.726H331.286V220.95H322.55ZM368.55 220.95V181.302H395.486V189.366H377.286V196.758H394.478V204.822H377.286V212.886H396.494V220.95H368.55Z" fill="#020D3A"/>
<path d="M246.107 863.671V879.751H242.651V845.767H263.147V848.935H246.107V860.503H261.947V863.671H246.107ZM272.779 845.767V879.751H269.323V845.767H272.779ZM286.299 845.767L306.555 874.567H306.651V845.767H310.107V879.751H305.787L285.531 850.663H285.435V879.751H281.979V845.767H286.299ZM318.858 879.751V845.767H330.138C338.634 845.767 347.994 851.431 347.994 862.759C347.994 874.087 338.634 879.751 330.138 879.751H318.858ZM322.314 848.935V876.583H329.034C339.402 876.583 344.25 869.767 344.25 862.759C344.25 855.751 339.402 848.935 329.034 848.935H322.314ZM368.544 879.751V840.103H383.328C390.272 840.103 397.832 841.559 397.832 850.183C397.832 854.607 395.088 857.631 391 858.919V859.031C396.208 859.703 399.68 863.567 399.68 868.719C399.68 877.007 391.84 879.751 384.784 879.751H368.544ZM377.28 847.495V855.951H383.608C386.296 855.951 389.096 854.831 389.096 851.639C389.096 848.335 385.96 847.495 383.216 847.495H377.28ZM377.28 863.343V872.359H385.12C387.864 872.359 390.944 871.183 390.944 867.711C390.944 863.959 386.744 863.343 383.888 863.343H377.28ZM404.856 879.751V840.103H420.2C428.32 840.103 435.152 842.903 435.152 852.143C435.152 857.687 432.184 861.999 426.584 863.007L436.664 879.751H426.192L417.904 863.903H413.592V879.751H404.856ZM413.592 847.495V856.511H418.744C421.936 856.511 426.08 856.399 426.08 852.087C426.08 848.111 422.496 847.495 419.304 847.495H413.592ZM437.081 879.751L454.217 840.103H461.441L478.689 879.751H468.833L465.417 871.351H450.017L446.713 879.751H437.081ZM462.449 863.959L457.577 851.639L452.761 863.959H462.449ZM482.677 879.751V840.103H494.549L511.405 867.655H511.517V840.103H520.253V879.751H508.829L491.525 851.527H491.413V879.751H482.677ZM528.341 879.751V840.103H541.445C554.213 840.103 564.909 845.535 564.909 860.039C564.909 872.863 554.437 879.751 542.621 879.751H528.341ZM537.077 848.167V871.687H541.613C549.733 871.687 555.837 868.607 555.837 859.591C555.837 851.807 549.621 848.167 542.229 848.167H537.077ZM596.425 843.239L590.433 849.791C589.033 847.999 586.233 847.159 584.105 847.159C581.641 847.159 578.225 848.279 578.225 851.247C578.225 858.471 596.481 853.823 596.481 867.711C596.481 876.559 589.369 880.759 581.193 880.759C576.097 880.759 571.617 879.247 567.865 875.775L574.081 868.943C575.873 871.295 578.785 872.695 581.697 872.695C584.553 872.695 587.745 871.351 587.745 868.551C587.745 861.271 569.153 865.191 569.153 851.975C569.153 843.519 576.489 839.095 584.273 839.095C588.753 839.095 593.065 840.271 596.425 843.239Z" fill="#020D3A"/>
</g>
<defs>
<clipPath id="clip0_637_10850">
<rect width="836" height="1018" fill="white"/>
</clipPath>
</defs>
</svg>
