<svg width="192" height="50" viewBox="0 0 192 50" fill="none" xmlns="http://www.w3.org/2000/svg">
<g clip-path="url(#clip0_115_2757)">
<path d="M25.4131 50C39.4484 50 50.8262 38.8071 50.8262 25C50.8262 11.1929 39.4484 0 25.4131 0C11.3778 0 0 11.1929 0 25C0 38.8071 11.3778 50 25.4131 50Z" fill="#20E086"/>
<path d="M22.5808 40.091C20.7085 40.091 19.1758 39.652 18.0052 38.7772C17.019 38.0392 16.4531 37.1103 16.1297 36.2928C15.8581 35.7679 15.677 35.1667 15.6026 34.5019C15.5606 34.1233 15.5671 33.7416 15.5962 33.3631L16.8864 16.3157H13.3553L12.2591 33.2294C11.9066 37.4984 14.542 41.0358 18.5258 41.6465C18.9139 41.7038 19.3051 41.7324 19.6899 41.7324C20.66 41.7324 21.6043 41.5511 22.5032 41.1885L22.6067 41.1503C23.3213 40.8481 23.9874 40.4409 24.5792 39.9415C23.8743 40.0433 23.2114 40.091 22.584 40.091H22.5808ZM39.6511 22.9896C39.5412 21.8762 39.1629 20.7788 38.5549 19.8181C38.348 19.4872 38.1152 19.1755 37.8662 18.8924C37.6722 18.6697 37.4523 18.4502 37.1871 18.2148L36.9058 17.9667L37.1742 17.6995C38.3027 16.5638 38.9624 15.091 39.0335 13.5482C39.1079 11.929 38.5355 10.4117 37.4264 9.26648C36.314 8.12447 34.8007 7.4978 33.1613 7.4978C29.753 7.4978 26.8557 10.2272 26.7037 13.5832C26.6423 14.9383 27.0303 16.2235 27.829 17.2955L28.0424 17.5786L27.7611 17.7949C25.9761 19.15 24.8476 21.3036 24.6697 23.6926L24.5048 25.4676H20.8282L20.5857 28.3433H24.2364L23.6608 34.5432C23.6382 34.7977 23.5962 35.049 23.5412 35.294L23.4636 35.5484C22.9365 37.2789 21.4135 38.44 19.6802 38.44C19.5444 38.44 19.4054 38.4337 19.2663 38.4178C20.812 39.2258 22.9689 39.3435 25.7045 38.7613C27.0206 37.0022 27.1596 34.8422 27.3052 32.5519C27.331 32.1606 27.3537 31.7662 27.386 31.3781L27.635 28.3433H31.635L31.8775 25.4676H27.871L28.0262 23.6004C28.4175 21.2146 30.0182 19.6527 32.1427 19.6177C32.2882 19.6272 32.4337 19.6368 32.5792 19.6368H32.6148C34.4321 19.8276 35.8258 21.2082 36.0909 23.0723L36.1297 23.3459H39.6867L39.6544 22.9928L39.6511 22.9896ZM32.7603 16.3125C32.0133 16.3125 31.3181 16.0231 30.8136 15.5014C30.3027 14.9765 30.0408 14.283 30.0731 13.5482C30.141 12.0404 31.4442 10.8125 32.9802 10.8125C33.7271 10.8125 34.4224 11.102 34.9268 11.6205C35.4377 12.1453 35.6997 12.842 35.6673 13.5768C35.5994 15.0846 34.293 16.3125 32.7603 16.3125Z" fill="#020D3A"/>
<path d="M69.7422 34.3364L70.764 22.2897H73.8133L72.7947 34.3364" fill="white"/>
<path d="M72.7623 16.392C73.8811 16.392 74.6798 17.1714 74.5925 18.1989C74.5052 19.2264 73.5739 20.0057 72.4583 20.0057C71.3427 20.0057 70.599 19.1532 70.6798 18.1989C70.7607 17.2446 71.6467 16.392 72.7655 16.392H72.7623Z" fill="#20E086"/>
<path d="M75.9216 22.2897H78.8189L78.654 24.2238H78.7058C79.3654 23.0182 80.5974 21.9907 82.6314 21.9907C85.9103 21.9907 86.8868 24.2747 86.6799 26.7337L86.0364 34.3396H82.9871L83.5045 28.2415C83.6176 26.9118 83.7017 24.701 81.5675 24.701C79.5594 24.701 78.6476 26.1579 78.5117 27.7644L77.9556 34.3396H74.9062L75.9248 22.2929L75.9216 22.2897Z" fill="white"/>
<path d="M98.0589 25L100.727 22.4393H96.8139L91.8438 27.284L92.8042 15.9276H89.7517L88.1963 34.3364H91.2456L91.7662 28.1843H91.8147L96.1542 34.3364H100.193L95.1842 27.7612L98.0589 24.9968V25Z" fill="white"/>
<path d="M128.846 34.3364H125.949L126.114 32.4024H126.062C125.402 33.608 124.17 34.6355 122.136 34.6355C118.858 34.6355 117.881 32.3515 118.088 29.8925L118.731 22.2866H121.781L121.263 28.3847C121.15 29.7144 121.066 31.9252 123.2 31.9252C125.208 31.9252 126.12 30.4683 126.256 28.8618L126.812 22.2866H129.862L128.843 34.3333L128.846 34.3364Z" fill="white"/>
<path d="M134.03 29.3676C134.082 31.149 135.366 32.2274 137.067 32.2274C138.593 32.2274 139.644 31.5244 140.485 30.5955L142.532 32.2274C140.96 33.9579 139.101 34.6355 137.167 34.6355C133.481 34.6355 130.748 32.1002 131.068 28.3115C131.389 24.5229 134.551 21.9875 138.237 21.9875C141.642 21.9875 143.757 24.3479 143.402 28.5374L143.33 29.3644H134.027L134.03 29.3676ZM140.475 27.1091C140.598 25.3531 139.521 24.2493 137.617 24.2493C135.812 24.2493 134.596 25.3786 134.221 27.1091H140.475Z" fill="white"/>
<path d="M145.798 22.2897H148.695L148.53 24.2238H148.582C149.241 23.0182 150.473 21.9907 152.507 21.9907C155.786 21.9907 156.763 24.2747 156.556 26.7337L155.912 34.3396H152.863L153.38 28.2415C153.494 26.9118 153.578 24.701 151.444 24.701C149.435 24.701 148.524 26.1579 148.388 27.7644L147.832 34.3396H144.782L145.801 22.2929L145.798 22.2897Z" fill="white"/>
<path d="M167.317 25.9034C166.667 25.175 165.92 24.6978 165.105 24.6978C162.868 24.6978 161.374 26.4283 161.215 28.3115C161.057 30.1947 162.257 31.9252 164.494 31.9252C165.435 31.9252 166.334 31.5244 166.955 30.7959L168.805 32.9559C167.456 34.1869 165.332 34.6386 164.265 34.6386C160.578 34.6386 157.846 32.1033 158.166 28.3147C158.486 24.526 161.649 21.9907 165.335 21.9907C166.887 21.9907 168.543 22.5442 169.603 23.823L167.317 25.9066V25.9034Z" fill="white"/>
<path d="M172.591 29.3676C172.643 31.149 173.926 32.2274 175.627 32.2274C177.154 32.2274 178.205 31.5244 179.045 30.5955L181.092 32.2274C179.521 33.9579 177.661 34.6355 175.728 34.6355C172.041 34.6355 169.309 32.1002 169.629 28.3115C169.949 24.5229 173.112 21.9875 176.798 21.9875C180.203 21.9875 182.318 24.3479 181.962 28.5374L181.891 29.3644H172.588L172.591 29.3676ZM179.036 27.1091C179.159 25.3531 178.082 24.2493 176.177 24.2493C174.373 24.2493 173.157 25.3786 172.782 27.1091H179.036Z" fill="white"/>
<path d="M184.187 22.2897H187.236L187.075 24.1984H187.126C187.906 22.8178 189.322 21.9907 190.923 21.9907C191.304 21.9907 191.653 22.0671 191.999 22.1657L191.754 25.0764C191.256 24.9523 190.78 24.8505 190.298 24.8505C187.427 24.8505 186.819 27.2363 186.761 27.8884L186.214 34.3396H183.165L184.184 22.2929L184.187 22.2897Z" fill="white"/>
<path d="M100.727 22.4393L98.0595 25H97.167L97.3836 22.4393H100.727Z" fill="white"/>
<path d="M108.996 22.4393L108.782 25H101.199L101.652 22.4393H108.996Z" fill="white"/>
<path d="M117.865 34.346C117.098 34.5019 116.306 34.4955 115.546 34.3364C114.935 34.2092 114.343 33.9865 113.803 33.6684H113.8C112.979 33.1881 112.267 32.4978 111.773 31.6134C111.326 30.8055 111.148 29.8893 111.148 28.9732L111.785 21.4468V21.4372C111.779 19.9739 110.712 18.7874 109.231 18.7874C107.75 18.7874 106.638 19.8785 106.537 21.2495L105.47 34.3364H102.421L103.627 21.2495C103.734 18.2975 106.204 15.9308 109.228 15.9308C110.308 15.9308 111.32 16.2362 112.18 16.7579C112.668 17.0569 113.105 17.4291 113.477 17.8521C113.667 18.0716 113.839 18.3007 113.991 18.5456C114.46 19.29 114.76 20.1521 114.822 21.0746C114.828 21.1986 114.835 21.3195 114.835 21.4468L114.198 28.9763C114.198 30.4746 115.352 31.5212 116.617 31.6103C116.781 32.6982 117.199 33.6207 117.858 34.3396L117.868 34.3492L117.865 34.346Z" fill="white"/>
<path d="M60.268 31.4735L61.6003 15.9276H58.399L56.8242 34.3333H67.6795L67.9188 31.4735H60.268Z" fill="white"/>
</g>
<defs>
<clipPath id="clip0_115_2757">
<rect width="192" height="50" fill="white"/>
</clipPath>
</defs>
</svg>
