<svg width="25" height="25" viewBox="0 0 25 25" fill="none" xmlns="http://www.w3.org/2000/svg">
<g clip-path="url(#clip0_1162_2113)">
<path d="M15.0986 17.4619C14.8316 17.4619 14.6152 17.6783 14.6152 17.9453V19.8786C14.6143 20.6791 13.9656 21.3278 13.1653 21.3287H6.3986C5.59811 21.3278 4.9494 20.6791 4.94851 19.8786V5.37858C4.9494 4.57824 5.59811 3.92953 6.3986 3.92864H13.1653C13.9657 3.92953 14.6145 4.57824 14.6152 5.37858V7.31189C14.6152 7.57887 14.8317 7.79525 15.0986 7.79525C15.3655 7.79525 15.5819 7.57887 15.5819 7.31189V5.37858C15.5806 4.04443 14.4994 2.96324 13.1653 2.96191H6.3986C5.0646 2.96354 3.98356 4.04458 3.98193 5.37858V19.8786C3.98356 21.2126 5.0646 22.2937 6.3986 22.2953H13.1653C14.4994 22.2938 15.5806 21.2126 15.5819 19.8786V17.9452C15.5819 17.6783 15.3655 17.4619 15.0986 17.4619Z" fill="#DC2323"/>
<path d="M21.2401 12.2867L18.34 9.38662C18.148 9.20121 17.8421 9.20652 17.6566 9.39857C17.4757 9.5859 17.4757 9.88282 17.6566 10.0701L19.7314 12.1451H9.29816C9.03133 12.1451 8.81494 12.3614 8.81494 12.6284C8.81494 12.8954 9.03133 13.1118 9.29816 13.1118H19.7314L17.6565 15.1867C17.4644 15.3721 17.4591 15.6782 17.6447 15.8701C17.8301 16.0621 18.136 16.0674 18.3281 15.882C18.3321 15.878 18.336 15.8742 18.34 15.8701L21.2399 12.97C21.4287 12.7815 21.4289 12.4758 21.2402 12.287C21.2402 12.2868 21.2401 12.2868 21.2401 12.2867Z" fill="#DC2323"/>
</g>
<defs>
<clipPath id="clip0_1162_2113">
<rect width="19.3333" height="19.3333" fill="white" transform="translate(3 3)"/>
</clipPath>
</defs>
</svg>
