<svg width="25" height="26" viewBox="0 0 25 26" fill="none" xmlns="http://www.w3.org/2000/svg">
<path d="M21.959 16.8781C21.8416 17.2292 21.5152 17.4516 21.163 17.4516C21.0758 17.4516 20.9864 17.4382 20.8981 17.408L18.5269 16.6177C18.0875 16.4712 17.8505 15.9961 17.9959 15.5567C18.1434 15.1185 18.613 14.8793 19.0568 15.0269L21.428 15.8172C21.8673 15.9637 22.1043 16.4388 21.959 16.8781ZM16.215 18.6769C16.007 18.2632 15.5039 18.0955 15.0903 18.3024C14.6755 18.5103 14.5078 19.0134 14.7147 19.427L15.8326 21.6628C15.9802 21.9568 16.2753 22.1268 16.5839 22.1268C16.7091 22.1268 16.8377 22.0988 16.9573 22.0385C17.372 21.8305 17.5397 21.3275 17.3329 20.9138L16.215 18.6769ZM9.31158 3.69895C9.16401 3.26073 8.69335 3.02037 8.25064 3.16906C7.81129 3.3155 7.57428 3.79062 7.71961 4.22996L8.51001 6.60219C8.6274 6.95322 8.95384 7.17569 9.30599 7.17569C9.39319 7.17569 9.48263 7.16227 9.57095 7.13209C10.0103 6.98564 10.2473 6.51052 10.102 6.07118L9.31158 3.69895ZM6.44962 8.91182L4.21371 7.7939C3.80006 7.58708 3.2981 7.75589 3.08904 8.1684C2.8811 8.58315 3.04992 9.08622 3.46468 9.29303L5.70059 10.411C5.82021 10.4713 5.94877 10.4993 6.07398 10.4993C6.38142 10.4993 6.67768 10.3293 6.82525 10.0353C7.03319 9.62058 6.86438 9.11752 6.44962 8.9107V8.91182Z" fill="#020D3A"/>
<path d="M14.6246 10.5019C15.3981 11.2752 15.8253 12.3043 15.8253 13.3977C15.8253 14.4912 15.3981 15.5202 14.6246 16.2947L9.9904 20.9295C9.19181 21.7281 8.14305 22.1268 7.09319 22.1268C6.04333 22.1268 4.99566 21.7281 4.19707 20.9295C2.60098 19.3325 2.60098 16.7338 4.19707 15.1367L6.51418 12.8188C6.83428 12.4987 7.3532 12.4987 7.67329 12.8188C7.99338 13.1388 7.99338 13.6577 7.67329 13.9778L5.35617 16.2957C4.39808 17.2537 4.39808 18.8136 5.35617 19.7716C6.31426 20.7307 7.87539 20.7286 8.83348 19.7716L13.4677 15.1367C13.932 14.6725 14.1877 14.0553 14.1877 13.3988C14.1877 12.7423 13.932 12.1251 13.4677 11.6609C13.1476 11.3419 13.1476 10.8219 13.4677 10.5019C13.7878 10.1818 14.3067 10.1818 14.6268 10.5019H14.6246ZM20.8047 4.32237C19.2053 2.72533 16.6075 2.72642 15.0103 4.32237L10.376 8.95726C9.60258 9.73065 9.17543 10.7597 9.17543 11.8542C9.17543 12.9487 9.60258 13.9767 10.376 14.7501C10.5355 14.9095 10.7453 14.9904 10.9551 14.9904C11.1648 14.9904 11.3746 14.9106 11.5341 14.7501C11.8541 14.43 11.8541 13.9111 11.5341 13.5911C11.0698 13.1268 10.8141 12.5096 10.8141 11.8531C10.8141 11.1966 11.0698 10.5794 11.5341 10.1152L16.1683 5.48027C17.1253 4.52336 18.6864 4.52118 19.6456 5.48027C20.6037 6.43827 20.6037 7.99816 19.6456 8.95616L17.3285 11.2742C17.0084 11.5942 17.0084 12.1131 17.3285 12.4332C17.6486 12.7532 18.1675 12.7532 18.4876 12.4332L20.8047 10.1152C22.4008 8.51813 22.4008 5.9194 20.8047 4.32237Z" fill="#020D3A"/>
</svg>
