<svg width="20" height="26" viewBox="0 0 20 26" fill="none" xmlns="http://www.w3.org/2000/svg">
<path fill-rule="evenodd" clip-rule="evenodd" d="M11.2485 1.75C11.2485 1.05964 10.6889 0.5 9.99852 0.5C9.30816 0.5 8.74852 1.05964 8.74852 1.75V2.6875H8.05175C5.27041 2.6875 2.96841 4.85002 2.79479 7.62593L2.51854 12.0427C2.41321 13.7267 1.84785 15.3496 0.884025 16.7345C0.0131723 17.9858 0.788448 19.714 2.30211 19.8957L6.56102 20.4067V21.75C6.56102 23.6485 8.10004 25.1875 9.99852 25.1875C11.897 25.1875 13.436 23.6485 13.436 21.75V20.4067L17.6949 19.8957C19.2086 19.714 19.9839 17.9858 19.113 16.7345C18.1492 15.3496 17.5838 13.7267 17.4785 12.0427L17.2022 7.62593C17.0286 4.85002 14.7266 2.6875 11.9453 2.6875H11.2485V1.75ZM8.05175 4.5625C6.26049 4.5625 4.77795 5.95521 4.66613 7.74298L4.38988 12.1598C4.26314 14.1862 3.58282 16.139 2.42301 17.8055C2.36007 17.896 2.4161 18.0209 2.52551 18.034L7.19758 18.5947C9.0582 18.8179 10.9388 18.8179 12.7994 18.5947L17.4715 18.034C17.5809 18.0209 17.637 17.896 17.574 17.8055C16.4142 16.139 15.7339 14.1862 15.6071 12.1598L15.3309 7.74297C15.2191 5.95521 13.7365 4.5625 11.9453 4.5625H8.05175ZM9.99852 23.3125C9.13557 23.3125 8.43602 22.6129 8.43602 21.75V20.8125H11.561V21.75C11.561 22.6129 10.8615 23.3125 9.99852 23.3125Z" fill="#FFFFF6"/>
</svg>
