<svg width="620" height="640" viewBox="0 0 620 640" fill="none" xmlns="http://www.w3.org/2000/svg">
<path d="M278.386 278.86H80.4277C73.3137 278.86 67.5469 273.084 67.5469 265.959V122.871C67.5469 115.745 73.3137 109.969 80.4277 109.969H278.386C285.5 109.969 291.267 115.745 291.267 122.871V265.959C291.267 273.084 285.5 278.86 278.386 278.86Z" fill="#020D3A"/>
<path d="M272.839 269.98H74.8808C67.7668 269.98 62 264.203 62 257.078V113.99C62 106.864 67.7668 101.088 74.8808 101.088H272.839C279.953 101.088 285.72 106.864 285.72 113.99V257.078C285.72 264.203 279.953 269.98 272.839 269.98Z" fill="white" stroke="#020D3A" stroke-width="1.15538" stroke-miterlimit="10" stroke-linecap="round" stroke-linejoin="round"/>
<path d="M132.411 178.294L75.3379 196.868C65.0967 165.295 82.3463 131.385 113.868 121.126C120.172 119.074 125.784 118.185 132.411 118.185V178.294Z" fill="#20E086" stroke="#020D3A" stroke-width="1.15538" stroke-miterlimit="10" stroke-linecap="round" stroke-linejoin="round"/>
<path d="M132.421 178.296L167.695 226.925C140.881 246.438 103.352 240.484 83.8709 213.627C79.975 208.256 77.3945 203.186 75.3477 196.871L132.421 178.296Z" fill="white" stroke="#020D3A" stroke-width="1.15538" stroke-miterlimit="10" stroke-linecap="round" stroke-linejoin="round"/>
<path d="M132.408 178.293L189.482 159.718C197.674 184.976 189.131 211.312 167.682 226.921L132.408 178.293Z" fill="#020D3A" stroke="#020D3A" stroke-width="1.15538" stroke-miterlimit="10" stroke-linecap="round" stroke-linejoin="round"/>
<path d="M132.408 178.293V118.184C158.923 118.184 181.289 134.461 189.482 159.718L132.408 178.293Z" fill="white" stroke="#020D3A" stroke-width="1.15538" stroke-miterlimit="10" stroke-linecap="round" stroke-linejoin="round"/>
<path d="M131.807 216.015C152.518 216.015 169.307 199.203 169.307 178.465C169.307 157.727 152.518 140.915 131.807 140.915C111.096 140.915 94.3066 157.727 94.3066 178.465C94.3066 199.203 111.096 216.015 131.807 216.015Z" fill="white" stroke="#020D3A" stroke-width="1.15538" stroke-miterlimit="10" stroke-linecap="round" stroke-linejoin="round"/>
<path d="M114.07 171.936V158.847H122.518V160.955H116.399V164.393H122.166V166.501H116.399V171.936H114.07ZM124.481 171.936V163.062H126.7V164.467H126.737C127.217 163.45 128.197 162.84 129.362 162.84C129.639 162.84 129.898 162.896 130.156 162.97V165.114C129.787 165.022 129.435 164.948 129.084 164.948C126.995 164.948 126.7 166.704 126.7 167.185V171.936H124.481ZM139.882 168.275H133.116C133.264 169.588 134.262 170.383 135.501 170.383C136.61 170.383 137.331 169.865 137.885 169.181L139.475 170.383C138.44 171.658 137.127 172.157 135.722 172.157C133.042 172.157 130.898 170.29 130.898 167.499C130.898 164.707 133.042 162.84 135.722 162.84C138.2 162.84 139.882 164.578 139.882 167.665V168.275ZM133.116 166.612H137.663C137.645 165.318 136.795 164.504 135.408 164.504C134.096 164.504 133.282 165.336 133.116 166.612ZM150.497 168.275H143.731C143.879 169.588 144.877 170.383 146.116 170.383C147.225 170.383 147.946 169.865 148.5 169.181L150.09 170.383C149.055 171.658 147.742 172.157 146.337 172.157C143.657 172.157 141.513 170.29 141.513 167.499C141.513 164.707 143.657 162.84 146.337 162.84C148.815 162.84 150.497 164.578 150.497 167.665V168.275ZM143.731 166.612H148.279C148.26 165.318 147.41 164.504 146.023 164.504C144.711 164.504 143.897 165.336 143.731 166.612ZM119.558 182.585L117.746 183.916C116.785 182.899 115.898 182.622 114.992 182.622C112.293 182.622 110.5 184.693 110.5 187.299C110.5 190.09 112.293 192.161 114.992 192.161C116.045 192.161 117.062 191.68 117.931 190.571L119.854 191.939C118.671 193.566 116.896 194.268 114.973 194.268C110.943 194.268 108.06 191.532 108.06 187.447C108.06 183.251 110.943 180.515 114.973 180.515C116.748 180.515 118.264 181.088 119.558 182.585ZM121.251 193.936V179.96H123.469V193.936H121.251ZM126.053 193.936V185.062H128.271V193.936H126.053ZM125.738 182.049C125.738 181.347 126.33 180.718 127.143 180.718C127.957 180.718 128.585 181.291 128.585 182.049C128.585 182.807 127.957 183.38 127.143 183.38C126.33 183.38 125.738 182.751 125.738 182.049ZM138.415 186.19L136.881 187.724C136.364 187.188 135.79 186.837 135.199 186.837C133.572 186.837 132.592 188.112 132.592 189.499C132.592 190.885 133.572 192.161 135.199 192.161C135.883 192.161 136.511 191.865 136.918 191.329L138.397 192.919C137.491 193.825 135.975 194.157 135.199 194.157C132.518 194.157 130.374 192.29 130.374 189.499C130.374 186.707 132.518 184.84 135.199 184.84C136.327 184.84 137.565 185.247 138.415 186.19ZM139.736 193.936V179.96H141.954V188.741L145.374 185.062H148.221L144.413 189.092L148.461 193.936H145.522L141.991 189.406H141.954V193.936H139.736ZM155.876 186.19L154.397 187.521C153.972 186.929 153.418 186.615 152.66 186.615C152.068 186.615 151.366 186.892 151.366 187.558C151.366 189.148 156.153 187.854 156.153 191.311C156.153 193.418 154.138 194.157 152.327 194.157C150.959 194.157 149.776 193.806 148.87 192.789L150.349 191.403C150.922 192.031 151.513 192.494 152.456 192.494C153.103 192.494 153.935 192.179 153.935 191.477C153.935 189.647 149.147 191.089 149.147 187.706C149.147 185.728 150.922 184.84 152.715 184.84C153.898 184.84 155.155 185.21 155.876 186.19Z" fill="#020D3A"/>
<path d="M211.145 125.905L209.796 126.885C209.019 125.832 207.781 125.295 206.524 125.295C203.603 125.295 201.533 127.865 201.533 130.73C201.533 133.762 203.585 136.165 206.524 136.165C208.114 136.165 209.389 135.518 210.313 134.335L211.478 135.315C210.313 136.886 208.613 137.607 206.524 137.607C202.771 137.607 199.869 134.705 199.869 130.73C199.869 126.885 202.642 123.854 206.524 123.854C208.298 123.854 210.036 124.464 211.145 125.905ZM213.513 137.274V123.299H214.955V137.274H213.513ZM217.954 137.274V128.623H219.396V137.274H217.954ZM217.622 125.24C217.622 124.667 218.084 124.186 218.675 124.186C219.267 124.186 219.729 124.667 219.729 125.24C219.729 125.85 219.285 126.294 218.675 126.294C218.065 126.294 217.622 125.85 217.622 125.24ZM229.568 129.769L228.422 130.786C227.812 130.046 227.109 129.732 226.241 129.732C224.299 129.732 223.32 131.174 223.32 132.949C223.32 134.723 224.484 136.165 226.241 136.165C227.183 136.165 227.904 135.833 228.44 135.093L229.513 136.11C228.681 137.071 227.498 137.496 226.241 137.496C223.56 137.496 221.767 135.611 221.767 132.949C221.767 130.324 223.579 128.401 226.241 128.401C227.516 128.401 228.699 128.826 229.568 129.769ZM231.184 137.274V123.299H232.626V132.431L236.564 128.623H238.615L234.438 132.56L239.041 137.274H236.915L232.626 132.727V137.274H231.184ZM243.089 124.186L241.573 128.623H240.168L241.407 124.186H243.089ZM243.239 135.888L244.385 135.001C244.958 135.703 245.587 136.165 246.603 136.165C247.509 136.165 248.507 135.777 248.507 134.834C248.507 133.91 247.583 133.67 246.659 133.466C245.014 133.097 243.609 132.745 243.609 130.952C243.609 129.27 245.235 128.401 246.844 128.401C248.064 128.401 249.191 128.863 249.783 129.972L248.581 130.767C248.212 130.157 247.602 129.732 246.751 129.732C245.956 129.732 245.05 130.12 245.05 130.934C245.05 131.655 246.086 131.969 247.232 132.191C248.766 132.487 250.06 133.041 250.06 134.779C250.06 136.738 248.323 137.496 246.603 137.496C245.143 137.496 244.089 137.108 243.239 135.888ZM200.294 163.489V150.623H201.736V151.88H201.773C202.568 150.956 203.622 150.401 204.879 150.401C207.596 150.401 209.426 152.324 209.426 154.949C209.426 157.537 207.522 159.496 205.1 159.496C203.548 159.496 202.309 158.72 201.773 157.74H201.736V163.489H200.294ZM201.736 154.949C201.736 156.76 202.938 158.165 204.805 158.165C206.672 158.165 207.873 156.76 207.873 154.949C207.873 153.137 206.672 151.732 204.805 151.732C202.938 151.732 201.736 153.137 201.736 154.949ZM218.306 156.853L219.396 157.703C218.379 159.016 217.159 159.496 215.551 159.496C212.834 159.496 211.17 157.463 211.17 154.949C211.17 152.268 213.055 150.401 215.607 150.401C218.047 150.401 219.71 152.065 219.71 154.93V155.392H212.723C212.834 156.89 213.98 158.165 215.551 158.165C216.79 158.165 217.622 157.722 218.306 156.853ZM212.723 154.172H218.158C218.102 152.712 217.141 151.732 215.551 151.732C213.961 151.732 212.908 152.712 212.723 154.172ZM221.941 159.274V152.675C221.941 151.88 221.867 151.196 221.867 150.623H223.235C223.235 151.085 223.272 151.566 223.272 152.046H223.309C223.697 151.196 224.769 150.401 226.193 150.401C226.378 150.401 226.581 150.42 226.784 150.494L226.692 151.954C226.452 151.88 226.174 151.843 225.916 151.843C224.159 151.843 223.383 153.082 223.383 155.06V159.274H221.941ZM233.604 159.274V146.186H238.632C241.201 146.186 245.046 147.905 245.046 152.73C245.046 157.555 241.201 159.274 238.632 159.274H233.604ZM235.156 147.628V157.833H238.114C241.109 157.833 243.383 156.317 243.383 152.73C243.383 149.144 241.109 147.628 238.114 147.628H235.156ZM248.082 152.675L247.176 151.732C248.064 150.826 249.358 150.401 250.615 150.401C253.166 150.401 254.238 151.621 254.238 154.061V157.777C254.238 158.276 254.293 158.831 254.367 159.274H252.981C252.888 158.886 252.888 158.35 252.888 157.98H252.851C252.278 158.868 251.317 159.496 250.005 159.496C248.248 159.496 246.788 158.609 246.788 156.927C246.788 154.061 250.116 153.895 252.241 153.895H252.796V153.636C252.796 152.379 252.001 151.732 250.652 151.732C249.727 151.732 248.766 152.046 248.082 152.675ZM252.796 155.115H251.354C249.524 155.115 248.341 155.614 248.341 156.779C248.341 157.869 249.154 158.276 250.245 158.276C251.909 158.276 252.759 157.075 252.796 155.67V155.115ZM264.231 150.623L260.053 161.252C259.48 162.713 258.907 163.711 257.169 163.711C256.762 163.711 256.263 163.674 255.875 163.489L256.06 162.232C256.356 162.343 256.67 162.38 257.077 162.38C258.019 162.38 258.371 161.807 258.685 160.957L259.276 159.33L255.69 150.623H257.372L260.053 157.407H260.09L262.659 150.623H264.231Z" fill="#020D3A"/>
<path d="M225.694 173.807H198.836V179.519H225.694V173.807Z" fill="#020D3A" stroke="#020D3A" stroke-width="1.15538" stroke-miterlimit="10" stroke-linecap="round" stroke-linejoin="round"/>
<path d="M267.774 186.051H198.836V191.765H267.774V186.051Z" fill="white" stroke="#020D3A" stroke-width="1.15538" stroke-miterlimit="10" stroke-linecap="round" stroke-linejoin="round"/>
<path d="M249.603 198.293H198.836V204.007H249.603V198.293Z" fill="#20E086" stroke="#020D3A" stroke-width="1.15538" stroke-miterlimit="10" stroke-linecap="round" stroke-linejoin="round"/>
<path d="M243.198 210.537H198.836V216.25H243.198V210.537Z" fill="#020D3A" stroke="#020D3A" stroke-width="1.15538" stroke-miterlimit="10" stroke-linecap="round" stroke-linejoin="round"/>
<path d="M267.774 222.78H198.836V228.493H267.774V222.78Z" fill="white" stroke="#020D3A" stroke-width="1.15538" stroke-miterlimit="10" stroke-linecap="round" stroke-linejoin="round"/>
<path d="M108.736 239.457H162.182" stroke="#020D3A" stroke-width="1.15538" stroke-miterlimit="10" stroke-linecap="round" stroke-linejoin="round"/>
<path d="M101.18 247.004H169.743" stroke="#020D3A" stroke-width="1.15538" stroke-miterlimit="10" stroke-linecap="round" stroke-linejoin="round"/>
<path d="M200.654 239.458H254.1" stroke="#020D3A" stroke-width="1.15538" stroke-miterlimit="10" stroke-linecap="round" stroke-linejoin="round"/>
<path d="M193.098 247.005H261.661" stroke="#020D3A" stroke-width="1.15538" stroke-miterlimit="10" stroke-linecap="round" stroke-linejoin="round"/>
<path d="M279.499 497.113H109.482C102.368 497.113 96.6016 491.336 96.6016 484.211V362.217C96.6016 355.092 102.368 349.315 109.482 349.315H279.499C286.613 349.315 292.38 355.092 292.38 362.217V484.211C292.38 491.336 286.613 497.113 279.499 497.113Z" fill="#020D3A"/>
<path d="M272.847 489.342H102.83C95.716 489.342 89.9492 483.566 89.9492 476.44V354.447C89.9492 347.321 95.716 341.545 102.83 341.545H272.847C279.961 341.545 285.727 347.321 285.727 354.447V476.44C285.727 483.566 279.961 489.342 272.847 489.342Z" fill="white" stroke="#020D3A" stroke-width="1.15538" stroke-miterlimit="10" stroke-linecap="round" stroke-linejoin="round"/>
<path d="M135.652 409.944V398.964H131.64V396.856H141.993V398.964H137.981V409.944H135.652ZM140.881 405.508C140.881 402.716 143.026 400.849 145.706 400.849C148.387 400.849 150.531 402.716 150.531 405.508C150.531 408.299 148.387 410.166 145.706 410.166C143.026 410.166 140.881 408.299 140.881 405.508ZM143.1 405.508C143.1 406.894 144.079 408.17 145.706 408.17C147.333 408.17 148.313 406.894 148.313 405.508C148.313 404.121 147.333 402.846 145.706 402.846C144.079 402.846 143.1 404.121 143.1 405.508ZM152.608 414.159V401.071H154.715V402.402H154.752C155.399 401.33 156.564 400.849 157.803 400.849C160.538 400.849 162.184 402.883 162.184 405.508C162.184 408.133 160.428 410.166 157.895 410.166C156.231 410.166 155.344 409.39 154.882 408.817H154.826V414.159H152.608ZM159.965 405.508C159.965 404.121 158.986 402.846 157.359 402.846C155.732 402.846 154.752 404.121 154.752 405.508C154.752 406.894 155.732 408.17 157.359 408.17C158.986 408.17 159.965 406.894 159.965 405.508ZM169.925 409.944V396.856H175.083C178.521 396.856 181.738 398.964 181.738 403.4C181.738 407.874 177.948 409.944 174.806 409.944H169.925ZM172.255 407.837H173.992C176.913 407.837 179.298 406.58 179.298 403.4C179.298 400.221 177.227 398.964 174.381 398.964H172.255V407.837ZM192.29 406.284H185.524C185.672 407.597 186.67 408.392 187.908 408.392C189.018 408.392 189.739 407.874 190.293 407.19L191.883 408.392C190.848 409.667 189.535 410.166 188.13 410.166C185.45 410.166 183.305 408.299 183.305 405.508C183.305 402.716 185.45 400.849 188.13 400.849C190.607 400.849 192.29 402.587 192.29 405.674V406.284ZM185.524 404.62H190.071C190.053 403.326 189.202 402.513 187.816 402.513C186.503 402.513 185.69 403.345 185.524 404.62ZM196.786 409.944L193.162 401.071H195.584L197.95 407.282H197.987L200.372 401.071H202.646L199.152 409.944H196.786ZM203.987 409.944V401.071H206.205V409.944H203.987ZM203.673 398.058C203.673 397.355 204.264 396.727 205.078 396.727C205.891 396.727 206.52 397.3 206.52 398.058C206.52 398.816 205.891 399.389 205.078 399.389C204.264 399.389 203.673 398.76 203.673 398.058ZM216.35 402.199L214.816 403.733C214.298 403.197 213.725 402.846 213.133 402.846C211.507 402.846 210.527 404.121 210.527 405.508C210.527 406.894 211.507 408.17 213.133 408.17C213.817 408.17 214.446 407.874 214.853 407.338L216.331 408.928C215.426 409.833 213.91 410.166 213.133 410.166C210.453 410.166 208.308 408.299 208.308 405.508C208.308 402.716 210.453 400.849 213.133 400.849C214.261 400.849 215.5 401.256 216.35 402.199ZM226.211 406.284H219.445C219.593 407.597 220.591 408.392 221.83 408.392C222.939 408.392 223.66 407.874 224.214 407.19L225.804 408.392C224.769 409.667 223.456 410.166 222.051 410.166C219.371 410.166 217.227 408.299 217.227 405.508C217.227 402.716 219.371 400.849 222.051 400.849C224.529 400.849 226.211 402.587 226.211 405.674V406.284ZM219.445 404.62H223.992C223.974 403.326 223.124 402.513 221.737 402.513C220.425 402.513 219.611 403.345 219.445 404.62ZM234.497 402.199L233.018 403.53C232.593 402.938 232.038 402.624 231.28 402.624C230.688 402.624 229.986 402.901 229.986 403.567C229.986 405.156 234.774 403.862 234.774 407.319C234.774 409.427 232.759 410.166 230.947 410.166C229.579 410.166 228.396 409.815 227.49 408.798L228.969 407.412C229.542 408.04 230.134 408.502 231.077 408.502C231.724 408.502 232.556 408.188 232.556 407.486C232.556 405.656 227.768 407.097 227.768 403.715C227.768 401.737 229.542 400.849 231.335 400.849C232.519 400.849 233.776 401.219 234.497 402.199ZM253.948 403.068L251.323 406.857L254.152 409.944H251.286L249.9 408.447C248.846 409.686 247.7 410.277 246.036 410.277C243.725 410.277 241.6 408.928 241.6 406.432C241.6 404.676 242.857 403.363 244.428 402.753C243.596 401.829 242.931 401.034 242.931 399.74C242.931 397.596 244.705 396.523 246.683 396.523C248.643 396.523 250.38 397.485 250.38 399.629C250.38 401.237 249.068 402.347 247.774 403.012L249.881 405.286L251.342 403.068H253.948ZM246.72 398.52C245.87 398.52 245.149 399.056 245.149 399.832C245.149 400.516 245.814 401.2 246.387 401.737C247.145 401.33 248.162 400.701 248.162 399.74C248.162 399.038 247.515 398.52 246.72 398.52ZM248.513 406.987L245.833 404.066C244.964 404.583 244.04 405.175 244.04 406.303C244.04 407.449 245.001 408.281 246.11 408.281C247.127 408.281 247.848 407.634 248.513 406.987Z" fill="#020D3A"/>
<path d="M142.987 437.944V421.584H146.592V434.617H153.27V437.944H142.987ZM154.405 432.329C154.405 428.748 157.178 426.437 160.644 426.437C164.11 426.437 166.883 428.748 166.883 432.329C166.883 435.911 164.11 438.222 160.644 438.222C157.178 438.222 154.405 435.911 154.405 432.329ZM157.871 432.329C157.871 434.016 158.911 435.171 160.644 435.171C162.377 435.171 163.417 434.016 163.417 432.329C163.417 430.642 162.377 429.487 160.644 429.487C158.911 429.487 157.871 430.642 157.871 432.329ZM178.815 427.939L176.527 430.342C176.18 429.857 175.533 429.487 174.817 429.487C173.084 429.487 172.044 430.642 172.044 432.329C172.044 434.016 173.084 435.171 174.817 435.171C175.58 435.171 176.134 434.779 176.527 434.316L178.815 436.72C177.729 437.829 176.134 438.222 174.817 438.222C171.351 438.222 168.578 435.911 168.578 432.329C168.578 428.748 171.351 426.437 174.817 426.437C176.134 426.437 177.729 426.83 178.815 427.939ZM187.12 437.944V436.535H187.074C186.311 437.736 184.925 438.222 183.515 438.222C181.413 438.222 179.518 437.02 179.518 434.755C179.518 430.873 184.232 430.804 187.12 430.804C187.12 429.579 186.103 428.794 184.902 428.794C183.769 428.794 182.822 429.302 182.083 430.134L180.234 428.239C181.505 427.038 183.354 426.437 185.179 426.437C189.223 426.437 190.309 428.493 190.309 432.237V437.944H187.12ZM187.12 433.022H186.265C185.202 433.022 182.845 433.115 182.845 434.64C182.845 435.472 183.723 435.865 184.486 435.865C185.849 435.865 187.12 435.148 187.12 433.762V433.022ZM200.132 426.714V429.487H197.082V433.23C197.082 434.432 197.221 435.31 198.723 435.31C199.092 435.31 199.832 435.264 200.132 434.987V437.875C199.37 438.152 198.515 438.222 197.706 438.222C195.395 438.222 193.616 437.274 193.616 434.825V429.487H191.398V426.714H193.616V423.387H197.082V426.714H200.132ZM201.94 437.944V426.714H205.406V437.944H201.94ZM201.663 423.179C201.663 422.069 202.564 421.168 203.673 421.168C204.782 421.168 205.683 422.069 205.683 423.179C205.683 424.288 204.782 425.189 203.673 425.189C202.564 425.189 201.663 424.288 201.663 423.179ZM207.48 432.329C207.48 428.748 210.253 426.437 213.719 426.437C217.185 426.437 219.958 428.748 219.958 432.329C219.958 435.911 217.185 438.222 213.719 438.222C210.253 438.222 207.48 435.911 207.48 432.329ZM210.946 432.329C210.946 434.016 211.986 435.171 213.719 435.171C215.452 435.171 216.492 434.016 216.492 432.329C216.492 430.642 215.452 429.487 213.719 429.487C211.986 429.487 210.946 430.642 210.946 432.329ZM222 437.944V426.714H225.327V428.239H225.374C225.836 427.361 226.968 426.437 228.655 426.437C232.167 426.437 232.814 428.748 232.814 431.752V437.944H229.348V432.445C229.348 431.151 229.325 429.487 227.546 429.487C225.743 429.487 225.466 430.897 225.466 432.352V437.944H222ZM243.749 427.916L241.623 430.018C241.115 429.395 240.445 429.071 239.613 429.071C239.035 429.071 238.342 429.325 238.342 429.995C238.342 431.659 244.188 430.25 244.188 434.524C244.188 437.39 241.415 438.222 239.012 438.222C237.441 438.222 235.708 437.829 234.599 436.697L236.701 434.363C237.348 435.148 238.111 435.587 239.151 435.587C239.936 435.587 240.722 435.379 240.722 434.779C240.722 432.976 234.876 434.501 234.876 430.226C234.876 427.592 237.233 426.437 239.59 426.437C241.069 426.437 242.709 426.806 243.749 427.916Z" fill="#20E086"/>
<path d="M122.315 368.399L133.256 364.839C135.219 370.891 131.913 377.39 125.87 379.357C119.829 381.324 113.338 378.011 111.375 371.96C109.411 365.907 112.718 359.408 118.76 357.441C119.969 357.049 121.045 356.877 122.315 356.877V368.399Z" fill="#20E086" stroke="#020D3A" stroke-width="0.577689" stroke-miterlimit="10"/>
<path d="M122.316 368.399V356.877C127.399 356.877 131.686 359.997 133.257 364.839L122.316 368.399Z" fill="#020D3A" stroke="#020D3A" stroke-width="0.577689" stroke-miterlimit="10"/>
<path d="M233.055 368.399L243.996 364.839C245.959 370.891 242.653 377.39 236.61 379.357C230.568 381.324 224.079 378.011 222.115 371.96C220.152 365.907 223.458 359.408 229.501 357.441C230.709 357.049 231.785 356.877 233.055 356.877V368.399Z" fill="#20E086" stroke="#020D3A" stroke-width="0.577689" stroke-miterlimit="10"/>
<path d="M233.053 368.399V356.877C238.136 356.877 242.423 359.997 243.993 364.839L233.053 368.399Z" fill="#020D3A" stroke="#020D3A" stroke-width="0.577689" stroke-miterlimit="10"/>
<path d="M159.223 368.399V379.92C152.869 379.92 147.719 374.761 147.719 368.399C147.719 362.036 152.869 356.877 159.223 356.877V368.399Z" fill="#20E086" stroke="#020D3A" stroke-width="0.577689" stroke-miterlimit="10"/>
<path d="M159.229 368.399V356.877C165.582 356.877 170.731 362.036 170.731 368.399C170.731 374.763 165.58 379.92 159.229 379.92V368.399Z" fill="#020D3A" stroke="#020D3A" stroke-width="0.577689" stroke-miterlimit="10"/>
<path d="M196.122 368.399L207.062 371.96C205.099 378.011 198.61 381.324 192.567 379.357C186.524 377.39 183.218 370.891 185.182 364.839C186.752 359.997 191.039 356.877 196.122 356.877V368.399Z" fill="#20E086" stroke="#020D3A" stroke-width="0.577689" stroke-miterlimit="10"/>
<path d="M196.131 368.399V356.877C202.484 356.877 207.635 362.036 207.635 368.399C207.635 369.672 207.464 370.749 207.071 371.96L196.131 368.399Z" fill="#020D3A" stroke="#020D3A" stroke-width="0.577689" stroke-miterlimit="10"/>
<path d="M269.952 368.399L280.892 371.96C278.929 378.011 272.44 381.324 266.397 379.357C260.354 377.39 257.048 370.891 259.012 364.839C260.582 359.997 264.869 356.877 269.952 356.877V368.399Z" fill="#20E086" stroke="#020D3A" stroke-width="0.577689" stroke-miterlimit="10"/>
<path d="M269.959 368.399V356.877C276.312 356.877 281.463 362.036 281.463 368.399C281.463 369.672 281.293 370.749 280.899 371.96L269.959 368.399Z" fill="#020D3A" stroke="#020D3A" stroke-width="0.577689" stroke-miterlimit="10"/>
<path d="M272.224 472.961H262.162V476.371H272.224V472.961Z" fill="#20E086" stroke="#020D3A" stroke-width="0.866534" stroke-miterlimit="10" stroke-linecap="round" stroke-linejoin="round"/>
<path d="M261.044 455.912H250.982V476.367H261.044V455.912Z" fill="#020D3A" stroke="#020D3A" stroke-width="0.866534" stroke-miterlimit="10" stroke-linecap="round" stroke-linejoin="round"/>
<path d="M249.866 463.255H239.805V476.368H249.866V463.255Z" fill="white" stroke="#020D3A" stroke-width="0.866534" stroke-miterlimit="10" stroke-linecap="round" stroke-linejoin="round"/>
<path d="M238.683 453.028H228.621V476.369H238.683V453.028Z" fill="#20E086" stroke="#020D3A" stroke-width="0.866534" stroke-miterlimit="10" stroke-linecap="round" stroke-linejoin="round"/>
<path d="M227.501 470.336H217.439V476.367H227.501V470.336Z" fill="#020D3A" stroke="#020D3A" stroke-width="0.866534" stroke-miterlimit="10" stroke-linecap="round" stroke-linejoin="round"/>
<path d="M216.323 468.5H206.262V476.368H216.323V468.5Z" fill="white" stroke="#020D3A" stroke-width="0.866534" stroke-miterlimit="10" stroke-linecap="round" stroke-linejoin="round"/>
<path d="M205.156 460.634H195.094V476.369H205.156V460.634Z" fill="#20E086" stroke="#020D3A" stroke-width="0.866534" stroke-miterlimit="10" stroke-linecap="round" stroke-linejoin="round"/>
<path d="M193.964 473.747H183.902V476.369H193.964V473.747Z" fill="#020D3A" stroke="#020D3A" stroke-width="0.866534" stroke-miterlimit="10" stroke-linecap="round" stroke-linejoin="round"/>
<path d="M182.794 455.912H172.732V476.367H182.794V455.912Z" fill="white" stroke="#020D3A" stroke-width="0.866534" stroke-miterlimit="10" stroke-linecap="round" stroke-linejoin="round"/>
<path d="M171.601 459.847H161.539V476.368H171.601V459.847Z" fill="#20E086" stroke="#020D3A" stroke-width="0.866534" stroke-miterlimit="10" stroke-linecap="round" stroke-linejoin="round"/>
<path d="M160.427 475.584H150.365V476.369H160.427V475.584Z" fill="#020D3A" stroke="#020D3A" stroke-width="0.866534" stroke-miterlimit="10" stroke-linecap="round" stroke-linejoin="round"/>
<path d="M149.255 475.32H139.193V476.369H149.255V475.32Z" fill="white" stroke="#020D3A" stroke-width="0.866534" stroke-miterlimit="10" stroke-linecap="round" stroke-linejoin="round"/>
<path d="M138.079 463.256H128.018V476.369H138.079V463.256Z" fill="#20E086" stroke="#020D3A" stroke-width="0.866534" stroke-miterlimit="10" stroke-linecap="round" stroke-linejoin="round"/>
<path d="M126.892 473.745H116.83V476.367H126.892V473.745Z" fill="#020D3A" stroke="#020D3A" stroke-width="0.866534" stroke-miterlimit="10" stroke-linecap="round" stroke-linejoin="round"/>
<path d="M115.712 471.124H105.65V476.369H115.712V471.124Z" fill="white" stroke="#020D3A" stroke-width="0.866534" stroke-miterlimit="10" stroke-linecap="round" stroke-linejoin="round"/>
<path d="M544.123 390.24H346.164C339.05 390.24 333.283 384.464 333.283 377.339V234.25C333.283 227.125 339.05 221.349 346.164 221.349H544.123C551.237 221.349 557.003 227.125 557.003 234.25V377.339C557.003 384.464 551.237 390.24 544.123 390.24Z" fill="#020D3A"/>
<path d="M536.363 381.36H338.404C331.29 381.36 325.523 375.584 325.523 368.459V225.371C325.523 218.245 331.29 212.469 338.404 212.469H536.363C543.477 212.469 549.244 218.245 549.244 225.371V368.459C549.244 375.584 543.477 381.36 536.363 381.36Z" fill="white" stroke="#020D3A" stroke-width="1.15538" stroke-miterlimit="10" stroke-linecap="round" stroke-linejoin="round"/>
<g opacity="0.5">
<path d="M370.737 231.99C370.737 235.985 368.609 240.857 362.197 240.857C357.377 240.889 353.443 237.011 353.406 232.192C353.443 227.373 357.377 223.495 362.197 223.527C364.19 223.534 366.124 224.212 367.685 225.452C367.793 225.54 367.859 225.669 367.868 225.808C367.868 225.949 367.813 226.084 367.714 226.184C367.087 226.757 366.489 227.361 365.923 227.994C365.758 228.175 365.482 228.2 365.287 228.052C364.398 227.394 363.312 227.054 362.206 227.089C359.362 227.089 357.055 229.395 357.055 232.24C357.055 235.085 359.362 237.391 362.206 237.391C365.095 237.391 366.318 236.159 366.953 233.973H362.553C362.287 233.973 362.072 233.758 362.072 233.492V230.94C362.072 230.674 362.287 230.459 362.553 230.459H370.256C370.477 230.457 370.664 230.624 370.689 230.844C370.725 231.225 370.741 231.607 370.737 231.99Z" fill="#020D3A"/>
<path d="M422.534 232.484C422.534 227.134 418.223 222.797 412.905 222.797C407.588 222.797 403.277 227.134 403.277 232.484C403.277 237.319 406.798 241.326 411.401 242.053V235.284H408.956V232.484H411.401V230.35C411.401 227.922 412.839 226.581 415.038 226.581C416.091 226.581 417.193 226.77 417.193 226.77V229.154H415.979C414.783 229.154 414.41 229.901 414.41 230.667V232.484H417.08L416.653 235.284H414.41V242.053C419.013 241.326 422.534 237.319 422.534 232.484Z" fill="#020D3A"/>
<path fill-rule="evenodd" clip-rule="evenodd" d="M467.595 223.76H459.892C457.233 223.76 455.078 225.915 455.078 228.574V236.276C455.078 238.935 457.233 241.09 459.892 241.09H467.595C470.253 241.09 472.409 238.935 472.409 236.276V228.574C472.409 225.915 470.253 223.76 467.595 223.76ZM470.724 236.276C470.719 238.002 469.321 239.4 467.595 239.406H459.892C458.166 239.4 456.768 238.002 456.763 236.276V228.574C456.768 226.848 458.166 225.45 459.892 225.445H467.595C469.321 225.45 470.719 226.848 470.724 228.574V236.276ZM468.317 228.815C468.849 228.815 469.28 228.383 469.28 227.852C469.28 227.32 468.849 226.889 468.317 226.889C467.785 226.889 467.354 227.32 467.354 227.852C467.354 228.383 467.785 228.815 468.317 228.815ZM463.743 228.092C461.351 228.092 459.411 230.032 459.411 232.425C459.411 234.818 461.351 236.758 463.743 236.758C466.136 236.758 468.076 234.818 468.076 232.425C468.079 231.275 467.623 230.172 466.81 229.359C465.997 228.546 464.893 228.09 463.743 228.092ZM461.096 232.425C461.096 233.887 462.281 235.073 463.743 235.073C465.206 235.073 466.391 233.887 466.391 232.425C466.391 230.963 465.206 229.777 463.743 229.777C462.281 229.777 461.096 230.963 461.096 232.425Z" fill="#020D3A"/>
<path fill-rule="evenodd" clip-rule="evenodd" d="M507.358 223.76C506.561 223.76 505.914 224.406 505.914 225.204V239.646C505.914 240.444 506.561 241.09 507.358 241.09H521.801C522.598 241.09 523.245 240.444 523.245 239.646V225.204C523.245 224.406 522.598 223.76 521.801 223.76H507.358ZM511.23 227.614C511.235 228.534 510.546 229.102 509.728 229.098C508.958 229.094 508.286 228.48 508.29 227.615C508.294 226.801 508.937 226.147 509.773 226.166C510.62 226.185 511.235 226.807 511.23 227.614ZM514.849 230.27H512.422H512.421V238.512H514.985V238.319C514.985 237.954 514.985 237.588 514.985 237.222C514.984 236.246 514.983 235.268 514.988 234.293C514.99 234.056 515 233.809 515.061 233.583C515.29 232.738 516.05 232.193 516.897 232.327C517.442 232.412 517.802 232.728 517.953 233.241C518.047 233.562 518.089 233.907 518.093 234.241C518.104 235.25 518.102 236.259 518.101 237.267C518.1 237.623 518.1 237.98 518.1 238.336V238.51H520.672V238.313C520.672 237.877 520.672 237.442 520.672 237.007C520.671 235.92 520.671 234.832 520.673 233.744C520.675 233.253 520.622 232.768 520.501 232.293C520.321 231.586 519.949 231.001 519.344 230.579C518.915 230.278 518.443 230.085 517.917 230.063C517.857 230.06 517.796 230.057 517.736 230.054C517.466 230.039 517.193 230.025 516.935 230.076C516.199 230.224 515.551 230.561 515.063 231.156C515.006 231.224 514.95 231.293 514.867 231.396L514.849 231.42V230.27ZM508.496 238.514H511.048V230.275H508.496V238.514Z" fill="#020D3A"/>
</g>
<path d="M535.161 344.609H523.557V357.496H535.161V344.609Z" fill="#20E086" stroke="#020D3A" stroke-width="0.866534" stroke-miterlimit="10" stroke-linecap="round" stroke-linejoin="round"/>
<path d="M522.271 280.174H510.666V357.499H522.271V280.174Z" fill="#020D3A" stroke="#020D3A" stroke-width="0.866534" stroke-miterlimit="10" stroke-linecap="round" stroke-linejoin="round"/>
<path d="M509.372 307.929H497.768V357.495H509.372V307.929Z" fill="white" stroke="#020D3A" stroke-width="0.866534" stroke-miterlimit="10" stroke-linecap="round" stroke-linejoin="round"/>
<path d="M496.48 269.268H484.875V357.496H496.48V269.268Z" fill="#20E086" stroke="#020D3A" stroke-width="0.866534" stroke-miterlimit="10" stroke-linecap="round" stroke-linejoin="round"/>
<path d="M483.576 334.695H471.971V357.495H483.576V334.695Z" fill="#020D3A" stroke="#020D3A" stroke-width="0.866534" stroke-miterlimit="10" stroke-linecap="round" stroke-linejoin="round"/>
<path d="M470.689 327.758H459.084V357.498H470.689V327.758Z" fill="white" stroke="#020D3A" stroke-width="0.866534" stroke-miterlimit="10" stroke-linecap="round" stroke-linejoin="round"/>
<path d="M457.798 298.016H446.193V357.496H457.798V298.016Z" fill="#20E086" stroke="#020D3A" stroke-width="0.866534" stroke-miterlimit="10" stroke-linecap="round" stroke-linejoin="round"/>
<path d="M444.894 347.584H433.289V357.497H444.894V347.584Z" fill="#020D3A" stroke="#020D3A" stroke-width="0.866534" stroke-miterlimit="10" stroke-linecap="round" stroke-linejoin="round"/>
<path d="M432.011 280.174H420.406V357.499H432.011V280.174Z" fill="white" stroke="#020D3A" stroke-width="0.866534" stroke-miterlimit="10" stroke-linecap="round" stroke-linejoin="round"/>
<path d="M419.115 295.045H407.51V357.5H419.115V295.045Z" fill="#20E086" stroke="#020D3A" stroke-width="0.866534" stroke-miterlimit="10" stroke-linecap="round" stroke-linejoin="round"/>
<path d="M406.21 354.524H394.605V357.498H406.21V354.524Z" fill="#020D3A" stroke="#020D3A" stroke-width="0.866534" stroke-miterlimit="10" stroke-linecap="round" stroke-linejoin="round"/>
<path d="M393.318 353.531H381.713V357.496H393.318V353.531Z" fill="white" stroke="#020D3A" stroke-width="0.866534" stroke-miterlimit="10" stroke-linecap="round" stroke-linejoin="round"/>
<path d="M380.423 307.929H368.818V357.495H380.423V307.929Z" fill="#20E086" stroke="#020D3A" stroke-width="0.866534" stroke-miterlimit="10" stroke-linecap="round" stroke-linejoin="round"/>
<path d="M367.531 347.584H355.926V357.497H367.531V347.584Z" fill="#020D3A" stroke="#020D3A" stroke-width="0.866534" stroke-miterlimit="10" stroke-linecap="round" stroke-linejoin="round"/>
<path d="M354.634 337.671H343.029V357.498H354.634V337.671Z" fill="white" stroke="#020D3A" stroke-width="0.866534" stroke-miterlimit="10" stroke-linecap="round" stroke-linejoin="round"/>
<path d="M535.915 251.222H344.541V261.032H535.915V251.222Z" fill="#20E086" stroke="#020D3A" stroke-width="1.15538" stroke-miterlimit="10"/>
<path d="M425.992 251.94H394.957V260.314H425.992V251.94Z" fill="#020D3A" stroke="#020D3A" stroke-width="1.15538" stroke-miterlimit="10"/>
<path d="M485.551 251.94H427.256V260.314H485.551V251.94Z" fill="white" stroke="#020D3A" stroke-width="1.15538" stroke-miterlimit="10"/>
<path d="M519.717 175.553H364.439C357.325 175.553 351.559 169.777 351.559 162.651V51.7827C351.559 44.6571 357.325 38.8809 364.439 38.8809H519.719C526.833 38.8809 532.599 44.6571 532.599 51.7827V162.651C532.598 169.777 526.831 175.553 519.717 175.553Z" fill="#020D3A"/>
<path d="M513.063 166.672H357.785C350.671 166.672 344.904 160.896 344.904 153.77V42.9018C344.904 35.7762 350.671 30 357.785 30H513.063C520.177 30 525.944 35.7762 525.944 42.9018V153.77C525.945 160.896 520.177 166.672 513.063 166.672Z" fill="white" stroke="#020D3A" stroke-width="1.15538" stroke-miterlimit="10" stroke-linecap="round" stroke-linejoin="round"/>
<path d="M353.309 153.877H523.284" stroke="#020D3A" stroke-width="0.577689" stroke-miterlimit="10"/>
<path d="M353.314 153.876V156.395" stroke="#020D3A" stroke-width="0.577689" stroke-miterlimit="10"/>
<path d="M364.643 153.876V156.395" stroke="#020D3A" stroke-width="0.577689" stroke-miterlimit="10"/>
<path d="M375.977 153.876V156.395" stroke="#020D3A" stroke-width="0.577689" stroke-miterlimit="10"/>
<path d="M387.305 153.876V156.395" stroke="#020D3A" stroke-width="0.577689" stroke-miterlimit="10"/>
<path d="M398.639 153.876V156.395" stroke="#020D3A" stroke-width="0.577689" stroke-miterlimit="10"/>
<path d="M409.973 153.876V156.395" stroke="#020D3A" stroke-width="0.577689" stroke-miterlimit="10"/>
<path d="M421.307 153.876V156.395" stroke="#020D3A" stroke-width="0.577689" stroke-miterlimit="10"/>
<path d="M432.637 153.876V156.395" stroke="#020D3A" stroke-width="0.577689" stroke-miterlimit="10"/>
<path d="M443.969 153.876V156.395" stroke="#020D3A" stroke-width="0.577689" stroke-miterlimit="10"/>
<path d="M455.299 153.876V156.395" stroke="#020D3A" stroke-width="0.577689" stroke-miterlimit="10"/>
<path d="M466.633 153.876V156.395" stroke="#020D3A" stroke-width="0.577689" stroke-miterlimit="10"/>
<path d="M477.961 153.876V156.395" stroke="#020D3A" stroke-width="0.577689" stroke-miterlimit="10"/>
<path d="M489.289 153.876V156.395" stroke="#020D3A" stroke-width="0.577689" stroke-miterlimit="10"/>
<path d="M500.627 153.876V156.395" stroke="#020D3A" stroke-width="0.577689" stroke-miterlimit="10"/>
<path d="M511.961 153.876V156.395" stroke="#020D3A" stroke-width="0.577689" stroke-miterlimit="10"/>
<path d="M523.289 153.876V156.395" stroke="#020D3A" stroke-width="0.577689" stroke-miterlimit="10"/>
<path d="M358.977 151.833H517.621V129.867L506.405 108.127C506.328 107.979 506.275 107.816 506.25 107.646L496.273 43.1832C496.027 41.5954 494.062 41.6286 493.856 43.224L483.705 121.921C483.654 122.319 483.461 122.672 483.174 122.896L473.392 130.48C472.8 130.941 471.997 130.716 471.647 129.993L461.8 109.63C461.389 108.781 460.383 108.651 459.823 109.375L449.632 122.544L438.3 137.188L426.968 122.544L416.985 109.642C416.371 108.848 415.252 109.094 414.928 110.095L404.305 143.044L392.973 84.3187L381.642 148.902L370.31 140.116L361.336 114.604C360.827 113.156 358.978 113.58 358.978 115.144V151.833H358.977Z" fill="#20E086"/>
<path d="M517.621 151.869H358.977V132.979L370.192 114.283C370.269 114.157 370.322 114.016 370.347 113.87L380.324 58.4333C380.57 57.0674 382.535 57.0961 382.742 58.468L392.892 126.145C392.943 126.488 393.138 126.793 393.424 126.984L403.205 133.506C403.797 133.902 404.6 133.708 404.95 133.087L414.799 115.575C415.21 114.845 416.215 114.733 416.776 115.356L426.967 126.683L438.299 139.275L449.63 126.683L459.613 115.587C460.228 114.905 461.346 115.116 461.67 115.977L472.294 144.312H483.626L494.957 149.348L506.289 141.792L515.262 119.853C515.772 118.608 517.621 118.973 517.621 120.318V151.869Z" fill="#020D3A"/>
<path d="M401.966 56.709V45.2569H409.552V47.1009H404.004V49.9154H409.261V51.7593H404.004V54.865H409.843V56.709H401.966ZM417.111 49.9315L415.817 51.0962C415.445 50.5785 414.96 50.3036 414.297 50.3036C413.779 50.3036 413.164 50.5462 413.164 51.1285C413.164 52.5196 417.354 51.3873 417.354 54.4121C417.354 56.2561 415.591 56.9031 414.005 56.9031C412.808 56.9031 411.773 56.5958 410.981 55.7061L412.275 54.493C412.776 55.0429 413.294 55.4473 414.119 55.4473C414.685 55.4473 415.413 55.1723 415.413 54.5577C415.413 52.9563 411.223 54.218 411.223 51.2579C411.223 49.5272 412.776 48.7507 414.345 48.7507C415.38 48.7507 416.48 49.0742 417.111 49.9315ZM419.559 50.5947H417.958V48.9448H419.559V46.6965H421.5V48.9448H423.635V50.5947H421.5V53.9915C421.5 54.7679 421.727 55.2532 422.584 55.2532C422.923 55.2532 423.393 55.1885 423.635 55.0106V56.6443C423.231 56.8384 422.551 56.9031 422.099 56.9031C420.044 56.9031 419.559 55.9811 419.559 54.1533V50.5947ZM425.183 56.709V48.9448H427.124V56.709H425.183ZM424.908 46.3083C424.908 45.6936 425.425 45.1436 426.137 45.1436C426.849 45.1436 427.399 45.6451 427.399 46.3083C427.399 46.9715 426.849 47.4729 426.137 47.4729C425.425 47.4729 424.908 46.9229 424.908 46.3083ZM429.271 56.709V48.9448H431.115V50.158H431.148C431.487 49.4301 432.231 48.7507 433.525 48.7507C434.722 48.7507 435.547 49.2198 435.952 50.1903C436.518 49.2036 437.343 48.7507 438.507 48.7507C440.578 48.7507 441.306 50.2227 441.306 52.0828V56.709H439.365V52.3093C439.365 51.3388 439.074 50.4977 437.925 50.4977C436.712 50.4977 436.259 51.5005 436.259 52.5034V56.709H434.318V52.0828C434.318 51.1285 433.93 50.4977 432.992 50.4977C431.714 50.4977 431.212 51.4358 431.212 52.4711V56.709H429.271ZM448.279 56.709V55.6414H448.231C447.681 56.5149 446.775 56.9031 445.74 56.9031C444.3 56.9031 442.909 56.1105 442.909 54.5738C442.909 52.0505 445.853 51.8726 447.794 51.8726H448.279V51.6623C448.279 50.7079 447.535 50.2065 446.5 50.2065C445.691 50.2065 444.947 50.53 444.429 51.0153L443.41 49.9962C444.268 49.1228 445.481 48.7507 446.71 48.7507C450.026 48.7507 450.026 51.1447 450.026 52.2446V56.709H448.279ZM448.166 53.668V53.2313H447.762C446.694 53.2313 444.85 53.3122 444.85 54.4283C444.85 55.14 445.578 55.4473 446.209 55.4473C447.535 55.4473 448.166 54.7518 448.166 53.668ZM452.81 50.5947H451.209V48.9448H452.81V46.6965H454.751V48.9448H456.886V50.5947H454.751V53.9915C454.751 54.7679 454.977 55.2532 455.835 55.2532C456.174 55.2532 456.644 55.1885 456.886 55.0106V56.6443C456.482 56.8384 455.802 56.9031 455.35 56.9031C453.295 56.9031 452.81 55.9811 452.81 54.1533V50.5947ZM465.874 53.5063H459.954C460.084 54.6547 460.957 55.3503 462.041 55.3503C463.011 55.3503 463.642 54.8974 464.127 54.2989L465.518 55.3503C464.613 56.4664 463.464 56.9031 462.235 56.9031C459.889 56.9031 458.013 55.2694 458.013 52.8269C458.013 50.3844 459.889 48.7507 462.235 48.7507C464.402 48.7507 465.874 50.2712 465.874 52.9725V53.5063ZM459.954 52.0505H463.933C463.917 50.9182 463.173 50.2065 461.96 50.2065C460.811 50.2065 460.1 50.9344 459.954 52.0505ZM473.836 56.709V55.5444H473.804C473.238 56.4825 472.219 56.9031 471.135 56.9031C468.741 56.9031 467.301 55.1238 467.301 52.8269C467.301 50.53 468.838 48.7507 471.054 48.7507C472.51 48.7507 473.286 49.4301 473.691 49.9315H473.739V44.4805H475.68V56.709H473.836ZM469.242 52.8269C469.242 54.0401 470.1 55.1562 471.523 55.1562C472.946 55.1562 473.804 54.0401 473.804 52.8269C473.804 51.6138 472.946 50.4977 471.523 50.4977C470.1 50.4977 469.242 51.6138 469.242 52.8269ZM407.502 75.709V64.2569H411.481C413.681 64.2569 415.752 64.9686 415.752 67.5405C415.752 69.1903 414.797 70.4035 413.099 70.6461L416.14 75.709H413.681L411.029 70.8564H409.54V75.709H407.502ZM409.54 69.1095H411.126C412.274 69.1095 413.617 69.0124 413.617 67.5243C413.617 66.1656 412.355 66.0038 411.303 66.0038H409.54V69.1095ZM424.986 72.5063H419.066C419.195 73.6547 420.069 74.3503 421.152 74.3503C422.123 74.3503 422.754 73.8974 423.239 73.2989L424.63 74.3503C423.724 75.4664 422.576 75.9031 421.346 75.9031C419.001 75.9031 417.125 74.2694 417.125 71.8269C417.125 69.3844 419.001 67.7507 421.346 67.7507C423.514 67.7507 424.986 69.2712 424.986 71.9725V72.5063ZM419.066 71.0505H423.045C423.029 69.9182 422.285 69.2065 421.071 69.2065C419.923 69.2065 419.211 69.9344 419.066 71.0505ZM428.92 75.709L425.75 67.9448H427.869L429.939 73.3797H429.971L432.058 67.9448H434.048L430.99 75.709H428.92ZM442.662 72.5063H436.742C436.871 73.6547 437.745 74.3503 438.828 74.3503C439.799 74.3503 440.43 73.8974 440.915 73.2989L442.306 74.3503C441.4 75.4664 440.252 75.9031 439.022 75.9031C436.677 75.9031 434.801 74.2694 434.801 71.8269C434.801 69.3844 436.677 67.7507 439.022 67.7507C441.19 67.7507 442.662 69.2712 442.662 71.9725V72.5063ZM436.742 71.0505H440.721C440.705 69.9182 439.961 69.2065 438.747 69.2065C437.599 69.2065 436.887 69.9344 436.742 71.0505ZM444.477 75.709V67.9448H446.321V69.1903H446.353C446.709 68.4139 447.437 67.7507 448.731 67.7507C450.818 67.7507 451.562 69.2227 451.562 70.8079V75.709H449.621V71.7784C449.621 70.9211 449.556 69.4977 448.197 69.4977C446.919 69.4977 446.418 70.4358 446.418 71.4711V75.709H444.477ZM460.85 67.9448V75.709H459.006V74.4635H458.974C458.618 75.2399 457.89 75.9031 456.596 75.9031C454.509 75.9031 453.765 74.4311 453.765 72.846V67.9448H455.706V71.8754C455.706 72.7327 455.771 74.1562 457.13 74.1562C458.407 74.1562 458.909 73.218 458.909 72.1828V67.9448H460.85ZM470.526 72.5063H464.606C464.736 73.6547 465.609 74.3503 466.693 74.3503C467.663 74.3503 468.294 73.8974 468.779 73.2989L470.17 74.3503C469.265 75.4664 468.116 75.9031 466.887 75.9031C464.541 75.9031 462.665 74.2694 462.665 71.8269C462.665 69.3844 464.541 67.7507 466.887 67.7507C469.054 67.7507 470.526 69.2712 470.526 71.9725V72.5063ZM464.606 71.0505H468.585C468.569 69.9182 467.825 69.2065 466.612 69.2065C465.463 69.2065 464.752 69.9344 464.606 71.0505Z" fill="#020D3A"/>
<path opacity="0.2" d="M306.872 609.999C356.339 609.999 396.44 590.064 396.44 565.474C396.44 540.883 356.339 520.948 306.872 520.948C257.404 520.948 217.303 540.883 217.303 565.474C217.303 590.064 257.404 609.999 306.872 609.999Z" fill="#020D3A"/>
<path d="M276.787 229.819C276.787 229.819 253.799 311.974 253.799 318.306C253.799 323.686 261.32 334.448 269.646 330.143C277.971 325.839 279.852 312.388 279.852 312.388L276.787 229.819Z" fill="white" stroke="#263238" stroke-width="1.15538" stroke-miterlimit="10" stroke-linecap="round" stroke-linejoin="round"/>
<path d="M338.302 566.353C338.302 566.353 326.538 582.27 325.649 588.952C324.76 595.634 333.855 596.197 337.858 593.078C341.86 589.96 350.227 569.581 350.227 569.581L338.302 566.353Z" fill="white" stroke="#263238" stroke-width="1.15538" stroke-miterlimit="10" stroke-linecap="round" stroke-linejoin="round"/>
<path d="M274.079 528.016C274.079 528.016 253.936 536.491 253.936 541.333C253.936 546.175 264.41 544.965 272.065 542.141C279.72 539.317 291.806 534.473 291.806 534.473C291.806 534.473 280.124 526.806 274.079 528.016Z" fill="white" stroke="#263238" stroke-width="1.15538" stroke-miterlimit="10" stroke-linecap="round" stroke-linejoin="round"/>
<path d="M280.397 336.332L279.724 362.563C279.724 362.563 274.487 410.585 272.07 436.412C269.652 462.238 277.307 521.561 277.307 521.561L273.682 525.192V528.824L291.811 534.473C291.811 534.473 293.423 526.806 293.423 523.174C293.423 519.543 293.423 517.12 293.423 517.12L312.359 403.724C312.359 403.724 327.267 518.331 329.684 531.649C332.101 544.966 335.726 559.09 335.726 559.09L334.518 563.126L336.128 570.391L348.617 573.619C348.617 573.619 351.437 569.988 352.243 562.723C353.049 555.459 353.452 538.511 353.452 538.511C353.452 538.511 352.645 479.592 355.466 439.642C358.287 399.691 354.66 365.793 354.66 365.793L352.645 339.159C352.648 339.156 318.133 353.28 280.397 336.332Z" fill="#263238" stroke="#263238" stroke-width="1.15538" stroke-miterlimit="10" stroke-linecap="round" stroke-linejoin="round"/>
<path d="M312.359 403.724L310.345 388.792L302.287 380.318" stroke="white" stroke-width="1.15538" stroke-miterlimit="10" stroke-linecap="round" stroke-linejoin="round"/>
<path d="M340.566 350.858C340.566 350.858 334.925 361.351 350.236 366.193" stroke="white" stroke-width="1.15538" stroke-miterlimit="10" stroke-linecap="round" stroke-linejoin="round"/>
<path d="M350.234 371.036V557.475" stroke="white" stroke-width="1.15538" stroke-miterlimit="10" stroke-linecap="round" stroke-linejoin="round"/>
<path d="M299.464 353.279L301.076 362.965C301.076 362.965 297.048 370.229 298.66 373.458" stroke="white" stroke-width="1.15538" stroke-miterlimit="10" stroke-linecap="round" stroke-linejoin="round"/>
<path d="M307.535 219.35C307.535 219.35 277.328 228.207 276.79 229.82C276.254 231.434 280.393 336.331 280.393 336.331C280.393 336.331 288.45 348.706 310.476 350.59C332.501 352.473 353.451 340.904 353.451 340.904L367.955 245.398C367.955 245.398 333.306 221.722 330.889 221.185C328.473 220.648 314.25 217.466 307.535 219.35Z" fill="white" stroke="#263238" stroke-width="1.15538" stroke-miterlimit="10" stroke-linecap="round" stroke-linejoin="round"/>
<path d="M305.449 239.522L312.625 257.145L324.895 243.232C324.895 243.232 323.969 234.42 315.867 233.493C307.764 232.565 305.449 239.522 305.449 239.522Z" fill="#263238" stroke="#263238" stroke-width="1.15538" stroke-miterlimit="10" stroke-linecap="round" stroke-linejoin="round"/>
<path d="M307.53 219.349L294.797 239.523C294.797 239.523 302.205 237.668 305.678 240.682C309.15 243.696 313.086 246.943 313.086 246.943C313.086 246.943 319.104 242.074 323.967 243.696C328.828 245.319 333.227 248.798 333.227 248.798C333.227 248.798 336.236 228.857 332.3 219.813C328.366 210.77 315.865 207.524 307.53 219.349Z" fill="white" stroke="#263238" stroke-width="1.15538" stroke-miterlimit="10" stroke-linecap="round" stroke-linejoin="round"/>
<path d="M310.768 221.668C310.768 221.668 310.073 231.871 310.536 239.291C310.998 246.711 313.313 248.335 316.092 243.464C318.869 238.595 325.121 223.755 325.121 219.581C325.121 215.407 325.584 211.697 325.584 211.697C325.584 211.697 315.861 222.131 310.768 221.668Z" fill="white" stroke="#263238" stroke-width="1.15538" stroke-miterlimit="10" stroke-linecap="round" stroke-linejoin="round"/>
<path d="M312.625 257.145L300.586 318.593L308.689 338.997L318.645 322.303L312.625 257.145Z" fill="#263238" stroke="#263238" stroke-width="1.15538" stroke-miterlimit="10" stroke-linecap="round" stroke-linejoin="round"/>
<path d="M336.265 313.196C336.265 313.196 309.137 296.785 306.72 294.632C304.303 292.48 304.303 294.093 302.422 295.17C300.542 296.246 293.559 304.586 292.216 307.276C290.873 309.966 288.725 313.733 291.41 314.27C294.095 314.809 296.244 309.697 296.244 308.889C296.244 308.082 300.273 303.509 300.273 303.509C300.273 303.509 296.244 313.194 297.587 314.002C298.929 314.809 308.062 318.575 309.941 318.575C311.82 318.575 313.165 315.078 313.165 315.078C313.165 315.078 315.851 318.575 318.537 318.306C321.223 318.038 323.103 316.693 323.103 316.693L332.234 323.957L336.265 313.196Z" fill="white" stroke="#263238" stroke-width="1.15538" stroke-miterlimit="10" stroke-linecap="round" stroke-linejoin="round"/>
<path d="M336.264 313.194C336.264 313.194 332.887 311.152 328.416 308.416L324.439 317.754L332.235 323.954L336.264 313.194Z" fill="white" stroke="#263238" stroke-width="1.15538" stroke-miterlimit="10" stroke-linecap="round" stroke-linejoin="round"/>
<path d="M301.078 315.885C301.078 315.885 301.884 307.275 305.376 302.433" stroke="#263238" stroke-width="1.15538" stroke-miterlimit="10" stroke-linecap="round" stroke-linejoin="round"/>
<path d="M305.645 316.962C305.645 316.962 307.525 309.428 311.285 305.124" stroke="#263238" stroke-width="1.15538" stroke-miterlimit="10" stroke-linecap="round" stroke-linejoin="round"/>
<path d="M356.671 250.241C356.671 250.241 346.464 258.581 344.046 272.033L360.967 320.19C360.967 320.19 340.823 311.849 338.404 311.58C335.987 311.312 327.392 323.149 329.809 325.839C332.226 328.529 379.498 355.164 382.453 351.665C385.408 348.168 370.367 252.931 368.754 249.433C367.143 245.936 368.216 244.053 362.576 243.245" fill="white"/>
<path d="M356.671 250.241C356.671 250.241 346.464 258.581 344.046 272.033L360.967 320.19C360.967 320.19 340.823 311.849 338.404 311.58C335.987 311.312 327.392 323.149 329.809 325.839C332.226 328.529 379.498 355.164 382.453 351.665C385.408 348.168 370.367 252.931 368.754 249.433C367.143 245.936 368.216 244.053 362.576 243.245" stroke="#263238" stroke-width="1.15538" stroke-miterlimit="10" stroke-linecap="round" stroke-linejoin="round"/>
<path d="M360.971 320.189C360.971 320.189 370.641 322.342 373.326 327.454L360.971 320.189Z" fill="white"/>
<path d="M360.971 320.189C360.971 320.189 370.641 322.342 373.326 327.454" stroke="#263238" stroke-width="1.15538" stroke-miterlimit="10" stroke-linecap="round" stroke-linejoin="round"/>
<path d="M252.832 280.522L274.411 328.851C274.628 329.336 275.023 329.719 275.512 329.921L306.382 342.613C308.047 343.298 309.729 341.671 309.105 339.981L291.833 293.226C291.219 291.56 289.902 290.25 288.233 289.645L255.421 277.733C253.708 277.109 252.088 278.854 252.832 280.522Z" fill="#020D3A" stroke="#263238" stroke-width="1.15538" stroke-miterlimit="10" stroke-linecap="round" stroke-linejoin="round"/>
<path d="M260.961 306.267C259.659 306.007 258.467 307.062 258.589 308.385C258.66 309.16 258.861 309.912 259.338 310.253C260.518 311.097 269.452 311.773 269.115 310.084C268.849 308.762 264.241 306.922 260.961 306.267Z" fill="white" stroke="#263238" stroke-width="1.15538" stroke-miterlimit="10" stroke-linecap="round" stroke-linejoin="round"/>
<path d="M258.141 303.009C256.597 302.701 255.184 303.951 255.329 305.52C255.413 306.441 255.653 307.332 256.216 307.735C257.615 308.735 268.207 309.537 267.807 307.534C267.494 305.966 262.03 303.785 258.141 303.009Z" fill="white" stroke="#263238" stroke-width="1.15538" stroke-miterlimit="10" stroke-linecap="round" stroke-linejoin="round"/>
<path d="M257.307 298.221C255.628 297.886 254.089 299.246 254.248 300.953C254.339 301.954 254.6 302.924 255.214 303.362C256.736 304.45 268.259 305.322 267.823 303.144C267.483 301.439 261.54 299.065 257.307 298.221Z" fill="white" stroke="#263238" stroke-width="1.15538" stroke-miterlimit="10" stroke-linecap="round" stroke-linejoin="round"/>
<path d="M255.564 293.648C253.885 293.313 252.346 294.673 252.503 296.38C252.595 297.38 252.856 298.351 253.469 298.789C254.991 299.877 266.515 300.748 266.079 298.571C265.74 296.866 259.795 294.491 255.564 293.648Z" fill="white" stroke="#263238" stroke-width="1.15538" stroke-miterlimit="10" stroke-linecap="round" stroke-linejoin="round"/>
<path d="M296.082 186.788C296.082 186.788 297.88 205.253 301.927 213.809C305.973 222.366 307.323 226.42 311.369 226.42C315.415 226.42 323.06 220.565 326.657 215.16C330.254 209.755 331.602 207.053 331.602 207.053L332.502 204.801C332.502 204.801 338.796 200.298 340.146 197.145C341.495 193.992 338.798 191.74 333.852 194.443C333.852 194.443 335.651 180.482 332.053 171.925C328.456 163.369 301.028 171.475 296.082 186.788Z" fill="white" stroke="#263238" stroke-width="1.15538" stroke-miterlimit="10"/>
<path d="M291.172 193.794L321.556 200.009C321.556 200.009 321.77 204.725 318.56 206.225C315.351 207.725 311.285 206.868 308.931 204.725C306.577 202.581 306.577 198.509 306.577 198.509C306.577 198.509 304.651 197.009 304.437 198.509C304.269 199.697 302.891 203.571 298.503 203.433C295.628 203.342 293.083 201.381 292.117 198.668C291.677 197.425 291.307 195.823 291.172 193.794Z" fill="white" stroke="#263238" stroke-width="1.15538" stroke-miterlimit="10" stroke-linecap="round" stroke-linejoin="round"/>
<path d="M321.559 200.01L334.182 193.366" stroke="#263238" stroke-width="1.15538" stroke-miterlimit="10" stroke-linecap="round" stroke-linejoin="round"/>
<path d="M291.172 193.794L296.093 191.865" stroke="#263238" stroke-width="1.15538" stroke-miterlimit="10" stroke-linecap="round" stroke-linejoin="round"/>
<path d="M304.655 199.795L302.516 207.725L305.083 208.368L305.725 214.583L309.791 213.512" fill="white"/>
<path d="M304.655 199.795L302.516 207.725L305.083 208.368L305.725 214.583L309.791 213.512" stroke="#263238" stroke-width="1.15538" stroke-miterlimit="10" stroke-linecap="round" stroke-linejoin="round"/>
<path d="M309.124 157.063C309.124 157.063 291.139 171.025 289.34 179.581C287.541 188.137 299.231 191.74 306.875 190.389C314.52 189.039 325.76 181.833 325.76 181.833C325.76 181.833 319.465 191.74 324.411 192.192C329.356 192.641 331.156 192.192 331.156 192.192C331.156 192.192 328.458 197.596 330.707 197.596C332.955 197.596 333.855 194.443 333.855 194.443C333.855 194.443 340.149 179.581 338.351 166.071C336.552 152.559 319.914 148.505 309.124 157.063Z" fill="#263238" stroke="#263238" stroke-width="1.15538" stroke-miterlimit="10"/>
</svg>
