<svg width="395" height="245" viewBox="0 0 395 245" fill="none" xmlns="http://www.w3.org/2000/svg">
<path d="M273.879 16.2289L260.079 207.803C259.664 213.574 264.005 218.59 269.777 219.006L364.205 225.807C369.976 226.223 374.992 221.882 375.407 216.11L389.207 24.5362C389.622 18.7649 385.281 13.7493 379.51 13.3336L285.081 6.5318C279.31 6.11608 274.295 10.4576 273.879 16.2289Z" fill="white"/>
<path d="M314.371 17.9137C314.076 21.9059 310.611 24.9054 306.64 24.6097C302.669 24.3139 299.649 20.8498 299.944 16.8787C300.24 12.8864 303.704 9.88699 307.675 10.1827C311.668 10.4784 314.667 13.9426 314.371 17.9137Z" fill="#020D3A"/>
<path d="M311.053 63.8356C310.757 67.8278 307.293 70.8272 303.322 70.5315C299.33 70.2358 296.33 66.7716 296.626 62.8005C296.922 58.8083 300.386 55.8089 304.357 56.1046C308.349 56.4003 311.349 59.8645 311.053 63.8356Z" fill="#020D3A"/>
<path d="M290.692 39.2902C290.396 43.2824 286.932 46.2818 282.961 45.9861C278.99 45.6904 275.969 42.2262 276.265 38.2551C276.561 34.2629 280.025 31.2635 283.996 31.5592C287.967 31.8549 290.988 35.3191 290.692 39.2902Z" fill="#020D3A"/>
<path d="M361.96 21.3361C361.664 25.3283 358.2 28.3277 354.229 28.032C350.258 27.7363 347.237 24.2721 347.533 20.301C347.829 16.3088 351.293 13.3094 355.264 13.6051C359.256 13.9008 362.256 17.365 361.96 21.3361Z" fill="#020D3A"/>
<path d="M358.664 67.2565C358.369 71.2487 354.904 74.2481 350.933 73.9524C346.941 73.6567 343.942 70.1926 344.237 66.2215C344.533 62.2292 347.997 59.2298 351.968 59.5255C355.961 59.8212 358.96 63.2854 358.664 67.2565Z" fill="#020D3A"/>
<path d="M334.733 42.4591C334.437 46.4513 330.973 49.4508 327.002 49.155C323.01 48.8593 320.011 45.3951 320.306 41.424C320.602 37.4318 324.066 34.4324 328.037 34.7281C332.029 35.0238 335.029 38.488 334.733 42.4591Z" fill="#020D3A"/>
<path d="M385.913 46.1559C385.618 50.1481 382.154 53.1475 378.182 52.8518C374.19 52.5561 371.191 49.0919 371.486 45.1208C371.782 41.1286 375.246 38.1292 379.217 38.4249C383.21 38.7206 386.209 42.1848 385.913 46.1559Z" fill="#020D3A"/>
<path d="M368.171 91.0203C368.466 87.0281 371.93 84.0286 375.901 84.3243C379.873 84.62 382.893 88.0842 382.597 92.0553C382.302 96.0475 378.838 99.047 374.866 98.7513C370.874 98.4556 367.875 94.9914 368.171 91.0203Z" fill="#020D3A"/>
<path d="M266.358 175.913C266.654 171.921 270.118 168.922 274.089 169.217C278.081 169.513 281.081 172.977 280.785 176.948C280.489 180.941 277.025 183.94 273.054 183.644C269.062 183.349 266.062 179.884 266.358 175.913Z" fill="#020D3A"/>
<path d="M352.054 159.014C351.758 163.007 348.294 166.006 344.323 165.71C340.331 165.414 337.331 161.95 337.627 157.979C337.923 153.987 341.387 150.988 345.358 151.283C349.35 151.579 352.35 155.043 352.054 159.014Z" fill="#020D3A"/>
<path d="M379.3 137.891C379.005 141.883 375.541 144.883 371.569 144.587C367.598 144.291 364.578 140.827 364.874 136.856C365.169 132.864 368.633 129.865 372.604 130.16C376.597 130.456 379.596 133.92 379.3 137.891Z" fill="#020D3A"/>
<path d="M361.559 182.778C361.855 178.786 365.319 175.786 369.29 176.082C373.282 176.378 376.282 179.842 375.986 183.813C375.69 187.805 372.226 190.805 368.255 190.509C364.263 190.213 361.263 186.749 361.559 182.778Z" fill="#020D3A"/>
<path d="M310.378 179.102C310.674 175.11 314.138 172.111 318.109 172.406C322.101 172.702 325.101 176.166 324.805 180.137C324.509 184.13 321.045 187.129 317.074 186.833C313.082 186.538 310.082 183.073 310.378 179.102Z" fill="#020D3A"/>
<path d="M301.147 201.514C300.851 205.506 297.387 208.505 293.416 208.21C289.424 207.914 286.425 204.45 286.72 200.479C287.016 196.487 290.48 193.487 294.451 193.783C298.444 194.079 301.443 197.543 301.147 201.514Z" fill="#020D3A"/>
<path d="M348.758 204.936C348.462 208.928 344.998 211.928 341.027 211.632C337.035 211.336 334.035 207.872 334.331 203.901C334.627 199.909 338.091 196.909 342.062 197.205C346.054 197.501 349.054 200.965 348.758 204.936Z" fill="#020D3A"/>
<path d="M364.939 231.593C364.559 231.593 364.158 231.593 363.756 231.551L269.316 224.75C260.36 224.116 253.6 216.3 254.255 207.344L268.049 15.7597C268.682 6.80363 276.498 0.0442981 285.454 0.699108L379.894 7.50068C388.85 8.13437 395.61 15.9498 394.955 24.9059L381.162 216.491C380.549 225.045 373.388 231.593 364.939 231.593ZM284.292 12.2533C283.172 12.2533 282.095 12.6547 281.25 13.394C280.3 14.2178 279.73 15.3373 279.645 16.5836L265.852 208.168C265.767 209.414 266.169 210.618 266.971 211.569C267.795 212.519 268.915 213.09 270.161 213.174L364.601 219.976C367.157 220.166 369.417 218.223 369.586 215.646L383.38 24.061C383.57 21.484 381.626 19.245 379.049 19.076L284.609 12.2745C284.503 12.2745 284.377 12.2745 284.271 12.2745L284.292 12.2533Z" fill="#020D3A"/>
<path d="M327.623 168.855C351.198 165.601 366.805 137.584 362.484 106.278C358.162 74.9723 335.547 52.2321 311.972 55.4866C288.398 58.7411 272.79 86.7578 277.112 118.064C281.434 149.37 304.048 172.11 327.623 168.855Z" fill="#020D3A"/>
<path d="M109.998 6.46205L15.5695 13.2639C9.79821 13.6796 5.45663 18.6952 5.87235 24.4665L19.6718 216.041C20.0875 221.812 25.1031 226.153 30.8744 225.738L125.303 218.936C131.074 218.52 135.415 213.505 135 207.733L121.2 16.1592C120.785 10.3879 115.769 6.04633 109.998 6.46205Z" fill="#020D3A"/>
<path d="M123.607 50.3368L15.4793 158.486L15.0991 153.374L123.248 45.2251L123.607 50.3368Z" fill="#FFFFF6"/>
<path d="M121.559 21.9257L13.4309 130.054L13.0718 124.963L121.2 16.814L121.559 21.9257Z" fill="#FFFFF6"/>
<path d="M106.288 6.76025L11.383 101.644L11.0239 96.5536L100.395 7.18271L106.288 6.76025Z" fill="#FFFFF6"/>
<path d="M73.4613 9.12646L9.35334 73.2344L8.97314 68.1227L67.568 9.54892L73.4613 9.12646Z" fill="#FFFFF6"/>
<path d="M40.6369 11.4922L7.28389 44.8241L6.9248 39.7124L34.7436 11.8935L40.6369 11.4922Z" fill="#FFFFF6"/>
<path d="M133.83 192.346L105.8 220.376L99.8853 220.799L133.471 187.234L133.83 192.346Z" fill="#FFFFF6"/>
<path d="M131.783 163.915L72.9768 222.743L67.0835 223.165L131.424 158.825L131.783 163.915Z" fill="#FFFFF6"/>
<path d="M129.755 135.504L40.1727 225.086L34.2583 225.53L129.375 130.414L129.755 135.504Z" fill="#FFFFF6"/>
<path d="M127.704 107.094L19.5549 215.243L19.1958 210.132L127.324 101.982L127.704 107.094Z" fill="#FFFFF6"/>
<path d="M125.656 78.6835L17.5065 186.833L17.1475 181.721L125.297 73.5718L125.656 78.6835Z" fill="#FFFFF6"/>
<path d="M30.0568 231.593C21.6076 231.593 14.447 225.045 13.8344 216.49L0.0411572 24.9058C-0.592529 15.9497 6.16681 8.15537 15.1018 7.50056L109.542 0.698986C118.498 0.0441765 126.293 6.82463 126.947 15.7596L140.741 207.344C141.058 211.674 139.663 215.878 136.812 219.173C133.96 222.468 130.01 224.433 125.68 224.749L31.2397 231.551C30.8383 231.572 30.4581 231.593 30.0568 231.593ZM110.704 12.2532C110.598 12.2532 110.472 12.2532 110.366 12.2532L15.9256 19.0548C13.3486 19.2449 11.4264 21.4839 11.5954 24.0398L25.3886 215.624C25.4731 216.871 26.0435 218.011 26.994 218.814C27.9445 219.638 29.1485 220.039 30.3736 219.933L124.814 213.132C126.06 213.047 127.201 212.477 128.004 211.527C128.827 210.576 129.229 209.372 129.123 208.126L115.33 16.5412C115.161 14.0909 113.091 12.211 110.683 12.211L110.704 12.2532Z" fill="white"/>
<path d="M117.921 118.077C122.242 86.7714 106.635 58.7547 83.06 55.5002C59.4853 52.2457 36.8707 74.9859 32.5489 106.292C28.2271 137.598 43.8347 165.614 67.4095 168.869C90.9842 172.123 113.599 149.383 117.921 118.077Z" fill="white"/>
<path d="M202.926 206.965C185.204 206.965 168.221 196.847 160.343 179.674C149.549 156.164 159.857 128.366 183.345 117.573L279.159 73.5735C302.669 62.7797 330.466 73.0877 341.26 96.5764C352.054 120.086 341.746 147.884 318.257 158.678L222.444 202.677C216.107 205.592 209.474 206.965 202.926 206.965Z" fill="white"/>
<path d="M262.133 158.719L203.074 118.86C203.074 118.86 158.631 94.1676 153.604 91.6751C142.852 86.331 129.566 80.4799 113.745 74.9246C89.348 66.3276 62.6065 79.1492 54.0306 103.546C45.4336 127.943 58.2551 154.685 82.6521 163.26C102.803 170.358 116.723 177.751 124.137 182.144L124.243 184.468L133.22 190.72L205.693 239.641C211.375 243.485 219.106 242.007 222.929 236.303C226.288 231.318 225.548 224.749 221.472 220.63C226.921 223.186 233.554 221.496 237.018 216.342C240.609 210.998 239.511 203.88 234.674 199.845C240.292 203.183 247.601 201.62 251.276 196.107C254.783 190.91 253.811 184.003 249.269 179.926C254.825 182.947 261.88 181.321 265.492 175.955C269.336 170.273 267.836 162.542 262.154 158.719H262.133Z" fill="#020D3A"/>
<path d="M235.562 202.232C235.182 202.232 234.823 202.127 234.485 201.894L191.69 173.104C190.803 172.512 190.57 171.308 191.162 170.421C191.753 169.534 192.957 169.302 193.844 169.893L236.639 198.684C237.526 199.275 237.759 200.479 237.167 201.366C236.787 201.915 236.175 202.211 235.562 202.211V202.232Z" fill="white"/>
<path d="M220.501 222.258C220.121 222.258 219.762 222.152 219.424 221.92L175.742 192.495C174.855 191.904 174.623 190.7 175.214 189.813C175.805 188.926 177.009 188.693 177.897 189.285L221.579 218.709C222.466 219.3 222.698 220.504 222.107 221.392C221.727 221.941 221.114 222.236 220.501 222.236V222.258Z" fill="white"/>
<path d="M249.143 181.659C248.763 181.659 248.404 181.554 248.066 181.321L201.807 150.08C200.92 149.489 200.687 148.285 201.279 147.398C201.87 146.511 203.074 146.278 203.961 146.87L250.221 178.11C251.108 178.702 251.34 179.906 250.749 180.793C250.369 181.342 249.756 181.638 249.143 181.638V181.659Z" fill="white"/>
<path d="M255.966 93.1755C258.818 95.2245 260.93 98.3295 261.627 102.068C263.063 109.736 263.824 121.354 256.156 122.79C252.354 125.726 241.539 133.267 225.824 133.795C213.699 134.196 204.49 130.204 200.138 127.944C190.084 129.824 180.05 131.704 169.996 133.584C162.328 135.02 154.935 129.972 153.499 122.283C152.063 114.615 157.111 107.222 164.8 105.786L245.151 90.7464C249.101 90.0071 252.967 90.9788 255.987 93.1545L255.966 93.1755Z" fill="white"/>
<path d="M222.888 136.056C212.834 136.056 202.483 131.303 199.843 129.972L172.214 135.718C171.179 135.95 170.144 135.274 169.933 134.218C169.722 133.162 170.377 132.148 171.433 131.937L199.716 126.044C200.16 125.959 200.604 126.022 201.005 126.234C201.153 126.318 215.918 133.965 227.261 131.789C228.317 131.599 229.331 132.275 229.521 133.331C229.732 134.387 229.035 135.401 227.979 135.591C226.31 135.908 224.599 136.056 222.867 136.056H222.888Z" fill="white"/>
<path d="M139.283 169.407C133.706 165.373 125.912 166.619 121.878 172.195L115.836 180.539C111.802 186.115 113.048 193.91 118.625 197.944C124.201 201.979 131.995 200.732 136.03 195.156L142.071 186.813C146.106 181.236 144.859 173.442 139.283 169.407Z" fill="white"/>
<path d="M197.921 216.004C192.345 211.97 184.551 213.216 180.516 218.793L176.439 224.411C172.405 229.988 173.651 237.782 179.228 241.817C184.804 245.851 192.598 244.605 196.633 239.028L200.71 233.41C204.744 227.833 203.498 220.039 197.921 216.004Z" fill="white"/>
<path d="M176.415 224.411L189.089 206.9C193.123 201.324 191.877 193.529 186.301 189.495C180.724 185.46 172.93 186.707 168.896 192.283L166.065 196.191C170.099 190.614 168.853 182.82 163.277 178.786C157.7 174.751 149.906 175.997 145.872 181.574L136.028 195.177C131.994 200.753 133.24 208.548 138.817 212.582C144.393 216.617 152.187 215.37 156.222 209.794C152.187 215.37 153.434 223.165 159.01 227.199C164.586 231.234 172.381 229.988 176.415 224.411Z" fill="white"/>
<path d="M134.974 198.559C134.572 198.559 134.192 198.432 133.833 198.2C132.967 197.566 132.777 196.362 133.411 195.496L141.796 183.92C142.43 183.054 143.634 182.864 144.5 183.498C145.366 184.132 145.556 185.336 144.923 186.202L136.537 197.777C136.157 198.305 135.565 198.58 134.974 198.58V198.559Z" fill="white"/>
<path d="M155.548 212.669C155.147 212.669 154.766 212.542 154.407 212.309C153.541 211.676 153.351 210.472 153.985 209.606L164.969 194.439C165.602 193.573 166.806 193.383 167.672 194.017C168.538 194.651 168.729 195.855 168.095 196.721L157.111 211.887C156.731 212.415 156.139 212.69 155.548 212.69V212.669Z" fill="white"/>
<path d="M175.361 227.814C174.96 227.814 174.58 227.687 174.221 227.455C173.355 226.821 173.165 225.617 173.798 224.751L181.36 214.316C181.994 213.45 183.198 213.26 184.064 213.894C184.93 214.528 185.12 215.732 184.486 216.598L176.924 227.032C176.544 227.561 175.953 227.835 175.361 227.835V227.814Z" fill="white"/>
</svg>
