<svg width="25" height="26" viewBox="0 0 25 26" fill="none" xmlns="http://www.w3.org/2000/svg">
<g clip-path="url(#clip0_1293_13044)">
<path d="M12.502 25.5C12.1782 25.5 11.8677 25.3714 11.6388 25.1425C11.4099 24.9135 11.2813 24.603 11.2812 24.2793V1.7207C11.2812 1.39695 11.4099 1.08646 11.6388 0.857536C11.8677 0.628609 12.1782 0.5 12.502 0.5C12.8257 0.5 13.1362 0.628609 13.3651 0.857536C13.594 1.08646 13.7227 1.39695 13.7227 1.7207V24.2793C13.7227 24.603 13.594 24.9135 13.3651 25.1425C13.1362 25.3714 12.8257 25.5 12.502 25.5Z" fill="white"/>
<path d="M23.7793 14.2207H1.2207C0.896953 14.2207 0.586462 14.0921 0.357536 13.8632C0.128609 13.6342 0 13.3238 0 13C0 12.6762 0.128609 12.3658 0.357536 12.1368C0.586462 11.9079 0.896953 11.7793 1.2207 11.7793H23.7793C24.103 11.7793 24.4135 11.9079 24.6425 12.1368C24.8714 12.3658 25 12.6762 25 13C25 13.3238 24.8714 13.6342 24.6425 13.8632C24.4135 14.0921 24.103 14.2207 23.7793 14.2207Z" fill="white"/>
</g>
<defs>
<clipPath id="clip0_1293_13044">
<rect width="25" height="25" fill="white" transform="translate(0 0.5)"/>
</clipPath>
</defs>
</svg>
