<svg width="25" height="25" viewBox="0 0 25 25" fill="none" xmlns="http://www.w3.org/2000/svg">
<path d="M18.5448 12.6412C18.4723 12.5671 18.3858 12.5081 18.2903 12.4678C18.1947 12.4275 18.0922 12.4065 17.9885 12.4063C17.8848 12.406 17.7821 12.4263 17.6864 12.4661C17.5906 12.5059 17.5038 12.5644 17.4309 12.6381C17.358 12.7118 17.3005 12.7993 17.2617 12.8955C17.223 12.9917 17.2037 13.0946 17.2052 13.1982C17.2066 13.3019 17.2286 13.4043 17.27 13.4993C17.3114 13.5944 17.3713 13.6803 17.4462 13.7519C18.109 14.4042 18.6349 15.1822 18.9929 16.0404C19.351 16.8986 19.534 17.8197 19.5313 18.7496C19.5313 19.7051 16.7923 21.0934 12.5 21.0934C8.20777 21.0934 5.46879 19.7044 5.46879 18.748C5.46616 17.8245 5.64673 16.9097 6.00007 16.0564C6.3534 15.2032 6.87247 14.4285 7.52722 13.7772C7.60128 13.705 7.66026 13.6188 7.70075 13.5236C7.74124 13.4284 7.76242 13.3262 7.76308 13.2227C7.76373 13.1193 7.74384 13.0168 7.70457 12.9211C7.66529 12.8254 7.6074 12.7385 7.53427 12.6654C7.46113 12.5922 7.37421 12.5343 7.27853 12.4951C7.18285 12.4558 7.08032 12.4359 6.97689 12.4366C6.87347 12.4372 6.7712 12.4584 6.67602 12.4989C6.58085 12.5394 6.49466 12.5984 6.42246 12.6724C5.62201 13.4687 4.98746 14.4158 4.55556 15.4589C4.12365 16.5021 3.90297 17.6206 3.90629 18.7496C3.90629 21.2868 8.33363 22.6559 12.5 22.6559C16.6664 22.6559 21.0938 21.2868 21.0938 18.7496C21.0973 17.613 20.8736 16.4871 20.4358 15.4381C19.9981 14.3891 19.3552 13.4382 18.5448 12.6412Z" fill="#020D3A"/>
<path d="M12.5 13.2813C13.5816 13.2813 14.6389 12.9605 15.5383 12.3596C16.4376 11.7587 17.1385 10.9046 17.5525 9.9053C17.9664 8.90602 18.0747 7.80644 17.8637 6.7456C17.6527 5.68477 17.1318 4.71033 16.367 3.94551C15.6022 3.18069 14.6277 2.65985 13.5669 2.44883C12.5061 2.23782 11.4065 2.34612 10.4072 2.76004C9.40792 3.17395 8.55381 3.8749 7.9529 4.77423C7.35199 5.67356 7.03125 6.73089 7.03125 7.8125C7.03292 9.26239 7.60963 10.6524 8.63486 11.6776C9.66009 12.7029 11.0501 13.2796 12.5 13.2813ZM12.5 3.90625C13.2726 3.90625 14.0278 4.13535 14.6702 4.56457C15.3126 4.9938 15.8132 5.60387 16.1089 6.31765C16.4046 7.03142 16.4819 7.81684 16.3312 8.57457C16.1805 9.33231 15.8084 10.0283 15.2621 10.5746C14.7158 11.1209 14.0198 11.493 13.2621 11.6437C12.5043 11.7944 11.7189 11.7171 11.0051 11.4214C10.2914 11.1258 9.6813 10.6251 9.25207 9.9827C8.82285 9.34032 8.59375 8.58509 8.59375 7.8125C8.59497 6.77688 9.00691 5.78401 9.73921 5.05171C10.4715 4.31941 11.4644 3.90747 12.5 3.90625Z" fill="#020D3A"/>
</svg>
