<svg width="394" height="366" viewBox="0 0 394 366" fill="none" xmlns="http://www.w3.org/2000/svg">
<path d="M41.1392 201.473C39.7198 201.883 38.6772 203.799 38.6772 203.799C38.6772 203.799 37.6261 201.9 36.2047 201.513C32.0902 200.393 30.2516 203.941 31.8274 207.214C33.3466 210.373 38.7012 214.172 38.7012 214.172C38.7012 214.172 44.0376 210.287 45.5424 207.104C47.1038 203.805 45.2489 200.288 41.1392 201.473Z" fill="#20E086"/>
<path d="M21.7823 197.767C20.875 198.029 20.2094 199.253 20.2094 199.253C20.2094 199.253 19.537 198.04 18.6297 197.792C16.0009 197.077 14.825 199.344 15.8321 201.436C16.8036 203.454 20.2247 205.882 20.2247 205.882C20.2247 205.882 23.6352 203.4 24.5972 201.365C25.5937 199.258 24.4083 197.01 21.7823 197.767Z" fill="#20E086"/>
<path d="M34.1187 179.479C32.6992 179.889 31.6567 181.805 31.6567 181.805C31.6567 181.805 30.6055 179.906 29.1842 179.519C25.0697 178.399 23.2311 181.947 24.8069 185.22C26.3261 188.379 31.6807 192.178 31.6807 192.178C31.6807 192.178 37.0171 188.293 38.5219 185.11C40.0823 181.811 38.2274 178.294 34.1187 179.479Z" fill="#20E086"/>
<path d="M48.8194 241.418C47.4527 240.661 46.0295 240.043 44.5679 239.566C44.5583 239.701 44.5622 239.833 44.5372 239.969C44.1555 242.062 42.0753 243.49 39.8906 243.157C37.7059 242.824 36.2443 240.856 36.626 238.763C36.6529 238.615 36.7066 238.48 36.7497 238.338C35.174 238.34 33.5993 238.487 32.0494 238.778C32.1166 238.904 32.1933 239.024 32.2451 239.161C33.0075 241.141 31.9363 243.36 29.8542 244.119C27.7711 244.877 25.4656 243.887 24.7031 241.907C24.6437 241.752 24.6149 241.594 24.5765 241.437C23.2041 242.185 21.895 243.066 20.6684 244.079C20.8084 244.164 20.9532 244.24 21.0837 244.342C22.785 245.678 23.0104 248.095 21.5881 249.741C20.1659 251.388 17.633 251.64 15.9317 250.305C15.783 250.188 15.6593 250.053 15.5327 249.921C14.6945 251.264 14.0088 252.662 13.4765 254.095C13.6654 254.098 13.8534 254.097 14.0452 254.126C16.2299 254.459 17.6915 256.427 17.3098 258.52C16.9281 260.613 14.8479 262.041 12.6632 261.708C12.4551 261.676 12.2604 261.617 12.0667 261.557C12.0408 263.1 12.1712 264.64 12.4628 266.153C12.6402 266.056 12.8176 265.961 13.0133 265.89C15.0963 265.131 17.4019 266.122 18.1643 268.101C18.9268 270.081 17.8555 272.3 15.7734 273.059C15.5624 273.135 15.3486 273.182 15.1356 273.224C15.9144 274.551 16.8399 275.813 17.9102 276.989C18.0176 276.815 18.1279 276.642 18.2669 276.481C19.6892 274.834 22.2221 274.582 23.9234 275.917C25.6248 277.252 25.8501 279.669 24.4279 281.316C24.2831 281.484 24.1191 281.628 23.9531 281.766C25.3649 282.551 26.8389 283.183 28.3513 283.667C28.3552 283.466 28.36 283.266 28.3974 283.062C28.7791 280.969 30.8593 279.541 33.044 279.875C35.2287 280.208 36.6903 282.174 36.3086 284.269C36.2712 284.474 36.205 284.667 36.1369 284.858C37.751 284.85 39.3641 284.69 40.9494 284.38C40.8554 284.215 40.7595 284.051 40.6895 283.871C39.9271 281.891 40.9983 279.671 43.0804 278.913C45.1635 278.155 47.469 279.145 48.2315 281.124C48.3005 281.305 48.3389 281.488 48.3782 281.672C49.7564 280.907 51.0703 280.007 52.2988 278.973C52.1463 278.884 51.9919 278.8 51.85 278.689C50.1486 277.354 49.9232 274.937 51.3455 273.29C52.7678 271.643 55.3006 271.391 57.002 272.726C57.141 272.835 57.2542 272.961 57.3722 273.084C58.1893 271.747 58.8568 270.357 59.3737 268.933C59.2126 268.927 59.0515 268.931 58.8884 268.906C56.7037 268.573 55.2421 266.606 55.6238 264.512C56.0055 262.419 58.0857 260.991 60.2704 261.324C60.4306 261.349 60.5783 261.399 60.7308 261.441C60.7432 259.935 60.6032 258.432 60.3126 256.956C60.1822 257.019 60.0594 257.092 59.9194 257.143C57.8364 257.901 55.5308 256.911 54.7684 254.931C54.0059 252.952 55.0772 250.733 57.1602 249.973C57.3031 249.921 57.4479 249.897 57.5918 249.862C56.8303 248.581 55.9298 247.363 54.8959 246.224C54.8192 246.333 54.7559 246.448 54.6657 246.551C53.2435 248.198 50.7106 248.45 49.0093 247.115C47.3079 245.78 47.0825 243.363 48.5048 241.716C48.6017 241.604 48.7139 241.516 48.8194 241.418ZM46.8821 249.442C53.8151 254.883 54.7348 264.733 48.9373 271.443C43.1399 278.154 32.8196 279.182 25.8866 273.74C18.9536 268.299 18.0339 258.449 23.8313 251.738C29.6288 245.028 39.9491 244 46.8821 249.442Z" fill="#20E086"/>
<path d="M21.4781 272.42C27.5987 280.194 39.2713 281.662 47.498 275.694C55.7247 269.726 57.4386 258.546 51.3179 250.771C45.1973 242.996 33.5256 241.526 25.2989 247.495C17.0722 253.464 15.3584 264.645 21.4781 272.42ZM28.9423 252.123C34.4693 248.114 42.3105 249.101 46.422 254.324C50.5334 259.547 49.3825 267.057 43.8555 271.067C38.3285 275.077 30.4874 274.09 26.375 268.868C22.2635 263.645 23.4153 256.133 28.9423 252.123Z" fill="#20E086"/>
<path d="M27.6199 250.441C34.1261 245.721 43.357 246.883 48.1973 253.031C53.0376 259.179 51.6815 268.021 45.1763 272.742C38.6701 277.462 29.4393 276.3 24.5989 270.152C19.7577 264.004 21.1138 255.161 27.6199 250.441Z" stroke="#020D3A" stroke-width="0.5" stroke-miterlimit="10" stroke-linecap="round"/>
<path d="M89.56 235.721C88.4648 235.114 87.3235 234.618 86.1525 234.237C86.1449 234.344 86.1477 234.45 86.1276 234.56C85.8216 236.237 84.1548 237.381 82.4036 237.114C80.6524 236.847 79.4814 235.27 79.7873 233.592C79.8084 233.474 79.8516 233.365 79.8871 233.252C78.624 233.254 77.3619 233.371 76.1199 233.604C76.1736 233.706 76.235 233.802 76.2772 233.911C76.8881 235.498 76.0298 237.276 74.361 237.884C72.6913 238.492 70.8432 237.698 70.2333 236.112C70.1853 235.987 70.1623 235.861 70.1326 235.735C69.0325 236.335 67.9833 237.042 67.0003 237.853C67.1125 237.921 67.2286 237.982 67.3331 238.064C68.6969 239.134 68.8772 241.072 67.7369 242.391C66.5965 243.711 64.5672 243.913 63.2034 242.843C63.0836 242.75 62.9848 242.641 62.8841 242.535C62.2118 243.612 61.6632 244.732 61.2355 245.88C61.387 245.883 61.5376 245.882 61.691 245.905C63.4422 246.172 64.6132 247.749 64.3083 249.426C64.0023 251.104 62.3355 252.247 60.5843 251.98C60.4174 251.955 60.262 251.907 60.1067 251.859C60.0856 253.096 60.1901 254.33 60.4241 255.543C60.566 255.466 60.7089 255.389 60.8653 255.332C62.535 254.724 64.3831 255.518 64.993 257.104C65.6039 258.691 64.7456 260.469 63.0768 261.077C62.908 261.139 62.7364 261.176 62.5657 261.209C63.19 262.272 63.9314 263.284 64.7897 264.227C64.876 264.088 64.9642 263.949 65.0755 263.82C66.2158 262.5 68.2452 262.298 69.6089 263.368C70.9727 264.438 71.1539 266.375 70.0136 267.695C69.8976 267.83 69.7662 267.944 69.6329 268.056C70.7646 268.685 71.9452 269.191 73.1574 269.58C73.1603 269.42 73.1641 269.258 73.1938 269.095C73.4998 267.417 75.1666 266.273 76.9178 266.54C78.6691 266.807 79.841 268.383 79.5351 270.062C79.5054 270.227 79.4516 270.381 79.397 270.536C80.6907 270.529 81.9835 270.401 83.2543 270.151C83.1785 270.02 83.1018 269.888 83.0462 269.743C82.4352 268.157 83.2936 266.377 84.9633 265.77C86.633 265.162 88.4811 265.955 89.092 267.543C89.1476 267.688 89.1783 267.834 89.21 267.982C90.3148 267.369 91.3678 266.648 92.3518 265.819C92.23 265.747 92.1053 265.68 91.9922 265.59C90.6284 264.52 90.4481 262.583 91.5884 261.263C92.7287 259.944 94.759 259.741 96.1218 260.811C96.2331 260.899 96.3232 261 96.4191 261.097C97.0742 260.026 97.6093 258.912 98.0236 257.77C97.8942 257.765 97.7657 257.769 97.6343 257.749C95.883 257.482 94.712 255.905 95.017 254.227C95.3229 252.549 96.9898 251.405 98.741 251.672C98.8695 251.692 98.9875 251.733 99.1102 251.766C99.1198 250.558 99.0076 249.353 98.7755 248.171C98.671 248.222 98.5732 248.281 98.461 248.321C96.7922 248.929 94.9432 248.135 94.3322 246.548C93.7213 244.962 94.5797 243.183 96.2494 242.575C96.3635 242.534 96.4796 242.515 96.5956 242.486C95.9847 241.459 95.2635 240.483 94.4349 239.57C94.3735 239.657 94.3227 239.748 94.2507 239.832C93.1104 241.151 91.0811 241.354 89.7173 240.284C88.3535 239.214 88.1732 237.276 89.3136 235.957C89.3855 235.871 89.4756 235.8 89.56 235.721ZM88.0073 242.152C93.5641 246.513 94.3016 254.408 89.655 259.785C85.0084 265.163 76.7366 265.988 71.1798 261.627C65.6231 257.266 64.8856 249.371 69.5332 243.993C74.1788 238.615 82.4506 237.791 88.0073 242.152Z" fill="#20E086"/>
<path d="M67.6446 260.57C72.5501 266.802 81.9056 267.978 88.4991 263.195C95.0926 258.411 96.4659 249.451 91.5613 243.219C86.6558 236.988 77.3012 235.809 70.7078 240.593C64.1134 245.378 62.739 254.34 67.6446 260.57ZM73.6262 244.303C78.056 241.089 84.3407 241.88 87.636 246.067C90.9313 250.254 90.0086 256.274 85.5788 259.487C81.149 262.701 74.8643 261.911 71.569 257.724C68.2737 253.537 69.1963 247.517 73.6262 244.303Z" fill="#20E086"/>
<path d="M72.5665 242.956C77.7811 239.173 85.1805 240.105 89.06 245.032C92.9396 249.96 91.8529 257.047 86.6383 260.83C81.4237 264.613 74.0244 263.683 70.1448 258.755C66.2644 253.827 67.352 246.74 72.5665 242.956Z" stroke="#020D3A" stroke-width="0.5" stroke-miterlimit="10" stroke-linecap="round"/>
<path d="M375.538 132.52L363.126 148.681" stroke="#020D3A" stroke-width="0.5" stroke-miterlimit="10"/>
<path d="M364.713 152.22L369.459 146.07" stroke="#020D3A" stroke-width="0.5" stroke-miterlimit="10"/>
<path d="M89.9097 34.4075L90.7863 27.9229L96.724 30.3931L98.3698 23.6747L104.543 26.4815L105.917 19.7484L112.356 22.27L113.919 15.5938" stroke="#020D3A" stroke-width="0.5" stroke-miterlimit="10"/>
<path d="M256.823 364.872C256.823 360.132 260.843 356.29 265.8 356.29C270.758 356.29 274.777 360.132 274.777 364.872" stroke="#020D3A" stroke-width="0.5" stroke-miterlimit="10"/>
<path d="M142.462 346.822C143.116 348.776 142.13 351.095 139.748 351.752C137.656 352.329 136.307 352.363 134.66 354.157C133.575 355.338 132.898 357.1 131.518 357.948C130.291 358.701 128.535 358.846 127.7 357.462C127.181 356.602 127.333 355.496 127.781 354.601C128.23 353.705 128.937 352.957 129.557 352.161C130.599 350.824 131.406 349.335 132.394 347.96C133.382 346.587 134.598 345.297 136.183 344.602C137.767 343.906 139.779 343.916 141.132 344.968C141.79 345.479 142.229 346.127 142.462 346.822Z" stroke="#020D3A" stroke-width="0.5" stroke-miterlimit="10"/>
<path d="M145.012 340.035C145.012 341.215 144.012 342.172 142.777 342.172C141.543 342.172 140.542 341.215 140.542 340.035C140.542 338.855 141.543 337.899 142.777 337.899C144.012 337.898 145.012 338.855 145.012 340.035Z" fill="#020D3A"/>
<path d="M358.983 307.565C356.744 307.565 354.927 305.829 354.927 303.688C354.927 301.547 356.743 299.811 358.983 299.811" fill="#020D3A"/>
<path d="M14.9151 95.0142C14.9151 96.5776 13.5896 97.8448 11.9544 97.8448C10.3191 97.8448 8.99365 96.5776 8.99365 95.0142C8.99365 93.4508 10.3191 92.1836 11.9544 92.1836C13.5896 92.1845 14.9151 93.4517 14.9151 95.0142Z" fill="#020D3A"/>
<path d="M346.165 95.2642C345.211 96.37 343.501 96.5277 342.344 95.6163C341.188 94.7048 341.023 93.0699 341.976 91.9641C342.929 90.8583 344.64 90.7006 345.796 91.612C346.953 92.5225 347.118 94.1583 346.165 95.2642Z" fill="#020D3A"/>
<path d="M200.812 11.2851C199.837 12.3616 198.134 12.4781 197.008 11.5465C195.882 10.6139 195.761 8.98637 196.735 7.90988C197.71 6.8334 199.413 6.71695 200.539 7.64856C201.666 8.58108 201.788 10.2086 200.812 11.2851Z" fill="#020D3A"/>
<path d="M190.811 23.962C188.619 22.1464 187.013 16.874 191.23 16.4697C194.908 16.1166 198.848 17.4297 202.201 15.9424C203.069 15.5573 203.859 14.9943 204.782 14.7559C205.706 14.5166 206.866 14.7211 207.308 15.5326C207.859 16.5458 207.001 17.7167 206.174 18.5419C202.613 22.096 196.277 28.487 190.811 23.962Z" stroke="#020D3A" stroke-width="0.5" stroke-miterlimit="10"/>
<path d="M52.4445 169.951C52.4445 171.124 51.4509 172.074 50.2242 172.074C48.9975 172.074 48.0039 171.124 48.0039 169.951C48.0039 168.779 48.9975 167.829 50.2242 167.829C51.4509 167.829 52.4445 168.779 52.4445 169.951Z" stroke="#020D3A" stroke-width="0.5" stroke-miterlimit="10"/>
<path d="M362.618 307.184C365.525 307.184 367.881 309.437 367.881 312.216C367.881 314.995 365.525 317.248 362.618 317.248" stroke="#020D3A" stroke-width="0.5" stroke-miterlimit="10"/>
<path d="M12.4688 110.821L27.3951 96.1973" stroke="#20E086" stroke-width="0.5" stroke-miterlimit="10"/>
<path d="M14.0454 104.097L21.6932 96.7852" stroke="#20E086" stroke-width="0.5" stroke-miterlimit="10"/>
<path d="M266.277 184.222L264.227 178.109L270.751 178.526L269.073 171.939L276.157 171.644L273.889 165.809" stroke="#020D3A" stroke-width="0.5" stroke-miterlimit="10"/>
<path d="M39.9892 209.668C40.5052 209.138 41.0624 208.622 41.6551 208.118C44.6282 205.592 48.0683 203.555 50.7248 200.725C52.9431 198.363 54.5562 195.485 55.3858 192.411C56.1799 189.465 56.4532 186.033 58.9554 184.153C60.7603 182.796 63.3987 182.689 65.4731 183.631C71.1372 186.202 71.0087 194.411 68.918 199.217C67.8017 201.781 65.9027 203.96 64.5514 206.419C60.3988 213.978 58.8873 226.118 47.5791 227.295C42.7494 227.798 38.5238 225.54 36.9155 221.09C35.2889 216.592 36.8733 212.872 39.9892 209.668Z" stroke="#020D3A" stroke-width="0.5" stroke-miterlimit="10"/>
<path d="M299.621 144.785C299.374 140.599 301.891 136.66 302.015 132.467C302.081 130.225 301.459 128.025 301.075 125.811C300.692 123.599 300.568 121.234 301.563 119.202C302.559 117.17 304.975 115.632 307.239 116.217C309.667 116.845 310.867 119.456 311.31 121.823C311.803 124.452 311.775 127.171 311.227 129.792C310.53 133.13 308.994 136.371 309.164 139.771C309.287 142.219 310.296 144.587 310.239 147.038C310.175 149.82 307.665 153.403 304.415 152.419C301.521 151.544 299.776 147.386 299.621 144.785Z" stroke="#020D3A" stroke-width="0.5" stroke-miterlimit="10"/>
<path d="M312.303 94.9939C310.787 96.0447 309.187 97.2028 308.581 98.8963C307.975 100.59 308.965 102.901 310.834 103.005C311.511 103.043 312.171 102.792 312.77 102.487C314.483 101.613 315.987 100.092 316.167 98.2435C316.346 96.3949 314.718 94.3979 312.788 94.6069" stroke="#020D3A" stroke-width="0.5" stroke-miterlimit="10"/>
<path d="M115.762 50.8275C108.126 50.8275 101.936 44.2265 101.936 44.2265C101.936 44.2265 108.126 37.6255 115.762 37.6255C123.398 37.6255 129.589 44.2265 129.589 44.2265C129.589 44.2265 123.398 50.8275 115.762 50.8275Z" fill="white" stroke="#020D3A" stroke-width="0.5" stroke-miterlimit="10"/>
<path d="M115.713 50.8425C112.382 50.8425 109.682 47.8836 109.682 44.2332C109.682 40.5829 112.382 37.623 115.713 37.623C119.044 37.623 121.745 40.582 121.745 44.2332C121.745 47.8845 119.044 50.8425 115.713 50.8425Z" fill="#020D3A"/>
<path d="M341.77 283.477C332.907 283.477 325.723 275.816 325.723 275.816C325.723 275.816 332.907 268.155 341.77 268.155C350.633 268.155 357.817 275.816 357.817 275.816C357.817 275.816 350.633 283.477 341.77 283.477Z" fill="white" stroke="#020D3A" stroke-width="0.5" stroke-miterlimit="10"/>
<path d="M341.715 283.497C345.581 283.497 348.715 280.063 348.715 275.826C348.715 271.589 345.581 268.155 341.715 268.155C337.849 268.155 334.714 271.589 334.714 275.826C334.714 280.063 337.849 283.497 341.715 283.497Z" fill="#020D3A"/>
<path d="M357.25 132.71C360.796 124.628 356.817 115.327 348.363 111.937C339.909 108.547 330.182 112.351 326.636 120.434C323.09 128.516 327.069 137.817 335.523 141.207C343.977 144.597 353.704 140.793 357.25 132.71Z" fill="#020D3A"/>
<path d="M355.323 125.547C355.323 134.311 347.891 141.417 338.725 141.417C329.558 141.417 322.126 134.311 322.126 125.547C322.126 116.783 329.558 109.678 338.725 109.678C347.892 109.678 355.323 116.783 355.323 125.547Z" fill="#20E086"/>
<path d="M337.757 134.3C337.67 134.317 337.602 134.325 337.551 134.325C337.499 134.325 337.447 134.325 337.396 134.325C336.864 134.325 336.382 134.308 335.954 134.275C335.524 134.242 335.125 134.193 334.756 134.128C334.386 134.062 334.03 133.98 333.686 133.881C333.343 133.783 332.991 133.676 332.63 133.561C332.664 133.201 332.737 132.835 332.849 132.465C332.96 132.096 333.085 131.739 333.222 131.394C333.805 131.575 334.408 131.736 335.025 131.875C335.644 132.014 336.39 132.084 337.266 132.084C338.674 132.084 339.721 131.822 340.409 131.296C341.095 130.771 341.439 130.048 341.439 129.13C341.439 128.67 341.366 128.284 341.22 127.972C341.074 127.661 340.855 127.39 340.563 127.16C340.27 126.93 339.902 126.721 339.455 126.532C339.009 126.343 338.485 126.126 337.884 125.879L336.648 125.387C336.133 125.19 335.66 124.968 335.231 124.722C334.802 124.476 334.429 124.185 334.111 123.848C333.793 123.512 333.548 123.114 333.377 122.653C333.205 122.194 333.12 121.644 333.12 121.004C333.12 119.74 333.518 118.706 334.317 117.901C335.115 117.097 336.261 116.595 337.756 116.399V114.01C338.014 113.945 338.305 113.912 338.631 113.912C338.975 113.912 339.284 113.945 339.558 114.01V116.301C340.279 116.334 340.988 116.408 341.683 116.523C342.379 116.638 342.975 116.786 343.474 116.966C343.388 117.656 343.199 118.337 342.907 119.01C342.443 118.846 341.911 118.702 341.31 118.579C340.709 118.456 340.013 118.395 339.223 118.395C338.141 118.395 337.309 118.592 336.725 118.986C336.141 119.381 335.849 119.988 335.849 120.809C335.849 121.204 335.926 121.544 336.081 121.831C336.236 122.119 336.463 122.373 336.764 122.595C337.064 122.816 337.425 123.017 337.846 123.198C338.267 123.379 338.743 123.576 339.276 123.789L340.255 124.184C340.873 124.43 341.431 124.684 341.93 124.947C342.427 125.211 342.852 125.522 343.204 125.883C343.556 126.244 343.832 126.67 344.028 127.164C344.226 127.656 344.325 128.256 344.325 128.961C344.325 130.356 343.908 131.493 343.075 132.371C342.241 133.249 341.069 133.828 339.559 134.107V136.938C339.422 136.971 339.276 136.996 339.121 137.012C338.966 137.029 338.82 137.037 338.683 137.037C338.529 137.037 338.374 137.029 338.22 137.012C338.066 136.996 337.911 136.971 337.757 136.938V134.3Z" fill="#020D3A"/>
<path d="M35.6841 150.73C37.596 142.989 32.5823 135.232 24.4857 133.404C16.3892 131.576 8.27582 136.37 6.364 144.111C4.45218 151.852 9.46587 159.609 17.5624 161.437C25.6589 163.264 33.7723 158.471 35.6841 150.73Z" fill="#020D3A"/>
<path d="M32.7818 149.806C34.6936 142.065 29.6799 134.308 21.5834 132.48C13.4869 130.652 5.37348 135.446 3.46166 143.187C1.54984 150.928 6.56354 158.685 14.6601 160.513C22.7566 162.341 30.87 157.547 32.7818 149.806Z" fill="#20E086"/>
<path d="M17.2522 154.43C17.1736 154.445 17.1122 154.452 17.0652 154.452C17.0182 154.452 16.9712 154.452 16.9251 154.452C16.4418 154.452 16.0054 154.438 15.616 154.407C15.2266 154.377 14.8641 154.333 14.5293 154.274C14.1946 154.214 13.8704 154.14 13.5597 154.05C13.248 153.961 12.9286 153.864 12.6016 153.759C12.6323 153.432 12.6984 153.1 12.8001 152.764C12.9018 152.429 13.014 152.105 13.1387 151.792C13.6681 151.956 14.2138 152.101 14.7749 152.228C15.3359 152.354 16.014 152.418 16.8081 152.418C18.0856 152.418 19.0371 152.179 19.6605 151.702C20.2839 151.226 20.5956 150.57 20.5956 149.736C20.5956 149.318 20.5294 148.968 20.397 148.685C20.2647 148.402 20.0652 148.156 19.8005 147.948C19.5358 147.739 19.2001 147.55 18.7954 147.377C18.3906 147.207 17.9149 147.009 17.3692 146.785L16.2471 146.338C15.78 146.16 15.3503 145.959 14.9619 145.735C14.5715 145.511 14.233 145.247 13.9452 144.942C13.6566 144.637 13.4341 144.275 13.2787 143.858C13.1233 143.442 13.0447 142.942 13.0447 142.361C13.0447 141.214 13.4072 140.275 14.1313 139.545C14.8564 138.815 15.896 138.36 17.2522 138.181V136.014C17.4862 135.954 17.7509 135.924 18.0473 135.924C18.359 135.924 18.639 135.954 18.8884 136.014V138.092C19.5425 138.123 20.1861 138.19 20.8171 138.293C21.4482 138.398 21.9901 138.532 22.4418 138.696C22.3632 139.321 22.1925 139.94 21.9278 140.551C21.5067 140.402 21.0233 140.271 20.4786 140.16C19.9329 140.048 19.3018 139.992 18.5844 139.992C17.6032 139.992 16.8465 140.171 16.3171 140.529C15.7867 140.886 15.522 141.437 15.522 142.183C15.522 142.54 15.592 142.85 15.732 143.111C15.8721 143.372 16.0792 143.602 16.3516 143.804C16.624 144.005 16.951 144.188 17.3328 144.351C17.7145 144.516 18.147 144.694 18.6304 144.888L19.5185 145.245C20.0796 145.469 20.586 145.7 21.0377 145.939C21.4895 146.177 21.875 146.46 22.1944 146.788C22.5138 147.116 22.7631 147.503 22.9425 147.95C23.1218 148.397 23.212 148.942 23.212 149.582C23.212 150.848 22.8341 151.88 22.0783 152.677C21.3226 153.474 20.2589 153.999 18.8874 154.252V156.823C18.7628 156.853 18.6304 156.875 18.4904 156.89C18.3504 156.904 18.218 156.912 18.0933 156.912C17.9533 156.912 17.8123 156.904 17.6723 156.89C17.5322 156.875 17.3922 156.852 17.2512 156.823L17.2522 154.43Z" fill="#020D3A"/>
<path d="M99.1223 352.161C116.067 352.161 129.803 338.688 129.803 322.069C129.803 305.45 116.067 291.977 99.1223 291.977C82.1777 291.977 68.4414 305.45 68.4414 322.069C68.4414 338.688 82.1777 352.161 99.1223 352.161Z" fill="#020D3A"/>
<path d="M96.8831 350.919C113.828 350.919 127.564 337.446 127.564 320.827C127.564 304.208 113.828 290.735 96.8831 290.735C79.9385 290.735 66.2021 304.208 66.2021 320.827C66.2021 337.446 79.9385 350.919 96.8831 350.919Z" fill="#F4F4F4"/>
<path d="M96.8828 350.919C109.745 350.919 120.171 337.446 120.171 320.827C120.171 304.208 109.745 290.735 96.8828 290.735C84.0209 290.735 73.5942 304.208 73.5942 320.827C73.5942 337.446 84.0209 350.919 96.8828 350.919Z" stroke="#020D3A" stroke-width="0.5" stroke-miterlimit="10"/>
<path d="M96.8823 350.919C101.62 350.919 105.461 337.446 105.461 320.827C105.461 304.208 101.62 290.735 96.8823 290.735C92.1442 290.735 88.3032 304.208 88.3032 320.827C88.3032 337.446 92.1442 350.919 96.8823 350.919Z" stroke="#020D3A" stroke-width="0.5" stroke-miterlimit="10"/>
<mask id="mask0_115_4102" style="mask-type:luminance" maskUnits="userSpaceOnUse" x="66" y="290" width="62" height="61">
<path d="M96.8821 350.917C113.827 350.917 127.563 337.444 127.563 320.825C127.563 304.206 113.827 290.733 96.8821 290.733C79.9375 290.733 66.2012 304.206 66.2012 320.825C66.2012 337.444 79.9375 350.917 96.8821 350.917Z" fill="white"/>
</mask>
<g mask="url(#mask0_115_4102)">
<path d="M96.8821 376.367C113.827 376.367 127.563 366.959 127.563 355.353C127.563 343.747 113.827 334.338 96.8821 334.338C79.9375 334.338 66.2012 343.747 66.2012 355.353C66.2012 366.959 79.9375 376.367 96.8821 376.367Z" stroke="#020D3A" stroke-width="0.5" stroke-miterlimit="10"/>
</g>
<mask id="mask1_115_4102" style="mask-type:luminance" maskUnits="userSpaceOnUse" x="66" y="290" width="62" height="61">
<path d="M96.8821 350.917C113.827 350.917 127.563 337.444 127.563 320.825C127.563 304.206 113.827 290.733 96.8821 290.733C79.9375 290.733 66.2012 304.206 66.2012 320.825C66.2012 337.444 79.9375 350.917 96.8821 350.917Z" fill="white"/>
</mask>
<g mask="url(#mask1_115_4102)">
<path d="M96.8821 308.066C113.827 308.066 127.563 298.658 127.563 287.052C127.563 275.446 113.827 266.038 96.8821 266.038C79.9375 266.038 66.2012 275.446 66.2012 287.052C66.2012 298.658 79.9375 308.066 96.8821 308.066Z" stroke="#020D3A" stroke-width="0.5" stroke-miterlimit="10"/>
</g>
<path d="M61.6729 322.547H130.688" stroke="#020D3A" stroke-width="0.5" stroke-miterlimit="10"/>
<path d="M124.693 325.776C124.407 327.925 123.816 330.035 122.94 332.025" stroke="#020D3A" stroke-width="0.5" stroke-miterlimit="10"/>
<path d="M124.208 312.676C124.871 315.278 125.118 317.981 124.936 320.656" stroke="#020D3A" stroke-width="0.5" stroke-miterlimit="10"/>
<path d="M121.784 335.438C121.494 335.817 121.205 336.196 120.916 336.575" stroke="#020D3A" stroke-width="0.5" stroke-miterlimit="10"/>
<path d="M45.4691 38.0859C26.9767 38.0859 11.9849 44.7328 11.9849 52.9311C11.9849 57.7845 16.9192 61.1175 20.9836 63.0541C24.0938 64.5359 27.4428 65.55 30.8273 66.2817C35.3722 67.2574 40.1282 67.8249 44.9052 67.9075C45.1373 70.6152 49.196 79.3802 50.6096 80.9225C51.8554 82.2832 53.3966 83.5559 55.2687 83.8126C52.1719 79.0372 50.7458 73.3366 51.0421 67.7296C57.0899 67.2849 63.0408 66.0067 68.5026 63.7051C73.0188 61.8025 78.9534 58.3145 78.9534 52.9302C78.9534 44.7328 63.9625 38.0859 45.4691 38.0859Z" fill="#20E086"/>
<path d="M22.2827 51.7626C22.5934 54.4107 25.1023 56.6159 27.7704 56.5847C30.4385 56.5536 32.8946 54.2906 33.142 51.6351C33.2351 50.6384 32.931 49.4629 32.0113 49.0677C31.0906 48.6725 29.9676 49.3226 29.5801 50.246C29.1927 51.1693 29.3893 52.2421 29.7873 53.1609C30.9976 55.9557 34.1385 57.7813 37.1672 57.4503C40.1958 57.1184 42.8677 54.6564 43.4432 51.6663C43.6398 50.6439 43.5257 49.4106 42.6654 48.8238C41.598 48.0967 40.0021 48.954 39.63 50.1909C39.2579 51.427 39.7997 52.7694 40.5804 53.7982C42.205 55.9392 44.9614 57.034 47.6112 56.9194C48.8004 56.8681 50.3579 56.5912 51.3477 55.9062C52.7997 54.9003 54.2526 51.6681 53.1114 50.0433C52.886 49.7224 52.5215 49.4711 52.1302 49.4876C51.8636 49.4987 51.6133 49.6307 51.411 49.8049C50.8902 50.2524 50.6552 50.9621 50.6351 51.648C50.5938 53.0619 51.4244 54.6427 52.3575 55.6797C54.0944 57.609 57.1115 58.1848 59.5053 57.1789C61.8991 56.173 63.5707 53.7257 63.8067 51.1418C63.8949 50.1726 63.4806 48.8816 62.5081 48.932C61.7917 48.9687 61.3659 49.7508 61.2076 50.4504C60.7521 52.4695 61.3975 54.7023 62.8601 56.1675C64.3226 57.6328 66.5553 58.2829 68.577 57.8318" stroke="#020D3A" stroke-width="0.5" stroke-miterlimit="10"/>
<path d="M16.1826 56.2422C17.6155 59.3854 21.1478 61.1533 24.5938 62.1042" stroke="#020D3A" stroke-width="0.5" stroke-miterlimit="10"/>
<path d="M26.3184 62.8696C27.4108 63.3649 28.5933 63.6777 29.7979 63.7896" stroke="#020D3A" stroke-width="0.5" stroke-miterlimit="10"/>
<path d="M66.1318 43.9844C68.8259 44.8325 71.3733 46.1053 73.6415 47.7337" stroke="#020D3A" stroke-width="0.5" stroke-miterlimit="10"/>
<path d="M199.407 364.168L298.558 331.433C309.241 327.906 313.694 317.38 308.505 307.924L180.214 82.2032C175.023 72.7459 162.157 67.9384 151.474 71.4659L54.6923 100.466C44.0095 103.992 39.5566 114.519 44.746 123.975L170.666 353.43C175.857 362.887 188.724 367.694 199.407 364.168Z" fill="#020D3A"/>
<path d="M197.7 356.723L303.605 321.76C309.78 319.721 312.354 313.637 309.354 308.172L177.41 75.7933C174.41 70.3274 166.973 67.5482 160.798 69.5865L57.2622 100.816C51.0878 102.855 48.5137 108.939 51.5136 114.405L181.087 350.517C184.088 355.983 191.525 358.762 197.7 356.723Z" fill="white"/>
<path d="M106.849 96.3409L125.135 90.7201C125.876 90.4762 126.184 89.7463 125.825 89.0916C125.465 88.436 124.574 88.1031 123.834 88.347L105.548 93.9678C104.807 94.2118 104.499 94.9416 104.859 95.5963C105.218 96.2519 106.11 96.5848 106.849 96.3409Z" fill="#020D3A"/>
<path d="M133.426 88.0205C134.166 87.7756 134.474 87.0465 134.115 86.3907C133.756 85.7349 132.864 85.402 132.124 85.6469C131.385 85.8908 131.076 86.6209 131.436 87.2758C131.794 87.9325 132.685 88.2654 133.426 88.0205Z" fill="#020D3A"/>
<path d="M99.4689 216.718C100.921 216.238 101.527 214.808 100.821 213.521L95.7102 204.209C95.0043 202.923 93.2549 202.27 91.8029 202.749C90.3499 203.229 89.7447 204.66 90.4506 205.946L95.5616 215.258C96.2665 216.544 98.0159 217.197 99.4689 216.718Z" fill="#020D3A"/>
<path d="M75.3102 172.696C76.7622 172.216 77.3684 170.785 76.6625 169.499L61.0974 141.139C60.3915 139.853 58.6421 139.199 57.1901 139.679C55.7371 140.158 55.1319 141.59 55.8378 142.875L71.4028 171.236C72.1078 172.522 73.8572 173.175 75.3102 172.696Z" fill="#020D3A"/>
<path d="M73.875 173.167C75.328 172.688 75.9332 171.257 75.2273 169.971L59.6622 141.609C58.9563 140.324 57.2069 139.67 55.7549 140.149C54.3028 140.629 53.6966 142.06 54.4025 143.346L69.9676 171.707C70.6735 172.993 72.4229 173.647 73.875 173.167Z" fill="#020D3A"/>
<path d="M98.0348 217.194C99.4869 216.715 100.093 215.283 99.3871 213.998L94.2761 204.685C93.5702 203.4 91.8208 202.746 90.3688 203.226C88.9158 203.705 88.3106 205.137 89.0165 206.422L94.1275 215.735C94.8324 217.02 96.5818 217.674 98.0348 217.194Z" fill="#020D3A"/>
<path d="M108.529 233.23C109.981 232.75 110.588 231.319 109.882 230.033L104.771 220.721C104.065 219.435 102.315 218.781 100.863 219.261C99.4104 219.741 98.8052 221.172 99.5111 222.458L104.622 231.77C105.328 233.056 107.077 233.708 108.529 233.23Z" fill="#20E086"/>
<path d="M107.094 233.704C108.547 233.224 109.152 231.794 108.447 230.508L103.336 221.195C102.63 219.91 100.88 219.256 99.4272 219.735C97.9752 220.215 97.369 221.646 98.0749 222.932L103.186 232.244C103.893 233.53 105.642 234.184 107.094 233.704Z" fill="#020D3A"/>
<path d="M178.869 346.127L307.134 303.781L181.069 82.1152L55.1724 120.727L178.869 346.127Z" fill="#F4F4F4"/>
<path d="M178.797 349.641L50.7463 116.303C46.9216 109.333 50.215 101.548 58.0888 98.9482L158.491 68.7535C166.364 66.154 175.881 69.7099 179.706 76.6795L310.127 306.282C313.952 313.252 310.658 321.038 302.785 323.636L200.014 357.566C192.139 360.166 182.621 356.611 178.797 349.641ZM58.3477 101.449C52.1638 103.491 50.8681 110.613 53.8728 116.087L180.912 348.161C183.917 353.637 187.115 357.77 198.264 356.194L302.299 321.812C308.483 319.77 311.035 313.324 308.03 307.849L177.849 77.9146C174.778 71.6813 167.092 68.3061 159.633 71.0459L58.3477 101.449Z" fill="#020D3A"/>
<path d="M181.06 349.69L52.4497 115.333C49.1889 109.391 51.997 102.755 58.7084 100.539L159.541 70.2019C166.252 67.9866 174.365 71.0171 177.626 76.9588L308.606 307.581C311.866 313.522 309.059 320.159 302.347 322.374L199.145 356.446C192.433 358.662 184.321 355.63 181.06 349.69ZM59.2666 101.557C53.1881 103.563 50.6457 109.573 53.5986 114.954L182.209 349.311C185.162 354.692 192.509 357.437 198.588 355.43L301.79 321.358C307.867 319.352 310.41 313.341 307.458 307.961L176.477 77.3384C173.524 71.9578 166.177 69.2134 160.099 71.2197L59.2666 101.557Z" fill="#020D3A"/>
<path d="M296.334 79.6324C296.085 79.2455 295.705 78.9301 295.437 78.5468C295.099 78.0645 294.948 77.4886 294.803 76.9256C294.507 75.7767 294.21 74.6278 293.913 73.4789C293.65 72.462 293.108 71.689 292.376 70.9078C291.767 70.2577 290.985 69.6507 290.072 69.6351C289.377 69.6232 288.732 69.9569 288.147 70.3136C282.002 74.0639 281.036 80.1523 278.317 86.0491C277.803 87.1632 277.164 88.2315 276.803 89.3996C276.153 91.4939 276.527 93.9211 278.567 95.125C280.419 96.2308 283.444 96.163 285.289 94.992C287.133 93.8211 287.688 90.2606 288.413 88.3791C288.5 88.1535 288.594 87.9188 288.782 87.7592C289.424 87.2127 290.576 87.3769 291.328 86.614C291.886 86.0464 292.205 85.2789 292.688 84.6554C293.605 83.4698 295.262 82.9912 296.162 81.7276C296.532 81.2077 296.722 80.5283 296.493 79.9387C296.45 79.8305 296.396 79.7296 296.334 79.6324Z" fill="white" stroke="#020D3A" stroke-width="0.5" stroke-miterlimit="10"/>
<path d="M284.918 76.9886C284.91 73.3897 284.785 71.8602 283.344 68.5171C283.005 67.7322 282.05 67.7982 281.162 67.7734C280.815 69.4909 281.135 71.2725 280.906 73.0082C280.754 74.1544 280.366 75.2822 280.025 76.4064C279.278 78.8739 278.902 81.5128 280.731 83.6539" fill="white"/>
<path d="M284.918 76.9886C284.91 73.3897 284.785 71.8602 283.344 68.5171C283.005 67.7322 282.05 67.7982 281.162 67.7734C280.815 69.4909 281.135 71.2725 280.906 73.0082C280.754 74.1544 280.366 75.2822 280.025 76.4064C279.278 78.8739 278.902 81.5128 280.731 83.6539" stroke="#020D3A" stroke-width="0.5" stroke-miterlimit="10"/>
<path d="M277.928 66.3246C276.018 67.159 273.764 66.3557 272.891 64.5301L271.92 62.4991C271.047 60.6735 271.888 58.5178 273.797 57.6834C275.707 56.8489 277.962 57.6522 278.834 59.4778L279.805 61.5088C280.677 63.3344 279.837 65.4902 277.928 66.3246Z" fill="#020D3A"/>
<path d="M290.457 84.3773C290.702 85.2136 291 86.8072 291.111 88.145C291.167 88.8162 291.74 89.4168 292.292 89.3563C294.227 89.1454 296.201 87.5197 296.033 86.235C296.175 79.0738 292.596 71.5485 289.333 66.3531C288.404 64.875 286.498 64.4119 285.303 63.2878C284.09 62.148 283.231 60.6268 281.574 60.5755C280.78 60.5507 280.081 60.8946 279.585 61.4906C279.148 62.016 278.432 62.6523 278.48 63.6096C278.514 64.3037 278.872 65.0611 279.364 65.5911C287.667 74.5294 289.433 80.8948 290.457 84.3773Z" fill="#020D3A"/>
<path d="M337.616 61.1472C319.784 61.8349 302.22 64.1291 284.903 67.917L277.527 52.4877C291.573 42.913 304.811 31.5907 317.375 18.8086L337.616 61.1472Z" fill="#20E086"/>
<path d="M321.248 42.861C326.838 54.5529 334.231 62.7805 337.76 61.2383C341.289 59.696 339.62 48.9678 334.03 37.276C328.441 25.5841 321.048 17.3564 317.518 18.8987C313.989 20.4419 315.659 31.1701 321.248 42.861Z" fill="#020D3A"/>
<path d="M289.974 67.3193L289.31 67.6091C284.082 69.8941 277.905 67.6934 275.515 62.6943C273.125 57.6952 275.427 51.7901 280.656 49.5051L281.319 49.2153L289.974 67.3193Z" fill="#F4F4F4"/>
<mask id="mask2_115_4102" style="mask-type:luminance" maskUnits="userSpaceOnUse" x="315" y="18" width="25" height="44">
<path d="M321.249 42.8688C326.839 54.5607 334.232 62.7884 337.761 61.2461C341.29 59.7038 339.621 48.9756 334.031 37.2838C328.441 25.5919 321.049 17.3642 317.519 18.9065C313.99 20.4497 315.66 31.1779 321.249 42.8688Z" fill="white"/>
</mask>
<g mask="url(#mask2_115_4102)">
<path d="M329.735 39.272C331.446 42.8508 329.943 47.0155 326.377 48.5734C322.812 50.1313 318.535 48.4927 316.824 44.9139C315.113 41.3351 316.616 37.1704 320.182 35.6125C323.746 34.0546 328.024 35.6932 329.735 39.272Z" fill="#20E086"/>
</g>
<path d="M329.884 57.3349C326.734 53.8294 323.5 48.7624 320.778 43.0664C318.055 37.3704 316.163 31.7166 315.452 27.1456C314.699 22.3134 315.34 19.3058 317.303 18.4476C319.266 17.5893 322.065 19.0949 325.394 22.8012C328.544 26.3066 331.778 31.3736 334.501 37.0687C339.582 47.696 342.271 59.8097 337.975 61.6876C337.617 61.8443 337.23 61.9223 336.817 61.9223C334.972 61.9232 332.605 60.3635 329.884 57.3349ZM317.734 19.3489C316.298 19.977 315.828 22.837 316.476 27.0008C317.173 31.4818 319.036 37.0421 321.72 42.6547C324.403 48.2682 327.581 53.2527 330.67 56.6893C333.539 59.883 336.106 61.4106 337.545 60.788C340.404 59.5383 339.484 49.8756 333.558 37.4823C330.875 31.8688 327.697 26.8843 324.608 23.4476C322.163 20.7262 319.936 19.2114 318.441 19.2114C318.182 19.2105 317.946 19.2563 317.734 19.3489Z" fill="#020D3A"/>
<path d="M246.211 85.5733C256.181 87.563 259.887 97.9152 260.387 107.045C260.549 109.999 261.807 114.193 261.209 117.071C262.24 112.108 263.77 107.241 265.767 102.556C267.376 98.7781 268.568 94.9297 271.828 92.1083C274.055 90.1809 276.333 87.6024 277.999 85.2129C280.989 87.1229 285.847 90.5366 289.252 91.6443C289.133 94.485 288.862 96.2803 289.617 99.0302C291.297 105.149 289.175 112.178 287.495 118.159C285.652 124.723 283.079 131.099 279.826 137.143C277.318 141.801 273.941 146.618 268.679 148.078C263.85 149.418 258.659 147.533 254.44 144.919C247.324 140.511 241.494 133.76 238.594 126.112C235.544 118.069 231.861 110.93 231.849 102.061C231.845 98.8505 232.213 95.5798 233.57 92.6428C235.767 87.8839 239.527 84.2391 246.211 85.5733Z" fill="#20E086"/>
<path d="M294.988 74.8767C295.694 74.4146 296.743 74.9913 296.966 75.7808C297.198 76.5959 296.928 77.6522 296.45 78.6737C296.827 78.5463 297.232 78.6811 297.415 79.0377C297.575 79.3486 297.609 79.7383 297.588 80.0794C297.553 80.6433 297.333 81.2035 297.119 81.7253C296.903 82.2525 296.66 82.7697 296.357 83.2566C296.05 83.7499 295.702 84.2138 295.33 84.6641C294.861 85.2316 294.308 85.9129 293.443 85.669C292.884 85.5113 292.523 85.0061 292.5 84.4623C292.487 84.1515 292.583 83.87 292.693 83.5839C292.795 83.3134 292.93 83.053 293.047 82.7862C292.05 83.5426 290.795 84.2881 290.131 83.8911C289.552 83.5445 289.643 82.7174 289.865 82.0994C290.315 80.8524 291.017 79.6924 291.912 78.6884C291.154 79.3165 290.354 79.8969 289.508 80.4122C289.118 80.6497 288.663 80.8845 288.214 80.7735C287.397 80.5727 287.313 79.4742 287.591 78.7131C288.088 77.3524 289.13 76.2484 290.145 75.1839C290.224 75.1004 290.304 75.0179 290.383 74.9345C289.577 75.668 288.711 76.3401 287.784 76.9306C287.377 77.1901 286.895 77.445 286.424 77.3176C285.979 77.1975 285.696 76.7537 285.649 76.3135C285.602 75.8743 285.747 75.4378 285.911 75.0243C287.027 72.2084 289.138 69.7767 291.894 68.3078C292.246 68.1198 292.625 67.9501 293.027 67.9346C293.43 67.919 293.865 68.0932 294.041 68.4407C294.174 68.7011 294.142 69.0083 294.087 69.2935C293.939 70.0618 293.642 70.8037 293.214 71.4703C293.833 71.0696 294.579 70.6744 295.288 70.899C296.073 71.1475 296.416 72.0883 296.242 72.8603C296.069 73.6333 295.519 74.2715 294.988 74.8767Z" fill="white" stroke="#020D3A" stroke-width="0.5" stroke-miterlimit="10"/>
<path d="M287.17 50.6952C294 45.7336 300.829 40.7721 307.659 35.8105" stroke="#020D3A" stroke-width="0.5" stroke-miterlimit="10"/>
<path d="M310.112 34.0561C310.846 33.4948 311.513 32.8555 312.1 32.1548" stroke="#020D3A" stroke-width="0.5" stroke-miterlimit="10"/>
<path d="M277.981 54.1738C276.362 56.744 276.509 60.2311 278.338 62.6683" stroke="#020D3A" stroke-width="0.5" stroke-miterlimit="10"/>
<path d="M280.004 64.8652C280.72 65.5871 281.767 65.997 282.807 65.9603" stroke="#020D3A" stroke-width="0.5" stroke-miterlimit="10"/>
<path d="M164.712 109.982L197.658 172.02L188.362 175.059L155.416 113.023L164.712 109.982Z" fill="#20E086" stroke="#020D3A" stroke-width="0.5" stroke-miterlimit="10"/>
<path d="M149.34 126.867L176.923 178.804L167.627 181.845L140.043 129.907L149.34 126.867Z" fill="#20E086" stroke="#020D3A" stroke-width="0.5" stroke-miterlimit="10"/>
<path d="M131.667 139.415L156.185 185.581L146.889 188.622L122.372 142.455L131.667 139.415Z" fill="#020D3A" stroke="#020D3A" stroke-width="0.5" stroke-miterlimit="10"/>
<path d="M124.286 168.078L136.929 191.883L127.632 194.923L114.99 171.118L124.286 168.078Z" fill="#20E086" stroke="#020D3A" stroke-width="0.5" stroke-miterlimit="10"/>
<path d="M205.452 169.557L110.227 200.698" stroke="#020D3A" stroke-width="0.75" stroke-miterlimit="10"/>
<path d="M143.488 132.564L150.967 146.88" stroke="#020D3A" stroke-width="0.5" stroke-miterlimit="10"/>
<path d="M152.482 148.885C153.346 150.849 154.352 152.779 155.489 154.656" stroke="#020D3A" stroke-width="0.5" stroke-miterlimit="10"/>
<path d="M166.69 129.664C169.355 134.963 172.175 140.216 175.148 145.412" stroke="#020D3A" stroke-width="0.5" stroke-miterlimit="10"/>
<path d="M177.182 149.25C178.45 151.837 179.719 154.424 180.987 157.011" stroke="#020D3A" stroke-width="0.5" stroke-miterlimit="10"/>
<path d="M119.674 177.021L122.8 183.004" stroke="#020D3A" stroke-width="0.5" stroke-miterlimit="10"/>
<path d="M124.798 186.357L126.265 189.169" stroke="#020D3A" stroke-width="0.5" stroke-miterlimit="10"/>
<path d="M136.735 166.112L141.425 175.089" stroke="#020D3A" stroke-width="0.5" stroke-miterlimit="10"/>
<path d="M136.98 162.792C137.427 163.646 137.873 164.501 138.32 165.356" stroke="#020D3A" stroke-width="0.5" stroke-miterlimit="10"/>
<path d="M133.486 159.42C133.933 160.275 134.379 161.13 134.825 161.985" stroke="#020D3A" stroke-width="0.5" stroke-miterlimit="10"/>
<path d="M211.7 188.211L244.645 250.248L235.349 253.288L202.404 191.251L211.7 188.211Z" fill="#20E086" stroke="#020D3A" stroke-width="0.5" stroke-miterlimit="10"/>
<path d="M198.815 204.319L226.397 256.256L217.101 259.297L189.519 207.358L198.815 204.319Z" fill="#20E086" stroke="#020D3A" stroke-width="0.5" stroke-miterlimit="10"/>
<path d="M183.941 215.985L208.458 262.152L199.163 265.192L174.645 219.025L183.941 215.985Z" fill="#20E086" stroke="#020D3A" stroke-width="0.5" stroke-miterlimit="10"/>
<path d="M164.169 233.398L183.914 270.105L174.617 273.145L154.874 236.439L164.169 233.398Z" fill="#20E086" stroke="#020D3A" stroke-width="0.5" stroke-miterlimit="10"/>
<path d="M252.438 247.79L157.213 278.93" stroke="#020D3A" stroke-width="0.75" stroke-miterlimit="10"/>
<path d="M253.876 250.195L158.651 281.335" stroke="#020D3A" stroke-width="0.75" stroke-miterlimit="10"/>
<path d="M158.219 64.8351C160.025 61.5956 160.548 57.5189 161.569 54.0831C161.711 53.6026 161.865 53.1157 162.159 52.7031C162.425 52.3318 162.792 52.0393 163.156 51.7541C164.365 50.806 165.09 49.5745 166.204 48.5852C167.943 47.0383 169.45 45.3979 170.739 43.4659C171.21 42.7599 171.645 41.864 171.241 41.1213C170.824 40.3556 169.68 40.2007 168.858 40.5583C168.036 40.9159 167.461 41.6329 166.906 42.3133C165.086 44.5451 163.748 43.8501 164.334 41.2552C164.883 38.8225 165.433 36.3899 165.981 33.9582C166.225 32.8799 166.469 31.7832 166.375 30.6847C166.281 29.5853 165.798 28.4639 164.851 27.834C163.49 26.9271 161.465 26.9849 160.401 28.2613C159.815 28.9655 159.52 29.8439 159.22 30.6966C158.581 32.5113 157.87 34.302 157.086 36.0635C156.977 36.3083 156.856 36.5659 156.627 36.7172C156.397 36.8685 156.027 36.8566 155.892 36.6237C155.818 36.4963 155.832 36.3395 155.851 36.1946C156.176 33.7519 157.51 31.4595 157.483 28.9976C157.166 28.7876 156.713 28.8655 156.403 29.0847C156.093 29.3038 155.895 29.6357 155.712 29.9603C154.164 32.7111 153.099 35.682 152.042 38.6373C151.116 41.2267 150.166 43.8895 150.097 46.6532C150.029 49.3636 150.158 52.0934 149.65 54.7873C149.08 57.8068 147.264 60.4347 147.122 63.578C147.097 64.1447 147.128 64.7407 147.428 65.2294C147.663 65.6127 148.042 65.8932 148.426 66.1436C150.96 67.7941 155.331 68.9237 157.393 66.1225C157.697 65.7108 157.97 65.2807 158.219 64.8351Z" fill="white" stroke="#020D3A" stroke-width="0.5" stroke-miterlimit="10"/>
<path d="M204.562 90.2012C203.832 89.8692 203.128 89.4887 202.496 88.9982C201.849 88.4957 201.612 87.7768 201.533 86.9928C193.924 85.5688 185.449 86.7819 177.91 88.2765C173.534 89.1449 160.518 90.5753 158.852 95.6514C160.73 89.927 162.556 84.1237 163.182 78.1306C163.789 72.3182 162.822 66.4443 162.107 60.6813C161.974 59.6113 161.841 58.5412 161.709 57.4711C160.692 57.3162 159.685 57.1108 158.679 56.9045C155.375 56.2287 152.072 55.5538 148.769 54.878C148.517 54.8267 147.092 56.6413 146.873 56.8788C146.21 57.5986 145.556 58.3266 144.913 59.0638C143.587 60.5841 142.306 62.1402 141.073 63.7292C137.05 68.9163 133.799 75.0781 131.769 81.2363C129.34 88.6039 127.042 98.3289 128.252 106.001C128.851 109.801 130.498 113.445 132.983 116.465C140.011 125.011 154.874 121.96 164.718 121.051C171.992 120.378 184.188 121.168 191.346 119.722C197.499 118.479 197.847 112.115 201.815 107.495C203.203 105.879 204.5 104.117 205.046 102.092C205.317 101.086 205.394 100.048 205.397 99.0065C205.4 98.3995 205.377 97.7897 205.354 97.1837C205.291 95.4864 205.318 92.5054 204.562 90.2012Z" fill="#20E086"/>
<mask id="mask3_115_4102" style="mask-type:luminance" maskUnits="userSpaceOnUse" x="55" y="82" width="253" height="265">
<path d="M178.865 346.129L307.13 303.783L249.923 143.591L181.065 82.1172L55.1685 120.728L178.865 346.129Z" fill="white"/>
</mask>
<g mask="url(#mask3_115_4102)">
<path d="M254.253 268.634C253.664 233.197 254.144 196.915 249.826 162.148C249.07 156.065 247.423 149.175 241.415 147.055C236.838 145.441 231.03 147.373 226.992 150.769C222.953 154.165 220.394 158.775 218.388 163.363C206.521 190.504 211.348 221.213 217.574 246.958C221.188 261.904 222.903 276.982 223.899 292.422C225.161 312.012 233.559 331.228 240.08 348.939C244.694 347.921 249.242 346.381 253.586 344.364C254.033 344.155 254.504 343.923 254.784 343.533C255.08 343.119 255.1 342.618 255.108 342.149C255.468 321.717 254.657 299.184 254.403 278.87C254.361 275.466 254.31 272.052 254.253 268.634Z" fill="#020D3A"/>
</g>
<path d="M163.169 321.551C161.838 303.412 163.731 285.176 169.249 266.99C174.168 250.776 174.694 231.458 174.086 214.677C173.84 207.882 173.234 201.005 174.608 194.334C175.963 187.752 179.189 181.667 182.663 175.839C185.789 170.596 189.565 165.726 192.713 160.519C194.438 157.664 195.052 151.446 196.89 149.306C200.962 144.562 216.813 145.754 222.001 149.064C225.396 151.229 231.977 158.615 232.014 162.515C232.042 165.461 230.792 168.423 229.609 171.302C218.415 198.527 212.593 225.983 206.236 253.806C201.988 272.396 197.749 290.987 193.512 309.578C191.339 319.111 189.237 328.653 186.992 338.179C185.531 344.38 186.456 343.79 180.814 345.678C179.742 346.036 167.371 347.453 167.314 347.235C165.191 338.877 163.81 330.281 163.169 321.551Z" fill="#020D3A"/>
<path d="M200.425 156.539C216.907 156.933 233.404 156.684 249.863 155.791C250.775 155.74 253.851 129.952 254.245 127.457C255.675 118.413 255.341 109.74 255.109 100.589C254.94 93.8839 251.307 88.8178 244.676 86.2889C241.755 85.1757 238.213 86.1294 235.094 86.5548C233.76 86.7364 232.165 85.3096 230.781 85.4334C229.036 85.5893 227.294 85.7736 225.569 86.0395C221.976 86.5952 218.335 87.0802 214.65 86.7639C214.276 86.7318 211.309 86.1743 210.923 86.145C206.375 85.8048 195.898 87.8046 192.07 90.2923C183.912 95.5931 187.274 110.414 187.368 118.516C187.513 131.084 188.138 143.647 189.244 156.171C192.971 156.328 196.697 156.45 200.425 156.539Z" fill="#20E086"/>
<path d="M236.433 63.6902C235.944 64.2697 235.353 64.7603 234.638 65.1271C233.197 65.8652 232.914 66.6675 232.803 68.2061C232.54 71.8968 232.939 75.471 233.196 79.1397C233.284 80.3867 233.561 81.5036 234.2 82.613C234.845 83.7354 236.008 84.5331 237.274 84.9512C238.54 85.3694 239.908 85.4363 241.245 85.3529C242.081 85.3006 242.916 85.1906 243.753 85.2245C243.534 89.3397 238.293 91.5266 234.876 92.9112C230.671 94.6148 226.07 95.4355 221.506 95.2374C214.14 94.9183 206.933 91.9521 201.628 87.0565C208.88 86.1277 215.547 81.1221 214.906 72.4937C214.381 65.437 211.811 55.5423 215.112 48.8625C219.782 39.4125 236.223 36.195 238.775 48.8524C239.316 51.5344 239.107 54.2999 238.77 57.0122C238.48 59.355 237.922 61.9297 236.433 63.6902Z" fill="white" stroke="#020D3A" stroke-width="0.5" stroke-miterlimit="10"/>
<path d="M219.748 55.0682C219.811 54.0394 219.682 51.9543 221.096 52.0259C221.335 52.0378 221.495 52.2533 221.653 52.4238C222.462 53.2995 224.113 53.2481 224.86 52.3248C225.754 51.2208 225.403 49.3145 226.667 48.6167C227.024 48.4195 227.446 48.37 227.854 48.3214C229.613 48.1142 230.904 47.5631 232.511 46.9818C235.115 46.041 237.919 47.1423 240.08 44.8508C241.636 43.2022 241.519 40.1433 239.469 39.0971C237.941 38.3167 236.072 38.8541 234.346 38.7165C232.835 38.5964 231.433 37.9527 230.022 37.4181C225.579 35.7328 220.728 35.0607 215.96 35.3963C214.403 35.5063 212.818 35.7319 211.433 36.4233C210.031 37.1229 208.755 38.5616 208.165 39.9746C207.537 41.4811 207.985 43.348 206.539 44.5116C205.608 45.2616 204.268 45.301 203.17 45.8026C200.925 46.8277 200.145 49.5034 199.984 51.8773C199.912 52.9309 199.882 54.0743 199.185 54.8931C198.571 55.6166 197.58 55.9146 196.711 56.3373C195.67 56.8444 194.749 57.577 194.036 58.4637C193.431 59.2174 192.965 60.1508 193.108 61.0907C193.212 61.7701 193.619 62.3671 194.017 62.9392C194.807 64.0762 195.68 65.2783 197.012 65.7671C198.328 66.2494 199.831 65.9339 201.185 66.309C203.705 67.0077 204.962 69.8172 207.341 70.8735C209.128 71.6666 211.012 71.387 212.745 70.691C213.244 70.4911 213.787 70.2866 214.312 70.4141C215.226 70.6351 215.65 71.7418 216.553 72.0032C217.427 72.2562 218.347 71.5484 218.619 70.7149C218.89 69.8814 218.694 68.9828 218.495 68.1309C217.992 65.9697 217.186 63.3179 217.681 61.0944C218.116 59.1394 219.344 57.3276 219.713 55.3947C219.73 55.3076 219.741 55.1966 219.748 55.0682Z" fill="#020D3A"/>
<path d="M189.582 227.085C189.58 226.915 189.579 226.746 189.577 226.577L189.582 227.085Z" fill="white"/>
<path d="M228.978 66.1239C229.378 66.1285 229.778 66.1248 230.177 66.1129C231.345 66.079 232.51 65.9772 233.665 65.8066C233.548 65.8241 233.359 66.1973 233.308 66.289C233.209 66.4668 233.164 66.6282 233.128 66.8199C233.041 67.2829 232.956 67.7285 232.921 68.1989C232.83 69.4377 232.766 70.6774 232.731 71.918C232.401 71.3504 232.079 70.8195 231.662 70.3024C231.203 69.7302 230.71 69.18 230.188 68.6565C229.188 67.6533 228.093 66.675 226.804 66.0111C227.043 65.9983 227.306 66.0606 227.549 66.0753C227.84 66.0927 228.132 66.1056 228.425 66.1138C228.61 66.1175 228.794 66.1221 228.978 66.1239Z" fill="#020D3A"/>
<path d="M222.795 53.3784C222.323 51.4859 220.118 50.3736 218.153 50.8504C215.692 51.4483 214.274 54.145 214.37 56.4327C214.396 57.0453 214.506 57.6642 214.796 58.2107C215.507 59.5494 217.178 60.2014 218.748 60.2371" fill="white"/>
<path d="M222.795 53.3784C222.323 51.4859 220.118 50.3736 218.153 50.8504C215.692 51.4483 214.274 54.145 214.37 56.4327C214.396 57.0453 214.506 57.6642 214.796 58.2107C215.507 59.5494 217.178 60.2014 218.748 60.2371" stroke="#020D3A" stroke-width="0.5" stroke-miterlimit="10"/>
<path d="M186.385 273.639L186.911 273.094C184.084 270.6 182.172 267.178 181.53 263.458L180.763 263.579C181.435 267.464 183.43 271.036 186.385 273.639Z" fill="#020D3A"/>
<path d="M240.89 268.947C242.371 266.924 243.513 264.745 244.285 262.471L243.546 262.241C242.798 264.445 241.691 266.558 240.253 268.522L240.89 268.947Z" fill="#020D3A"/>
<path d="M211.492 213.341C214.531 204.597 217.482 195.681 220.263 186.843L219.664 186.67C216.884 195.504 213.935 204.414 210.899 213.153L211.492 213.341Z" fill="#020D3A"/>
<path d="M229.8 58.8163C230.803 59.705 232.195 60.1783 233.559 60.0967C234.924 60.015 236.243 59.3785 237.122 58.377" fill="white"/>
<path d="M229.8 58.8163C230.803 59.705 232.195 60.1783 233.559 60.0967C234.924 60.015 236.243 59.3785 237.122 58.377" stroke="#020D3A" stroke-width="0.5" stroke-miterlimit="10"/>
<path d="M217.488 54.1642C218.239 53.6726 219.302 53.6002 220.06 54.0826C220.817 54.565 221.149 55.6189 220.699 56.3755" fill="white"/>
<path d="M217.488 54.1642C218.239 53.6726 219.302 53.6002 220.06 54.0826C220.817 54.565 221.149 55.6189 220.699 56.3755" stroke="#020D3A" stroke-width="0.5" stroke-miterlimit="10"/>
<path d="M164.771 27.9185C164.154 31.9181 163.063 35.8509 161.528 39.6177L164.771 27.9185Z" fill="white"/>
<path d="M164.771 27.9185C164.154 31.9181 163.063 35.8509 161.528 39.6177" stroke="#020D3A" stroke-width="0.5" stroke-miterlimit="10"/>
<path d="M162.781 27.4043C161.721 31.2738 160.425 35.0846 158.903 38.8101L162.781 27.4043Z" fill="white"/>
<path d="M162.781 27.4043C161.721 31.2738 160.425 35.0846 158.903 38.8101" stroke="#020D3A" stroke-width="0.5" stroke-miterlimit="10"/>
<path d="M261.48 115.719C261.089 120.986 260.982 126.272 261.156 131.549" stroke="#020D3A" stroke-width="0.5" stroke-miterlimit="10"/>
<path d="M251.728 144.087C251.543 132.387 250.513 120.7 248.648 109.135" stroke="#020D3A" stroke-width="0.5" stroke-miterlimit="10"/>
<path d="M260.4 6.52445C258.733 7.00584 257.507 9.25692 257.507 9.25692C257.507 9.25692 256.272 7.0251 254.601 6.5703C249.765 5.25449 247.604 9.4238 249.455 13.2722C251.241 16.9849 257.534 21.4503 257.534 21.4503C257.534 21.4503 263.806 16.884 265.575 13.1438C267.41 9.26609 265.23 5.13071 260.4 6.52445Z" fill="#20E086"/>
<path d="M364.079 95.3181C363.161 95.5831 362.487 96.8209 362.487 96.8209C362.487 96.8209 361.807 95.5931 360.889 95.3428C358.229 94.6184 357.04 96.9126 358.058 99.0289C359.04 101.071 362.502 103.527 362.502 103.527C362.502 103.527 365.952 101.016 366.925 98.9583C367.934 96.8255 366.735 94.5515 364.079 95.3181Z" fill="#20E086"/>
<path d="M322.904 256.818C321.496 257.224 320.461 259.126 320.461 259.126C320.461 259.126 319.417 257.24 318.006 256.856C313.922 255.745 312.096 259.266 313.661 262.516C315.169 265.651 320.485 269.424 320.485 269.424C320.485 269.424 325.783 265.567 327.277 262.407C328.825 259.134 326.983 255.641 322.904 256.818Z" fill="#20E086"/>
<path d="M236.182 0.515082C235.029 0.84793 234.183 2.40397 234.183 2.40397C234.183 2.40397 233.328 0.861684 232.174 0.547174C228.832 -0.362427 227.338 2.51951 228.618 5.17862C229.852 7.74421 234.202 10.8315 234.202 10.8315C234.202 10.8315 238.537 7.67544 239.76 5.0906C241.028 2.41039 239.521 -0.447701 236.182 0.515082Z" fill="#20E086"/>
<path d="M394 172.252H291.986V232.258H394V172.252Z" fill="#020D3A"/>
<path d="M391.759 169.883H289.745V229.889H391.759V169.883Z" fill="#20E086"/>
<path d="M335.276 194.382V205.478C335.276 206.158 336.061 206.57 336.662 206.205L345.358 200.908C345.901 200.578 345.917 199.826 345.389 199.474L336.693 193.675C336.096 193.276 335.276 193.685 335.276 194.382Z" fill="white"/>
<path d="M295.866 220.367H387.168" stroke="#020D3A" stroke-width="0.5" stroke-miterlimit="10"/>
<path d="M306.578 220.367C306.578 221.983 305.207 223.293 303.517 223.293C301.828 223.293 300.457 221.983 300.457 220.367C300.457 218.752 301.828 217.441 303.517 217.441C305.208 217.441 306.578 218.751 306.578 220.367Z" fill="#020D3A"/>
<path d="M349.256 319.266H290.882V354.393H349.256V319.266Z" fill="#020D3A"/>
<path d="M342.564 314.17H284.189V349.296H342.564V314.17Z" fill="#20E086"/>
<path d="M342.565 314.17C342.565 314.17 315.506 330.072 313.377 331.733L284.189 314.17" stroke="#020D3A" stroke-width="0.5" stroke-miterlimit="10"/>
<path d="M339.941 335.932C340.202 338.877 340.21 341.844 339.968 344.791" stroke="#020D3A" stroke-width="0.5" stroke-miterlimit="10"/>
<path d="M339.845 334.184C339.887 333.096 339.93 332.008 339.972 330.92" stroke="#020D3A" stroke-width="0.5" stroke-miterlimit="10"/>
<path d="M338.249 333.481C338.249 334.258 338.249 335.036 338.249 335.812" stroke="#020D3A" stroke-width="0.5" stroke-miterlimit="10"/>
<path d="M314.353 328.94C314.353 328.94 318.461 326.458 319.84 325.559" stroke="#020D3A" stroke-width="0.5" stroke-miterlimit="10"/>
<path d="M321.525 324.368C322.104 323.936 322.726 323.557 323.379 323.237" stroke="#020D3A" stroke-width="0.5" stroke-miterlimit="10"/>
<path d="M191.692 123.418C191.688 129.978 192.149 136.537 193.072 143.037" stroke="#020D3A" stroke-width="0.5" stroke-miterlimit="10"/>
<path d="M194.139 146.137C194.139 147.685 194.139 149.235 194.139 150.784" stroke="#020D3A" stroke-width="0.5" stroke-miterlimit="10"/>
<path d="M186.842 120.827C188.701 119.733 190.431 118.435 191.983 116.967" stroke="#020D3A" stroke-width="0.5" stroke-miterlimit="10"/>
<path d="M159.593 94.2539C158.684 95.7448 157.588 97.1322 156.336 98.3755" stroke="#020D3A" stroke-width="0.5" stroke-miterlimit="10"/>
<path d="M133.11 106.639C133.829 108.65 135.284 110.412 137.162 111.548" stroke="#020D3A" stroke-width="0.5" stroke-miterlimit="10"/>
<path d="M216.794 74.7988C216.67 77.1709 216.053 79.5192 214.988 81.6648" stroke="#020D3A" stroke-width="0.5" stroke-miterlimit="10"/>
<path d="M214.21 83.0605C213.976 83.5998 213.638 84.0979 213.219 84.5225" stroke="#020D3A" stroke-width="0.5" stroke-miterlimit="10"/>
<path d="M228.701 66.3448C227.124 66.5659 225.45 66.0367 224.322 64.959" stroke="#020D3A" stroke-width="0.5" stroke-miterlimit="10"/>
<path d="M244.592 85.1225C244 85.0207 243.384 85.0272 242.785 84.9492C238.692 90.0593 231.937 92.6652 225.278 92.9467C220.93 93.1301 216.612 92.4708 212.434 91.3531C210.442 90.8204 208.429 90.2317 206.607 89.2772C205.185 88.5317 204.016 87.5304 202.908 86.4392C202.257 86.5639 201.609 86.7107 200.947 86.7831C200.461 86.8354 199.984 86.8225 199.516 86.7565C199.571 86.9628 199.677 87.1673 199.86 87.3571C202.307 89.8998 204.855 91.7666 208.265 92.9715C211.801 94.2204 215.54 95.0273 219.278 95.4591C226.048 96.2404 233.142 95.3198 239.007 91.8391C241.791 90.1877 244.184 88.0109 245.978 85.3967C245.515 85.3077 245.054 85.2014 244.592 85.1225Z" fill="#020D3A"/>
<path d="M199.885 152.65C196.242 152.636 192.601 152.591 188.959 152.533C189.058 153.143 189.098 153.761 189.074 154.371C206.05 154.635 223.033 154.445 239.997 153.781C243.537 153.643 247.076 153.476 250.615 153.297C250.638 152.947 250.681 152.599 250.736 152.256C250.779 151.986 250.837 151.716 250.909 151.45C233.917 152.312 216.9 152.719 199.885 152.65Z" fill="#020D3A"/>
</svg>
