<svg width="836" height="889" viewBox="0 0 836 889" fill="none" xmlns="http://www.w3.org/2000/svg">
<g clip-path="url(#clip0_637_11019)">
<rect width="836" height="889" fill="white"/>
<g opacity="0.5">
<path d="M183.23 676.54H-115.206C-120.137 676.54 -124.692 673.91 -127.151 669.642C-129.616 665.373 -129.616 660.114 -127.151 655.846L22.0634 397.398C24.5289 393.129 29.0842 390.5 34.0084 390.5C38.9326 390.5 43.4948 393.129 45.9535 397.398L195.168 655.846C197.633 660.114 197.633 665.373 195.168 669.642C192.702 673.91 188.147 676.54 183.223 676.54H183.23ZM-91.3089 648.948H159.333L34.0153 431.888L-91.3089 648.948Z" fill="#20E086"/>
<path d="M691.143 310.43C687.372 309.128 684.189 306.209 682.698 302.176C669.777 267.264 669.363 232.832 681.527 205.226C696.799 170.579 733.69 149.013 767.341 155.07C786.564 158.532 801.548 169.316 816.045 179.752C826.878 187.551 837.129 194.925 848.186 198.495C873.196 206.584 904.814 191.212 914.532 166.236C924.264 141.215 912.32 108.707 888.449 95.2454C881.814 91.5037 879.464 83.0922 883.208 76.4513C886.952 69.8104 895.368 67.4694 902.003 71.2111C937.784 91.3835 954.939 138.5 940.251 176.246C925.069 215.259 879.017 237.471 839.698 224.747C824.52 219.842 812.006 210.842 799.929 202.144C787.37 193.107 775.506 184.569 762.459 182.22C738.894 177.982 715.643 196.242 706.783 216.347C694.283 244.698 702.544 276.282 708.579 292.583C711.221 299.73 707.578 307.67 700.431 310.312C697.318 311.462 694.059 311.421 691.147 310.417L691.143 310.43Z" fill="#20E086"/>
</g>
<path d="M599.685 853.452H236.315C232.279 853.452 229 850.108 229 846.005C229 841.902 232.284 838.559 236.315 838.559H599.685C603.721 838.559 607 841.902 607 846.005C607 850.108 603.716 853.452 599.685 853.452ZM236.315 840.063C233.096 840.063 230.478 842.729 230.478 846.005C230.478 849.282 233.096 851.947 236.315 851.947H599.685C602.904 851.947 605.522 849.282 605.522 846.005C605.522 842.729 602.904 840.063 599.685 840.063H236.315Z" fill="#020D3A"/>
<path d="M245.117 858.5C251.898 858.5 257.395 852.904 257.395 846C257.395 839.096 251.898 833.5 245.117 833.5C238.335 833.5 232.838 839.096 232.838 846C232.838 852.904 238.335 858.5 245.117 858.5Z" fill="#020D3A"/>
<path opacity="0.3" d="M427.168 714.911C547.345 714.911 644.767 702.936 644.767 688.165C644.767 673.394 547.345 661.42 427.168 661.42C306.991 661.42 209.568 673.394 209.568 688.165C209.568 702.936 306.991 714.911 427.168 714.911Z" fill="#B3B3B2"/>
<path d="M352.138 508.758C352.32 511.699 352.974 514.66 353.604 517.515C354.203 520.224 354.817 523.024 355.049 525.849C355.89 536.118 351.846 547.03 343.018 558.28C339.574 562.672 335.706 566.806 331.965 570.81C327.871 575.186 323.635 579.713 319.974 584.563C317.597 587.705 315.633 590.726 314.037 593.657C319.566 598.215 326.405 601.236 333.496 602.143C336.693 602.556 343.034 601.367 345.602 599.459C348.135 597.575 349.676 594.443 349.631 591.29C349.6 589.185 348.926 587.191 348.21 585.081C347.616 583.324 347.002 581.506 346.795 579.612C346.332 575.412 347.908 570.754 351.247 566.489C353.412 563.719 356.061 561.342 358.62 559.046C359.45 558.301 360.286 557.55 361.102 556.79C369.95 548.551 374.583 540.212 374.86 532.003C375.152 523.457 370.635 515.279 366.38 508.289L365.206 506.371C361.581 500.469 357.849 494.385 356.374 487.693C354.082 494.219 351.685 501.506 352.133 508.758H352.138Z" fill="#F5F0EA"/>
<path d="M331.099 570.004C334.825 566.02 338.678 561.901 342.087 557.555C350.724 546.547 354.687 535.916 353.866 525.955C353.639 523.211 353.03 520.446 352.441 517.777C351.801 514.871 351.137 511.87 350.95 508.838C350.477 501.164 353.045 493.57 355.427 486.811C349.329 495.126 344.247 504.15 340.33 513.693C339.801 514.982 339.292 516.281 338.784 517.586C337.389 521.146 335.948 524.827 334.085 528.252C331.119 533.705 327.483 537.633 323.288 539.925C321.113 541.113 318.731 541.894 316.424 542.649C313.488 543.606 310.714 544.517 308.297 546.194C303.23 549.709 300.244 556.649 300.31 564.751C300.38 573.816 303.87 582.901 309.888 589.679C310.895 590.812 311.978 591.875 313.116 592.877C314.717 589.961 316.676 586.965 319.028 583.852C322.729 578.958 326.985 574.405 331.099 570.004Z" fill="#F5F0EA"/>
<path d="M356.041 485.955C355.99 486.021 355.945 486.091 355.895 486.157L356.091 486.227C356.076 486.137 356.056 486.046 356.041 485.955Z" fill="#F5F0EA"/>
<path d="M250.051 617.552C249.512 618.212 249.301 619.073 249.472 619.909L261.165 677.147C263.17 686.967 271.902 694.097 281.923 694.097H299.287C309.308 694.097 318.04 686.972 320.045 677.147L331.738 619.909C331.909 619.073 331.698 618.212 331.159 617.552C330.62 616.893 329.819 616.51 328.963 616.51H252.247C251.391 616.51 250.59 616.893 250.051 617.552Z" fill="#F5F0EA"/>
<path d="M319.189 529.828C314.546 521.131 309.747 512.142 310.588 502.382C311.177 495.544 314.531 489.415 317.769 483.493C320.342 478.789 323.001 473.93 324.255 468.748C326.526 459.391 324.386 448.423 317.885 436.156C315.739 432.107 313.287 428.119 310.915 424.266C307.365 418.495 303.689 412.528 300.954 406.187C295.097 392.626 293.134 378.193 295.284 365.065C289.155 381.451 285.434 398.578 284.28 416.053C283.173 432.832 284.452 449.934 285.691 466.472C286.834 481.75 288.017 497.553 287.322 513.114C287 520.386 286.26 527.743 285.539 534.859C284.834 541.879 284.099 549.14 283.772 556.301C283.117 570.558 283.928 584.286 286.224 597.847C289.659 597.394 292.977 595.994 295.742 593.713C298.859 591.139 302.047 588.354 305.23 585.434C301.357 579.275 299.166 572.013 299.111 564.756C299.046 556.256 302.223 548.949 307.612 545.212C310.175 543.435 313.161 542.458 316.052 541.511C318.308 540.776 320.639 540.01 322.719 538.877C322.966 538.741 323.203 538.585 323.444 538.439C322.467 536.168 321.289 533.761 319.662 530.709L319.189 529.828Z" fill="#F5F0EA"/>
<path d="M269.098 586.058C270.438 579.904 270.125 572.834 268.136 564.434C266.963 559.484 265.064 553.199 260.759 548.516C258.145 545.671 254.761 543.571 251.483 541.536C249.252 540.151 246.945 538.716 244.861 537.044C237.332 531.006 232.88 522.062 229.516 514.106C227.885 510.253 226.349 506.26 224.863 502.402C220.487 491.042 215.96 479.293 208.502 469.564C204.745 464.664 201.023 461.803 197.166 460.867C197.221 460.967 197.272 461.068 197.327 461.164C206.588 468.632 209.791 480.834 210.823 489.868C211.443 495.307 211.523 500.862 211.599 506.235C211.674 511.663 211.75 517.273 212.394 522.737C214.479 540.499 222.592 557.248 235.237 569.898C237.327 571.988 239.573 574.002 241.748 575.946C244.649 578.545 247.645 581.229 250.335 584.155C254.721 588.929 258.337 594.463 261.026 600.41C264.934 596.931 267.844 591.844 269.108 586.053L269.098 586.058Z" fill="#F5F0EA"/>
<path d="M240.948 576.838C238.762 574.879 236.506 572.859 234.391 570.744C221.56 557.908 213.326 540.907 211.206 522.878C210.556 517.354 210.476 511.709 210.4 506.255C210.325 500.912 210.249 495.388 209.635 490.004C208.708 481.871 205.984 471.12 198.541 463.838C200.203 468.395 200.203 473.472 200.208 478.422V480.003C200.238 486.665 199.024 493.328 197.851 499.769L197.639 500.927C195.726 511.457 193.878 522.747 193.304 533.987C192.936 541.204 193.178 550.294 198.349 556.548C200.812 559.529 204.241 561.664 207.56 563.729C211.322 566.071 215.21 568.493 217.808 572.184C220.079 575.417 221.112 579.27 222.109 582.996C222.688 585.162 223.287 587.398 224.118 589.472C226.631 595.727 231.606 600.808 237.418 603.079C242.957 605.24 251.03 606.398 257.083 603.175C258.125 602.621 259.122 601.956 260.069 601.206C257.42 595.259 253.824 589.724 249.443 584.96C246.794 582.08 243.818 579.416 240.938 576.838H240.948Z" fill="#F5F0EA"/>
<path d="M285.046 597.973C282.744 584.351 281.934 570.568 282.593 556.251C282.921 549.06 283.656 541.778 284.361 534.743C285.076 527.642 285.816 520.3 286.139 513.064C286.828 497.573 285.65 481.811 284.507 466.562C283.268 449.984 281.984 432.842 283.097 415.977C284.285 397.974 288.173 380.323 294.609 363.478C274.108 380.651 262.546 407.441 264.293 434.182C264.661 439.757 265.587 445.437 266.484 450.931C268.196 461.391 269.963 472.208 267.909 482.758C266.247 491.299 262.163 499.149 258.22 506.744C256.286 510.46 254.287 514.307 252.605 518.18C250.011 524.142 248.052 530.412 246.788 536.808L246.426 536.737C248.239 538.107 250.203 539.336 252.116 540.529C255.455 542.604 258.915 544.749 261.639 547.71C266.131 552.595 268.09 559.066 269.299 564.157C271.328 572.733 271.645 579.98 270.266 586.31C269.812 588.395 269.148 590.389 268.307 592.262C270.774 593.748 273.453 595.148 276.283 596.422C279.058 597.671 282.075 598.175 285.046 597.968V597.973Z" fill="#F5F0EA"/>
<path d="M299.287 695.291H281.924C271.338 695.291 262.112 687.762 259.997 677.389L248.304 620.146C248.062 618.958 248.365 617.734 249.13 616.797C249.895 615.855 251.034 615.317 252.247 615.317H328.963C330.177 615.317 331.315 615.855 332.081 616.797C332.846 617.739 333.148 618.958 332.907 620.146L321.213 677.389C319.093 687.762 309.873 695.291 299.287 695.291ZM252.247 616.51C251.391 616.51 250.59 616.888 250.052 617.552C249.513 618.212 249.301 619.073 249.472 619.909L261.166 677.152C263.17 686.972 271.902 694.103 281.924 694.103H299.287C309.314 694.103 318.041 686.977 320.045 677.152L331.738 619.909C331.909 619.073 331.698 618.212 331.159 617.552C330.62 616.893 329.82 616.51 328.963 616.51H252.247Z" fill="black"/>
<path d="M283.757 599.207C281.043 599.207 278.323 598.648 275.795 597.51C272.754 596.14 269.873 594.629 267.234 593.018L267.854 592.001C270.447 593.587 273.282 595.072 276.279 596.422C282.639 599.287 290.284 598.225 295.747 593.713C298.99 591.034 302.304 588.138 305.592 585.101L306.398 585.978C303.095 589.029 299.761 591.94 296.503 594.629C292.862 597.636 288.309 599.202 283.752 599.202L283.757 599.207Z" fill="black"/>
<path d="M323.651 538.918C322.634 536.505 321.4 533.977 319.662 530.709L319.189 529.823C314.546 521.126 309.747 512.137 310.588 502.377C311.177 495.539 314.531 489.415 317.769 483.488C320.342 478.784 323.001 473.925 324.255 468.743C326.526 459.386 324.386 448.418 317.885 436.146C315.74 432.097 313.287 428.109 310.915 424.256C307.365 418.485 303.689 412.518 300.954 406.177C294.715 391.735 292.892 376.3 295.757 362.512C274.536 379.633 262.511 406.933 264.293 434.177C264.661 439.751 265.587 445.432 266.484 450.926C268.196 461.386 269.964 472.203 267.909 482.753C266.247 491.293 262.163 499.144 258.22 506.738C256.286 510.46 254.287 514.302 252.6 518.175C250.006 524.137 248.048 530.402 246.784 536.803L245.615 536.571C246.894 530.09 248.878 523.739 251.507 517.702C253.209 513.789 255.219 509.926 257.157 506.19C261.065 498.671 265.104 490.901 266.736 482.526C268.75 472.182 266.997 461.471 265.305 451.117C264.404 445.598 263.467 439.887 263.1 434.257C261.257 406.072 273.992 377.826 296.331 360.543L297.661 359.51L297.273 361.147C293.964 375.101 295.657 390.924 302.042 405.709C304.746 411.969 308.397 417.901 311.922 423.632C314.304 427.499 316.767 431.503 318.932 435.587C325.57 448.121 327.75 459.371 325.408 469.02C324.114 474.353 321.415 479.283 318.806 484.052C315.478 490.135 312.335 495.886 311.766 502.473C310.955 511.88 315.674 520.713 320.232 529.254L320.705 530.14C322.462 533.439 323.706 535.997 324.744 538.444L323.646 538.907L323.651 538.918Z" fill="black"/>
<path d="M334.917 603.417C334.348 603.417 333.819 603.387 333.346 603.326C324.075 602.143 315.197 597.454 308.997 590.465C302.793 583.475 299.193 574.103 299.122 564.757C299.057 556.256 302.234 548.949 307.623 545.212C310.186 543.435 313.172 542.458 316.063 541.511C318.319 540.776 320.65 540.01 322.73 538.877C326.724 536.697 330.198 532.925 333.054 527.678C334.882 524.319 336.307 520.678 337.682 517.158C338.195 515.848 338.709 514.539 339.243 513.235C343.518 502.826 349.148 493.016 355.982 484.072L356.893 482.879L357.045 484.369C357.84 492.079 362.106 499.023 366.235 505.741L367.413 507.665C371.759 514.806 376.372 523.165 376.065 532.039C375.773 540.579 371.014 549.196 361.924 557.656C361.103 558.421 360.262 559.172 359.426 559.927C356.903 562.193 354.295 564.53 352.195 567.219C349.053 571.238 347.562 575.589 347.99 579.481C348.186 581.244 348.781 583.001 349.35 584.699C350.06 586.804 350.795 588.979 350.83 591.27C350.886 594.8 349.158 598.305 346.323 600.41C343.886 602.223 338.568 603.412 334.922 603.412L334.917 603.417ZM356.042 485.955C349.662 494.501 344.384 503.828 340.336 513.688C339.802 514.982 339.293 516.286 338.784 517.591C337.395 521.146 335.954 524.822 334.091 528.242C331.125 533.695 327.494 537.623 323.294 539.92C321.119 541.108 318.737 541.889 316.43 542.639C313.494 543.601 310.72 544.507 308.302 546.184C303.236 549.699 300.25 556.639 300.316 564.741C300.386 573.806 303.876 582.891 309.894 589.669C315.907 596.447 324.513 600.995 333.507 602.143C336.705 602.551 343.05 601.367 345.613 599.459C348.146 597.575 349.687 594.443 349.642 591.29C349.612 589.185 348.937 587.191 348.222 585.081C347.627 583.324 347.013 581.506 346.807 579.612C346.343 575.412 347.925 570.749 351.258 566.489C353.424 563.719 356.073 561.342 358.636 559.046C359.467 558.301 360.303 557.55 361.119 556.79C369.967 548.551 374.6 540.212 374.877 532.003C375.169 523.452 370.651 515.279 366.396 508.289L365.223 506.371C361.285 499.96 357.221 493.343 356.057 485.955H356.042Z" fill="black"/>
<path d="M248.24 606.358C244.206 606.358 240.188 605.436 236.99 604.187C230.876 601.805 225.654 596.467 223.02 589.916C222.159 587.77 221.55 585.499 220.961 583.299C219.944 579.507 218.987 575.921 216.836 572.864C214.379 569.369 210.763 567.118 206.931 564.736C203.532 562.621 200.017 560.436 197.428 557.304C192 550.732 191.738 541.355 192.115 533.922C192.689 522.632 194.543 511.291 196.466 500.711L196.678 499.557C197.841 493.172 199.045 486.565 199.02 480.008V478.432C199.02 472.097 199.015 465.55 195.444 460.373L194.684 459.27L196.008 459.447C200.666 460.056 205.063 463.128 209.444 468.844C217.013 478.709 221.57 490.538 225.976 501.98C227.457 505.827 228.993 509.805 230.614 513.643C233.918 521.458 238.284 530.246 245.606 536.118C247.636 537.744 249.912 539.159 252.113 540.524C255.456 542.599 258.911 544.744 261.635 547.705C266.127 552.59 268.086 559.061 269.295 564.152C271.324 572.728 271.642 579.975 270.262 586.305C268.534 594.236 263.816 600.934 257.647 604.218C254.782 605.743 251.503 606.348 248.24 606.348V606.358ZM197.161 460.872C200.203 466.129 200.203 472.379 200.203 478.432V480.008C200.233 486.671 199.02 493.333 197.846 499.774L197.635 500.927C195.721 511.467 193.873 522.763 193.299 533.988C192.931 541.204 193.173 550.294 198.345 556.548C200.807 559.529 204.237 561.665 207.555 563.729C211.317 566.071 215.205 568.493 217.803 572.185C220.074 575.412 221.107 579.27 222.104 582.996C222.683 585.162 223.282 587.403 224.118 589.478C226.631 595.732 231.602 600.818 237.418 603.085C242.957 605.245 251.035 606.403 257.083 603.18C262.95 600.058 267.437 593.657 269.093 586.063C270.433 579.909 270.121 572.834 268.132 564.434C266.958 559.484 265.06 553.199 260.754 548.516C258.14 545.676 254.756 543.571 251.483 541.541C249.252 540.156 246.946 538.721 244.861 537.049C237.332 531.011 232.881 522.068 229.517 514.111C227.89 510.254 226.349 506.265 224.864 502.408C220.487 491.047 215.96 479.298 208.497 469.569C204.74 464.669 201.019 461.809 197.161 460.872Z" fill="black"/>
<path d="M289.004 616.067C283.741 596.493 281.642 576.928 282.593 556.251C282.921 549.055 283.656 541.778 284.366 534.738C285.081 527.642 285.821 520.305 286.144 513.069C286.833 497.583 285.655 481.816 284.512 466.572C283.268 449.994 281.989 432.847 283.097 415.982C284.331 397.304 288.44 379.004 295.314 361.59L296.422 362.028C289.593 379.326 285.509 397.506 284.285 416.058C283.177 432.842 284.457 449.944 285.695 466.482C286.839 481.761 288.022 497.563 287.327 513.119C287.005 520.391 286.264 527.743 285.549 534.859C284.839 541.884 284.109 549.145 283.782 556.311C282.84 576.863 284.925 596.311 290.157 615.765L289.009 616.072L289.004 616.067Z" fill="black"/>
<path d="M308.086 615.664C306.711 605.658 310.19 595.551 319.028 583.852C322.73 578.953 326.985 574.405 331.099 570.004C334.826 566.021 338.673 561.901 342.088 557.555C350.724 546.547 354.687 535.916 353.866 525.955C353.64 523.211 353.03 520.446 352.441 517.777C351.802 514.876 351.137 511.87 350.951 508.838C350.457 500.887 353.232 493.026 355.684 486.086L356.807 486.484C354.395 493.313 351.666 501.058 352.139 508.768C352.32 511.709 352.975 514.665 353.605 517.525C354.204 520.235 354.823 523.034 355.05 525.86C355.891 536.128 351.847 547.04 343.019 558.29C339.575 562.682 335.707 566.816 331.966 570.82C327.871 575.201 323.636 579.728 319.975 584.573C311.339 596.004 307.934 605.834 309.264 615.508L308.086 615.669V615.664Z" fill="black"/>
<path d="M264.512 615.996C262.653 604.535 257.305 593.511 249.449 584.96C246.8 582.08 243.824 579.411 240.944 576.832C238.758 574.879 236.502 572.854 234.387 570.739C221.556 557.903 213.322 540.902 211.202 522.873C210.552 517.349 210.472 511.704 210.396 506.25C210.321 500.907 210.245 495.383 209.631 489.999C208.598 480.98 205.386 468.728 195.943 461.572L196.663 460.625C206.443 468.038 209.757 480.617 210.814 489.868C211.434 495.307 211.514 500.862 211.59 506.235C211.665 511.663 211.741 517.273 212.385 522.737C214.47 540.499 222.583 557.248 235.228 569.898C237.318 571.988 239.564 573.997 241.734 575.946C244.635 578.545 247.636 581.229 250.321 584.155C258.333 592.877 263.786 604.117 265.68 615.805L264.507 615.996H264.512Z" fill="black"/>
<path d="M531.681 147.052C531.983 147.173 532.315 147.143 532.587 146.977C533.932 146.171 535.845 144.942 537.668 143.497C537.729 143.417 537.804 143.351 537.9 143.306C539.426 142.072 540.866 140.702 541.813 139.292C544.069 135.928 547.483 125.751 547.297 116.127C547.297 116.097 547.297 116.062 547.297 116.032C547.231 113.055 546.824 110.135 545.922 107.486C543.656 100.823 534.214 90.6106 522.913 85.7157C518.255 83.7014 511.432 81.8784 505.363 84.628C498.978 87.5286 494.531 92.1818 492.517 98.0939C490.261 104.706 491.036 112.496 494.733 120.785C494.4 118.076 494.118 115.316 494.033 112.562C493.962 110.19 494.038 107.44 495.176 105.048C496.228 102.828 498.61 100.647 501.471 100.733C503.43 100.798 505.358 101.921 506.773 103.81C507.962 105.396 508.642 107.274 509.296 109.223C510.168 111.827 510.938 114.511 511.688 117.104C512.419 119.632 513.169 122.251 514.01 124.774C514.277 125.564 515.344 125.917 516.13 125.736C516.951 125.549 517.726 124.94 518.436 123.933C519.006 123.122 519.434 122.226 519.887 121.284C520.239 120.554 520.602 119.793 521.035 119.078C522.299 117.004 524.051 115.76 525.839 115.674C527.738 115.583 529.671 116.762 531.127 118.907C533.237 122.019 533.806 125.947 532.612 129.155C531.696 131.623 529.702 133.551 527.385 134.458L531.061 146.363C531.157 146.675 531.389 146.922 531.696 147.037L531.681 147.052Z" fill="black"/>
<path d="M533.197 147.994C532.845 148.206 532.452 148.311 532.054 148.311C531.782 148.311 531.51 148.261 531.253 148.16C530.604 147.914 530.115 147.39 529.909 146.725L526.233 134.82C525.664 134.951 525.09 135.047 524.51 135.047C524.415 135.047 524.314 135.047 524.218 135.042C523.891 135.027 523.634 134.75 523.649 134.423C523.664 134.095 523.951 133.884 524.269 133.853C525.009 133.889 525.744 133.778 526.459 133.556C526.459 133.556 526.464 133.556 526.469 133.556C526.479 133.556 526.484 133.556 526.495 133.556C528.69 132.866 530.629 131.079 531.49 128.762C532.553 125.912 532.034 122.402 530.136 119.602C529.561 118.751 527.955 116.767 525.89 116.888C523.916 116.983 522.541 118.902 522.043 119.718C521.64 120.383 521.287 121.113 520.95 121.818C520.497 122.765 520.029 123.747 519.399 124.638C518.518 125.892 517.506 126.662 516.388 126.919C515.063 127.216 513.361 126.637 512.873 125.177C512.027 122.629 511.271 120 510.536 117.457C509.791 114.873 509.025 112.199 508.159 109.621C507.519 107.697 506.895 105.99 505.817 104.545C504.639 102.969 503.002 101.997 501.431 101.941C499.029 101.825 497.136 103.709 496.249 105.577C495.222 107.743 495.151 110.316 495.222 112.547C495.333 116.278 495.821 120.05 496.295 123.696L496.451 124.935C496.642 126.416 496.798 127.629 497.04 129.296C497.05 129.377 497.045 129.457 497.025 129.533C496.894 130.036 496.778 130.605 496.662 131.195C496.37 132.66 496.038 134.327 495.297 135.515C495.166 135.727 495.026 135.938 494.885 136.15C494.336 136.966 493.822 137.741 493.857 138.562C493.892 139.302 494.436 140.012 495.182 140.289C495.897 140.551 496.808 140.41 497.488 139.932C497.659 139.811 497.866 139.801 498.047 139.871C498.123 139.771 498.218 139.69 498.349 139.65C498.671 139.554 498.994 139.74 499.089 140.058C499.412 141.171 499.769 142.173 500.182 143.119C501.089 145.219 502.378 147.309 504.241 149.706C505.193 150.93 506.356 152.325 507.776 153.377C510.954 155.719 515.431 156.283 519.454 154.838C521.519 154.098 523.881 152.35 526.102 149.918C526.323 149.676 526.701 149.656 526.943 149.878C527.179 150.094 527.195 150.447 526.998 150.693C527.069 152.34 527.124 160.287 522.426 163.439L525.215 173.858C527.018 173.732 529.244 173.234 531.676 171.884C533.061 171.119 534.638 170.137 536.309 169.094C539.386 167.181 542.675 165.136 545.812 163.726L537.896 144.842C536.184 146.151 534.451 147.264 533.202 148.009L533.197 147.994ZM500.056 119.008C499.855 119.008 499.653 118.902 499.543 118.716C499.377 118.434 499.472 118.066 499.754 117.9C502.509 116.288 506.084 116.253 508.869 117.809C509.156 117.97 509.257 118.333 509.096 118.62C508.935 118.907 508.572 119.008 508.285 118.847C505.863 117.492 502.745 117.522 500.353 118.927C500.258 118.983 500.157 119.008 500.051 119.008H500.056ZM501.003 127.76C500.243 125.922 500.686 123.993 501.995 123.454C503.304 122.911 504.981 123.963 505.742 125.796C506.502 127.634 506.059 129.563 504.75 130.102C503.44 130.646 501.763 129.593 501.003 127.76ZM513.814 135.445C512.57 139.312 509.383 142.44 505.49 143.613C505.435 143.628 505.374 143.638 505.319 143.638C505.062 143.638 504.825 143.472 504.75 143.215C504.654 142.898 504.83 142.565 505.148 142.475C508.668 141.412 511.553 138.582 512.681 135.082C512.782 134.77 513.119 134.594 513.432 134.699C513.744 134.8 513.915 135.138 513.814 135.45V135.445ZM523.387 128.213C523.161 128.213 522.944 128.082 522.844 127.861C522.264 126.562 521.993 125.393 521.998 124.295C522.008 122.906 522.516 121.611 523.382 120.75C524.405 119.738 525.926 119.37 527.174 119.839C527.688 120.03 528.172 120.357 528.7 120.871C530.538 122.649 531.405 125.247 530.906 127.488C530.835 127.81 530.518 128.012 530.196 127.941C529.874 127.871 529.672 127.549 529.743 127.231C530.156 125.383 529.42 123.223 527.874 121.732C527.466 121.339 527.109 121.093 526.756 120.957C525.951 120.66 524.908 120.921 524.223 121.601C523.906 121.918 523.654 122.316 523.478 122.775C523.72 122.704 523.977 122.649 524.249 122.644C526.082 122.613 527.819 123.953 528.313 125.821C528.756 127.493 528.187 129.432 526.862 130.756C526.746 130.872 526.595 130.933 526.439 130.933C526.283 130.933 526.137 130.872 526.016 130.756C525.785 130.525 525.785 130.147 526.016 129.915C527.043 128.883 527.492 127.398 527.159 126.123C526.812 124.804 525.518 123.762 524.284 123.832C523.831 123.847 523.453 123.998 523.267 124.24C523.246 124.27 523.216 124.285 523.191 124.311C523.186 125.237 523.428 126.244 523.931 127.387C524.067 127.69 523.931 128.042 523.629 128.173C523.549 128.208 523.468 128.223 523.387 128.223V128.213Z" fill="#F5F0EA"/>
<path d="M584.541 86.3703C584.541 99.5743 576.67 110.955 565.37 116.092C562.953 116.676 560.43 116.973 557.846 116.973C554.644 116.973 551.486 116.495 548.455 115.578C548.369 112.627 547.941 109.742 547.049 107.113C544.511 99.67 534.974 90.3134 525.234 85.489C525.224 85.1063 525.209 84.7135 525.209 84.3358C525.209 71.157 533.045 59.7961 544.31 54.6394C546.737 54.0451 549.285 53.7329 551.904 53.7329C569.907 53.7329 584.541 68.3772 584.541 86.3703Z" fill="black"/>
<path d="M379.769 365.05C379.407 364.138 379.009 363.524 378.51 363.111C378.087 362.763 377.584 362.577 377.115 362.592C377.755 364.848 378.601 366.958 379.543 367.708C379.86 367.96 380.066 367.95 380.197 367.92C380.288 367.9 380.378 367.854 380.474 367.799C380.474 367.784 380.464 367.774 380.464 367.759C380.348 366.827 380.117 365.916 379.769 365.05Z" fill="#F5F0EA"/>
<path d="M407.704 350.284C407.492 349.957 407.301 349.751 407.095 349.64C406.979 349.579 406.858 349.564 406.752 349.569C406.677 352.505 406.903 354.953 407.583 355.703C407.86 356.005 408.182 356.207 408.53 356.312C408.887 353.704 408.631 351.72 407.709 350.289L407.704 350.284Z" fill="#F5F0EA"/>
<path d="M312.914 297.917L305.078 299.15L357.708 380.973L362.074 380.283L365.539 379.734L312.914 297.917Z" fill="#F5F0EA"/>
<path d="M552.197 647.108V679.111H565.703V465.777H552.197V627.715V647.108Z" fill="#F5F0EA"/>
<path d="M384.286 350.284C384.074 349.957 383.883 349.751 383.677 349.64C383.561 349.579 383.44 349.564 383.334 349.569C383.259 352.505 383.485 354.953 384.165 355.703C384.442 356.005 384.764 356.207 385.112 356.312C385.469 353.704 385.213 351.725 384.286 350.289V350.284Z" fill="#F5F0EA"/>
<path d="M460.102 464.588H572.774C579.044 464.588 584.15 459.487 584.15 453.212C584.15 446.938 579.049 441.836 572.774 441.836H441.268L459.991 464.608C460.031 464.603 460.066 464.583 460.107 464.583L460.102 464.588Z" fill="#F5F0EA"/>
<path d="M551.002 628.314H517.469V646.514H551.002V628.314Z" fill="#F5F0EA"/>
<path d="M516.281 588.093C513.028 590.857 508.198 594.926 502.76 599.408C502.76 599.428 502.77 599.444 502.77 599.459V679.116H516.281V588.093Z" fill="#F5F0EA"/>
<path d="M560.724 345.349C536.003 354.424 508.482 351.785 504.176 351.297C503.451 356.413 501.487 367.955 498.219 369.809C497.287 370.337 492.165 370.851 480.674 371.964C476.952 372.321 472.747 372.729 468.22 373.193L468.26 373.449C468.285 373.606 468.245 373.767 468.155 373.893C468.064 374.019 467.923 374.104 467.767 374.129L384.348 387.318C372.342 391.085 364.622 395.315 361.399 399.893C348.654 418.007 346.377 435.265 354.631 451.188C360.297 462.116 460.676 566.131 467.898 573.605L513.704 531.822L425.556 424.604C425.345 424.352 425.385 423.974 425.637 423.768C425.889 423.556 426.266 423.597 426.473 423.848L428.432 426.23C433.105 429.786 444.325 438.336 447.231 440.653H580.097C583.103 440.653 586.009 439.525 588.275 437.48C622.866 406.223 603.82 362.773 596.297 348.834C581.758 352.218 560.724 345.354 560.724 345.354V345.349Z" fill="#20E086"/>
<path d="M501.577 628.314H468.043V646.514H501.577V628.314Z" fill="#F5F0EA"/>
<path d="M516.282 465.777H502.771V516.025C502.771 516.186 502.705 516.332 502.6 516.443L514.978 531.5C515.179 531.741 515.154 532.104 514.917 532.316L506.155 540.307C510.022 542.77 513.376 545.369 516.272 547.962V465.772L516.282 465.777Z" fill="#F5F0EA"/>
<path d="M472.337 571.162L468.273 574.874C468.158 574.979 468.017 575.03 467.871 575.03C467.714 575.03 467.558 574.969 467.442 574.848C466.44 573.811 460.276 567.436 451.303 558.089L440.994 568.7L451.967 584.991C452.098 585.182 452.103 585.429 451.982 585.63C444.016 598.965 432.529 620.116 433.541 623.737C433.561 623.812 433.602 623.918 433.662 623.948C434.871 624.426 442.732 620.352 481.291 587.886C481.513 587.509 481.709 587.181 481.855 586.934L472.327 571.167L472.337 571.162Z" fill="black"/>
<path d="M464.669 626.698C464.477 626.698 464.321 626.667 464.195 626.602C463.953 626.476 463.636 626.209 463.48 625.66C463.002 623.953 464.563 619.627 466.955 614.44C466.894 614.35 466.849 614.244 466.849 614.123V601.453C461.556 605.794 457.1 609.369 453.338 612.31V679.121H466.849V626.033C465.922 626.456 465.167 626.703 464.664 626.703L464.669 626.698Z" fill="#F5F0EA"/>
<path d="M483.648 252.09C483.653 252.322 483.658 252.554 483.663 252.78C486.921 265.999 495.644 295.484 496.938 299.84C501.817 298.596 505.519 297.665 508.329 296.965C507.77 290.514 502.266 224.464 509.296 197.91C513.46 182.178 523.059 178.693 528.412 178.018C537.693 176.845 547.77 181.996 552.398 190.26C563.064 209.321 579.672 319.314 562.439 339.548C573.886 347.238 591.048 344.342 594.004 343.431C596.869 342.549 613.256 316.167 612.994 302.615C612.747 289.517 585.065 211.325 578.206 195.497C571.64 180.344 559.156 164.043 553.47 163.197C549.029 162.548 542.331 166.717 536.938 170.076C535.251 171.124 533.659 172.116 532.249 172.896C528.472 174.986 525.123 175.198 522.973 175.006C521.493 174.87 520.072 175.173 518.859 175.873C516.709 177.111 513.818 179.045 512.237 181.216C509.135 185.476 481.468 240.165 482.505 247.402C482.631 248.298 482.943 249.749 483.386 251.597C483.552 251.698 483.648 251.864 483.653 252.075L483.648 252.09Z" fill="black"/>
<path d="M460.947 465.777L466.854 472.968V465.777H460.947Z" fill="#F5F0EA"/>
<path d="M483.07 587.232C482.818 587.655 482.561 588.088 482.3 588.526C482.3 588.536 482.29 588.546 482.285 588.556C474.368 601.921 463.647 621.833 464.634 625.338C464.654 625.413 464.694 625.514 464.755 625.549C464.815 625.575 464.891 625.585 464.976 625.585C465.384 625.585 466.074 625.323 466.991 624.849C467.096 624.713 467.252 624.623 467.434 624.618C475.068 620.443 496.521 603.371 516.453 586.391C516.453 586.391 516.463 586.38 516.468 586.38C516.982 585.942 517.495 585.509 518.004 585.071L516.332 581.38L510.959 569.525C510.848 569.279 510.913 568.987 511.125 568.815C511.336 568.644 511.639 568.639 511.855 568.8L524.47 578.253L531.455 570.215C530.503 567.854 523.886 552.902 505.258 541.148L473.245 570.351L483.08 586.622C483.196 586.809 483.196 587.045 483.08 587.237L483.07 587.232Z" fill="black"/>
<path d="M497.627 368.771C499.133 367.92 500.432 363.997 501.42 359.717C494.999 359.762 447.762 360.336 405.431 367.9C404.963 368.524 404.444 368.957 403.865 369.083C403.754 369.108 403.628 369.124 403.492 369.124C403.135 369.124 402.692 369.013 402.218 368.64C402.102 368.549 401.997 368.434 401.886 368.318C401.72 369.723 401.357 371.37 401.292 371.662C401.055 372.714 400.808 373.535 400.566 374.2L466.138 363.831C466.451 363.78 466.768 364.002 466.818 364.324L468.032 372.009C472.589 371.546 476.814 371.138 480.556 370.775C489.298 369.929 496.847 369.199 497.633 368.771H497.627Z" fill="#20E086"/>
<path d="M398.593 376.823C398.437 376.869 398.276 376.889 398.115 376.889C397.631 376.889 397.118 376.702 396.584 376.33C396.483 376.259 396.387 376.164 396.287 376.083L358.029 382.131L359.283 390.073L466.98 373.041L465.726 365.1L399.983 375.494C399.364 376.602 398.835 376.758 398.593 376.823Z" fill="#F5F0EA"/>
<path d="M517.108 295.137C517.41 295.268 517.551 295.615 517.425 295.917C517.314 296.179 517.037 296.32 516.765 296.27C515.632 296.3 504.573 299.12 491.787 302.383C479.505 305.516 464.216 309.418 450.372 312.742C444.712 314.102 438.307 314.756 432.661 315.341C425.938 316.031 420.132 316.625 417.775 318.146C400.653 329.199 392.193 344.654 391.901 365.397C391.886 367.22 392.103 369.053 392.4 369.864C392.4 369.874 392.41 369.879 392.41 369.889C392.475 370.065 392.546 370.206 392.616 370.267C392.616 370.257 392.646 370.236 392.672 370.216C392.536 369.738 392.425 369.275 392.39 368.852C392.228 367.059 392.928 359.646 393.543 353.749C393.578 353.422 393.87 353.185 394.197 353.22C394.525 353.256 394.761 353.548 394.726 353.875C393.865 362.144 393.457 367.426 393.573 368.751C393.578 368.826 393.603 368.912 393.613 368.993C393.749 368.907 393.9 368.836 394.062 368.786C394.52 368.65 395.054 368.675 395.592 368.867C396.343 369.134 397.038 369.683 397.607 370.453C398.09 371.108 398.428 371.828 398.755 372.523L399.41 373.908C400.246 371.616 400.86 367.824 400.805 366.898C400.789 366.837 400.794 366.772 400.799 366.706C399.107 363.403 398.12 357.612 398.105 355.995C398.105 355.849 399.102 340.857 399.888 340.384C400.069 340.278 400.301 340.273 400.487 340.374C400.769 340.53 400.88 340.882 400.729 341.169C400.482 342.267 399.269 353.643 399.294 355.98C399.304 356.942 399.651 359.163 400.22 361.434C401.046 361.333 401.958 361.595 402.678 362.189C403.338 362.738 403.846 363.504 404.284 364.606C404.541 365.261 404.722 365.941 404.863 366.626C406.027 364.546 407.014 360.391 407.492 357.133C407.205 356.967 406.928 356.766 406.686 356.499C404.33 353.905 406.047 339.059 407.996 335.847C410.086 332.397 417.352 331.878 417.66 331.858C417.992 331.813 418.269 332.085 418.294 332.412C418.314 332.739 418.067 333.021 417.74 333.047C417.67 333.047 410.786 333.54 409.018 336.461C407.95 338.218 407.034 343.677 406.792 348.371C407.084 348.371 407.386 348.446 407.658 348.592C408.167 348.869 408.494 349.323 408.696 349.64C409.753 351.281 410.086 353.457 409.728 356.262C410.69 355.935 413.716 354.142 414.814 344.574C414.839 344.367 414.97 344.186 415.162 344.1C415.348 344.015 415.57 344.035 415.746 344.151C415.973 344.307 438.755 359.706 456.516 341.376C456.748 341.139 457.126 341.134 457.357 341.361C457.594 341.587 457.599 341.965 457.372 342.202C456.657 342.942 455.932 343.607 455.202 344.241C465.047 345.324 541.204 353.2 559.781 340.399C568.297 334.532 570.976 308.139 567.129 267.988C564.007 235.411 556.931 200.8 551.351 190.839C547.026 183.104 537.236 178.093 528.554 179.196C519.827 180.299 513.391 187.052 510.44 198.212C504.916 219.075 507.202 264.675 508.673 285.977L516.398 295.127C516.79 295.076 516.992 295.086 517.098 295.132L517.108 295.137Z" fill="#F5F0EA"/>
<path d="M397.686 373.021C397.384 372.377 397.072 371.712 396.654 371.153C396.357 370.745 395.858 370.216 395.194 369.98C394.982 369.904 394.675 369.834 394.403 369.919C394.207 369.98 394.05 370.126 394.015 370.277C394.005 370.317 393.985 370.352 393.965 370.388C394.524 371.989 395.581 373.767 396.634 374.814L398.391 374.537L397.681 373.021H397.686Z" fill="#F5F0EA"/>
<path d="M403.18 365.05C402.818 364.138 402.42 363.524 401.921 363.111C401.498 362.758 400.995 362.582 400.531 362.592C401.171 364.853 402.017 366.963 402.959 367.708C403.276 367.96 403.482 367.95 403.608 367.92C403.699 367.9 403.795 367.855 403.885 367.799C403.885 367.784 403.875 367.774 403.87 367.759C403.754 366.832 403.523 365.921 403.18 365.05Z" fill="#F5F0EA"/>
<path d="M370.13 353.744C370.165 353.417 370.462 353.18 370.784 353.215C371.112 353.251 371.348 353.543 371.313 353.87C370.452 362.129 370.044 367.411 370.16 368.746C370.165 368.822 370.19 368.907 370.2 368.988C370.336 368.902 370.487 368.832 370.648 368.781C371.107 368.645 371.64 368.67 372.179 368.862C372.93 369.129 373.625 369.678 374.199 370.448C374.687 371.108 375.035 371.858 375.347 372.518L375.901 373.701C375.956 373.601 376.042 373.525 376.148 373.47C376.908 371.158 377.442 367.764 377.391 366.893C377.376 366.832 377.381 366.767 377.386 366.706C375.694 363.403 374.707 357.612 374.692 355.995C374.692 355.849 375.689 340.852 376.475 340.384C376.656 340.273 376.888 340.273 377.074 340.374C377.356 340.53 377.462 340.883 377.316 341.17C377.069 342.272 375.855 353.643 375.886 355.98C375.896 356.942 376.243 359.158 376.812 361.434C377.643 361.328 378.54 361.585 379.275 362.189C379.935 362.738 380.443 363.504 380.881 364.607C381.138 365.261 381.319 365.936 381.46 366.626C382.624 364.546 383.611 360.391 384.094 357.133C383.807 356.967 383.53 356.766 383.288 356.499C380.932 353.905 382.649 339.06 384.598 335.847C386.688 332.397 393.954 331.878 394.262 331.858C394.619 331.813 394.871 332.085 394.896 332.412C394.916 332.74 394.669 333.022 394.342 333.047C394.272 333.047 387.388 333.54 385.62 336.461C384.552 338.219 383.636 343.677 383.394 348.371C383.686 348.371 383.988 348.446 384.26 348.592C384.769 348.869 385.096 349.323 385.298 349.64C386.355 351.282 386.688 353.457 386.33 356.262C387.292 355.935 390.318 354.142 391.416 344.574C391.441 344.367 391.572 344.186 391.764 344.1C391.955 344.015 392.177 344.035 392.348 344.151C392.353 344.151 392.987 344.589 394.095 345.218C398.114 333.787 405.728 324.501 417.129 317.144C419.728 315.467 425.665 314.857 432.544 314.152C438.154 313.578 444.514 312.924 450.099 311.584C463.933 308.265 479.216 304.363 491.499 301.23C493.02 300.842 494.445 300.48 495.789 300.137C494.571 296.028 487.662 272.697 483.824 258.179C484.444 276.983 485.788 293.208 486.09 296.678C491.977 295.228 493.357 294.986 493.7 295.142C494.002 295.268 494.143 295.62 494.017 295.922C493.906 296.184 493.624 296.325 493.357 296.275C492.224 296.305 481.16 299.125 468.369 302.394C456.087 305.526 440.803 309.424 426.969 312.747C421.304 314.107 414.903 314.762 409.253 315.346C402.53 316.036 396.724 316.63 394.367 318.151C377.245 329.204 368.785 344.659 368.493 365.402C368.473 367.653 368.81 369.945 369.208 370.272C369.208 370.262 369.238 370.242 369.264 370.221C369.128 369.743 369.017 369.28 368.982 368.857C368.82 367.054 369.52 359.646 370.135 353.754L370.13 353.744Z" fill="#F5F0EA"/>
<path d="M373.243 371.158C372.946 370.75 372.447 370.221 371.782 369.985C371.571 369.909 371.264 369.844 370.992 369.924C370.8 369.985 370.639 370.131 370.609 370.277C370.599 370.317 370.574 370.352 370.559 370.393C371.228 372.311 372.623 374.497 373.852 375.353C374.134 375.549 374.542 375.771 374.869 375.675C375.025 375.63 375.182 375.489 375.338 375.282L374.275 373.026C373.973 372.387 373.666 371.722 373.248 371.158H373.243Z" fill="#F5F0EA"/>
<path d="M512.992 571.132L516.281 578.384V573.594L512.992 571.132Z" fill="#F5F0EA"/>
<path d="M360.418 399.198C363.162 395.3 368.923 391.669 377.585 388.381L358.887 391.337C358.857 391.337 358.826 391.342 358.791 391.342C358.504 391.342 358.252 391.13 358.202 390.838L356.807 382.015C346.861 386.84 340.108 392.399 336.744 398.548C336.628 398.78 324.22 424.377 332.066 438.83C339.761 453.001 430.094 562.495 437.109 570.986L450.474 557.228C419.775 525.245 358.101 460.479 353.564 451.732C345.089 435.38 347.39 417.704 360.413 399.198H360.418Z" fill="#20E086"/>
<path d="M393.064 371.339C392.888 371.415 392.727 371.455 392.581 371.455C392.435 371.455 392.304 371.425 392.193 371.38C391.911 371.269 391.684 371.027 391.498 370.7C386.366 371.858 381.522 373.107 377.07 374.421C376.254 376.526 375.484 376.738 375.182 376.823C375.026 376.869 374.864 376.889 374.703 376.889C374.22 376.889 373.706 376.703 373.172 376.33C372.946 376.174 372.719 375.977 372.493 375.761C372.427 375.826 372.357 375.877 372.266 375.907C370.06 376.627 367.94 377.377 365.926 378.138L366.822 379.533L395.24 375.041C394.378 374.013 393.598 372.669 393.064 371.344V371.339Z" fill="#F5F0EA"/>
<path d="M508.97 297.423L508.023 285.201L516.876 295.686L508.97 297.423Z" fill="black"/>
<path d="M426.371 424.664C426.371 424.664 448.191 441.247 447.93 441.247H440.054L426.371 424.664Z" fill="black"/>
<path d="M503.576 351.221C503.576 351.221 533.817 355.22 560.723 345.344C560.723 345.344 582.367 352.415 596.921 348.683L594.181 344.005C594.181 344.005 578.132 349.836 561.554 339.674C561.554 339.674 550.641 351.282 503.576 348.134V351.221Z" fill="black"/>
<path d="M392.588 371.455C392.442 371.455 392.311 371.425 392.2 371.38C390.86 370.861 390.694 367.396 390.714 365.377C391.012 344.206 399.653 328.429 417.133 317.144C419.731 315.467 425.668 314.857 432.547 314.152C438.157 313.578 444.517 312.923 450.102 311.584C463.931 308.265 479.204 304.368 491.482 301.235C513.191 295.696 516.55 294.9 517.114 295.142C517.417 295.273 517.558 295.62 517.427 295.922C517.316 296.184 517.029 296.325 516.767 296.275C515.634 296.305 504.565 299.125 491.769 302.393C479.492 305.526 464.208 309.424 450.374 312.747C444.714 314.107 438.308 314.762 432.663 315.341C425.94 316.031 420.129 316.625 417.772 318.151C400.65 329.204 392.19 344.659 391.898 365.402C391.878 367.653 392.215 369.944 392.618 370.272C392.628 370.247 392.724 370.191 392.88 370.015C393.101 369.768 393.479 369.753 393.721 369.97C393.968 370.191 393.988 370.564 393.766 370.811C393.313 371.314 392.905 371.465 392.583 371.465L392.588 371.455Z" fill="black"/>
<path d="M409.056 357.576C408.174 357.576 407.339 357.204 406.699 356.504C404.342 353.91 406.059 339.065 408.008 335.847C410.098 332.397 417.365 331.883 417.672 331.858C417.999 331.843 418.286 332.085 418.307 332.412C418.327 332.74 418.08 333.021 417.753 333.047C417.682 333.047 410.798 333.54 409.031 336.461C407.182 339.513 405.767 353.699 407.585 355.698C408.159 356.327 408.91 356.534 409.705 356.277C410.627 355.98 413.719 354.258 414.832 344.574C414.857 344.367 414.988 344.186 415.179 344.1C415.366 344.015 415.592 344.035 415.764 344.151C415.99 344.307 438.772 359.701 456.534 341.371C456.765 341.134 457.143 341.129 457.375 341.356C457.611 341.582 457.616 341.96 457.39 342.197C440.862 359.253 420.22 348.255 415.904 345.641C414.646 354.948 411.433 356.972 410.078 357.405C409.741 357.516 409.398 357.566 409.066 357.566L409.056 357.576Z" fill="black"/>
<path d="M403.495 369.124C403.137 369.124 402.694 369.013 402.221 368.64C399.672 366.616 398.131 358.025 398.111 356C398.111 355.854 399.108 340.862 399.894 340.389C400.075 340.278 400.307 340.273 400.493 340.379C400.775 340.535 400.881 340.888 400.735 341.175C400.488 342.278 399.275 353.654 399.305 355.99C399.325 358.075 400.921 366.087 402.966 367.714C403.283 367.965 403.49 367.955 403.621 367.93C405.338 367.552 406.964 361.157 407.569 356.735C407.614 356.408 407.911 356.182 408.238 356.227C408.566 356.272 408.792 356.569 408.747 356.897C408.485 358.81 407.02 368.399 403.877 369.093C403.767 369.119 403.641 369.134 403.505 369.134L403.495 369.124Z" fill="black"/>
<path d="M398.118 376.884C397.635 376.884 397.121 376.698 396.587 376.325C394.689 375.005 392.609 371.299 392.393 368.847C392.231 367.054 392.931 359.641 393.546 353.744C393.581 353.417 393.878 353.175 394.2 353.215C394.528 353.251 394.764 353.543 394.729 353.87C393.868 362.139 393.46 367.421 393.576 368.746C393.762 370.841 395.656 374.235 397.262 375.353C397.544 375.549 397.957 375.766 398.28 375.675C399.619 375.308 400.883 368.207 400.808 366.898C400.752 366.711 400.792 366.5 400.928 366.344C401.145 366.097 401.518 366.067 401.769 366.283C402.369 366.807 401.387 371.203 401.276 371.702C400.208 376.38 398.995 376.713 398.592 376.823C398.436 376.869 398.274 376.889 398.108 376.889L398.118 376.884Z" fill="black"/>
<path d="M512.834 348.89C485.031 348.89 456.07 345.551 454.025 345.309C453.698 345.269 453.466 344.977 453.502 344.649C453.542 344.322 453.834 344.09 454.161 344.126C455.017 344.226 540.023 354.021 559.788 340.404C568.304 334.537 570.983 308.144 567.136 267.994C564.013 235.417 556.938 200.81 551.363 190.844C547.038 183.109 537.238 178.104 528.566 179.201C519.839 180.304 513.403 187.057 510.452 198.217C503.15 225.803 509.5 296.653 509.566 297.368C509.596 297.695 509.354 297.982 509.027 298.012C508.7 298.048 508.408 297.801 508.377 297.473C508.312 296.758 501.942 225.702 509.299 197.91C513.464 182.178 523.062 178.693 528.415 178.018C537.691 176.84 547.773 181.996 552.401 190.26C563.449 210.006 580.874 327.321 560.463 341.381C552.063 347.172 532.741 348.884 512.829 348.884L512.834 348.89Z" fill="black"/>
<path d="M409.094 357.234C409.064 357.234 409.034 357.234 409.004 357.229C408.681 357.179 408.455 356.876 408.505 356.549C408.918 353.815 408.656 351.765 407.704 350.285C407.493 349.957 407.302 349.751 407.095 349.64C406.914 349.539 406.697 349.529 406.576 349.605C406.299 349.786 405.932 349.715 405.751 349.438C405.569 349.167 405.64 348.794 405.917 348.613C406.41 348.285 407.095 348.28 407.669 348.587C408.178 348.864 408.505 349.318 408.707 349.635C409.819 351.367 410.142 353.689 409.684 356.72C409.638 357.017 409.386 357.229 409.094 357.229V357.234Z" fill="black"/>
<path d="M404.468 368.283C404.171 368.283 403.914 368.061 403.879 367.759C403.763 366.832 403.531 365.921 403.189 365.05C402.826 364.138 402.428 363.524 401.93 363.111C401.356 362.637 400.626 362.466 400.062 362.678C399.759 362.794 399.412 362.637 399.296 362.33C399.18 362.023 399.336 361.681 399.644 361.565C400.615 361.197 401.784 361.444 402.69 362.199C403.35 362.748 403.859 363.514 404.297 364.617C404.679 365.578 404.936 366.586 405.062 367.618C405.102 367.945 404.871 368.242 404.543 368.283C404.518 368.283 404.493 368.283 404.468 368.283Z" fill="black"/>
<path d="M399.306 375.655C399.084 375.655 398.868 375.529 398.767 375.313L397.689 373.021C397.372 372.347 397.07 371.712 396.662 371.153C396.365 370.75 395.866 370.216 395.201 369.98C394.99 369.904 394.683 369.834 394.411 369.914C394.214 369.975 394.058 370.121 394.023 370.272C393.953 370.594 393.645 370.801 393.313 370.73C392.991 370.66 392.789 370.342 392.86 370.02C392.986 369.446 393.459 368.957 394.068 368.776C394.527 368.635 395.06 368.665 395.599 368.857C396.35 369.124 397.045 369.673 397.619 370.443C398.097 371.093 398.44 371.813 398.767 372.508L399.844 374.799C399.985 375.096 399.855 375.454 399.557 375.59C399.477 375.63 399.391 375.645 399.306 375.645V375.655Z" fill="black"/>
<path d="M369.17 371.455C369.024 371.455 368.893 371.425 368.782 371.38C367.442 370.861 367.276 367.396 367.296 365.377C367.594 344.206 376.235 328.429 393.715 317.144C396.313 315.467 402.25 314.857 409.129 314.152C414.739 313.578 421.1 312.923 426.684 311.584C440.508 308.265 455.781 304.368 468.054 301.235C489.773 295.696 493.127 294.895 493.696 295.137C493.999 295.268 494.14 295.615 494.009 295.917C493.898 296.179 493.611 296.32 493.349 296.27C492.211 296.3 481.142 299.125 468.346 302.388C456.069 305.521 440.79 309.419 426.961 312.737C421.301 314.097 414.895 314.751 409.25 315.331C402.527 316.021 396.721 316.615 394.364 318.141C377.242 329.194 368.782 344.649 368.49 365.392C368.47 367.643 368.807 369.934 369.205 370.262C369.215 370.237 369.311 370.181 369.467 370.005C369.688 369.758 370.066 369.743 370.308 369.96C370.555 370.181 370.575 370.554 370.353 370.801C369.9 371.304 369.497 371.455 369.17 371.455Z" fill="black"/>
<path d="M385.642 357.576C384.76 357.576 383.924 357.204 383.285 356.504C380.928 353.91 382.645 339.065 384.594 335.847C386.684 332.397 393.951 331.883 394.258 331.858C394.585 331.843 394.872 332.085 394.893 332.412C394.913 332.74 394.666 333.022 394.339 333.047C394.268 333.047 387.384 333.54 385.617 336.461C383.768 339.513 382.353 353.699 384.171 355.698C384.74 356.328 385.496 356.534 386.291 356.277C387.213 355.98 390.305 354.258 391.418 344.574C391.443 344.367 391.574 344.186 391.765 344.1C391.952 344.015 392.178 344.035 392.349 344.151C392.36 344.156 393.226 344.75 394.721 345.566C395.008 345.722 395.119 346.085 394.963 346.372C394.807 346.659 394.439 346.764 394.157 346.613C393.462 346.236 392.903 345.908 392.49 345.652C391.231 354.958 388.019 356.977 386.664 357.41C386.327 357.516 385.984 357.571 385.652 357.571L385.642 357.576Z" fill="black"/>
<path d="M380.083 369.124C379.725 369.124 379.282 369.013 378.808 368.64C376.26 366.621 374.719 358.025 374.699 356C374.699 355.854 375.696 340.862 376.482 340.389C376.663 340.278 376.895 340.278 377.081 340.379C377.368 340.535 377.474 340.888 377.323 341.175C377.066 342.293 375.862 353.533 375.893 355.985C375.918 358.07 377.509 366.087 379.554 367.709C379.871 367.96 380.078 367.95 380.203 367.92C381.921 367.537 383.547 361.147 384.152 356.725C384.197 356.398 384.494 356.171 384.821 356.217C385.149 356.262 385.375 356.559 385.33 356.886C385.068 358.8 383.603 368.388 380.455 369.083C380.344 369.109 380.219 369.124 380.083 369.124Z" fill="black"/>
<path d="M374.704 376.884C374.221 376.884 373.707 376.698 373.173 376.325C371.275 375.005 369.195 371.299 368.979 368.847C368.817 367.054 369.517 359.641 370.132 353.744C370.167 353.417 370.454 353.175 370.786 353.215C371.114 353.251 371.35 353.543 371.315 353.87C370.454 362.139 370.046 367.421 370.162 368.746C370.348 370.841 372.242 374.235 373.848 375.353C374.13 375.549 374.538 375.766 374.865 375.675C376.21 375.308 377.474 368.207 377.393 366.898C377.338 366.711 377.378 366.5 377.514 366.344C377.731 366.092 378.109 366.067 378.355 366.283C378.955 366.802 377.988 371.163 377.872 371.657C376.804 376.375 375.581 376.713 375.178 376.823C375.022 376.864 374.86 376.889 374.699 376.889L374.704 376.884Z" fill="black"/>
<path d="M485.554 298.017C485.252 298.017 484.99 297.786 484.96 297.479C484.94 297.267 483.001 275.809 482.457 252.121C482.452 251.793 482.709 251.521 483.036 251.511C483.414 251.526 483.636 251.763 483.646 252.09C484.189 275.739 486.123 297.156 486.143 297.368C486.174 297.695 485.932 297.982 485.605 298.012C485.584 298.012 485.569 298.012 485.549 298.012L485.554 298.017Z" fill="black"/>
<path d="M385.676 357.234C385.646 357.234 385.616 357.234 385.586 357.229C385.263 357.179 385.037 356.876 385.087 356.549C385.5 353.815 385.238 351.765 384.286 350.285C384.075 349.957 383.884 349.751 383.677 349.64C383.496 349.539 383.279 349.529 383.158 349.605C382.881 349.786 382.514 349.715 382.333 349.438C382.151 349.167 382.222 348.794 382.499 348.613C382.992 348.285 383.677 348.28 384.251 348.587C384.76 348.864 385.087 349.318 385.289 349.635C386.402 351.367 386.724 353.684 386.261 356.72C386.215 357.017 385.963 357.229 385.671 357.229L385.676 357.234Z" fill="black"/>
<path d="M381.049 368.283C380.752 368.283 380.495 368.061 380.46 367.759C380.344 366.832 380.112 365.921 379.77 365.05C379.407 364.138 379.01 363.524 378.511 363.111C377.937 362.632 377.202 362.466 376.638 362.678C376.336 362.794 375.988 362.637 375.872 362.33C375.756 362.023 375.913 361.681 376.22 361.565C377.171 361.207 378.37 361.454 379.266 362.199C379.926 362.748 380.435 363.514 380.873 364.616C381.256 365.583 381.512 366.591 381.638 367.618C381.679 367.945 381.447 368.242 381.12 368.283C381.094 368.283 381.069 368.283 381.044 368.283H381.049Z" fill="black"/>
<path d="M375.888 375.655C375.666 375.655 375.45 375.529 375.349 375.313L374.271 373.021C373.969 372.382 373.657 371.717 373.244 371.158C372.947 370.755 372.448 370.221 371.783 369.985C371.577 369.909 371.265 369.839 370.993 369.919C370.801 369.975 370.64 370.126 370.605 370.277C370.535 370.599 370.232 370.806 369.895 370.735C369.573 370.665 369.371 370.347 369.442 370.025C369.568 369.451 370.041 368.962 370.65 368.781C371.109 368.645 371.642 368.67 372.186 368.862C372.937 369.129 373.632 369.677 374.201 370.448C374.684 371.103 375.022 371.823 375.349 372.518L376.427 374.809C376.568 375.106 376.442 375.464 376.139 375.6C376.059 375.64 375.973 375.655 375.888 375.655Z" fill="black"/>
<path d="M514.918 156.797C512.058 156.797 509.278 155.951 507.062 154.314C505.521 153.176 504.293 151.706 503.291 150.416C501.372 147.944 500.032 145.768 499.081 143.573C498.652 142.586 498.28 141.538 497.937 140.365C497.847 140.048 498.028 139.72 498.345 139.625C498.663 139.529 498.99 139.715 499.086 140.027C499.413 141.15 499.77 142.153 500.178 143.094C501.09 145.194 502.379 147.289 504.237 149.681C505.189 150.905 506.352 152.3 507.772 153.352C510.95 155.699 515.422 156.258 519.451 154.813C521.515 154.072 523.877 152.325 526.098 149.893C526.319 149.651 526.697 149.631 526.939 149.852C527.181 150.074 527.201 150.452 526.979 150.693C524.632 153.267 522.099 155.13 519.853 155.931C518.247 156.51 516.57 156.792 514.918 156.792V156.797Z" fill="black"/>
<path d="M524.511 135.042C524.415 135.042 524.314 135.042 524.219 135.037C523.891 135.022 523.634 134.745 523.65 134.418C523.665 134.09 523.957 133.833 524.269 133.849C527.306 133.984 530.342 131.829 531.485 128.752C532.548 125.897 532.029 122.387 530.131 119.587C529.552 118.736 527.98 116.767 525.885 116.873C523.911 116.968 522.537 118.887 522.038 119.703C521.63 120.368 521.283 121.103 520.94 121.808C520.487 122.755 520.019 123.731 519.389 124.623C518.508 125.877 517.496 126.647 516.378 126.904C515.063 127.206 513.351 126.622 512.863 125.157C512.012 122.603 511.256 119.97 510.521 117.422C509.781 114.843 509.01 112.174 508.149 109.606C507.505 107.682 506.885 105.975 505.808 104.525C504.629 102.948 502.987 101.977 501.421 101.921C499.08 101.881 497.126 103.689 496.239 105.557C495.217 107.712 495.142 110.18 495.212 112.527C495.323 116.258 495.811 120.03 496.285 123.676L496.431 124.829C496.627 126.35 496.783 127.579 497.03 129.276C497.075 129.603 496.854 129.905 496.526 129.951C496.204 129.996 495.897 129.774 495.852 129.447C495.605 127.74 495.444 126.506 495.247 124.98L495.101 123.827C494.628 120.151 494.134 116.354 494.019 112.562C493.948 110.19 494.029 107.44 495.162 105.048C496.214 102.828 498.606 100.632 501.457 100.733C503.415 100.798 505.344 101.921 506.759 103.81C507.943 105.396 508.628 107.274 509.277 109.223C510.143 111.817 510.919 114.496 511.664 117.089C512.394 119.627 513.15 122.246 513.991 124.779C514.253 125.57 515.32 125.922 516.106 125.741C517.133 125.504 517.924 124.633 518.412 123.938C518.981 123.127 519.409 122.236 519.863 121.289C520.215 120.554 520.578 119.798 521.016 119.083C522.28 117.009 524.027 115.77 525.82 115.679C527.708 115.573 529.647 116.767 531.108 118.912C533.218 122.024 533.787 125.952 532.593 129.16C531.309 132.605 527.94 135.037 524.501 135.037L524.511 135.042Z" fill="black"/>
<path d="M524.765 175.067C524.503 175.067 524.261 174.891 524.19 174.624L519.079 155.533C518.993 155.216 519.185 154.888 519.502 154.803C519.814 154.717 520.147 154.908 520.232 155.226L525.344 174.317C525.429 174.634 525.238 174.961 524.921 175.047C524.87 175.062 524.82 175.067 524.77 175.067H524.765Z" fill="black"/>
<path d="M546.482 164.366C546.25 164.366 546.028 164.23 545.933 164.003L537.583 144.086C537.457 143.784 537.598 143.432 537.9 143.306C538.203 143.175 538.555 143.321 538.681 143.623L547.03 163.54C547.156 163.842 547.015 164.195 546.713 164.32C546.638 164.351 546.562 164.366 546.482 164.366Z" fill="black"/>
<path d="M582.458 345.974C575.761 345.974 567.618 344.73 561.207 340.162C560.94 339.971 560.875 339.598 561.066 339.331C561.257 339.065 561.63 339.004 561.897 339.19C573.333 347.344 590.999 344.362 594.001 343.436C596.866 342.554 613.253 316.172 612.991 302.625C612.744 289.527 585.062 211.335 578.203 195.507C571.636 180.355 559.152 164.053 553.467 163.207C549.025 162.548 542.328 166.728 536.934 170.086C535.247 171.134 533.656 172.126 532.246 172.907C528.464 174.996 525.11 175.208 522.97 175.011C521.494 174.881 520.069 175.178 518.856 175.878C516.705 177.116 513.815 179.05 512.233 181.226C509.131 185.486 481.469 240.175 482.502 247.412C483.569 254.865 496.965 299.926 497.101 300.379C497.191 300.696 497.015 301.024 496.698 301.119C496.375 301.215 496.048 301.034 495.957 300.717C495.404 298.858 482.401 255.117 481.323 247.578C480.155 239.395 509.292 183.245 511.272 180.526C512.974 178.184 516.015 176.145 518.261 174.85C519.686 174.03 521.353 173.677 523.076 173.828C525.055 174.004 528.152 173.808 531.667 171.864C533.052 171.099 534.628 170.117 536.3 169.074C542.151 165.428 548.779 161.304 553.638 162.024C559.878 162.956 572.346 178.995 579.296 195.029C586.356 211.325 613.922 289.028 614.184 302.595C614.446 316.267 598.014 343.441 594.353 344.569C592.651 345.092 588.058 345.964 582.453 345.964L582.458 345.974Z" fill="black"/>
<path d="M532.06 148.311C531.788 148.311 531.516 148.261 531.254 148.16C530.604 147.908 530.116 147.385 529.909 146.72L526.072 134.286C525.976 133.974 526.152 133.637 526.465 133.541C526.777 133.446 527.114 133.622 527.21 133.934L531.047 146.368C531.143 146.68 531.375 146.926 531.682 147.042C531.984 147.158 532.316 147.128 532.588 146.967C535.126 145.451 539.699 142.435 541.809 139.287C544.77 134.871 549.74 118.721 545.913 107.481C543.647 100.818 534.205 90.6005 522.899 85.7106C518.241 83.6963 511.413 81.8733 505.349 84.6229C498.964 87.5235 494.517 92.1767 492.503 98.0888C489.955 105.552 491.264 114.516 496.29 124.008C496.446 124.3 496.335 124.658 496.043 124.814C495.751 124.97 495.388 124.859 495.237 124.567C490.055 114.778 488.716 105.491 491.375 97.706C493.5 91.4767 498.163 86.5768 504.856 83.5402C509.972 81.2186 516.378 81.5913 523.373 84.6179C533.731 89.0998 544.347 99.1866 547.041 107.098C550.989 118.706 545.853 135.384 542.796 139.947C540.555 143.291 535.821 146.418 533.198 147.989C532.845 148.201 532.452 148.306 532.055 148.306L532.06 148.311Z" fill="black"/>
<path d="M557.843 118.157C554.384 118.157 550.969 117.638 547.696 116.611C547.384 116.51 547.208 116.178 547.308 115.865C547.404 115.553 547.747 115.377 548.054 115.478C551.211 116.47 554.505 116.968 557.843 116.968C575.842 116.968 590.481 102.329 590.481 84.3309C590.481 66.3327 575.842 51.6935 557.843 51.6935C539.845 51.6935 525.206 66.3327 525.206 84.3309C525.206 84.8294 525.216 85.328 525.241 85.8215C525.256 86.1488 525 86.4258 524.672 86.4409C524.34 86.461 524.068 86.1992 524.053 85.8718C524.033 85.3582 524.018 84.8445 524.018 84.3259C524.018 65.673 539.191 50.5 557.843 50.5C576.496 50.5 591.669 65.673 591.669 84.3259C591.669 102.979 576.496 118.152 557.843 118.152V118.157Z" fill="black"/>
<path d="M358.797 391.347C358.671 391.347 358.55 391.307 358.45 391.231C358.324 391.14 358.238 390.999 358.213 390.843L356.773 381.723C356.722 381.396 356.944 381.094 357.266 381.044L466.141 363.831C466.298 363.806 466.454 363.846 466.585 363.937C466.711 364.027 466.796 364.168 466.821 364.325L468.262 373.444C468.312 373.772 468.09 374.074 467.768 374.124L358.893 391.337C358.863 391.342 358.832 391.342 358.802 391.342L358.797 391.347ZM358.037 382.126L359.291 390.068L466.988 373.042L465.734 365.1L358.037 382.131V382.126Z" fill="black"/>
<path d="M357.417 382.217C357.216 382.217 357.029 382.116 356.914 381.945L303.584 299.03C303.478 298.858 303.458 298.647 303.544 298.466C303.624 298.284 303.795 298.153 303.992 298.123L313.112 296.683C313.348 296.648 313.58 296.753 313.706 296.95L367.036 379.865C367.141 380.036 367.162 380.248 367.076 380.429C366.995 380.61 366.824 380.741 366.628 380.772L357.508 382.212C357.478 382.217 357.447 382.217 357.417 382.217ZM305.08 299.155L357.704 380.973L365.54 379.734L312.915 297.917L305.08 299.155Z" fill="black"/>
<path d="M580.097 441.841H440.055C439.728 441.841 439.461 441.575 439.461 441.247C439.461 440.92 439.728 440.653 440.055 440.653H580.097C583.104 440.653 586.009 439.525 588.275 437.48C609.94 417.901 610.277 393.658 606.742 376.768C602.9 358.392 593.78 344.478 593.684 344.342C593.503 344.065 593.578 343.698 593.85 343.516C594.122 343.335 594.49 343.411 594.676 343.682C594.767 343.823 603.997 357.899 607.895 376.486C611.501 393.694 611.164 418.394 589.071 438.362C586.589 440.608 583.401 441.841 580.097 441.841Z" fill="black"/>
<path d="M467.868 575.025C467.712 575.025 467.555 574.964 467.44 574.843C463.033 570.291 359.496 463.163 353.569 451.727C345.094 435.375 347.395 417.705 360.418 399.198C363.797 394.399 371.738 390.012 384.026 386.16C384.343 386.064 384.675 386.236 384.771 386.548C384.867 386.86 384.695 387.197 384.378 387.293C372.348 391.065 364.612 395.3 361.39 399.878C348.644 417.992 346.368 435.249 354.621 451.173C360.287 462.101 460.666 566.111 467.888 573.589L513.694 531.807L425.546 424.589C425.335 424.337 425.375 423.959 425.627 423.753C425.879 423.541 426.256 423.581 426.463 423.833L514.968 531.49C515.169 531.736 515.144 532.094 514.908 532.306L468.26 574.859C468.145 574.964 468.004 575.015 467.858 575.015L467.868 575.025Z" fill="black"/>
<path d="M467.53 373.253C467.228 373.253 466.971 373.026 466.941 372.719C466.906 372.392 467.147 372.1 467.475 372.065C472.254 371.576 476.665 371.153 480.568 370.775C489.305 369.929 496.854 369.199 497.634 368.771C500.56 367.114 502.711 353.86 503.295 348.895C503.335 348.567 503.627 348.336 503.954 348.371C504.282 348.411 504.513 348.703 504.478 349.031C504.257 350.919 502.202 367.552 498.224 369.808C497.292 370.337 492.176 370.851 480.684 371.959C476.786 372.337 472.375 372.765 467.596 373.248C467.575 373.248 467.555 373.248 467.535 373.248L467.53 373.253Z" fill="black"/>
<path d="M437.074 572.471C437.074 572.471 437.059 572.471 437.049 572.471C436.882 572.466 436.721 572.386 436.616 572.255C432.637 567.441 339.041 454.174 331.024 439.399C322.886 424.407 335.168 399.072 335.697 398.004C339.257 391.488 346.383 385.661 356.888 380.656C357.185 380.515 357.542 380.641 357.678 380.938C357.819 381.235 357.694 381.587 357.396 381.733C347.123 386.623 340.174 392.284 336.749 398.553C336.634 398.79 324.225 424.382 332.071 438.835C339.766 453.011 430.099 562.501 437.114 570.991L450.887 556.815C451.119 556.578 451.496 556.573 451.728 556.805C451.965 557.032 451.97 557.409 451.738 557.646L437.502 572.295C437.391 572.411 437.235 572.477 437.074 572.477V572.471Z" fill="black"/>
<path d="M365.026 378.43C364.785 378.43 364.563 378.284 364.473 378.047C364.357 377.74 364.508 377.398 364.815 377.277C367.046 376.421 369.433 375.575 371.9 374.774C372.223 374.673 372.55 374.844 372.651 375.157C372.751 375.469 372.58 375.806 372.268 375.907C369.821 376.708 367.454 377.539 365.238 378.39C365.167 378.415 365.097 378.43 365.026 378.43Z" fill="black"/>
<path d="M376.431 374.577C376.174 374.577 375.937 374.411 375.862 374.149C375.771 373.832 375.947 373.505 376.264 373.409C381.013 371.994 386.205 370.655 391.699 369.426C392.022 369.355 392.339 369.557 392.409 369.879C392.48 370.201 392.279 370.519 391.956 370.589C386.487 371.813 381.321 373.142 376.597 374.552C376.541 374.567 376.481 374.577 376.426 374.577H376.431Z" fill="black"/>
<path d="M405.112 367.945C404.83 367.945 404.578 367.744 404.528 367.457C404.467 367.135 404.684 366.822 405.011 366.767C450.47 358.619 501.654 358.523 502.163 358.523C502.49 358.523 502.757 358.79 502.757 359.117C502.757 359.445 502.49 359.712 502.163 359.712C501.654 359.712 450.576 359.807 405.218 367.935C405.182 367.94 405.147 367.945 405.112 367.945Z" fill="black"/>
<path d="M464.67 626.698C464.478 626.698 464.322 626.667 464.196 626.602C463.955 626.476 463.637 626.209 463.481 625.66C462.036 620.519 479.102 591.562 481.862 586.929L471.962 570.548C471.79 570.266 471.881 569.898 472.163 569.732C472.445 569.566 472.813 569.651 472.979 569.933L483.066 586.622C483.181 586.809 483.181 587.045 483.066 587.237C475.099 600.572 463.612 621.722 464.624 625.343C464.645 625.424 464.685 625.524 464.745 625.554C467.409 626.582 494.109 605.497 517.994 585.071L510.944 569.521C510.833 569.274 510.899 568.982 511.11 568.81C511.322 568.639 511.624 568.634 511.841 568.8L524.455 578.253L531.44 570.22C530.478 567.844 523.786 552.701 504.866 540.907C504.589 540.731 504.503 540.368 504.675 540.086C504.851 539.804 505.218 539.723 505.495 539.895C526.359 552.897 532.624 569.964 532.684 570.135C532.754 570.336 532.714 570.563 532.573 570.724L524.989 579.446C524.788 579.683 524.435 579.718 524.183 579.532L512.984 571.137L519.258 584.981C519.369 585.222 519.304 585.504 519.102 585.681C510.919 592.685 470.859 626.698 464.655 626.703L464.67 626.698Z" fill="black"/>
<path d="M433.714 625.121C433.462 625.121 433.271 625.071 433.114 624.99C432.873 624.865 432.555 624.598 432.399 624.049C430.954 618.912 447.98 590.022 450.77 585.338L439.737 568.962C439.555 568.69 439.626 568.317 439.898 568.136C440.17 567.954 440.537 568.025 440.724 568.297L451.969 584.986C452.1 585.177 452.105 585.424 451.984 585.625C444.017 598.96 432.525 620.111 433.543 623.732C433.563 623.812 433.603 623.913 433.663 623.943C434.917 624.421 442.748 620.342 481.373 587.816C481.625 587.604 481.998 587.634 482.214 587.886C482.426 588.138 482.395 588.516 482.144 588.727C445.568 619.522 436.393 625.126 433.709 625.126L433.714 625.121Z" fill="black"/>
<path d="M572.771 465.782H460.098C459.771 465.782 459.504 465.515 459.504 465.188C459.504 464.86 459.771 464.593 460.098 464.593H572.771C579.04 464.593 584.147 459.492 584.147 453.217C584.147 446.943 579.045 441.841 572.771 441.841H440.524C440.197 441.841 439.93 441.575 439.93 441.247C439.93 440.92 440.197 440.653 440.524 440.653H572.771C579.7 440.653 585.335 446.288 585.335 453.217C585.335 460.147 579.7 465.782 572.771 465.782Z" fill="black"/>
<path d="M566.298 680.304H551.598C551.271 680.304 551.004 680.037 551.004 679.71V465.188C551.004 464.86 551.271 464.593 551.598 464.593H566.298C566.625 464.593 566.892 464.86 566.892 465.188V679.71C566.892 680.037 566.625 680.304 566.298 680.304ZM552.192 679.116H565.704V465.782H552.192V679.116Z" fill="black"/>
<path d="M516.878 680.304H502.178C501.851 680.304 501.584 680.037 501.584 679.71V599.459C501.584 599.131 501.851 598.864 502.178 598.864C502.506 598.864 502.772 599.131 502.772 599.459V679.116H516.284V586.804C516.284 586.476 516.551 586.209 516.878 586.209C517.205 586.209 517.472 586.476 517.472 586.804V679.71C517.472 680.037 517.205 680.304 516.878 680.304Z" fill="black"/>
<path d="M516.877 581.732C516.55 581.732 516.283 581.465 516.283 581.138V573.302C516.283 572.975 516.55 572.708 516.877 572.708C517.205 572.708 517.472 572.975 517.472 573.302V581.138C517.472 581.465 517.205 581.732 516.877 581.732Z" fill="black"/>
<path d="M516.878 549.518C516.551 549.518 516.284 549.251 516.284 548.924V465.782H502.772V516.03C502.772 516.357 502.506 516.624 502.178 516.624C501.851 516.624 501.584 516.357 501.584 516.03V465.183C501.584 464.855 501.851 464.588 502.178 464.588H516.878C517.205 464.588 517.472 464.855 517.472 465.183V548.924C517.472 549.251 517.205 549.518 516.878 549.518Z" fill="black"/>
<path d="M467.449 474.766C467.122 474.766 466.855 474.499 466.855 474.172V465.777H460.102C459.775 465.777 459.508 465.51 459.508 465.183C459.508 464.855 459.775 464.588 460.102 464.588H467.454C467.782 464.588 468.049 464.855 468.049 465.183V474.172C468.049 474.499 467.782 474.766 467.454 474.766H467.449Z" fill="black"/>
<path d="M467.45 680.304H452.75C452.423 680.304 452.156 680.037 452.156 679.71V612.018C452.156 611.691 452.423 611.424 452.75 611.424C453.078 611.424 453.345 611.691 453.345 612.018V679.116H466.856V625.207C466.856 624.88 467.123 624.613 467.45 624.613C467.777 624.613 468.044 624.88 468.044 625.207V679.71C468.044 680.037 467.777 680.304 467.45 680.304Z" fill="black"/>
<path d="M467.45 614.717C467.122 614.717 466.855 614.45 466.855 614.123V600.204C466.855 599.877 467.122 599.61 467.45 599.61C467.777 599.61 468.044 599.877 468.044 600.204V614.123C468.044 614.45 467.777 614.717 467.45 614.717Z" fill="black"/>
<path d="M551.599 647.702H516.872C516.544 647.702 516.277 647.435 516.277 647.108C516.277 646.781 516.544 646.514 516.872 646.514H551V628.314H516.872C516.544 628.314 516.277 628.047 516.277 627.72C516.277 627.393 516.544 627.126 516.872 627.126H551.599C551.926 627.126 552.193 627.393 552.193 627.72V647.108C552.193 647.435 551.926 647.702 551.599 647.702Z" fill="black"/>
<path d="M502.179 647.702H467.452C467.124 647.702 466.857 647.435 466.857 647.108V627.72C466.857 627.393 467.124 627.126 467.452 627.126H502.179C502.506 627.126 502.773 627.393 502.773 627.72C502.773 628.047 502.506 628.314 502.179 628.314H468.051V646.514H502.179C502.506 646.514 502.773 646.781 502.773 647.108C502.773 647.435 502.506 647.702 502.179 647.702Z" fill="black"/>
<path d="M500.062 119.008C499.861 119.008 499.659 118.902 499.548 118.716C499.382 118.434 499.478 118.066 499.76 117.9C502.515 116.288 506.09 116.248 508.875 117.809C509.162 117.97 509.263 118.333 509.102 118.62C508.94 118.907 508.578 119.008 508.291 118.847C505.869 117.492 502.756 117.522 500.359 118.927C500.264 118.983 500.163 119.008 500.057 119.008H500.062Z" fill="black"/>
<path d="M501.008 127.765C501.769 129.603 503.446 130.651 504.755 130.107C506.064 129.563 506.508 127.634 505.747 125.801C504.987 123.963 503.31 122.916 502.001 123.459C500.691 124.003 500.248 125.932 501.008 127.765Z" fill="black"/>
<path d="M495.961 141.594C495.554 141.594 495.151 141.523 494.773 141.387C493.59 140.949 492.723 139.801 492.673 138.597C492.618 137.384 493.298 136.366 493.897 135.47C494.033 135.268 494.164 135.072 494.29 134.871C494.914 133.869 495.211 132.383 495.493 130.953C495.614 130.338 495.735 129.744 495.876 129.22C495.962 128.903 496.289 128.712 496.601 128.797C496.918 128.883 497.11 129.205 497.024 129.523C496.888 130.031 496.777 130.6 496.661 131.189C496.369 132.655 496.037 134.317 495.297 135.505C495.166 135.717 495.025 135.928 494.884 136.14C494.335 136.956 493.821 137.731 493.857 138.552C493.887 139.282 494.446 140.007 495.181 140.279C495.901 140.546 496.808 140.405 497.487 139.922C497.754 139.73 498.127 139.796 498.318 140.063C498.51 140.33 498.444 140.702 498.177 140.894C497.518 141.362 496.732 141.604 495.961 141.604V141.594Z" fill="black"/>
<path d="M523.394 128.218C523.167 128.218 522.951 128.087 522.85 127.866C522.271 126.567 521.999 125.398 522.004 124.3C522.014 122.911 522.523 121.616 523.394 120.755C524.416 119.743 525.937 119.38 527.186 119.844C527.694 120.035 528.183 120.362 528.712 120.876C530.555 122.649 531.416 125.247 530.917 127.493C530.847 127.81 530.535 128.022 530.207 127.946C529.885 127.876 529.684 127.559 529.754 127.236C530.167 125.388 529.432 123.228 527.886 121.737C527.473 121.344 527.12 121.098 526.768 120.967C525.962 120.665 524.92 120.932 524.23 121.611C523.58 122.256 523.203 123.243 523.197 124.321C523.192 125.247 523.434 126.254 523.938 127.393C524.074 127.695 523.938 128.047 523.636 128.178C523.555 128.213 523.474 128.228 523.394 128.228V128.218Z" fill="black"/>
<path d="M526.446 130.928C526.295 130.928 526.144 130.867 526.023 130.751C525.791 130.52 525.791 130.142 526.023 129.91C527.05 128.878 527.499 127.393 527.166 126.118C526.819 124.794 525.54 123.747 524.291 123.827C523.837 123.842 523.46 123.993 523.273 124.235C523.072 124.497 522.699 124.547 522.437 124.346C522.176 124.144 522.125 123.772 522.327 123.51C522.735 122.976 523.435 122.659 524.255 122.634C526.094 122.614 527.826 123.948 528.319 125.811C528.763 127.483 528.193 129.422 526.869 130.746C526.753 130.862 526.602 130.923 526.446 130.923V130.928Z" fill="black"/>
<path d="M505.323 143.643C505.066 143.643 504.83 143.477 504.754 143.22C504.658 142.908 504.84 142.576 505.152 142.48C508.672 141.417 511.558 138.587 512.686 135.087C512.786 134.775 513.124 134.604 513.436 134.705C513.748 134.805 513.919 135.143 513.819 135.455C512.575 139.322 509.387 142.45 505.494 143.623C505.434 143.638 505.379 143.648 505.323 143.648V143.643Z" fill="black"/>
<path d="M389.168 115.055H112V151.711H389.168V115.055Z" fill="#20E086"/>
<path d="M114.752 77.5V54.844H122.272C127.936 54.844 134.176 58.62 134.176 66.172C134.176 73.724 127.936 77.5 122.272 77.5H114.752ZM117.056 56.956V75.388H121.536C128.448 75.388 131.68 70.844 131.68 66.172C131.68 61.5 128.448 56.956 121.536 56.956H117.056ZM160.871 66.172C160.871 73.052 155.815 78.076 149.063 78.076C142.311 78.076 137.255 73.052 137.255 66.172C137.255 59.292 142.311 54.268 149.063 54.268C155.815 54.268 160.871 59.292 160.871 66.172ZM158.375 66.172C158.375 60.956 154.887 56.38 149.063 56.38C143.239 56.38 139.751 60.956 139.751 66.172C139.751 71.388 143.239 75.964 149.063 75.964C154.887 75.964 158.375 71.388 158.375 66.172ZM168.358 54.844L181.862 74.044H181.926V54.844H184.23V77.5H181.35L167.846 58.108H167.782V77.5H165.478V54.844H168.358ZM193.841 54.844L191.249 62.364H189.105L191.249 54.844H193.841ZM205.961 56.956V77.5H203.657V56.956H196.073V54.844H213.545V56.956H205.961Z" fill="#020D3A"/>
<path d="M116.214 136.45V96.8023H130.998C137.942 96.8023 145.502 98.2583 145.502 106.882C145.502 111.306 142.758 114.33 138.67 115.618V115.73C143.878 116.402 147.35 120.266 147.35 125.418C147.35 133.706 139.51 136.45 132.454 136.45H116.214ZM124.95 104.194V112.65H131.278C133.966 112.65 136.766 111.53 136.766 108.338C136.766 105.034 133.63 104.194 130.886 104.194H124.95ZM124.95 120.042V129.058H132.79C135.534 129.058 138.614 127.882 138.614 124.41C138.614 120.658 134.414 120.042 131.558 120.042H124.95ZM152.862 136.45V96.8023H179.798V104.866H161.598V112.258H178.79V120.322H161.598V128.386H180.806V136.45H152.862ZM200.282 136.45L217.418 96.8023H224.642L241.89 136.45H232.034L228.618 128.05H213.218L209.914 136.45H200.282ZM225.65 120.658L220.778 108.338L215.962 120.658H225.65ZM246.214 136.45V96.8023H254.95V128.386H271.134V136.45H246.214ZM273.828 116.626C273.828 103.914 282.844 95.7943 295.22 95.7943C307.596 95.7943 316.612 103.914 316.612 116.626C316.612 129.338 307.596 137.458 295.22 137.458C282.844 137.458 273.828 129.338 273.828 116.626ZM282.9 116.626C282.9 124.018 287.772 129.394 295.22 129.394C302.668 129.394 307.54 124.018 307.54 116.626C307.54 109.234 302.668 103.858 295.22 103.858C287.772 103.858 282.9 109.234 282.9 116.626ZM322.55 136.45V96.8023H334.422L351.278 124.354H351.39V96.8023H360.126V136.45H348.702L331.398 108.226H331.286V136.45H322.55ZM368.55 136.45V96.8023H395.486V104.866H377.286V112.258H394.478V120.322H377.286V128.386H396.494V136.45H368.55Z" fill="#020D3A"/>
<path d="M246.107 779.171V795.251H242.651V761.267H263.147V764.435H246.107V776.003H261.947V779.171H246.107ZM272.779 761.267V795.251H269.323V761.267H272.779ZM286.299 761.267L306.555 790.067H306.651V761.267H310.107V795.251H305.787L285.531 766.163H285.435V795.251H281.979V761.267H286.299ZM318.858 795.251V761.267H330.138C338.634 761.267 347.994 766.931 347.994 778.259C347.994 789.587 338.634 795.251 330.138 795.251H318.858ZM322.314 764.435V792.083H329.034C339.402 792.083 344.25 785.267 344.25 778.259C344.25 771.251 339.402 764.435 329.034 764.435H322.314ZM368.544 795.251V755.603H383.328C390.272 755.603 397.832 757.059 397.832 765.683C397.832 770.107 395.088 773.131 391 774.419V774.531C396.208 775.203 399.68 779.067 399.68 784.219C399.68 792.507 391.84 795.251 384.784 795.251H368.544ZM377.28 762.995V771.451H383.608C386.296 771.451 389.096 770.331 389.096 767.139C389.096 763.835 385.96 762.995 383.216 762.995H377.28ZM377.28 778.843V787.859H385.12C387.864 787.859 390.944 786.683 390.944 783.211C390.944 779.459 386.744 778.843 383.888 778.843H377.28ZM404.856 795.251V755.603H420.2C428.32 755.603 435.152 758.403 435.152 767.643C435.152 773.187 432.184 777.499 426.584 778.507L436.664 795.251H426.192L417.904 779.403H413.592V795.251H404.856ZM413.592 762.995V772.011H418.744C421.936 772.011 426.08 771.899 426.08 767.587C426.08 763.611 422.496 762.995 419.304 762.995H413.592ZM437.081 795.251L454.217 755.603H461.441L478.689 795.251H468.833L465.417 786.851H450.017L446.713 795.251H437.081ZM462.449 779.459L457.577 767.139L452.761 779.459H462.449ZM482.677 795.251V755.603H494.549L511.405 783.155H511.517V755.603H520.253V795.251H508.829L491.525 767.027H491.413V795.251H482.677ZM528.341 795.251V755.603H541.445C554.213 755.603 564.909 761.035 564.909 775.539C564.909 788.363 554.437 795.251 542.621 795.251H528.341ZM537.077 763.667V787.187H541.613C549.733 787.187 555.837 784.107 555.837 775.091C555.837 767.307 549.621 763.667 542.229 763.667H537.077ZM596.425 758.739L590.433 765.291C589.033 763.499 586.233 762.659 584.105 762.659C581.641 762.659 578.225 763.779 578.225 766.747C578.225 773.971 596.481 769.323 596.481 783.211C596.481 792.059 589.369 796.259 581.193 796.259C576.097 796.259 571.617 794.747 567.865 791.275L574.081 784.443C575.873 786.795 578.785 788.195 581.697 788.195C584.553 788.195 587.745 786.851 587.745 784.051C587.745 776.771 569.153 780.691 569.153 767.475C569.153 759.019 576.489 754.595 584.273 754.595C588.753 754.595 593.065 755.771 596.425 758.739Z" fill="#020D3A"/>
</g>
<defs>
<clipPath id="clip0_637_11019">
<rect width="836" height="889" fill="white"/>
</clipPath>
</defs>
</svg>
