<svg width="51" height="50" viewBox="0 0 51 50" fill="none" xmlns="http://www.w3.org/2000/svg">
<path d="M25.4131 50C39.4484 50 50.8262 38.8071 50.8262 25C50.8262 11.1929 39.4484 0 25.4131 0C11.3778 0 0 11.1929 0 25C0 38.8071 11.3778 50 25.4131 50Z" fill="#20E086"/>
<path d="M22.5808 40.091C20.7085 40.091 19.1758 39.652 18.0052 38.7772C17.019 38.0392 16.4531 37.1103 16.1297 36.2928C15.8581 35.7679 15.677 35.1667 15.6026 34.5019C15.5606 34.1233 15.5671 33.7416 15.5962 33.3631L16.8864 16.3157H13.3553L12.2591 33.2294C11.9066 37.4984 14.542 41.0358 18.5258 41.6465C18.9139 41.7038 19.3051 41.7324 19.6899 41.7324C20.66 41.7324 21.6043 41.5511 22.5032 41.1885L22.6067 41.1503C23.3213 40.8481 23.9874 40.4409 24.5792 39.9415C23.8743 40.0433 23.2114 40.091 22.584 40.091H22.5808ZM39.6511 22.9896C39.5412 21.8762 39.1629 20.7788 38.5549 19.8181C38.348 19.4872 38.1152 19.1755 37.8662 18.8924C37.6722 18.6697 37.4523 18.4502 37.1871 18.2148L36.9058 17.9667L37.1742 17.6995C38.3027 16.5638 38.9624 15.091 39.0335 13.5482C39.1079 11.929 38.5355 10.4117 37.4264 9.26648C36.314 8.12447 34.8007 7.4978 33.1613 7.4978C29.753 7.4978 26.8557 10.2272 26.7037 13.5832C26.6423 14.9383 27.0303 16.2235 27.829 17.2955L28.0424 17.5786L27.7611 17.7949C25.9761 19.15 24.8476 21.3036 24.6697 23.6926L24.5048 25.4676H20.8282L20.5857 28.3433H24.2364L23.6608 34.5432C23.6382 34.7977 23.5962 35.049 23.5412 35.294L23.4636 35.5484C22.9365 37.2789 21.4135 38.44 19.6802 38.44C19.5444 38.44 19.4054 38.4337 19.2663 38.4178C20.812 39.2258 22.9689 39.3435 25.7045 38.7613C27.0206 37.0022 27.1596 34.8422 27.3052 32.5519C27.331 32.1606 27.3537 31.7662 27.386 31.3781L27.635 28.3433H31.635L31.8775 25.4676H27.871L28.0262 23.6004C28.4175 21.2146 30.0182 19.6527 32.1427 19.6177C32.2882 19.6272 32.4337 19.6368 32.5792 19.6368H32.6148C34.4321 19.8276 35.8258 21.2082 36.0909 23.0723L36.1297 23.3459H39.6867L39.6544 22.9928L39.6511 22.9896ZM32.7603 16.3125C32.0133 16.3125 31.3181 16.0231 30.8136 15.5014C30.3027 14.9765 30.0408 14.283 30.0731 13.5482C30.141 12.0404 31.4442 10.8125 32.9802 10.8125C33.7271 10.8125 34.4224 11.102 34.9268 11.6205C35.4377 12.1453 35.6997 12.842 35.6673 13.5768C35.5994 15.0846 34.293 16.3125 32.7603 16.3125Z" fill="#020D3A"/>
</svg>
