<svg width="32" height="32" viewBox="0 0 32 32" fill="none" xmlns="http://www.w3.org/2000/svg">
<path opacity="0.2" d="M5.3138 18.6225L5.88997 19.1026L8.52111 15.9453C8.71995 18.3281 9.4749 20.9572 11.0336 23.812L7.78357 26.412L8.25209 26.9977L7.78357 26.412C7.75042 26.4386 7.71106 26.4562 7.6692 26.4633C7.62735 26.4704 7.58437 26.4667 7.54433 26.4526C7.50429 26.4385 7.4685 26.4144 7.44033 26.3827C7.41217 26.3509 7.39256 26.3125 7.38335 26.271L7.38334 26.271L5.83799 19.3169L5.83799 19.3169C5.82969 19.2796 5.83007 19.2409 5.83908 19.2037C5.84809 19.1666 5.8655 19.132 5.88997 19.1026L5.3138 18.6225Z" fill="#20E086" stroke="#20E086" stroke-width="1.5"/>
<path opacity="0.2" d="M20.8915 23.7222C22.4501 20.8674 23.2051 18.2383 23.4039 15.8554L26.0351 19.0128L26.0351 19.0128C26.0595 19.0422 26.0769 19.0767 26.086 19.1139C26.095 19.151 26.0953 19.1897 26.087 19.227L26.087 19.2271L24.5417 26.1812L24.5417 26.1812C24.5325 26.2226 24.5129 26.2611 24.4847 26.2928C24.4565 26.3246 24.4208 26.3487 24.3807 26.3628C24.3407 26.3769 24.2977 26.3805 24.2558 26.3735C24.214 26.3664 24.1746 26.3487 24.1415 26.3222L23.7034 26.8698L24.1415 26.3222L20.8915 23.7222Z" fill="#20E086" stroke="#20E086" stroke-width="1.5"/>
<path d="M18 28H14" stroke="#20E086" stroke-width="1.5" stroke-linecap="round" stroke-linejoin="round"/>
<path d="M15.3704 2.47053C12.9964 4.3723 5.05591 11.9717 11.9991 24.0002H19.9991C26.798 11.9802 18.9736 4.38305 16.6245 2.47458C16.4474 2.33063 16.2264 2.25172 15.9982 2.25098C15.77 2.25025 15.5484 2.32773 15.3704 2.47053V2.47053Z" stroke="#20E086" stroke-width="1.5" stroke-linecap="round" stroke-linejoin="round"/>
<path d="M9.23258 13.9199L5.31381 18.6225C5.21593 18.7399 5.14628 18.8783 5.11023 19.0268C5.07418 19.1754 5.07268 19.3303 5.10584 19.4796L6.65121 26.4337C6.68805 26.5995 6.76649 26.7531 6.87915 26.8802C6.99181 27.0073 7.13497 27.1035 7.29514 27.16C7.45531 27.2164 7.62721 27.2311 7.79463 27.2027C7.96205 27.1743 8.11949 27.1037 8.25209 26.9976L11.9993 23.9999" stroke="#20E086" stroke-width="1.5" stroke-linecap="round" stroke-linejoin="round"/>
<path d="M22.6914 13.8301L26.6854 18.6229C26.7833 18.7404 26.853 18.8787 26.889 19.0273C26.9251 19.1759 26.9266 19.3308 26.8934 19.48L25.348 26.4342C25.3112 26.5999 25.2328 26.7536 25.1201 26.8807C25.0074 27.0077 24.8643 27.104 24.7041 27.1604C24.5439 27.2168 24.372 27.2315 24.2046 27.2031C24.0372 27.1747 23.8798 27.1042 23.7472 26.9981L20 24.0004" stroke="#20E086" stroke-width="1.5" stroke-linecap="round" stroke-linejoin="round"/>
<path d="M16 13.5C16.8284 13.5 17.5 12.8284 17.5 12C17.5 11.1716 16.8284 10.5 16 10.5C15.1716 10.5 14.5 11.1716 14.5 12C14.5 12.8284 15.1716 13.5 16 13.5Z" fill="#20E086"/>
</svg>
