<svg width="50" height="50" viewBox="0 0 50 50" fill="none" xmlns="http://www.w3.org/2000/svg">
<path opacity="0.2" d="M8.87971 29.5779L13.6704 23.8291C13.8315 27.8438 15.0176 32.3524 17.7817 37.3139L12.4261 41.5984C12.3184 41.6846 12.1904 41.7419 12.0544 41.765C11.9184 41.7881 11.7787 41.7761 11.6486 41.7303C11.5184 41.6844 11.4021 41.6062 11.3106 41.5029C11.219 41.3997 11.1553 41.2749 11.1254 41.1402L11.1254 41.1401L8.71077 30.2744L8.71076 30.2743C8.68381 30.1531 8.68502 30.0272 8.71431 29.9065C8.7436 29.7858 8.80018 29.6734 8.87971 29.5779L8.87971 29.5779Z" fill="#20E086" stroke="#20E086" stroke-width="1.5"/>
<path opacity="0.2" d="M41.1716 30.1331L41.1716 30.1332L38.757 40.9989L38.757 40.999C38.7271 41.1337 38.6633 41.2585 38.5718 41.3618L39.133 41.8593L38.5718 41.3618C38.4803 41.465 38.364 41.5432 38.2338 41.5891L38.483 42.2965L38.2338 41.5891C38.1037 41.6349 37.964 41.6469 37.828 41.6238C37.6919 41.6007 37.564 41.5434 37.4563 41.4572L32.1006 37.1727C34.8648 32.2112 36.0509 27.7026 36.212 23.6879L41.0027 29.4368L41.5788 28.9566L41.0027 29.4368C41.0822 29.5322 41.1388 29.6446 41.1681 29.7653C41.1974 29.886 41.1986 30.0119 41.1716 30.1331Z" fill="#20E086" stroke="#20E086" stroke-width="1.5"/>
<path d="M28.125 43.75H21.875" stroke="#20E086" stroke-width="1.5" stroke-linecap="round" stroke-linejoin="round"/>
<path d="M24.0185 3.85999C20.3091 6.83149 7.90205 18.7055 18.7508 37.5001H31.2508C41.874 18.7188 29.6485 6.8483 25.9779 3.86631C25.7013 3.64139 25.3559 3.51809 24.9993 3.51694C24.6428 3.51579 24.2966 3.63686 24.0185 3.85999V3.85999Z" stroke="#20E086" stroke-width="1.5" stroke-linecap="round" stroke-linejoin="round"/>
<path d="M14.4266 21.7501L8.30356 29.0978C8.15062 29.2813 8.0418 29.4975 7.98546 29.7297C7.92913 29.9618 7.92679 30.2038 7.97861 30.437L10.3932 41.3029C10.4508 41.5619 10.5734 41.802 10.7494 42.0005C10.9254 42.1991 11.1491 42.3495 11.3994 42.4377C11.6497 42.5258 11.9182 42.5488 12.1798 42.5044C12.4414 42.4601 12.6874 42.3498 12.8946 42.184L18.7496 37.5001" stroke="#20E086" stroke-width="1.5" stroke-linecap="round" stroke-linejoin="round"/>
<path d="M35.4554 21.6088L41.696 29.0976C41.849 29.2812 41.9578 29.4973 42.0141 29.7295C42.0704 29.9617 42.0728 30.2037 42.021 30.4369L39.6063 41.3027C39.5488 41.5617 39.4262 41.8018 39.2502 42.0004C39.0741 42.1989 38.8504 42.3493 38.6002 42.4375C38.3499 42.5257 38.0813 42.5486 37.8197 42.5043C37.5581 42.4599 37.3121 42.3496 37.1049 42.1839L31.25 37.4999" stroke="#20E086" stroke-width="1.5" stroke-linecap="round" stroke-linejoin="round"/>
<path d="M25 21.0938C26.2944 21.0938 27.3438 20.0444 27.3438 18.75C27.3438 17.4556 26.2944 16.4062 25 16.4062C23.7056 16.4062 22.6562 17.4556 22.6562 18.75C22.6562 20.0444 23.7056 21.0938 25 21.0938Z" fill="#20E086"/>
</svg>
