<svg width="25" height="25" viewBox="0 0 25 25" fill="none" xmlns="http://www.w3.org/2000/svg">
<path d="M13.48 23H11.52C10.8576 23 10.2985 22.5039 10.2198 21.845L10.0106 20.2035C9.59325 20.0679 9.19075 19.9008 8.80838 19.7056L7.50113 20.7215C6.97088 21.1319 6.2245 21.0846 5.76425 20.6112L4.38613 19.2331C3.91625 18.7773 3.869 18.0309 4.27938 17.5015L5.29525 16.1934C5.09925 15.811 4.93213 15.4085 4.79737 14.9911L3.15237 14.782C2.49613 14.7015 2 14.1424 2 13.48V11.52C2 10.8576 2.49613 10.2985 3.155 10.2198L4.7965 10.0106C4.93213 9.59325 5.09925 9.19075 5.29438 8.80838L4.27938 7.50113C3.86812 6.97088 3.91625 6.22363 4.3905 5.76338L5.76863 4.38525C6.2245 3.91538 6.97175 3.869 7.50025 4.2785L8.8075 5.29525C9.18988 5.10013 9.59237 4.933 10.0106 4.79737L10.2198 3.15237C10.2985 2.49613 10.8576 2 11.52 2H13.48C14.1424 2 14.7015 2.49613 14.7802 3.155L14.9894 4.7965C15.4076 4.93213 15.8101 5.09925 16.1925 5.29438L17.4998 4.2785C18.0309 3.86813 18.7764 3.91537 19.2366 4.38963L20.6147 5.76775C21.0846 6.22363 21.1319 6.97 20.7215 7.49937L19.7056 8.8075C19.9016 9.18988 20.0688 9.59238 20.2035 10.0098L21.8485 10.2189C22.5039 10.2985 23 10.8576 23 11.52V13.48C23 14.1424 22.5039 14.7015 21.845 14.7802L20.2035 14.9894C20.0679 15.4068 19.9008 15.8092 19.7056 16.1916L20.7215 17.4989C21.1327 18.0291 21.0846 18.7755 20.6104 19.2358L19.2323 20.6139C18.7764 21.0837 18.0291 21.1319 17.5006 20.7206L16.1925 19.7048C15.8101 19.9007 15.4076 20.0679 14.9902 20.2026L14.7811 21.8476C14.7015 22.5039 14.1424 23 13.48 23ZM8.76375 18.7475C8.83638 18.7475 8.91075 18.7659 8.97725 18.8026C9.45937 19.0721 9.98175 19.2891 10.5295 19.4466C10.6975 19.4947 10.8209 19.6383 10.8427 19.8115L11.0877 21.7365C11.114 21.9561 11.3039 22.125 11.52 22.125H13.48C13.6961 22.125 13.886 21.9561 13.9114 21.7409L14.1573 19.8124C14.1791 19.6391 14.3025 19.4956 14.4705 19.4475C15.0182 19.29 15.5406 19.073 16.0227 18.8035C16.1759 18.7178 16.3666 18.7326 16.504 18.8403L18.0352 20.0303C18.2111 20.1667 18.4579 20.1554 18.6084 20.0005L19.9953 18.6136C20.1536 18.4596 20.1659 18.2129 20.0294 18.0361L18.8394 16.5049C18.7318 16.3666 18.7169 16.1768 18.8026 16.0236C19.0721 15.5415 19.2891 15.0191 19.4466 14.4714C19.4947 14.3034 19.6383 14.18 19.8115 14.1581L21.7365 13.9131C21.9561 13.886 22.125 13.6961 22.125 13.48V11.52C22.125 11.3039 21.9561 11.114 21.7409 11.0886L19.8124 10.8427C19.6391 10.8209 19.4956 10.6975 19.4475 10.5295C19.29 9.98175 19.073 9.45937 18.8035 8.97725C18.7178 8.82412 18.7318 8.63425 18.8403 8.496L20.0303 6.96475C20.1676 6.788 20.1554 6.54125 20.0014 6.3925L18.6145 5.00563C18.4614 4.84637 18.2137 4.83412 18.037 4.9715L16.5057 6.1615C16.3666 6.26912 16.1768 6.284 16.0236 6.19825C15.5433 5.92875 15.0209 5.71262 14.4714 5.55425C14.3034 5.50612 14.18 5.36262 14.1581 5.18937L13.9131 3.26438C13.886 3.04388 13.6961 2.875 13.48 2.875H11.52C11.3039 2.875 11.114 3.04387 11.0886 3.25912L10.8427 5.18762C10.8209 5.36087 10.6975 5.50437 10.5295 5.55337C9.98 5.71087 9.45762 5.92788 8.97725 6.1965C8.82412 6.28312 8.63425 6.26737 8.49512 6.16062L6.96387 4.97062C6.78712 4.83325 6.54125 4.8455 6.39162 4.9995L5.00475 6.38725C4.84637 6.54125 4.83413 6.788 4.97062 6.96475L6.16062 8.496C6.26825 8.63425 6.28312 8.82412 6.19737 8.97725C5.927 9.45937 5.71087 9.98175 5.55337 10.5295C5.50525 10.6975 5.36175 10.8209 5.1885 10.8427L3.2635 11.0877C3.04387 11.114 2.875 11.3039 2.875 11.52V13.48C2.875 13.6961 3.04387 13.886 3.25912 13.9114L5.18762 14.1573C5.36087 14.1791 5.50437 14.3025 5.5525 14.4705C5.71 15.0182 5.927 15.5406 6.1965 16.0227C6.28225 16.1759 6.26825 16.3658 6.15975 16.504L4.96975 18.0352C4.83238 18.212 4.84462 18.4587 4.99863 18.6075L6.3855 19.9944C6.53863 20.1528 6.7845 20.165 6.963 20.0285L8.49425 18.8385C8.57387 18.779 8.66838 18.7475 8.76375 18.7475Z" fill="#020D3A"/>
<path d="M12.5 16.875C10.0876 16.875 8.125 14.9124 8.125 12.5C8.125 10.0876 10.0876 8.125 12.5 8.125C14.9124 8.125 16.875 10.0876 16.875 12.5C16.875 14.9124 14.9124 16.875 12.5 16.875ZM12.5 9C10.5697 9 9 10.5697 9 12.5C9 14.4303 10.5697 16 12.5 16C14.4303 16 16 14.4303 16 12.5C16 10.5697 14.4303 9 12.5 9Z" fill="#020D3A"/>
</svg>
