<svg width="25" height="25" viewBox="0 0 25 25" fill="none" xmlns="http://www.w3.org/2000/svg">
<path d="M21.0909 12.5839V9.77292C21.0909 8.81975 20.3516 8.04458 19.4174 7.96941L16.8069 3.40983C16.565 2.98813 16.1744 2.68673 15.707 2.56157C15.2417 2.43727 14.7553 2.50255 14.3389 2.74489L5.38991 7.95475H3.81819C2.81545 7.95475 2 8.77015 2 9.77292V20.6818C2 21.6846 2.81541 22.5 3.81819 22.5H19.2727C20.2755 22.5 21.0909 21.6846 21.0909 20.6818V17.8709C21.6189 17.6826 22 17.1828 22 16.591V13.8638C22 13.272 21.6189 12.7721 21.0909 12.5839ZM18.3611 7.95475H14.3993L17.3707 6.22484L18.3611 7.95475ZM16.919 5.43594L12.5925 7.95475H10.7979L16.4703 4.65225L16.919 5.43594ZM14.7965 3.53055C15.002 3.41025 15.2422 3.37829 15.4717 3.43957C15.7038 3.5017 15.8974 3.65174 16.0177 3.86169L16.0186 3.86336L8.99123 7.95475H7.19673L14.7965 3.53055ZM20.1818 20.6818C20.1818 21.183 19.7739 21.5909 19.2727 21.5909H3.81819C3.31706 21.5909 2.90912 21.183 2.90912 20.6818V9.77292C2.90912 9.27179 3.31706 8.86386 3.81819 8.86386H19.2727C19.7739 8.86386 20.1818 9.27179 20.1818 9.77292V12.5001H17.4545C15.9506 12.5001 14.7273 13.7235 14.7273 15.2274C14.7273 16.7313 15.9506 17.9546 17.4545 17.9546H20.1818V20.6818ZM21.0909 16.591C21.0909 16.8418 20.8872 17.0455 20.6364 17.0455H17.4545C16.4518 17.0455 15.6363 16.2301 15.6363 15.2274C15.6363 14.2247 16.4518 13.4092 17.4545 13.4092H20.6364C20.8871 13.4092 21.0909 13.6129 21.0909 13.8638V16.591Z" fill="#020D3A"/>
<path d="M18 14.5C17.4487 14.5 17 14.9487 17 15.5C17 16.0513 17.4487 16.5 18 16.5C18.5513 16.5 19 16.0513 19 15.5C19 14.9487 18.5513 14.5 18 14.5Z" fill="#020D3A"/>
</svg>
