<svg width="836" height="1402" viewBox="0 0 836 1402" fill="none" xmlns="http://www.w3.org/2000/svg">
<g clip-path="url(#clip0_637_10484)">
<rect width="836" height="1402" fill="white"/>
<g opacity="0.5">
<path d="M183.23 933.04H-115.206C-120.137 933.04 -124.692 930.41 -127.151 926.142C-129.616 921.873 -129.616 916.614 -127.151 912.346L22.0634 653.898C24.5289 649.629 29.0842 647 34.0084 647C38.9326 647 43.4948 649.629 45.9535 653.898L195.168 912.346C197.633 916.614 197.633 921.873 195.168 926.142C192.702 930.41 188.147 933.04 183.223 933.04H183.23ZM-91.3089 905.448H159.333L34.0153 688.388L-91.3089 905.448Z" fill="#20E086"/>
<path d="M691.143 566.93C687.372 565.628 684.189 562.709 682.698 558.676C669.777 523.764 669.363 489.332 681.527 461.726C696.799 427.079 733.69 405.513 767.341 411.57C786.564 415.032 801.548 425.816 816.045 436.252C826.878 444.051 837.129 451.425 848.186 454.995C873.196 463.084 904.814 447.712 914.532 422.736C924.264 397.715 912.32 365.207 888.449 351.745C881.814 348.004 879.464 339.592 883.208 332.951C886.952 326.31 895.368 323.969 902.003 327.711C937.784 347.883 954.939 395 940.251 432.746C925.069 471.759 879.017 493.971 839.698 481.247C824.52 476.342 812.006 467.342 799.929 458.644C787.37 449.607 775.506 441.069 762.459 438.72C738.894 434.482 715.643 452.742 706.783 472.847C694.283 501.198 702.544 532.782 708.579 549.083C711.221 556.23 707.578 564.17 700.431 566.812C697.318 567.962 694.059 567.921 691.147 566.917L691.143 566.93Z" fill="#20E086"/>
</g>
<path d="M599.685 1129.95H236.315C232.279 1129.95 229 1126.61 229 1122.51C229 1118.4 232.284 1115.06 236.315 1115.06H599.685C603.721 1115.06 607 1118.4 607 1122.51C607 1126.61 603.716 1129.95 599.685 1129.95ZM236.315 1116.56C233.096 1116.56 230.478 1119.23 230.478 1122.51C230.478 1125.78 233.096 1128.45 236.315 1128.45H599.685C602.904 1128.45 605.522 1125.78 605.522 1122.51C605.522 1119.23 602.904 1116.56 599.685 1116.56H236.315Z" fill="#020D3A"/>
<path d="M245.117 1135C251.898 1135 257.395 1129.4 257.395 1122.5C257.395 1115.6 251.898 1110 245.117 1110C238.335 1110 232.838 1115.6 232.838 1122.5C232.838 1129.4 238.335 1135 245.117 1135Z" fill="#020D3A"/>
<path opacity="0.3" d="M427.168 991.411C547.345 991.411 644.767 979.436 644.767 964.665C644.767 949.894 547.345 937.92 427.168 937.92C306.991 937.92 209.568 949.894 209.568 964.665C209.568 979.436 306.991 991.411 427.168 991.411Z" fill="#B3B3B2"/>
<path d="M352.138 785.258C352.32 788.199 352.974 791.16 353.604 794.015C354.203 796.724 354.817 799.524 355.049 802.349C355.89 812.618 351.846 823.53 343.018 834.78C339.574 839.172 335.706 843.306 331.965 847.31C327.871 851.686 323.635 856.213 319.974 861.063C317.597 864.205 315.633 867.226 314.037 870.157C319.566 874.715 326.405 877.736 333.496 878.643C336.693 879.056 343.034 877.867 345.602 875.959C348.135 874.075 349.676 870.943 349.631 867.79C349.6 865.685 348.926 863.691 348.21 861.581C347.616 859.824 347.002 858.006 346.795 856.112C346.332 851.912 347.908 847.254 351.247 842.989C353.412 840.219 356.061 837.842 358.62 835.546C359.45 834.801 360.286 834.05 361.102 833.29C369.95 825.051 374.583 816.712 374.86 808.503C375.152 799.957 370.635 791.779 366.38 784.789L365.206 782.871C361.581 776.969 357.849 770.885 356.374 764.193C354.082 770.719 351.685 778.006 352.133 785.258H352.138Z" fill="#F5F0EA"/>
<path d="M331.099 846.504C334.825 842.52 338.678 838.401 342.087 834.055C350.724 823.047 354.687 812.416 353.866 802.455C353.639 799.711 353.03 796.946 352.441 794.277C351.801 791.371 351.137 788.37 350.95 785.338C350.477 777.664 353.045 770.07 355.427 763.311C349.329 771.626 344.247 780.65 340.33 790.193C339.801 791.482 339.292 792.781 338.784 794.086C337.389 797.646 335.948 801.327 334.085 804.752C331.119 810.205 327.483 814.133 323.288 816.425C321.113 817.613 318.731 818.394 316.424 819.149C313.488 820.106 310.714 821.017 308.297 822.694C303.23 826.209 300.244 833.149 300.31 841.251C300.38 850.316 303.87 859.401 309.888 866.179C310.895 867.312 311.978 868.375 313.116 869.377C314.717 866.461 316.676 863.465 319.028 860.352C322.729 855.458 326.985 850.905 331.099 846.504Z" fill="#F5F0EA"/>
<path d="M356.041 762.455C355.99 762.521 355.945 762.591 355.895 762.657L356.091 762.727C356.076 762.637 356.056 762.546 356.041 762.455Z" fill="#F5F0EA"/>
<path d="M250.052 894.052C249.513 894.712 249.301 895.573 249.472 896.409L261.166 953.647C263.17 963.467 271.902 970.597 281.923 970.597H299.287C309.308 970.597 318.041 963.472 320.045 953.647L331.738 896.409C331.909 895.573 331.698 894.712 331.159 894.052C330.62 893.393 329.819 893.01 328.963 893.01H252.247C251.391 893.01 250.59 893.393 250.052 894.052Z" fill="#F5F0EA"/>
<path d="M319.189 806.328C314.546 797.631 309.747 788.642 310.588 778.882C311.177 772.044 314.531 765.915 317.769 759.993C320.342 755.289 323.001 750.43 324.255 745.248C326.526 735.891 324.386 724.923 317.885 712.656C315.74 708.607 313.287 704.619 310.915 700.766C307.365 694.995 303.689 689.028 300.954 682.687C295.098 669.126 293.134 654.693 295.284 641.565C289.155 657.951 285.434 675.078 284.281 692.553C283.173 709.332 284.452 726.434 285.691 742.972C286.834 758.25 288.017 774.053 287.322 789.614C287 796.886 286.26 804.243 285.54 811.359C284.835 818.379 284.099 825.64 283.772 832.801C283.117 847.058 283.928 860.786 286.224 874.347C289.659 873.894 292.978 872.494 295.742 870.213C298.859 867.639 302.047 864.854 305.23 861.934C301.357 855.775 299.167 848.513 299.111 841.256C299.046 832.756 302.223 825.449 307.612 821.712C310.175 819.935 313.161 818.958 316.052 818.011C318.308 817.276 320.639 816.51 322.719 815.377C322.966 815.241 323.203 815.085 323.444 814.939C322.468 812.668 321.289 810.261 319.663 807.209L319.189 806.328Z" fill="#F5F0EA"/>
<path d="M269.098 862.558C270.438 856.404 270.125 849.334 268.136 840.934C266.963 835.984 265.064 829.699 260.759 825.016C258.145 822.171 254.761 820.071 251.483 818.036C249.252 816.651 246.945 815.216 244.861 813.544C237.332 807.506 232.88 798.562 229.516 790.606C227.885 786.753 226.349 782.76 224.863 778.902C220.487 767.542 215.96 755.793 208.502 746.064C204.745 741.164 201.023 738.303 197.166 737.367C197.221 737.467 197.272 737.568 197.327 737.664C206.588 745.132 209.791 757.334 210.823 766.368C211.443 771.807 211.523 777.362 211.599 782.735C211.674 788.163 211.75 793.773 212.394 799.237C214.479 816.999 222.592 833.748 235.237 846.398C237.327 848.488 239.573 850.502 241.748 852.446C244.649 855.045 247.645 857.729 250.335 860.655C254.721 865.429 258.337 870.963 261.026 876.91C264.934 873.431 267.844 868.344 269.108 862.553L269.098 862.558Z" fill="#F5F0EA"/>
<path d="M240.948 853.338C238.762 851.379 236.506 849.359 234.391 847.244C221.56 834.408 213.326 817.407 211.206 799.378C210.556 793.854 210.476 788.209 210.4 782.755C210.325 777.412 210.249 771.888 209.635 766.504C208.708 758.371 205.984 747.62 198.541 740.338C200.203 744.895 200.203 749.972 200.208 754.922V756.503C200.238 763.165 199.024 769.828 197.851 776.269L197.639 777.427C195.726 787.957 193.878 799.247 193.304 810.487C192.936 817.704 193.178 826.794 198.349 833.048C200.812 836.029 204.241 838.164 207.56 840.229C211.322 842.571 215.21 844.993 217.808 848.684C220.079 851.917 221.112 855.77 222.109 859.496C222.688 861.662 223.287 863.898 224.118 865.972C226.631 872.227 231.606 877.308 237.418 879.579C242.957 881.74 251.03 882.898 257.083 879.675C258.125 879.121 259.122 878.456 260.069 877.706C257.42 871.759 253.824 866.224 249.443 861.46C246.794 858.58 243.818 855.916 240.938 853.338H240.948Z" fill="#F5F0EA"/>
<path d="M285.046 874.473C282.744 860.851 281.934 847.068 282.593 832.751C282.921 825.56 283.656 818.278 284.361 811.243C285.076 804.142 285.816 796.8 286.139 789.564C286.828 774.073 285.65 758.311 284.507 743.062C283.268 726.484 281.984 709.342 283.097 692.477C284.285 674.474 288.173 656.823 294.609 639.978C274.108 657.151 262.546 683.941 264.293 710.682C264.661 716.257 265.587 721.937 266.484 727.431C268.196 737.891 269.963 748.708 267.909 759.258C266.247 767.799 262.163 775.649 258.22 783.244C256.286 786.96 254.287 790.807 252.605 794.68C250.011 800.642 248.052 806.912 246.788 813.308L246.426 813.237C248.239 814.607 250.203 815.836 252.116 817.029C255.455 819.104 258.915 821.249 261.639 824.21C266.131 829.095 268.09 835.566 269.299 840.657C271.328 849.233 271.645 856.48 270.266 862.81C269.812 864.895 269.148 866.889 268.307 868.762C270.774 870.248 273.453 871.648 276.283 872.922C279.058 874.171 282.075 874.675 285.046 874.468V874.473Z" fill="#F5F0EA"/>
<path d="M299.287 971.791H281.924C271.338 971.791 262.113 964.262 259.998 953.889L248.304 896.646C248.063 895.458 248.365 894.234 249.13 893.297C249.896 892.355 251.034 891.817 252.247 891.817H328.964C330.177 891.817 331.315 892.355 332.081 893.297C332.846 894.239 333.148 895.458 332.907 896.646L321.214 953.889C319.093 964.262 309.873 971.791 299.287 971.791ZM252.247 893.01C251.391 893.01 250.591 893.388 250.052 894.052C249.513 894.712 249.301 895.573 249.473 896.409L261.166 953.652C263.17 963.472 271.902 970.603 281.924 970.603H299.287C309.314 970.603 318.041 963.477 320.045 953.652L331.738 896.409C331.91 895.573 331.698 894.712 331.159 894.052C330.62 893.393 329.82 893.01 328.964 893.01H252.247Z" fill="black"/>
<path d="M283.757 875.707C281.043 875.707 278.323 875.148 275.795 874.01C272.754 872.64 269.873 871.129 267.234 869.518L267.854 868.501C270.447 870.087 273.282 871.572 276.279 872.922C282.639 875.787 290.283 874.725 295.747 870.213C298.99 867.534 302.304 864.638 305.592 861.601L306.398 862.478C303.095 865.529 299.761 868.44 296.503 871.129C292.862 874.136 288.309 875.702 283.752 875.702L283.757 875.707Z" fill="black"/>
<path d="M323.651 815.418C322.634 813.005 321.4 810.477 319.662 807.209L319.189 806.323C314.546 797.626 309.747 788.637 310.588 778.877C311.177 772.039 314.531 765.915 317.769 759.988C320.342 755.284 323.001 750.425 324.255 745.243C326.526 735.886 324.386 724.918 317.885 712.646C315.74 708.597 313.287 704.609 310.915 700.756C307.365 694.985 303.689 689.018 300.954 682.677C294.715 668.235 292.892 652.8 295.757 639.012C274.536 656.133 262.511 683.433 264.293 710.677C264.661 716.251 265.587 721.932 266.484 727.426C268.196 737.886 269.964 748.703 267.909 759.253C266.247 767.793 262.163 775.644 258.22 783.238C256.286 786.96 254.287 790.802 252.6 794.675C250.006 800.637 248.048 806.902 246.784 813.303L245.615 813.071C246.894 806.59 248.878 800.239 251.507 794.202C253.209 790.289 255.219 786.426 257.157 782.69C261.065 775.171 265.104 767.401 266.736 759.026C268.75 748.682 266.997 737.971 265.305 727.617C264.404 722.098 263.467 716.387 263.1 710.757C261.257 682.572 273.992 654.326 296.331 637.043L297.661 636.01L297.273 637.647C293.964 651.601 295.657 667.424 302.042 682.209C304.746 688.469 308.397 694.401 311.922 700.132C314.304 703.999 316.767 708.003 318.932 712.087C325.57 724.621 327.75 735.871 325.408 745.52C324.114 750.853 321.415 755.783 318.806 760.552C315.478 766.635 312.335 772.386 311.766 778.973C310.955 788.38 315.674 797.213 320.232 805.754L320.705 806.64C322.462 809.939 323.706 812.497 324.744 814.944L323.646 815.407L323.651 815.418Z" fill="black"/>
<path d="M334.917 879.917C334.348 879.917 333.819 879.887 333.346 879.826C324.075 878.643 315.197 873.954 308.997 866.965C302.793 859.975 299.193 850.603 299.122 841.257C299.057 832.756 302.234 825.449 307.623 821.712C310.186 819.935 313.172 818.958 316.063 818.011C318.319 817.276 320.65 816.51 322.73 815.377C326.724 813.197 330.198 809.425 333.054 804.178C334.882 800.819 336.307 797.178 337.682 793.658C338.195 792.348 338.709 791.039 339.243 789.735C343.518 779.326 349.148 769.516 355.982 760.572L356.893 759.379L357.045 760.869C357.84 768.579 362.106 775.523 366.235 782.241L367.413 784.165C371.759 791.306 376.372 799.665 376.065 808.539C375.773 817.079 371.014 825.696 361.924 834.156C361.103 834.921 360.262 835.672 359.426 836.427C356.903 838.693 354.295 841.03 352.195 843.719C349.053 847.738 347.562 852.089 347.99 855.981C348.186 857.744 348.781 859.501 349.35 861.199C350.06 863.304 350.795 865.479 350.83 867.77C350.886 871.3 349.158 874.805 346.323 876.91C343.886 878.723 338.568 879.912 334.922 879.912L334.917 879.917ZM356.042 762.455C349.662 771.001 344.384 780.328 340.336 790.188C339.802 791.482 339.293 792.786 338.784 794.091C337.395 797.646 335.954 801.322 334.091 804.742C331.125 810.195 327.494 814.123 323.294 816.42C321.119 817.608 318.737 818.389 316.43 819.139C313.494 820.101 310.72 821.007 308.302 822.684C303.236 826.199 300.25 833.139 300.316 841.241C300.386 850.306 303.876 859.391 309.894 866.169C315.907 872.947 324.513 877.495 333.507 878.643C336.705 879.051 343.05 877.867 345.613 875.959C348.146 874.075 349.687 870.943 349.642 867.79C349.612 865.685 348.937 863.691 348.222 861.581C347.627 859.824 347.013 858.006 346.807 856.112C346.343 851.912 347.925 847.249 351.258 842.989C353.424 840.219 356.073 837.842 358.636 835.546C359.467 834.801 360.303 834.05 361.119 833.29C369.967 825.051 374.6 816.712 374.877 808.503C375.169 799.952 370.651 791.779 366.396 784.789L365.223 782.871C361.285 776.46 357.221 769.843 356.057 762.455H356.042Z" fill="black"/>
<path d="M248.24 882.858C244.206 882.858 240.188 881.936 236.99 880.687C230.876 878.305 225.654 872.967 223.02 866.416C222.159 864.27 221.55 861.999 220.961 859.799C219.944 856.007 218.987 852.421 216.836 849.364C214.379 845.869 210.763 843.618 206.931 841.236C203.532 839.121 200.017 836.936 197.428 833.804C192 827.232 191.738 817.855 192.115 810.422C192.689 799.132 194.543 787.791 196.466 777.211L196.678 776.057C197.841 769.672 199.045 763.065 199.02 756.508V754.932C199.02 748.597 199.015 742.05 195.444 736.873L194.684 735.77L196.008 735.947C200.666 736.556 205.063 739.628 209.444 745.344C217.013 755.209 221.57 767.038 225.976 778.48C227.457 782.327 228.993 786.305 230.614 790.143C233.918 797.958 238.284 806.746 245.606 812.618C247.636 814.244 249.912 815.659 252.113 817.024C255.456 819.099 258.911 821.244 261.635 824.205C266.127 829.09 268.086 835.561 269.295 840.652C271.324 849.228 271.642 856.475 270.262 862.805C268.534 870.736 263.816 877.434 257.647 880.718C254.782 882.243 251.503 882.848 248.24 882.848V882.858ZM197.161 737.372C200.203 742.629 200.203 748.879 200.203 754.932V756.508C200.233 763.171 199.02 769.833 197.846 776.274L197.635 777.427C195.721 787.967 193.873 799.263 193.299 810.488C192.931 817.704 193.173 826.794 198.345 833.048C200.807 836.029 204.237 838.165 207.555 840.229C211.317 842.571 215.205 844.993 217.803 848.685C220.074 851.912 221.107 855.77 222.104 859.496C222.683 861.662 223.282 863.903 224.118 865.978C226.631 872.232 231.602 877.318 237.418 879.585C242.957 881.745 251.035 882.903 257.083 879.68C262.95 876.558 267.437 870.157 269.093 862.563C270.433 856.409 270.121 849.334 268.132 840.934C266.958 835.984 265.06 829.699 260.754 825.016C258.14 822.176 254.756 820.071 251.483 818.041C249.252 816.656 246.946 815.221 244.861 813.549C237.332 807.511 232.881 798.568 229.517 790.611C227.89 786.754 226.349 782.765 224.864 778.908C220.487 767.547 215.96 755.798 208.497 746.069C204.74 741.169 201.019 738.309 197.161 737.372Z" fill="black"/>
<path d="M289.004 892.567C283.742 872.993 281.642 853.428 282.594 832.751C282.921 825.555 283.656 818.278 284.366 811.238C285.081 804.142 285.822 796.805 286.144 789.569C286.834 774.083 285.655 758.316 284.512 743.072C283.268 726.494 281.989 709.347 283.097 692.482C284.331 673.804 288.44 655.504 295.314 638.09L296.422 638.528C289.593 655.826 285.509 674.006 284.286 692.558C283.178 709.342 284.457 726.444 285.696 742.982C286.839 758.261 288.022 774.063 287.327 789.619C287.005 796.891 286.265 804.243 285.55 811.359C284.84 818.384 284.109 825.645 283.782 832.811C282.84 853.363 284.925 872.811 290.157 892.265L289.009 892.572L289.004 892.567Z" fill="black"/>
<path d="M308.086 892.164C306.711 882.158 310.19 872.051 319.028 860.352C322.73 855.453 326.985 850.905 331.099 846.504C334.826 842.521 338.673 838.401 342.088 834.055C350.724 823.047 354.687 812.416 353.866 802.455C353.64 799.711 353.03 796.946 352.441 794.277C351.802 791.376 351.137 788.37 350.951 785.338C350.457 777.387 353.232 769.526 355.684 762.586L356.807 762.984C354.395 769.813 351.666 777.558 352.139 785.268C352.32 788.209 352.975 791.165 353.605 794.025C354.204 796.735 354.823 799.534 355.05 802.36C355.891 812.628 351.847 823.54 343.019 834.79C339.575 839.182 335.707 843.316 331.966 847.32C327.871 851.701 323.636 856.228 319.975 861.073C311.339 872.504 307.934 882.334 309.264 892.008L308.086 892.169V892.164Z" fill="black"/>
<path d="M264.512 892.496C262.653 881.035 257.305 870.011 249.449 861.46C246.8 858.58 243.824 855.911 240.944 853.332C238.758 851.379 236.502 849.354 234.387 847.239C221.556 834.403 213.322 817.402 211.202 799.373C210.552 793.849 210.472 788.204 210.396 782.75C210.321 777.407 210.245 771.883 209.631 766.499C208.598 757.48 205.386 745.228 195.943 738.072L196.663 737.125C206.443 744.538 209.757 757.117 210.814 766.368C211.434 771.807 211.514 777.362 211.59 782.735C211.665 788.163 211.741 793.773 212.385 799.237C214.47 816.999 222.583 833.748 235.228 846.398C237.318 848.488 239.564 850.497 241.734 852.446C244.635 855.045 247.636 857.729 250.321 860.655C258.333 869.377 263.786 880.617 265.68 892.305L264.507 892.496H264.512Z" fill="black"/>
<path d="M531.681 423.552C531.983 423.673 532.315 423.643 532.587 423.477C533.932 422.671 535.845 421.442 537.668 419.997C537.729 419.917 537.804 419.851 537.9 419.806C539.426 418.572 540.866 417.202 541.813 415.792C544.069 412.428 547.483 402.251 547.297 392.627C547.297 392.597 547.297 392.562 547.297 392.532C547.231 389.555 546.824 386.635 545.922 383.986C543.656 377.323 534.214 367.111 522.913 362.216C518.255 360.201 511.432 358.378 505.363 361.128C498.978 364.029 494.531 368.682 492.517 374.594C490.261 381.206 491.036 388.996 494.733 397.285C494.4 394.576 494.118 391.816 494.033 389.062C493.962 386.69 494.038 383.94 495.176 381.548C496.228 379.328 498.61 377.147 501.471 377.233C503.43 377.298 505.358 378.421 506.773 380.31C507.962 381.896 508.642 383.774 509.296 385.723C510.168 388.327 510.938 391.011 511.688 393.604C512.419 396.132 513.169 398.751 514.01 401.274C514.277 402.064 515.344 402.417 516.13 402.236C516.951 402.049 517.726 401.44 518.436 400.433C519.006 399.622 519.434 398.726 519.887 397.784C520.239 397.054 520.602 396.293 521.035 395.578C522.299 393.504 524.051 392.26 525.839 392.174C527.738 392.083 529.671 393.262 531.127 395.407C533.237 398.519 533.806 402.447 532.612 405.655C531.696 408.123 529.702 410.051 527.385 410.958L531.061 422.863C531.157 423.175 531.389 423.422 531.696 423.537L531.681 423.552Z" fill="black"/>
<path d="M533.197 424.494C532.845 424.706 532.452 424.811 532.054 424.811C531.782 424.811 531.51 424.761 531.253 424.66C530.604 424.414 530.115 423.89 529.909 423.225L526.233 411.32C525.664 411.451 525.09 411.547 524.51 411.547C524.415 411.547 524.314 411.547 524.218 411.542C523.891 411.527 523.634 411.25 523.649 410.923C523.664 410.595 523.951 410.384 524.269 410.353C525.009 410.389 525.744 410.278 526.459 410.056C526.459 410.056 526.464 410.056 526.469 410.056C526.479 410.056 526.484 410.056 526.495 410.056C528.69 409.366 530.629 407.579 531.49 405.262C532.553 402.412 532.034 398.902 530.136 396.102C529.561 395.251 527.955 393.267 525.89 393.388C523.916 393.483 522.541 395.402 522.043 396.218C521.64 396.883 521.287 397.613 520.95 398.318C520.497 399.265 520.029 400.247 519.399 401.138C518.518 402.392 517.506 403.162 516.388 403.419C515.063 403.716 513.361 403.137 512.873 401.677C512.027 399.129 511.271 396.5 510.536 393.957C509.791 391.373 509.025 388.699 508.159 386.121C507.519 384.197 506.895 382.49 505.817 381.045C504.639 379.469 503.002 378.497 501.431 378.441C499.029 378.325 497.136 380.209 496.249 382.077C495.222 384.243 495.151 386.816 495.222 389.047C495.333 392.778 495.821 396.55 496.295 400.196L496.451 401.435C496.642 402.916 496.798 404.129 497.04 405.796C497.05 405.877 497.045 405.957 497.025 406.033C496.894 406.536 496.778 407.105 496.662 407.695C496.37 409.16 496.038 410.827 495.297 412.015C495.166 412.227 495.026 412.438 494.885 412.65C494.336 413.466 493.822 414.241 493.857 415.062C493.892 415.802 494.436 416.512 495.182 416.789C495.897 417.051 496.808 416.91 497.488 416.432C497.659 416.311 497.866 416.301 498.047 416.371C498.123 416.271 498.218 416.19 498.349 416.15C498.671 416.054 498.994 416.24 499.089 416.558C499.412 417.671 499.769 418.673 500.182 419.619C501.089 421.719 502.378 423.809 504.241 426.206C505.193 427.43 506.356 428.825 507.776 429.877C510.954 432.219 515.431 432.783 519.454 431.338C521.519 430.598 523.881 428.85 526.102 426.418C526.323 426.176 526.701 426.156 526.943 426.378C527.179 426.594 527.195 426.947 526.998 427.193C527.069 428.84 527.124 436.787 522.426 439.939L525.215 450.358C527.018 450.232 529.244 449.734 531.676 448.384C533.061 447.619 534.638 446.637 536.309 445.594C539.386 443.681 542.675 441.636 545.812 440.226L537.896 421.342C536.184 422.651 534.451 423.764 533.202 424.509L533.197 424.494ZM500.056 395.508C499.855 395.508 499.653 395.402 499.543 395.216C499.377 394.934 499.472 394.566 499.754 394.4C502.509 392.788 506.084 392.753 508.869 394.309C509.156 394.47 509.257 394.833 509.096 395.12C508.935 395.407 508.572 395.508 508.285 395.347C505.863 393.992 502.745 394.022 500.353 395.427C500.258 395.483 500.157 395.508 500.051 395.508H500.056ZM501.003 404.26C500.243 402.422 500.686 400.493 501.995 399.954C503.304 399.411 504.981 400.463 505.742 402.296C506.502 404.134 506.059 406.063 504.75 406.602C503.44 407.146 501.763 406.093 501.003 404.26ZM513.814 411.945C512.57 415.812 509.383 418.94 505.49 420.113C505.435 420.128 505.374 420.138 505.319 420.138C505.062 420.138 504.825 419.972 504.75 419.715C504.654 419.398 504.83 419.065 505.148 418.975C508.668 417.912 511.553 415.082 512.681 411.582C512.782 411.27 513.119 411.094 513.432 411.199C513.744 411.3 513.915 411.638 513.814 411.95V411.945ZM523.387 404.713C523.161 404.713 522.944 404.582 522.844 404.361C522.264 403.062 521.993 401.893 521.998 400.795C522.008 399.406 522.516 398.111 523.382 397.25C524.405 396.238 525.926 395.87 527.174 396.339C527.688 396.53 528.172 396.857 528.7 397.371C530.538 399.149 531.405 401.747 530.906 403.988C530.835 404.31 530.518 404.512 530.196 404.441C529.874 404.371 529.672 404.049 529.743 403.731C530.156 401.883 529.42 399.723 527.874 398.232C527.466 397.839 527.109 397.593 526.756 397.457C525.951 397.16 524.908 397.421 524.223 398.101C523.906 398.418 523.654 398.816 523.478 399.275C523.72 399.204 523.977 399.149 524.249 399.144C526.082 399.113 527.819 400.453 528.313 402.321C528.756 403.993 528.187 405.932 526.862 407.256C526.746 407.372 526.595 407.433 526.439 407.433C526.283 407.433 526.137 407.372 526.016 407.256C525.785 407.025 525.785 406.647 526.016 406.415C527.043 405.383 527.492 403.898 527.159 402.623C526.812 401.304 525.518 400.262 524.284 400.332C523.831 400.347 523.453 400.498 523.267 400.74C523.246 400.77 523.216 400.785 523.191 400.811C523.186 401.737 523.428 402.744 523.931 403.887C524.067 404.19 523.931 404.542 523.629 404.673C523.549 404.708 523.468 404.723 523.387 404.723V404.713Z" fill="#F5F0EA"/>
<path d="M584.541 362.87C584.541 376.074 576.67 387.455 565.37 392.592C562.953 393.176 560.43 393.473 557.846 393.473C554.644 393.473 551.486 392.995 548.455 392.078C548.369 389.127 547.941 386.242 547.049 383.613C544.511 376.17 534.974 366.813 525.234 361.989C525.224 361.606 525.209 361.213 525.209 360.836C525.209 347.657 533.045 336.296 544.31 331.139C546.737 330.545 549.285 330.233 551.904 330.233C569.907 330.233 584.541 344.877 584.541 362.87Z" fill="black"/>
<path d="M379.769 641.55C379.407 640.638 379.009 640.024 378.51 639.611C378.087 639.263 377.584 639.077 377.115 639.092C377.755 641.348 378.601 643.458 379.543 644.208C379.86 644.46 380.066 644.45 380.197 644.42C380.288 644.4 380.378 644.354 380.474 644.299C380.474 644.284 380.464 644.274 380.464 644.259C380.348 643.327 380.117 642.416 379.769 641.55Z" fill="#F5F0EA"/>
<path d="M407.704 626.784C407.492 626.457 407.301 626.251 407.095 626.14C406.979 626.079 406.858 626.064 406.752 626.069C406.677 629.005 406.903 631.453 407.583 632.203C407.86 632.505 408.182 632.707 408.53 632.812C408.887 630.204 408.631 628.22 407.709 626.789L407.704 626.784Z" fill="#F5F0EA"/>
<path d="M312.914 574.417L305.078 575.65L357.708 657.473L362.074 656.783L365.539 656.234L312.914 574.417Z" fill="#F5F0EA"/>
<path d="M552.197 923.608V955.611H565.703V742.277H552.197V904.215V923.608Z" fill="#F5F0EA"/>
<path d="M384.286 626.784C384.074 626.457 383.883 626.251 383.677 626.14C383.561 626.079 383.44 626.064 383.334 626.069C383.259 629.005 383.485 631.453 384.165 632.203C384.442 632.505 384.764 632.707 385.112 632.812C385.469 630.204 385.213 628.225 384.286 626.789V626.784Z" fill="#F5F0EA"/>
<path d="M460.102 741.088H572.774C579.044 741.088 584.15 735.987 584.15 729.712C584.15 723.438 579.049 718.336 572.774 718.336H441.268L459.991 741.108C460.031 741.103 460.066 741.083 460.107 741.083L460.102 741.088Z" fill="#F5F0EA"/>
<path d="M551.002 904.814H517.469V923.014H551.002V904.814Z" fill="#F5F0EA"/>
<path d="M516.281 864.593C513.028 867.357 508.198 871.426 502.76 875.908C502.76 875.928 502.77 875.944 502.77 875.959V955.616H516.281V864.593Z" fill="#F5F0EA"/>
<path d="M560.724 621.849C536.003 630.924 508.482 628.285 504.176 627.797C503.451 632.913 501.487 644.455 498.219 646.309C497.287 646.837 492.165 647.351 480.674 648.464C476.952 648.821 472.747 649.229 468.22 649.693L468.26 649.949C468.285 650.106 468.245 650.267 468.155 650.393C468.064 650.519 467.923 650.604 467.767 650.629L384.348 663.818C372.342 667.585 364.622 671.815 361.399 676.393C348.654 694.507 346.377 711.765 354.631 727.688C360.297 738.616 460.676 842.631 467.898 850.105L513.704 808.322L425.556 701.104C425.345 700.852 425.385 700.474 425.637 700.268C425.889 700.056 426.266 700.097 426.473 700.348L428.432 702.73C433.105 706.286 444.325 714.836 447.231 717.153H580.097C583.103 717.153 586.009 716.025 588.275 713.98C622.866 682.723 603.82 639.273 596.297 625.334C581.758 628.718 560.724 621.854 560.724 621.854V621.849Z" fill="#20E086"/>
<path d="M501.577 904.814H468.043V923.014H501.577V904.814Z" fill="#F5F0EA"/>
<path d="M516.282 742.277H502.771V792.525C502.771 792.686 502.705 792.832 502.6 792.943L514.978 808C515.179 808.241 515.154 808.604 514.917 808.816L506.155 816.807C510.022 819.27 513.376 821.869 516.272 824.462V742.272L516.282 742.277Z" fill="#F5F0EA"/>
<path d="M472.337 847.662L468.273 851.374C468.158 851.479 468.017 851.53 467.871 851.53C467.714 851.53 467.558 851.469 467.442 851.348C466.44 850.311 460.276 843.936 451.303 834.589L440.994 845.2L451.967 861.491C452.098 861.682 452.103 861.929 451.982 862.13C444.016 875.465 432.529 896.616 433.541 900.237C433.561 900.312 433.602 900.418 433.662 900.448C434.871 900.926 442.732 896.852 481.291 864.386C481.513 864.009 481.709 863.681 481.855 863.434L472.327 847.667L472.337 847.662Z" fill="black"/>
<path d="M464.669 903.198C464.477 903.198 464.321 903.167 464.195 903.102C463.953 902.976 463.636 902.709 463.48 902.16C463.002 900.453 464.563 896.127 466.955 890.94C466.894 890.85 466.849 890.744 466.849 890.623V877.953C461.556 882.294 457.1 885.869 453.338 888.81V955.621H466.849V902.533C465.922 902.956 465.167 903.203 464.664 903.203L464.669 903.198Z" fill="#F5F0EA"/>
<path d="M483.648 528.59C483.653 528.822 483.658 529.054 483.663 529.28C486.921 542.499 495.644 571.984 496.938 576.34C501.817 575.096 505.519 574.165 508.329 573.465C507.77 567.014 502.266 500.964 509.296 474.41C513.46 458.678 523.059 455.193 528.412 454.518C537.693 453.345 547.77 458.496 552.398 466.76C563.064 485.821 579.672 595.814 562.439 616.048C573.886 623.738 591.048 620.842 594.004 619.931C596.869 619.049 613.256 592.667 612.994 579.115C612.747 566.017 585.065 487.825 578.206 471.997C571.64 456.844 559.156 440.543 553.47 439.697C549.029 439.048 542.331 443.217 536.938 446.576C535.251 447.624 533.659 448.616 532.249 449.396C528.472 451.486 525.123 451.698 522.973 451.506C521.493 451.37 520.072 451.673 518.859 452.373C516.709 453.611 513.818 455.545 512.237 457.716C509.135 461.976 481.468 516.665 482.505 523.902C482.631 524.798 482.943 526.249 483.386 528.097C483.552 528.198 483.648 528.364 483.653 528.575L483.648 528.59Z" fill="black"/>
<path d="M460.947 742.277L466.854 749.468V742.277H460.947Z" fill="#F5F0EA"/>
<path d="M483.07 863.732C482.818 864.155 482.561 864.588 482.3 865.026C482.3 865.036 482.29 865.046 482.285 865.056C474.368 878.421 463.647 898.333 464.634 901.838C464.654 901.913 464.694 902.014 464.755 902.049C464.815 902.075 464.891 902.085 464.976 902.085C465.384 902.085 466.074 901.823 466.991 901.349C467.096 901.213 467.252 901.123 467.434 901.118C475.068 896.943 496.521 879.871 516.453 862.891C516.453 862.891 516.463 862.88 516.468 862.88C516.982 862.442 517.495 862.009 518.004 861.571L516.332 857.88L510.959 846.025C510.848 845.779 510.913 845.487 511.125 845.315C511.336 845.144 511.639 845.139 511.855 845.3L524.47 854.753L531.455 846.715C530.503 844.354 523.886 829.402 505.258 817.648L473.245 846.851L483.08 863.122C483.196 863.309 483.196 863.545 483.08 863.737L483.07 863.732Z" fill="black"/>
<path d="M497.627 645.271C499.133 644.42 500.432 640.497 501.42 636.217C494.999 636.262 447.762 636.836 405.431 644.4C404.963 645.024 404.444 645.457 403.865 645.583C403.754 645.608 403.628 645.624 403.492 645.624C403.135 645.624 402.692 645.513 402.218 645.14C402.102 645.049 401.997 644.934 401.886 644.818C401.72 646.223 401.357 647.87 401.292 648.162C401.055 649.214 400.808 650.035 400.566 650.7L466.138 640.331C466.451 640.28 466.768 640.502 466.818 640.824L468.032 648.509C472.589 648.046 476.814 647.638 480.556 647.275C489.298 646.429 496.847 645.699 497.633 645.271H497.627Z" fill="#20E086"/>
<path d="M398.593 653.323C398.437 653.369 398.276 653.389 398.115 653.389C397.631 653.389 397.118 653.202 396.584 652.83C396.483 652.759 396.387 652.664 396.287 652.583L358.029 658.631L359.283 666.573L466.98 649.541L465.726 641.6L399.983 651.994C399.364 653.102 398.835 653.258 398.593 653.323Z" fill="#F5F0EA"/>
<path d="M517.108 571.637C517.41 571.768 517.551 572.115 517.425 572.417C517.314 572.679 517.037 572.82 516.765 572.77C515.632 572.8 504.573 575.62 491.787 578.883C479.505 582.016 464.216 585.918 450.372 589.242C444.712 590.602 438.307 591.256 432.661 591.841C425.938 592.531 420.132 593.125 417.775 594.646C400.653 605.699 392.193 621.154 391.901 641.897C391.886 643.72 392.103 645.553 392.4 646.364C392.4 646.374 392.41 646.379 392.41 646.389C392.475 646.565 392.546 646.706 392.616 646.767C392.616 646.757 392.646 646.736 392.672 646.716C392.536 646.238 392.425 645.775 392.39 645.352C392.228 643.559 392.928 636.146 393.543 630.249C393.578 629.922 393.87 629.685 394.197 629.72C394.525 629.756 394.761 630.048 394.726 630.375C393.865 638.644 393.457 643.926 393.573 645.251C393.578 645.326 393.603 645.412 393.613 645.493C393.749 645.407 393.9 645.336 394.062 645.286C394.52 645.15 395.054 645.175 395.592 645.367C396.343 645.634 397.038 646.183 397.607 646.953C398.09 647.608 398.428 648.328 398.755 649.023L399.41 650.408C400.246 648.116 400.86 644.324 400.805 643.398C400.789 643.337 400.794 643.272 400.799 643.206C399.107 639.903 398.12 634.112 398.105 632.495C398.105 632.349 399.102 617.357 399.888 616.884C400.069 616.778 400.301 616.773 400.487 616.874C400.769 617.03 400.88 617.382 400.729 617.669C400.482 618.767 399.269 630.143 399.294 632.48C399.304 633.442 399.651 635.663 400.22 637.934C401.046 637.833 401.958 638.095 402.678 638.689C403.338 639.238 403.846 640.004 404.284 641.106C404.541 641.761 404.722 642.441 404.863 643.126C406.027 641.046 407.014 636.891 407.492 633.633C407.205 633.467 406.928 633.266 406.686 632.999C404.33 630.405 406.047 615.559 407.996 612.347C410.086 608.897 417.352 608.378 417.66 608.358C417.992 608.313 418.269 608.585 418.294 608.912C418.314 609.239 418.067 609.521 417.74 609.547C417.67 609.547 410.786 610.04 409.018 612.961C407.95 614.718 407.034 620.177 406.792 624.871C407.084 624.871 407.386 624.946 407.658 625.092C408.167 625.369 408.494 625.823 408.696 626.14C409.753 627.781 410.086 629.957 409.728 632.762C410.69 632.435 413.716 630.642 414.814 621.074C414.839 620.867 414.97 620.686 415.162 620.6C415.348 620.515 415.57 620.535 415.746 620.651C415.973 620.807 438.755 636.206 456.516 617.876C456.748 617.639 457.126 617.634 457.357 617.861C457.594 618.087 457.599 618.465 457.372 618.702C456.657 619.442 455.932 620.107 455.202 620.741C465.047 621.824 541.204 629.7 559.781 616.899C568.297 611.032 570.976 584.639 567.129 544.488C564.007 511.911 556.931 477.3 551.351 467.339C547.026 459.604 537.236 454.593 528.554 455.696C519.827 456.799 513.391 463.552 510.44 474.712C504.916 495.575 507.202 541.175 508.673 562.477L516.398 571.627C516.79 571.576 516.992 571.586 517.098 571.632L517.108 571.637Z" fill="#F5F0EA"/>
<path d="M397.686 649.521C397.384 648.877 397.072 648.212 396.654 647.653C396.357 647.245 395.858 646.716 395.194 646.48C394.982 646.404 394.675 646.334 394.403 646.419C394.207 646.48 394.05 646.626 394.015 646.777C394.005 646.817 393.985 646.852 393.965 646.888C394.524 648.489 395.581 650.267 396.634 651.314L398.391 651.037L397.681 649.521H397.686Z" fill="#F5F0EA"/>
<path d="M403.18 641.55C402.818 640.638 402.42 640.024 401.921 639.611C401.498 639.258 400.995 639.082 400.531 639.092C401.171 641.353 402.017 643.463 402.959 644.208C403.276 644.46 403.482 644.45 403.608 644.42C403.699 644.4 403.795 644.355 403.885 644.299C403.885 644.284 403.875 644.274 403.87 644.259C403.754 643.332 403.523 642.421 403.18 641.55Z" fill="#F5F0EA"/>
<path d="M370.13 630.244C370.165 629.917 370.462 629.68 370.784 629.715C371.112 629.751 371.348 630.043 371.313 630.37C370.452 638.629 370.044 643.911 370.16 645.246C370.165 645.322 370.19 645.407 370.2 645.488C370.336 645.402 370.487 645.332 370.648 645.281C371.107 645.145 371.64 645.17 372.179 645.362C372.93 645.629 373.625 646.178 374.199 646.948C374.687 647.608 375.035 648.358 375.347 649.018L375.901 650.201C375.956 650.101 376.042 650.025 376.148 649.97C376.908 647.658 377.442 644.264 377.391 643.393C377.376 643.332 377.381 643.267 377.386 643.206C375.694 639.903 374.707 634.112 374.692 632.495C374.692 632.349 375.689 617.352 376.475 616.884C376.656 616.773 376.888 616.773 377.074 616.874C377.356 617.03 377.462 617.383 377.316 617.67C377.069 618.772 375.855 630.143 375.886 632.48C375.896 633.442 376.243 635.658 376.812 637.934C377.643 637.828 378.54 638.085 379.275 638.689C379.935 639.238 380.443 640.004 380.881 641.107C381.138 641.761 381.319 642.436 381.46 643.126C382.624 641.046 383.611 636.891 384.094 633.633C383.807 633.467 383.53 633.266 383.288 632.999C380.932 630.405 382.649 615.56 384.598 612.347C386.688 608.897 393.954 608.378 394.262 608.358C394.619 608.313 394.871 608.585 394.896 608.912C394.916 609.24 394.669 609.522 394.342 609.547C394.272 609.547 387.388 610.04 385.62 612.961C384.552 614.719 383.636 620.177 383.394 624.871C383.686 624.871 383.988 624.946 384.26 625.092C384.769 625.369 385.096 625.823 385.298 626.14C386.355 627.782 386.688 629.957 386.33 632.762C387.292 632.435 390.318 630.642 391.416 621.074C391.441 620.867 391.572 620.686 391.764 620.6C391.955 620.515 392.177 620.535 392.348 620.651C392.353 620.651 392.987 621.089 394.095 621.718C398.114 610.287 405.728 601.001 417.129 593.644C419.728 591.967 425.665 591.357 432.544 590.652C438.154 590.078 444.514 589.424 450.099 588.084C463.933 584.765 479.216 580.863 491.499 577.73C493.02 577.342 494.445 576.98 495.789 576.637C494.571 572.528 487.662 549.197 483.824 534.679C484.444 553.483 485.788 569.708 486.09 573.178C491.977 571.728 493.357 571.486 493.7 571.642C494.002 571.768 494.143 572.12 494.017 572.422C493.906 572.684 493.624 572.825 493.357 572.775C492.224 572.805 481.16 575.625 468.369 578.894C456.087 582.026 440.803 585.924 426.969 589.247C421.304 590.607 414.903 591.262 409.253 591.846C402.53 592.536 396.724 593.13 394.367 594.651C377.245 605.704 368.785 621.159 368.493 641.902C368.473 644.153 368.81 646.445 369.208 646.772C369.208 646.762 369.238 646.742 369.264 646.721C369.128 646.243 369.017 645.78 368.982 645.357C368.82 643.554 369.52 636.146 370.135 630.254L370.13 630.244Z" fill="#F5F0EA"/>
<path d="M373.242 647.658C372.945 647.25 372.447 646.721 371.782 646.485C371.571 646.409 371.263 646.344 370.991 646.424C370.8 646.485 370.639 646.631 370.609 646.777C370.599 646.817 370.573 646.852 370.558 646.893C371.228 648.811 372.623 650.997 373.852 651.853C374.134 652.049 374.542 652.271 374.869 652.175C375.025 652.13 375.181 651.989 375.337 651.782L374.275 649.526C373.973 648.887 373.665 648.222 373.247 647.658H373.242Z" fill="#F5F0EA"/>
<path d="M512.992 847.632L516.281 854.884V850.094L512.992 847.632Z" fill="#F5F0EA"/>
<path d="M360.418 675.698C363.162 671.8 368.923 668.169 377.585 664.881L358.887 667.837C358.857 667.837 358.826 667.842 358.791 667.842C358.504 667.842 358.252 667.63 358.202 667.338L356.807 658.515C346.861 663.34 340.108 668.899 336.744 675.048C336.628 675.28 324.22 700.877 332.066 715.33C339.761 729.501 430.094 838.995 437.109 847.486L450.474 833.728C419.775 801.745 358.101 736.979 353.564 728.232C345.089 711.88 347.39 694.204 360.413 675.698H360.418Z" fill="#20E086"/>
<path d="M393.064 647.839C392.888 647.915 392.727 647.955 392.581 647.955C392.435 647.955 392.304 647.925 392.193 647.88C391.911 647.769 391.684 647.527 391.498 647.2C386.366 648.358 381.522 649.607 377.07 650.921C376.254 653.026 375.484 653.238 375.182 653.323C375.026 653.369 374.864 653.389 374.703 653.389C374.22 653.389 373.706 653.203 373.172 652.83C372.946 652.674 372.719 652.477 372.493 652.261C372.427 652.326 372.357 652.377 372.266 652.407C370.06 653.127 367.94 653.877 365.926 654.638L366.822 656.033L395.24 651.541C394.378 650.513 393.598 649.169 393.064 647.844V647.839Z" fill="#F5F0EA"/>
<path d="M508.97 573.923L508.023 561.701L516.876 572.186L508.97 573.923Z" fill="black"/>
<path d="M426.371 701.164C426.371 701.164 448.191 717.747 447.93 717.747H440.054L426.371 701.164Z" fill="black"/>
<path d="M503.576 627.721C503.576 627.721 533.817 631.72 560.723 621.844C560.723 621.844 582.367 628.915 596.921 625.183L594.181 620.505C594.181 620.505 578.132 626.336 561.554 616.174C561.554 616.174 550.641 627.782 503.576 624.634V627.721Z" fill="black"/>
<path d="M392.588 647.955C392.442 647.955 392.311 647.925 392.2 647.88C390.86 647.361 390.694 643.896 390.714 641.877C391.011 620.706 399.653 604.929 417.132 593.643C419.731 591.967 425.668 591.357 432.547 590.652C438.157 590.078 444.517 589.423 450.102 588.084C463.931 584.765 479.204 580.868 491.482 577.735C513.191 572.196 516.55 571.4 517.114 571.642C517.416 571.773 517.557 572.12 517.426 572.422C517.316 572.684 517.029 572.825 516.767 572.775C515.634 572.805 504.565 575.625 491.769 578.893C479.491 582.026 464.208 585.924 450.374 589.247C444.714 590.607 438.308 591.262 432.663 591.841C425.94 592.531 420.129 593.125 417.772 594.651C400.65 605.704 392.19 621.159 391.898 641.902C391.878 644.153 392.215 646.444 392.618 646.772C392.628 646.747 392.724 646.691 392.88 646.515C393.101 646.268 393.479 646.253 393.721 646.47C393.967 646.691 393.988 647.064 393.766 647.311C393.313 647.814 392.905 647.965 392.583 647.965L392.588 647.955Z" fill="black"/>
<path d="M409.056 634.076C408.174 634.076 407.338 633.704 406.699 633.004C404.342 630.41 406.059 615.565 408.008 612.347C410.098 608.897 417.365 608.383 417.672 608.358C417.999 608.343 418.286 608.585 418.306 608.912C418.327 609.24 418.08 609.521 417.753 609.547C417.682 609.547 410.798 610.04 409.03 612.961C407.182 616.013 405.767 630.199 407.585 632.198C408.159 632.827 408.91 633.034 409.705 632.777C410.627 632.48 413.719 630.758 414.832 621.074C414.857 620.867 414.988 620.686 415.179 620.6C415.366 620.515 415.592 620.535 415.763 620.651C415.99 620.807 438.772 636.201 456.534 617.871C456.765 617.634 457.143 617.629 457.375 617.856C457.611 618.082 457.616 618.46 457.39 618.697C440.862 635.753 420.22 624.755 415.904 622.141C414.645 631.448 411.433 633.472 410.078 633.905C409.74 634.016 409.398 634.066 409.066 634.066L409.056 634.076Z" fill="black"/>
<path d="M403.495 645.624C403.137 645.624 402.694 645.513 402.22 645.14C399.672 643.116 398.131 634.525 398.111 632.5C398.111 632.354 399.108 617.362 399.894 616.889C400.075 616.778 400.307 616.773 400.493 616.879C400.775 617.035 400.881 617.388 400.735 617.675C400.488 618.778 399.274 630.154 399.305 632.49C399.325 634.575 400.921 642.587 402.966 644.214C403.283 644.465 403.49 644.455 403.62 644.43C405.338 644.052 406.964 637.657 407.569 633.235C407.614 632.908 407.911 632.682 408.238 632.727C408.566 632.772 408.792 633.069 408.747 633.397C408.485 635.31 407.02 644.899 403.877 645.593C403.766 645.619 403.641 645.634 403.505 645.634L403.495 645.624Z" fill="black"/>
<path d="M398.118 653.384C397.635 653.384 397.121 653.198 396.587 652.825C394.689 651.505 392.609 647.799 392.392 645.347C392.231 643.554 392.931 636.141 393.546 630.244C393.581 629.917 393.878 629.675 394.2 629.715C394.528 629.751 394.764 630.043 394.729 630.37C393.868 638.639 393.46 643.921 393.576 645.246C393.762 647.341 395.656 650.735 397.262 651.853C397.544 652.049 397.957 652.266 398.279 652.175C399.619 651.808 400.883 644.707 400.807 643.398C400.752 643.211 400.792 643 400.928 642.844C401.145 642.597 401.517 642.567 401.769 642.783C402.369 643.307 401.387 647.703 401.276 648.202C400.208 652.88 398.994 653.213 398.592 653.323C398.436 653.369 398.274 653.389 398.108 653.389L398.118 653.384Z" fill="black"/>
<path d="M512.834 625.39C485.031 625.39 456.07 622.051 454.025 621.809C453.698 621.769 453.466 621.477 453.501 621.149C453.542 620.822 453.834 620.59 454.161 620.626C455.017 620.726 540.022 630.521 559.788 616.904C568.304 611.037 570.983 584.644 567.135 544.494C564.013 511.917 556.938 477.31 551.363 467.344C547.037 459.609 537.237 454.604 528.566 455.701C519.839 456.804 513.403 463.557 510.452 474.717C503.15 502.303 509.5 573.153 509.565 573.868C509.596 574.195 509.354 574.482 509.027 574.512C508.699 574.548 508.407 574.301 508.377 573.973C508.311 573.258 501.941 502.202 509.299 474.41C513.463 458.678 523.062 455.193 528.415 454.518C537.691 453.34 547.772 458.496 552.4 466.76C563.449 486.506 580.873 603.821 560.463 617.881C552.063 623.672 532.74 625.384 512.829 625.384L512.834 625.39Z" fill="black"/>
<path d="M409.094 633.734C409.064 633.734 409.034 633.734 409.004 633.729C408.681 633.679 408.455 633.376 408.505 633.049C408.918 630.315 408.656 628.265 407.704 626.785C407.493 626.457 407.301 626.251 407.095 626.14C406.914 626.039 406.697 626.029 406.576 626.105C406.299 626.286 405.932 626.215 405.75 625.938C405.569 625.667 405.64 625.294 405.917 625.113C406.41 624.785 407.095 624.78 407.669 625.087C408.178 625.364 408.505 625.818 408.706 626.135C409.819 627.867 410.142 630.189 409.683 633.22C409.638 633.517 409.386 633.729 409.094 633.729V633.734Z" fill="black"/>
<path d="M404.468 644.783C404.171 644.783 403.914 644.561 403.879 644.259C403.763 643.332 403.531 642.421 403.189 641.55C402.826 640.638 402.428 640.024 401.93 639.611C401.356 639.137 400.625 638.966 400.061 639.178C399.759 639.294 399.412 639.137 399.296 638.83C399.18 638.523 399.336 638.181 399.643 638.065C400.615 637.697 401.784 637.944 402.69 638.699C403.35 639.248 403.858 640.014 404.297 641.117C404.679 642.078 404.936 643.086 405.062 644.118C405.102 644.445 404.871 644.742 404.543 644.783C404.518 644.783 404.493 644.783 404.468 644.783Z" fill="black"/>
<path d="M399.306 652.155C399.084 652.155 398.867 652.029 398.767 651.813L397.689 649.521C397.372 648.847 397.07 648.212 396.662 647.653C396.365 647.25 395.866 646.716 395.201 646.48C394.99 646.404 394.683 646.334 394.411 646.414C394.214 646.475 394.058 646.621 394.023 646.772C393.952 647.094 393.645 647.301 393.313 647.23C392.991 647.16 392.789 646.842 392.86 646.52C392.986 645.946 393.459 645.457 394.068 645.276C394.527 645.135 395.06 645.165 395.599 645.357C396.349 645.624 397.044 646.173 397.619 646.943C398.097 647.593 398.439 648.313 398.767 649.008L399.844 651.299C399.985 651.596 399.854 651.954 399.557 652.09C399.477 652.13 399.391 652.145 399.306 652.145V652.155Z" fill="black"/>
<path d="M369.17 647.955C369.023 647.955 368.893 647.925 368.782 647.88C367.442 647.361 367.276 643.896 367.296 641.877C367.593 620.706 376.235 604.929 393.714 593.644C396.313 591.967 402.25 591.357 409.129 590.652C414.739 590.078 421.099 589.423 426.684 588.084C440.507 584.765 455.781 580.868 468.054 577.735C489.773 572.196 493.127 571.395 493.696 571.637C493.998 571.768 494.139 572.115 494.008 572.417C493.898 572.679 493.611 572.82 493.349 572.77C492.211 572.8 481.142 575.625 468.346 578.888C456.068 582.021 440.789 585.919 426.961 589.237C421.301 590.597 414.895 591.251 409.25 591.831C402.527 592.521 396.721 593.115 394.364 594.641C377.242 605.694 368.782 621.149 368.49 641.892C368.47 644.143 368.807 646.434 369.205 646.762C369.215 646.737 369.311 646.681 369.467 646.505C369.688 646.258 370.066 646.243 370.308 646.46C370.554 646.681 370.575 647.054 370.353 647.301C369.9 647.804 369.497 647.955 369.17 647.955Z" fill="black"/>
<path d="M385.642 634.076C384.76 634.076 383.924 633.704 383.285 633.004C380.928 630.41 382.645 615.565 384.594 612.347C386.684 608.897 393.951 608.383 394.258 608.358C394.585 608.343 394.872 608.585 394.893 608.912C394.913 609.24 394.666 609.522 394.339 609.547C394.268 609.547 387.384 610.04 385.617 612.961C383.768 616.013 382.353 630.199 384.171 632.198C384.74 632.828 385.496 633.034 386.291 632.777C387.213 632.48 390.305 630.758 391.418 621.074C391.443 620.867 391.574 620.686 391.765 620.6C391.952 620.515 392.178 620.535 392.349 620.651C392.36 620.656 393.226 621.25 394.721 622.066C395.008 622.222 395.119 622.585 394.963 622.872C394.807 623.159 394.439 623.264 394.157 623.113C393.462 622.736 392.903 622.408 392.49 622.152C391.231 631.458 388.019 633.477 386.664 633.91C386.327 634.016 385.984 634.071 385.652 634.071L385.642 634.076Z" fill="black"/>
<path d="M380.082 645.624C379.725 645.624 379.282 645.513 378.808 645.14C376.26 643.121 374.719 634.525 374.699 632.5C374.699 632.354 375.696 617.362 376.482 616.889C376.663 616.778 376.895 616.778 377.081 616.879C377.368 617.035 377.474 617.388 377.323 617.675C377.066 618.793 375.862 630.033 375.892 632.485C375.918 634.57 377.509 642.587 379.554 644.209C379.871 644.46 380.077 644.45 380.203 644.42C381.92 644.037 383.547 637.647 384.151 633.225C384.197 632.898 384.494 632.671 384.821 632.717C385.148 632.762 385.375 633.059 385.33 633.386C385.068 635.3 383.602 644.888 380.455 645.583C380.344 645.609 380.218 645.624 380.082 645.624Z" fill="black"/>
<path d="M374.704 653.384C374.221 653.384 373.707 653.198 373.173 652.825C371.275 651.505 369.195 647.799 368.978 645.347C368.817 643.554 369.517 636.141 370.132 630.244C370.167 629.917 370.454 629.675 370.786 629.715C371.114 629.751 371.35 630.043 371.315 630.37C370.454 638.639 370.046 643.921 370.162 645.246C370.348 647.341 372.242 650.735 373.848 651.853C374.13 652.049 374.538 652.266 374.865 652.175C376.21 651.808 377.474 644.707 377.393 643.398C377.338 643.211 377.378 643 377.514 642.844C377.731 642.592 378.108 642.567 378.355 642.783C378.954 643.302 377.988 647.663 377.872 648.157C376.804 652.875 375.58 653.213 375.178 653.323C375.021 653.364 374.86 653.389 374.699 653.389L374.704 653.384Z" fill="black"/>
<path d="M485.554 574.517C485.252 574.517 484.99 574.286 484.96 573.979C484.94 573.767 483.001 552.309 482.457 528.621C482.452 528.293 482.709 528.021 483.036 528.011C483.414 528.026 483.636 528.263 483.646 528.59C484.189 552.239 486.123 573.656 486.143 573.868C486.174 574.195 485.932 574.482 485.605 574.512C485.584 574.512 485.569 574.512 485.549 574.512L485.554 574.517Z" fill="black"/>
<path d="M385.676 633.734C385.646 633.734 385.616 633.734 385.586 633.729C385.263 633.679 385.037 633.376 385.087 633.049C385.5 630.315 385.238 628.265 384.286 626.785C384.075 626.457 383.884 626.251 383.677 626.14C383.496 626.039 383.279 626.029 383.158 626.105C382.881 626.286 382.514 626.215 382.333 625.938C382.151 625.667 382.222 625.294 382.499 625.113C382.992 624.785 383.677 624.78 384.251 625.087C384.76 625.364 385.087 625.818 385.289 626.135C386.402 627.867 386.724 630.184 386.261 633.22C386.215 633.517 385.963 633.729 385.671 633.729L385.676 633.734Z" fill="black"/>
<path d="M381.049 644.783C380.752 644.783 380.495 644.561 380.46 644.259C380.344 643.332 380.112 642.421 379.77 641.55C379.407 640.638 379.01 640.024 378.511 639.611C377.937 639.132 377.202 638.966 376.638 639.178C376.336 639.294 375.988 639.137 375.872 638.83C375.756 638.523 375.913 638.181 376.22 638.065C377.172 637.707 378.37 637.954 379.266 638.699C379.926 639.248 380.435 640.014 380.873 641.117C381.256 642.083 381.512 643.091 381.638 644.118C381.679 644.445 381.447 644.742 381.12 644.783C381.094 644.783 381.069 644.783 381.044 644.783H381.049Z" fill="black"/>
<path d="M375.888 652.155C375.666 652.155 375.45 652.029 375.349 651.813L374.271 649.521C373.969 648.882 373.657 648.217 373.244 647.658C372.947 647.255 372.448 646.721 371.783 646.485C371.577 646.409 371.265 646.339 370.993 646.419C370.801 646.475 370.64 646.626 370.605 646.777C370.535 647.099 370.232 647.306 369.895 647.235C369.573 647.165 369.371 646.847 369.442 646.525C369.568 645.951 370.041 645.462 370.65 645.281C371.109 645.145 371.642 645.17 372.186 645.362C372.937 645.629 373.632 646.177 374.201 646.948C374.684 647.603 375.022 648.323 375.349 649.018L376.427 651.309C376.568 651.606 376.442 651.964 376.139 652.1C376.059 652.14 375.973 652.155 375.888 652.155Z" fill="black"/>
<path d="M514.918 433.297C512.058 433.297 509.278 432.451 507.062 430.814C505.521 429.676 504.293 428.206 503.291 426.916C501.372 424.444 500.032 422.268 499.081 420.073C498.652 419.086 498.28 418.038 497.937 416.865C497.847 416.548 498.028 416.22 498.345 416.125C498.663 416.029 498.99 416.215 499.086 416.527C499.413 417.65 499.77 418.653 500.178 419.594C501.09 421.694 502.379 423.789 504.237 426.181C505.189 427.405 506.352 428.8 507.772 429.852C510.95 432.199 515.422 432.758 519.451 431.313C521.515 430.572 523.877 428.825 526.098 426.393C526.319 426.151 526.697 426.131 526.939 426.352C527.181 426.574 527.201 426.952 526.979 427.193C524.632 429.767 522.099 431.63 519.853 432.431C518.247 433.01 516.57 433.292 514.918 433.292V433.297Z" fill="black"/>
<path d="M524.511 411.542C524.415 411.542 524.314 411.542 524.219 411.537C523.891 411.522 523.634 411.245 523.65 410.918C523.665 410.59 523.957 410.333 524.269 410.349C527.306 410.484 530.342 408.329 531.485 405.252C532.548 402.397 532.029 398.887 530.131 396.087C529.552 395.236 527.98 393.267 525.885 393.373C523.911 393.468 522.537 395.387 522.038 396.203C521.63 396.868 521.283 397.603 520.94 398.308C520.487 399.255 520.019 400.231 519.389 401.123C518.508 402.377 517.496 403.147 516.378 403.404C515.063 403.706 513.351 403.122 512.863 401.657C512.012 399.103 511.256 396.47 510.521 393.922C509.781 391.343 509.01 388.674 508.149 386.106C507.505 384.182 506.885 382.475 505.808 381.025C504.629 379.448 502.987 378.477 501.421 378.421C499.08 378.381 497.126 380.189 496.239 382.057C495.217 384.212 495.142 386.68 495.212 389.027C495.323 392.758 495.811 396.53 496.285 400.176L496.431 401.329C496.627 402.85 496.783 404.079 497.03 405.776C497.075 406.103 496.854 406.405 496.526 406.451C496.204 406.496 495.897 406.274 495.852 405.947C495.605 404.24 495.444 403.006 495.247 401.48L495.101 400.327C494.628 396.651 494.134 392.854 494.019 389.062C493.948 386.69 494.029 383.94 495.162 381.548C496.214 379.328 498.606 377.132 501.457 377.233C503.415 377.298 505.344 378.421 506.759 380.31C507.943 381.896 508.628 383.774 509.277 385.723C510.143 388.317 510.919 390.996 511.664 393.589C512.394 396.127 513.15 398.746 513.991 401.279C514.253 402.07 515.32 402.422 516.106 402.241C517.133 402.004 517.924 401.133 518.412 400.438C518.981 399.627 519.409 398.736 519.863 397.789C520.215 397.054 520.578 396.298 521.016 395.583C522.28 393.509 524.027 392.27 525.82 392.179C527.708 392.073 529.647 393.267 531.108 395.412C533.218 398.524 533.787 402.452 532.593 405.66C531.309 409.105 527.94 411.537 524.501 411.537L524.511 411.542Z" fill="black"/>
<path d="M524.765 451.567C524.503 451.567 524.261 451.391 524.19 451.124L519.079 432.033C518.993 431.716 519.185 431.388 519.502 431.303C519.814 431.217 520.147 431.408 520.232 431.726L525.344 450.817C525.429 451.134 525.238 451.461 524.921 451.547C524.87 451.562 524.82 451.567 524.77 451.567H524.765Z" fill="black"/>
<path d="M546.482 440.866C546.25 440.866 546.028 440.73 545.933 440.503L537.583 420.586C537.457 420.284 537.598 419.932 537.9 419.806C538.203 419.675 538.555 419.821 538.681 420.123L547.03 440.04C547.156 440.342 547.015 440.695 546.713 440.82C546.638 440.851 546.562 440.866 546.482 440.866Z" fill="black"/>
<path d="M582.458 622.474C575.761 622.474 567.618 621.23 561.207 616.662C560.94 616.471 560.875 616.098 561.066 615.831C561.257 615.565 561.63 615.504 561.897 615.69C573.333 623.844 590.999 620.862 594.001 619.936C596.866 619.054 613.253 592.672 612.991 579.125C612.744 566.027 585.062 487.835 578.203 472.007C571.636 456.855 559.152 440.553 553.467 439.707C549.025 439.048 542.328 443.228 536.934 446.586C535.247 447.634 533.656 448.626 532.246 449.407C528.464 451.496 525.11 451.708 522.97 451.511C521.494 451.381 520.069 451.678 518.856 452.378C516.705 453.616 513.815 455.55 512.233 457.726C509.131 461.986 481.469 516.675 482.502 523.912C483.569 531.365 496.965 576.426 497.101 576.879C497.191 577.196 497.015 577.524 496.698 577.619C496.375 577.715 496.048 577.534 495.957 577.217C495.404 575.358 482.401 531.617 481.323 524.078C480.155 515.895 509.292 459.745 511.272 457.026C512.974 454.684 516.015 452.645 518.261 451.35C519.686 450.53 521.353 450.177 523.076 450.328C525.055 450.504 528.152 450.308 531.667 448.364C533.052 447.599 534.628 446.617 536.3 445.574C542.151 441.928 548.779 437.804 553.638 438.524C559.878 439.456 572.346 455.495 579.296 471.529C586.356 487.825 613.922 565.528 614.184 579.095C614.446 592.767 598.014 619.941 594.353 621.069C592.651 621.592 588.058 622.464 582.453 622.464L582.458 622.474Z" fill="black"/>
<path d="M532.06 424.811C531.788 424.811 531.516 424.761 531.254 424.66C530.604 424.408 530.116 423.885 529.909 423.22L526.072 410.786C525.976 410.474 526.152 410.137 526.465 410.041C526.777 409.946 527.114 410.122 527.21 410.434L531.047 422.868C531.143 423.18 531.375 423.426 531.682 423.542C531.984 423.658 532.316 423.628 532.588 423.467C535.126 421.951 539.699 418.935 541.809 415.787C544.77 411.371 549.74 395.221 545.913 383.981C543.647 377.318 534.205 367.1 522.899 362.211C518.241 360.196 511.413 358.373 505.349 361.123C498.964 364.024 494.517 368.677 492.503 374.589C489.955 382.052 491.264 391.016 496.29 400.508C496.446 400.8 496.335 401.158 496.043 401.314C495.751 401.47 495.388 401.359 495.237 401.067C490.055 391.278 488.716 381.991 491.375 374.206C493.5 367.977 498.163 363.077 504.856 360.04C509.972 357.719 516.378 358.091 523.373 361.118C533.731 365.6 544.347 375.687 547.041 383.598C550.989 395.206 545.853 411.884 542.796 416.447C540.555 419.791 535.821 422.918 533.198 424.489C532.845 424.701 532.452 424.806 532.055 424.806L532.06 424.811Z" fill="black"/>
<path d="M557.843 394.657C554.384 394.657 550.969 394.138 547.696 393.111C547.384 393.01 547.208 392.678 547.308 392.365C547.404 392.053 547.747 391.877 548.054 391.978C551.211 392.97 554.505 393.468 557.843 393.468C575.842 393.468 590.481 378.829 590.481 360.831C590.481 342.833 575.842 328.193 557.843 328.193C539.845 328.193 525.206 342.833 525.206 360.831C525.206 361.329 525.216 361.828 525.241 362.321C525.256 362.649 525 362.926 524.672 362.941C524.34 362.961 524.068 362.699 524.053 362.372C524.033 361.858 524.018 361.345 524.018 360.826C524.018 342.173 539.191 327 557.843 327C576.496 327 591.669 342.173 591.669 360.826C591.669 379.479 576.496 394.652 557.843 394.652V394.657Z" fill="black"/>
<path d="M358.797 667.847C358.671 667.847 358.55 667.807 358.45 667.731C358.324 667.64 358.238 667.499 358.213 667.343L356.773 658.223C356.722 657.896 356.944 657.594 357.266 657.544L466.141 640.331C466.298 640.306 466.454 640.346 466.585 640.437C466.711 640.527 466.796 640.668 466.821 640.825L468.262 649.944C468.312 650.272 468.09 650.574 467.768 650.624L358.893 667.837C358.863 667.842 358.832 667.842 358.802 667.842L358.797 667.847ZM358.037 658.626L359.291 666.568L466.988 649.542L465.734 641.6L358.037 658.631V658.626Z" fill="black"/>
<path d="M357.417 658.717C357.216 658.717 357.029 658.616 356.914 658.445L303.584 575.53C303.478 575.358 303.458 575.147 303.544 574.966C303.624 574.784 303.795 574.653 303.992 574.623L313.112 573.183C313.348 573.148 313.58 573.253 313.706 573.45L367.036 656.365C367.141 656.536 367.162 656.748 367.076 656.929C366.995 657.11 366.824 657.241 366.628 657.272L357.508 658.712C357.478 658.717 357.447 658.717 357.417 658.717ZM305.08 575.655L357.704 657.473L365.54 656.234L312.915 574.417L305.08 575.655Z" fill="black"/>
<path d="M580.097 718.341H440.055C439.728 718.341 439.461 718.075 439.461 717.747C439.461 717.42 439.728 717.153 440.055 717.153H580.097C583.104 717.153 586.009 716.025 588.275 713.98C609.94 694.401 610.277 670.158 606.742 653.268C602.899 634.892 593.78 620.978 593.684 620.842C593.503 620.565 593.578 620.198 593.85 620.016C594.122 619.835 594.49 619.911 594.676 620.182C594.767 620.323 603.997 634.399 607.895 652.986C611.501 670.194 611.163 694.894 589.071 714.862C586.588 717.108 583.401 718.341 580.097 718.341Z" fill="black"/>
<path d="M467.868 851.525C467.712 851.525 467.556 851.464 467.44 851.343C463.033 846.791 359.496 739.663 353.569 728.227C345.094 711.875 347.395 694.205 360.418 675.698C363.797 670.899 371.738 666.512 384.026 662.66C384.343 662.564 384.675 662.736 384.771 663.048C384.867 663.36 384.696 663.697 384.378 663.793C372.348 667.565 364.613 671.8 361.39 676.378C348.644 694.492 346.368 711.749 354.621 727.673C360.287 738.601 460.667 842.611 467.888 850.089L513.694 808.307L425.546 701.089C425.335 700.837 425.375 700.459 425.627 700.253C425.879 700.041 426.257 700.081 426.463 700.333L514.968 807.99C515.17 808.236 515.144 808.594 514.908 808.806L468.261 851.359C468.145 851.464 468.004 851.515 467.858 851.515L467.868 851.525Z" fill="black"/>
<path d="M467.53 649.753C467.228 649.753 466.971 649.526 466.941 649.219C466.906 648.892 467.148 648.6 467.475 648.565C472.254 648.076 476.665 647.653 480.568 647.275C489.305 646.429 496.854 645.699 497.635 645.271C500.56 643.614 502.711 630.36 503.295 625.395C503.335 625.067 503.627 624.836 503.955 624.871C504.282 624.911 504.514 625.203 504.478 625.531C504.257 627.419 502.202 644.052 498.224 646.308C497.292 646.837 492.176 647.351 480.684 648.459C476.786 648.837 472.375 649.265 467.596 649.748C467.576 649.748 467.555 649.748 467.535 649.748L467.53 649.753Z" fill="black"/>
<path d="M437.074 848.971C437.074 848.971 437.059 848.971 437.049 848.971C436.882 848.966 436.721 848.886 436.615 848.755C432.637 843.941 339.041 730.674 331.024 715.899C322.886 700.907 335.168 675.572 335.697 674.504C339.257 667.988 346.383 662.161 356.888 657.156C357.185 657.015 357.542 657.141 357.678 657.438C357.819 657.735 357.694 658.087 357.396 658.233C347.123 663.123 340.174 668.784 336.749 675.053C336.634 675.29 324.225 700.882 332.071 715.335C339.766 729.511 430.099 839.001 437.114 847.491L450.887 833.315C451.119 833.078 451.496 833.073 451.728 833.305C451.965 833.532 451.97 833.909 451.738 834.146L437.502 848.795C437.391 848.911 437.235 848.977 437.074 848.977V848.971Z" fill="black"/>
<path d="M365.026 654.93C364.785 654.93 364.563 654.784 364.472 654.547C364.356 654.24 364.508 653.898 364.815 653.777C367.046 652.921 369.433 652.075 371.9 651.274C372.222 651.173 372.55 651.344 372.65 651.657C372.751 651.969 372.58 652.306 372.268 652.407C369.82 653.208 367.454 654.039 365.238 654.89C365.167 654.915 365.097 654.93 365.026 654.93Z" fill="black"/>
<path d="M376.431 651.077C376.174 651.077 375.937 650.911 375.862 650.649C375.771 650.332 375.947 650.005 376.264 649.909C381.013 648.494 386.205 647.155 391.699 645.926C392.022 645.855 392.339 646.057 392.409 646.379C392.48 646.701 392.279 647.019 391.956 647.089C386.487 648.313 381.321 649.642 376.597 651.052C376.541 651.067 376.481 651.077 376.426 651.077H376.431Z" fill="black"/>
<path d="M405.112 644.445C404.83 644.445 404.578 644.244 404.528 643.957C404.467 643.635 404.684 643.322 405.011 643.267C450.47 635.119 501.654 635.023 502.163 635.023C502.49 635.023 502.757 635.29 502.757 635.617C502.757 635.945 502.49 636.212 502.163 636.212C501.654 636.212 450.576 636.307 405.218 644.435C405.182 644.44 405.147 644.445 405.112 644.445Z" fill="black"/>
<path d="M464.67 903.198C464.478 903.198 464.322 903.167 464.196 903.102C463.955 902.976 463.637 902.709 463.481 902.16C462.036 897.019 479.102 868.062 481.862 863.429L471.962 847.048C471.79 846.766 471.881 846.398 472.163 846.232C472.445 846.066 472.813 846.151 472.979 846.433L483.066 863.122C483.181 863.309 483.181 863.545 483.066 863.737C475.099 877.072 463.612 898.222 464.624 901.843C464.645 901.924 464.685 902.024 464.745 902.054C467.409 903.082 494.109 881.997 517.994 861.571L510.944 846.021C510.833 845.774 510.899 845.482 511.11 845.31C511.322 845.139 511.624 845.134 511.841 845.3L524.455 854.753L531.44 846.72C530.478 844.344 523.786 829.201 504.866 817.407C504.589 817.231 504.503 816.868 504.675 816.586C504.851 816.304 505.218 816.223 505.495 816.395C526.359 829.397 532.624 846.464 532.684 846.635C532.754 846.836 532.714 847.063 532.573 847.224L524.989 855.946C524.788 856.183 524.435 856.218 524.183 856.032L512.984 847.637L519.258 861.481C519.369 861.722 519.304 862.004 519.102 862.181C510.919 869.185 470.859 903.198 464.655 903.203L464.67 903.198Z" fill="black"/>
<path d="M433.714 901.621C433.462 901.621 433.271 901.571 433.114 901.49C432.873 901.365 432.555 901.098 432.399 900.549C430.954 895.412 447.98 866.522 450.77 861.838L439.737 845.462C439.555 845.19 439.626 844.817 439.898 844.636C440.17 844.454 440.537 844.525 440.724 844.797L451.969 861.486C452.1 861.677 452.105 861.924 451.984 862.125C444.017 875.46 432.525 896.611 433.543 900.232C433.563 900.312 433.603 900.413 433.663 900.443C434.917 900.921 442.748 896.842 481.373 864.316C481.625 864.104 481.998 864.134 482.214 864.386C482.426 864.638 482.395 865.016 482.144 865.227C445.568 896.022 436.393 901.626 433.709 901.626L433.714 901.621Z" fill="black"/>
<path d="M572.771 742.282H460.098C459.771 742.282 459.504 742.015 459.504 741.688C459.504 741.36 459.771 741.093 460.098 741.093H572.771C579.04 741.093 584.147 735.992 584.147 729.717C584.147 723.443 579.045 718.341 572.771 718.341H440.524C440.197 718.341 439.93 718.075 439.93 717.747C439.93 717.42 440.197 717.153 440.524 717.153H572.771C579.7 717.153 585.335 722.788 585.335 729.717C585.335 736.647 579.7 742.282 572.771 742.282Z" fill="black"/>
<path d="M566.298 956.804H551.598C551.271 956.804 551.004 956.537 551.004 956.21V741.688C551.004 741.36 551.271 741.093 551.598 741.093H566.298C566.625 741.093 566.892 741.36 566.892 741.688V956.21C566.892 956.537 566.625 956.804 566.298 956.804ZM552.192 955.616H565.704V742.282H552.192V955.616Z" fill="black"/>
<path d="M516.878 956.804H502.178C501.851 956.804 501.584 956.537 501.584 956.21V875.959C501.584 875.631 501.851 875.364 502.178 875.364C502.506 875.364 502.772 875.631 502.772 875.959V955.616H516.284V863.304C516.284 862.976 516.551 862.709 516.878 862.709C517.205 862.709 517.472 862.976 517.472 863.304V956.21C517.472 956.537 517.205 956.804 516.878 956.804Z" fill="black"/>
<path d="M516.877 858.232C516.55 858.232 516.283 857.965 516.283 857.638V849.802C516.283 849.475 516.55 849.208 516.877 849.208C517.205 849.208 517.472 849.475 517.472 849.802V857.638C517.472 857.965 517.205 858.232 516.877 858.232Z" fill="black"/>
<path d="M516.878 826.018C516.551 826.018 516.284 825.751 516.284 825.424V742.282H502.772V792.53C502.772 792.857 502.506 793.124 502.178 793.124C501.851 793.124 501.584 792.857 501.584 792.53V741.683C501.584 741.355 501.851 741.088 502.178 741.088H516.878C517.205 741.088 517.472 741.355 517.472 741.683V825.424C517.472 825.751 517.205 826.018 516.878 826.018Z" fill="black"/>
<path d="M467.449 751.266C467.122 751.266 466.855 750.999 466.855 750.672V742.277H460.102C459.775 742.277 459.508 742.01 459.508 741.683C459.508 741.355 459.775 741.088 460.102 741.088H467.454C467.782 741.088 468.049 741.355 468.049 741.683V750.672C468.049 750.999 467.782 751.266 467.454 751.266H467.449Z" fill="black"/>
<path d="M467.45 956.804H452.75C452.423 956.804 452.156 956.537 452.156 956.21V888.518C452.156 888.191 452.423 887.924 452.75 887.924C453.078 887.924 453.345 888.191 453.345 888.518V955.616H466.856V901.707C466.856 901.38 467.123 901.113 467.45 901.113C467.777 901.113 468.044 901.38 468.044 901.707V956.21C468.044 956.537 467.777 956.804 467.45 956.804Z" fill="black"/>
<path d="M467.45 891.217C467.123 891.217 466.856 890.95 466.856 890.623V876.704C466.856 876.377 467.123 876.11 467.45 876.11C467.777 876.11 468.044 876.377 468.044 876.704V890.623C468.044 890.95 467.777 891.217 467.45 891.217Z" fill="black"/>
<path d="M551.599 924.202H516.872C516.544 924.202 516.277 923.935 516.277 923.608C516.277 923.281 516.544 923.014 516.872 923.014H551V904.814H516.872C516.544 904.814 516.277 904.547 516.277 904.22C516.277 903.893 516.544 903.626 516.872 903.626H551.599C551.926 903.626 552.193 903.893 552.193 904.22V923.608C552.193 923.935 551.926 924.202 551.599 924.202Z" fill="black"/>
<path d="M502.179 924.202H467.452C467.124 924.202 466.857 923.935 466.857 923.608V904.22C466.857 903.893 467.124 903.626 467.452 903.626H502.179C502.506 903.626 502.773 903.893 502.773 904.22C502.773 904.547 502.506 904.814 502.179 904.814H468.051V923.014H502.179C502.506 923.014 502.773 923.281 502.773 923.608C502.773 923.935 502.506 924.202 502.179 924.202Z" fill="black"/>
<path d="M500.062 395.508C499.861 395.508 499.659 395.402 499.548 395.216C499.382 394.934 499.478 394.566 499.76 394.4C502.515 392.788 506.09 392.748 508.875 394.309C509.162 394.47 509.263 394.833 509.102 395.12C508.94 395.407 508.578 395.508 508.291 395.347C505.869 393.992 502.756 394.022 500.359 395.427C500.264 395.483 500.163 395.508 500.057 395.508H500.062Z" fill="black"/>
<path d="M501.008 404.265C501.769 406.103 503.446 407.151 504.755 406.607C506.064 406.063 506.508 404.134 505.747 402.301C504.987 400.463 503.31 399.416 502.001 399.959C500.691 400.503 500.248 402.432 501.008 404.265Z" fill="black"/>
<path d="M495.961 418.094C495.554 418.094 495.151 418.023 494.773 417.887C493.59 417.449 492.723 416.301 492.673 415.097C492.618 413.884 493.298 412.866 493.897 411.97C494.033 411.768 494.164 411.572 494.29 411.371C494.914 410.369 495.211 408.883 495.493 407.453C495.614 406.838 495.735 406.244 495.876 405.72C495.962 405.403 496.289 405.212 496.601 405.297C496.918 405.383 497.11 405.705 497.024 406.023C496.888 406.531 496.777 407.1 496.661 407.689C496.369 409.155 496.037 410.817 495.297 412.005C495.166 412.217 495.025 412.428 494.884 412.64C494.335 413.456 493.821 414.231 493.857 415.052C493.887 415.782 494.446 416.507 495.181 416.779C495.901 417.046 496.808 416.905 497.487 416.422C497.754 416.23 498.127 416.296 498.318 416.563C498.51 416.83 498.444 417.202 498.177 417.394C497.518 417.862 496.732 418.104 495.961 418.104V418.094Z" fill="black"/>
<path d="M523.394 404.718C523.167 404.718 522.951 404.587 522.85 404.366C522.271 403.067 521.999 401.898 522.004 400.8C522.014 399.411 522.523 398.116 523.394 397.255C524.416 396.243 525.937 395.88 527.186 396.344C527.694 396.535 528.183 396.862 528.712 397.376C530.555 399.149 531.416 401.747 530.917 403.993C530.847 404.31 530.535 404.522 530.207 404.446C529.885 404.376 529.684 404.059 529.754 403.736C530.167 401.888 529.432 399.728 527.886 398.237C527.473 397.844 527.12 397.598 526.768 397.467C525.962 397.165 524.92 397.432 524.23 398.111C523.58 398.756 523.203 399.743 523.197 400.821C523.192 401.747 523.434 402.754 523.938 403.893C524.074 404.195 523.938 404.547 523.636 404.678C523.555 404.713 523.474 404.728 523.394 404.728V404.718Z" fill="black"/>
<path d="M526.446 407.428C526.295 407.428 526.144 407.367 526.023 407.251C525.791 407.02 525.791 406.642 526.023 406.41C527.05 405.378 527.499 403.893 527.166 402.618C526.819 401.294 525.54 400.247 524.291 400.327C523.837 400.342 523.46 400.493 523.273 400.735C523.072 400.997 522.699 401.047 522.437 400.846C522.176 400.644 522.125 400.272 522.327 400.01C522.735 399.476 523.435 399.159 524.255 399.134C526.094 399.114 527.826 400.448 528.319 402.311C528.763 403.983 528.193 405.922 526.869 407.246C526.753 407.362 526.602 407.423 526.446 407.423V407.428Z" fill="black"/>
<path d="M505.323 420.143C505.066 420.143 504.83 419.977 504.754 419.72C504.658 419.408 504.84 419.076 505.152 418.98C508.672 417.917 511.558 415.087 512.686 411.587C512.786 411.275 513.124 411.104 513.436 411.205C513.748 411.305 513.919 411.643 513.819 411.955C512.575 415.822 509.387 418.95 505.494 420.123C505.434 420.138 505.379 420.148 505.323 420.148V420.143Z" fill="black"/>
<path d="M389.168 391.555H112V428.211H389.168V391.555Z" fill="#20E086"/>
<path d="M114.752 354V331.344H122.272C127.936 331.344 134.176 335.12 134.176 342.672C134.176 350.224 127.936 354 122.272 354H114.752ZM117.056 333.456V351.888H121.536C128.448 351.888 131.68 347.344 131.68 342.672C131.68 338 128.448 333.456 121.536 333.456H117.056ZM160.871 342.672C160.871 349.552 155.815 354.576 149.063 354.576C142.311 354.576 137.255 349.552 137.255 342.672C137.255 335.792 142.311 330.768 149.063 330.768C155.815 330.768 160.871 335.792 160.871 342.672ZM158.375 342.672C158.375 337.456 154.887 332.88 149.063 332.88C143.239 332.88 139.751 337.456 139.751 342.672C139.751 347.888 143.239 352.464 149.063 352.464C154.887 352.464 158.375 347.888 158.375 342.672ZM168.358 331.344L181.862 350.544H181.926V331.344H184.23V354H181.35L167.846 334.608H167.782V354H165.478V331.344H168.358ZM193.841 331.344L191.249 338.864H189.105L191.249 331.344H193.841ZM205.961 333.456V354H203.657V333.456H196.073V331.344H213.545V333.456H205.961Z" fill="#020D3A"/>
<path d="M116.214 412.95V373.302H130.998C137.942 373.302 145.502 374.758 145.502 383.382C145.502 387.806 142.758 390.83 138.67 392.118V392.23C143.878 392.902 147.35 396.766 147.35 401.918C147.35 410.206 139.51 412.95 132.454 412.95H116.214ZM124.95 380.694V389.15H131.278C133.966 389.15 136.766 388.03 136.766 384.838C136.766 381.534 133.63 380.694 130.886 380.694H124.95ZM124.95 396.542V405.558H132.79C135.534 405.558 138.614 404.382 138.614 400.91C138.614 397.158 134.414 396.542 131.558 396.542H124.95ZM152.862 412.95V373.302H179.798V381.366H161.598V388.758H178.79V396.822H161.598V404.886H180.806V412.95H152.862ZM200.282 412.95L217.418 373.302H224.642L241.89 412.95H232.034L228.618 404.55H213.218L209.914 412.95H200.282ZM225.65 397.158L220.778 384.838L215.962 397.158H225.65ZM246.214 412.95V373.302H254.95V404.886H271.134V412.95H246.214ZM273.828 393.126C273.828 380.414 282.844 372.294 295.22 372.294C307.596 372.294 316.612 380.414 316.612 393.126C316.612 405.838 307.596 413.958 295.22 413.958C282.844 413.958 273.828 405.838 273.828 393.126ZM282.9 393.126C282.9 400.518 287.772 405.894 295.22 405.894C302.668 405.894 307.54 400.518 307.54 393.126C307.54 385.734 302.668 380.358 295.22 380.358C287.772 380.358 282.9 385.734 282.9 393.126ZM322.55 412.95V373.302H334.422L351.278 400.854H351.39V373.302H360.126V412.95H348.702L331.398 384.726H331.286V412.95H322.55ZM368.55 412.95V373.302H395.486V381.366H377.286V388.758H394.478V396.822H377.286V404.886H396.494V412.95H368.55Z" fill="#020D3A"/>
<path d="M246.107 1055.67V1071.75H242.651V1037.77H263.147V1040.93H246.107V1052.5H261.947V1055.67H246.107ZM272.779 1037.77V1071.75H269.323V1037.77H272.779ZM286.299 1037.77L306.555 1066.57H306.651V1037.77H310.107V1071.75H305.787L285.531 1042.66H285.435V1071.75H281.979V1037.77H286.299ZM318.858 1071.75V1037.77H330.138C338.634 1037.77 347.994 1043.43 347.994 1054.76C347.994 1066.09 338.634 1071.75 330.138 1071.75H318.858ZM322.314 1040.93V1068.58H329.034C339.402 1068.58 344.25 1061.77 344.25 1054.76C344.25 1047.75 339.402 1040.93 329.034 1040.93H322.314ZM368.544 1071.75V1032.1H383.328C390.272 1032.1 397.832 1033.56 397.832 1042.18C397.832 1046.61 395.088 1049.63 391 1050.92V1051.03C396.208 1051.7 399.68 1055.57 399.68 1060.72C399.68 1069.01 391.84 1071.75 384.784 1071.75H368.544ZM377.28 1039.49V1047.95H383.608C386.296 1047.95 389.096 1046.83 389.096 1043.64C389.096 1040.33 385.96 1039.49 383.216 1039.49H377.28ZM377.28 1055.34V1064.36H385.12C387.864 1064.36 390.944 1063.18 390.944 1059.71C390.944 1055.96 386.744 1055.34 383.888 1055.34H377.28ZM404.856 1071.75V1032.1H420.2C428.32 1032.1 435.152 1034.9 435.152 1044.14C435.152 1049.69 432.184 1054 426.584 1055.01L436.664 1071.75H426.192L417.904 1055.9H413.592V1071.75H404.856ZM413.592 1039.49V1048.51H418.744C421.936 1048.51 426.08 1048.4 426.08 1044.09C426.08 1040.11 422.496 1039.49 419.304 1039.49H413.592ZM437.081 1071.75L454.217 1032.1H461.441L478.689 1071.75H468.833L465.417 1063.35H450.017L446.713 1071.75H437.081ZM462.449 1055.96L457.577 1043.64L452.761 1055.96H462.449ZM482.677 1071.75V1032.1H494.549L511.405 1059.65H511.517V1032.1H520.253V1071.75H508.829L491.525 1043.53H491.413V1071.75H482.677ZM528.341 1071.75V1032.1H541.445C554.213 1032.1 564.909 1037.53 564.909 1052.04C564.909 1064.86 554.437 1071.75 542.621 1071.75H528.341ZM537.077 1040.17V1063.69H541.613C549.733 1063.69 555.837 1060.61 555.837 1051.59C555.837 1043.81 549.621 1040.17 542.229 1040.17H537.077ZM596.425 1035.24L590.433 1041.79C589.033 1040 586.233 1039.16 584.105 1039.16C581.641 1039.16 578.225 1040.28 578.225 1043.25C578.225 1050.47 596.481 1045.82 596.481 1059.71C596.481 1068.56 589.369 1072.76 581.193 1072.76C576.097 1072.76 571.617 1071.25 567.865 1067.77L574.081 1060.94C575.873 1063.29 578.785 1064.69 581.697 1064.69C584.553 1064.69 587.745 1063.35 587.745 1060.55C587.745 1053.27 569.153 1057.19 569.153 1043.97C569.153 1035.52 576.489 1031.09 584.273 1031.09C588.753 1031.09 593.065 1032.27 596.425 1035.24Z" fill="#020D3A"/>
</g>
<defs>
<clipPath id="clip0_637_10484">
<rect width="836" height="1402" fill="white"/>
</clipPath>
</defs>
</svg>
