<svg width="284" height="75" viewBox="0 0 284 75" fill="none" xmlns="http://www.w3.org/2000/svg">
<g clip-path="url(#clip0_637_10240)">
<path d="M37.4994 64.9999C52.6872 64.9999 64.9993 52.6877 64.9993 37.5C64.9993 22.3122 52.6872 10.0001 37.4994 10.0001C22.3116 10.0001 9.99951 22.3122 9.99951 37.5C9.99951 52.6877 22.3116 64.9999 37.4994 64.9999Z" fill="#20E086"/>
<path d="M34.4926 54.4664C32.4617 54.4664 30.7991 53.9835 29.5294 53.0212C28.4596 52.2094 27.8457 51.1876 27.495 50.2884C27.2003 49.711 27.0039 49.0497 26.9232 48.3183C26.8776 47.9019 26.8847 47.482 26.9162 47.0656L28.3158 28.3136H24.4855L23.2964 46.9187C22.9141 51.6145 25.7728 55.5056 30.0941 56.1774C30.515 56.2404 30.9394 56.2719 31.3568 56.2719C32.4091 56.2719 33.4333 56.0725 34.4084 55.6736L34.5207 55.6316C35.2958 55.2992 36.0184 54.8513 36.6603 54.3019C35.8956 54.4139 35.1766 54.4664 34.4961 54.4664H34.4926ZM53.0091 35.6549C52.8898 34.4302 52.4795 33.223 51.82 32.1662C51.5956 31.8023 51.343 31.4594 51.0729 31.1479C50.8625 30.903 50.624 30.6616 50.3363 30.4026L50.0312 30.1297L50.3223 29.8358C51.5464 28.5866 52.262 26.9665 52.3392 25.2694C52.4198 23.4883 51.799 21.8192 50.5959 20.5595C49.3893 19.3033 47.7477 18.614 45.9694 18.614C42.2724 18.614 39.1296 21.6162 38.9648 25.3078C38.8981 26.7985 39.319 28.2122 40.1854 29.3914L40.4169 29.7028L40.1117 29.9407C38.1756 31.4314 36.9514 33.8003 36.7585 36.4282L36.5796 38.3807H32.5915L32.3284 41.544H36.2885L35.6641 48.3638C35.6396 48.6438 35.594 48.9202 35.5344 49.1896L35.4502 49.4696C34.8784 51.3731 33.2264 52.6503 31.3463 52.6503C31.199 52.6503 31.0482 52.6433 30.8973 52.6258C32.574 53.5146 34.9135 53.6441 37.8809 53.0037C39.3085 51.0687 39.4593 48.6927 39.6172 46.1733C39.6452 45.743 39.6698 45.3091 39.7049 44.8822L39.9749 41.544H44.3138L44.5769 38.3807H40.231L40.3994 36.3267C40.8238 33.7023 42.56 31.9842 44.8645 31.9458C45.0224 31.9563 45.1802 31.9668 45.338 31.9668H45.3766C47.3479 32.1767 48.8596 33.6953 49.1473 35.7458L49.1894 36.0468H53.0477L53.0126 35.6584L53.0091 35.6549ZM45.5345 28.3101C44.7242 28.3101 43.9701 27.9917 43.4229 27.4178C42.8687 26.8405 42.5846 26.0777 42.6197 25.2694C42.6933 23.6108 44.1069 22.2601 45.773 22.2601C46.5832 22.2601 47.3374 22.5785 47.8845 23.1489C48.4387 23.7262 48.7228 24.4925 48.6878 25.3008C48.6141 26.9595 47.197 28.3101 45.5345 28.3101Z" fill="#020D3A"/>
<path d="M93.1118 51.5488L94.6237 33.5209H99.1354L97.6283 51.5488" fill="white"/>
<path d="M97.5807 24.6957C99.2361 24.6957 100.418 25.8621 100.289 27.3997C100.16 28.9373 98.7816 30.1036 97.131 30.1036C95.4804 30.1036 94.38 28.8278 94.4996 27.3997C94.6192 25.9715 95.9301 24.6957 97.5855 24.6957H97.5807Z" fill="#20E086"/>
<path d="M102.255 33.5199H106.542L106.298 36.4143H106.374C107.35 34.6101 109.173 33.0724 112.182 33.0724C117.034 33.0724 118.479 36.4905 118.172 40.1703L117.22 51.5525H112.709L113.474 42.4267C113.642 40.4369 113.766 37.1284 110.608 37.1284C107.637 37.1284 106.288 39.3086 106.087 41.7127L105.264 51.5525H100.752L102.26 33.5247L102.255 33.5199Z" fill="white"/>
<path d="M135.009 37.5769L138.956 33.7447H133.167L125.813 40.9949L127.234 24.0001H122.718L120.417 51.5488H124.928L125.698 42.3421H125.77L132.191 51.5488H138.167L130.756 41.7089L135.009 37.5721V37.5769Z" fill="white"/>
<path d="M180.561 51.5494H176.274L176.518 48.655H176.441C175.465 50.4592 173.643 51.9969 170.633 51.9969C165.782 51.9969 164.337 48.5789 164.643 44.899L165.595 33.5168H170.107L169.341 42.6426C169.174 44.6324 169.05 47.941 172.207 47.941C175.178 47.941 176.528 45.7607 176.728 43.3566L177.551 33.5168H182.063L180.556 51.5446L180.561 51.5494Z" fill="white"/>
<path d="M188.23 44.1128C188.307 46.7787 190.206 48.3925 192.723 48.3925C194.981 48.3925 196.536 47.3404 197.78 45.9504L200.808 48.3925C198.483 50.9822 195.732 51.9962 192.871 51.9962C187.417 51.9962 183.374 48.2021 183.848 42.5324C184.321 36.8627 189.001 33.0686 194.455 33.0686C199.493 33.0686 202.622 36.6009 202.095 42.8704L201.99 44.1081H188.225L188.23 44.1128ZM197.766 40.7329C197.947 38.1052 196.354 36.4533 193.536 36.4533C190.866 36.4533 189.068 38.1432 188.513 40.7329H197.766Z" fill="white"/>
<path d="M205.64 33.5199H209.927L209.683 36.4143H209.76C210.736 34.6101 212.559 33.0724 215.568 33.0724C220.419 33.0724 221.864 36.4905 221.558 40.1703L220.606 51.5525H216.094L216.86 42.4267C217.027 40.4369 217.152 37.1284 213.994 37.1284C211.023 37.1284 209.674 39.3086 209.473 41.7127L208.65 51.5525H204.138L205.645 33.5247L205.64 33.5199Z" fill="white"/>
<path d="M237.481 38.9278C236.52 37.8377 235.414 37.1236 234.209 37.1236C230.898 37.1236 228.688 39.7133 228.453 42.5315C228.219 45.3497 229.994 47.9393 233.305 47.9393C234.697 47.9393 236.027 47.3395 236.945 46.2494L239.682 49.4817C237.687 51.324 234.544 52 232.965 52C227.511 52 223.468 48.2059 223.942 42.5362C224.415 36.8665 229.094 33.0724 234.548 33.0724C236.845 33.0724 239.295 33.9008 240.864 35.8145L237.481 38.9326V38.9278Z" fill="white"/>
<path d="M245.284 44.1128C245.361 46.7787 247.26 48.3925 249.776 48.3925C252.035 48.3925 253.59 47.3404 254.834 45.9504L257.862 48.3925C255.537 50.9822 252.786 51.9962 249.925 51.9962C244.471 51.9962 240.428 48.2021 240.901 42.5324C241.375 36.8627 246.054 33.0686 251.508 33.0686C256.546 33.0686 259.675 36.6009 259.149 42.8704L259.044 44.1081H245.279L245.284 44.1128ZM254.819 40.7329C255.001 38.1052 253.408 36.4533 250.59 36.4533C247.92 36.4533 246.121 38.1432 245.566 40.7329H254.819Z" fill="white"/>
<path d="M262.44 33.5199H266.952L266.713 36.3762H266.789C267.942 34.3102 270.038 33.0724 272.406 33.0724C272.97 33.0724 273.487 33.1867 273.999 33.3343L273.636 37.6901C272.899 37.5044 272.195 37.3521 271.483 37.3521C267.234 37.3521 266.335 40.9224 266.248 41.8983L265.44 51.5525H260.928L262.435 33.5247L262.44 33.5199Z" fill="white"/>
<path d="M138.958 33.7448L135.01 37.5769H133.69L134.011 33.7448H138.958Z" fill="white"/>
<path d="M151.19 33.7448L150.874 37.5769H139.655L140.325 33.7448H151.19Z" fill="white"/>
<path d="M164.314 51.5622C163.18 51.7955 162.007 51.786 160.883 51.5479C159.979 51.3575 159.103 51.0243 158.304 50.5482H158.3C157.084 49.8294 156.032 48.7964 155.3 47.473C154.64 46.2638 154.376 44.8928 154.376 43.5218L155.319 32.2586V32.2443C155.309 30.0545 153.731 28.2789 151.539 28.2789C149.348 28.2789 147.702 29.9117 147.554 31.9634L145.975 51.5479H141.463L143.248 31.9634C143.406 27.5457 147.061 24.004 151.534 24.004C153.132 24.004 154.63 24.461 155.903 25.2417C156.625 25.6892 157.271 26.2461 157.821 26.8793C158.103 27.2077 158.357 27.5505 158.582 27.9171C159.276 29.031 159.721 30.3211 159.811 31.7016C159.821 31.8873 159.831 32.0682 159.831 32.2586L158.888 43.5266C158.888 45.7687 160.596 47.3349 162.467 47.4682C162.711 49.0963 163.328 50.4768 164.304 51.5527L164.318 51.567L164.314 51.5622Z" fill="white"/>
<path d="M79.0949 47.2645L81.066 24.0002H76.3295L73.9995 51.5442H90.0607L90.4147 47.2645H79.0949Z" fill="white"/>
</g>
<defs>
<clipPath id="clip0_637_10240">
<rect width="284" height="75" fill="white"/>
</clipPath>
</defs>
</svg>
