<svg width="836" height="961" viewBox="0 0 836 961" fill="none" xmlns="http://www.w3.org/2000/svg">
<g clip-path="url(#clip0_637_10289)">
<rect width="836" height="961" fill="white"/>
<g opacity="0.5">
<path d="M183.23 712.539H-115.206C-120.137 712.539 -124.692 709.91 -127.151 705.641C-129.616 701.373 -129.616 696.114 -127.151 691.846L22.0634 433.398C24.5289 429.129 29.0842 426.5 34.0084 426.5C38.9326 426.5 43.4948 429.129 45.9535 433.398L195.168 691.846C197.633 696.114 197.633 701.373 195.168 705.641C192.702 709.91 188.147 712.539 183.223 712.539H183.23ZM-91.3089 684.948H159.333L34.0153 467.888L-91.3089 684.948Z" fill="#20E086"/>
<path d="M691.143 346.429C687.372 345.128 684.189 342.209 682.698 338.176C669.777 303.264 669.363 268.832 681.527 241.226C696.799 206.579 733.69 185.013 767.341 191.07C786.564 194.532 801.548 205.316 816.045 215.752C826.878 223.551 837.129 230.925 848.186 234.495C873.196 242.584 904.814 227.211 914.532 202.236C924.264 177.215 912.32 144.707 888.449 131.245C881.814 127.504 879.464 119.092 883.208 112.451C886.952 105.81 895.368 103.469 902.003 107.211C937.784 127.383 954.939 174.5 940.251 212.246C925.069 251.259 879.017 273.471 839.698 260.747C824.52 255.842 812.006 246.842 799.929 238.144C787.37 229.107 775.506 220.569 762.459 218.22C738.894 213.982 715.643 232.242 706.783 252.347C694.283 280.697 702.544 312.282 708.579 328.583C711.221 335.73 707.578 343.67 700.431 346.311C697.318 347.462 694.059 347.421 691.147 346.417L691.143 346.429Z" fill="#20E086"/>
</g>
<path d="M599.685 909.452H236.315C232.279 909.452 229 906.108 229 902.005C229 897.902 232.284 894.559 236.315 894.559H599.685C603.721 894.559 607 897.902 607 902.005C607 906.108 603.716 909.452 599.685 909.452ZM236.315 896.063C233.096 896.063 230.478 898.729 230.478 902.005C230.478 905.282 233.096 907.947 236.315 907.947H599.685C602.904 907.947 605.522 905.282 605.522 902.005C605.522 898.729 602.904 896.063 599.685 896.063H236.315Z" fill="#020D3A"/>
<path d="M245.117 914.5C251.898 914.5 257.395 908.904 257.395 902C257.395 895.096 251.898 889.5 245.117 889.5C238.335 889.5 232.838 895.096 232.838 902C232.838 908.904 238.335 914.5 245.117 914.5Z" fill="#020D3A"/>
<path opacity="0.3" d="M427.167 770.911C547.344 770.911 644.766 758.936 644.766 744.165C644.766 729.394 547.344 717.42 427.167 717.42C306.99 717.42 209.567 729.394 209.567 744.165C209.567 758.936 306.99 770.911 427.167 770.911Z" fill="#B3B3B2"/>
<path d="M352.138 564.758C352.32 567.699 352.974 570.66 353.604 573.515C354.203 576.224 354.817 579.024 355.049 581.849C355.89 592.118 351.846 603.03 343.018 614.28C339.574 618.672 335.706 622.806 331.965 626.81C327.871 631.186 323.635 635.713 319.974 640.562C317.597 643.705 315.633 646.726 314.037 649.657C319.566 654.215 326.405 657.236 333.496 658.143C336.693 658.556 343.034 657.367 345.602 655.459C348.135 653.575 349.676 650.443 349.631 647.29C349.6 645.185 348.926 643.191 348.21 641.081C347.616 639.324 347.002 637.506 346.795 635.612C346.332 631.412 347.908 626.754 351.247 622.489C353.412 619.719 356.061 617.342 358.62 615.046C359.45 614.3 360.286 613.55 361.102 612.79C369.95 604.551 374.583 596.212 374.86 588.003C375.152 579.457 370.635 571.279 366.38 564.289L365.206 562.371C361.581 556.469 357.849 550.385 356.374 543.693C354.082 550.219 351.685 557.506 352.133 564.758H352.138Z" fill="#F5F0EA"/>
<path d="M331.098 626.004C334.824 622.02 338.677 617.901 342.086 613.555C350.723 602.547 354.686 591.916 353.865 581.955C353.638 579.211 353.029 576.446 352.44 573.777C351.8 570.871 351.136 567.87 350.949 564.838C350.476 557.164 353.044 549.57 355.426 542.812C349.328 551.126 344.247 560.15 340.329 569.693C339.8 570.982 339.291 572.281 338.783 573.586C337.388 577.146 335.947 580.827 334.084 584.252C331.118 589.705 327.482 593.633 323.287 595.925C321.112 597.113 318.73 597.894 316.423 598.649C313.488 599.606 310.713 600.517 308.296 602.194C303.229 605.709 300.243 612.649 300.309 620.751C300.379 629.816 303.869 638.901 309.887 645.679C310.894 646.812 311.977 647.875 313.115 648.877C314.716 645.961 316.675 642.965 319.027 639.852C322.728 634.958 326.984 630.405 331.098 626.004Z" fill="#F5F0EA"/>
<path d="M356.042 541.955C355.991 542.021 355.946 542.091 355.896 542.157L356.092 542.227C356.077 542.137 356.057 542.046 356.042 541.955Z" fill="#F5F0EA"/>
<path d="M250.052 673.552C249.513 674.212 249.301 675.073 249.472 675.909L261.166 733.147C263.17 742.967 271.902 750.097 281.923 750.097H299.287C309.308 750.097 318.041 742.972 320.045 733.147L331.738 675.909C331.909 675.073 331.698 674.212 331.159 673.552C330.62 672.893 329.819 672.51 328.963 672.51H252.247C251.391 672.51 250.59 672.893 250.052 673.552Z" fill="#F5F0EA"/>
<path d="M319.189 585.828C314.546 577.131 309.747 568.142 310.588 558.382C311.177 551.544 314.531 545.415 317.769 539.493C320.342 534.789 323.001 529.93 324.255 524.748C326.527 515.391 324.386 504.423 317.885 492.156C315.74 488.107 313.287 484.119 310.915 480.266C307.365 474.495 303.689 468.528 300.954 462.187C295.098 448.626 293.134 434.193 295.284 421.065C289.155 437.451 285.434 454.578 284.281 472.053C283.173 488.832 284.452 505.934 285.691 522.472C286.834 537.75 288.017 553.553 287.322 569.114C287 576.386 286.26 583.743 285.54 590.859C284.835 597.879 284.099 605.14 283.772 612.301C283.117 626.558 283.928 640.286 286.225 653.847C289.659 653.394 292.978 651.994 295.742 649.713C298.86 647.139 302.047 644.354 305.23 641.434C301.357 635.275 299.167 628.013 299.111 620.757C299.046 612.256 302.223 604.949 307.612 601.212C310.175 599.435 313.161 598.458 316.052 597.511C318.308 596.776 320.64 596.01 322.719 594.877C322.966 594.741 323.203 594.585 323.445 594.439C322.468 592.168 321.289 589.761 319.663 586.709L319.189 585.828Z" fill="#F5F0EA"/>
<path d="M269.097 642.058C270.437 635.904 270.125 628.834 268.135 620.434C266.962 615.484 265.063 609.199 260.758 604.516C258.144 601.671 254.76 599.571 251.482 597.536C249.251 596.151 246.944 594.716 244.86 593.044C237.331 587.006 232.879 578.062 229.515 570.106C227.884 566.253 226.348 562.26 224.862 558.402C220.486 547.042 215.959 535.293 208.501 525.564C204.744 520.664 201.023 517.803 197.165 516.867C197.22 516.967 197.271 517.068 197.326 517.164C206.587 524.632 209.79 536.834 210.822 545.868C211.442 551.307 211.522 556.862 211.598 562.235C211.673 567.663 211.749 573.273 212.393 578.737C214.478 596.499 222.591 613.248 235.236 625.898C237.326 627.988 239.572 630.002 241.747 631.946C244.648 634.545 247.644 637.229 250.334 640.155C254.72 644.929 258.336 650.463 261.025 656.41C264.933 652.931 267.843 647.844 269.107 642.053L269.097 642.058Z" fill="#F5F0EA"/>
<path d="M240.947 632.838C238.761 630.879 236.505 628.859 234.39 626.744C221.559 613.908 213.325 596.907 211.205 578.878C210.555 573.354 210.475 567.709 210.399 562.255C210.324 556.912 210.248 551.388 209.634 546.004C208.707 537.871 205.983 527.12 198.54 519.838C200.202 524.395 200.202 529.472 200.207 534.422V536.003C200.237 542.666 199.023 549.328 197.85 555.769L197.638 556.927C195.725 567.457 193.877 578.747 193.303 589.987C192.935 597.204 193.177 606.294 198.349 612.548C200.811 615.529 204.24 617.665 207.559 619.729C211.321 622.071 215.209 624.493 217.807 628.184C220.078 631.417 221.111 635.27 222.108 638.996C222.687 641.162 223.286 643.398 224.117 645.473C226.63 651.727 231.605 656.808 237.417 659.079C242.956 661.24 251.029 662.398 257.082 659.175C258.124 658.621 259.121 657.956 260.068 657.206C257.419 651.259 253.824 645.724 249.442 640.96C246.793 638.08 243.817 635.416 240.937 632.838H240.947Z" fill="#F5F0EA"/>
<path d="M285.046 653.973C282.744 640.351 281.934 626.568 282.593 612.251C282.921 605.06 283.656 597.778 284.361 590.743C285.076 583.642 285.816 576.3 286.139 569.063C286.828 553.573 285.65 537.811 284.507 522.562C283.268 505.984 281.984 488.842 283.097 471.977C284.285 453.974 288.173 436.323 294.609 419.478C274.108 436.651 262.546 463.441 264.293 490.182C264.661 495.757 265.587 501.437 266.484 506.931C268.196 517.391 269.963 528.208 267.909 538.758C266.247 547.298 262.163 555.149 258.22 562.743C256.286 566.46 254.287 570.307 252.605 574.18C250.011 580.142 248.052 586.412 246.788 592.808L246.426 592.737C248.239 594.107 250.203 595.336 252.116 596.529C255.455 598.604 258.915 600.749 261.639 603.71C266.131 608.595 268.09 615.066 269.299 620.157C271.328 628.733 271.645 635.98 270.266 642.31C269.812 644.395 269.148 646.389 268.307 648.262C270.774 649.748 273.453 651.148 276.283 652.422C279.058 653.671 282.075 654.174 285.046 653.968V653.973Z" fill="#F5F0EA"/>
<path d="M299.287 751.291H281.924C271.338 751.291 262.113 743.762 259.998 733.389L248.304 676.146C248.063 674.958 248.365 673.734 249.13 672.797C249.896 671.855 251.034 671.317 252.247 671.317H328.964C330.177 671.317 331.315 671.855 332.081 672.797C332.846 673.739 333.148 674.958 332.907 676.146L321.214 733.389C319.093 743.762 309.873 751.291 299.287 751.291ZM252.247 672.51C251.391 672.51 250.591 672.888 250.052 673.552C249.513 674.212 249.301 675.073 249.473 675.909L261.166 733.152C263.17 742.972 271.902 750.103 281.924 750.103H299.287C309.314 750.103 318.041 742.977 320.045 733.152L331.738 675.909C331.91 675.073 331.698 674.212 331.159 673.552C330.62 672.893 329.82 672.51 328.964 672.51H252.247Z" fill="black"/>
<path d="M283.757 655.207C281.042 655.207 278.323 654.648 275.795 653.51C272.753 652.14 269.873 650.629 267.234 649.018L267.854 648.001C270.447 649.587 273.282 651.072 276.279 652.422C282.639 655.287 290.283 654.225 295.747 649.713C298.99 647.034 302.304 644.138 305.592 641.101L306.398 641.978C303.094 645.029 299.761 647.94 296.503 650.629C292.862 653.636 288.309 655.202 283.752 655.202L283.757 655.207Z" fill="black"/>
<path d="M323.652 594.918C322.635 592.505 321.401 589.977 319.663 586.709L319.19 585.823C314.547 577.126 309.748 568.137 310.589 558.377C311.178 551.539 314.532 545.415 317.77 539.488C320.343 534.784 323.002 529.925 324.256 524.743C326.527 515.386 324.387 504.418 317.886 492.146C315.741 488.097 313.288 484.109 310.916 480.256C307.366 474.485 303.69 468.518 300.955 462.177C294.716 447.735 292.893 432.3 295.758 418.512C274.537 435.633 262.512 462.933 264.294 490.177C264.662 495.751 265.588 501.432 266.485 506.926C268.197 517.386 269.965 528.203 267.91 538.753C266.248 547.293 262.164 555.144 258.221 562.738C256.287 566.46 254.288 570.302 252.601 574.175C250.007 580.137 248.049 586.402 246.785 592.803L245.616 592.571C246.895 586.09 248.879 579.739 251.508 573.702C253.21 569.789 255.22 565.926 257.158 562.19C261.066 554.671 265.105 546.901 266.737 538.526C268.751 528.182 266.998 517.471 265.306 507.117C264.405 501.598 263.468 495.887 263.101 490.257C261.258 462.072 273.993 433.826 296.332 416.543L297.662 415.51L297.274 417.147C293.965 431.101 295.658 446.924 302.043 461.709C304.747 467.969 308.398 473.901 311.923 479.632C314.305 483.499 316.768 487.503 318.933 491.587C325.571 504.121 327.751 515.371 325.409 525.02C324.115 530.353 321.416 535.283 318.807 540.052C315.479 546.135 312.336 551.886 311.767 558.473C310.956 567.88 315.675 576.713 320.232 585.254L320.706 586.14C322.463 589.439 323.707 591.997 324.745 594.444L323.647 594.907L323.652 594.918Z" fill="black"/>
<path d="M334.917 659.417C334.348 659.417 333.819 659.387 333.346 659.326C324.075 658.143 315.197 653.454 308.997 646.465C302.793 639.475 299.193 630.103 299.122 620.757C299.057 612.256 302.234 604.949 307.623 601.212C310.186 599.435 313.172 598.458 316.063 597.511C318.319 596.776 320.65 596.01 322.73 594.877C326.724 592.697 330.198 588.925 333.054 583.678C334.882 580.319 336.307 576.678 337.682 573.158C338.195 571.848 338.709 570.539 339.243 569.235C343.518 558.826 349.148 549.016 355.982 540.072L356.893 538.879L357.045 540.369C357.84 548.079 362.106 555.023 366.235 561.741L367.413 563.665C371.759 570.806 376.372 579.165 376.065 588.039C375.773 596.579 371.014 605.196 361.924 613.656C361.103 614.421 360.262 615.172 359.426 615.927C356.903 618.193 354.295 620.53 352.195 623.219C349.053 627.238 347.562 631.589 347.99 635.481C348.186 637.244 348.781 639.001 349.35 640.699C350.06 642.804 350.795 644.979 350.83 647.27C350.886 650.8 349.158 654.305 346.323 656.41C343.886 658.223 338.568 659.412 334.922 659.412L334.917 659.417ZM356.042 541.955C349.662 550.501 344.384 559.828 340.336 569.688C339.802 570.982 339.293 572.286 338.784 573.591C337.395 577.146 335.954 580.822 334.091 584.242C331.125 589.695 327.494 593.623 323.294 595.92C321.119 597.108 318.737 597.889 316.43 598.639C313.494 599.601 310.72 600.507 308.302 602.184C303.236 605.699 300.25 612.639 300.316 620.741C300.386 629.806 303.876 638.891 309.894 645.669C315.907 652.447 324.513 656.995 333.507 658.143C336.705 658.551 343.05 657.367 345.613 655.459C348.146 653.575 349.687 650.443 349.642 647.29C349.612 645.185 348.937 643.191 348.222 641.081C347.627 639.324 347.013 637.506 346.807 635.612C346.343 631.412 347.925 626.749 351.258 622.489C353.424 619.719 356.073 617.342 358.636 615.046C359.467 614.301 360.303 613.55 361.119 612.79C369.967 604.551 374.6 596.212 374.877 588.003C375.169 579.452 370.651 571.279 366.396 564.289L365.223 562.371C361.285 555.96 357.221 549.343 356.057 541.955H356.042Z" fill="black"/>
<path d="M248.24 662.358C244.206 662.358 240.188 661.436 236.99 660.187C230.876 657.805 225.654 652.467 223.02 645.916C222.159 643.77 221.55 641.499 220.961 639.299C219.944 635.507 218.987 631.921 216.836 628.864C214.379 625.369 210.763 623.118 206.931 620.736C203.532 618.621 200.017 616.436 197.428 613.304C192 606.732 191.738 597.355 192.115 589.922C192.689 578.632 194.543 567.291 196.466 556.711L196.678 555.557C197.841 549.172 199.045 542.565 199.02 536.008V534.432C199.02 528.097 199.015 521.55 195.444 516.373L194.684 515.27L196.008 515.447C200.666 516.056 205.063 519.128 209.444 524.844C217.013 534.709 221.57 546.538 225.976 557.98C227.457 561.827 228.993 565.805 230.614 569.643C233.918 577.458 238.284 586.246 245.606 592.118C247.636 593.744 249.912 595.159 252.113 596.524C255.456 598.599 258.911 600.744 261.635 603.705C266.127 608.59 268.086 615.061 269.295 620.152C271.324 628.728 271.642 635.975 270.262 642.305C268.534 650.236 263.816 656.934 257.647 660.218C254.782 661.743 251.503 662.348 248.24 662.348V662.358ZM197.161 516.872C200.203 522.129 200.203 528.379 200.203 534.432V536.008C200.233 542.671 199.02 549.333 197.846 555.774L197.635 556.927C195.721 567.467 193.873 578.763 193.299 589.988C192.931 597.204 193.173 606.294 198.345 612.548C200.807 615.529 204.237 617.665 207.555 619.729C211.317 622.071 215.205 624.493 217.803 628.185C220.074 631.412 221.107 635.27 222.104 638.996C222.683 641.162 223.282 643.403 224.118 645.478C226.631 651.732 231.602 656.818 237.418 659.085C242.957 661.245 251.035 662.403 257.083 659.18C262.95 656.058 267.437 649.657 269.093 642.063C270.433 635.909 270.121 628.834 268.132 620.434C266.958 615.484 265.06 609.199 260.754 604.516C258.14 601.676 254.756 599.571 251.483 597.541C249.252 596.156 246.946 594.721 244.861 593.049C237.332 587.011 232.881 578.068 229.517 570.111C227.89 566.254 226.349 562.265 224.864 558.408C220.487 547.047 215.96 535.298 208.497 525.569C204.74 520.669 201.019 517.809 197.161 516.872Z" fill="black"/>
<path d="M289.004 672.067C283.742 652.493 281.642 632.928 282.594 612.251C282.921 605.055 283.656 597.778 284.366 590.738C285.081 583.642 285.822 576.305 286.144 569.069C286.834 553.583 285.655 537.816 284.512 522.572C283.268 505.994 281.989 488.847 283.097 471.982C284.331 453.304 288.44 435.004 295.314 417.59L296.422 418.028C289.593 435.326 285.509 453.506 284.286 472.058C283.178 488.842 284.457 505.944 285.696 522.482C286.839 537.761 288.022 553.563 287.327 569.119C287.005 576.391 286.265 583.743 285.55 590.859C284.84 597.884 284.109 605.145 283.782 612.311C282.84 632.863 284.925 652.311 290.157 671.765L289.009 672.072L289.004 672.067Z" fill="black"/>
<path d="M308.086 671.664C306.711 661.658 310.19 651.551 319.028 639.853C322.73 634.953 326.985 630.405 331.099 626.004C334.826 622.021 338.673 617.901 342.088 613.555C350.724 602.547 354.687 591.916 353.866 581.955C353.64 579.211 353.03 576.446 352.441 573.777C351.802 570.876 351.137 567.87 350.951 564.838C350.457 556.887 353.232 549.026 355.684 542.086L356.807 542.484C354.395 549.313 351.666 557.058 352.139 564.768C352.32 567.709 352.975 570.665 353.605 573.525C354.204 576.235 354.823 579.035 355.05 581.86C355.891 592.128 351.847 603.04 343.019 614.291C339.575 618.682 335.707 622.816 331.966 626.82C327.871 631.201 323.636 635.728 319.975 640.573C311.339 652.004 307.934 661.834 309.264 671.508L308.086 671.669V671.664Z" fill="black"/>
<path d="M264.511 671.996C262.652 660.535 257.304 649.511 249.448 640.96C246.799 638.08 243.823 635.411 240.943 632.833C238.757 630.879 236.501 628.854 234.386 626.739C221.555 613.903 213.321 596.902 211.201 578.873C210.551 573.349 210.471 567.704 210.395 562.25C210.32 556.907 210.244 551.383 209.63 545.999C208.598 536.98 205.385 524.728 195.942 517.572L196.663 516.625C206.442 524.038 209.756 536.617 210.813 545.868C211.433 551.307 211.513 556.862 211.589 562.235C211.664 567.663 211.74 573.273 212.384 578.737C214.469 596.499 222.582 613.248 235.227 625.898C237.317 627.988 239.563 629.997 241.733 631.946C244.634 634.545 247.635 637.229 250.32 640.155C258.332 648.877 263.785 660.117 265.679 671.805L264.506 671.996H264.511Z" fill="black"/>
<path d="M531.682 203.052C531.984 203.173 532.316 203.143 532.588 202.977C533.933 202.171 535.846 200.942 537.669 199.497C537.73 199.417 537.805 199.351 537.901 199.306C539.427 198.072 540.867 196.702 541.814 195.292C544.07 191.928 547.484 181.751 547.298 172.127C547.298 172.097 547.298 172.062 547.298 172.032C547.232 169.055 546.825 166.135 545.923 163.486C543.657 156.823 534.215 146.611 522.914 141.716C518.256 139.701 511.433 137.878 505.364 140.628C498.979 143.529 494.532 148.182 492.518 154.094C490.262 160.706 491.037 168.496 494.734 176.785C494.401 174.076 494.119 171.316 494.034 168.562C493.963 166.19 494.039 163.44 495.177 161.048C496.229 158.828 498.611 156.647 501.472 156.733C503.431 156.798 505.359 157.921 506.774 159.81C507.963 161.396 508.643 163.274 509.297 165.223C510.169 167.827 510.939 170.511 511.689 173.104C512.42 175.632 513.17 178.251 514.011 180.774C514.278 181.564 515.345 181.917 516.131 181.736C516.952 181.549 517.727 180.94 518.437 179.933C519.006 179.122 519.435 178.226 519.888 177.284C520.24 176.554 520.603 175.793 521.036 175.078C522.3 173.003 524.052 171.76 525.84 171.674C527.739 171.583 529.672 172.762 531.128 174.907C533.238 178.019 533.807 181.947 532.613 185.155C531.697 187.623 529.703 189.551 527.386 190.458L531.062 202.362C531.158 202.675 531.39 202.921 531.697 203.037L531.682 203.052Z" fill="black"/>
<path d="M533.198 203.994C532.846 204.206 532.453 204.311 532.055 204.311C531.783 204.311 531.511 204.261 531.254 204.16C530.605 203.914 530.116 203.39 529.91 202.725L526.234 190.82C525.665 190.951 525.091 191.047 524.511 191.047C524.416 191.047 524.315 191.047 524.219 191.042C523.892 191.027 523.635 190.75 523.65 190.422C523.665 190.095 523.952 189.884 524.27 189.853C525.01 189.889 525.745 189.778 526.46 189.556C526.46 189.556 526.465 189.556 526.47 189.556C526.48 189.556 526.485 189.556 526.496 189.556C528.691 188.866 530.63 187.079 531.491 184.762C532.554 181.912 532.035 178.402 530.136 175.602C529.562 174.751 527.956 172.767 525.891 172.888C523.917 172.983 522.542 174.902 522.044 175.718C521.641 176.382 521.288 177.113 520.951 177.818C520.498 178.764 520.03 179.746 519.4 180.638C518.519 181.892 517.507 182.662 516.389 182.919C515.064 183.216 513.362 182.637 512.874 181.177C512.028 178.628 511.272 176 510.537 173.457C509.792 170.873 509.026 168.199 508.16 165.621C507.52 163.697 506.896 161.99 505.818 160.545C504.64 158.969 503.003 157.997 501.432 157.941C499.03 157.825 497.137 159.709 496.25 161.577C495.223 163.742 495.152 166.316 495.223 168.547C495.334 172.278 495.822 176.05 496.296 179.696L496.452 180.935C496.643 182.415 496.799 183.629 497.041 185.296C497.051 185.377 497.046 185.457 497.026 185.533C496.895 186.036 496.779 186.605 496.663 187.194C496.371 188.66 496.039 190.327 495.298 191.515C495.167 191.727 495.026 191.938 494.885 192.15C494.337 192.966 493.823 193.741 493.858 194.562C493.893 195.302 494.437 196.012 495.183 196.289C495.898 196.551 496.809 196.41 497.489 195.932C497.66 195.811 497.867 195.801 498.048 195.871C498.124 195.771 498.219 195.69 498.35 195.65C498.672 195.554 498.995 195.74 499.09 196.058C499.413 197.171 499.77 198.173 500.183 199.119C501.09 201.219 502.379 203.309 504.242 205.706C505.194 206.93 506.357 208.325 507.777 209.377C510.955 211.719 515.432 212.283 519.455 210.838C521.52 210.098 523.882 208.35 526.103 205.918C526.324 205.676 526.702 205.656 526.944 205.877C527.18 206.094 527.196 206.447 526.999 206.693C527.07 208.34 527.125 216.287 522.427 219.439L525.216 229.858C527.019 229.732 529.245 229.234 531.677 227.884C533.062 227.119 534.639 226.137 536.31 225.094C539.387 223.181 542.676 221.136 545.813 219.726L537.897 200.842C536.185 202.151 534.452 203.264 533.203 204.009L533.198 203.994ZM500.057 175.008C499.856 175.008 499.654 174.902 499.544 174.716C499.377 174.434 499.473 174.066 499.755 173.9C502.51 172.288 506.085 172.253 508.87 173.809C509.157 173.97 509.258 174.333 509.097 174.62C508.936 174.907 508.573 175.008 508.286 174.847C505.864 173.492 502.746 173.522 500.354 174.927C500.259 174.983 500.158 175.008 500.052 175.008H500.057ZM501.004 183.76C500.244 181.922 500.687 179.993 501.996 179.454C503.305 178.91 504.982 179.963 505.743 181.796C506.503 183.634 506.06 185.563 504.751 186.102C503.441 186.646 501.764 185.593 501.004 183.76ZM513.815 191.445C512.571 195.312 509.384 198.44 505.491 199.613C505.436 199.628 505.375 199.638 505.32 199.638C505.063 199.638 504.826 199.472 504.751 199.215C504.655 198.898 504.831 198.565 505.149 198.475C508.669 197.412 511.554 194.582 512.682 191.082C512.783 190.77 513.12 190.594 513.433 190.699C513.745 190.8 513.916 191.138 513.815 191.45V191.445ZM523.388 184.213C523.162 184.213 522.945 184.082 522.845 183.861C522.265 182.561 521.993 181.393 521.999 180.295C522.009 178.905 522.517 177.611 523.383 176.75C524.406 175.738 525.927 175.37 527.175 175.839C527.689 176.03 528.172 176.357 528.701 176.871C530.539 178.649 531.406 181.247 530.907 183.488C530.836 183.81 530.519 184.012 530.197 183.941C529.875 183.871 529.673 183.549 529.744 183.231C530.157 181.383 529.421 179.223 527.875 177.732C527.467 177.339 527.11 177.093 526.757 176.957C525.952 176.659 524.909 176.921 524.224 177.601C523.907 177.918 523.655 178.316 523.479 178.775C523.721 178.704 523.978 178.649 524.25 178.644C526.083 178.613 527.82 179.953 528.314 181.821C528.757 183.493 528.188 185.432 526.863 186.756C526.747 186.872 526.596 186.933 526.44 186.933C526.284 186.933 526.138 186.872 526.017 186.756C525.785 186.525 525.785 186.147 526.017 185.915C527.044 184.883 527.493 183.397 527.16 182.123C526.813 180.804 525.519 179.762 524.285 179.832C523.832 179.847 523.454 179.998 523.268 180.24C523.247 180.27 523.217 180.285 523.192 180.31C523.187 181.237 523.429 182.244 523.932 183.387C524.068 183.69 523.932 184.042 523.63 184.173C523.55 184.208 523.469 184.223 523.388 184.223V184.213Z" fill="#F5F0EA"/>
<path d="M584.542 142.37C584.542 155.574 576.671 166.955 565.371 172.092C562.954 172.676 560.431 172.973 557.847 172.973C554.645 172.973 551.487 172.495 548.455 171.578C548.37 168.627 547.942 165.742 547.05 163.113C544.512 155.67 534.974 146.313 525.235 141.489C525.225 141.106 525.21 140.714 525.21 140.336C525.21 127.157 533.046 115.796 544.311 110.639C546.738 110.045 549.286 109.733 551.905 109.733C569.908 109.733 584.542 124.377 584.542 142.37Z" fill="black"/>
<path d="M379.77 421.05C379.408 420.138 379.01 419.524 378.511 419.111C378.088 418.763 377.585 418.577 377.116 418.592C377.756 420.848 378.602 422.958 379.543 423.708C379.861 423.96 380.067 423.95 380.198 423.92C380.289 423.9 380.379 423.855 380.475 423.799C380.475 423.784 380.465 423.774 380.465 423.759C380.349 422.827 380.118 421.916 379.77 421.05Z" fill="#F5F0EA"/>
<path d="M407.705 406.284C407.493 405.957 407.302 405.751 407.096 405.64C406.98 405.579 406.859 405.564 406.753 405.569C406.678 408.505 406.904 410.953 407.584 411.703C407.861 412.005 408.183 412.207 408.531 412.312C408.888 409.704 408.631 407.72 407.71 406.289L407.705 406.284Z" fill="#F5F0EA"/>
<path d="M312.914 353.917L305.078 355.15L357.708 436.973L362.074 436.283L365.539 435.734L312.914 353.917Z" fill="#F5F0EA"/>
<path d="M552.197 703.108V735.111H565.703V521.777H552.197V683.715V703.108Z" fill="#F5F0EA"/>
<path d="M384.288 406.284C384.076 405.957 383.885 405.751 383.678 405.64C383.563 405.579 383.442 405.564 383.336 405.569C383.26 408.505 383.487 410.953 384.167 411.703C384.444 412.005 384.766 412.207 385.114 412.312C385.471 409.704 385.214 407.725 384.288 406.289V406.284Z" fill="#F5F0EA"/>
<path d="M460.102 520.588H572.774C579.044 520.588 584.15 515.487 584.15 509.212C584.15 502.938 579.049 497.836 572.774 497.836H441.268L459.991 520.608C460.031 520.603 460.066 520.583 460.107 520.583L460.102 520.588Z" fill="#F5F0EA"/>
<path d="M551.004 684.314H517.471V702.514H551.004V684.314Z" fill="#F5F0EA"/>
<path d="M516.282 644.093C513.029 646.857 508.199 650.926 502.761 655.408C502.761 655.428 502.771 655.444 502.771 655.459V735.116H516.282V644.093Z" fill="#F5F0EA"/>
<path d="M560.724 401.349C536.003 410.424 508.482 407.785 504.176 407.297C503.451 412.413 501.487 423.955 498.219 425.808C497.287 426.337 492.166 426.851 480.674 427.964C476.952 428.321 472.747 428.729 468.22 429.193L468.261 429.449C468.286 429.606 468.245 429.767 468.155 429.893C468.064 430.018 467.923 430.104 467.767 430.129L384.348 443.318C372.343 447.085 364.623 451.315 361.4 455.893C348.654 474.007 346.378 491.265 354.631 507.188C360.297 518.116 460.677 622.131 467.898 629.605L513.704 587.822L425.556 480.604C425.345 480.352 425.385 479.974 425.637 479.768C425.889 479.556 426.267 479.596 426.473 479.848L428.432 482.23C433.105 485.786 444.325 494.336 447.231 496.653H580.097C583.103 496.653 586.009 495.525 588.275 493.48C622.866 462.223 603.821 418.773 596.297 404.834C581.759 408.218 560.724 401.354 560.724 401.354V401.349Z" fill="#20E086"/>
<path d="M501.578 684.314H468.044V702.514H501.578V684.314Z" fill="#F5F0EA"/>
<path d="M516.282 521.777H502.771V572.025C502.771 572.186 502.705 572.332 502.6 572.443L514.978 587.5C515.179 587.741 515.154 588.104 514.917 588.316L506.155 596.307C510.022 598.77 513.376 601.369 516.272 603.962V521.772L516.282 521.777Z" fill="#F5F0EA"/>
<path d="M472.339 627.162L468.275 630.874C468.16 630.979 468.019 631.03 467.872 631.03C467.716 631.03 467.56 630.969 467.444 630.848C466.442 629.811 460.278 623.436 451.304 614.089L440.996 624.7L451.969 640.991C452.1 641.182 452.105 641.429 451.984 641.63C444.018 654.965 432.531 676.116 433.543 679.736C433.563 679.812 433.603 679.918 433.664 679.948C434.873 680.426 442.733 676.352 481.293 643.886C481.515 643.509 481.711 643.181 481.857 642.934L472.329 627.167L472.339 627.162Z" fill="black"/>
<path d="M464.67 682.698C464.478 682.698 464.322 682.667 464.196 682.602C463.954 682.476 463.637 682.209 463.481 681.66C463.003 679.953 464.564 675.627 466.956 670.44C466.895 670.35 466.85 670.244 466.85 670.123V657.453C461.557 661.794 457.101 665.369 453.339 668.31V735.121H466.85V682.033C465.923 682.456 465.168 682.703 464.665 682.703L464.67 682.698Z" fill="#F5F0EA"/>
<path d="M483.65 308.09C483.655 308.322 483.66 308.554 483.665 308.78C486.923 321.999 495.645 351.484 496.94 355.84C501.819 354.596 505.521 353.665 508.331 352.965C507.772 346.514 502.268 280.464 509.298 253.91C513.462 238.178 523.061 234.693 528.414 234.018C537.695 232.845 547.772 237.996 552.4 246.26C563.066 265.321 579.674 375.314 562.441 395.548C573.888 403.238 591.05 400.342 594.006 399.431C596.871 398.549 613.258 372.167 612.996 358.615C612.749 345.517 585.067 267.325 578.208 251.497C571.642 236.344 559.158 220.043 553.472 219.197C549.031 218.548 542.333 222.717 536.94 226.076C535.253 227.124 533.661 228.116 532.251 228.896C528.474 230.986 525.125 231.198 522.975 231.006C521.495 230.87 520.074 231.173 518.861 231.873C516.71 233.111 513.82 235.045 512.239 237.216C509.137 241.476 481.47 296.165 482.507 303.402C482.633 304.298 482.945 305.749 483.388 307.597C483.554 307.698 483.65 307.864 483.655 308.075L483.65 308.09Z" fill="black"/>
<path d="M460.948 521.777L466.855 528.968V521.777H460.948Z" fill="#F5F0EA"/>
<path d="M483.07 643.232C482.819 643.655 482.562 644.088 482.3 644.526C482.3 644.536 482.29 644.546 482.285 644.556C474.368 657.921 463.647 677.833 464.634 681.338C464.654 681.413 464.695 681.514 464.755 681.549C464.815 681.575 464.891 681.585 464.977 681.585C465.384 681.585 466.074 681.323 466.991 680.849C467.097 680.713 467.253 680.623 467.434 680.618C475.068 676.443 496.521 659.371 516.453 642.391C516.453 642.391 516.463 642.38 516.468 642.38C516.982 641.942 517.495 641.509 518.004 641.071L516.332 637.38L510.959 625.525C510.848 625.279 510.914 624.987 511.125 624.815C511.337 624.644 511.639 624.639 511.855 624.8L524.47 634.253L531.455 626.215C530.503 623.854 523.886 608.902 505.258 597.148L473.245 626.351L483.08 642.622C483.196 642.809 483.196 643.045 483.08 643.237L483.07 643.232Z" fill="black"/>
<path d="M497.629 424.771C499.135 423.92 500.434 419.997 501.421 415.717C495.001 415.762 447.764 416.336 405.433 423.9C404.965 424.524 404.446 424.957 403.867 425.083C403.756 425.108 403.63 425.124 403.494 425.124C403.137 425.124 402.694 425.013 402.22 424.64C402.104 424.549 401.999 424.434 401.888 424.318C401.722 425.723 401.359 427.37 401.294 427.662C401.057 428.714 400.81 429.535 400.568 430.2L466.14 419.831C466.452 419.781 466.77 420.002 466.82 420.324L468.034 428.009C472.591 427.546 476.816 427.138 480.558 426.775C489.3 425.929 496.849 425.199 497.634 424.771H497.629Z" fill="#20E086"/>
<path d="M398.594 432.823C398.438 432.869 398.277 432.889 398.116 432.889C397.632 432.889 397.119 432.703 396.585 432.33C396.484 432.259 396.388 432.164 396.288 432.083L358.03 438.131L359.284 446.073L466.981 429.041L465.727 421.1L399.984 431.494C399.365 432.602 398.836 432.758 398.594 432.823Z" fill="#F5F0EA"/>
<path d="M517.108 351.137C517.41 351.268 517.551 351.615 517.425 351.917C517.314 352.179 517.037 352.32 516.765 352.27C515.632 352.3 504.573 355.12 491.787 358.383C479.505 361.516 464.216 365.418 450.372 368.742C444.712 370.102 438.307 370.756 432.661 371.341C425.938 372.031 420.132 372.625 417.775 374.146C400.653 385.199 392.193 400.654 391.901 421.397C391.886 423.22 392.103 425.053 392.4 425.864C392.4 425.874 392.41 425.879 392.41 425.889C392.475 426.065 392.546 426.206 392.616 426.267C392.616 426.257 392.646 426.236 392.672 426.216C392.536 425.738 392.425 425.275 392.39 424.852C392.228 423.059 392.928 415.646 393.543 409.749C393.578 409.422 393.87 409.185 394.197 409.22C394.525 409.256 394.761 409.548 394.726 409.875C393.865 418.144 393.457 423.426 393.573 424.751C393.578 424.826 393.603 424.912 393.613 424.993C393.749 424.907 393.9 424.837 394.062 424.786C394.52 424.65 395.054 424.675 395.592 424.867C396.343 425.134 397.038 425.683 397.607 426.453C398.09 427.108 398.428 427.828 398.755 428.523L399.41 429.908C400.246 427.616 400.86 423.824 400.805 422.898C400.789 422.837 400.794 422.772 400.799 422.706C399.107 419.403 398.12 413.612 398.105 411.995C398.105 411.849 399.102 396.857 399.888 396.384C400.069 396.278 400.301 396.273 400.487 396.374C400.769 396.53 400.88 396.882 400.729 397.17C400.482 398.267 399.269 409.643 399.294 411.98C399.304 412.942 399.651 415.163 400.22 417.434C401.046 417.333 401.958 417.595 402.678 418.189C403.338 418.738 403.846 419.504 404.284 420.606C404.541 421.261 404.722 421.941 404.863 422.626C406.027 420.546 407.014 416.391 407.492 413.133C407.205 412.967 406.928 412.766 406.686 412.499C404.33 409.905 406.047 395.06 407.996 391.847C410.086 388.397 417.352 387.878 417.66 387.858C417.992 387.813 418.269 388.085 418.294 388.412C418.314 388.74 418.067 389.022 417.74 389.047C417.67 389.047 410.786 389.54 409.018 392.461C407.95 394.219 407.034 399.677 406.792 404.371C407.084 404.371 407.386 404.446 407.658 404.592C408.167 404.869 408.494 405.323 408.696 405.64C409.753 407.282 410.086 409.457 409.728 412.262C410.69 411.935 413.716 410.142 414.814 400.574C414.839 400.367 414.97 400.186 415.162 400.1C415.348 400.015 415.57 400.035 415.746 400.151C415.973 400.307 438.755 415.707 456.516 397.376C456.748 397.139 457.126 397.134 457.357 397.361C457.594 397.588 457.599 397.965 457.372 398.202C456.657 398.942 455.932 399.607 455.202 400.241C465.047 401.324 541.204 409.2 559.781 396.399C568.297 390.532 570.976 364.139 567.129 323.988C564.007 291.412 556.931 256.8 551.351 246.839C547.026 239.104 537.236 234.093 528.554 235.196C519.827 236.299 513.391 243.052 510.44 254.212C504.916 275.075 507.202 320.675 508.673 341.977L516.398 351.127C516.79 351.076 516.992 351.086 517.098 351.132L517.108 351.137Z" fill="#F5F0EA"/>
<path d="M397.687 429.021C397.385 428.377 397.073 427.712 396.655 427.153C396.358 426.745 395.859 426.216 395.195 425.98C394.983 425.904 394.676 425.834 394.404 425.919C394.208 425.98 394.051 426.126 394.016 426.277C394.006 426.317 393.986 426.352 393.966 426.388C394.525 427.989 395.582 429.767 396.635 430.814L398.392 430.537L397.682 429.021H397.687Z" fill="#F5F0EA"/>
<path d="M403.181 421.05C402.819 420.138 402.421 419.524 401.922 419.111C401.499 418.758 400.996 418.582 400.532 418.592C401.172 420.853 402.018 422.963 402.96 423.709C403.277 423.96 403.483 423.95 403.609 423.92C403.7 423.9 403.795 423.855 403.886 423.799C403.886 423.784 403.876 423.774 403.871 423.759C403.755 422.832 403.524 421.921 403.181 421.05Z" fill="#F5F0EA"/>
<path d="M370.132 409.744C370.167 409.417 370.464 409.18 370.786 409.215C371.114 409.251 371.35 409.543 371.315 409.87C370.454 418.129 370.046 423.411 370.162 424.746C370.167 424.821 370.192 424.907 370.202 424.988C370.338 424.902 370.489 424.832 370.65 424.781C371.109 424.645 371.642 424.67 372.181 424.862C372.932 425.129 373.627 425.678 374.201 426.448C374.689 427.108 375.037 427.858 375.349 428.518L375.903 429.701C375.958 429.6 376.044 429.525 376.15 429.47C376.91 427.158 377.444 423.764 377.393 422.893C377.378 422.832 377.383 422.767 377.388 422.706C375.696 419.403 374.709 413.612 374.694 411.995C374.694 411.849 375.691 396.852 376.477 396.384C376.658 396.273 376.89 396.273 377.076 396.374C377.358 396.53 377.464 396.883 377.318 397.17C377.071 398.272 375.857 409.643 375.888 411.98C375.898 412.942 376.245 415.158 376.814 417.434C377.645 417.328 378.542 417.585 379.277 418.189C379.936 418.738 380.445 419.504 380.883 420.606C381.14 421.261 381.321 421.936 381.462 422.626C382.626 420.546 383.613 416.391 384.096 413.133C383.809 412.967 383.532 412.766 383.29 412.499C380.934 409.905 382.651 395.06 384.6 391.847C386.69 388.397 393.956 387.878 394.263 387.858C394.621 387.813 394.873 388.085 394.898 388.412C394.918 388.74 394.671 389.022 394.344 389.047C394.274 389.047 387.39 389.54 385.622 392.461C384.554 394.219 383.638 399.677 383.396 404.371C383.688 404.371 383.99 404.446 384.262 404.592C384.771 404.869 385.098 405.323 385.3 405.64C386.357 407.282 386.69 409.457 386.332 412.262C387.294 411.935 390.32 410.142 391.418 400.574C391.443 400.367 391.574 400.186 391.766 400.1C391.957 400.015 392.179 400.035 392.35 400.151C392.355 400.151 392.989 400.589 394.097 401.218C398.116 389.787 405.73 380.501 417.131 373.144C419.73 371.467 425.667 370.857 432.546 370.152C438.156 369.578 444.516 368.923 450.101 367.584C463.935 364.265 479.218 360.362 491.501 357.23C493.022 356.842 494.447 356.48 495.791 356.137C494.573 352.028 487.664 328.697 483.826 314.179C484.446 332.983 485.79 349.208 486.092 352.678C491.979 351.227 493.359 350.986 493.701 351.142C494.004 351.268 494.145 351.62 494.019 351.922C493.908 352.184 493.626 352.325 493.359 352.275C492.226 352.305 481.162 355.125 468.371 358.393C456.089 361.526 440.805 365.424 426.971 368.747C421.306 370.107 414.905 370.762 409.255 371.346C402.532 372.036 396.726 372.63 394.369 374.151C377.247 385.204 368.787 400.659 368.495 421.402C368.475 423.653 368.812 425.944 369.21 426.272C369.21 426.262 369.24 426.242 369.265 426.221C369.13 425.743 369.019 425.28 368.983 424.857C368.822 423.054 369.522 415.646 370.137 409.754L370.132 409.744Z" fill="#F5F0EA"/>
<path d="M373.243 427.158C372.946 426.75 372.448 426.221 371.783 425.985C371.572 425.909 371.264 425.844 370.992 425.924C370.801 425.985 370.64 426.131 370.61 426.277C370.6 426.317 370.574 426.352 370.559 426.393C371.229 428.311 372.624 430.497 373.853 431.353C374.135 431.549 374.543 431.771 374.87 431.675C375.026 431.63 375.182 431.489 375.338 431.282L374.276 429.026C373.974 428.387 373.666 427.722 373.248 427.158H373.243Z" fill="#F5F0EA"/>
<path d="M512.993 627.132L516.282 634.384V629.594L512.993 627.132Z" fill="#F5F0EA"/>
<path d="M360.418 455.198C363.162 451.3 368.923 447.669 377.585 444.381L358.887 447.337C358.857 447.337 358.827 447.342 358.791 447.342C358.504 447.342 358.252 447.13 358.202 446.838L356.807 438.015C346.861 442.84 340.108 448.399 336.744 454.548C336.629 454.78 324.22 480.377 332.066 494.83C339.761 509.001 430.094 618.495 437.109 626.986L450.474 613.228C419.776 581.245 358.101 516.479 353.564 507.732C345.089 491.38 347.39 473.705 360.413 455.198H360.418Z" fill="#20E086"/>
<path d="M393.065 427.339C392.889 427.415 392.728 427.455 392.582 427.455C392.435 427.455 392.305 427.425 392.194 427.38C391.912 427.269 391.685 427.027 391.499 426.7C386.367 427.858 381.523 429.107 377.071 430.421C376.255 432.526 375.485 432.738 375.183 432.823C375.027 432.869 374.865 432.889 374.704 432.889C374.221 432.889 373.707 432.703 373.173 432.33C372.947 432.174 372.72 431.977 372.494 431.761C372.428 431.826 372.358 431.877 372.267 431.907C370.061 432.627 367.941 433.377 365.927 434.138L366.823 435.533L395.24 431.041C394.379 430.013 393.599 428.669 393.065 427.344V427.339Z" fill="#F5F0EA"/>
<path d="M508.971 353.423L508.024 341.201L516.877 351.686L508.971 353.423Z" fill="black"/>
<path d="M426.372 480.664C426.372 480.664 448.192 497.247 447.931 497.247H440.055L426.372 480.664Z" fill="black"/>
<path d="M503.577 407.221C503.577 407.221 533.818 411.22 560.724 401.344C560.724 401.344 582.368 408.415 596.922 404.683L594.183 400.005C594.183 400.005 578.133 405.836 561.555 395.674C561.555 395.674 550.643 407.282 503.577 404.134V407.221Z" fill="black"/>
<path d="M392.589 427.455C392.443 427.455 392.312 427.425 392.201 427.38C390.861 426.861 390.695 423.396 390.715 421.377C391.012 400.206 399.654 384.429 417.133 373.144C419.732 371.467 425.669 370.857 432.548 370.152C438.158 369.578 444.518 368.923 450.103 367.584C463.932 364.265 479.205 360.368 491.483 357.235C513.192 351.696 516.551 350.9 517.115 351.142C517.418 351.273 517.559 351.62 517.428 351.922C517.317 352.184 517.03 352.325 516.768 352.275C515.635 352.305 504.566 355.125 491.77 358.393C479.493 361.526 464.209 365.424 450.375 368.747C444.715 370.107 438.309 370.762 432.664 371.341C425.941 372.031 420.13 372.625 417.773 374.151C400.651 385.204 392.191 400.659 391.899 421.402C391.879 423.653 392.216 425.944 392.619 426.272C392.629 426.247 392.725 426.191 392.881 426.015C393.102 425.768 393.48 425.753 393.722 425.97C393.969 426.191 393.989 426.564 393.767 426.811C393.314 427.314 392.906 427.465 392.584 427.465L392.589 427.455Z" fill="black"/>
<path d="M409.056 413.576C408.175 413.576 407.339 413.204 406.699 412.504C404.342 409.91 406.06 395.065 408.009 391.847C410.098 388.397 417.365 387.883 417.672 387.858C418 387.843 418.287 388.085 418.307 388.412C418.327 388.74 418.08 389.022 417.753 389.047C417.682 389.047 410.798 389.54 409.031 392.461C407.183 395.513 405.768 409.699 407.585 411.698C408.16 412.328 408.91 412.534 409.706 412.277C410.627 411.98 413.719 410.258 414.832 400.574C414.857 400.367 414.988 400.186 415.18 400.1C415.366 400.015 415.593 400.035 415.764 400.151C415.99 400.307 438.773 415.702 456.534 397.371C456.766 397.134 457.143 397.129 457.375 397.356C457.612 397.583 457.617 397.96 457.39 398.197C440.862 415.253 420.22 404.255 415.905 401.641C414.646 410.948 411.433 412.972 410.078 413.405C409.741 413.516 409.398 413.566 409.066 413.566L409.056 413.576Z" fill="black"/>
<path d="M403.497 425.124C403.139 425.124 402.696 425.013 402.223 424.64C399.674 422.616 398.133 414.025 398.113 412C398.113 411.854 399.11 396.862 399.896 396.389C400.077 396.278 400.309 396.273 400.495 396.379C400.777 396.535 400.883 396.888 400.737 397.175C400.49 398.277 399.277 409.653 399.307 411.99C399.327 414.075 400.923 422.087 402.968 423.714C403.285 423.965 403.492 423.955 403.623 423.93C405.34 423.552 406.966 417.157 407.571 412.735C407.616 412.408 407.913 412.181 408.24 412.227C408.568 412.272 408.794 412.569 408.749 412.897C408.487 414.81 407.022 424.398 403.879 425.093C403.769 425.119 403.643 425.134 403.507 425.134L403.497 425.124Z" fill="black"/>
<path d="M398.118 432.884C397.635 432.884 397.121 432.698 396.587 432.325C394.689 431.006 392.609 427.299 392.393 424.847C392.231 423.054 392.931 415.641 393.546 409.744C393.581 409.417 393.878 409.175 394.2 409.215C394.528 409.251 394.764 409.543 394.729 409.87C393.868 418.139 393.46 423.422 393.576 424.746C393.762 426.841 395.656 430.235 397.262 431.353C397.544 431.549 397.957 431.766 398.28 431.675C399.619 431.308 400.883 424.207 400.808 422.898C400.752 422.711 400.792 422.5 400.928 422.344C401.145 422.097 401.518 422.067 401.769 422.283C402.369 422.807 401.387 427.203 401.276 427.702C400.208 432.38 398.995 432.713 398.592 432.823C398.436 432.869 398.274 432.889 398.108 432.889L398.118 432.884Z" fill="black"/>
<path d="M512.835 404.89C485.032 404.89 456.071 401.551 454.026 401.309C453.699 401.269 453.467 400.977 453.502 400.649C453.543 400.322 453.835 400.09 454.162 400.126C455.018 400.226 540.023 410.021 559.789 396.404C568.305 390.537 570.984 364.144 567.136 323.994C564.014 291.417 556.939 256.81 551.364 246.844C547.038 239.109 537.239 234.104 528.567 235.201C519.84 236.304 513.404 243.057 510.453 254.217C503.151 281.803 509.501 352.653 509.567 353.368C509.597 353.695 509.355 353.982 509.028 354.012C508.7 354.048 508.408 353.801 508.378 353.473C508.313 352.758 501.942 281.702 509.3 253.91C513.464 238.178 523.063 234.693 528.416 234.018C537.692 232.84 547.774 237.996 552.401 246.26C563.45 266.006 580.874 383.321 560.464 397.381C552.064 403.172 532.742 404.884 512.83 404.884L512.835 404.89Z" fill="black"/>
<path d="M409.096 413.234C409.066 413.234 409.036 413.234 409.006 413.229C408.683 413.179 408.457 412.876 408.507 412.549C408.92 409.815 408.658 407.765 407.706 406.284C407.495 405.957 407.304 405.751 407.097 405.64C406.916 405.539 406.699 405.529 406.578 405.605C406.301 405.786 405.934 405.715 405.752 405.438C405.571 405.166 405.642 404.794 405.919 404.613C406.412 404.285 407.097 404.28 407.671 404.587C408.18 404.864 408.507 405.318 408.709 405.635C409.821 407.367 410.144 409.689 409.685 412.72C409.64 413.017 409.388 413.229 409.096 413.229V413.234Z" fill="black"/>
<path d="M404.468 424.283C404.171 424.283 403.914 424.061 403.879 423.759C403.763 422.832 403.531 421.921 403.189 421.05C402.826 420.138 402.428 419.524 401.93 419.111C401.356 418.637 400.626 418.466 400.062 418.678C399.759 418.794 399.412 418.637 399.296 418.33C399.18 418.023 399.336 417.681 399.644 417.565C400.615 417.197 401.784 417.444 402.69 418.199C403.35 418.748 403.859 419.514 404.297 420.617C404.679 421.578 404.936 422.586 405.062 423.618C405.102 423.945 404.871 424.242 404.543 424.283C404.518 424.283 404.493 424.283 404.468 424.283Z" fill="black"/>
<path d="M399.307 431.655C399.085 431.655 398.869 431.529 398.768 431.313L397.69 429.021C397.373 428.347 397.071 427.712 396.663 427.153C396.366 426.75 395.867 426.216 395.202 425.98C394.991 425.904 394.684 425.834 394.412 425.914C394.215 425.975 394.059 426.121 394.024 426.272C393.954 426.594 393.646 426.801 393.314 426.73C392.992 426.66 392.79 426.342 392.861 426.02C392.987 425.446 393.46 424.957 394.069 424.776C394.528 424.635 395.061 424.665 395.6 424.857C396.351 425.124 397.046 425.672 397.62 426.443C398.098 427.093 398.44 427.813 398.768 428.508L399.845 430.799C399.986 431.096 399.856 431.454 399.558 431.59C399.478 431.63 399.392 431.645 399.307 431.645V431.655Z" fill="black"/>
<path d="M369.171 427.455C369.025 427.455 368.895 427.425 368.784 427.38C367.444 426.861 367.278 423.396 367.298 421.377C367.595 400.206 376.237 384.429 393.716 373.144C396.315 371.467 402.252 370.857 409.131 370.152C414.741 369.578 421.101 368.923 426.686 367.584C440.509 364.265 455.783 360.368 468.056 357.235C489.775 351.696 493.129 350.895 493.698 351.137C494 351.268 494.141 351.615 494.01 351.917C493.9 352.179 493.613 352.32 493.351 352.27C492.213 352.3 481.144 355.125 468.348 358.388C456.07 361.521 440.791 365.419 426.963 368.737C421.303 370.097 414.897 370.751 409.252 371.331C402.529 372.021 396.723 372.615 394.366 374.141C377.244 385.194 368.784 400.649 368.492 421.392C368.471 423.643 368.809 425.934 369.207 426.262C369.217 426.237 369.312 426.181 369.469 426.005C369.69 425.758 370.068 425.743 370.31 425.96C370.556 426.181 370.576 426.554 370.355 426.801C369.902 427.304 369.499 427.455 369.171 427.455Z" fill="black"/>
<path d="M385.644 413.576C384.762 413.576 383.926 413.204 383.287 412.504C380.93 409.91 382.647 395.065 384.596 391.847C386.686 388.397 393.953 387.883 394.26 387.858C394.587 387.843 394.874 388.085 394.895 388.412C394.915 388.74 394.668 389.022 394.341 389.047C394.27 389.047 387.386 389.54 385.618 392.461C383.77 395.513 382.355 409.699 384.173 411.698C384.742 412.328 385.498 412.534 386.293 412.277C387.215 411.98 390.307 410.258 391.42 400.574C391.445 400.367 391.576 400.186 391.767 400.1C391.954 400.015 392.18 400.035 392.351 400.151C392.361 400.156 393.228 400.75 394.723 401.566C395.01 401.722 395.121 402.085 394.965 402.372C394.809 402.659 394.441 402.764 394.159 402.613C393.464 402.236 392.905 401.908 392.492 401.652C391.233 410.958 388.021 412.977 386.666 413.41C386.329 413.516 385.986 413.571 385.654 413.571L385.644 413.576Z" fill="black"/>
<path d="M380.084 425.124C379.727 425.124 379.284 425.013 378.81 424.64C376.262 422.621 374.721 414.025 374.701 412C374.701 411.854 375.698 396.862 376.484 396.389C376.665 396.278 376.897 396.278 377.083 396.379C377.37 396.535 377.476 396.888 377.325 397.175C377.068 398.293 375.864 409.533 375.894 411.985C375.92 414.07 377.511 422.087 379.556 423.709C379.873 423.96 380.079 423.95 380.205 423.92C381.922 423.537 383.549 417.147 384.153 412.725C384.199 412.398 384.496 412.171 384.823 412.217C385.15 412.262 385.377 412.559 385.332 412.886C385.07 414.8 383.604 424.388 380.457 425.083C380.346 425.109 380.22 425.124 380.084 425.124Z" fill="black"/>
<path d="M374.706 432.884C374.223 432.884 373.709 432.698 373.175 432.325C371.277 431.005 369.197 427.299 368.98 424.847C368.819 423.054 369.519 415.641 370.134 409.744C370.169 409.417 370.456 409.175 370.788 409.215C371.116 409.251 371.352 409.543 371.317 409.87C370.456 418.139 370.048 423.421 370.164 424.746C370.35 426.841 372.244 430.235 373.85 431.353C374.132 431.549 374.54 431.766 374.867 431.675C376.212 431.308 377.476 424.207 377.395 422.898C377.34 422.711 377.38 422.5 377.516 422.344C377.733 422.092 378.11 422.067 378.357 422.283C378.957 422.802 377.99 427.163 377.874 427.657C376.806 432.375 375.582 432.713 375.18 432.823C375.024 432.864 374.862 432.889 374.701 432.889L374.706 432.884Z" fill="black"/>
<path d="M485.555 354.017C485.253 354.017 484.991 353.786 484.961 353.479C484.941 353.267 483.002 331.809 482.458 308.121C482.453 307.793 482.71 307.521 483.037 307.511C483.415 307.526 483.636 307.763 483.647 308.09C484.19 331.739 486.124 353.156 486.144 353.368C486.175 353.695 485.933 353.982 485.605 354.012C485.585 354.012 485.57 354.012 485.55 354.012L485.555 354.017Z" fill="black"/>
<path d="M385.679 413.234C385.649 413.234 385.619 413.234 385.589 413.229C385.266 413.179 385.04 412.876 385.09 412.549C385.503 409.815 385.241 407.765 384.289 406.285C384.078 405.957 383.887 405.751 383.68 405.64C383.499 405.539 383.282 405.529 383.161 405.605C382.884 405.786 382.517 405.715 382.335 405.438C382.154 405.167 382.225 404.794 382.502 404.613C382.995 404.285 383.68 404.28 384.254 404.587C384.763 404.864 385.09 405.318 385.292 405.635C386.404 407.367 386.727 409.684 386.263 412.72C386.218 413.017 385.966 413.229 385.674 413.229L385.679 413.234Z" fill="black"/>
<path d="M381.051 424.283C380.754 424.283 380.497 424.061 380.462 423.759C380.346 422.832 380.114 421.921 379.772 421.05C379.409 420.138 379.012 419.524 378.513 419.111C377.939 418.632 377.204 418.466 376.64 418.678C376.338 418.794 375.99 418.637 375.874 418.33C375.758 418.023 375.914 417.681 376.222 417.565C377.173 417.207 378.372 417.454 379.268 418.199C379.928 418.748 380.437 419.514 380.875 420.617C381.258 421.583 381.514 422.591 381.64 423.618C381.681 423.945 381.449 424.242 381.122 424.283C381.096 424.283 381.071 424.283 381.046 424.283H381.051Z" fill="black"/>
<path d="M375.889 431.655C375.667 431.655 375.451 431.529 375.35 431.313L374.272 429.021C373.97 428.382 373.658 427.717 373.245 427.158C372.948 426.755 372.449 426.221 371.784 425.985C371.578 425.909 371.266 425.839 370.994 425.919C370.802 425.975 370.641 426.126 370.606 426.277C370.536 426.599 370.233 426.806 369.896 426.735C369.574 426.665 369.372 426.347 369.443 426.025C369.569 425.451 370.042 424.962 370.651 424.781C371.11 424.645 371.643 424.67 372.187 424.862C372.938 425.129 373.633 425.678 374.202 426.448C374.685 427.103 375.023 427.823 375.35 428.518L376.427 430.809C376.569 431.106 376.443 431.464 376.14 431.6C376.06 431.64 375.974 431.655 375.889 431.655Z" fill="black"/>
<path d="M514.919 212.797C512.059 212.797 509.279 211.951 507.063 210.314C505.522 209.176 504.294 207.706 503.291 206.416C501.373 203.944 500.033 201.768 499.081 199.573C498.653 198.586 498.281 197.538 497.938 196.365C497.848 196.048 498.029 195.72 498.346 195.625C498.664 195.529 498.991 195.715 499.087 196.027C499.414 197.15 499.771 198.153 500.179 199.094C501.091 201.194 502.38 203.289 504.238 205.681C505.19 206.905 506.353 208.3 507.773 209.352C510.951 211.699 515.423 212.258 519.452 210.813C521.516 210.072 523.878 208.325 526.099 205.893C526.32 205.651 526.698 205.631 526.94 205.852C527.182 206.074 527.202 206.452 526.98 206.693C524.633 209.267 522.1 211.13 519.854 211.931C518.248 212.51 516.571 212.792 514.919 212.792V212.797Z" fill="black"/>
<path d="M524.512 191.042C524.416 191.042 524.315 191.042 524.22 191.037C523.892 191.022 523.635 190.745 523.651 190.418C523.666 190.09 523.958 189.833 524.27 189.849C527.307 189.984 530.343 187.829 531.486 184.752C532.549 181.897 532.03 178.387 530.132 175.587C529.553 174.736 527.981 172.767 525.886 172.873C523.912 172.968 522.538 174.887 522.039 175.703C521.631 176.368 521.284 177.103 520.941 177.808C520.488 178.755 520.02 179.731 519.39 180.623C518.509 181.877 517.497 182.647 516.379 182.904C515.064 183.206 513.352 182.622 512.864 181.157C512.013 178.603 511.257 175.97 510.522 173.422C509.782 170.843 509.011 168.174 508.15 165.606C507.506 163.682 506.886 161.975 505.808 160.525C504.63 158.948 502.988 157.977 501.422 157.921C499.081 157.881 497.127 159.689 496.24 161.557C495.218 163.712 495.143 166.18 495.213 168.527C495.324 172.258 495.812 176.03 496.286 179.676L496.432 180.829C496.628 182.35 496.784 183.579 497.031 185.276C497.076 185.603 496.855 185.905 496.527 185.951C496.205 185.996 495.898 185.774 495.853 185.447C495.606 183.74 495.445 182.506 495.248 180.98L495.102 179.827C494.629 176.151 494.135 172.354 494.02 168.562C493.949 166.19 494.03 163.44 495.163 161.048C496.215 158.828 498.607 156.632 501.457 156.733C503.416 156.798 505.345 157.921 506.76 159.81C507.944 161.396 508.629 163.274 509.278 165.223C510.144 167.817 510.92 170.496 511.665 173.089C512.395 175.627 513.151 178.246 513.992 180.779C514.254 181.57 515.321 181.922 516.107 181.741C517.134 181.504 517.925 180.633 518.413 179.938C518.982 179.127 519.41 178.236 519.864 177.289C520.216 176.554 520.579 175.798 521.017 175.083C522.281 173.009 524.028 171.77 525.821 171.679C527.709 171.573 529.648 172.767 531.109 174.912C533.219 178.024 533.788 181.952 532.594 185.16C531.31 188.605 527.941 191.037 524.502 191.037L524.512 191.042Z" fill="black"/>
<path d="M524.765 231.067C524.503 231.067 524.261 230.891 524.191 230.624L519.079 211.533C518.994 211.216 519.185 210.888 519.502 210.803C519.815 210.717 520.147 210.908 520.232 211.226L525.344 230.317C525.429 230.634 525.238 230.961 524.921 231.047C524.871 231.062 524.82 231.067 524.77 231.067H524.765Z" fill="black"/>
<path d="M546.483 220.366C546.252 220.366 546.03 220.23 545.935 220.003L537.585 200.086C537.459 199.784 537.6 199.432 537.902 199.306C538.205 199.175 538.557 199.321 538.683 199.623L547.032 219.54C547.158 219.842 547.017 220.195 546.715 220.32C546.64 220.351 546.564 220.366 546.483 220.366Z" fill="black"/>
<path d="M582.46 401.974C575.762 401.974 567.619 400.73 561.209 396.162C560.942 395.971 560.876 395.598 561.068 395.332C561.259 395.065 561.632 395.004 561.899 395.19C573.335 403.344 591.001 400.362 594.002 399.436C596.868 398.554 613.254 372.172 612.993 358.625C612.746 345.527 585.064 267.335 578.205 251.507C571.638 236.355 559.154 220.054 553.469 219.207C549.027 218.548 542.329 222.728 536.936 226.086C535.249 227.134 533.658 228.126 532.248 228.907C528.466 230.996 525.112 231.208 522.972 231.012C521.496 230.881 520.071 231.178 518.857 231.878C516.707 233.117 513.816 235.05 512.235 237.226C509.133 241.486 481.471 296.175 482.503 303.412C483.571 310.865 496.966 355.926 497.102 356.379C497.193 356.696 497.017 357.024 496.699 357.119C496.377 357.215 496.05 357.034 495.959 356.717C495.405 354.858 482.403 311.117 481.325 303.578C480.157 295.395 509.294 239.245 511.273 236.526C512.975 234.184 516.017 232.145 518.263 230.85C519.688 230.03 521.355 229.677 523.077 229.828C525.056 230.004 528.153 229.808 531.668 227.864C533.053 227.099 534.63 226.117 536.301 225.074C542.153 221.428 548.78 217.304 553.64 218.024C559.879 218.956 572.348 234.995 579.298 251.029C586.358 267.325 613.924 345.028 614.186 358.595C614.448 372.267 598.016 399.441 594.355 400.569C592.653 401.093 588.06 401.964 582.455 401.964L582.46 401.974Z" fill="black"/>
<path d="M532.062 204.311C531.79 204.311 531.518 204.261 531.256 204.16C530.606 203.909 530.118 203.385 529.911 202.72L526.074 190.287C525.978 189.974 526.154 189.637 526.467 189.541C526.779 189.446 527.116 189.622 527.212 189.934L531.049 202.368C531.145 202.68 531.377 202.927 531.684 203.042C531.986 203.158 532.318 203.128 532.59 202.967C535.128 201.451 539.701 198.435 541.811 195.287C544.772 190.871 549.742 174.721 545.915 163.481C543.649 156.818 534.207 146.601 522.901 141.711C518.243 139.696 511.415 137.873 505.351 140.623C498.966 143.524 494.519 148.177 492.505 154.089C489.957 161.552 491.266 170.516 496.292 180.008C496.448 180.3 496.337 180.658 496.045 180.814C495.753 180.97 495.39 180.859 495.239 180.567C490.057 170.778 488.718 161.492 491.377 153.706C493.502 147.477 498.165 142.577 504.858 139.54C509.974 137.219 516.38 137.591 523.375 140.618C533.733 145.1 544.349 155.187 547.043 163.098C550.991 174.706 545.855 191.384 542.798 195.947C540.557 199.291 535.823 202.418 533.2 203.989C532.847 204.201 532.454 204.306 532.056 204.306L532.062 204.311Z" fill="black"/>
<path d="M557.844 174.157C554.385 174.157 550.97 173.638 547.697 172.611C547.385 172.51 547.209 172.178 547.309 171.865C547.405 171.553 547.747 171.377 548.055 171.478C551.212 172.47 554.506 172.968 557.844 172.968C575.843 172.968 590.482 158.329 590.482 140.331C590.482 122.333 575.843 107.693 557.844 107.693C539.846 107.693 525.207 122.333 525.207 140.331C525.207 140.829 525.217 141.328 525.242 141.821C525.257 142.149 525.001 142.426 524.673 142.441C524.341 142.461 524.069 142.199 524.054 141.872C524.034 141.358 524.019 140.845 524.019 140.326C524.019 121.673 539.192 106.5 557.844 106.5C576.497 106.5 591.67 121.673 591.67 140.326C591.67 158.979 576.497 174.152 557.844 174.152V174.157Z" fill="black"/>
<path d="M358.797 447.347C358.671 447.347 358.55 447.307 358.45 447.231C358.324 447.14 358.238 446.999 358.213 446.843L356.773 437.723C356.722 437.396 356.944 437.094 357.266 437.043L466.141 419.831C466.298 419.806 466.454 419.846 466.585 419.937C466.711 420.027 466.796 420.168 466.821 420.324L468.262 429.444C468.312 429.772 468.09 430.074 467.768 430.124L358.893 447.337C358.863 447.342 358.832 447.342 358.802 447.342L358.797 447.347ZM358.037 438.126L359.291 446.068L466.988 429.042L465.734 421.1L358.037 438.131V438.126Z" fill="black"/>
<path d="M357.418 438.217C357.217 438.217 357.03 438.116 356.915 437.945L303.585 355.03C303.479 354.858 303.459 354.647 303.545 354.466C303.625 354.284 303.796 354.153 303.993 354.123L313.113 352.683C313.349 352.648 313.581 352.753 313.707 352.95L367.037 435.865C367.142 436.036 367.163 436.248 367.077 436.429C366.996 436.61 366.825 436.741 366.629 436.772L357.509 438.212C357.479 438.217 357.448 438.217 357.418 438.217ZM305.081 355.155L357.705 436.973L365.541 435.734L312.916 353.917L305.081 355.155Z" fill="black"/>
<path d="M580.098 497.841H440.056C439.729 497.841 439.462 497.575 439.462 497.247C439.462 496.92 439.729 496.653 440.056 496.653H580.098C583.104 496.653 586.01 495.525 588.276 493.48C609.94 473.901 610.278 449.658 606.743 432.768C602.9 414.392 593.78 400.478 593.685 400.342C593.503 400.065 593.579 399.698 593.851 399.516C594.123 399.335 594.491 399.411 594.677 399.682C594.768 399.823 603.998 413.899 607.896 432.486C611.502 449.694 611.164 474.394 589.072 494.362C586.589 496.608 583.402 497.841 580.098 497.841Z" fill="black"/>
<path d="M467.869 631.025C467.713 631.025 467.556 630.964 467.441 630.843C463.034 626.291 359.497 519.163 353.57 507.727C345.094 491.375 347.396 473.705 360.419 455.198C363.798 450.399 371.739 446.012 384.027 442.16C384.344 442.064 384.676 442.236 384.772 442.548C384.868 442.86 384.696 443.197 384.379 443.293C372.349 447.065 364.613 451.3 361.39 455.878C348.645 473.992 346.369 491.249 354.622 507.173C360.288 518.101 460.667 622.111 467.889 629.589L513.695 587.807L425.547 480.589C425.336 480.337 425.376 479.959 425.628 479.753C425.88 479.541 426.257 479.581 426.464 479.833L514.969 587.49C515.17 587.736 515.145 588.094 514.909 588.306L468.261 630.859C468.146 630.964 468.005 631.015 467.859 631.015L467.869 631.025Z" fill="black"/>
<path d="M467.531 429.253C467.229 429.253 466.972 429.026 466.942 428.719C466.907 428.392 467.149 428.1 467.476 428.065C472.255 427.576 476.666 427.153 480.569 426.775C489.306 425.929 496.855 425.199 497.636 424.771C500.562 423.114 502.712 409.86 503.296 404.895C503.336 404.567 503.628 404.336 503.956 404.371C504.283 404.411 504.515 404.703 504.479 405.031C504.258 406.919 502.203 423.552 498.225 425.808C497.293 426.337 492.177 426.851 480.685 427.959C476.787 428.337 472.376 428.765 467.597 429.248C467.577 429.248 467.557 429.248 467.536 429.248L467.531 429.253Z" fill="black"/>
<path d="M437.075 628.471C437.075 628.471 437.06 628.471 437.05 628.471C436.883 628.466 436.722 628.386 436.616 628.255C432.638 623.441 339.042 510.174 331.025 495.399C322.887 480.407 335.169 455.072 335.698 454.004C339.258 447.488 346.384 441.661 356.889 436.656C357.186 436.515 357.543 436.641 357.679 436.938C357.82 437.235 357.695 437.587 357.397 437.733C347.124 442.623 340.175 448.284 336.75 454.553C336.635 454.79 324.226 480.382 332.072 494.835C339.767 509.011 430.1 618.501 437.115 626.991L450.888 612.815C451.12 612.578 451.497 612.573 451.729 612.805C451.966 613.032 451.971 613.409 451.739 613.646L437.503 628.295C437.392 628.411 437.236 628.477 437.075 628.477V628.471Z" fill="black"/>
<path d="M365.027 434.43C364.785 434.43 364.564 434.284 364.473 434.047C364.357 433.74 364.508 433.398 364.816 433.277C367.047 432.421 369.434 431.575 371.901 430.774C372.223 430.673 372.551 430.844 372.651 431.157C372.752 431.469 372.581 431.806 372.269 431.907C369.821 432.708 367.454 433.539 365.239 434.39C365.168 434.415 365.098 434.43 365.027 434.43Z" fill="black"/>
<path d="M376.433 430.577C376.176 430.577 375.939 430.411 375.864 430.149C375.773 429.832 375.949 429.505 376.266 429.409C381.015 427.994 386.207 426.655 391.701 425.426C392.024 425.355 392.341 425.557 392.411 425.879C392.482 426.201 392.28 426.519 391.958 426.589C386.489 427.813 381.322 429.142 376.599 430.552C376.543 430.567 376.483 430.577 376.428 430.577H376.433Z" fill="black"/>
<path d="M405.112 423.945C404.83 423.945 404.578 423.744 404.528 423.457C404.467 423.135 404.684 422.822 405.011 422.767C450.47 414.619 501.654 414.523 502.163 414.523C502.49 414.523 502.757 414.79 502.757 415.117C502.757 415.445 502.49 415.712 502.163 415.712C501.654 415.712 450.576 415.807 405.218 423.935C405.182 423.94 405.147 423.945 405.112 423.945Z" fill="black"/>
<path d="M464.671 682.698C464.479 682.698 464.323 682.667 464.197 682.602C463.956 682.476 463.638 682.209 463.482 681.66C462.037 676.519 479.103 647.562 481.863 642.929L471.963 626.548C471.791 626.266 471.882 625.898 472.164 625.732C472.446 625.566 472.814 625.651 472.98 625.933L483.067 642.622C483.182 642.809 483.182 643.045 483.067 643.237C475.1 656.572 463.613 677.722 464.625 681.343C464.645 681.424 464.686 681.524 464.746 681.555C467.41 682.582 494.11 661.497 517.995 641.071L510.945 625.521C510.834 625.274 510.9 624.982 511.111 624.81C511.323 624.639 511.625 624.634 511.842 624.8L524.456 634.253L531.441 626.221C530.479 623.844 523.787 608.701 504.867 596.907C504.59 596.731 504.504 596.368 504.676 596.086C504.852 595.804 505.219 595.723 505.496 595.895C526.36 608.897 532.625 625.964 532.685 626.135C532.755 626.336 532.715 626.563 532.574 626.724L524.99 635.446C524.789 635.683 524.436 635.718 524.184 635.532L512.985 627.137L519.259 640.981C519.37 641.222 519.305 641.504 519.103 641.681C510.92 648.685 470.86 682.698 464.656 682.703L464.671 682.698Z" fill="black"/>
<path d="M433.716 681.121C433.464 681.121 433.273 681.071 433.116 680.99C432.875 680.865 432.557 680.598 432.401 680.049C430.956 674.912 447.982 646.022 450.772 641.338L439.739 624.962C439.557 624.69 439.628 624.317 439.9 624.136C440.172 623.954 440.539 624.025 440.726 624.297L451.971 640.986C452.102 641.177 452.107 641.424 451.986 641.625C444.019 654.96 432.527 676.111 433.544 679.732C433.565 679.812 433.605 679.913 433.665 679.943C434.919 680.421 442.75 676.342 481.375 643.816C481.627 643.604 481.999 643.634 482.216 643.886C482.428 644.138 482.397 644.516 482.146 644.727C445.57 675.522 436.395 681.126 433.711 681.126L433.716 681.121Z" fill="black"/>
<path d="M572.771 521.782H460.098C459.771 521.782 459.504 521.515 459.504 521.188C459.504 520.86 459.771 520.593 460.098 520.593H572.771C579.04 520.593 584.147 515.492 584.147 509.217C584.147 502.943 579.045 497.841 572.771 497.841H440.524C440.197 497.841 439.93 497.575 439.93 497.247C439.93 496.92 440.197 496.653 440.524 496.653H572.771C579.7 496.653 585.335 502.288 585.335 509.217C585.335 516.147 579.7 521.782 572.771 521.782Z" fill="black"/>
<path d="M566.3 736.304H551.6C551.273 736.304 551.006 736.037 551.006 735.71V521.188C551.006 520.86 551.273 520.593 551.6 520.593H566.3C566.627 520.593 566.894 520.86 566.894 521.188V735.71C566.894 736.037 566.627 736.304 566.3 736.304ZM552.194 735.116H565.706V521.782H552.194V735.116Z" fill="black"/>
<path d="M516.878 736.304H502.178C501.851 736.304 501.584 736.037 501.584 735.71V655.459C501.584 655.131 501.851 654.864 502.178 654.864C502.506 654.864 502.772 655.131 502.772 655.459V735.116H516.284V642.804C516.284 642.476 516.551 642.209 516.878 642.209C517.205 642.209 517.472 642.476 517.472 642.804V735.71C517.472 736.037 517.205 736.304 516.878 736.304Z" fill="black"/>
<path d="M516.878 637.732C516.551 637.732 516.284 637.466 516.284 637.138V629.302C516.284 628.975 516.551 628.708 516.878 628.708C517.206 628.708 517.473 628.975 517.473 629.302V637.138C517.473 637.466 517.206 637.732 516.878 637.732Z" fill="black"/>
<path d="M516.878 605.518C516.551 605.518 516.284 605.251 516.284 604.924V521.782H502.772V572.03C502.772 572.357 502.506 572.624 502.178 572.624C501.851 572.624 501.584 572.357 501.584 572.03V521.183C501.584 520.855 501.851 520.588 502.178 520.588H516.878C517.205 520.588 517.472 520.855 517.472 521.183V604.924C517.472 605.251 517.205 605.518 516.878 605.518Z" fill="black"/>
<path d="M467.451 530.766C467.124 530.766 466.857 530.499 466.857 530.172V521.777H460.104C459.777 521.777 459.51 521.51 459.51 521.183C459.51 520.855 459.777 520.588 460.104 520.588H467.456C467.784 520.588 468.051 520.855 468.051 521.183V530.172C468.051 530.499 467.784 530.766 467.456 530.766H467.451Z" fill="black"/>
<path d="M467.451 736.304H452.751C452.424 736.304 452.157 736.037 452.157 735.71V668.018C452.157 667.691 452.424 667.424 452.751 667.424C453.079 667.424 453.346 667.691 453.346 668.018V735.116H466.857V681.207C466.857 680.88 467.124 680.613 467.451 680.613C467.778 680.613 468.045 680.88 468.045 681.207V735.71C468.045 736.037 467.778 736.304 467.451 736.304Z" fill="black"/>
<path d="M467.451 670.717C467.124 670.717 466.857 670.45 466.857 670.123V656.204C466.857 655.877 467.124 655.61 467.451 655.61C467.778 655.61 468.045 655.877 468.045 656.204V670.123C468.045 670.45 467.778 670.717 467.451 670.717Z" fill="black"/>
<path d="M551.6 703.702H516.873C516.545 703.702 516.278 703.435 516.278 703.108C516.278 702.781 516.545 702.514 516.873 702.514H551.001V684.314H516.873C516.545 684.314 516.278 684.047 516.278 683.72C516.278 683.393 516.545 683.126 516.873 683.126H551.6C551.927 683.126 552.194 683.393 552.194 683.72V703.108C552.194 703.435 551.927 703.702 551.6 703.702Z" fill="black"/>
<path d="M502.178 703.702H467.451C467.123 703.702 466.856 703.435 466.856 703.108V683.72C466.856 683.393 467.123 683.126 467.451 683.126H502.178C502.505 683.126 502.772 683.393 502.772 683.72C502.772 684.047 502.505 684.314 502.178 684.314H468.05V702.514H502.178C502.505 702.514 502.772 702.781 502.772 703.108C502.772 703.435 502.505 703.702 502.178 703.702Z" fill="black"/>
<path d="M500.062 175.008C499.861 175.008 499.66 174.902 499.549 174.716C499.383 174.434 499.478 174.066 499.76 173.9C502.515 172.288 506.09 172.248 508.875 173.809C509.162 173.97 509.263 174.333 509.102 174.62C508.941 174.907 508.578 175.008 508.291 174.847C505.869 173.492 502.757 173.522 500.36 174.927C500.264 174.983 500.163 175.008 500.057 175.008H500.062Z" fill="black"/>
<path d="M501.009 183.765C501.77 185.603 503.447 186.651 504.756 186.107C506.065 185.563 506.509 183.634 505.748 181.801C504.988 179.963 503.311 178.916 502.002 179.459C500.692 180.003 500.249 181.932 501.009 183.765Z" fill="black"/>
<path d="M495.963 197.594C495.556 197.594 495.153 197.523 494.775 197.387C493.592 196.949 492.725 195.801 492.675 194.597C492.62 193.384 493.299 192.366 493.899 191.47C494.035 191.269 494.166 191.072 494.292 190.871C494.916 189.869 495.213 188.383 495.495 186.953C495.616 186.338 495.737 185.744 495.878 185.22C495.963 184.903 496.291 184.712 496.603 184.797C496.92 184.883 497.112 185.205 497.026 185.523C496.89 186.031 496.779 186.6 496.663 187.19C496.371 188.655 496.039 190.317 495.299 191.505C495.168 191.717 495.027 191.928 494.886 192.14C494.337 192.956 493.823 193.731 493.858 194.552C493.889 195.282 494.448 196.007 495.183 196.279C495.903 196.546 496.809 196.405 497.489 195.922C497.756 195.73 498.129 195.796 498.32 196.063C498.512 196.33 498.446 196.702 498.179 196.894C497.52 197.362 496.734 197.604 495.963 197.604V197.594Z" fill="black"/>
<path d="M523.394 184.218C523.167 184.218 522.951 184.087 522.85 183.866C522.271 182.567 521.999 181.398 522.004 180.3C522.014 178.911 522.523 177.616 523.394 176.755C524.416 175.743 525.937 175.38 527.186 175.844C527.694 176.035 528.183 176.362 528.712 176.876C530.555 178.649 531.416 181.247 530.917 183.493C530.847 183.81 530.535 184.022 530.207 183.946C529.885 183.876 529.684 183.559 529.754 183.236C530.167 181.388 529.432 179.228 527.886 177.737C527.473 177.344 527.12 177.098 526.768 176.967C525.962 176.665 524.92 176.931 524.23 177.611C523.58 178.256 523.203 179.243 523.197 180.321C523.192 181.247 523.434 182.254 523.938 183.392C524.074 183.695 523.938 184.047 523.636 184.178C523.555 184.213 523.474 184.228 523.394 184.228V184.218Z" fill="black"/>
<path d="M526.445 186.928C526.294 186.928 526.143 186.867 526.022 186.751C525.79 186.52 525.79 186.142 526.022 185.91C527.049 184.878 527.498 183.392 527.165 182.118C526.818 180.794 525.539 179.747 524.29 179.827C523.836 179.842 523.459 179.993 523.272 180.235C523.071 180.497 522.698 180.547 522.436 180.346C522.175 180.144 522.124 179.772 522.326 179.51C522.734 178.976 523.434 178.659 524.254 178.634C526.093 178.613 527.825 179.948 528.318 181.811C528.762 183.483 528.192 185.422 526.868 186.746C526.752 186.862 526.601 186.923 526.445 186.923V186.928Z" fill="black"/>
<path d="M505.325 199.643C505.068 199.643 504.832 199.477 504.756 199.22C504.66 198.908 504.842 198.576 505.154 198.48C508.674 197.417 511.56 194.587 512.688 191.087C512.788 190.775 513.126 190.604 513.438 190.705C513.75 190.805 513.921 191.143 513.821 191.455C512.577 195.322 509.389 198.45 505.496 199.623C505.436 199.638 505.381 199.648 505.325 199.648V199.643Z" fill="black"/>
<path d="M389.168 171.055H112V207.711H389.168V171.055Z" fill="#20E086"/>
<path d="M114.753 133.5V110.844H122.273C127.937 110.844 134.177 114.62 134.177 122.172C134.177 129.724 127.937 133.5 122.273 133.5H114.753ZM117.057 112.956V131.388H121.537C128.449 131.388 131.681 126.844 131.681 122.172C131.681 117.5 128.449 112.956 121.537 112.956H117.057ZM160.872 122.172C160.872 129.052 155.816 134.076 149.064 134.076C142.312 134.076 137.256 129.052 137.256 122.172C137.256 115.292 142.312 110.268 149.064 110.268C155.816 110.268 160.872 115.292 160.872 122.172ZM158.376 122.172C158.376 116.956 154.888 112.38 149.064 112.38C143.24 112.38 139.752 116.956 139.752 122.172C139.752 127.388 143.24 131.964 149.064 131.964C154.888 131.964 158.376 127.388 158.376 122.172ZM168.359 110.844L181.863 130.044H181.927V110.844H184.231V133.5H181.351L167.847 114.108H167.783V133.5H165.479V110.844H168.359ZM193.841 110.844L191.249 118.364H189.105L191.249 110.844H193.841ZM205.962 112.956V133.5H203.658V112.956H196.074V110.844H213.546V112.956H205.962Z" fill="#020D3A"/>
<path d="M116.214 192.45V152.802H130.998C137.942 152.802 145.502 154.258 145.502 162.882C145.502 167.306 142.758 170.33 138.67 171.618V171.73C143.878 172.402 147.35 176.266 147.35 181.418C147.35 189.706 139.51 192.45 132.454 192.45H116.214ZM124.95 160.194V168.65H131.278C133.966 168.65 136.766 167.53 136.766 164.338C136.766 161.034 133.63 160.194 130.886 160.194H124.95ZM124.95 176.042V185.058H132.79C135.534 185.058 138.614 183.882 138.614 180.41C138.614 176.658 134.414 176.042 131.558 176.042H124.95ZM152.862 192.45V152.802H179.798V160.866H161.598V168.258H178.79V176.322H161.598V184.386H180.806V192.45H152.862ZM200.282 192.45L217.418 152.802H224.642L241.89 192.45H232.034L228.618 184.05H213.218L209.914 192.45H200.282ZM225.65 176.658L220.778 164.338L215.962 176.658H225.65ZM246.214 192.45V152.802H254.95V184.386H271.134V192.45H246.214ZM273.828 172.626C273.828 159.914 282.844 151.794 295.22 151.794C307.596 151.794 316.612 159.914 316.612 172.626C316.612 185.338 307.596 193.458 295.22 193.458C282.844 193.458 273.828 185.338 273.828 172.626ZM282.9 172.626C282.9 180.018 287.772 185.394 295.22 185.394C302.668 185.394 307.54 180.018 307.54 172.626C307.54 165.234 302.668 159.858 295.22 159.858C287.772 159.858 282.9 165.234 282.9 172.626ZM322.55 192.45V152.802H334.422L351.278 180.354H351.39V152.802H360.126V192.45H348.702L331.398 164.226H331.286V192.45H322.55ZM368.55 192.45V152.802H395.486V160.866H377.286V168.258H394.478V176.322H377.286V184.386H396.494V192.45H368.55Z" fill="#020D3A"/>
<path d="M246.107 835.171V851.251H242.651V817.267H263.147V820.435H246.107V832.003H261.947V835.171H246.107ZM272.779 817.267V851.251H269.323V817.267H272.779ZM286.299 817.267L306.555 846.067H306.651V817.267H310.107V851.251H305.787L285.531 822.163H285.435V851.251H281.979V817.267H286.299ZM318.858 851.251V817.267H330.138C338.634 817.267 347.994 822.931 347.994 834.259C347.994 845.587 338.634 851.251 330.138 851.251H318.858ZM322.314 820.435V848.083H329.034C339.402 848.083 344.25 841.267 344.25 834.259C344.25 827.251 339.402 820.435 329.034 820.435H322.314ZM368.544 851.251V811.603H383.328C390.272 811.603 397.832 813.059 397.832 821.683C397.832 826.107 395.088 829.131 391 830.419V830.531C396.208 831.203 399.68 835.067 399.68 840.219C399.68 848.507 391.84 851.251 384.784 851.251H368.544ZM377.28 818.995V827.451H383.608C386.296 827.451 389.096 826.331 389.096 823.139C389.096 819.835 385.96 818.995 383.216 818.995H377.28ZM377.28 834.843V843.859H385.12C387.864 843.859 390.944 842.683 390.944 839.211C390.944 835.459 386.744 834.843 383.888 834.843H377.28ZM404.856 851.251V811.603H420.2C428.32 811.603 435.152 814.403 435.152 823.643C435.152 829.187 432.184 833.499 426.584 834.507L436.664 851.251H426.192L417.904 835.403H413.592V851.251H404.856ZM413.592 818.995V828.011H418.744C421.936 828.011 426.08 827.899 426.08 823.587C426.08 819.611 422.496 818.995 419.304 818.995H413.592ZM437.081 851.251L454.217 811.603H461.441L478.689 851.251H468.833L465.417 842.851H450.017L446.713 851.251H437.081ZM462.449 835.459L457.577 823.139L452.761 835.459H462.449ZM482.677 851.251V811.603H494.549L511.405 839.155H511.517V811.603H520.253V851.251H508.829L491.525 823.027H491.413V851.251H482.677ZM528.341 851.251V811.603H541.445C554.213 811.603 564.909 817.035 564.909 831.539C564.909 844.363 554.437 851.251 542.621 851.251H528.341ZM537.077 819.667V843.187H541.613C549.733 843.187 555.837 840.107 555.837 831.091C555.837 823.307 549.621 819.667 542.229 819.667H537.077ZM596.425 814.739L590.433 821.291C589.033 819.499 586.233 818.659 584.105 818.659C581.641 818.659 578.225 819.779 578.225 822.747C578.225 829.971 596.481 825.323 596.481 839.211C596.481 848.059 589.369 852.259 581.193 852.259C576.097 852.259 571.617 850.747 567.865 847.275L574.081 840.443C575.873 842.795 578.785 844.195 581.697 844.195C584.553 844.195 587.745 842.851 587.745 840.051C587.745 832.771 569.153 836.691 569.153 823.475C569.153 815.019 576.489 810.595 584.273 810.595C588.753 810.595 593.065 811.771 596.425 814.739Z" fill="#020D3A"/>
</g>
<defs>
<clipPath id="clip0_637_10289">
<rect width="836" height="961" fill="white"/>
</clipPath>
</defs>
</svg>
