<svg width="430" height="503" viewBox="0 0 430 503" fill="none" xmlns="http://www.w3.org/2000/svg">
<path d="M188.533 216.393H16.9704C10.805 216.393 5.80713 211.394 5.80713 205.226V81.381C5.80713 75.2137 10.805 70.2142 16.9704 70.2142H188.533C194.699 70.2142 199.697 75.2137 199.697 81.381V205.226C199.697 211.394 194.699 216.393 188.533 216.393Z" fill="#020D3A"/>
<path d="M183.726 208.707H12.1633C5.99788 208.707 1 203.707 1 197.54V73.6946C1 67.5273 5.99788 62.5278 12.1633 62.5278H183.726C189.892 62.5278 194.89 67.5273 194.89 73.6946V197.54C194.89 203.707 189.892 208.707 183.726 208.707Z" fill="white" stroke="#020D3A" stroke-miterlimit="10" stroke-linecap="round" stroke-linejoin="round"/>
<path d="M62.0222 129.351L12.5589 145.427C3.68321 118.1 18.6328 88.7511 45.9513 79.8712C51.4146 78.0952 56.2784 77.3256 62.0222 77.3256V129.351Z" fill="#20E086" stroke="#020D3A" stroke-miterlimit="10" stroke-linecap="round" stroke-linejoin="round"/>
<path d="M62.0312 129.353L92.6015 171.442C69.3634 188.331 36.8385 183.178 19.9547 159.933C16.5782 155.284 14.3418 150.895 12.5679 145.43L62.0312 129.353Z" fill="white" stroke="#020D3A" stroke-miterlimit="10" stroke-linecap="round" stroke-linejoin="round"/>
<path d="M62.02 129.352L111.483 113.274C118.584 135.136 111.18 157.93 92.5904 171.44L62.02 129.352Z" fill="#020D3A" stroke="#020D3A" stroke-miterlimit="10" stroke-linecap="round" stroke-linejoin="round"/>
<path d="M62.02 129.351V77.3251C84.9996 77.3251 104.383 91.4131 111.483 113.273L62.02 129.351Z" fill="white" stroke="#020D3A" stroke-miterlimit="10" stroke-linecap="round" stroke-linejoin="round"/>
<path d="M61.4995 162C79.4488 162 93.9995 147.449 93.9995 129.5C93.9995 111.551 79.4488 97 61.4995 97C43.5503 97 28.9995 111.551 28.9995 129.5C28.9995 147.449 43.5503 162 61.4995 162Z" fill="white" stroke="#020D3A" stroke-miterlimit="10" stroke-linecap="round" stroke-linejoin="round"/>
<path d="M47.014 124V112.672H54.326V114.496H49.03V117.472H54.022V119.296H49.03V124H47.014ZM56.0255 124V116.32H57.9455V117.536H57.9775C58.3935 116.656 59.2415 116.128 60.2495 116.128C60.4895 116.128 60.7135 116.176 60.9375 116.24V118.096C60.6175 118.016 60.3135 117.952 60.0095 117.952C58.2015 117.952 57.9455 119.472 57.9455 119.888V124H56.0255ZM69.355 120.832H63.499C63.627 121.968 64.491 122.656 65.563 122.656C66.523 122.656 67.147 122.208 67.627 121.616L69.003 122.656C68.107 123.76 66.971 124.192 65.755 124.192C63.435 124.192 61.579 122.576 61.579 120.16C61.579 117.744 63.435 116.128 65.755 116.128C67.899 116.128 69.355 117.632 69.355 120.304V120.832ZM63.499 119.392H67.435C67.419 118.272 66.683 117.568 65.483 117.568C64.347 117.568 63.643 118.288 63.499 119.392ZM78.5425 120.832H72.6865C72.8145 121.968 73.6785 122.656 74.7505 122.656C75.7105 122.656 76.3345 122.208 76.8145 121.616L78.1905 122.656C77.2945 123.76 76.1585 124.192 74.9425 124.192C72.6225 124.192 70.7665 122.576 70.7665 120.16C70.7665 117.744 72.6225 116.128 74.9425 116.128C77.0865 116.128 78.5425 117.632 78.5425 120.304V120.832ZM72.6865 119.392H76.6225C76.6065 118.272 75.8705 117.568 74.6705 117.568C73.5345 117.568 72.8305 118.288 72.6865 119.392ZM51.7643 133.176L50.1962 134.328C49.3643 133.448 48.5963 133.208 47.8123 133.208C45.4763 133.208 43.9243 135 43.9243 137.256C43.9243 139.672 45.4763 141.464 47.8123 141.464C48.7243 141.464 49.6042 141.048 50.3563 140.088L52.0203 141.272C50.9963 142.68 49.4603 143.288 47.7963 143.288C44.3083 143.288 41.8123 140.92 41.8123 137.384C41.8123 133.752 44.3083 131.384 47.7963 131.384C49.3323 131.384 50.6443 131.88 51.7643 133.176ZM53.2294 143V130.904H55.1494V143H53.2294ZM57.3856 143V135.32H59.3056V143H57.3856ZM57.1136 132.712C57.1136 132.104 57.6256 131.56 58.3296 131.56C59.0336 131.56 59.5776 132.056 59.5776 132.712C59.5776 133.368 59.0336 133.864 58.3296 133.864C57.6256 133.864 57.1136 133.32 57.1136 132.712ZM68.0859 136.296L66.7579 137.624C66.3099 137.16 65.8139 136.856 65.3019 136.856C63.8939 136.856 63.0459 137.96 63.0459 139.16C63.0459 140.36 63.8939 141.464 65.3019 141.464C65.8939 141.464 66.4379 141.208 66.7899 140.744L68.0699 142.12C67.2859 142.904 65.9739 143.192 65.3019 143.192C62.9819 143.192 61.1259 141.576 61.1259 139.16C61.1259 136.744 62.9819 135.128 65.3019 135.128C66.2779 135.128 67.3499 135.48 68.0859 136.296ZM69.2286 143V130.904H71.1486V138.504L74.1086 135.32H76.5726L73.2766 138.808L76.7806 143H74.2366L71.1806 139.08H71.1486V143H69.2286ZM83.1984 136.296L81.9184 137.448C81.5504 136.936 81.0704 136.664 80.4144 136.664C79.9024 136.664 79.2944 136.904 79.2944 137.48C79.2944 138.856 83.4384 137.736 83.4384 140.728C83.4384 142.552 81.6944 143.192 80.1264 143.192C78.9424 143.192 77.9184 142.888 77.1344 142.008L78.4144 140.808C78.9104 141.352 79.4224 141.752 80.2384 141.752C80.7984 141.752 81.5184 141.48 81.5184 140.872C81.5184 139.288 77.3744 140.536 77.3744 137.608C77.3744 135.896 78.9104 135.128 80.4624 135.128C81.4864 135.128 82.5744 135.448 83.1984 136.296Z" fill="#020D3A"/>
<path d="M129.512 84.16L128.344 85.008C127.672 84.096 126.6 83.632 125.512 83.632C122.984 83.632 121.192 85.856 121.192 88.336C121.192 90.96 122.968 93.04 125.512 93.04C126.888 93.04 127.992 92.48 128.792 91.456L129.8 92.304C128.792 93.664 127.32 94.288 125.512 94.288C122.264 94.288 119.752 91.776 119.752 88.336C119.752 85.008 122.152 82.384 125.512 82.384C127.048 82.384 128.552 82.912 129.512 84.16ZM131.562 94V81.904H132.81V94H131.562ZM135.406 94V86.512H136.654V94H135.406ZM135.118 83.584C135.118 83.088 135.518 82.672 136.03 82.672C136.542 82.672 136.942 83.088 136.942 83.584C136.942 84.112 136.558 84.496 136.03 84.496C135.502 84.496 135.118 84.112 135.118 83.584ZM145.458 87.504L144.466 88.384C143.938 87.744 143.33 87.472 142.578 87.472C140.898 87.472 140.05 88.72 140.05 90.256C140.05 91.792 141.058 93.04 142.578 93.04C143.394 93.04 144.018 92.752 144.482 92.112L145.41 92.992C144.69 93.824 143.666 94.192 142.578 94.192C140.258 94.192 138.706 92.56 138.706 90.256C138.706 87.984 140.274 86.32 142.578 86.32C143.682 86.32 144.706 86.688 145.458 87.504ZM146.856 94V81.904H148.104V89.808L151.512 86.512H153.288L149.672 89.92L153.656 94H151.816L148.104 90.064V94H146.856ZM157.16 82.672L155.848 86.512H154.632L155.704 82.672H157.16ZM157.29 92.8L158.282 92.032C158.778 92.64 159.322 93.04 160.202 93.04C160.986 93.04 161.85 92.704 161.85 91.888C161.85 91.088 161.05 90.88 160.25 90.704C158.826 90.384 157.61 90.08 157.61 88.528C157.61 87.072 159.018 86.32 160.41 86.32C161.466 86.32 162.442 86.72 162.954 87.68L161.914 88.368C161.594 87.84 161.066 87.472 160.33 87.472C159.642 87.472 158.858 87.808 158.858 88.512C158.858 89.136 159.754 89.408 160.746 89.6C162.074 89.856 163.194 90.336 163.194 91.84C163.194 93.536 161.69 94.192 160.202 94.192C158.938 94.192 158.026 93.856 157.29 92.8ZM120.12 116.648V105.512H121.368V106.6H121.4C122.088 105.8 123 105.32 124.088 105.32C126.44 105.32 128.024 106.984 128.024 109.256C128.024 111.496 126.376 113.192 124.28 113.192C122.936 113.192 121.864 112.52 121.4 111.672H121.368V116.648H120.12ZM121.368 109.256C121.368 110.824 122.408 112.04 124.024 112.04C125.64 112.04 126.68 110.824 126.68 109.256C126.68 107.688 125.64 106.472 124.024 106.472C122.408 106.472 121.368 107.688 121.368 109.256ZM135.71 110.904L136.654 111.64C135.774 112.776 134.718 113.192 133.326 113.192C130.974 113.192 129.534 111.432 129.534 109.256C129.534 106.936 131.166 105.32 133.374 105.32C135.486 105.32 136.926 106.76 136.926 109.24V109.64H130.878C130.974 110.936 131.966 112.04 133.326 112.04C134.398 112.04 135.118 111.656 135.71 110.904ZM130.878 108.584H135.582C135.534 107.32 134.702 106.472 133.326 106.472C131.95 106.472 131.038 107.32 130.878 108.584ZM138.856 113V107.288C138.856 106.6 138.792 106.008 138.792 105.512H139.976C139.976 105.912 140.008 106.328 140.008 106.744H140.04C140.376 106.008 141.304 105.32 142.536 105.32C142.696 105.32 142.872 105.336 143.048 105.4L142.968 106.664C142.76 106.6 142.52 106.568 142.296 106.568C140.776 106.568 140.104 107.64 140.104 109.352V113H138.856ZM148.95 113V101.672H153.302C155.526 101.672 158.854 103.16 158.854 107.336C158.854 111.512 155.526 113 153.302 113H148.95ZM150.294 102.92V111.752H152.854C155.446 111.752 157.414 110.44 157.414 107.336C157.414 104.232 155.446 102.92 152.854 102.92H150.294ZM161.482 107.288L160.698 106.472C161.466 105.688 162.586 105.32 163.674 105.32C165.882 105.32 166.81 106.376 166.81 108.488V111.704C166.81 112.136 166.858 112.616 166.922 113H165.722C165.642 112.664 165.642 112.2 165.642 111.88H165.61C165.114 112.648 164.282 113.192 163.146 113.192C161.626 113.192 160.362 112.424 160.362 110.968C160.362 108.488 163.242 108.344 165.082 108.344H165.562V108.12C165.562 107.032 164.874 106.472 163.706 106.472C162.906 106.472 162.074 106.744 161.482 107.288ZM165.562 109.4H164.314C162.73 109.4 161.706 109.832 161.706 110.84C161.706 111.784 162.41 112.136 163.354 112.136C164.794 112.136 165.53 111.096 165.562 109.88V109.4ZM175.459 105.512L171.843 114.712C171.347 115.976 170.851 116.84 169.347 116.84C168.995 116.84 168.563 116.808 168.227 116.648L168.387 115.56C168.643 115.656 168.915 115.688 169.267 115.688C170.083 115.688 170.387 115.192 170.659 114.456L171.171 113.048L168.067 105.512H169.523L171.843 111.384H171.875L174.099 105.512H175.459Z" fill="#020D3A"/>
<path d="M142.867 125.468H119.59V130.412H142.867V125.468Z" fill="#020D3A" stroke="#020D3A" stroke-miterlimit="10" stroke-linecap="round" stroke-linejoin="round"/>
<path d="M179.336 136.065H119.59V141.011H179.336V136.065Z" fill="white" stroke="#020D3A" stroke-miterlimit="10" stroke-linecap="round" stroke-linejoin="round"/>
<path d="M163.588 146.661H119.59V151.607H163.588V146.661Z" fill="#20E086" stroke="#020D3A" stroke-miterlimit="10" stroke-linecap="round" stroke-linejoin="round"/>
<path d="M158.038 157.259H119.59V162.203H158.038V157.259Z" fill="#020D3A" stroke="#020D3A" stroke-miterlimit="10" stroke-linecap="round" stroke-linejoin="round"/>
<path d="M179.336 167.856H119.59V172.8H179.336V167.856Z" fill="white" stroke="#020D3A" stroke-miterlimit="10" stroke-linecap="round" stroke-linejoin="round"/>
<path d="M41.5049 182.289H87.8244" stroke="#020D3A" stroke-miterlimit="10" stroke-linecap="round" stroke-linejoin="round"/>
<path d="M34.9561 188.821H94.3769" stroke="#020D3A" stroke-miterlimit="10" stroke-linecap="round" stroke-linejoin="round"/>
<path d="M121.167 182.289H167.487" stroke="#020D3A" stroke-miterlimit="10" stroke-linecap="round" stroke-linejoin="round"/>
<path d="M114.618 188.821H174.039" stroke="#020D3A" stroke-miterlimit="10" stroke-linecap="round" stroke-linejoin="round"/>
<path d="M189.497 405.294H42.1506C35.9852 405.294 30.9873 400.294 30.9873 394.127V288.539C30.9873 282.372 35.9852 277.373 42.1506 277.373H189.497C195.663 277.373 200.661 282.372 200.661 288.539V394.127C200.661 400.294 195.663 405.294 189.497 405.294Z" fill="#020D3A"/>
<path d="M183.732 398.569H36.385C30.2196 398.569 25.2217 393.569 25.2217 387.402V281.814C25.2217 275.647 30.2196 270.647 36.385 270.647H183.732C189.897 270.647 194.895 275.647 194.895 281.814V387.402C194.895 393.569 189.897 398.569 183.732 398.569Z" fill="white" stroke="#020D3A" stroke-miterlimit="10" stroke-linecap="round" stroke-linejoin="round"/>
<path d="M64.8965 330V320.496H61.4245V318.672H70.3845V320.496H66.9125V330H64.8965ZM69.4228 326.16C69.4228 323.744 71.2788 322.128 73.5988 322.128C75.9188 322.128 77.7748 323.744 77.7748 326.16C77.7748 328.576 75.9188 330.192 73.5988 330.192C71.2788 330.192 69.4228 328.576 69.4228 326.16ZM71.3428 326.16C71.3428 327.36 72.1908 328.464 73.5988 328.464C75.0068 328.464 75.8548 327.36 75.8548 326.16C75.8548 324.96 75.0068 323.856 73.5988 323.856C72.1908 323.856 71.3428 324.96 71.3428 326.16ZM79.5724 333.648V322.32H81.3964V323.472H81.4284C81.9884 322.544 82.9964 322.128 84.0684 322.128C86.4364 322.128 87.8604 323.888 87.8604 326.16C87.8604 328.432 86.3404 330.192 84.1484 330.192C82.7084 330.192 81.9404 329.52 81.5404 329.024H81.4924V333.648H79.5724ZM85.9404 326.16C85.9404 324.96 85.0924 323.856 83.6844 323.856C82.2764 323.856 81.4284 324.96 81.4284 326.16C81.4284 327.36 82.2764 328.464 83.6844 328.464C85.0924 328.464 85.9404 327.36 85.9404 326.16ZM94.5609 330V318.672H99.0249C102.001 318.672 104.785 320.496 104.785 324.336C104.785 328.208 101.505 330 98.7849 330H94.5609ZM96.5769 328.176H98.0809C100.609 328.176 102.673 327.088 102.673 324.336C102.673 321.584 100.881 320.496 98.4169 320.496H96.5769V328.176ZM113.918 326.832H108.062C108.19 327.968 109.054 328.656 110.126 328.656C111.086 328.656 111.71 328.208 112.19 327.616L113.566 328.656C112.67 329.76 111.534 330.192 110.318 330.192C107.998 330.192 106.142 328.576 106.142 326.16C106.142 323.744 107.998 322.128 110.318 322.128C112.462 322.128 113.918 323.632 113.918 326.304V326.832ZM108.062 325.392H111.998C111.982 324.272 111.246 323.568 110.046 323.568C108.91 323.568 108.206 324.288 108.062 325.392ZM117.809 330L114.673 322.32H116.769L118.817 327.696H118.849L120.913 322.32H122.881L119.857 330H117.809ZM124.042 330V322.32H125.962V330H124.042ZM123.77 319.712C123.77 319.104 124.282 318.56 124.986 318.56C125.69 318.56 126.234 319.056 126.234 319.712C126.234 320.368 125.69 320.864 124.986 320.864C124.282 320.864 123.77 320.32 123.77 319.712ZM134.742 323.296L133.414 324.624C132.966 324.16 132.47 323.856 131.958 323.856C130.55 323.856 129.702 324.96 129.702 326.16C129.702 327.36 130.55 328.464 131.958 328.464C132.55 328.464 133.094 328.208 133.446 327.744L134.726 329.12C133.942 329.904 132.63 330.192 131.958 330.192C129.638 330.192 127.782 328.576 127.782 326.16C127.782 323.744 129.638 322.128 131.958 322.128C132.934 322.128 134.006 322.48 134.742 323.296ZM143.277 326.832H137.421C137.549 327.968 138.413 328.656 139.485 328.656C140.445 328.656 141.069 328.208 141.549 327.616L142.925 328.656C142.029 329.76 140.893 330.192 139.677 330.192C137.357 330.192 135.501 328.576 135.501 326.16C135.501 323.744 137.357 322.128 139.677 322.128C141.821 322.128 143.277 323.632 143.277 326.304V326.832ZM137.421 325.392H141.357C141.341 324.272 140.605 323.568 139.405 323.568C138.269 323.568 137.565 324.288 137.421 325.392ZM150.448 323.296L149.168 324.448C148.8 323.936 148.32 323.664 147.664 323.664C147.152 323.664 146.544 323.904 146.544 324.48C146.544 325.856 150.688 324.736 150.688 327.728C150.688 329.552 148.944 330.192 147.376 330.192C146.192 330.192 145.168 329.888 144.384 329.008L145.664 327.808C146.16 328.352 146.672 328.752 147.488 328.752C148.048 328.752 148.768 328.48 148.768 327.872C148.768 326.288 144.624 327.536 144.624 324.608C144.624 322.896 146.16 322.128 147.712 322.128C148.736 322.128 149.824 322.448 150.448 323.296ZM167.284 324.048L165.012 327.328L167.46 330H164.98L163.78 328.704C162.868 329.776 161.876 330.288 160.436 330.288C158.436 330.288 156.596 329.12 156.596 326.96C156.596 325.44 157.684 324.304 159.044 323.776C158.324 322.976 157.748 322.288 157.748 321.168C157.748 319.312 159.284 318.384 160.996 318.384C162.692 318.384 164.196 319.216 164.196 321.072C164.196 322.464 163.06 323.424 161.94 324L163.764 325.968L165.028 324.048H167.284ZM161.028 320.112C160.292 320.112 159.668 320.576 159.668 321.248C159.668 321.84 160.244 322.432 160.74 322.896C161.396 322.544 162.276 322 162.276 321.168C162.276 320.56 161.716 320.112 161.028 320.112ZM162.58 327.44L160.26 324.912C159.508 325.36 158.708 325.872 158.708 326.848C158.708 327.84 159.54 328.56 160.5 328.56C161.38 328.56 162.004 328 162.58 327.44Z" fill="#020D3A"/>
<path d="M71.2455 354V339.84H74.3655V351.12H80.1455V354H71.2455ZM81.1277 349.14C81.1277 346.04 83.5277 344.04 86.5277 344.04C89.5277 344.04 91.9277 346.04 91.9277 349.14C91.9277 352.24 89.5277 354.24 86.5277 354.24C83.5277 354.24 81.1277 352.24 81.1277 349.14ZM84.1277 349.14C84.1277 350.6 85.0277 351.6 86.5277 351.6C88.0277 351.6 88.9277 350.6 88.9277 349.14C88.9277 347.68 88.0277 346.68 86.5277 346.68C85.0277 346.68 84.1277 347.68 84.1277 349.14ZM102.255 345.34L100.275 347.42C99.9748 347 99.4148 346.68 98.7948 346.68C97.2948 346.68 96.3948 347.68 96.3948 349.14C96.3948 350.6 97.2948 351.6 98.7948 351.6C99.4548 351.6 99.9348 351.26 100.275 350.86L102.255 352.94C101.315 353.9 99.9348 354.24 98.7948 354.24C95.7948 354.24 93.3948 352.24 93.3948 349.14C93.3948 346.04 95.7948 344.04 98.7948 344.04C99.9348 344.04 101.315 344.38 102.255 345.34ZM109.443 354V352.78H109.403C108.743 353.82 107.543 354.24 106.323 354.24C104.503 354.24 102.863 353.2 102.863 351.24C102.863 347.88 106.943 347.82 109.443 347.82C109.443 346.76 108.563 346.08 107.523 346.08C106.543 346.08 105.723 346.52 105.083 347.24L103.483 345.6C104.583 344.56 106.183 344.04 107.763 344.04C111.263 344.04 112.203 345.82 112.203 349.06V354H109.443ZM109.443 349.74H108.703C107.783 349.74 105.743 349.82 105.743 351.14C105.743 351.86 106.503 352.2 107.163 352.2C108.343 352.2 109.443 351.58 109.443 350.38V349.74ZM120.705 344.28V346.68H118.065V349.92C118.065 350.96 118.185 351.72 119.485 351.72C119.805 351.72 120.445 351.68 120.705 351.44V353.94C120.045 354.18 119.305 354.24 118.605 354.24C116.605 354.24 115.065 353.42 115.065 351.3V346.68H113.145V344.28H115.065V341.4H118.065V344.28H120.705ZM122.27 354V344.28H125.27V354H122.27ZM122.03 341.22C122.03 340.26 122.81 339.48 123.77 339.48C124.73 339.48 125.51 340.26 125.51 341.22C125.51 342.18 124.73 342.96 123.77 342.96C122.81 342.96 122.03 342.18 122.03 341.22ZM127.065 349.14C127.065 346.04 129.465 344.04 132.465 344.04C135.465 344.04 137.865 346.04 137.865 349.14C137.865 352.24 135.465 354.24 132.465 354.24C129.465 354.24 127.065 352.24 127.065 349.14ZM130.065 349.14C130.065 350.6 130.965 351.6 132.465 351.6C133.965 351.6 134.865 350.6 134.865 349.14C134.865 347.68 133.965 346.68 132.465 346.68C130.965 346.68 130.065 347.68 130.065 349.14ZM139.632 354V344.28H142.512V345.6H142.552C142.952 344.84 143.932 344.04 145.392 344.04C148.432 344.04 148.992 346.04 148.992 348.64V354H145.992V349.24C145.992 348.12 145.972 346.68 144.432 346.68C142.872 346.68 142.632 347.9 142.632 349.16V354H139.632ZM158.457 345.32L156.617 347.14C156.177 346.6 155.597 346.32 154.877 346.32C154.377 346.32 153.777 346.54 153.777 347.12C153.777 348.56 158.837 347.34 158.837 351.04C158.837 353.52 156.437 354.24 154.357 354.24C152.997 354.24 151.497 353.9 150.537 352.92L152.357 350.9C152.917 351.58 153.577 351.96 154.477 351.96C155.157 351.96 155.837 351.78 155.837 351.26C155.837 349.7 150.777 351.02 150.777 347.32C150.777 345.04 152.817 344.04 154.857 344.04C156.137 344.04 157.557 344.36 158.457 345.32Z" fill="#20E086"/>
<path d="M53.2736 293.892L62.7551 290.81C64.4569 296.049 61.5915 301.674 56.3544 303.376C51.1187 305.078 45.4938 302.211 43.7921 296.974C42.0904 291.735 44.9557 286.11 50.1928 284.408C51.2402 284.068 52.1727 283.919 53.2736 283.919V293.892Z" fill="#20E086" stroke="#020D3A" stroke-width="0.5" stroke-miterlimit="10"/>
<path d="M53.2729 293.892V283.919C57.6781 283.919 61.3936 286.619 62.7545 290.81L53.2729 293.892Z" fill="#020D3A" stroke="#020D3A" stroke-width="0.5" stroke-miterlimit="10"/>
<path d="M149.243 293.892L158.725 290.81C160.427 296.049 157.561 301.674 152.324 303.376C147.087 305.078 141.464 302.211 139.762 296.973C138.06 291.735 140.925 286.11 146.162 284.408C147.21 284.068 148.142 283.919 149.243 283.919V293.892Z" fill="#20E086" stroke="#020D3A" stroke-width="0.5" stroke-miterlimit="10"/>
<path d="M149.241 293.892V283.919C153.646 283.919 157.362 286.619 158.723 290.81L149.241 293.892Z" fill="#020D3A" stroke="#020D3A" stroke-width="0.5" stroke-miterlimit="10"/>
<path d="M85.2586 293.892V303.863C79.7525 303.863 75.2886 299.398 75.2886 293.892C75.2886 288.384 79.7525 283.919 85.2586 283.919V293.892Z" fill="#20E086" stroke="#020D3A" stroke-width="0.5" stroke-miterlimit="10"/>
<path d="M85.2632 293.892V283.919C90.7693 283.919 95.2319 288.384 95.2319 293.892C95.2319 299.399 90.768 303.863 85.2632 303.863V293.892Z" fill="#020D3A" stroke="#020D3A" stroke-width="0.5" stroke-miterlimit="10"/>
<path d="M117.236 293.892L126.718 296.974C125.016 302.211 119.393 305.078 114.156 303.376C108.919 301.674 106.053 296.049 107.755 290.81C109.116 286.619 112.831 283.919 117.236 283.919V293.892Z" fill="#20E086" stroke="#020D3A" stroke-width="0.5" stroke-miterlimit="10"/>
<path d="M117.242 293.892V283.919C122.748 283.919 127.212 288.384 127.212 293.892C127.212 294.993 127.065 295.926 126.724 296.974L117.242 293.892Z" fill="#020D3A" stroke="#020D3A" stroke-width="0.5" stroke-miterlimit="10"/>
<path d="M181.223 293.892L190.705 296.974C189.003 302.211 183.38 305.078 178.142 303.376C172.905 301.674 170.04 296.049 171.742 290.81C173.103 286.619 176.818 283.919 181.223 283.919V293.892Z" fill="#20E086" stroke="#020D3A" stroke-width="0.5" stroke-miterlimit="10"/>
<path d="M181.229 293.892V283.919C186.736 283.919 191.199 288.384 191.199 293.892C191.199 294.993 191.052 295.926 190.711 296.974L181.229 293.892Z" fill="#020D3A" stroke="#020D3A" stroke-width="0.5" stroke-miterlimit="10"/>
<path d="M183.191 384.39H174.471V387.341H183.191V384.39Z" fill="#20E086" stroke="#020D3A" stroke-width="0.75" stroke-miterlimit="10" stroke-linecap="round" stroke-linejoin="round"/>
<path d="M173.503 369.636H164.783V387.339H173.503V369.636Z" fill="#020D3A" stroke="#020D3A" stroke-width="0.75" stroke-miterlimit="10" stroke-linecap="round" stroke-linejoin="round"/>
<path d="M163.815 375.99H155.095V387.34H163.815V375.99Z" fill="white" stroke="#020D3A" stroke-width="0.75" stroke-miterlimit="10" stroke-linecap="round" stroke-linejoin="round"/>
<path d="M154.122 367.139H145.402V387.341H154.122V367.139Z" fill="#20E086" stroke="#020D3A" stroke-width="0.75" stroke-miterlimit="10" stroke-linecap="round" stroke-linejoin="round"/>
<path d="M144.433 382.119H135.712V387.339H144.433V382.119Z" fill="#020D3A" stroke="#020D3A" stroke-width="0.75" stroke-miterlimit="10" stroke-linecap="round" stroke-linejoin="round"/>
<path d="M134.747 380.53H126.026V387.34H134.747V380.53Z" fill="white" stroke="#020D3A" stroke-width="0.75" stroke-miterlimit="10" stroke-linecap="round" stroke-linejoin="round"/>
<path d="M125.067 373.722H116.347V387.34H125.067V373.722Z" fill="#20E086" stroke="#020D3A" stroke-width="0.75" stroke-miterlimit="10" stroke-linecap="round" stroke-linejoin="round"/>
<path d="M115.367 385.07H106.647V387.339H115.367V385.07Z" fill="#020D3A" stroke="#020D3A" stroke-width="0.75" stroke-miterlimit="10" stroke-linecap="round" stroke-linejoin="round"/>
<path d="M105.685 369.635H96.9653V387.339H105.685V369.635Z" fill="white" stroke="#020D3A" stroke-width="0.75" stroke-miterlimit="10" stroke-linecap="round" stroke-linejoin="round"/>
<path d="M95.9853 373.041H87.2651V387.34H95.9853V373.041Z" fill="#20E086" stroke="#020D3A" stroke-width="0.75" stroke-miterlimit="10" stroke-linecap="round" stroke-linejoin="round"/>
<path d="M86.3007 386.66H77.5806V387.34H86.3007V386.66Z" fill="#020D3A" stroke="#020D3A" stroke-width="0.75" stroke-miterlimit="10" stroke-linecap="round" stroke-linejoin="round"/>
<path d="M76.621 386.432H67.9009V387.34H76.621V386.432Z" fill="white" stroke="#020D3A" stroke-width="0.75" stroke-miterlimit="10" stroke-linecap="round" stroke-linejoin="round"/>
<path d="M66.9355 375.991H58.2153V387.34H66.9355V375.991Z" fill="#20E086" stroke="#020D3A" stroke-width="0.75" stroke-miterlimit="10" stroke-linecap="round" stroke-linejoin="round"/>
<path d="M57.2387 385.069H48.5186V387.339H57.2387V385.069Z" fill="#020D3A" stroke="#020D3A" stroke-width="0.75" stroke-miterlimit="10" stroke-linecap="round" stroke-linejoin="round"/>
<path d="M47.5488 382.801H38.8286V387.34H47.5488V382.801Z" fill="white" stroke="#020D3A" stroke-width="0.75" stroke-miterlimit="10" stroke-linecap="round" stroke-linejoin="round"/>
<path d="M418.837 312.793H247.274C241.109 312.793 236.111 307.794 236.111 301.627V177.781C236.111 171.614 241.109 166.615 247.274 166.615H418.837C425.003 166.615 430 171.614 430 177.781V301.627C430 307.794 425.003 312.793 418.837 312.793Z" fill="#020D3A"/>
<path d="M412.112 305.108H240.549C234.384 305.108 229.386 300.109 229.386 293.941V170.096C229.386 163.929 234.384 158.929 240.549 158.929H412.112C418.277 158.929 423.275 163.929 423.275 170.096V293.941C423.275 300.109 418.277 305.108 412.112 305.108Z" fill="white" stroke="#020D3A" stroke-miterlimit="10" stroke-linecap="round" stroke-linejoin="round"/>
<g opacity="0.5">
<path d="M268.5 175.825C268.5 179.283 266.658 183.5 261.108 183.5C256.937 183.528 253.532 180.171 253.5 176C253.532 171.829 256.937 168.472 261.108 168.5C262.834 168.506 264.507 169.093 265.858 170.167C265.952 170.243 266.009 170.355 266.017 170.475C266.017 170.597 265.969 170.714 265.883 170.8C265.341 171.296 264.823 171.819 264.333 172.367C264.191 172.524 263.952 172.545 263.783 172.417C263.013 171.847 262.074 171.553 261.117 171.583C258.654 171.583 256.658 173.579 256.658 176.042C256.658 178.504 258.654 180.5 261.117 180.5C263.617 180.5 264.675 179.433 265.225 177.542H261.417C261.187 177.542 261 177.355 261 177.125V174.917C261 174.686 261.187 174.5 261.417 174.5H268.083C268.275 174.499 268.437 174.643 268.458 174.833C268.489 175.163 268.503 175.494 268.5 175.825Z" fill="#020D3A"/>
<path d="M313.333 176.253C313.333 171.623 309.602 167.869 305 167.869C300.397 167.869 296.667 171.623 296.667 176.253C296.667 180.438 299.714 183.907 303.698 184.536V178.677H301.582V176.253H303.698V174.406C303.698 172.305 304.942 171.144 306.845 171.144C307.757 171.144 308.711 171.308 308.711 171.308V173.371H307.66C306.625 173.371 306.302 174.017 306.302 174.68V176.253H308.613L308.244 178.677H306.302V184.536C310.286 183.907 313.333 180.438 313.333 176.253Z" fill="#020D3A"/>
<path fill-rule="evenodd" clip-rule="evenodd" d="M352.333 168.702H345.667C343.365 168.702 341.5 170.568 341.5 172.869V179.536C341.5 181.837 343.365 183.702 345.667 183.702H352.333C354.634 183.702 356.5 181.837 356.5 179.536V172.869C356.5 170.568 354.634 168.702 352.333 168.702ZM355.042 179.536C355.037 181.029 353.827 182.239 352.333 182.244H345.667C344.173 182.239 342.963 181.029 342.958 179.536V172.869C342.963 171.375 344.173 170.165 345.667 170.161H352.333C353.827 170.165 355.037 171.375 355.042 172.869V179.536ZM352.958 173.077C353.419 173.077 353.792 172.704 353.792 172.244C353.792 171.784 353.419 171.411 352.958 171.411C352.498 171.411 352.125 171.784 352.125 172.244C352.125 172.704 352.498 173.077 352.958 173.077ZM349 172.452C346.929 172.452 345.25 174.131 345.25 176.202C345.25 178.273 346.929 179.952 349 179.952C351.071 179.952 352.75 178.273 352.75 176.202C352.752 175.207 352.358 174.252 351.654 173.548C350.95 172.844 349.995 172.45 349 172.452ZM346.708 176.202C346.708 177.468 347.734 178.494 349 178.494C350.266 178.494 351.292 177.468 351.292 176.202C351.292 174.937 350.266 173.911 349 173.911C347.734 173.911 346.708 174.937 346.708 176.202Z" fill="#020D3A"/>
<path fill-rule="evenodd" clip-rule="evenodd" d="M386.75 168.702C386.06 168.702 385.5 169.262 385.5 169.952V182.452C385.5 183.143 386.06 183.702 386.75 183.702H399.25C399.94 183.702 400.5 183.143 400.5 182.452V169.952C400.5 169.262 399.94 168.702 399.25 168.702H386.75ZM390.101 172.038C390.105 172.835 389.509 173.326 388.801 173.322C388.134 173.319 387.553 172.788 387.556 172.039C387.56 171.335 388.117 170.769 388.84 170.785C389.573 170.802 390.105 171.339 390.101 172.038ZM393.233 174.337H391.133H391.132V181.47H393.351V181.304C393.351 180.987 393.351 180.671 393.351 180.354C393.35 179.509 393.349 178.663 393.354 177.819C393.355 177.614 393.364 177.4 393.417 177.205C393.615 176.473 394.273 176.001 395.006 176.117C395.477 176.191 395.789 176.464 395.92 176.908C396.001 177.186 396.037 177.485 396.041 177.774C396.05 178.647 396.049 179.52 396.048 180.393C396.047 180.701 396.047 181.01 396.047 181.318V181.469H398.273V181.298C398.273 180.921 398.273 180.545 398.273 180.168C398.272 179.227 398.272 178.286 398.274 177.344C398.276 176.919 398.23 176.499 398.126 176.088C397.97 175.476 397.648 174.97 397.124 174.604C396.752 174.344 396.344 174.177 395.889 174.158C395.837 174.156 395.784 174.153 395.732 174.15C395.499 174.137 395.262 174.125 395.039 174.169C394.401 174.297 393.841 174.589 393.418 175.103C393.369 175.162 393.321 175.222 393.249 175.312L393.233 175.332V174.337ZM387.735 181.473H389.944V174.342H387.735V181.473Z" fill="#020D3A"/>
</g>
<path d="M411.073 273.299H401.015V284.453H411.073V273.299Z" fill="#20E086" stroke="#020D3A" stroke-width="0.75" stroke-miterlimit="10" stroke-linecap="round" stroke-linejoin="round"/>
<path d="M399.9 217.529H389.843V284.455H399.9V217.529Z" fill="#020D3A" stroke="#020D3A" stroke-width="0.75" stroke-miterlimit="10" stroke-linecap="round" stroke-linejoin="round"/>
<path d="M388.721 241.552H378.664V284.453H388.721V241.552Z" fill="white" stroke="#020D3A" stroke-width="0.75" stroke-miterlimit="10" stroke-linecap="round" stroke-linejoin="round"/>
<path d="M377.549 208.09H367.491V284.453H377.549V208.09Z" fill="#20E086" stroke="#020D3A" stroke-width="0.75" stroke-miterlimit="10" stroke-linecap="round" stroke-linejoin="round"/>
<path d="M366.364 264.719H356.307V284.453H366.364V264.719Z" fill="#020D3A" stroke="#020D3A" stroke-width="0.75" stroke-miterlimit="10" stroke-linecap="round" stroke-linejoin="round"/>
<path d="M355.198 258.713H345.14V284.453H355.198V258.713Z" fill="white" stroke="#020D3A" stroke-width="0.75" stroke-miterlimit="10" stroke-linecap="round" stroke-linejoin="round"/>
<path d="M344.024 232.972H333.967V284.453H344.024V232.972Z" fill="#20E086" stroke="#020D3A" stroke-width="0.75" stroke-miterlimit="10" stroke-linecap="round" stroke-linejoin="round"/>
<path d="M332.84 275.874H322.783V284.454H332.84V275.874Z" fill="#020D3A" stroke="#020D3A" stroke-width="0.75" stroke-miterlimit="10" stroke-linecap="round" stroke-linejoin="round"/>
<path d="M321.675 217.529H311.618V284.455H321.675V217.529Z" fill="white" stroke="#020D3A" stroke-width="0.75" stroke-miterlimit="10" stroke-linecap="round" stroke-linejoin="round"/>
<path d="M310.498 230.399H300.441V284.455H310.498V230.399Z" fill="#20E086" stroke="#020D3A" stroke-width="0.75" stroke-miterlimit="10" stroke-linecap="round" stroke-linejoin="round"/>
<path d="M299.315 281.88H289.258V284.453H299.315V281.88Z" fill="#020D3A" stroke="#020D3A" stroke-width="0.75" stroke-miterlimit="10" stroke-linecap="round" stroke-linejoin="round"/>
<path d="M288.142 281.022H278.084V284.454H288.142V281.022Z" fill="white" stroke="#020D3A" stroke-width="0.75" stroke-miterlimit="10" stroke-linecap="round" stroke-linejoin="round"/>
<path d="M276.967 241.552H266.909V284.453H276.967V241.552Z" fill="#20E086" stroke="#020D3A" stroke-width="0.75" stroke-miterlimit="10" stroke-linecap="round" stroke-linejoin="round"/>
<path d="M265.791 275.874H255.733V284.454H265.791V275.874Z" fill="#020D3A" stroke="#020D3A" stroke-width="0.75" stroke-miterlimit="10" stroke-linecap="round" stroke-linejoin="round"/>
<path d="M254.618 267.293H244.56V284.454H254.618V267.293Z" fill="white" stroke="#020D3A" stroke-width="0.75" stroke-miterlimit="10" stroke-linecap="round" stroke-linejoin="round"/>
<path d="M411.724 192.471H245.868V200.962H411.724V192.471Z" fill="#20E086" stroke="#020D3A" stroke-miterlimit="10"/>
<path d="M316.46 193.092H289.563V200.34H316.46V193.092Z" fill="#020D3A" stroke="#020D3A" stroke-miterlimit="10"/>
<path d="M368.076 193.092H317.554V200.34H368.076V193.092Z" fill="white" stroke="#020D3A" stroke-miterlimit="10"/>
<path d="M397.685 126.978H263.112C256.947 126.978 251.949 121.979 251.949 115.812V19.8531C251.949 13.6858 256.947 8.6864 263.112 8.6864H397.687C403.852 8.6864 408.85 13.6858 408.85 19.8531V115.812C408.849 121.979 403.851 126.978 397.685 126.978Z" fill="#020D3A"/>
<path d="M391.919 119.292H257.345C251.18 119.292 246.182 114.292 246.182 108.125V12.1667C246.182 5.99943 251.18 1 257.345 1H391.919C398.084 1 403.082 5.99943 403.082 12.1667V108.125C403.083 114.292 398.084 119.292 391.919 119.292Z" fill="white" stroke="#020D3A" stroke-miterlimit="10" stroke-linecap="round" stroke-linejoin="round"/>
<path d="M253.466 108.218H400.777" stroke="#020D3A" stroke-width="0.5" stroke-miterlimit="10"/>
<path d="M253.472 108.217V110.397" stroke="#020D3A" stroke-width="0.5" stroke-miterlimit="10"/>
<path d="M263.289 108.217V110.397" stroke="#020D3A" stroke-width="0.5" stroke-miterlimit="10"/>
<path d="M273.112 108.217V110.397" stroke="#020D3A" stroke-width="0.5" stroke-miterlimit="10"/>
<path d="M282.93 108.217V110.397" stroke="#020D3A" stroke-width="0.5" stroke-miterlimit="10"/>
<path d="M292.753 108.217V110.397" stroke="#020D3A" stroke-width="0.5" stroke-miterlimit="10"/>
<path d="M302.575 108.217V110.397" stroke="#020D3A" stroke-width="0.5" stroke-miterlimit="10"/>
<path d="M312.398 108.217V110.397" stroke="#020D3A" stroke-width="0.5" stroke-miterlimit="10"/>
<path d="M322.217 108.217V110.397" stroke="#020D3A" stroke-width="0.5" stroke-miterlimit="10"/>
<path d="M332.038 108.217V110.397" stroke="#020D3A" stroke-width="0.5" stroke-miterlimit="10"/>
<path d="M341.857 108.217V110.397" stroke="#020D3A" stroke-width="0.5" stroke-miterlimit="10"/>
<path d="M351.68 108.217V110.397" stroke="#020D3A" stroke-width="0.5" stroke-miterlimit="10"/>
<path d="M361.498 108.217V110.397" stroke="#020D3A" stroke-width="0.5" stroke-miterlimit="10"/>
<path d="M371.315 108.217V110.397" stroke="#020D3A" stroke-width="0.5" stroke-miterlimit="10"/>
<path d="M381.143 108.217V110.397" stroke="#020D3A" stroke-width="0.5" stroke-miterlimit="10"/>
<path d="M390.964 108.217V110.397" stroke="#020D3A" stroke-width="0.5" stroke-miterlimit="10"/>
<path d="M400.783 108.217V110.397" stroke="#020D3A" stroke-width="0.5" stroke-miterlimit="10"/>
<path d="M258.378 106.448H395.869V87.4366L386.148 68.6199C386.082 68.4918 386.036 68.3508 386.014 68.2031L377.367 12.41C377.154 11.0357 375.451 11.0644 375.273 12.4452L366.476 80.5587C366.431 80.9035 366.264 81.2092 366.015 81.4026L357.538 87.967C357.024 88.3654 356.328 88.1708 356.025 87.5451L347.491 69.921C347.134 69.1855 346.263 69.0732 345.778 69.7002L336.945 81.0982L327.125 93.7725L317.304 81.0982L308.652 69.9314C308.119 69.2443 307.15 69.4572 306.869 70.3234L297.662 98.8411L287.842 48.0134L278.021 103.911L268.2 96.3068L260.423 74.2254C259.982 72.9726 258.379 73.3397 258.379 74.6931V106.448H258.378Z" fill="#20E086"/>
<path d="M395.869 106.479H258.378V90.1297L268.098 73.9478C268.165 73.8381 268.21 73.7166 268.233 73.5899L276.879 25.6087C277.092 24.4265 278.795 24.4513 278.974 25.6388L287.771 84.2145C287.815 84.5111 287.984 84.7749 288.232 84.9408L296.709 90.5856C297.222 90.9279 297.918 90.7607 298.221 90.2224L306.757 75.0661C307.114 74.4338 307.985 74.3371 308.47 74.8767L317.303 84.6796L327.123 95.5785L336.944 84.6796L345.596 75.0765C346.129 74.4861 347.098 74.669 347.379 75.4136L356.586 99.9378H366.406L376.227 104.297L386.048 97.7575L393.825 78.7683C394.266 77.6906 395.869 78.0067 395.869 79.1707V106.479Z" fill="#020D3A"/>
<path d="M295.677 24V14.088H302.243V15.684H297.441V18.12H301.991V19.716H297.441V22.404H302.495V24H295.677ZM308.785 18.134L307.665 19.142C307.343 18.694 306.923 18.456 306.349 18.456C305.901 18.456 305.369 18.666 305.369 19.17C305.369 20.374 308.995 19.394 308.995 22.012C308.995 23.608 307.469 24.168 306.097 24.168C305.061 24.168 304.165 23.902 303.479 23.132L304.599 22.082C305.033 22.558 305.481 22.908 306.195 22.908C306.685 22.908 307.315 22.67 307.315 22.138C307.315 20.752 303.689 21.844 303.689 19.282C303.689 17.784 305.033 17.112 306.391 17.112C307.287 17.112 308.239 17.392 308.785 18.134ZM310.904 18.708H309.518V17.28H310.904V15.334H312.584V17.28H314.432V18.708H312.584V21.648C312.584 22.32 312.78 22.74 313.522 22.74C313.816 22.74 314.222 22.684 314.432 22.53V23.944C314.082 24.112 313.494 24.168 313.102 24.168C311.324 24.168 310.904 23.37 310.904 21.788V18.708ZM315.772 24V17.28H317.452V24H315.772ZM315.534 14.998C315.534 14.466 315.982 13.99 316.598 13.99C317.214 13.99 317.69 14.424 317.69 14.998C317.69 15.572 317.214 16.006 316.598 16.006C315.982 16.006 315.534 15.53 315.534 14.998ZM319.31 24V17.28H320.906V18.33H320.934C321.228 17.7 321.872 17.112 322.992 17.112C324.028 17.112 324.742 17.518 325.092 18.358C325.582 17.504 326.296 17.112 327.304 17.112C329.096 17.112 329.726 18.386 329.726 19.996V24H328.046V20.192C328.046 19.352 327.794 18.624 326.8 18.624C325.75 18.624 325.358 19.492 325.358 20.36V24H323.678V19.996C323.678 19.17 323.342 18.624 322.53 18.624C321.424 18.624 320.99 19.436 320.99 20.332V24H319.31ZM335.762 24V23.076H335.72C335.244 23.832 334.46 24.168 333.564 24.168C332.318 24.168 331.114 23.482 331.114 22.152C331.114 19.968 333.662 19.814 335.342 19.814H335.762V19.632C335.762 18.806 335.118 18.372 334.222 18.372C333.522 18.372 332.878 18.652 332.43 19.072L331.548 18.19C332.29 17.434 333.34 17.112 334.404 17.112C337.274 17.112 337.274 19.184 337.274 20.136V24H335.762ZM335.664 21.368V20.99H335.314C334.39 20.99 332.794 21.06 332.794 22.026C332.794 22.642 333.424 22.908 333.97 22.908C335.118 22.908 335.664 22.306 335.664 21.368ZM339.683 18.708H338.297V17.28H339.683V15.334H341.363V17.28H343.211V18.708H341.363V21.648C341.363 22.32 341.559 22.74 342.301 22.74C342.595 22.74 343.001 22.684 343.211 22.53V23.944C342.861 24.112 342.273 24.168 341.881 24.168C340.103 24.168 339.683 23.37 339.683 21.788V18.708ZM350.991 21.228H345.867C345.979 22.222 346.735 22.824 347.673 22.824C348.513 22.824 349.059 22.432 349.479 21.914L350.683 22.824C349.899 23.79 348.905 24.168 347.841 24.168C345.811 24.168 344.187 22.754 344.187 20.64C344.187 18.526 345.811 17.112 347.841 17.112C349.717 17.112 350.991 18.428 350.991 20.766V21.228ZM345.867 19.968H349.311C349.297 18.988 348.653 18.372 347.603 18.372C346.609 18.372 345.993 19.002 345.867 19.968ZM357.882 24V22.992H357.854C357.364 23.804 356.482 24.168 355.544 24.168C353.472 24.168 352.226 22.628 352.226 20.64C352.226 18.652 353.556 17.112 355.474 17.112C356.734 17.112 357.406 17.7 357.756 18.134H357.798V13.416H359.478V24H357.882ZM353.906 20.64C353.906 21.69 354.648 22.656 355.88 22.656C357.112 22.656 357.854 21.69 357.854 20.64C357.854 19.59 357.112 18.624 355.88 18.624C354.648 18.624 353.906 19.59 353.906 20.64ZM300.469 41V31.088H303.913C305.817 31.088 307.609 31.704 307.609 33.93C307.609 35.358 306.783 36.408 305.313 36.618L307.945 41H305.817L303.521 36.8H302.233V41H300.469ZM302.233 35.288H303.605C304.599 35.288 305.761 35.204 305.761 33.916C305.761 32.74 304.669 32.6 303.759 32.6H302.233V35.288ZM315.601 38.228H310.477C310.589 39.222 311.345 39.824 312.283 39.824C313.123 39.824 313.669 39.432 314.089 38.914L315.293 39.824C314.509 40.79 313.515 41.168 312.451 41.168C310.421 41.168 308.797 39.754 308.797 37.64C308.797 35.526 310.421 34.112 312.451 34.112C314.327 34.112 315.601 35.428 315.601 37.766V38.228ZM310.477 36.968H313.921C313.907 35.988 313.263 35.372 312.213 35.372C311.219 35.372 310.603 36.002 310.477 36.968ZM319.006 41L316.262 34.28H318.096L319.888 38.984H319.916L321.722 34.28H323.444L320.798 41H319.006ZM330.9 38.228H325.776C325.888 39.222 326.644 39.824 327.582 39.824C328.422 39.824 328.968 39.432 329.388 38.914L330.592 39.824C329.808 40.79 328.814 41.168 327.75 41.168C325.72 41.168 324.096 39.754 324.096 37.64C324.096 35.526 325.72 34.112 327.75 34.112C329.626 34.112 330.9 35.428 330.9 37.766V38.228ZM325.776 36.968H329.22C329.206 35.988 328.562 35.372 327.512 35.372C326.518 35.372 325.902 36.002 325.776 36.968ZM332.471 41V34.28H334.067V35.358H334.095C334.403 34.686 335.033 34.112 336.153 34.112C337.959 34.112 338.603 35.386 338.603 36.758V41H336.923V37.598C336.923 36.856 336.867 35.624 335.691 35.624C334.585 35.624 334.151 36.436 334.151 37.332V41H332.471ZM346.642 34.28V41H345.046V39.922H345.018C344.71 40.594 344.08 41.168 342.96 41.168C341.154 41.168 340.51 39.894 340.51 38.522V34.28H342.19V37.682C342.19 38.424 342.246 39.656 343.422 39.656C344.528 39.656 344.962 38.844 344.962 37.948V34.28H346.642ZM355.017 38.228H349.893C350.005 39.222 350.761 39.824 351.699 39.824C352.539 39.824 353.085 39.432 353.505 38.914L354.709 39.824C353.925 40.79 352.931 41.168 351.867 41.168C349.837 41.168 348.213 39.754 348.213 37.64C348.213 35.526 349.837 34.112 351.867 34.112C353.743 34.112 355.017 35.428 355.017 37.766V38.228ZM349.893 36.968H353.337C353.323 35.988 352.679 35.372 351.629 35.372C350.635 35.372 350.019 36.002 349.893 36.968Z" fill="#020D3A"/>
<path opacity="0.2" d="M213.222 503C256.093 503 290.847 485.746 290.847 464.462C290.847 443.179 256.093 425.925 213.222 425.925C170.35 425.925 135.596 443.179 135.596 464.462C135.596 485.746 170.35 503 213.222 503Z" fill="#020D3A"/>
<path d="M187.148 173.948C187.148 173.948 167.225 245.054 167.225 250.534C167.225 255.191 173.743 264.505 180.959 260.78C188.175 257.054 189.804 245.412 189.804 245.412L187.148 173.948Z" fill="white" stroke="#263238" stroke-miterlimit="10" stroke-linecap="round" stroke-linejoin="round"/>
<path d="M240.461 465.223C240.461 465.223 230.265 479 229.495 484.783C228.724 490.567 236.607 491.054 240.076 488.355C243.544 485.656 250.795 468.018 250.795 468.018L240.461 465.223Z" fill="white" stroke="#263238" stroke-miterlimit="10" stroke-linecap="round" stroke-linejoin="round"/>
<path d="M184.801 432.042C184.801 432.042 167.343 439.377 167.343 443.568C167.343 447.759 176.421 446.711 183.055 444.267C189.689 441.823 200.164 437.631 200.164 437.631C200.164 437.631 190.039 430.994 184.801 432.042Z" fill="white" stroke="#263238" stroke-miterlimit="10" stroke-linecap="round" stroke-linejoin="round"/>
<path d="M190.275 266.136L189.693 288.839C189.693 288.839 185.153 330.404 183.058 352.757C180.964 375.11 187.598 426.455 187.598 426.455L184.456 429.598V432.741L200.168 437.631C200.168 437.631 201.565 430.994 201.565 427.851C201.565 424.708 201.565 422.612 201.565 422.612L217.976 324.465C217.976 324.465 230.895 423.659 232.99 435.187C235.085 446.713 238.227 458.937 238.227 458.937L237.18 462.431L238.576 468.718L249.399 471.512C249.399 471.512 251.843 468.369 252.542 462.082C253.24 455.794 253.589 441.125 253.589 441.125C253.589 441.125 252.89 390.13 255.335 355.552C257.78 320.974 254.636 291.635 254.636 291.635L252.89 268.583C252.893 268.58 222.98 280.805 190.275 266.136Z" fill="#263238" stroke="#263238" stroke-miterlimit="10" stroke-linecap="round" stroke-linejoin="round"/>
<path d="M217.977 324.465L216.231 311.541L209.248 304.207" stroke="white" stroke-miterlimit="10" stroke-linecap="round" stroke-linejoin="round"/>
<path d="M242.421 278.709C242.421 278.709 237.533 287.791 250.802 291.982" stroke="white" stroke-miterlimit="10" stroke-linecap="round" stroke-linejoin="round"/>
<path d="M250.801 296.173V457.54" stroke="white" stroke-miterlimit="10" stroke-linecap="round" stroke-linejoin="round"/>
<path d="M206.801 280.805L208.197 289.188C208.197 289.188 204.706 295.475 206.103 298.27" stroke="white" stroke-miterlimit="10" stroke-linecap="round" stroke-linejoin="round"/>
<path d="M213.795 164.886C213.795 164.886 187.616 172.551 187.149 173.948C186.685 175.344 190.272 266.135 190.272 266.135C190.272 266.135 197.255 276.846 216.344 278.476C235.432 280.106 253.589 270.093 253.589 270.093L266.158 187.431C266.158 187.431 236.129 166.939 234.035 166.474C231.941 166.009 219.614 163.255 213.795 164.886Z" fill="white" stroke="#263238" stroke-miterlimit="10" stroke-linecap="round" stroke-linejoin="round"/>
<path d="M211.987 182.346L218.206 197.599L228.84 185.557C228.84 185.557 228.038 177.93 221.016 177.128C213.993 176.325 211.987 182.346 211.987 182.346Z" fill="#263238" stroke="#263238" stroke-miterlimit="10" stroke-linecap="round" stroke-linejoin="round"/>
<path d="M213.791 164.885L202.756 182.346C202.756 182.346 209.176 180.74 212.186 183.349C215.195 185.958 218.606 188.768 218.606 188.768C218.606 188.768 223.822 184.554 228.037 185.958C232.25 187.362 236.062 190.373 236.062 190.373C236.062 190.373 238.67 173.114 235.258 165.286C231.849 157.46 221.014 154.65 213.791 164.885Z" fill="white" stroke="#263238" stroke-miterlimit="10" stroke-linecap="round" stroke-linejoin="round"/>
<path d="M216.597 166.892C216.597 166.892 215.995 175.722 216.396 182.145C216.797 188.567 218.803 189.972 221.211 185.757C223.618 181.542 229.037 168.698 229.037 165.085C229.037 161.473 229.438 158.262 229.438 158.262C229.438 158.262 221.011 167.293 216.597 166.892Z" fill="white" stroke="#263238" stroke-miterlimit="10" stroke-linecap="round" stroke-linejoin="round"/>
<path d="M218.207 197.598L207.773 250.782L214.796 268.443L223.425 253.993L218.207 197.598Z" fill="#263238" stroke="#263238" stroke-miterlimit="10" stroke-linecap="round" stroke-linejoin="round"/>
<path d="M238.694 246.111C238.694 246.111 215.183 231.907 213.089 230.044C210.994 228.181 210.994 229.578 209.364 230.509C207.734 231.44 201.682 238.659 200.519 240.987C199.355 243.315 197.493 246.576 199.82 247.041C202.147 247.507 204.01 243.083 204.01 242.384C204.01 241.685 207.502 237.727 207.502 237.727C207.502 237.727 204.01 246.109 205.173 246.808C206.337 247.507 214.252 250.767 215.881 250.767C217.509 250.767 218.674 247.74 218.674 247.74C218.674 247.74 221.003 250.767 223.33 250.534C225.658 250.302 227.287 249.138 227.287 249.138L235.201 255.425L238.694 246.111Z" fill="white" stroke="#263238" stroke-miterlimit="10" stroke-linecap="round" stroke-linejoin="round"/>
<path d="M238.693 246.11C238.693 246.11 235.766 244.343 231.891 241.974L228.445 250.057L235.201 255.423L238.693 246.11Z" fill="white" stroke="#263238" stroke-miterlimit="10" stroke-linecap="round" stroke-linejoin="round"/>
<path d="M208.2 248.439C208.2 248.439 208.898 240.987 211.924 236.797" stroke="#263238" stroke-miterlimit="10" stroke-linecap="round" stroke-linejoin="round"/>
<path d="M212.157 249.37C212.157 249.37 213.787 242.85 217.046 239.124" stroke="#263238" stroke-miterlimit="10" stroke-linecap="round" stroke-linejoin="round"/>
<path d="M256.378 191.622C256.378 191.622 247.533 198.841 245.437 210.484L260.102 252.164C260.102 252.164 242.644 244.945 240.548 244.713C238.453 244.48 231.004 254.726 233.099 257.054C235.193 259.382 276.162 282.435 278.723 279.407C281.284 276.38 268.248 193.95 266.851 190.924C265.455 187.897 266.385 186.266 261.497 185.568" fill="white"/>
<path d="M256.378 191.622C256.378 191.622 247.533 198.841 245.437 210.484L260.102 252.164C260.102 252.164 242.644 244.945 240.548 244.713C238.453 244.48 231.004 254.726 233.099 257.054C235.193 259.382 276.162 282.435 278.723 279.407C281.284 276.38 268.248 193.95 266.851 190.924C265.455 187.897 266.385 186.266 261.497 185.568" stroke="#263238" stroke-miterlimit="10" stroke-linecap="round" stroke-linejoin="round"/>
<path d="M260.104 252.164C260.104 252.164 268.485 254.027 270.812 258.452L260.104 252.164Z" fill="white"/>
<path d="M260.104 252.164C260.104 252.164 268.485 254.027 270.812 258.452" stroke="#263238" stroke-miterlimit="10" stroke-linecap="round" stroke-linejoin="round"/>
<path d="M166.387 217.83L185.088 259.66C185.276 260.079 185.619 260.411 186.043 260.586L212.797 271.571C214.24 272.164 215.697 270.756 215.157 269.293L200.188 228.826C199.655 227.384 198.514 226.25 197.068 225.726L168.631 215.416C167.146 214.877 165.742 216.387 166.387 217.83Z" fill="#020D3A" stroke="#263238" stroke-miterlimit="10" stroke-linecap="round" stroke-linejoin="round"/>
<path d="M173.432 240.114C172.303 239.889 171.27 240.803 171.376 241.947C171.438 242.618 171.613 243.269 172.025 243.564C173.048 244.295 180.791 244.88 180.499 243.418C180.269 242.274 176.275 240.681 173.432 240.114Z" fill="white" stroke="#263238" stroke-miterlimit="10" stroke-linecap="round" stroke-linejoin="round"/>
<path d="M170.987 237.294C169.65 237.027 168.425 238.109 168.55 239.468C168.623 240.265 168.831 241.035 169.32 241.384C170.532 242.25 179.711 242.944 179.365 241.21C179.094 239.853 174.358 237.965 170.987 237.294Z" fill="white" stroke="#263238" stroke-miterlimit="10" stroke-linecap="round" stroke-linejoin="round"/>
<path d="M170.264 233.15C168.81 232.86 167.476 234.037 167.613 235.515C167.693 236.381 167.919 237.221 168.45 237.599C169.769 238.541 179.756 239.296 179.379 237.411C179.084 235.935 173.933 233.88 170.264 233.15Z" fill="white" stroke="#263238" stroke-miterlimit="10" stroke-linecap="round" stroke-linejoin="round"/>
<path d="M168.754 229.192C167.299 228.902 165.966 230.079 166.102 231.556C166.182 232.423 166.407 233.262 166.939 233.641C168.258 234.583 178.245 235.337 177.868 233.453C177.574 231.977 172.422 229.922 168.754 229.192Z" fill="white" stroke="#263238" stroke-miterlimit="10" stroke-linecap="round" stroke-linejoin="round"/>
<path d="M203.868 136.702C203.868 136.702 205.426 152.684 208.934 160.09C212.44 167.496 213.611 171.005 217.117 171.005C220.624 171.005 227.249 165.937 230.366 161.259C233.483 156.581 234.652 154.243 234.652 154.243L235.432 152.294C235.432 152.294 240.887 148.396 242.057 145.667C243.226 142.938 240.888 140.989 236.602 143.328C236.602 143.328 238.161 131.245 235.043 123.839C231.925 116.433 208.154 123.449 203.868 136.702Z" fill="white" stroke="#263238" stroke-miterlimit="10"/>
<path d="M199.614 142.767L225.947 148.146C225.947 148.146 226.132 152.227 223.35 153.526C220.568 154.824 217.045 154.082 215.005 152.227C212.965 150.372 212.965 146.848 212.965 146.848C212.965 146.848 211.296 145.549 211.11 146.848C210.964 147.876 209.77 151.229 205.967 151.109C203.476 151.031 201.27 149.334 200.433 146.985C200.051 145.91 199.731 144.522 199.614 142.767Z" fill="white" stroke="#263238" stroke-miterlimit="10" stroke-linecap="round" stroke-linejoin="round"/>
<path d="M225.949 148.147L236.889 142.396" stroke="#263238" stroke-miterlimit="10" stroke-linecap="round" stroke-linejoin="round"/>
<path d="M199.614 142.767L203.879 141.097" stroke="#263238" stroke-miterlimit="10" stroke-linecap="round" stroke-linejoin="round"/>
<path d="M211.3 147.961L209.445 154.825L211.671 155.381L212.227 160.761L215.751 159.833" fill="white"/>
<path d="M211.3 147.961L209.445 154.825L211.671 155.381L212.227 160.761L215.751 159.833" stroke="#263238" stroke-miterlimit="10" stroke-linecap="round" stroke-linejoin="round"/>
<path d="M215.173 110.976C215.173 110.976 199.586 123.059 198.027 130.465C196.468 137.871 206.599 140.989 213.224 139.82C219.849 138.651 229.591 132.414 229.591 132.414C229.591 132.414 224.136 140.989 228.422 141.38C232.708 141.769 234.267 141.38 234.267 141.38C234.267 141.38 231.93 146.058 233.878 146.058C235.827 146.058 236.606 143.329 236.606 143.329C236.606 143.329 242.061 130.465 240.503 118.772C238.944 107.077 224.525 103.568 215.173 110.976Z" fill="#263238" stroke="#263238" stroke-miterlimit="10"/>
</svg>
