<svg width="200" height="200" viewBox="0 0 200 200" fill="none" xmlns="http://www.w3.org/2000/svg">
<circle cx="100" cy="100" r="98" stroke="#20E086" stroke-width="4"/>
<g clip-path="url(#clip0_186_5366)">
<path d="M138.912 158.741C113.105 161.486 87.1601 161.486 61.3529 158.741C51.0574 157.643 42.8897 149.475 41.7915 139.18C39.0461 113.372 39.0461 87.4277 41.7915 61.6205C42.8897 51.325 51.0574 43.1573 61.3529 42.0591C87.1601 39.3136 113.105 39.3136 138.912 42.0591C149.207 43.1573 157.375 51.325 158.473 61.6205C161.219 87.4277 161.219 113.372 158.473 139.18C157.375 149.475 149.207 157.643 138.912 158.741Z" fill="#FFFC00"/>
<path d="M100.612 135.885H100.063H99.6512C94.984 135.885 91.8953 133.689 89.2185 131.835C87.434 130.6 85.7867 129.433 83.9335 129.09C82.9726 128.953 82.0803 128.884 81.1194 128.884C79.8153 128.884 78.4426 129.021 77.1385 129.296C76.5894 129.433 75.9717 129.502 75.4226 129.57C74.4617 129.639 73.5694 129.021 73.3635 128.06C73.1576 127.443 73.0203 126.825 72.9517 126.276C72.8144 125.727 72.6771 125.178 72.5399 124.697C66.6371 123.805 63.4112 122.432 62.5876 120.579C62.4503 120.305 62.4503 120.03 62.3817 119.755C62.313 118.863 62.9994 118.04 63.8917 117.834C73.9126 116.186 78.5112 105.891 78.6485 105.41L78.7171 105.342C79.1976 104.587 79.3349 103.695 79.0603 102.802C78.5112 101.498 76.3835 100.88 75.0108 100.4C74.599 100.263 74.1871 100.125 73.9126 99.9882C70.2749 98.5468 69.7944 96.8309 70.0003 95.6641C70.3435 94.0168 72.2653 92.9186 73.9126 92.9186C74.3244 92.9186 74.8049 92.9873 75.2167 93.1932C76.2462 93.7423 77.413 94.0168 78.5799 94.0855C78.9917 94.0855 79.4035 94.0168 79.8153 93.8795C79.8153 93.4677 79.678 92.2323 79.678 92.2323C79.3349 87.0845 78.9917 80.7014 80.639 76.9264C85.6494 65.7386 96.2881 64.8464 99.3767 64.8464H100.887C104.044 64.8464 114.683 65.7386 119.693 76.9264C121.409 80.7014 120.997 87.0845 120.654 92.2323C120.654 92.2323 120.585 93.3991 120.517 93.8795C120.86 94.0168 121.203 94.0855 121.478 94.0855C122.576 94.0168 123.605 93.6736 124.635 93.1932C125.115 92.9873 125.664 92.85 126.214 92.85C126.763 92.85 127.38 92.9873 127.861 93.1932C129.302 93.7423 130.263 94.8404 130.263 96.0073C130.332 97.5859 128.959 98.89 126.282 99.9195C126.008 100.057 125.664 100.125 125.253 100.263H125.184C123.811 100.743 121.684 101.361 121.134 102.665C120.86 103.489 120.997 104.45 121.478 105.205L121.546 105.342C121.752 105.754 126.282 116.118 136.303 117.765C137.195 117.902 137.882 118.726 137.813 119.618C137.813 119.893 137.744 120.167 137.607 120.442C136.852 122.295 133.558 123.668 127.655 124.56C127.449 125.109 127.312 125.59 127.243 126.139C127.106 126.756 126.969 127.305 126.831 127.923C126.625 128.815 125.802 129.433 124.841 129.365C124.223 129.365 123.674 129.296 123.125 129.159C121.821 128.884 120.517 128.747 119.144 128.747C118.183 128.747 117.222 128.815 116.33 128.953C114.477 129.227 112.829 130.463 111.045 131.698C108.368 133.757 105.279 135.885 100.612 135.885Z" fill="white"/>
</g>
<defs>
<clipPath id="clip0_186_5366">
<rect width="120.8" height="120.8" fill="white" transform="translate(39.7324 40)"/>
</clipPath>
</defs>
</svg>
