<svg width="30" height="30" viewBox="0 0 30 30" fill="none" xmlns="http://www.w3.org/2000/svg">
<path d="M22.0625 25.625C17.3625 26.125 12.6375 26.125 7.9375 25.625C6.0625 25.425 4.575 23.9375 4.375 22.0625C3.875 17.3625 3.875 12.6375 4.375 7.9375C4.575 6.0625 6.0625 4.575 7.9375 4.375C12.6375 3.875 17.3625 3.875 22.0625 4.375C23.9375 4.575 25.425 6.0625 25.625 7.9375C26.125 12.6375 26.125 17.3625 25.625 22.0625C25.425 23.9375 23.9375 25.425 22.0625 25.625Z" fill="#FFFC00"/>
<path d="M15.0884 21.4619H14.9884H14.9134C14.0634 21.4619 13.5009 21.0619 13.0134 20.7244C12.6884 20.4994 12.3884 20.2869 12.0509 20.2244C11.8759 20.1994 11.7134 20.1869 11.5384 20.1869C11.3009 20.1869 11.0509 20.2119 10.8134 20.2619C10.7134 20.2869 10.6009 20.2994 10.5009 20.3119C10.3259 20.3244 10.1634 20.2119 10.1259 20.0369C10.0884 19.9244 10.0634 19.8119 10.0509 19.7119C10.0259 19.6119 10.0009 19.5119 9.97586 19.4244C8.90086 19.2619 8.31336 19.0119 8.16336 18.6744C8.13836 18.6244 8.13836 18.5744 8.12586 18.5244C8.11336 18.3619 8.23836 18.2119 8.40086 18.1744C10.2259 17.8744 11.0634 15.9994 11.0884 15.9119L11.1009 15.8994C11.1884 15.7619 11.2134 15.5994 11.1634 15.4369C11.0634 15.1994 10.6759 15.0869 10.4259 14.9994C10.3509 14.9744 10.2759 14.9494 10.2259 14.9244C9.56336 14.6619 9.47586 14.3494 9.51336 14.1369C9.57586 13.8369 9.92586 13.6369 10.2259 13.6369C10.3009 13.6369 10.3884 13.6494 10.4634 13.6869C10.6509 13.7869 10.8634 13.8369 11.0759 13.8494C11.1509 13.8494 11.2259 13.8369 11.3009 13.8119C11.3009 13.7369 11.2759 13.5119 11.2759 13.5119C11.2134 12.5744 11.1509 11.4119 11.4509 10.7244C12.3634 8.68691 14.3009 8.52441 14.8634 8.52441H15.1384C15.7134 8.52441 17.6509 8.68691 18.5634 10.7244C18.8759 11.4119 18.8009 12.5744 18.7384 13.5119C18.7384 13.5119 18.7259 13.7244 18.7134 13.8119C18.7759 13.8369 18.8384 13.8494 18.8884 13.8494C19.0884 13.8369 19.2759 13.7744 19.4634 13.6869C19.5509 13.6494 19.6509 13.6244 19.7509 13.6244C19.8509 13.6244 19.9634 13.6494 20.0509 13.6869C20.3134 13.7869 20.4884 13.9869 20.4884 14.1994C20.5009 14.4869 20.2509 14.7244 19.7634 14.9119C19.7134 14.9369 19.6509 14.9494 19.5759 14.9744H19.5634C19.3134 15.0619 18.9259 15.1744 18.8259 15.4119C18.7759 15.5619 18.8009 15.7369 18.8884 15.8744L18.9009 15.8994C18.9384 15.9744 19.7634 17.8619 21.5884 18.1619C21.7509 18.1869 21.8759 18.3369 21.8634 18.4994C21.8634 18.5494 21.8509 18.5994 21.8259 18.6494C21.6884 18.9869 21.0884 19.2369 20.0134 19.3994C19.9759 19.4994 19.9509 19.5869 19.9384 19.6869C19.9134 19.7994 19.8884 19.8994 19.8634 20.0119C19.8259 20.1744 19.6759 20.2869 19.5009 20.2744C19.3884 20.2744 19.2884 20.2619 19.1884 20.2369C18.9509 20.1869 18.7134 20.1619 18.4634 20.1619C18.2884 20.1619 18.1134 20.1744 17.9509 20.1994C17.6134 20.2494 17.3134 20.4744 16.9884 20.6994C16.5009 21.0744 15.9384 21.4619 15.0884 21.4619Z" fill="white"/>
</svg>
