<svg width="1560" height="416" viewBox="0 0 1560 416" fill="none" xmlns="http://www.w3.org/2000/svg">
<g clip-path="url(#clip0_1293_12620)">
<rect width="1560" height="416" rx="10" fill="white"/>
<path d="M24.456 383.752C24.456 381.82 24.996 379.36 27.336 379.36C29.676 379.36 30.216 381.82 30.216 383.752C30.216 385.684 29.676 388.144 27.336 388.144C24.996 388.144 24.456 385.684 24.456 383.752ZM25.464 383.752C25.464 385 25.656 387.28 27.336 387.28C29.016 387.28 29.208 385 29.208 383.752C29.208 382.504 29.016 380.224 27.336 380.224C25.656 380.224 25.464 382.504 25.464 383.752ZM35.396 379.504L33.116 383.044L33.14 383.068C33.452 382.888 33.932 382.816 34.28 382.816C35.756 382.816 36.848 383.896 36.848 385.48C36.848 387.136 35.612 388.144 34.004 388.144C32.396 388.144 31.16 387.136 31.16 385.48C31.16 384.496 31.508 383.824 31.964 383.092L34.22 379.504H35.396ZM34.004 383.68C32.984 383.68 32.168 384.376 32.168 385.48C32.168 386.584 32.984 387.28 34.004 387.28C35.024 387.28 35.84 386.584 35.84 385.48C35.84 384.376 35.024 383.68 34.004 383.68ZM39.0039 382.24C39.3999 382.24 39.7239 382.564 39.7239 382.96C39.7239 383.356 39.3759 383.68 39.0039 383.68C38.6319 383.68 38.2839 383.356 38.2839 382.96C38.2839 382.564 38.6079 382.24 39.0039 382.24ZM39.0039 386.632C39.3999 386.632 39.7239 386.956 39.7239 387.352C39.7239 387.748 39.3759 388.072 39.0039 388.072C38.6319 388.072 38.2839 387.748 38.2839 387.352C38.2839 386.956 38.6079 386.632 39.0039 386.632ZM43.1238 383.968V383.104H43.4358C44.2758 383.104 45.3678 382.912 45.3678 381.628C45.3678 380.764 44.7678 380.224 43.9158 380.224C43.2078 380.224 42.6558 380.548 42.3558 381.172L41.3838 380.8C41.7918 379.84 42.7638 379.36 43.8438 379.36C45.1998 379.36 46.3758 380.116 46.3758 381.58C46.3758 382.468 45.7758 383.26 44.9238 383.524V383.548C46.0038 383.728 46.6638 384.616 46.6638 385.684C46.6638 387.304 45.3678 388.144 43.8558 388.144C42.5718 388.144 41.5518 387.616 41.1198 386.356L42.1398 386.02C42.4278 386.932 42.9198 387.28 43.8558 387.28C44.8158 387.28 45.5838 386.596 45.5838 385.612C45.5838 384.364 44.4798 383.968 43.4358 383.968H43.1238ZM47.7998 383.752C47.7998 381.82 48.3398 379.36 50.6798 379.36C53.0198 379.36 53.5598 381.82 53.5598 383.752C53.5598 385.684 53.0198 388.144 50.6798 388.144C48.3398 388.144 47.7998 385.684 47.7998 383.752ZM48.8078 383.752C48.8078 385 48.9998 387.28 50.6798 387.28C52.3598 387.28 52.5518 385 52.5518 383.752C52.5518 382.504 52.3598 380.224 50.6798 380.224C48.9998 380.224 48.8078 382.504 48.8078 383.752ZM57.4236 388L61.1676 379.504H62.1156L65.7276 388H64.5516L63.6876 385.912H59.4396L58.5636 388H57.4236ZM63.3036 384.976L61.6236 380.8H61.5996L59.8356 384.976H63.3036ZM66.8568 388V379.504H68.3568L71.2368 386.164H71.2608L74.1648 379.504H75.6288V388H74.6208V380.872H74.5968L71.5488 388H70.9368L67.8888 380.872H67.8648V388H66.8568Z" fill="#B3B3B2"/>
<path d="M515.32 379.504V388H514.312V380.8H514.288L512.764 382.084L512.164 381.352L514.444 379.504H515.32ZM521.988 379.504V388H520.98V380.8H520.956L519.432 382.084L518.832 381.352L521.112 379.504H521.988ZM526.004 382.24C526.4 382.24 526.724 382.564 526.724 382.96C526.724 383.356 526.376 383.68 526.004 383.68C525.632 383.68 525.284 383.356 525.284 382.96C525.284 382.564 525.608 382.24 526.004 382.24ZM526.004 386.632C526.4 386.632 526.724 386.956 526.724 387.352C526.724 387.748 526.376 388.072 526.004 388.072C525.632 388.072 525.284 387.748 525.284 387.352C525.284 386.956 525.608 386.632 526.004 386.632ZM530.124 383.968V383.104H530.436C531.276 383.104 532.368 382.912 532.368 381.628C532.368 380.764 531.768 380.224 530.916 380.224C530.208 380.224 529.656 380.548 529.356 381.172L528.384 380.8C528.792 379.84 529.764 379.36 530.844 379.36C532.2 379.36 533.376 380.116 533.376 381.58C533.376 382.468 532.776 383.26 531.924 383.524V383.548C533.004 383.728 533.664 384.616 533.664 385.684C533.664 387.304 532.368 388.144 530.856 388.144C529.572 388.144 528.552 387.616 528.12 386.356L529.14 386.02C529.428 386.932 529.92 387.28 530.856 387.28C531.816 387.28 532.584 386.596 532.584 385.612C532.584 384.364 531.48 383.968 530.436 383.968H530.124ZM534.8 383.752C534.8 381.82 535.34 379.36 537.68 379.36C540.02 379.36 540.56 381.82 540.56 383.752C540.56 385.684 540.02 388.144 537.68 388.144C535.34 388.144 534.8 385.684 534.8 383.752ZM535.808 383.752C535.808 385 536 387.28 537.68 387.28C539.36 387.28 539.552 385 539.552 383.752C539.552 382.504 539.36 380.224 537.68 380.224C536 380.224 535.808 382.504 535.808 383.752ZM544.424 388L548.168 379.504H549.116L552.728 388H551.552L550.688 385.912H546.44L545.564 388H544.424ZM550.304 384.976L548.624 380.8H548.6L546.836 384.976H550.304ZM553.857 388V379.504H555.357L558.237 386.164H558.261L561.165 379.504H562.629V388H561.621V380.872H561.597L558.549 388H557.937L554.889 380.872H554.865V388H553.857Z" fill="#B3B3B2"/>
<path d="M998.456 383.752C998.456 381.82 998.996 379.36 1001.34 379.36C1003.68 379.36 1004.22 381.82 1004.22 383.752C1004.22 385.684 1003.68 388.144 1001.34 388.144C998.996 388.144 998.456 385.684 998.456 383.752ZM999.464 383.752C999.464 385 999.656 387.28 1001.34 387.28C1003.02 387.28 1003.21 385 1003.21 383.752C1003.21 382.504 1003.02 380.224 1001.34 380.224C999.656 380.224 999.464 382.504 999.464 383.752ZM1007.12 383.968V383.104H1007.43C1008.27 383.104 1009.36 382.912 1009.36 381.628C1009.36 380.764 1008.76 380.224 1007.91 380.224C1007.2 380.224 1006.65 380.548 1006.35 381.172L1005.38 380.8C1005.78 379.84 1006.76 379.36 1007.84 379.36C1009.19 379.36 1010.37 380.116 1010.37 381.58C1010.37 382.468 1009.77 383.26 1008.92 383.524V383.548C1010 383.728 1010.66 384.616 1010.66 385.684C1010.66 387.304 1009.36 388.144 1007.85 388.144C1006.56 388.144 1005.54 387.616 1005.11 386.356L1006.13 386.02C1006.42 386.932 1006.91 387.28 1007.85 387.28C1008.81 387.28 1009.58 386.596 1009.58 385.612C1009.58 384.364 1008.47 383.968 1007.43 383.968H1007.12ZM1013 382.24C1013.4 382.24 1013.72 382.564 1013.72 382.96C1013.72 383.356 1013.38 383.68 1013 383.68C1012.63 383.68 1012.28 383.356 1012.28 382.96C1012.28 382.564 1012.61 382.24 1013 382.24ZM1013 386.632C1013.4 386.632 1013.72 386.956 1013.72 387.352C1013.72 387.748 1013.38 388.072 1013 388.072C1012.63 388.072 1012.28 387.748 1012.28 387.352C1012.28 386.956 1012.61 386.632 1013 386.632ZM1017.12 383.968V383.104H1017.44C1018.28 383.104 1019.37 382.912 1019.37 381.628C1019.37 380.764 1018.77 380.224 1017.92 380.224C1017.21 380.224 1016.66 380.548 1016.36 381.172L1015.38 380.8C1015.79 379.84 1016.76 379.36 1017.84 379.36C1019.2 379.36 1020.38 380.116 1020.38 381.58C1020.38 382.468 1019.78 383.26 1018.92 383.524V383.548C1020 383.728 1020.66 384.616 1020.66 385.684C1020.66 387.304 1019.37 388.144 1017.86 388.144C1016.57 388.144 1015.55 387.616 1015.12 386.356L1016.14 386.02C1016.43 386.932 1016.92 387.28 1017.86 387.28C1018.82 387.28 1019.58 386.596 1019.58 385.612C1019.58 384.364 1018.48 383.968 1017.44 383.968H1017.12ZM1021.8 383.752C1021.8 381.82 1022.34 379.36 1024.68 379.36C1027.02 379.36 1027.56 381.82 1027.56 383.752C1027.56 385.684 1027.02 388.144 1024.68 388.144C1022.34 388.144 1021.8 385.684 1021.8 383.752ZM1022.81 383.752C1022.81 385 1023 387.28 1024.68 387.28C1026.36 387.28 1026.55 385 1026.55 383.752C1026.55 382.504 1026.36 380.224 1024.68 380.224C1023 380.224 1022.81 382.504 1022.81 383.752ZM1032.41 388V379.504H1034.93C1036.49 379.504 1037.9 380.056 1037.9 381.832C1037.9 383.692 1036.32 384.184 1035.12 384.184H1033.42V388H1032.41ZM1033.42 380.44V383.248H1035.12C1036.13 383.248 1036.82 382.792 1036.82 381.844C1036.82 380.896 1036.13 380.44 1035.12 380.44H1033.42ZM1039.52 388V379.504H1041.02L1043.9 386.164H1043.92L1046.83 379.504H1048.29V388H1047.28V380.872H1047.26L1044.21 388H1043.6L1040.55 380.872H1040.53V388H1039.52Z" fill="#B3B3B2"/>
<path d="M1484.46 383.752C1484.46 381.82 1485 379.36 1487.34 379.36C1489.68 379.36 1490.22 381.82 1490.22 383.752C1490.22 385.684 1489.68 388.144 1487.34 388.144C1485 388.144 1484.46 385.684 1484.46 383.752ZM1485.46 383.752C1485.46 385 1485.66 387.28 1487.34 387.28C1489.02 387.28 1489.21 385 1489.21 383.752C1489.21 382.504 1489.02 380.224 1487.34 380.224C1485.66 380.224 1485.46 382.504 1485.46 383.752ZM1495.4 379.504L1493.12 383.044L1493.14 383.068C1493.45 382.888 1493.93 382.816 1494.28 382.816C1495.76 382.816 1496.85 383.896 1496.85 385.48C1496.85 387.136 1495.61 388.144 1494 388.144C1492.4 388.144 1491.16 387.136 1491.16 385.48C1491.16 384.496 1491.51 383.824 1491.96 383.092L1494.22 379.504H1495.4ZM1494 383.68C1492.98 383.68 1492.17 384.376 1492.17 385.48C1492.17 386.584 1492.98 387.28 1494 387.28C1495.02 387.28 1495.84 386.584 1495.84 385.48C1495.84 384.376 1495.02 383.68 1494 383.68ZM1499 382.24C1499.4 382.24 1499.72 382.564 1499.72 382.96C1499.72 383.356 1499.38 383.68 1499 383.68C1498.63 383.68 1498.28 383.356 1498.28 382.96C1498.28 382.564 1498.61 382.24 1499 382.24ZM1499 386.632C1499.4 386.632 1499.72 386.956 1499.72 387.352C1499.72 387.748 1499.38 388.072 1499 388.072C1498.63 388.072 1498.28 387.748 1498.28 387.352C1498.28 386.956 1498.61 386.632 1499 386.632ZM1503.12 383.968V383.104H1503.44C1504.28 383.104 1505.37 382.912 1505.37 381.628C1505.37 380.764 1504.77 380.224 1503.92 380.224C1503.21 380.224 1502.66 380.548 1502.36 381.172L1501.38 380.8C1501.79 379.84 1502.76 379.36 1503.84 379.36C1505.2 379.36 1506.38 380.116 1506.38 381.58C1506.38 382.468 1505.78 383.26 1504.92 383.524V383.548C1506 383.728 1506.66 384.616 1506.66 385.684C1506.66 387.304 1505.37 388.144 1503.86 388.144C1502.57 388.144 1501.55 387.616 1501.12 386.356L1502.14 386.02C1502.43 386.932 1502.92 387.28 1503.86 387.28C1504.82 387.28 1505.58 386.596 1505.58 385.612C1505.58 384.364 1504.48 383.968 1503.44 383.968H1503.12ZM1507.8 383.752C1507.8 381.82 1508.34 379.36 1510.68 379.36C1513.02 379.36 1513.56 381.82 1513.56 383.752C1513.56 385.684 1513.02 388.144 1510.68 388.144C1508.34 388.144 1507.8 385.684 1507.8 383.752ZM1508.81 383.752C1508.81 385 1509 387.28 1510.68 387.28C1512.36 387.28 1512.55 385 1512.55 383.752C1512.55 382.504 1512.36 380.224 1510.68 380.224C1509 380.224 1508.81 382.504 1508.81 383.752ZM1518.41 388V379.504H1520.93C1522.49 379.504 1523.9 380.056 1523.9 381.832C1523.9 383.692 1522.32 384.184 1521.12 384.184H1519.42V388H1518.41ZM1519.42 380.44V383.248H1521.12C1522.13 383.248 1522.82 382.792 1522.82 381.844C1522.82 380.896 1522.13 380.44 1521.12 380.44H1519.42ZM1525.52 388V379.504H1527.02L1529.9 386.164H1529.92L1532.83 379.504H1534.29V388H1533.28V380.872H1533.26L1530.21 388H1529.6L1526.55 380.872H1526.53V388H1525.52Z" fill="#B3B3B2"/>
<path d="M37.8521 81.504V82.44H34.3841L34.3481 84.732C34.6721 84.576 35.0921 84.528 35.4401 84.528C37.0721 84.528 38.1521 85.728 38.1521 87.324C38.1521 89.016 36.8921 90.144 35.2361 90.144C33.9521 90.144 33.1841 89.532 32.7281 88.596L33.7361 88.212C34.0241 88.848 34.6001 89.28 35.3201 89.28C36.3401 89.28 37.1441 88.5 37.1441 87.324C37.1441 86.076 36.2321 85.392 35.0441 85.392C34.4681 85.392 33.8201 85.62 33.3161 85.92L33.4001 81.504H37.8521ZM39.288 85.752C39.288 83.82 39.828 81.36 42.168 81.36C44.508 81.36 45.048 83.82 45.048 85.752C45.048 87.684 44.508 90.144 42.168 90.144C39.828 90.144 39.288 87.684 39.288 85.752ZM40.296 85.752C40.296 87 40.488 89.28 42.168 89.28C43.848 89.28 44.04 87 44.04 85.752C44.04 84.504 43.848 82.224 42.168 82.224C40.488 82.224 40.296 84.504 40.296 85.752ZM46.556 90V81.504H47.564V85.176H47.708L51.572 81.504H53.024L48.824 85.38L53.228 90H51.752L47.708 85.68H47.564V90H46.556Z" fill="#B3B3B2"/>
<path d="M36.4841 133.504V142H35.4761V134.8H35.4521L33.9281 136.084L33.3281 135.352L35.6081 133.504H36.4841ZM39.288 137.752C39.288 135.82 39.828 133.36 42.168 133.36C44.508 133.36 45.048 135.82 45.048 137.752C45.048 139.684 44.508 142.144 42.168 142.144C39.828 142.144 39.288 139.684 39.288 137.752ZM40.296 137.752C40.296 139 40.488 141.28 42.168 141.28C43.848 141.28 44.04 139 44.04 137.752C44.04 136.504 43.848 134.224 42.168 134.224C40.488 134.224 40.296 136.504 40.296 137.752ZM46.556 142V133.504H47.564V137.176H47.708L51.572 133.504H53.024L48.824 137.38L53.228 142H51.752L47.708 137.68H47.564V142H46.556Z" fill="#B3B3B2"/>
<path d="M36.4841 185.504V194H35.4761V186.8H35.4521L33.9281 188.084L33.3281 187.352L35.6081 185.504H36.4841ZM39.888 194V185.504H40.896V189.176H41.04L44.904 185.504H46.356L42.156 189.38L46.56 194H45.084L41.04 189.68H40.896V194H39.888Z" fill="#B3B3B2"/>
<path d="M37.8521 237.504V238.44H34.3841L34.3481 240.732C34.6721 240.576 35.0921 240.528 35.4401 240.528C37.0721 240.528 38.1521 241.728 38.1521 243.324C38.1521 245.016 36.8921 246.144 35.2361 246.144C33.9521 246.144 33.1841 245.532 32.7281 244.596L33.7361 244.212C34.0241 244.848 34.6001 245.28 35.3201 245.28C36.3401 245.28 37.1441 244.5 37.1441 243.324C37.1441 242.076 36.2321 241.392 35.0441 241.392C34.4681 241.392 33.8201 241.62 33.3161 241.92L33.4001 237.504H37.8521ZM39.288 241.752C39.288 239.82 39.828 237.36 42.168 237.36C44.508 237.36 45.048 239.82 45.048 241.752C45.048 243.684 44.508 246.144 42.168 246.144C39.828 246.144 39.288 243.684 39.288 241.752ZM40.296 241.752C40.296 243 40.488 245.28 42.168 245.28C43.848 245.28 44.04 243 44.04 241.752C44.04 240.504 43.848 238.224 42.168 238.224C40.488 238.224 40.296 240.504 40.296 241.752ZM45.956 241.752C45.956 239.82 46.496 237.36 48.836 237.36C51.176 237.36 51.716 239.82 51.716 241.752C51.716 243.684 51.176 246.144 48.836 246.144C46.496 246.144 45.956 243.684 45.956 241.752ZM46.964 241.752C46.964 243 47.156 245.28 48.836 245.28C50.516 245.28 50.708 243 50.708 241.752C50.708 240.504 50.516 238.224 48.836 238.224C47.156 238.224 46.964 240.504 46.964 241.752Z" fill="#B3B3B2"/>
<path d="M36.4841 289.504V298H35.4761V290.8H35.4521L33.9281 292.084L33.3281 291.352L35.6081 289.504H36.4841ZM39.288 293.752C39.288 291.82 39.828 289.36 42.168 289.36C44.508 289.36 45.048 291.82 45.048 293.752C45.048 295.684 44.508 298.144 42.168 298.144C39.828 298.144 39.288 295.684 39.288 293.752ZM40.296 293.752C40.296 295 40.488 297.28 42.168 297.28C43.848 297.28 44.04 295 44.04 293.752C44.04 292.504 43.848 290.224 42.168 290.224C40.488 290.224 40.296 292.504 40.296 293.752ZM45.956 293.752C45.956 291.82 46.496 289.36 48.836 289.36C51.176 289.36 51.716 291.82 51.716 293.752C51.716 295.684 51.176 298.144 48.836 298.144C46.496 298.144 45.956 295.684 45.956 293.752ZM46.964 293.752C46.964 295 47.156 297.28 48.836 297.28C50.516 297.28 50.708 295 50.708 293.752C50.708 292.504 50.516 290.224 48.836 290.224C47.156 290.224 46.964 292.504 46.964 293.752Z" fill="#B3B3B2"/>
<path d="M32.6201 345.752C32.6201 343.82 33.1601 341.36 35.5001 341.36C37.8401 341.36 38.3801 343.82 38.3801 345.752C38.3801 347.684 37.8401 350.144 35.5001 350.144C33.1601 350.144 32.6201 347.684 32.6201 345.752ZM33.6281 345.752C33.6281 347 33.8201 349.28 35.5001 349.28C37.1801 349.28 37.3721 347 37.3721 345.752C37.3721 344.504 37.1801 342.224 35.5001 342.224C33.8201 342.224 33.6281 344.504 33.6281 345.752ZM39.288 345.752C39.288 343.82 39.828 341.36 42.168 341.36C44.508 341.36 45.048 343.82 45.048 345.752C45.048 347.684 44.508 350.144 42.168 350.144C39.828 350.144 39.288 347.684 39.288 345.752ZM40.296 345.752C40.296 347 40.488 349.28 42.168 349.28C43.848 349.28 44.04 347 44.04 345.752C44.04 344.504 43.848 342.224 42.168 342.224C40.488 342.224 40.296 344.504 40.296 345.752Z" fill="#B3B3B2"/>
<line x1="80.9141" y1="93.5" x2="1159.91" y2="93.4999" stroke="#B3B3B2" stroke-opacity="0.3" stroke-linecap="round" stroke-dasharray="16 8"/>
<line x1="80.9141" y1="145.5" x2="1159.91" y2="145.5" stroke="#B3B3B2" stroke-opacity="0.3" stroke-linecap="round" stroke-dasharray="16 8"/>
<line x1="80.9141" y1="197.5" x2="1159.91" y2="197.5" stroke="#B3B3B2" stroke-opacity="0.3" stroke-linecap="round" stroke-dasharray="16 8"/>
<line x1="80.9141" y1="249.5" x2="1159.91" y2="249.5" stroke="#B3B3B2" stroke-opacity="0.3" stroke-linecap="round" stroke-dasharray="16 8"/>
<line x1="80.9141" y1="301.5" x2="1159.91" y2="301.5" stroke="#B3B3B2" stroke-opacity="0.3" stroke-linecap="round" stroke-dasharray="16 8"/>
<line x1="80.9141" y1="353.501" x2="1159.91" y2="353.501" stroke="#B3B3B2" stroke-opacity="0.3" stroke-linecap="round" stroke-dasharray="16 8"/>
<path d="M286.52 214.716C252.169 212.977 217.383 170.974 183.032 148.512C155.862 130.857 122.862 123.83 80.4141 120V354H2037.12V218.054C2006.51 200.104 1976.29 180.299 1934.5 168.192C1900.15 158.248 1865.36 158.248 1831.01 164.507C1796.44 170.765 1762.52 183.283 1728.39 190.724C1694.26 198.095 1660.34 200.46 1625.77 192.88C1591.42 185.369 1556.64 167.984 1522.29 156.509C1487.72 145.035 1453.8 139.472 1419.23 154.771C1384.88 170.07 1350.1 206.232 1315.74 212.49C1281.18 218.749 1247.26 195.105 1213.13 188.29C1178.99 181.405 1145.08 191.419 1110.51 187.247C1076.16 183.074 1041.37 164.715 1007.02 167.427C972.452 170.07 938.536 193.714 904.403 204.632C870.269 215.481 836.353 213.673 801.785 217.706C767.434 221.739 732.648 231.753 698.297 238.012C663.728 244.271 629.812 246.774 595.244 239.82C560.893 232.866 526.107 216.454 491.756 198.095C457.188 179.806 423.272 159.639 389.138 168.818C355.004 177.928 321.088 216.454 286.52 214.716Z" fill="url(#paint0_linear_1293_12620)"/>
<path d="M80.4141 120C122.862 123.83 155.862 130.857 183.032 148.512C217.383 170.974 252.169 212.977 286.52 214.716C321.088 216.454 355.004 177.928 389.138 168.818C423.272 159.639 457.188 179.806 491.756 198.095C526.107 216.454 560.893 232.866 595.244 239.82C629.812 246.774 663.728 244.271 698.297 238.012C732.648 231.753 767.434 221.739 801.785 217.706C836.353 213.673 870.269 215.481 904.403 204.632C938.536 193.714 972.452 170.07 1007.02 167.427C1041.37 164.715 1076.16 183.074 1110.51 187.247C1145.08 191.419 1178.99 181.405 1213.13 188.29C1247.26 195.105 1281.18 218.749 1315.74 212.49C1350.1 206.232 1384.88 170.07 1419.23 154.771C1453.8 139.472 1487.72 145.035 1522.29 156.509C1556.64 167.984 1591.42 185.369 1625.77 192.88C1660.34 200.46 1694.26 198.095 1728.39 190.724C1762.52 183.283 1796.44 170.765 1831.01 164.507C1865.36 158.248 1900.15 158.248 1934.5 168.192C1976.29 180.299 2006.51 200.104 2037.12 218.054" stroke="#20E086" stroke-width="5" stroke-linecap="round"/>
<g filter="url(#filter0_i_1293_12620)">
<rect width="1560" height="56" fill="white"/>
<path d="M25.58 33V18.84H34.96V21.12H28.1V24.6H34.6V26.88H28.1V30.72H35.32V33H25.58ZM44.3066 24.62L42.7066 26.06C42.2466 25.42 41.6466 25.08 40.8266 25.08C40.1866 25.08 39.4266 25.38 39.4266 26.1C39.4266 27.82 44.6066 26.42 44.6066 30.16C44.6066 32.44 42.4266 33.24 40.4666 33.24C38.9866 33.24 37.7066 32.86 36.7266 31.76L38.3266 30.26C38.9466 30.94 39.5866 31.44 40.6066 31.44C41.3066 31.44 42.2066 31.1 42.2066 30.34C42.2066 28.36 37.0266 29.92 37.0266 26.26C37.0266 24.12 38.9466 23.16 40.8866 23.16C42.1666 23.16 43.5266 23.56 44.3066 24.62ZM47.3333 25.44H45.3533V23.4H47.3333V20.62H49.7333V23.4H52.3733V25.44H49.7333V29.64C49.7333 30.6 50.0133 31.2 51.0733 31.2C51.4933 31.2 52.0733 31.12 52.3733 30.9V32.92C51.8733 33.16 51.0333 33.24 50.4733 33.24C47.9333 33.24 47.3333 32.1 47.3333 29.84V25.44ZM54.2867 33V23.4H56.6867V33H54.2867ZM53.9467 20.14C53.9467 19.38 54.5867 18.7 55.4667 18.7C56.3467 18.7 57.0267 19.32 57.0267 20.14C57.0267 20.96 56.3467 21.58 55.4667 21.58C54.5867 21.58 53.9467 20.9 53.9467 20.14ZM59.342 33V23.4H61.622V24.9H61.662C62.082 24 63.002 23.16 64.602 23.16C66.082 23.16 67.102 23.74 67.602 24.94C68.302 23.72 69.322 23.16 70.762 23.16C73.322 23.16 74.222 24.98 74.222 27.28V33H71.822V27.56C71.822 26.36 71.462 25.32 70.042 25.32C68.542 25.32 67.982 26.56 67.982 27.8V33H65.582V27.28C65.582 26.1 65.102 25.32 63.942 25.32C62.362 25.32 61.742 26.48 61.742 27.76V33H59.342ZM82.8444 33V31.68H82.7844C82.1044 32.76 80.9844 33.24 79.7044 33.24C77.9244 33.24 76.2044 32.26 76.2044 30.36C76.2044 27.24 79.8444 27.02 82.2444 27.02H82.8444V26.76C82.8444 25.58 81.9244 24.96 80.6444 24.96C79.6444 24.96 78.7244 25.36 78.0844 25.96L76.8244 24.7C77.8844 23.62 79.3844 23.16 80.9044 23.16C85.0044 23.16 85.0044 26.12 85.0044 27.48V33H82.8444ZM82.7044 29.24V28.7H82.2044C80.8844 28.7 78.6044 28.8 78.6044 30.18C78.6044 31.06 79.5044 31.44 80.2844 31.44C81.9244 31.44 82.7044 30.58 82.7044 29.24ZM88.4466 25.44H86.4666V23.4H88.4466V20.62H90.8466V23.4H93.4866V25.44H90.8466V29.64C90.8466 30.6 91.1266 31.2 92.1866 31.2C92.6066 31.2 93.1866 31.12 93.4866 30.9V32.92C92.9866 33.16 92.1466 33.24 91.5866 33.24C89.0466 33.24 88.4466 32.1 88.4466 29.84V25.44ZM104.6 29.04H97.28C97.44 30.46 98.52 31.32 99.86 31.32C101.06 31.32 101.84 30.76 102.44 30.02L104.16 31.32C103.04 32.7 101.62 33.24 100.1 33.24C97.2 33.24 94.88 31.22 94.88 28.2C94.88 25.18 97.2 23.16 100.1 23.16C102.78 23.16 104.6 25.04 104.6 28.38V29.04ZM97.28 27.24H102.2C102.18 25.84 101.26 24.96 99.76 24.96C98.34 24.96 97.46 25.86 97.28 27.24ZM114.444 33V31.56H114.404C113.704 32.72 112.444 33.24 111.104 33.24C108.144 33.24 106.364 31.04 106.364 28.2C106.364 25.36 108.264 23.16 111.004 23.16C112.804 23.16 113.764 24 114.264 24.62H114.324V17.88H116.724V33H114.444ZM108.764 28.2C108.764 29.7 109.824 31.08 111.584 31.08C113.344 31.08 114.404 29.7 114.404 28.2C114.404 26.7 113.344 25.32 111.584 25.32C109.824 25.32 108.764 26.7 108.764 28.2ZM125.58 33V18.84H130.5C133.22 18.84 135.78 19.72 135.78 22.9C135.78 24.94 134.6 26.44 132.5 26.74L136.26 33H133.22L129.94 27H128.1V33H125.58ZM128.1 24.84H130.06C131.48 24.84 133.14 24.72 133.14 22.88C133.14 21.2 131.58 21 130.28 21H128.1V24.84ZM147.198 29.04H139.878C140.038 30.46 141.118 31.32 142.458 31.32C143.658 31.32 144.438 30.76 145.038 30.02L146.758 31.32C145.638 32.7 144.218 33.24 142.698 33.24C139.798 33.24 137.478 31.22 137.478 28.2C137.478 25.18 139.798 23.16 142.698 23.16C145.378 23.16 147.198 25.04 147.198 28.38V29.04ZM139.878 27.24H144.798C144.778 25.84 143.858 24.96 142.358 24.96C140.938 24.96 140.058 25.86 139.878 27.24ZM152.062 33L148.142 23.4H150.762L153.322 30.12H153.362L155.942 23.4H158.402L154.622 33H152.062ZM169.053 29.04H161.733C161.893 30.46 162.973 31.32 164.313 31.32C165.513 31.32 166.293 30.76 166.893 30.02L168.613 31.32C167.493 32.7 166.073 33.24 164.553 33.24C161.653 33.24 159.333 31.22 159.333 28.2C159.333 25.18 161.653 23.16 164.553 23.16C167.233 23.16 169.053 25.04 169.053 28.38V29.04ZM161.733 27.24H166.653C166.633 25.84 165.713 24.96 164.213 24.96C162.793 24.96 161.913 25.86 161.733 27.24ZM171.298 33V23.4H173.578V24.94H173.618C174.058 23.98 174.958 23.16 176.558 23.16C179.138 23.16 180.058 24.98 180.058 26.94V33H177.658V28.14C177.658 27.08 177.578 25.32 175.898 25.32C174.318 25.32 173.698 26.48 173.698 27.76V33H171.298ZM191.542 23.4V33H189.262V31.46H189.222C188.782 32.42 187.882 33.24 186.282 33.24C183.702 33.24 182.782 31.42 182.782 29.46V23.4H185.182V28.26C185.182 29.32 185.262 31.08 186.942 31.08C188.522 31.08 189.142 29.92 189.142 28.64V23.4H191.542ZM203.506 29.04H196.186C196.346 30.46 197.426 31.32 198.766 31.32C199.966 31.32 200.746 30.76 201.346 30.02L203.066 31.32C201.946 32.7 200.526 33.24 199.006 33.24C196.106 33.24 193.786 31.22 193.786 28.2C193.786 25.18 196.106 23.16 199.006 23.16C201.686 23.16 203.506 25.04 203.506 28.38V29.04ZM196.186 27.24H201.106C201.086 25.84 200.166 24.96 198.666 24.96C197.246 24.96 196.366 25.86 196.186 27.24ZM224.469 24.72V31.96C222.749 32.88 220.789 33.36 218.609 33.36C214.249 33.36 211.129 30.4 211.129 25.98C211.129 21.44 214.249 18.48 218.609 18.48C220.769 18.48 222.709 18.94 224.189 20.26L222.329 22.14C221.429 21.26 220.049 20.76 218.629 20.76C215.709 20.76 213.769 23 213.769 25.82C213.769 28.84 215.709 31.08 218.629 31.08C219.909 31.08 221.069 30.84 221.949 30.34V27H219.049V24.72H224.469ZM236.475 29.04H229.155C229.315 30.46 230.395 31.32 231.735 31.32C232.935 31.32 233.715 30.76 234.315 30.02L236.035 31.32C234.915 32.7 233.495 33.24 231.975 33.24C229.075 33.24 226.755 31.22 226.755 28.2C226.755 25.18 229.075 23.16 231.975 23.16C234.655 23.16 236.475 25.04 236.475 28.38V29.04ZM229.155 27.24H234.075C234.055 25.84 233.135 24.96 231.635 24.96C230.215 24.96 229.335 25.86 229.155 27.24ZM238.719 33V23.4H240.999V24.94H241.039C241.479 23.98 242.379 23.16 243.979 23.16C246.559 23.16 247.479 24.98 247.479 26.94V33H245.079V28.14C245.079 27.08 244.999 25.32 243.319 25.32C241.739 25.32 241.119 26.48 241.119 27.76V33H238.719ZM259.444 29.04H252.124C252.284 30.46 253.364 31.32 254.704 31.32C255.904 31.32 256.684 30.76 257.284 30.02L259.004 31.32C257.884 32.7 256.464 33.24 254.944 33.24C252.044 33.24 249.724 31.22 249.724 28.2C249.724 25.18 252.044 23.16 254.944 23.16C257.624 23.16 259.444 25.04 259.444 28.38V29.04ZM252.124 27.24H257.044C257.024 25.84 256.104 24.96 254.604 24.96C253.184 24.96 252.304 25.86 252.124 27.24ZM261.688 33V23.4H264.088V24.92H264.128C264.648 23.82 265.708 23.16 266.968 23.16C267.268 23.16 267.548 23.22 267.828 23.3V25.62C267.428 25.52 267.048 25.44 266.668 25.44C264.408 25.44 264.088 27.34 264.088 27.86V33H261.688ZM275.462 33V31.68H275.402C274.722 32.76 273.602 33.24 272.322 33.24C270.542 33.24 268.822 32.26 268.822 30.36C268.822 27.24 272.462 27.02 274.862 27.02H275.462V26.76C275.462 25.58 274.542 24.96 273.262 24.96C272.262 24.96 271.342 25.36 270.702 25.96L269.442 24.7C270.502 23.62 272.002 23.16 273.522 23.16C277.622 23.16 277.622 26.12 277.622 27.48V33H275.462ZM275.322 29.24V28.7H274.822C273.502 28.7 271.222 28.8 271.222 30.18C271.222 31.06 272.122 31.44 272.902 31.44C274.542 31.44 275.322 30.58 275.322 29.24ZM281.064 25.44H279.084V23.4H281.064V20.62H283.464V23.4H286.104V25.44H283.464V29.64C283.464 30.6 283.744 31.2 284.804 31.2C285.224 31.2 285.804 31.12 286.104 30.9V32.92C285.604 33.16 284.764 33.24 284.204 33.24C281.664 33.24 281.064 32.1 281.064 29.84V25.44ZM297.217 29.04H289.897C290.057 30.46 291.137 31.32 292.477 31.32C293.677 31.32 294.457 30.76 295.057 30.02L296.777 31.32C295.657 32.7 294.237 33.24 292.717 33.24C289.817 33.24 287.497 31.22 287.497 28.2C287.497 25.18 289.817 23.16 292.717 23.16C295.397 23.16 297.217 25.04 297.217 28.38V29.04ZM289.897 27.24H294.817C294.797 25.84 293.877 24.96 292.377 24.96C290.957 24.96 290.077 25.86 289.897 27.24ZM307.062 33V31.56H307.022C306.322 32.72 305.062 33.24 303.722 33.24C300.762 33.24 298.982 31.04 298.982 28.2C298.982 25.36 300.882 23.16 303.622 23.16C305.422 23.16 306.382 24 306.882 24.62H306.942V17.88H309.342V33H307.062ZM301.382 28.2C301.382 29.7 302.442 31.08 304.202 31.08C305.962 31.08 307.022 29.7 307.022 28.2C307.022 26.7 305.962 25.32 304.202 25.32C302.442 25.32 301.382 26.7 301.382 28.2Z" fill="#020D3A"/>
<rect x="1445" y="10.5" width="91" height="35" rx="5" fill="#B3B3B2" fill-opacity="0.2"/>
<path d="M1456.82 32.5V22.612H1453.18V21.172H1462.01V22.612H1458.36V32.5H1456.82ZM1462.66 28.708C1462.66 30.244 1463.62 31.348 1465.16 31.348C1466.69 31.348 1467.65 30.244 1467.65 28.708C1467.65 27.172 1466.69 26.068 1465.16 26.068C1463.62 26.068 1462.66 27.172 1462.66 28.708ZM1461.13 28.708C1461.13 26.5 1462.9 24.724 1465.16 24.724C1467.41 24.724 1469.19 26.5 1469.19 28.708C1469.19 30.916 1467.41 32.692 1465.16 32.692C1462.9 32.692 1461.13 30.916 1461.13 28.708ZM1478.59 20.404V32.5H1477.15V31.412H1477.12C1476.56 32.228 1475.51 32.692 1474.48 32.692C1472.13 32.692 1470.63 30.948 1470.63 28.708C1470.63 26.436 1472.15 24.724 1474.48 24.724C1475.57 24.724 1476.61 25.22 1477.12 26.004H1477.15V20.404H1478.59ZM1474.66 31.348C1476.19 31.348 1477.15 30.244 1477.15 28.708C1477.15 27.172 1476.19 26.068 1474.66 26.068C1473.12 26.068 1472.16 27.172 1472.16 28.708C1472.16 30.244 1473.12 31.348 1474.66 31.348ZM1481.67 26.74L1480.81 25.844C1481.61 25.092 1482.76 24.724 1483.82 24.724C1486.06 24.724 1486.98 25.94 1486.98 27.252V31.124C1486.98 31.652 1487 32.1 1487.05 32.5H1485.77C1485.74 32.116 1485.72 31.732 1485.72 31.348H1485.69C1485.05 32.324 1484.18 32.692 1483.03 32.692C1481.62 32.692 1480.41 31.892 1480.41 30.42C1480.41 28.468 1482.28 27.796 1484.58 27.796H1485.64V27.476C1485.64 26.692 1485.06 25.876 1483.83 25.876C1482.73 25.876 1482.2 26.34 1481.67 26.74ZM1485.64 28.852H1484.87C1483.51 28.852 1481.85 29.092 1481.85 30.308C1481.85 31.172 1482.49 31.54 1483.48 31.54C1485.08 31.54 1485.64 30.356 1485.64 29.332V28.852ZM1491.31 32.548L1488.16 24.916H1489.82L1492.08 30.836H1492.11L1494.26 24.916H1495.81L1492.21 34.132C1491.7 35.444 1491.2 36.34 1489.62 36.34C1489.18 36.34 1488.74 36.292 1488.34 36.132L1488.51 34.82C1488.78 34.932 1489.09 34.996 1489.38 34.996C1490.29 34.996 1490.56 34.5 1490.85 33.748L1491.31 32.548Z" fill="#020D3A"/>
<path d="M1525 26L1520 31L1515 26" stroke="#020D3A" stroke-width="1.25" stroke-linecap="round" stroke-linejoin="round"/>
</g>
</g>
<rect x="0.5" y="0.5" width="1559" height="415" rx="9.5" stroke="#B3B3B2" stroke-opacity="0.4"/>
<defs>
<filter id="filter0_i_1293_12620" x="0" y="0" width="1560" height="56" filterUnits="userSpaceOnUse" color-interpolation-filters="sRGB">
<feFlood flood-opacity="0" result="BackgroundImageFix"/>
<feBlend mode="normal" in="SourceGraphic" in2="BackgroundImageFix" result="shape"/>
<feColorMatrix in="SourceAlpha" type="matrix" values="0 0 0 0 0 0 0 0 0 0 0 0 0 0 0 0 0 0 127 0" result="hardAlpha"/>
<feOffset dy="-1"/>
<feComposite in2="hardAlpha" operator="arithmetic" k2="-1" k3="1"/>
<feColorMatrix type="matrix" values="0 0 0 0 0.701961 0 0 0 0 0.701961 0 0 0 0 0.698039 0 0 0 0.2 0"/>
<feBlend mode="normal" in2="shape" result="effect1_innerShadow_1293_12620"/>
</filter>
<linearGradient id="paint0_linear_1293_12620" x1="1058.76" y1="120" x2="1058.76" y2="354" gradientUnits="userSpaceOnUse">
<stop stop-color="#20E086"/>
<stop offset="1" stop-color="white" stop-opacity="0"/>
</linearGradient>
<clipPath id="clip0_1293_12620">
<rect width="1560" height="416" rx="10" fill="white"/>
</clipPath>
</defs>
</svg>
