<svg width="90" height="90" viewBox="0 0 90 90" fill="none" xmlns="http://www.w3.org/2000/svg">
<path d="M84.4463 49.958L40.0791 34.2024C38.4395 33.6961 36.6113 34.1461 35.3204 35.3808C34.0295 36.6127 33.4951 38.4155 33.9563 40.1986L47.6223 85.0805C48.1482 86.993 49.771 88.2755 51.7735 88.3599C51.841 88.3599 51.9113 88.3627 51.9788 88.3627C54.0798 88.3627 55.9388 87.0324 56.687 84.8836L62.8267 64.1752L83.9232 58.9495C86.0466 58.3167 87.4838 56.4239 87.4951 54.2358C87.5035 52.2052 86.2632 50.5092 84.452 49.9524L84.4463 49.958Z" fill="#20E086"/>
<path d="M28.5761 41.8386C27.5523 37.8955 28.6717 33.9496 31.4392 31.3114C34.1983 28.6705 38.1498 27.7143 41.7386 28.828L58.5011 34.7764C56.4227 26.1336 48.6461 19.6846 39.3789 19.6846C28.5255 19.6846 19.6914 28.5158 19.6914 39.3721C19.6914 48.2005 25.5358 55.6902 33.557 58.1793L28.5789 41.8358L28.5761 41.8386Z" fill="#020D3A"/>
<path d="M35.4291 64.3471C23.3438 62.443 14.0625 51.9861 14.0625 39.3749C14.0625 25.4193 25.4166 14.0624 39.375 14.0624C52.5094 14.0624 63.3291 24.1171 64.5637 36.9308L75.8587 40.9386C75.8812 40.4155 75.9375 39.9008 75.9375 39.3721C75.9375 19.2121 59.535 2.80957 39.375 2.80957C19.215 2.80957 2.8125 19.2149 2.8125 39.3749C2.8125 59.3943 18.99 75.6871 38.9531 75.9149L35.4291 64.3471Z" fill="#20E086"/>
</svg>
