<svg width="200" height="200" viewBox="0 0 200 200" fill="none" xmlns="http://www.w3.org/2000/svg">
<g clip-path="url(#clip0_186_5373)">
<path d="M100 0C44.7801 0 0 44.7801 0 100C0 155.22 44.7801 200 100 200C155.22 200 200 155.22 200 100C200 44.7801 155.22 0 100 0ZM150.168 76.5129V90.0531C143.783 90.0555 137.58 88.8043 131.729 86.3359C127.967 84.7477 124.462 82.7012 121.256 80.2281L121.352 121.905C121.312 131.29 117.599 140.107 110.879 146.749C105.41 152.155 98.4805 155.593 90.9695 156.706C89.2047 156.968 87.4086 157.102 85.5922 157.102C77.5519 157.102 69.9188 154.497 63.6746 149.691C62.4996 148.787 61.3758 147.806 60.3059 146.749C53.023 139.551 49.2676 129.796 49.9 119.533C50.3824 111.721 53.5102 104.27 58.7242 98.4309C65.6227 90.7035 75.2734 86.4145 85.5922 86.4145C87.4086 86.4145 89.2047 86.5508 90.9695 86.8121V91.8184V105.745C89.2961 105.193 87.509 104.889 85.648 104.889C76.2207 104.889 68.5938 112.581 68.7348 122.015C68.8242 128.052 72.1215 133.328 76.9848 136.237C79.2703 137.604 81.8996 138.451 84.7055 138.605C86.9039 138.725 89.0148 138.419 90.9695 137.774C97.7051 135.549 102.564 129.222 102.564 121.761L102.586 93.8516V42.8984H121.233C121.251 44.7461 121.439 46.5488 121.787 48.2957C123.195 55.3664 127.18 61.5008 132.727 65.6828C137.564 69.3309 143.586 71.4934 150.114 71.4934C150.118 71.4934 150.172 71.4934 150.168 71.4891V76.5129H150.168Z" fill="#020D3A"/>
</g>
<defs>
<clipPath id="clip0_186_5373">
<rect width="200" height="200" fill="white"/>
</clipPath>
</defs>
</svg>
