<svg width="30" height="30" viewBox="0 0 30 30" fill="none" xmlns="http://www.w3.org/2000/svg">
<path d="M15 4C8.92581 4 4 8.92581 4 15C4 21.0742 8.92581 26 15 26C21.0742 26 26 21.0742 26 15C26 8.92581 21.0742 4 15 4ZM20.5185 12.4164V13.9058C19.8162 13.9061 19.1338 13.7685 18.4902 13.497C18.0763 13.3222 17.6908 13.0971 17.3381 12.8251L17.3487 17.4096C17.3443 18.4419 16.9359 19.4118 16.1967 20.1424C15.5951 20.7371 14.8329 21.1153 14.0066 21.2377C13.8125 21.2664 13.6149 21.2812 13.4151 21.2812C12.5307 21.2812 11.6911 20.9947 11.0042 20.4661C10.875 20.3665 10.7513 20.2586 10.6336 20.1424C9.83253 19.3506 9.41943 18.2775 9.489 17.1486C9.54207 16.2893 9.88612 15.4697 10.4597 14.8274C11.2185 13.9774 12.2801 13.5056 13.4151 13.5056C13.6149 13.5056 13.8125 13.5206 14.0066 13.5493V14.1V15.6319C13.8226 15.5712 13.626 15.5378 13.4213 15.5378C12.3843 15.5378 11.5453 16.3839 11.5608 17.4217C11.5707 18.0857 11.9334 18.6661 12.4683 18.986C12.7197 19.1364 13.009 19.2296 13.3176 19.2465C13.5594 19.2598 13.7916 19.2261 14.0066 19.1551C14.7476 18.9104 15.282 18.2144 15.282 17.3937L15.2845 14.3237V8.71883H17.3357C17.3376 8.92207 17.3583 9.12037 17.3966 9.31253C17.5514 10.0903 17.9898 10.7651 18.6 11.2251C19.132 11.6264 19.7945 11.8643 20.5125 11.8643C20.513 11.8643 20.5189 11.8643 20.5184 11.8638V12.4164H20.5185Z" fill="black"/>
</svg>
