<svg width="75" height="100" viewBox="0 0 75 100" fill="none" xmlns="http://www.w3.org/2000/svg">
<path fill-rule="evenodd" clip-rule="evenodd" d="M13.0232 0H46.4693L74.799 29.556V86.9767C74.799 94.1649 68.964 100 61.7758 100H13.0232C5.83508 100 0 94.1649 0 86.9767V13.0232C0 5.83508 5.83508 0 13.0232 0Z" fill="#00733B"/>
<path opacity="0.302" fill-rule="evenodd" clip-rule="evenodd" d="M46.4297 0V29.3023H74.8018L46.4297 0Z" fill="white"/>
<path fill-rule="evenodd" clip-rule="evenodd" d="M22.0312 73.3616H35.3082V78.3933H22.0312V73.3616ZM39.452 47.6533H52.7713V52.6427H39.452V47.6533ZM22.0312 47.6533H35.3082V52.6427H22.0312V47.6533ZM39.452 56.1099H52.7713V61.1417H39.452V56.1099ZM22.0312 56.1099H35.3082V61.1417H22.0312V56.1099ZM39.452 64.9049H52.7713V69.9366H39.452V64.9049ZM22.0312 64.9049H35.3082V69.9366H22.0312V64.9049ZM39.452 73.3616H52.7713V78.3933H39.452V73.3616Z" fill="white"/>
</svg>
