<svg width="21" height="20" viewBox="0 0 21 20" fill="none" xmlns="http://www.w3.org/2000/svg">
<path d="M18.832 10.832C18.611 10.832 18.3991 10.9198 18.2428 11.0761C18.0865 11.2324 17.9987 11.4444 17.9987 11.6654V15.1762C17.998 15.792 17.7531 16.3823 17.3177 16.8177C16.8823 17.2531 16.292 17.498 15.6762 17.4987H5.3212C4.70544 17.498 4.11508 17.2531 3.67967 16.8177C3.24426 16.3823 2.99936 15.792 2.9987 15.1762V11.6654C2.9987 11.4444 2.9109 11.2324 2.75462 11.0761C2.59834 10.9198 2.38638 10.832 2.16536 10.832C1.94435 10.832 1.73239 10.9198 1.57611 11.0761C1.41983 11.2324 1.33203 11.4444 1.33203 11.6654V15.1762C1.33313 16.2339 1.75377 17.2479 2.50165 17.9957C3.24952 18.7436 4.26354 19.1643 5.3212 19.1654H15.6762C16.7339 19.1643 17.7479 18.7436 18.4957 17.9957C19.2436 17.2479 19.6643 16.2339 19.6654 15.1762V11.6654C19.6654 11.4444 19.5776 11.2324 19.4213 11.0761C19.265 10.9198 19.053 10.832 18.832 10.832Z" fill="#020D3A"/>
<path d="M6.08804 7.25631L9.66554 3.67881V14.1671C9.66554 14.3882 9.75334 14.6001 9.90962 14.7564C10.0659 14.9127 10.2779 15.0005 10.4989 15.0005C10.7199 15.0005 10.9318 14.9127 11.0881 14.7564C11.2444 14.6001 11.3322 14.3882 11.3322 14.1671V3.67881L14.9097 7.25631C15.0669 7.4081 15.2774 7.4921 15.4959 7.4902C15.7144 7.4883 15.9234 7.40066 16.0779 7.24615C16.2324 7.09165 16.32 6.88264 16.3219 6.66414C16.3238 6.44564 16.2398 6.23514 16.088 6.07797L11.088 1.07797C10.9318 0.921747 10.7198 0.833984 10.4989 0.833984C10.2779 0.833984 10.066 0.921747 9.90971 1.07797L4.90971 6.07797C4.75791 6.23514 4.67391 6.44564 4.67581 6.66414C4.67771 6.88264 4.76535 7.09165 4.91986 7.24615C5.07437 7.40066 5.28338 7.4883 5.50187 7.4902C5.72037 7.4921 5.93087 7.4081 6.08804 7.25631Z" fill="#020D3A"/>
</svg>
