<svg width="25" height="26" viewBox="0 0 25 26" fill="none" xmlns="http://www.w3.org/2000/svg">
<g clip-path="url(#clip0_1293_18639)">
<path d="M8.33464 20.0833C6.5638 19.4063 6.19922 18.4167 6.19922 17.7396C6.19922 15.4479 7.39714 13.2604 9.32422 12.1146C9.53255 12.0104 9.74089 12.0104 9.89714 12.1667C11.4076 13.3646 13.5951 13.4167 15.1576 12.1667C15.3138 12.0104 15.5742 12.0104 15.7305 12.1146C17.6576 13.3125 18.8555 15.4479 18.8555 17.7396C18.8555 20.9167 11.6159 21.3333 8.33464 20.0833ZM9.53255 13.1563C8.07422 14.1979 7.1888 15.9167 7.1888 17.7396C7.1888 20.3438 17.8138 20.3438 17.8138 17.7396C17.8138 15.9167 16.9284 14.1979 15.4701 13.1563C13.6992 14.3542 11.3555 14.4063 9.53255 13.1563Z" fill="#020D3A"/>
<path d="M12.5013 12.2189C10.5742 12.2189 9.01172 10.6564 9.01172 8.72933C9.01172 6.80225 10.5742 5.23975 12.5013 5.23975C14.4284 5.23975 15.9909 6.80225 15.9909 8.72933C15.9909 10.6564 14.4284 12.2189 12.5013 12.2189ZM12.5013 6.28141C11.1471 6.28141 10.0534 7.37516 10.0534 8.72933C10.0534 10.0835 11.1471 11.1772 12.5013 11.1772C13.8555 11.1772 14.9492 10.0835 14.9492 8.72933C14.9492 7.37516 13.8555 6.28141 12.5013 6.28141Z" fill="#020D3A"/>
<path d="M12.5 25.5C5.625 25.5 0 19.875 0 13C0 6.125 5.625 0.5 12.5 0.5C19.375 0.5 25 6.125 25 13C25 19.875 19.375 25.5 12.5 25.5ZM12.5 1.54167C6.19792 1.54167 1.04167 6.69792 1.04167 13C1.04167 19.3021 6.19792 24.4583 12.5 24.4583C18.8021 24.4583 23.9583 19.3021 23.9583 13C23.9583 6.69792 18.8021 1.54167 12.5 1.54167Z" fill="#020D3A"/>
</g>
<defs>
<clipPath id="clip0_1293_18639">
<rect width="25" height="25" fill="white" transform="translate(0 0.5)"/>
</clipPath>
</defs>
</svg>
