<svg width="120" height="49" viewBox="0 0 120 49" fill="none" xmlns="http://www.w3.org/2000/svg">
<path fill-rule="evenodd" clip-rule="evenodd" d="M33.0606 14.8013L23.1953 34.0871H13.9288L18.0575 26.0942H17.8723C14.4662 30.5158 9.38414 33.4265 2.14307 34.0871V26.2049C2.14307 26.2049 6.77536 25.9312 9.49855 23.0682H2.14307V14.8014H10.4098V21.6007L10.5954 21.6L13.9735 14.8014H20.2255V21.5576L20.4109 21.5573L23.9158 14.8013H33.0606Z" fill="black"/>
<path d="M86.8579 31.9583H89.5203V16.6763H86.8579V31.9583Z" fill="black"/>
<path fill-rule="evenodd" clip-rule="evenodd" d="M72.1796 31.8023C72.7582 32.0428 73.3467 32.1631 73.9448 32.1631C74.933 32.1631 75.8173 31.9226 76.5975 31.4414C77.3776 30.9603 77.9823 30.2972 78.4114 29.452C78.8405 28.6003 79.055 27.6347 79.055 26.5554C79.055 25.4762 78.834 24.5107 78.3919 23.659C77.9498 22.8073 77.3354 22.1474 76.5486 21.6793C75.762 21.2047 74.868 20.9706 73.8667 20.9771C73.2297 20.9771 72.6185 21.1006 72.0333 21.3477C71.4482 21.5948 70.9606 21.9458 70.5705 22.401C70.5403 22.4356 70.5111 22.4706 70.4827 22.5059V16.686H67.8105V31.9584H70.4632L70.4579 30.5316C70.5264 30.6157 70.5998 30.6979 70.6777 30.7783C71.1003 31.2139 71.601 31.5552 72.1796 31.8023ZM74.9103 29.335C74.4747 29.6015 73.9773 29.7348 73.4181 29.7348C72.8655 29.7348 72.3584 29.5982 71.8968 29.3252C71.4351 29.0456 71.0678 28.6653 70.7947 28.1841C70.5281 27.7031 70.3948 27.1568 70.3948 26.5457C70.3884 25.9345 70.5184 25.3884 70.785 24.9073C71.0581 24.4197 71.4254 24.0426 71.887 23.776C72.3486 23.503 72.859 23.3697 73.4181 23.3762C73.9773 23.3697 74.4747 23.4997 74.9103 23.7663C75.3524 24.0264 75.6904 24.4002 75.9245 24.8878C76.1651 25.3689 76.2854 25.9216 76.2854 26.5457C76.2854 27.1699 76.1651 27.7226 75.9245 28.2036C75.6904 28.6848 75.3524 29.0618 74.9103 29.335Z" fill="black"/>
<path d="M36.918 17.603H39.9607L42.6826 27.5434L45.5782 17.603H48.1138L51.2541 27.3439L53.8677 17.603H56.6569L52.5414 31.9586H49.918L46.7247 22.4426L43.7935 31.9586H41.1408L36.918 17.603Z" fill="black"/>
<path fill-rule="evenodd" clip-rule="evenodd" d="M61.1502 32.2118C60.0903 32.2184 59.1346 31.9842 58.2829 31.5097C57.4377 31.0285 56.7713 30.3621 56.2836 29.5104C55.8025 28.6587 55.562 27.6867 55.562 26.5944C55.562 25.5346 55.8091 24.5757 56.3032 23.7175C56.7973 22.8593 57.4669 22.1896 58.3122 21.7085C59.1574 21.2274 60.1001 20.9868 61.1403 20.9868C62.3107 20.9868 63.3346 21.2469 64.2123 21.767C65.0966 22.2871 65.7565 23.0251 66.1921 23.9808C66.6342 24.93 66.7935 26.019 66.67 27.2479H58.3164C58.3397 27.7374 58.4619 28.1828 58.6828 28.5839C58.9299 29.026 59.2744 29.3706 59.7165 29.6177C60.1587 29.8647 60.6527 29.9883 61.1989 29.9883C61.615 29.9817 62.0019 29.9103 62.3594 29.7738C62.7171 29.6307 63.0193 29.4389 63.2664 29.1983C63.52 28.9578 63.6988 28.6848 63.8028 28.3792H66.592C66.4229 29.1268 66.0849 29.7933 65.5778 30.3784C65.0706 30.9571 64.4335 31.4089 63.6662 31.734C62.8991 32.059 62.0604 32.2184 61.1502 32.2118ZM58.6925 24.566C58.5367 24.8376 58.4287 25.1302 58.3686 25.4437H63.9061C63.866 25.0477 63.7437 24.6868 63.5395 24.3611C63.3054 23.9776 62.9868 23.6817 62.5838 23.4737C62.1807 23.2591 61.7255 23.1519 61.2184 23.1519C60.6788 23.1519 60.1879 23.2754 59.7458 23.5224C59.3037 23.7695 58.9526 24.1173 58.6925 24.566Z" fill="black"/>
<path d="M81.0158 21.2112C81.0158 20.34 81.214 19.5663 81.6106 18.8901C82.0071 18.2074 82.5631 17.6775 83.2783 17.3005C83.9999 16.9169 84.842 16.7186 85.8041 16.7056V19.0754C85.3555 19.0819 84.9719 19.1762 84.6534 19.3582C84.3413 19.5338 84.1007 19.7906 83.9317 20.1287C83.7761 20.4399 83.6921 20.8007 83.6798 21.2112H85.7456V23.464H83.6782V31.9584H81.0158V23.464H79.2993V21.2112H81.0158Z" fill="black"/>
<path fill-rule="evenodd" clip-rule="evenodd" d="M96.2878 32.1923C95.202 32.1923 94.23 31.955 93.3718 31.4805C92.5201 30.9993 91.8504 30.3362 91.3628 29.4909C90.8816 28.6392 90.6411 27.6738 90.6411 26.5944C90.6411 25.5087 90.8816 24.5399 91.3628 23.6882C91.8504 22.83 92.5201 22.1636 93.3718 21.689C94.23 21.2144 95.202 20.9771 96.2878 20.9771C97.38 20.9771 98.3553 21.2144 99.2134 21.689C100.078 22.1636 100.751 22.8268 101.232 23.6785C101.713 24.5302 101.957 25.5022 101.964 26.5944C101.957 27.6738 101.713 28.6392 101.232 29.4909C100.758 30.3362 100.088 30.9993 99.2232 31.4805C98.3585 31.955 97.38 32.1923 96.2878 32.1923ZM96.2878 29.7445C96.8599 29.7445 97.367 29.6144 97.8091 29.3544C98.2513 29.0878 98.5925 28.7172 98.8332 28.2426C99.0737 27.7615 99.1939 27.2121 99.1939 26.5944C99.1939 25.9703 99.0737 25.4176 98.8332 24.9365C98.5925 24.4554 98.2513 24.0848 97.8091 23.8248C97.367 23.5582 96.8599 23.4249 96.2878 23.4249C95.7222 23.4249 95.2183 23.5582 94.7761 23.8248C94.3406 24.0848 94.0024 24.4554 93.7619 24.9365C93.5213 25.4176 93.4043 25.9703 93.4108 26.5944C93.4108 27.2121 93.5311 27.7615 93.7716 28.2426C94.0187 28.7172 94.3567 29.0878 94.7859 29.3544C95.2215 29.6144 95.7222 29.7445 96.2878 29.7445Z" fill="black"/>
<path d="M104.841 21.2114H101.876L105.084 31.9586H107.679L109.789 25.0944L112.067 31.9586H114.622L117.841 21.2114H115.159L113.333 27.9009L111.316 21.2114H108.722L106.714 28.0482L104.841 21.2114Z" fill="black"/>
</svg>
