<svg width="30" height="30" viewBox="0 0 30 30" fill="none" xmlns="http://www.w3.org/2000/svg">
<path d="M28.4231 8.12949C28.1003 6.90581 27.1546 5.94125 25.9553 5.61173C23.7642 5 14.9997 5 14.9997 5C14.9997 5 6.23545 5 4.04433 5.58841C2.86813 5.91771 1.89935 6.90603 1.57657 8.12949C1 10.3646 1 15 1 15C1 15 1 19.6587 1.57657 21.8705C1.89956 23.094 2.84505 24.0588 4.04454 24.3883C6.25852 25 14.9999 25 14.9999 25C14.9999 25 23.7642 25 25.9553 24.4116C27.1548 24.0823 28.1003 23.1175 28.4233 21.894C28.9999 19.6587 28.9999 15.0235 28.9999 15.0235C28.9999 15.0235 29.023 10.3646 28.4231 8.12949Z" fill="#FF0000"/>
<path d="M12 19L19 15L12 11V19Z" fill="white"/>
</svg>
