<svg width="200" height="200" viewBox="0 0 200 200" fill="none" xmlns="http://www.w3.org/2000/svg">
<circle cx="100" cy="100" r="97.5" stroke="#020D3A" stroke-width="5"/>
<g clip-path="url(#clip0_186_5376)">
<path d="M99.9992 160.571C133.452 160.571 160.571 133.453 160.571 100C160.571 66.5473 133.452 39.4286 99.9992 39.4286C66.5465 39.4286 39.4277 66.5473 39.4277 100C39.4277 133.453 66.5465 160.571 99.9992 160.571Z" fill="#F20000"/>
<path d="M128.866 85.431C127.655 81.6692 123.646 79.4456 119.924 78.9275C106.657 77.5168 93.2776 77.5168 80.0106 78.9275C76.3205 79.4456 72.3116 81.7011 71.1002 85.431C69.2114 95.0545 69.2114 104.953 71.1002 114.577C72.3435 118.331 76.3524 120.562 80.0743 121.08C93.3418 122.483 106.72 122.483 119.988 121.08C123.678 120.562 127.687 118.299 128.898 114.577C130.776 104.951 130.766 95.0524 128.866 85.431ZM92.7545 111.604V88.3958L111.651 100C105.283 103.913 99.0985 107.723 92.7545 111.604Z" fill="white"/>
</g>
<defs>
<clipPath id="clip0_186_5376">
<rect width="121.143" height="121.143" fill="white" transform="translate(39.4277 39.4286)"/>
</clipPath>
</defs>
</svg>
